G04 #@! TF.GenerationSoftware,KiCad,Pcbnew,(2018-01-07 revision 47989ccfc)-makepkg*
G04 #@! TF.CreationDate,2018-01-22T20:28:46+10:30*
G04 #@! TF.ProjectId,din_meter_atm90e26,64696E5F6D657465725F61746D393065,rev?*
G04 #@! TF.SameCoordinates,Original*
G04 #@! TF.FileFunction,Profile,NP*
%FSLAX46Y46*%
G04 Gerber Fmt 4.6, Leading zero omitted, Abs format (unit mm)*
G04 Created by KiCad (PCBNEW (2018-01-07 revision 47989ccfc)-makepkg) date 01/22/18 20:28:46*
%MOMM*%
%LPD*%
G01*
G04 APERTURE LIST*
%ADD10C,0.150000*%
G04 APERTURE END LIST*
D10*
X134160000Y-80150000D02*
X134747000Y-80645000D01*
X155910000Y-80150000D02*
X155194000Y-80645000D01*
X131160000Y-58400000D02*
X160660000Y-58400000D01*
X130660000Y-80150000D02*
X134160000Y-80150000D01*
X129910000Y-79400000D02*
X130660000Y-80150000D01*
X161160000Y-80150000D02*
X155910000Y-80150000D01*
X161910000Y-79400000D02*
X161160000Y-80150000D01*
X160660000Y-58400000D02*
X161910000Y-59650000D01*
X129910000Y-59650000D02*
X131160000Y-58400000D01*
X161910000Y-79400000D02*
X161910000Y-59650000D01*
X129910000Y-59650000D02*
X129910000Y-79400000D01*
X147193000Y-80264000D02*
X147828000Y-80899000D01*
X146812000Y-80264000D02*
X146177000Y-80899000D01*
X134747000Y-80645000D02*
X134747000Y-80645000D01*
X150876000Y-58293000D02*
X150876000Y-58293000D01*
X155194000Y-88900000D02*
X155194000Y-80645000D01*
X154559000Y-89535000D02*
X155194000Y-88900000D01*
X148463000Y-89535000D02*
X154559000Y-89535000D01*
X147828000Y-88900000D02*
X148463000Y-89535000D01*
X147828000Y-80899000D02*
X147828000Y-88900000D01*
X146812000Y-80264000D02*
X147193000Y-80264000D01*
X146177000Y-88900000D02*
X146177000Y-80899000D01*
X145542000Y-89535000D02*
X146177000Y-88900000D01*
X135382000Y-89535000D02*
X145542000Y-89535000D01*
X134747000Y-88900000D02*
X135382000Y-89535000D01*
X134747000Y-80645000D02*
X134747000Y-88900000D01*
M02*
