M48
INCH,TZ
T1C0.012
T2C0.041
%
G90
G05
T1
X53470Y-26205
X53642Y-24644
X53644Y-29640
X53802Y-26104
X53865Y-32078
X54416Y-29935
X54513Y-28114
X54768Y-29553
X54787Y-26105
X54827Y-25608
X55010Y-29774
X55169Y-28157
X55221Y-25831
X55239Y-24791
X55239Y-26886
X55271Y-30033
X55698Y-31557
X56100Y-32292
X56201Y-25606
X56291Y-28162
X56293Y-27569
X56293Y-28975
X56444Y-26339
X56702Y-28979
X56712Y-30657
X57022Y-28499
X57912Y-25424
X58204Y-27657
X58227Y-28976
X58230Y-26126
X58468Y-32133
X58478Y-29563
X58656Y-27048
X58658Y-26492
X58659Y-29261
X58660Y-28493
X58660Y-27645
X58726Y-29848
X59061Y-31431
X59709Y-27441
X60125Y-25542
X60152Y-25062
X60325Y-26650
X60393Y-30070
X60403Y-27375
X60408Y-32424
X60530Y-27801
X60550Y-26932
X60796Y-29791
X61081Y-30176
X61205Y-28002
X61255Y-26208
X61284Y-29864
X61468Y-26797
X61469Y-27362
X62545Y-30067
X62614Y-29006
T2
X53900Y-24150
X54688Y-24150
X55475Y-24150
X56263Y-24150
X57050Y-24150
X57837Y-24150
X58625Y-24150
X59412Y-24150
X60200Y-24150
X60987Y-24150
T0
M30
