G04 #@! TF.GenerationSoftware,KiCad,Pcbnew,(2017-06-19 revision 6733101c6)-makepkg*
G04 #@! TF.CreationDate,2017-10-16T02:16:10+10:30*
G04 #@! TF.ProjectId,din_meter_atm90e26,64696E5F6D657465725F61746D393065,rev?*
G04 #@! TF.SameCoordinates,Original
G04 #@! TF.FileFunction,Copper,L1,Top,Signal*
G04 #@! TF.FilePolarity,Positive*
%FSLAX46Y46*%
G04 Gerber Fmt 4.6, Leading zero omitted, Abs format (unit mm)*
G04 Created by KiCad (PCBNEW (2017-06-19 revision 6733101c6)-makepkg) date 10/16/17 02:16:10*
%MOMM*%
%LPD*%
G01*
G04 APERTURE LIST*
%ADD10C,0.100000*%
%ADD11R,0.600000X0.400000*%
%ADD12R,0.500000X0.600000*%
%ADD13R,2.400000X2.000000*%
%ADD14R,1.575000X1.575000*%
%ADD15C,1.575000*%
%ADD16R,0.800000X0.750000*%
%ADD17R,1.750000X0.450000*%
%ADD18C,0.650000*%
%ADD19R,0.650000X4.600000*%
%ADD20R,0.650000X3.600000*%
%ADD21C,0.600000*%
%ADD22C,0.150000*%
%ADD23C,0.300000*%
G04 APERTURE END LIST*
D10*
D11*
X136017000Y-80380000D03*
X136017000Y-81280000D03*
X142494000Y-80253000D03*
X142494000Y-81153000D03*
D12*
X154940000Y-64685000D03*
X154940000Y-63585000D03*
X150495000Y-63585000D03*
X150495000Y-64685000D03*
X141374000Y-63585000D03*
X141374000Y-64685000D03*
X137160000Y-64685000D03*
X137160000Y-63585000D03*
D11*
X153543000Y-64585000D03*
X153543000Y-63685000D03*
X138557000Y-63685000D03*
X138557000Y-64585000D03*
X151892000Y-64585000D03*
X151892000Y-63685000D03*
X139954000Y-63685000D03*
X139954000Y-64585000D03*
D13*
X145288000Y-64952000D03*
X145288000Y-68652000D03*
X146685000Y-72064000D03*
X146685000Y-75764000D03*
D12*
X155829000Y-78274000D03*
X155829000Y-77174000D03*
X151892000Y-77174000D03*
X151892000Y-78274000D03*
X140208000Y-78274000D03*
X140208000Y-77174000D03*
X136271000Y-77174000D03*
X136271000Y-78274000D03*
D11*
X154432000Y-78174000D03*
X154432000Y-77274000D03*
X153162000Y-78174000D03*
X153162000Y-77274000D03*
X138938000Y-77274000D03*
X138938000Y-78174000D03*
X137541000Y-78174000D03*
X137541000Y-77274000D03*
D12*
X150622000Y-78274000D03*
X150622000Y-77174000D03*
X141351000Y-77174000D03*
X141351000Y-78274000D03*
D11*
X149352000Y-77274000D03*
X149352000Y-78174000D03*
X142621000Y-78174000D03*
X142621000Y-77274000D03*
D14*
X154907000Y-61341000D03*
D15*
X152907000Y-61341000D03*
X150907000Y-61341000D03*
X148907000Y-61341000D03*
X146907000Y-61341000D03*
X144907000Y-61341000D03*
X142907000Y-61341000D03*
X140907000Y-61341000D03*
X138907000Y-61341000D03*
X136907000Y-61341000D03*
D12*
X159512000Y-74465000D03*
X159512000Y-75565000D03*
X159512000Y-70654000D03*
X159512000Y-69554000D03*
X159512000Y-65871000D03*
X159512000Y-66971000D03*
X144018000Y-75396000D03*
X144018000Y-76496000D03*
X144060000Y-71332000D03*
X144060000Y-72432000D03*
D16*
X158865000Y-77724000D03*
X157365000Y-77724000D03*
X156603000Y-64389000D03*
X158103000Y-64389000D03*
D17*
X150324000Y-75091000D03*
X150324000Y-74441000D03*
X150324000Y-73791000D03*
X150324000Y-73141000D03*
X150324000Y-72491000D03*
X150324000Y-71841000D03*
X150324000Y-71191000D03*
X150324000Y-70541000D03*
X150324000Y-69891000D03*
X150324000Y-69241000D03*
X150324000Y-68591000D03*
X150324000Y-67941000D03*
X150324000Y-67291000D03*
X150324000Y-66641000D03*
X157524000Y-66641000D03*
X157524000Y-67291000D03*
X157524000Y-67941000D03*
X157524000Y-68591000D03*
X157524000Y-69241000D03*
X157524000Y-69891000D03*
X157524000Y-70541000D03*
X157524000Y-71191000D03*
X157524000Y-71841000D03*
X157524000Y-72491000D03*
X157524000Y-73141000D03*
X157524000Y-73791000D03*
X157524000Y-74441000D03*
X157524000Y-75091000D03*
D12*
X147955000Y-68284000D03*
X147955000Y-69384000D03*
X147955000Y-65320000D03*
X147955000Y-64220000D03*
X132588000Y-75438000D03*
X132588000Y-74338000D03*
X132588000Y-69554000D03*
X132588000Y-70654000D03*
X132588000Y-65871000D03*
X132588000Y-66971000D03*
D16*
X134862000Y-77724000D03*
X133362000Y-77724000D03*
X133997000Y-64389000D03*
X135497000Y-64389000D03*
D18*
X136508000Y-87723000D03*
X152508000Y-87723000D03*
X151508000Y-87723000D03*
X150508000Y-87723000D03*
X149508000Y-87723000D03*
X148508000Y-87723000D03*
X135508000Y-87723000D03*
X145508000Y-87723000D03*
X144508000Y-87723000D03*
X143508000Y-87723000D03*
X142508000Y-87723000D03*
X141508000Y-87723000D03*
X140508000Y-87723000D03*
X139508000Y-87723000D03*
X138508000Y-87723000D03*
X137508000Y-87723000D03*
D19*
X149508000Y-85423000D03*
X148508000Y-85423000D03*
X154508000Y-85423000D03*
D20*
X153508000Y-84923000D03*
D19*
X152508000Y-85423000D03*
X151508000Y-85423000D03*
X150508000Y-85423000D03*
X145508000Y-85423000D03*
X144508000Y-85423000D03*
X143508000Y-85423000D03*
X142508000Y-85423000D03*
X141508000Y-85423000D03*
X140508000Y-85423000D03*
X139508000Y-85423000D03*
X138508000Y-85423000D03*
X137508000Y-85423000D03*
X136508000Y-85423000D03*
X135508000Y-85423000D03*
D18*
X154508000Y-87723000D03*
D17*
X141649000Y-66641000D03*
X141649000Y-67291000D03*
X141649000Y-67941000D03*
X141649000Y-68591000D03*
X141649000Y-69241000D03*
X141649000Y-69891000D03*
X141649000Y-70541000D03*
X141649000Y-71191000D03*
X141649000Y-71841000D03*
X141649000Y-72491000D03*
X141649000Y-73141000D03*
X141649000Y-73791000D03*
X141649000Y-74441000D03*
X141649000Y-75091000D03*
X134449000Y-75091000D03*
X134449000Y-74441000D03*
X134449000Y-73791000D03*
X134449000Y-73141000D03*
X134449000Y-72491000D03*
X134449000Y-71841000D03*
X134449000Y-71191000D03*
X134449000Y-70541000D03*
X134449000Y-69891000D03*
X134449000Y-69241000D03*
X134449000Y-68591000D03*
X134449000Y-67941000D03*
X134449000Y-67291000D03*
X134449000Y-66641000D03*
D21*
X140308000Y-68290500D03*
X142749300Y-65038400D03*
X148993000Y-74321900D03*
X147896600Y-73598600D03*
X143367300Y-66900100D03*
X136255000Y-75286100D03*
X138461900Y-71409800D03*
X140307200Y-62968400D03*
X144023100Y-73607700D03*
X155459600Y-71124900D03*
X135813700Y-66559900D03*
X136657800Y-66303400D03*
X153797400Y-68406700D03*
X154420900Y-75668800D03*
X159040700Y-73674900D03*
X158865000Y-76369100D03*
X138217600Y-76035500D03*
X148534400Y-75090900D03*
X156129500Y-68064500D03*
X155660600Y-75855600D03*
X148995900Y-72373200D03*
X147096500Y-64576900D03*
X147837300Y-70249800D03*
X147903300Y-66360000D03*
X149165200Y-75814100D03*
X148996300Y-70217500D03*
X151661200Y-69699800D03*
X148985400Y-68701000D03*
X148992400Y-67288600D03*
X144049600Y-77868100D03*
X156132000Y-69498400D03*
X155146500Y-76646300D03*
X142984600Y-70026100D03*
X144835900Y-72388000D03*
X140260700Y-65610900D03*
X140128900Y-71518200D03*
X142978500Y-71531800D03*
X142985200Y-73596300D03*
X139726600Y-75626900D03*
X140388400Y-76282700D03*
X136817900Y-81477900D03*
X155586900Y-66567700D03*
X153225800Y-67691200D03*
X153746200Y-70615000D03*
X139261800Y-65043700D03*
X148508000Y-81617200D03*
X153399300Y-76377600D03*
X153423200Y-69531700D03*
X152717500Y-64876400D03*
X153435300Y-82358200D03*
X136250900Y-62596800D03*
X150014400Y-79834300D03*
X139111300Y-75063400D03*
X139159700Y-66307900D03*
X152785700Y-63657600D03*
X142494000Y-82022000D03*
X141472300Y-80153900D03*
D22*
X141649000Y-66641000D02*
X140548700Y-66641000D01*
X140548700Y-68049800D02*
X140308000Y-68290500D01*
X140548700Y-66641000D02*
X140548700Y-68049800D01*
X141649000Y-67291000D02*
X142749300Y-67291000D01*
X150324000Y-74441000D02*
X149223700Y-74441000D01*
X142749300Y-61498700D02*
X142749300Y-65038400D01*
X142907000Y-61341000D02*
X142749300Y-61498700D01*
X142749300Y-67291000D02*
X142749300Y-65038400D01*
X149104600Y-74321900D02*
X148993000Y-74321900D01*
X149223700Y-74441000D02*
X149104600Y-74321900D01*
X141649000Y-67941000D02*
X142749300Y-67941000D01*
X143201400Y-67488900D02*
X142749300Y-67941000D01*
X143201400Y-67066000D02*
X143201400Y-67488900D01*
X143367300Y-66900100D02*
X143201400Y-67066000D01*
X143367300Y-62880700D02*
X144907000Y-61341000D01*
X143367300Y-66900100D02*
X143367300Y-62880700D01*
X150324000Y-73791000D02*
X149223700Y-73791000D01*
X149031300Y-73598600D02*
X147896600Y-73598600D01*
X149223700Y-73791000D02*
X149031300Y-73598600D01*
X141649000Y-68591000D02*
X142749300Y-68591000D01*
X150324000Y-73141000D02*
X149223700Y-73141000D01*
X148945400Y-73141000D02*
X149223700Y-73141000D01*
X148183600Y-72379200D02*
X148945400Y-73141000D01*
X148183600Y-71029500D02*
X148183600Y-72379200D01*
X147951000Y-70796900D02*
X148183600Y-71029500D01*
X144899600Y-70796900D02*
X147951000Y-70796900D01*
X143047100Y-68944400D02*
X144899600Y-70796900D01*
X143047100Y-68591000D02*
X143047100Y-68944400D01*
X142749300Y-68591000D02*
X143047100Y-68591000D01*
X146379700Y-61341000D02*
X146907000Y-61341000D01*
X143805200Y-63915500D02*
X146379700Y-61341000D01*
X143805200Y-66595100D02*
X143805200Y-63915500D01*
X143892600Y-66682500D02*
X143805200Y-66595100D01*
X143892600Y-67117800D02*
X143892600Y-66682500D01*
X143543100Y-67467300D02*
X143892600Y-67117800D01*
X143543100Y-68095000D02*
X143543100Y-67467300D01*
X143047100Y-68591000D02*
X143543100Y-68095000D01*
X132588000Y-74338000D02*
X133063300Y-74338000D01*
X134449000Y-74441000D02*
X133348700Y-74441000D01*
X133166300Y-74441000D02*
X133063300Y-74338000D01*
X133348700Y-74441000D02*
X133166300Y-74441000D01*
X135599400Y-74491100D02*
X135549300Y-74441000D01*
X135599400Y-75486600D02*
X135599400Y-74491100D01*
X133962300Y-77123700D02*
X135599400Y-75486600D01*
X133362000Y-77123700D02*
X133962300Y-77123700D01*
X133362000Y-77724000D02*
X133362000Y-77123700D01*
X134449000Y-74441000D02*
X135549300Y-74441000D01*
X134449000Y-73791000D02*
X135549300Y-73791000D01*
X136255000Y-74496700D02*
X136255000Y-75286100D01*
X135549300Y-73791000D02*
X136255000Y-74496700D01*
D23*
X157524000Y-74441000D02*
X158749300Y-74441000D01*
X159512000Y-69554000D02*
X158911700Y-69554000D01*
X157524000Y-66641000D02*
X158749300Y-66641000D01*
X158749300Y-65871000D02*
X158911700Y-65871000D01*
X158749300Y-66641000D02*
X158749300Y-65871000D01*
X156429300Y-77909400D02*
X156429300Y-78274000D01*
X156614700Y-77724000D02*
X156429300Y-77909400D01*
X150002300Y-78254600D02*
X150021700Y-78274000D01*
X150002300Y-78174000D02*
X150002300Y-78254600D01*
X149352000Y-78174000D02*
X150002300Y-78174000D01*
X150321900Y-78274000D02*
X150021700Y-78274000D01*
X150321900Y-78274000D02*
X150622000Y-78274000D01*
X157365000Y-77724000D02*
X156614700Y-77724000D01*
X142621000Y-78174000D02*
X143271300Y-78174000D01*
X144018000Y-75396000D02*
X143417700Y-75396000D01*
X159337000Y-65871000D02*
X158911700Y-65871000D01*
X159337000Y-65871000D02*
X159512000Y-65871000D01*
X159512000Y-65871000D02*
X160112300Y-65871000D01*
X159512000Y-69554000D02*
X160112300Y-69554000D01*
X159438600Y-75565000D02*
X159512000Y-75565000D01*
X159512000Y-75565000D02*
X160112300Y-75565000D01*
X149352000Y-78174000D02*
X148701700Y-78174000D01*
X159438600Y-75565000D02*
X159175200Y-75565000D01*
X157365000Y-77724000D02*
X157365000Y-76998700D01*
X155829000Y-78274000D02*
X156429300Y-78274000D01*
X150622000Y-78274000D02*
X151892000Y-78274000D01*
X158074100Y-69891000D02*
X157524000Y-69891000D01*
X158749300Y-74441000D02*
X158749300Y-75565000D01*
X159175200Y-75565000D02*
X158749300Y-75565000D01*
X144018000Y-75396000D02*
X144018000Y-74745700D01*
X142494000Y-80253000D02*
X142494000Y-79702700D01*
X142494000Y-78851300D02*
X142494000Y-79702700D01*
X142621000Y-78724300D02*
X142494000Y-78851300D01*
X157365000Y-76949300D02*
X157365000Y-76998700D01*
X158749300Y-75565000D02*
X157365000Y-76949300D01*
X160112300Y-75565000D02*
X160112300Y-69554000D01*
X154940000Y-63585000D02*
X154339700Y-63585000D01*
X160112300Y-69554000D02*
X160112300Y-65871000D01*
X158103000Y-65224700D02*
X158749300Y-65871000D01*
X158103000Y-65114300D02*
X158103000Y-65224700D01*
X133188300Y-67255600D02*
X133223700Y-67291000D01*
X133188300Y-66971000D02*
X133188300Y-67255600D01*
X132588000Y-66971000D02*
X133188300Y-66971000D01*
X134449000Y-67291000D02*
X133223700Y-67291000D01*
X133188300Y-69926400D02*
X133223700Y-69891000D01*
X133188300Y-70654000D02*
X133188300Y-69926400D01*
X132588000Y-70654000D02*
X133188300Y-70654000D01*
X134449000Y-69891000D02*
X133223700Y-69891000D01*
X132588000Y-70654000D02*
X132588000Y-71304300D01*
X134862000Y-77724000D02*
X134862000Y-78086600D01*
X136271000Y-78274000D02*
X135670700Y-78274000D01*
X158074100Y-69891000D02*
X158561700Y-69891000D01*
X132588000Y-75438000D02*
X131987700Y-75438000D01*
X132588000Y-70654000D02*
X131987700Y-70654000D01*
X138030700Y-71841000D02*
X138461900Y-71409800D01*
X134449000Y-71841000D02*
X138030700Y-71841000D01*
X141374000Y-63585000D02*
X140773700Y-63585000D01*
X144060000Y-72432000D02*
X144060000Y-73082300D01*
X135483300Y-78086600D02*
X135670700Y-78274000D01*
X134862000Y-78086600D02*
X135483300Y-78086600D01*
X131987700Y-73077000D02*
X133223700Y-71841000D01*
X131987700Y-75438000D02*
X131987700Y-73077000D01*
X134449000Y-71841000D02*
X133223700Y-71841000D01*
X132687000Y-71304300D02*
X132588000Y-71304300D01*
X133223700Y-71841000D02*
X132687000Y-71304300D01*
X144018000Y-73612800D02*
X144023100Y-73607700D01*
X144018000Y-74745700D02*
X144018000Y-73612800D01*
X144023100Y-73119200D02*
X144060000Y-73082300D01*
X144023100Y-73607700D02*
X144023100Y-73119200D01*
X141351000Y-78274000D02*
X140208000Y-78274000D01*
X142621000Y-78174000D02*
X142621000Y-78449100D01*
X142621000Y-78449100D02*
X142621000Y-78724300D01*
X142126400Y-78449100D02*
X141951300Y-78274000D01*
X142621000Y-78449100D02*
X142126400Y-78449100D01*
X141351000Y-78274000D02*
X141951300Y-78274000D01*
X135497000Y-64389000D02*
X135497000Y-63663700D01*
X132588000Y-66971000D02*
X132575300Y-66971000D01*
X131987700Y-67558600D02*
X131987700Y-70654000D01*
X132575300Y-66971000D02*
X131987700Y-67558600D01*
X158103000Y-64751600D02*
X158103000Y-65114300D01*
X158103000Y-64751600D02*
X158103000Y-64389000D01*
X158103000Y-64389000D02*
X158103000Y-63663700D01*
X154940000Y-63585000D02*
X155540300Y-63585000D01*
X136481000Y-63663700D02*
X136559700Y-63585000D01*
X135497000Y-63663700D02*
X136481000Y-63663700D01*
X137160000Y-63585000D02*
X136559700Y-63585000D01*
X156246100Y-63585000D02*
X155540300Y-63585000D01*
X156324800Y-63663700D02*
X156246100Y-63585000D01*
X158103000Y-63663700D02*
X156324800Y-63663700D01*
X134449000Y-75091000D02*
X133223700Y-75091000D01*
X132588000Y-78275800D02*
X132588000Y-75438000D01*
X132761600Y-78449400D02*
X132588000Y-78275800D01*
X134499200Y-78449400D02*
X132761600Y-78449400D01*
X134862000Y-78086600D02*
X134499200Y-78449400D01*
X133188300Y-75126400D02*
X133223700Y-75091000D01*
X133188300Y-75438000D02*
X133188300Y-75126400D01*
X132588000Y-75438000D02*
X133188300Y-75438000D01*
X133451000Y-63663700D02*
X135497000Y-63663700D01*
X131987600Y-65127100D02*
X133451000Y-63663700D01*
X131987600Y-66383300D02*
X131987600Y-65127100D01*
X132575300Y-66971000D02*
X131987600Y-66383300D01*
X150795200Y-63585000D02*
X151095300Y-63585000D01*
X140773700Y-63434900D02*
X140307200Y-62968400D01*
X140773700Y-63585000D02*
X140773700Y-63434900D01*
X150795200Y-63585000D02*
X150495000Y-63585000D01*
X149190300Y-63585000D02*
X148555300Y-64220000D01*
X150495000Y-63585000D02*
X149190300Y-63585000D01*
X147955000Y-64220000D02*
X148555300Y-64220000D01*
X148555300Y-66689500D02*
X148555300Y-64220000D01*
X147955000Y-67289800D02*
X148555300Y-66689500D01*
X147955000Y-68284000D02*
X147955000Y-67289800D01*
X135497000Y-61137400D02*
X135497000Y-63663700D01*
X136676800Y-59957600D02*
X135497000Y-61137400D01*
X155881300Y-59957600D02*
X136676800Y-59957600D01*
X156246100Y-60322400D02*
X155881300Y-59957600D01*
X156246100Y-63585000D02*
X156246100Y-60322400D01*
X151095300Y-63468900D02*
X151095300Y-63585000D01*
X151556900Y-63007300D02*
X151095300Y-63468900D01*
X153879100Y-63007300D02*
X151556900Y-63007300D01*
X154339700Y-63467900D02*
X153879100Y-63007300D01*
X154339700Y-63585000D02*
X154339700Y-63467900D01*
X156175700Y-71841000D02*
X155459600Y-71124900D01*
X157524000Y-71841000D02*
X156175700Y-71841000D01*
X158561700Y-69891000D02*
X158624200Y-69891000D01*
X158911700Y-69603500D02*
X158911700Y-69554000D01*
X158624200Y-69891000D02*
X158911700Y-69603500D01*
X158749300Y-70016100D02*
X158749300Y-71841000D01*
X158624200Y-69891000D02*
X158749300Y-70016100D01*
X157524000Y-71841000D02*
X158749300Y-71841000D01*
X143399300Y-75414400D02*
X143399300Y-78174000D01*
X143417700Y-75396000D02*
X143399300Y-75414400D01*
X143743700Y-78518400D02*
X143399300Y-78174000D01*
X144319000Y-78518400D02*
X143743700Y-78518400D01*
X144407200Y-78430200D02*
X144319000Y-78518400D01*
X148445500Y-78430200D02*
X144407200Y-78430200D01*
X148701700Y-78174000D02*
X148445500Y-78430200D01*
X143399300Y-78174000D02*
X143271300Y-78174000D01*
D22*
X134449000Y-66641000D02*
X135549300Y-66641000D01*
X135732600Y-66641000D02*
X135813700Y-66559900D01*
X135549300Y-66641000D02*
X135732600Y-66641000D01*
D23*
X157524000Y-73141000D02*
X158749300Y-73141000D01*
X133223700Y-68918300D02*
X132588000Y-69554000D01*
X133223700Y-68591000D02*
X133223700Y-68918300D01*
X134449000Y-68591000D02*
X133223700Y-68591000D01*
X159512000Y-72378300D02*
X159512000Y-71304300D01*
X158749300Y-73141000D02*
X159512000Y-72378300D01*
X159512000Y-70654000D02*
X159512000Y-71304300D01*
X134449000Y-69241000D02*
X135061700Y-69241000D01*
X134449000Y-68591000D02*
X135674300Y-68591000D01*
X135674300Y-69022500D02*
X135674300Y-68591000D01*
X135455800Y-69241000D02*
X135674300Y-69022500D01*
X135061700Y-69241000D02*
X135455800Y-69241000D01*
X134449000Y-67941000D02*
X135549200Y-67941000D01*
X159512000Y-74465000D02*
X159512000Y-73814700D01*
X135674300Y-67941000D02*
X135674300Y-68591000D01*
X135549200Y-67941000D02*
X135674300Y-67941000D01*
X156911400Y-73141000D02*
X156911400Y-72491000D01*
X157524000Y-73141000D02*
X156911400Y-73141000D01*
X157524000Y-72491000D02*
X156911400Y-72491000D01*
X156911400Y-72491000D02*
X156298700Y-72491000D01*
X157524000Y-73791000D02*
X156298700Y-73791000D01*
X156542400Y-73141000D02*
X156911400Y-73141000D01*
X156298700Y-73384700D02*
X156542400Y-73141000D01*
X156298700Y-73791000D02*
X156298700Y-73384700D01*
X154420900Y-75668800D02*
X156298700Y-73791000D01*
X158865000Y-77724000D02*
X158865000Y-76369100D01*
X158749300Y-73141000D02*
X159162000Y-73553600D01*
X159423000Y-73814700D02*
X159512000Y-73814700D01*
X159162000Y-73553600D02*
X159423000Y-73814700D01*
X159040700Y-73674900D02*
X159162000Y-73553600D01*
X133997000Y-64389000D02*
X133997000Y-65114300D01*
X136580900Y-67034400D02*
X136580900Y-66377400D01*
X135674300Y-67941000D02*
X136580900Y-67034400D01*
X136583800Y-66377400D02*
X136580900Y-66377400D01*
X136657800Y-66303400D02*
X136583800Y-66377400D01*
X135317800Y-65114300D02*
X133997000Y-65114300D01*
X136580900Y-66377400D02*
X135317800Y-65114300D01*
X133945000Y-65114300D02*
X133188300Y-65871000D01*
X133997000Y-65114300D02*
X133945000Y-65114300D01*
X132588000Y-65871000D02*
X133188300Y-65871000D01*
X136017000Y-80380000D02*
X136667300Y-80380000D01*
X154097500Y-68706800D02*
X153797400Y-68406700D01*
X154097500Y-69617300D02*
X154097500Y-68706800D01*
X154407100Y-69926900D02*
X154097500Y-69617300D01*
X154407100Y-71095800D02*
X154407100Y-69926900D01*
X155802300Y-72491000D02*
X154407100Y-71095800D01*
X156298700Y-72491000D02*
X155802300Y-72491000D01*
X138217600Y-78829700D02*
X138217600Y-76035500D01*
X136667300Y-80380000D02*
X138217600Y-78829700D01*
D22*
X148534400Y-75091000D02*
X148534400Y-75090900D01*
X150324000Y-75091000D02*
X148534400Y-75091000D01*
X159512000Y-66971000D02*
X159036700Y-66971000D01*
X156603000Y-64389000D02*
X156603000Y-64989300D01*
X157524000Y-67291000D02*
X156423700Y-67291000D01*
X157524000Y-67291000D02*
X158624300Y-67291000D01*
X158716700Y-67291000D02*
X158624300Y-67291000D01*
X159036700Y-66971000D02*
X158716700Y-67291000D01*
X156373600Y-65218700D02*
X156603000Y-64989300D01*
X156373600Y-67240900D02*
X156373600Y-65218700D01*
X156423700Y-67291000D02*
X156373600Y-67240900D01*
X156253000Y-67941000D02*
X156129500Y-68064500D01*
X157524000Y-67941000D02*
X156253000Y-67941000D01*
X157524000Y-75091000D02*
X156423700Y-75091000D01*
X156423700Y-75092500D02*
X155660600Y-75855600D01*
X156423700Y-75091000D02*
X156423700Y-75092500D01*
X147096500Y-63151500D02*
X147096500Y-64576900D01*
X148907000Y-61341000D02*
X147096500Y-63151500D01*
X149113700Y-72491000D02*
X148995900Y-72373200D01*
X150324000Y-72491000D02*
X149113700Y-72491000D01*
X147813900Y-65320000D02*
X147529800Y-65320000D01*
X147813900Y-65320000D02*
X147823100Y-65320000D01*
X147955000Y-65320000D02*
X147823100Y-65320000D01*
X145288000Y-64952000D02*
X146713300Y-64952000D01*
X147081300Y-65320000D02*
X147529800Y-65320000D01*
X146713300Y-64952000D02*
X147081300Y-65320000D01*
X150324000Y-71841000D02*
X149223700Y-71841000D01*
X149223700Y-71636200D02*
X147837300Y-70249800D01*
X149223700Y-71841000D02*
X149223700Y-71636200D01*
X147955000Y-66308300D02*
X147903300Y-66360000D01*
X147955000Y-65320000D02*
X147955000Y-66308300D01*
X145288000Y-68652000D02*
X146713300Y-68652000D01*
X146747700Y-68652000D02*
X146713300Y-68652000D01*
X147479700Y-69384000D02*
X146747700Y-68652000D01*
X147955000Y-69384000D02*
X147717400Y-69384000D01*
X147717400Y-69384000D02*
X147479700Y-69384000D01*
X150324000Y-71191000D02*
X149223700Y-71191000D01*
X148471000Y-70137600D02*
X147717400Y-69384000D01*
X148471000Y-70438300D02*
X148471000Y-70137600D01*
X149223700Y-71191000D02*
X148471000Y-70438300D01*
X151075900Y-75814100D02*
X149165200Y-75814100D01*
X151424300Y-75465700D02*
X151075900Y-75814100D01*
X151424300Y-70541000D02*
X151424300Y-75465700D01*
X150324000Y-70541000D02*
X151424300Y-70541000D01*
X150324000Y-69891000D02*
X149223700Y-69891000D01*
X149223700Y-69990100D02*
X148996300Y-70217500D01*
X149223700Y-69891000D02*
X149223700Y-69990100D01*
X150324000Y-69241000D02*
X151424300Y-69241000D01*
X151661200Y-69477900D02*
X151661200Y-69699800D01*
X151424300Y-69241000D02*
X151661200Y-69477900D01*
X149113700Y-68701000D02*
X148985400Y-68701000D01*
X149223700Y-68591000D02*
X149113700Y-68701000D01*
X150324000Y-68591000D02*
X149223700Y-68591000D01*
X150324000Y-67941000D02*
X149223700Y-67941000D01*
X149223700Y-67519900D02*
X148992400Y-67288600D01*
X149223700Y-67941000D02*
X149223700Y-67519900D01*
X152197200Y-68063900D02*
X151424300Y-67291000D01*
X152197200Y-75173900D02*
X152197200Y-68063900D01*
X150883300Y-76487800D02*
X152197200Y-75173900D01*
X149234600Y-76487800D02*
X150883300Y-76487800D01*
X147854300Y-77868100D02*
X149234600Y-76487800D01*
X144049600Y-77868100D02*
X147854300Y-77868100D01*
X150324000Y-67291000D02*
X151424300Y-67291000D01*
X149352000Y-77274000D02*
X149877300Y-77274000D01*
X149977300Y-77174000D02*
X150622000Y-77174000D01*
X149877300Y-77274000D02*
X149977300Y-77174000D01*
X151097300Y-76698700D02*
X151097300Y-77174000D01*
X152497600Y-75298400D02*
X151097300Y-76698700D01*
X152497600Y-67714300D02*
X152497600Y-75298400D01*
X151424300Y-66641000D02*
X152497600Y-67714300D01*
X150324000Y-66641000D02*
X151424300Y-66641000D01*
X150622000Y-77174000D02*
X151097300Y-77174000D01*
X134449000Y-73141000D02*
X135549300Y-73141000D01*
X136846300Y-77274000D02*
X136746300Y-77174000D01*
X137541000Y-77274000D02*
X136846300Y-77274000D01*
X136271000Y-77174000D02*
X136746300Y-77174000D01*
X136271000Y-77174000D02*
X136271000Y-76648700D01*
X136797600Y-74389300D02*
X135549300Y-73141000D01*
X136797600Y-76122100D02*
X136797600Y-74389300D01*
X136271000Y-76648700D02*
X136797600Y-76122100D01*
X155829000Y-77174000D02*
X155353700Y-77174000D01*
X155280700Y-77174000D02*
X155353700Y-77174000D01*
X155180700Y-77274000D02*
X154432000Y-77274000D01*
X155280700Y-77174000D02*
X155180700Y-77274000D01*
X156389400Y-69241000D02*
X156132000Y-69498400D01*
X157524000Y-69241000D02*
X156389400Y-69241000D01*
X155280700Y-76780500D02*
X155146500Y-76646300D01*
X155280700Y-77174000D02*
X155280700Y-76780500D01*
X154940000Y-64685000D02*
X154464700Y-64685000D01*
X154168300Y-64685000D02*
X154464700Y-64685000D01*
X154068300Y-64585000D02*
X154168300Y-64685000D01*
X153543000Y-64585000D02*
X154068300Y-64585000D01*
X157524000Y-70541000D02*
X156423700Y-70541000D01*
X154940000Y-64685000D02*
X154940000Y-65210300D01*
X154940000Y-67041500D02*
X154940000Y-65210300D01*
X155240300Y-67341800D02*
X154940000Y-67041500D01*
X155240300Y-69357600D02*
X155240300Y-67341800D01*
X156423700Y-70541000D02*
X155240300Y-69357600D01*
X151892000Y-64585000D02*
X151892000Y-64797600D01*
X151082900Y-64797600D02*
X150970300Y-64685000D01*
X151892000Y-64797600D02*
X151082900Y-64797600D01*
X150495000Y-64685000D02*
X150970300Y-64685000D01*
X154653000Y-67558600D02*
X151892000Y-64797600D01*
X154653000Y-69420300D02*
X154653000Y-67558600D01*
X156423700Y-71191000D02*
X154653000Y-69420300D01*
X157524000Y-71191000D02*
X156423700Y-71191000D01*
X141899400Y-62333400D02*
X140907000Y-61341000D01*
X141899400Y-65062600D02*
X141899400Y-62333400D01*
X140993500Y-65968500D02*
X141899400Y-65062600D01*
X140752400Y-65968500D02*
X140993500Y-65968500D01*
X139774700Y-66946200D02*
X140752400Y-65968500D01*
X139774700Y-68523200D02*
X139774700Y-66946200D01*
X140492500Y-69241000D02*
X139774700Y-68523200D01*
X141649000Y-69241000D02*
X140492500Y-69241000D01*
X144018000Y-76496000D02*
X144493300Y-76496000D01*
X146685000Y-75764000D02*
X145259700Y-75764000D01*
X142849500Y-69891000D02*
X142984600Y-70026100D01*
X141649000Y-69891000D02*
X142849500Y-69891000D01*
X144835900Y-75764000D02*
X144835900Y-72388000D01*
X145259700Y-75764000D02*
X144835900Y-75764000D01*
X144493300Y-76106600D02*
X144493300Y-76496000D01*
X144835900Y-75764000D02*
X144493300Y-76106600D01*
X141649000Y-70541000D02*
X142749300Y-70541000D01*
X143540300Y-71332000D02*
X142749300Y-70541000D01*
X143584700Y-71332000D02*
X143540300Y-71332000D01*
X143910100Y-71332000D02*
X143584700Y-71332000D01*
X143910100Y-71332000D02*
X144060000Y-71332000D01*
X144535300Y-71339600D02*
X145259700Y-72064000D01*
X144535300Y-71332000D02*
X144535300Y-71339600D01*
X146685000Y-72064000D02*
X145259700Y-72064000D01*
X144060000Y-71332000D02*
X144535300Y-71332000D01*
X141649000Y-71191000D02*
X140548700Y-71191000D01*
X140260700Y-65949900D02*
X140260700Y-65610900D01*
X139460100Y-66750500D02*
X140260700Y-65949900D01*
X139460100Y-70102400D02*
X139460100Y-66750500D01*
X140548700Y-71191000D02*
X139460100Y-70102400D01*
X140451700Y-71841000D02*
X140128900Y-71518200D01*
X141649000Y-71841000D02*
X140451700Y-71841000D01*
X142749300Y-71761000D02*
X142978500Y-71531800D01*
X142749300Y-72491000D02*
X142749300Y-71761000D01*
X141649000Y-72491000D02*
X142749300Y-72491000D01*
X142749300Y-73360400D02*
X142985200Y-73596300D01*
X142749300Y-73141000D02*
X142749300Y-73360400D01*
X141649000Y-73141000D02*
X142749300Y-73141000D01*
X139726600Y-74613100D02*
X139726600Y-75626900D01*
X140548700Y-73791000D02*
X139726600Y-74613100D01*
X141649000Y-73791000D02*
X140548700Y-73791000D01*
X141649000Y-74441000D02*
X140548700Y-74441000D01*
X140548700Y-76122400D02*
X140388400Y-76282700D01*
X140548700Y-74441000D02*
X140548700Y-76122400D01*
X141926300Y-77274000D02*
X141826300Y-77174000D01*
X142621000Y-77274000D02*
X141926300Y-77274000D01*
X141351000Y-77174000D02*
X141826300Y-77174000D01*
X141649000Y-76350700D02*
X141351000Y-76648700D01*
X141649000Y-75091000D02*
X141649000Y-76350700D01*
X141351000Y-77174000D02*
X141351000Y-76648700D01*
D23*
X136017000Y-81280000D02*
X136667300Y-81280000D01*
X136667300Y-81327300D02*
X136667300Y-81280000D01*
X136817900Y-81477900D02*
X136667300Y-81327300D01*
D22*
X137015700Y-78488100D02*
X137015700Y-78174000D01*
X135441200Y-80062600D02*
X137015700Y-78488100D01*
X135441200Y-81595400D02*
X135441200Y-80062600D01*
X136743500Y-82897700D02*
X135441200Y-81595400D01*
X137508000Y-82897700D02*
X136743500Y-82897700D01*
X137508000Y-85423000D02*
X137508000Y-82897700D01*
X137541000Y-78174000D02*
X137015700Y-78174000D01*
X134449000Y-72491000D02*
X135549300Y-72491000D01*
X140208000Y-77174000D02*
X139732700Y-77174000D01*
X138938000Y-77174000D02*
X139732700Y-77174000D01*
X138938000Y-75879700D02*
X138938000Y-77174000D01*
X135549300Y-72491000D02*
X138938000Y-75879700D01*
X138938000Y-77174000D02*
X138938000Y-77274000D01*
X138508000Y-85423000D02*
X138508000Y-82897700D01*
X138938000Y-78174000D02*
X138938000Y-78599300D01*
X138938000Y-82467700D02*
X138508000Y-82897700D01*
X138938000Y-78599300D02*
X138938000Y-82467700D01*
X139508000Y-85423000D02*
X139508000Y-82897700D01*
X153162000Y-78174000D02*
X153162000Y-78599300D01*
X139808300Y-82597400D02*
X139508000Y-82897700D01*
X143705200Y-82597400D02*
X139808300Y-82597400D01*
X147425500Y-78877100D02*
X143705200Y-82597400D01*
X152884200Y-78877100D02*
X147425500Y-78877100D01*
X153162000Y-78599300D02*
X152884200Y-78877100D01*
X153853800Y-79177500D02*
X154432000Y-78599300D01*
X147549900Y-79177500D02*
X153853800Y-79177500D01*
X143829700Y-82897700D02*
X147549900Y-79177500D01*
X140508000Y-82897700D02*
X143829700Y-82897700D01*
X140508000Y-85423000D02*
X140508000Y-82897700D01*
X154432000Y-78174000D02*
X154432000Y-78599300D01*
X134449000Y-71191000D02*
X135549300Y-71191000D01*
X139954000Y-64585000D02*
X139954000Y-64797600D01*
X139954000Y-64797600D02*
X139954000Y-65010300D01*
X140786100Y-64797600D02*
X140898700Y-64685000D01*
X139954000Y-64797600D02*
X140786100Y-64797600D01*
X141374000Y-64685000D02*
X140898700Y-64685000D01*
X138577900Y-68162400D02*
X135549300Y-71191000D01*
X138577900Y-66088200D02*
X138577900Y-68162400D01*
X138991200Y-65674900D02*
X138577900Y-66088200D01*
X139416300Y-65674900D02*
X138991200Y-65674900D01*
X139954000Y-65137200D02*
X139416300Y-65674900D01*
X139954000Y-65010300D02*
X139954000Y-65137200D01*
X134449000Y-70541000D02*
X135549300Y-70541000D01*
X138557000Y-64585000D02*
X138031700Y-64585000D01*
X137931700Y-64685000D02*
X138031700Y-64585000D01*
X137160000Y-64685000D02*
X137931700Y-64685000D01*
X137160000Y-64685000D02*
X137160000Y-65210300D01*
X137233600Y-65283900D02*
X137160000Y-65210300D01*
X137233600Y-68856700D02*
X137233600Y-65283900D01*
X135549300Y-70541000D02*
X137233600Y-68856700D01*
X153162000Y-77274000D02*
X153162000Y-77257100D01*
X152450400Y-77257100D02*
X152367300Y-77174000D01*
X153162000Y-77257100D02*
X152450400Y-77257100D01*
X151892000Y-77174000D02*
X152367300Y-77174000D01*
X155586900Y-68311200D02*
X155586900Y-66567700D01*
X155866700Y-68591000D02*
X155586900Y-68311200D01*
X157524000Y-68591000D02*
X155866700Y-68591000D01*
X152861700Y-76956800D02*
X153162000Y-77257100D01*
X152861700Y-68055300D02*
X152861700Y-76956800D01*
X153225800Y-67691200D02*
X152861700Y-68055300D01*
X139954000Y-63685000D02*
X139954000Y-64110300D01*
X154508000Y-85423000D02*
X154508000Y-82897700D01*
X139261800Y-64377200D02*
X139261800Y-65043700D01*
X139528700Y-64110300D02*
X139261800Y-64377200D01*
X139954000Y-64110300D02*
X139528700Y-64110300D01*
X153746200Y-75872800D02*
X153746200Y-70615000D01*
X153979400Y-76106000D02*
X153746200Y-75872800D01*
X153979400Y-76541400D02*
X153979400Y-76106000D01*
X153862800Y-76658000D02*
X153979400Y-76541400D01*
X153862800Y-77556600D02*
X153862800Y-76658000D01*
X154054800Y-77748600D02*
X153862800Y-77556600D01*
X154844900Y-77748600D02*
X154054800Y-77748600D01*
X154957400Y-77861100D02*
X154844900Y-77748600D01*
X154957400Y-82448300D02*
X154957400Y-77861100D01*
X154508000Y-82897700D02*
X154957400Y-82448300D01*
X151892000Y-63685000D02*
X151892000Y-64110300D01*
X152717500Y-64584900D02*
X152717500Y-64876400D01*
X152242900Y-64110300D02*
X152717500Y-64584900D01*
X151892000Y-64110300D02*
X152242900Y-64110300D01*
X153162000Y-76140300D02*
X153399300Y-76377600D01*
X153162000Y-69792900D02*
X153162000Y-76140300D01*
X153423200Y-69531700D02*
X153162000Y-69792900D01*
X148508000Y-85423000D02*
X148508000Y-81617200D01*
X138557000Y-63685000D02*
X138557000Y-63259700D01*
X137894100Y-62596800D02*
X138557000Y-63259700D01*
X136250900Y-62596800D02*
X137894100Y-62596800D01*
X152508000Y-85423000D02*
X152508000Y-82897700D01*
X152895800Y-82897700D02*
X153435300Y-82358200D01*
X152508000Y-82897700D02*
X152895800Y-82897700D01*
X153543000Y-63685000D02*
X153017700Y-63685000D01*
X152990300Y-63657600D02*
X153017700Y-63685000D01*
X152785700Y-63657600D02*
X152990300Y-63657600D01*
X150508000Y-80327900D02*
X150014400Y-79834300D01*
X150508000Y-82897700D02*
X150508000Y-80327900D01*
X150508000Y-85423000D02*
X150508000Y-82897700D01*
X139159700Y-75015000D02*
X139111300Y-75063400D01*
X139159700Y-66307900D02*
X139159700Y-75015000D01*
D23*
X142494000Y-81703300D02*
X142494000Y-82022000D01*
X142494000Y-81428100D02*
X142494000Y-81703300D01*
X142494000Y-81153000D02*
X142494000Y-81428100D01*
X142494000Y-81153000D02*
X141843700Y-81153000D01*
X141843700Y-80525300D02*
X141472300Y-80153900D01*
X141843700Y-81153000D02*
X141843700Y-80525300D01*
M02*
