M48
INCH,TZ
T1C0.0118
T2C0.0413
%
G90
G05
T1
X51736Y-23602
X51815Y-23268
X51815Y-24469
X52130Y-25551
X52130Y-27913
X52130Y-29685
X52760Y-24469
X53232Y-30728
X53508Y-25256
X53508Y-25748
X53508Y-26240
X53508Y-27028
X53508Y-28602
X53508Y-29094
X53545Y-31724
X53547Y-23681
X53813Y-31622
X54000Y-27697
X54347Y-31229
X54445Y-31724
X54551Y-26693
X54945Y-31724
X55083Y-27126
X55083Y-27618
X55083Y-28110
X55083Y-28602
X55083Y-29094
X55280Y-25256
X55280Y-25748
X55280Y-26043
X55378Y-31260
X55516Y-25472
X55654Y-29567
X55673Y-31122
X55791Y-24606
X56238Y-31142
X56559Y-28799
X56657Y-30955
X56745Y-31724
X56795Y-27618
X56795Y-30197
X56854Y-29272
X56894Y-28602
X56972Y-27874
X56972Y-28307
X57051Y-26122
X57287Y-30935
X57445Y-23622
X57484Y-24823
X57720Y-26319
X57819Y-27244
X57937Y-25118
X57937Y-25551
X57937Y-26535
X57996Y-30059
X58016Y-27008
X58232Y-26043
X58280Y-31073
X58545Y-31624
X58921Y-24961
X59020Y-31240
X59197Y-29390
X59512Y-29094
X59512Y-29488
X59630Y-28130
X59689Y-31496
X59709Y-25748
X59709Y-26240
X59709Y-26732
X59709Y-27224
X59709Y-27717
X59965Y-23327
X60004Y-31161
X60063Y-31614
X60791Y-27146
X60890Y-24961
X61185Y-30374
X61283Y-25748
X61283Y-26240
X61283Y-27815
X61283Y-28602
X61283Y-29094
X61283Y-29587
X61972Y-30610
X62661Y-25157
X62661Y-26929
X62661Y-29291
X62661Y-30610
X62996Y-23327
X63075Y-24508
X63390Y-23799
T2
X53900Y-24150
X54688Y-24150
X55475Y-24150
X56263Y-24150
X57050Y-24150
X57837Y-24150
X58625Y-24150
X59412Y-24150
X60200Y-24150
X60987Y-24150
T0
M30
