G04 #@! TF.GenerationSoftware,KiCad,Pcbnew,(2017-06-19 revision 6733101c6)-makepkg*
G04 #@! TF.CreationDate,2017-10-16T02:16:10+10:30*
G04 #@! TF.ProjectId,din_meter_atm90e26,64696E5F6D657465725F61746D393065,rev?*
G04 #@! TF.SameCoordinates,Original
G04 #@! TF.FileFunction,Profile,NP*
%FSLAX46Y46*%
G04 Gerber Fmt 4.6, Leading zero omitted, Abs format (unit mm)*
G04 Created by KiCad (PCBNEW (2017-06-19 revision 6733101c6)-makepkg) date 10/16/17 02:16:10*
%MOMM*%
%LPD*%
G01*
G04 APERTURE LIST*
%ADD10C,0.100000*%
%ADD11C,0.150000*%
G04 APERTURE END LIST*
D10*
D11*
X147193000Y-80264000D02*
X147828000Y-80899000D01*
X146812000Y-80264000D02*
X146177000Y-80899000D01*
X134747000Y-80645000D02*
X134747000Y-80645000D01*
X134112000Y-80010000D02*
X134747000Y-80645000D01*
X132207000Y-80010000D02*
X132207000Y-80010000D01*
X131572000Y-79375000D02*
X132207000Y-80010000D01*
X132842000Y-58293000D02*
X132842000Y-58293000D01*
X131572000Y-59563000D02*
X132842000Y-58293000D01*
X150876000Y-58293000D02*
X150876000Y-58293000D01*
X159258000Y-58293000D02*
X144780000Y-58293000D01*
X160528000Y-59563000D02*
X160528000Y-59563000D01*
X159258000Y-58293000D02*
X160528000Y-59563000D01*
X159893000Y-80010000D02*
X160528000Y-79375000D01*
X155829000Y-80010000D02*
X155194000Y-80645000D01*
X155829000Y-80010000D02*
X159893000Y-80010000D01*
X134112000Y-80010000D02*
X132207000Y-80010000D01*
X131572000Y-59563000D02*
X131572000Y-79375000D01*
X144780000Y-58293000D02*
X132842000Y-58293000D01*
X160528000Y-79375000D02*
X160528000Y-59563000D01*
X155194000Y-88900000D02*
X155194000Y-80645000D01*
X154559000Y-89535000D02*
X155194000Y-88900000D01*
X148463000Y-89535000D02*
X154559000Y-89535000D01*
X147828000Y-88900000D02*
X148463000Y-89535000D01*
X147828000Y-80899000D02*
X147828000Y-88900000D01*
X146812000Y-80264000D02*
X147193000Y-80264000D01*
X146177000Y-88900000D02*
X146177000Y-80899000D01*
X145542000Y-89535000D02*
X146177000Y-88900000D01*
X135382000Y-89535000D02*
X145542000Y-89535000D01*
X134747000Y-88900000D02*
X135382000Y-89535000D01*
X134747000Y-80645000D02*
X134747000Y-88900000D01*
M02*
