G04 #@! TF.GenerationSoftware,KiCad,Pcbnew,(2017-06-19 revision 6733101c6)-makepkg*
G04 #@! TF.CreationDate,2017-10-16T02:16:10+10:30*
G04 #@! TF.ProjectId,din_meter_atm90e26,64696E5F6D657465725F61746D393065,rev?*
G04 #@! TF.SameCoordinates,Original
G04 #@! TF.FileFunction,Copper,L2,Bot,Signal*
G04 #@! TF.FilePolarity,Positive*
%FSLAX46Y46*%
G04 Gerber Fmt 4.6, Leading zero omitted, Abs format (unit mm)*
G04 Created by KiCad (PCBNEW (2017-06-19 revision 6733101c6)-makepkg) date 10/16/17 02:16:10*
%MOMM*%
%LPD*%
G01*
G04 APERTURE LIST*
%ADD10C,0.100000*%
%ADD11C,1.500000*%
%ADD12R,1.270000X0.970000*%
%ADD13R,1.575000X1.575000*%
%ADD14C,1.575000*%
%ADD15O,0.650000X0.650000*%
%ADD16R,0.650000X4.600000*%
%ADD17R,0.650000X3.600000*%
%ADD18C,0.600000*%
%ADD19C,0.150000*%
%ADD20C,0.300000*%
%ADD21C,0.400000*%
G04 APERTURE END LIST*
D10*
D11*
X141605000Y-68453000D03*
X141605000Y-65913000D03*
X141605000Y-76073000D03*
X141605000Y-73533000D03*
X141605000Y-70993000D03*
X150368000Y-76073000D03*
X150368000Y-73533000D03*
X150368000Y-70993000D03*
X150368000Y-68453000D03*
X150368000Y-65913000D03*
D12*
X136906000Y-69850000D03*
X136906000Y-68580000D03*
X136906000Y-67310000D03*
X136906000Y-74295000D03*
X136906000Y-73025000D03*
X136906000Y-71755000D03*
X139192000Y-69850000D03*
X139192000Y-68580000D03*
X139192000Y-67310000D03*
D13*
X154907000Y-61341000D03*
D14*
X152907000Y-61341000D03*
X150907000Y-61341000D03*
X148907000Y-61341000D03*
X146907000Y-61341000D03*
X144907000Y-61341000D03*
X142907000Y-61341000D03*
X140907000Y-61341000D03*
X138907000Y-61341000D03*
X136907000Y-61341000D03*
D12*
X152654000Y-72136000D03*
X152654000Y-73406000D03*
X152654000Y-74676000D03*
X154940000Y-72136000D03*
X154940000Y-73406000D03*
X154940000Y-74676000D03*
X154940000Y-67564000D03*
X154940000Y-68834000D03*
X154940000Y-70104000D03*
D15*
X136508000Y-87723000D03*
X154508000Y-87723000D03*
X153508000Y-87723000D03*
X148508000Y-87723000D03*
X145508000Y-87723000D03*
X152508000Y-87723000D03*
X149508000Y-87723000D03*
X137508000Y-87723000D03*
X151508000Y-87723000D03*
X150508000Y-87723000D03*
X144508000Y-87723000D03*
X143508000Y-87723000D03*
X142508000Y-87723000D03*
X141508000Y-87723000D03*
X140508000Y-87723000D03*
X139508000Y-87723000D03*
X138508000Y-87723000D03*
D16*
X149508000Y-85423000D03*
X148508000Y-85423000D03*
X154508000Y-85423000D03*
X153508000Y-85423000D03*
X152508000Y-85423000D03*
X151508000Y-85423000D03*
X150508000Y-85423000D03*
X145508000Y-85423000D03*
X144508000Y-85423000D03*
X143508000Y-85423000D03*
X142508000Y-85423000D03*
X141508000Y-85423000D03*
X140508000Y-85423000D03*
X139508000Y-85423000D03*
X138508000Y-85423000D03*
X137508000Y-85423000D03*
X136508000Y-85423000D03*
D17*
X135508000Y-84923000D03*
D18*
X140308000Y-68290500D03*
X142749300Y-65038400D03*
X148993000Y-74321900D03*
X147896600Y-73598600D03*
X143367300Y-66900100D03*
X136255000Y-75286100D03*
X138461900Y-71409800D03*
X140307200Y-62968400D03*
X144023100Y-73607700D03*
X155459600Y-71124900D03*
X135813700Y-66559900D03*
X136657800Y-66303400D03*
X153797400Y-68406700D03*
X154420900Y-75668800D03*
X159040700Y-73674900D03*
X158865000Y-76369100D03*
X138217600Y-76035500D03*
X148534400Y-75090900D03*
X156129500Y-68064500D03*
X155660600Y-75855600D03*
X148995900Y-72373200D03*
X147096500Y-64576900D03*
X147837300Y-70249800D03*
X147903300Y-66360000D03*
X149165200Y-75814100D03*
X148996300Y-70217500D03*
X151661200Y-69699800D03*
X148985400Y-68701000D03*
X148992400Y-67288600D03*
X144049600Y-77868100D03*
X156132000Y-69498400D03*
X155146500Y-76646300D03*
X142984600Y-70026100D03*
X144835900Y-72388000D03*
X140260700Y-65610900D03*
X140128900Y-71518200D03*
X142978500Y-71531800D03*
X142985200Y-73596300D03*
X139726600Y-75626900D03*
X140388400Y-76282700D03*
X136817900Y-81477900D03*
X155586900Y-66567700D03*
X153225800Y-67691200D03*
X153746200Y-70615000D03*
X139261800Y-65043700D03*
X148508000Y-81617200D03*
X153399300Y-76377600D03*
X153423200Y-69531700D03*
X152717500Y-64876400D03*
X153435300Y-82358200D03*
X136250900Y-62596800D03*
X150014400Y-79834300D03*
X139111300Y-75063400D03*
X139159700Y-66307900D03*
X152785700Y-63657600D03*
X142494000Y-82022000D03*
X141472300Y-80153900D03*
D19*
X139192000Y-68580000D02*
X140052300Y-68580000D01*
X140052300Y-68546200D02*
X140308000Y-68290500D01*
X140052300Y-68580000D02*
X140052300Y-68546200D01*
X146793500Y-69082600D02*
X142749300Y-65038400D01*
X146793500Y-71730500D02*
X146793500Y-69082600D01*
X148993000Y-73930000D02*
X146793500Y-71730500D01*
X148993000Y-74321900D02*
X148993000Y-73930000D01*
X146493200Y-72195200D02*
X147896600Y-73598600D01*
X146493200Y-70026000D02*
X146493200Y-72195200D01*
X143367300Y-66900100D02*
X146493200Y-70026000D01*
X136906000Y-73025000D02*
X136045700Y-73025000D01*
X135995600Y-75026700D02*
X136255000Y-75286100D01*
X135995600Y-73075100D02*
X135995600Y-75026700D01*
X136045700Y-73025000D02*
X135995600Y-73075100D01*
D20*
X136906000Y-71755000D02*
X135920700Y-71755000D01*
X139192000Y-69850000D02*
X139192000Y-70685300D01*
X139186400Y-70685300D02*
X138461900Y-71409800D01*
X139192000Y-70685300D02*
X139186400Y-70685300D01*
X136906000Y-69850000D02*
X135920700Y-69850000D01*
X135920700Y-71755000D02*
X135920700Y-69850000D01*
X138116700Y-71755000D02*
X136906000Y-71755000D01*
X138461900Y-71409800D02*
X138116700Y-71755000D01*
X142587900Y-72172500D02*
X144023100Y-73607700D01*
X139224600Y-72172500D02*
X142587900Y-72172500D01*
X138461900Y-71409800D02*
X139224600Y-72172500D01*
X152654000Y-72136000D02*
X153639300Y-72136000D01*
X154940000Y-72136000D02*
X153639300Y-72136000D01*
X138459600Y-62968400D02*
X140307200Y-62968400D01*
X135163400Y-66264600D02*
X138459600Y-62968400D01*
X135163400Y-69092700D02*
X135163400Y-66264600D01*
X135920700Y-69850000D02*
X135163400Y-69092700D01*
X155283800Y-71300700D02*
X154940000Y-71300700D01*
X155459600Y-71124900D02*
X155283800Y-71300700D01*
X154940000Y-72136000D02*
X154940000Y-71300700D01*
X155274000Y-70939300D02*
X155459600Y-71124900D01*
X154940000Y-70939300D02*
X155274000Y-70939300D01*
X154940000Y-70104000D02*
X154940000Y-70939300D01*
D19*
X136906000Y-68580000D02*
X136045700Y-68580000D01*
X135813700Y-68348000D02*
X136045700Y-68580000D01*
X135813700Y-66559900D02*
X135813700Y-68348000D01*
D20*
X154940000Y-67564000D02*
X153954700Y-67564000D01*
X153954700Y-68249400D02*
X153954700Y-67564000D01*
X153797400Y-68406700D02*
X153954700Y-68249400D01*
X153954700Y-74676000D02*
X153639300Y-74676000D01*
X153146700Y-74676000D02*
X153639300Y-74676000D01*
X154940000Y-74676000D02*
X154447400Y-74676000D01*
X154447400Y-74676000D02*
X153954700Y-74676000D01*
X154420900Y-74702500D02*
X154420900Y-75668800D01*
X154447400Y-74676000D02*
X154420900Y-74702500D01*
X159040700Y-76193400D02*
X158865000Y-76369100D01*
X159040700Y-73674900D02*
X159040700Y-76193400D01*
X136734700Y-66303400D02*
X136657800Y-66303400D01*
X136906000Y-66474700D02*
X136734700Y-66303400D01*
X139192000Y-67310000D02*
X140177300Y-67310000D01*
X153146700Y-74676000D02*
X152654000Y-74676000D01*
X152654000Y-74676000D02*
X152654000Y-75511300D01*
X136906000Y-74295000D02*
X137891300Y-74295000D01*
X148067400Y-77212100D02*
X145489100Y-74633800D01*
X150953200Y-77212100D02*
X148067400Y-77212100D01*
X152654000Y-75511300D02*
X150953200Y-77212100D01*
X142020000Y-67310000D02*
X140177300Y-67310000D01*
X145489100Y-70779100D02*
X142020000Y-67310000D01*
X145489100Y-74633800D02*
X145489100Y-70779100D01*
X136906000Y-67310000D02*
X136906000Y-67036500D01*
X136906000Y-67036500D02*
X136906000Y-66474700D01*
X137933200Y-67036500D02*
X138206700Y-67310000D01*
X136906000Y-67036500D02*
X137933200Y-67036500D01*
X139192000Y-67310000D02*
X138206700Y-67310000D01*
X138230100Y-74633800D02*
X137891300Y-74295000D01*
X138217600Y-74646300D02*
X138217600Y-76035500D01*
X138230100Y-74633800D02*
X138217600Y-74646300D01*
X138475200Y-74388700D02*
X138230100Y-74633800D01*
X139375300Y-74388700D02*
X138475200Y-74388700D01*
X139620400Y-74633800D02*
X139375300Y-74388700D01*
X145489100Y-74633800D02*
X139620400Y-74633800D01*
D19*
X150191000Y-75090900D02*
X148534400Y-75090900D01*
X151793700Y-73488200D02*
X150191000Y-75090900D01*
X151793700Y-73406000D02*
X151793700Y-73488200D01*
X152654000Y-73406000D02*
X151793700Y-73406000D01*
X155800300Y-68393700D02*
X156129500Y-68064500D01*
X155800300Y-68834000D02*
X155800300Y-68393700D01*
X154940000Y-68834000D02*
X155800300Y-68834000D01*
X154940000Y-73406000D02*
X155800300Y-73406000D01*
X155850400Y-75665800D02*
X155660600Y-75855600D01*
X155850400Y-73456100D02*
X155850400Y-75665800D01*
X155800300Y-73406000D02*
X155850400Y-73456100D01*
X147096500Y-70473800D02*
X148995900Y-72373200D01*
X147096500Y-64576900D02*
X147096500Y-70473800D01*
X147837300Y-66426000D02*
X147903300Y-66360000D01*
X147837300Y-70249800D02*
X147837300Y-66426000D01*
X150109100Y-75814100D02*
X150368000Y-76073000D01*
X149165200Y-75814100D02*
X150109100Y-75814100D01*
X148996300Y-71443300D02*
X148996300Y-70217500D01*
X150368000Y-72815000D02*
X148996300Y-71443300D01*
X150368000Y-73533000D02*
X150368000Y-72815000D01*
X150368000Y-70993000D02*
X151661200Y-69699800D01*
X150120000Y-68701000D02*
X150368000Y-68453000D01*
X148985400Y-68701000D02*
X150120000Y-68701000D01*
X150368000Y-65913000D02*
X148992400Y-67288600D01*
X144049600Y-78390400D02*
X144049600Y-77868100D01*
X140996400Y-81443600D02*
X144049600Y-78390400D01*
X137962100Y-81443600D02*
X140996400Y-81443600D01*
X136508000Y-82897700D02*
X137962100Y-81443600D01*
X136508000Y-85423000D02*
X136508000Y-82897700D01*
X155612900Y-76646300D02*
X155146500Y-76646300D01*
X156207100Y-76052100D02*
X155612900Y-76646300D01*
X156207100Y-69573500D02*
X156207100Y-76052100D01*
X156132000Y-69498400D02*
X156207100Y-69573500D01*
X142984600Y-70536700D02*
X142984600Y-70026100D01*
X144835900Y-72388000D02*
X142984600Y-70536700D01*
X141302900Y-65610900D02*
X141605000Y-65913000D01*
X140260700Y-65610900D02*
X141302900Y-65610900D01*
X140128900Y-69929100D02*
X140128900Y-71518200D01*
X141605000Y-68453000D02*
X140128900Y-69929100D01*
X142143800Y-71531800D02*
X141605000Y-70993000D01*
X142978500Y-71531800D02*
X142143800Y-71531800D01*
X141668300Y-73596300D02*
X142985200Y-73596300D01*
X141605000Y-73533000D02*
X141668300Y-73596300D01*
X141158900Y-75626900D02*
X141605000Y-76073000D01*
X139726600Y-75626900D02*
X141158900Y-75626900D01*
X138508000Y-85423000D02*
X138508000Y-82897700D01*
X141154000Y-77048300D02*
X140388400Y-76282700D01*
X143979800Y-77048300D02*
X141154000Y-77048300D01*
X144595700Y-77664200D02*
X143979800Y-77048300D01*
X144595700Y-78351300D02*
X144595700Y-77664200D01*
X140049300Y-82897700D02*
X144595700Y-78351300D01*
X138508000Y-82897700D02*
X140049300Y-82897700D01*
D20*
X135523100Y-82772700D02*
X136817900Y-81477900D01*
X135508000Y-82772700D02*
X135523100Y-82772700D01*
X135508000Y-84923000D02*
X135508000Y-82772700D01*
X134144600Y-78804600D02*
X136817900Y-81477900D01*
X134144600Y-65655400D02*
X134144600Y-78804600D01*
X136907000Y-62893000D02*
X134144600Y-65655400D01*
X136907000Y-61341000D02*
X136907000Y-62893000D01*
D19*
X154349300Y-66567700D02*
X153225800Y-67691200D01*
X155586900Y-66567700D02*
X154349300Y-66567700D01*
X151764500Y-68633300D02*
X153746200Y-70615000D01*
X151764500Y-65926600D02*
X151764500Y-68633300D01*
X149872000Y-64034100D02*
X151764500Y-65926600D01*
X140271400Y-64034100D02*
X149872000Y-64034100D01*
X139261800Y-65043700D02*
X140271400Y-64034100D01*
X152700400Y-68808900D02*
X153423200Y-69531700D01*
X152700400Y-64893500D02*
X152700400Y-68808900D01*
X152717500Y-64876400D02*
X152700400Y-64893500D01*
X148999100Y-81617200D02*
X148508000Y-81617200D01*
X153399300Y-77217000D02*
X148999100Y-81617200D01*
X153399300Y-76377600D02*
X153399300Y-77217000D01*
X153435300Y-82030000D02*
X153435300Y-82358200D01*
X158256600Y-77208700D02*
X153435300Y-82030000D01*
X158861400Y-77208700D02*
X158256600Y-77208700D01*
X159632600Y-76437500D02*
X158861400Y-77208700D01*
X159632600Y-63759300D02*
X159632600Y-76437500D01*
X155923900Y-60050600D02*
X159632600Y-63759300D01*
X136689800Y-60050600D02*
X155923900Y-60050600D01*
X135844100Y-60896300D02*
X136689800Y-60050600D01*
X135844100Y-62190000D02*
X135844100Y-60896300D01*
X136250900Y-62596800D02*
X135844100Y-62190000D01*
X138736400Y-65884600D02*
X139159700Y-66307900D01*
X138736400Y-64826100D02*
X138736400Y-65884600D01*
X139904900Y-63657600D02*
X138736400Y-64826100D01*
X152785700Y-63657600D02*
X139904900Y-63657600D01*
X145243500Y-75063400D02*
X139111300Y-75063400D01*
X150014400Y-79834300D02*
X145243500Y-75063400D01*
D21*
X148508000Y-85423000D02*
X148508000Y-82522700D01*
X150691500Y-82522700D02*
X148508000Y-82522700D01*
X157042000Y-76172200D02*
X150691500Y-82522700D01*
X157042000Y-66464400D02*
X157042000Y-76172200D01*
X152907000Y-62329400D02*
X157042000Y-66464400D01*
X152907000Y-61341000D02*
X152907000Y-62329400D01*
X157842400Y-65664200D02*
X154907000Y-62728800D01*
X157842400Y-76667700D02*
X157842400Y-65664200D01*
X152508000Y-82002100D02*
X157842400Y-76667700D01*
X152508000Y-85423000D02*
X152508000Y-82002100D01*
X154907000Y-61341000D02*
X154907000Y-62728800D01*
D20*
X142508000Y-82036000D02*
X142494000Y-82022000D01*
X142508000Y-85423000D02*
X142508000Y-82036000D01*
X140182900Y-80153900D02*
X141472300Y-80153900D01*
X134645000Y-74616000D02*
X140182900Y-80153900D01*
X134645000Y-65867900D02*
X134645000Y-74616000D01*
X138907000Y-61605900D02*
X134645000Y-65867900D01*
X138907000Y-61341000D02*
X138907000Y-61605900D01*
M02*
