G04 #@! TF.GenerationSoftware,KiCad,Pcbnew,(2018-01-07 revision 47989ccfc)-makepkg*
G04 #@! TF.CreationDate,2018-01-22T22:38:19+10:30*
G04 #@! TF.ProjectId,din_meter_atm90e26,64696E5F6D657465725F61746D393065,rev?*
G04 #@! TF.SameCoordinates,Original*
G04 #@! TF.FileFunction,Soldermask,Bot*
G04 #@! TF.FilePolarity,Negative*
%FSLAX46Y46*%
G04 Gerber Fmt 4.6, Leading zero omitted, Abs format (unit mm)*
G04 Created by KiCad (PCBNEW (2018-01-07 revision 47989ccfc)-makepkg) date 01/22/18 22:38:19*
%MOMM*%
%LPD*%
G01*
G04 APERTURE LIST*
%ADD10C,1.300000*%
%ADD11R,1.570000X1.270000*%
%ADD12R,1.875000X1.875000*%
%ADD13C,1.875000*%
%ADD14O,3.850000X3.850000*%
%ADD15R,3.850000X7.800000*%
%ADD16R,3.850000X6.800000*%
G04 APERTURE END LIST*
D10*
X138910000Y-70150000D03*
X138910000Y-68900000D03*
X138910000Y-73900000D03*
X138910000Y-72650000D03*
X138910000Y-71400000D03*
X152660000Y-70400000D03*
X152660000Y-69150000D03*
X152660000Y-67900000D03*
X152660000Y-66650000D03*
X152660000Y-65400000D03*
D11*
X137160000Y-64130000D03*
X137160000Y-65400000D03*
X137160000Y-66670000D03*
X137160000Y-71380000D03*
X137160000Y-72650000D03*
X137160000Y-73920000D03*
X139160000Y-64130000D03*
X139160000Y-65400000D03*
X139160000Y-66670000D03*
D12*
X154907000Y-61341000D03*
D13*
X152907000Y-61341000D03*
X150907000Y-61341000D03*
X148907000Y-61341000D03*
X146907000Y-61341000D03*
X144907000Y-61341000D03*
X142907000Y-61341000D03*
X140907000Y-61341000D03*
X138907000Y-61341000D03*
X136907000Y-61341000D03*
D11*
X152410000Y-75170000D03*
X152410000Y-73900000D03*
X152410000Y-72630000D03*
X154410000Y-75170000D03*
X154410000Y-73900000D03*
X154410000Y-72630000D03*
X154410000Y-67920000D03*
X154410000Y-66650000D03*
X154410000Y-65380000D03*
D14*
X136508000Y-87723000D03*
X154508000Y-87723000D03*
X153508000Y-87723000D03*
X148508000Y-87723000D03*
X145508000Y-87723000D03*
X152508000Y-87723000D03*
X149508000Y-87723000D03*
X137508000Y-87723000D03*
X151508000Y-87723000D03*
X150508000Y-87723000D03*
X144508000Y-87723000D03*
X143508000Y-87723000D03*
X142508000Y-87723000D03*
X141508000Y-87723000D03*
X140508000Y-87723000D03*
X139508000Y-87723000D03*
X138508000Y-87723000D03*
D15*
X149508000Y-85423000D03*
X148508000Y-85423000D03*
X154508000Y-85423000D03*
X153508000Y-85423000D03*
X152508000Y-85423000D03*
X151508000Y-85423000D03*
X150508000Y-85423000D03*
X145508000Y-85423000D03*
X144508000Y-85423000D03*
X143508000Y-85423000D03*
X142508000Y-85423000D03*
X141508000Y-85423000D03*
X140508000Y-85423000D03*
X139508000Y-85423000D03*
X138508000Y-85423000D03*
X137508000Y-85423000D03*
X136508000Y-85423000D03*
D16*
X135508000Y-84923000D03*
M02*
