G04 #@! TF.GenerationSoftware,KiCad,Pcbnew,(2017-06-19 revision 6733101c6)-makepkg*
G04 #@! TF.CreationDate,2017-10-16T02:16:10+10:30*
G04 #@! TF.ProjectId,din_meter_atm90e26,64696E5F6D657465725F61746D393065,rev?*
G04 #@! TF.SameCoordinates,Original
G04 #@! TF.FileFunction,Legend,Bot*
G04 #@! TF.FilePolarity,Positive*
%FSLAX46Y46*%
G04 Gerber Fmt 4.6, Leading zero omitted, Abs format (unit mm)*
G04 Created by KiCad (PCBNEW (2017-06-19 revision 6733101c6)-makepkg) date 10/16/17 02:16:10*
%MOMM*%
%LPD*%
G01*
G04 APERTURE LIST*
%ADD10C,0.100000*%
%ADD11C,0.010000*%
%ADD12C,0.120000*%
%ADD13C,0.200000*%
%ADD14C,0.125000*%
G04 APERTURE END LIST*
D10*
X134040190Y-67838190D02*
X133540190Y-67838190D01*
X133540190Y-67957238D01*
X133564000Y-68028666D01*
X133611619Y-68076285D01*
X133659238Y-68100095D01*
X133754476Y-68123904D01*
X133825904Y-68123904D01*
X133921142Y-68100095D01*
X133968761Y-68076285D01*
X134016380Y-68028666D01*
X134040190Y-67957238D01*
X134040190Y-67838190D01*
X133706857Y-68552476D02*
X134040190Y-68552476D01*
X133706857Y-68338190D02*
X133968761Y-68338190D01*
X134016380Y-68362000D01*
X134040190Y-68409619D01*
X134040190Y-68481047D01*
X134016380Y-68528666D01*
X133992571Y-68552476D01*
X134040190Y-69004857D02*
X133778285Y-69004857D01*
X133730666Y-68981047D01*
X133706857Y-68933428D01*
X133706857Y-68838190D01*
X133730666Y-68790571D01*
X134016380Y-69004857D02*
X134040190Y-68957238D01*
X134040190Y-68838190D01*
X134016380Y-68790571D01*
X133968761Y-68766761D01*
X133921142Y-68766761D01*
X133873523Y-68790571D01*
X133849714Y-68838190D01*
X133849714Y-68957238D01*
X133825904Y-69004857D01*
X134040190Y-69314380D02*
X134016380Y-69266761D01*
X133968761Y-69242952D01*
X133540190Y-69242952D01*
X133897333Y-69862000D02*
X133897333Y-70100095D01*
X134040190Y-69814380D02*
X133540190Y-69981047D01*
X134040190Y-70147714D01*
X133540190Y-70242952D02*
X133540190Y-70528666D01*
X134040190Y-70385809D02*
X133540190Y-70385809D01*
X134040190Y-70695333D02*
X133540190Y-70695333D01*
X133897333Y-70862000D01*
X133540190Y-71028666D01*
X134040190Y-71028666D01*
X134040190Y-71290571D02*
X134040190Y-71385809D01*
X134016380Y-71433428D01*
X133992571Y-71457238D01*
X133921142Y-71504857D01*
X133825904Y-71528666D01*
X133635428Y-71528666D01*
X133587809Y-71504857D01*
X133564000Y-71481047D01*
X133540190Y-71433428D01*
X133540190Y-71338190D01*
X133564000Y-71290571D01*
X133587809Y-71266761D01*
X133635428Y-71242952D01*
X133754476Y-71242952D01*
X133802095Y-71266761D01*
X133825904Y-71290571D01*
X133849714Y-71338190D01*
X133849714Y-71433428D01*
X133825904Y-71481047D01*
X133802095Y-71504857D01*
X133754476Y-71528666D01*
X133540190Y-71838190D02*
X133540190Y-71885809D01*
X133564000Y-71933428D01*
X133587809Y-71957238D01*
X133635428Y-71981047D01*
X133730666Y-72004857D01*
X133849714Y-72004857D01*
X133944952Y-71981047D01*
X133992571Y-71957238D01*
X134016380Y-71933428D01*
X134040190Y-71885809D01*
X134040190Y-71838190D01*
X134016380Y-71790571D01*
X133992571Y-71766761D01*
X133944952Y-71742952D01*
X133849714Y-71719142D01*
X133730666Y-71719142D01*
X133635428Y-71742952D01*
X133587809Y-71766761D01*
X133564000Y-71790571D01*
X133540190Y-71838190D01*
X133778285Y-72219142D02*
X133778285Y-72385809D01*
X134040190Y-72457238D02*
X134040190Y-72219142D01*
X133540190Y-72219142D01*
X133540190Y-72457238D01*
X133587809Y-72647714D02*
X133564000Y-72671523D01*
X133540190Y-72719142D01*
X133540190Y-72838190D01*
X133564000Y-72885809D01*
X133587809Y-72909619D01*
X133635428Y-72933428D01*
X133683047Y-72933428D01*
X133754476Y-72909619D01*
X134040190Y-72623904D01*
X134040190Y-72933428D01*
X133540190Y-73362000D02*
X133540190Y-73266761D01*
X133564000Y-73219142D01*
X133587809Y-73195333D01*
X133659238Y-73147714D01*
X133754476Y-73123904D01*
X133944952Y-73123904D01*
X133992571Y-73147714D01*
X134016380Y-73171523D01*
X134040190Y-73219142D01*
X134040190Y-73314380D01*
X134016380Y-73362000D01*
X133992571Y-73385809D01*
X133944952Y-73409619D01*
X133825904Y-73409619D01*
X133778285Y-73385809D01*
X133754476Y-73362000D01*
X133730666Y-73314380D01*
X133730666Y-73219142D01*
X133754476Y-73171523D01*
X133778285Y-73147714D01*
X133825904Y-73123904D01*
X134556857Y-67278666D02*
X134890190Y-67397714D01*
X134556857Y-67516761D01*
X134390190Y-67802476D02*
X134390190Y-67850095D01*
X134414000Y-67897714D01*
X134437809Y-67921523D01*
X134485428Y-67945333D01*
X134580666Y-67969142D01*
X134699714Y-67969142D01*
X134794952Y-67945333D01*
X134842571Y-67921523D01*
X134866380Y-67897714D01*
X134890190Y-67850095D01*
X134890190Y-67802476D01*
X134866380Y-67754857D01*
X134842571Y-67731047D01*
X134794952Y-67707238D01*
X134699714Y-67683428D01*
X134580666Y-67683428D01*
X134485428Y-67707238D01*
X134437809Y-67731047D01*
X134414000Y-67754857D01*
X134390190Y-67802476D01*
X134842571Y-68183428D02*
X134866380Y-68207238D01*
X134890190Y-68183428D01*
X134866380Y-68159619D01*
X134842571Y-68183428D01*
X134890190Y-68183428D01*
X134890190Y-68683428D02*
X134890190Y-68397714D01*
X134890190Y-68540571D02*
X134390190Y-68540571D01*
X134461619Y-68492952D01*
X134509238Y-68445333D01*
X134533047Y-68397714D01*
X134890190Y-69540571D02*
X134890190Y-69254857D01*
X134890190Y-69397714D02*
X134390190Y-69397714D01*
X134461619Y-69350095D01*
X134509238Y-69302476D01*
X134533047Y-69254857D01*
X134390190Y-69969142D02*
X134390190Y-69873904D01*
X134414000Y-69826285D01*
X134437809Y-69802476D01*
X134509238Y-69754857D01*
X134604476Y-69731047D01*
X134794952Y-69731047D01*
X134842571Y-69754857D01*
X134866380Y-69778666D01*
X134890190Y-69826285D01*
X134890190Y-69921523D01*
X134866380Y-69969142D01*
X134842571Y-69992952D01*
X134794952Y-70016761D01*
X134675904Y-70016761D01*
X134628285Y-69992952D01*
X134604476Y-69969142D01*
X134580666Y-69921523D01*
X134580666Y-69826285D01*
X134604476Y-69778666D01*
X134628285Y-69754857D01*
X134675904Y-69731047D01*
X134366380Y-70588190D02*
X135009238Y-70159619D01*
X134890190Y-71016761D02*
X134890190Y-70731047D01*
X134890190Y-70873904D02*
X134390190Y-70873904D01*
X134461619Y-70826285D01*
X134509238Y-70778666D01*
X134533047Y-70731047D01*
X134390190Y-71326285D02*
X134390190Y-71373904D01*
X134414000Y-71421523D01*
X134437809Y-71445333D01*
X134485428Y-71469142D01*
X134580666Y-71492952D01*
X134699714Y-71492952D01*
X134794952Y-71469142D01*
X134842571Y-71445333D01*
X134866380Y-71421523D01*
X134890190Y-71373904D01*
X134890190Y-71326285D01*
X134866380Y-71278666D01*
X134842571Y-71254857D01*
X134794952Y-71231047D01*
X134699714Y-71207238D01*
X134580666Y-71207238D01*
X134485428Y-71231047D01*
X134437809Y-71254857D01*
X134414000Y-71278666D01*
X134390190Y-71326285D01*
X134366380Y-72064380D02*
X135009238Y-71635809D01*
X134437809Y-72207238D02*
X134414000Y-72231047D01*
X134390190Y-72278666D01*
X134390190Y-72397714D01*
X134414000Y-72445333D01*
X134437809Y-72469142D01*
X134485428Y-72492952D01*
X134533047Y-72492952D01*
X134604476Y-72469142D01*
X134890190Y-72183428D01*
X134890190Y-72492952D01*
X134390190Y-72802476D02*
X134390190Y-72850095D01*
X134414000Y-72897714D01*
X134437809Y-72921523D01*
X134485428Y-72945333D01*
X134580666Y-72969142D01*
X134699714Y-72969142D01*
X134794952Y-72945333D01*
X134842571Y-72921523D01*
X134866380Y-72897714D01*
X134890190Y-72850095D01*
X134890190Y-72802476D01*
X134866380Y-72754857D01*
X134842571Y-72731047D01*
X134794952Y-72707238D01*
X134699714Y-72683428D01*
X134580666Y-72683428D01*
X134485428Y-72707238D01*
X134437809Y-72731047D01*
X134414000Y-72754857D01*
X134390190Y-72802476D01*
X134890190Y-73445333D02*
X134890190Y-73159619D01*
X134890190Y-73302476D02*
X134390190Y-73302476D01*
X134461619Y-73254857D01*
X134509238Y-73207238D01*
X134533047Y-73159619D01*
X134390190Y-73612000D02*
X134390190Y-73945333D01*
X134890190Y-73731047D01*
D11*
G36*
X143165348Y-67159910D02*
X143165778Y-67238454D01*
X143166942Y-67295298D01*
X143169207Y-67334105D01*
X143172940Y-67358538D01*
X143178506Y-67372262D01*
X143186273Y-67378940D01*
X143196605Y-67382236D01*
X143197943Y-67382556D01*
X143222079Y-67387562D01*
X143269701Y-67396829D01*
X143335741Y-67409392D01*
X143415128Y-67424287D01*
X143502796Y-67440551D01*
X143505875Y-67441119D01*
X143591789Y-67457410D01*
X143667696Y-67472652D01*
X143729045Y-67485861D01*
X143771282Y-67496054D01*
X143789855Y-67502248D01*
X143790184Y-67502543D01*
X143799253Y-67520788D01*
X143814367Y-67558405D01*
X143832262Y-67607271D01*
X143832358Y-67607543D01*
X143855493Y-67669093D01*
X143884965Y-67741657D01*
X143914597Y-67810057D01*
X143916062Y-67813294D01*
X143966626Y-67924702D01*
X143798160Y-68171399D01*
X143746803Y-68247077D01*
X143700889Y-68315631D01*
X143663030Y-68373088D01*
X143635837Y-68415476D01*
X143621921Y-68438825D01*
X143620889Y-68441042D01*
X143625484Y-68458010D01*
X143647655Y-68489701D01*
X143688447Y-68537352D01*
X143748905Y-68602198D01*
X143813227Y-68668397D01*
X143876612Y-68732214D01*
X143934451Y-68789329D01*
X143983175Y-68836305D01*
X144019210Y-68869703D01*
X144038984Y-68886085D01*
X144040002Y-68886694D01*
X144053572Y-68888505D01*
X144075733Y-68881683D01*
X144109478Y-68864540D01*
X144157800Y-68835393D01*
X144223692Y-68792555D01*
X144308517Y-68735448D01*
X144383177Y-68684766D01*
X144450140Y-68639461D01*
X144505516Y-68602150D01*
X144545420Y-68575452D01*
X144565962Y-68561985D01*
X144567356Y-68561137D01*
X144587038Y-68562781D01*
X144625293Y-68575245D01*
X144674889Y-68596048D01*
X144690728Y-68603462D01*
X144761290Y-68635814D01*
X144841353Y-68670328D01*
X144910629Y-68698365D01*
X144962045Y-68718568D01*
X145001119Y-68734615D01*
X145021541Y-68743888D01*
X145023114Y-68745041D01*
X145025721Y-68762096D01*
X145032863Y-68802298D01*
X145043523Y-68860302D01*
X145056685Y-68930763D01*
X145071333Y-69008335D01*
X145086449Y-69087672D01*
X145101018Y-69163431D01*
X145114022Y-69230264D01*
X145124445Y-69282828D01*
X145131270Y-69315776D01*
X145133199Y-69323857D01*
X145137962Y-69332205D01*
X145148718Y-69338506D01*
X145169098Y-69343045D01*
X145202734Y-69346104D01*
X145253255Y-69347967D01*
X145324292Y-69348918D01*
X145419476Y-69349240D01*
X145458492Y-69349257D01*
X145775799Y-69349257D01*
X145790839Y-69273057D01*
X145798995Y-69230663D01*
X145810899Y-69167400D01*
X145825116Y-69090962D01*
X145840210Y-69009043D01*
X145844355Y-68986400D01*
X145859053Y-68910806D01*
X145873505Y-68844953D01*
X145886375Y-68794366D01*
X145896322Y-68764574D01*
X145899287Y-68759612D01*
X145920283Y-68747426D01*
X145960967Y-68729953D01*
X146013322Y-68710577D01*
X146024600Y-68706734D01*
X146094523Y-68681339D01*
X146173418Y-68649817D01*
X146244266Y-68618969D01*
X146244595Y-68618817D01*
X146355733Y-68567447D01*
X146604253Y-68736399D01*
X146852772Y-68905352D01*
X147070058Y-68688429D01*
X147134726Y-68622819D01*
X147191733Y-68562979D01*
X147238033Y-68512267D01*
X147270584Y-68474046D01*
X147286343Y-68451675D01*
X147287343Y-68448466D01*
X147279469Y-68429626D01*
X147257578Y-68391180D01*
X147224267Y-68337330D01*
X147182131Y-68272276D01*
X147134943Y-68201940D01*
X147086810Y-68130555D01*
X147044928Y-68066908D01*
X147011871Y-68015041D01*
X146990218Y-67978995D01*
X146982543Y-67962867D01*
X146989037Y-67943189D01*
X147006150Y-67905875D01*
X147030326Y-67858621D01*
X147033013Y-67853612D01*
X147064927Y-67789977D01*
X147080579Y-67746341D01*
X147080745Y-67719202D01*
X147066204Y-67705057D01*
X147066000Y-67704975D01*
X147048779Y-67697905D01*
X147007899Y-67681042D01*
X146946525Y-67655695D01*
X146867819Y-67623171D01*
X146774947Y-67584778D01*
X146671072Y-67541822D01*
X146570502Y-67500222D01*
X146459516Y-67454504D01*
X146356703Y-67412526D01*
X146265215Y-67375548D01*
X146188201Y-67344827D01*
X146128815Y-67321622D01*
X146090209Y-67307190D01*
X146075800Y-67302743D01*
X146059272Y-67313896D01*
X146032930Y-67343069D01*
X146003887Y-67381971D01*
X145912039Y-67492757D01*
X145806759Y-67579351D01*
X145690266Y-67640716D01*
X145564776Y-67675815D01*
X145432507Y-67683608D01*
X145371457Y-67677943D01*
X145244795Y-67647078D01*
X145132941Y-67593920D01*
X145037001Y-67521767D01*
X144958076Y-67433917D01*
X144897270Y-67333665D01*
X144855687Y-67224310D01*
X144834428Y-67109147D01*
X144834599Y-66991475D01*
X144857301Y-66874590D01*
X144903638Y-66761789D01*
X144974713Y-66656369D01*
X145014911Y-66612368D01*
X145118129Y-66527979D01*
X145230925Y-66469222D01*
X145350010Y-66435704D01*
X145472095Y-66427035D01*
X145593893Y-66442823D01*
X145712116Y-66482678D01*
X145823475Y-66546207D01*
X145924684Y-66633021D01*
X146003887Y-66730029D01*
X146034162Y-66770437D01*
X146060219Y-66798982D01*
X146075825Y-66809257D01*
X146092843Y-66803877D01*
X146133500Y-66788575D01*
X146194642Y-66764612D01*
X146273119Y-66733244D01*
X146365780Y-66695732D01*
X146469472Y-66653333D01*
X146570526Y-66611663D01*
X146681607Y-66565690D01*
X146784541Y-66523107D01*
X146876165Y-66485221D01*
X146953316Y-66453340D01*
X147012831Y-66428771D01*
X147051544Y-66412820D01*
X147066000Y-66406910D01*
X147080685Y-66392948D01*
X147080642Y-66365940D01*
X147065099Y-66322413D01*
X147033284Y-66258890D01*
X147033013Y-66258388D01*
X147008323Y-66210560D01*
X146990338Y-66171897D01*
X146982614Y-66150095D01*
X146982543Y-66149133D01*
X146990378Y-66132721D01*
X147012165Y-66096487D01*
X147045328Y-66044474D01*
X147087291Y-65980725D01*
X147134943Y-65910060D01*
X147183191Y-65838116D01*
X147225151Y-65773274D01*
X147258227Y-65719735D01*
X147279821Y-65681697D01*
X147287343Y-65663533D01*
X147277457Y-65646808D01*
X147249826Y-65613180D01*
X147207495Y-65566010D01*
X147153505Y-65508658D01*
X147090899Y-65444484D01*
X147069983Y-65423497D01*
X146852623Y-65206499D01*
X146610220Y-65371668D01*
X146535781Y-65421864D01*
X146468972Y-65465919D01*
X146413665Y-65501362D01*
X146373729Y-65525719D01*
X146353036Y-65536522D01*
X146351563Y-65536838D01*
X146332058Y-65531143D01*
X146292822Y-65515826D01*
X146240430Y-65493537D01*
X146205355Y-65477893D01*
X146138201Y-65448641D01*
X146070358Y-65421094D01*
X146013034Y-65399737D01*
X145995572Y-65393935D01*
X145948938Y-65377452D01*
X145912905Y-65361340D01*
X145899287Y-65352490D01*
X145890952Y-65332960D01*
X145879137Y-65290334D01*
X145865181Y-65230145D01*
X145850422Y-65157922D01*
X145844355Y-65125600D01*
X145829273Y-65043522D01*
X145814669Y-64964795D01*
X145801980Y-64897109D01*
X145792642Y-64848160D01*
X145790839Y-64838943D01*
X145775799Y-64762743D01*
X145458492Y-64762743D01*
X145354154Y-64762914D01*
X145275213Y-64763616D01*
X145218038Y-64765134D01*
X145178999Y-64767749D01*
X145154465Y-64771746D01*
X145140805Y-64777409D01*
X145134389Y-64785020D01*
X145133199Y-64788143D01*
X145128980Y-64806978D01*
X145120562Y-64848588D01*
X145108961Y-64907630D01*
X145095195Y-64978757D01*
X145080280Y-65056625D01*
X145065232Y-65135887D01*
X145051069Y-65211198D01*
X145038806Y-65277213D01*
X145029461Y-65328587D01*
X145024050Y-65359975D01*
X145023114Y-65366959D01*
X145010596Y-65373285D01*
X144977246Y-65387290D01*
X144929377Y-65406355D01*
X144910629Y-65413634D01*
X144838195Y-65442996D01*
X144758170Y-65477571D01*
X144690728Y-65508537D01*
X144639159Y-65531323D01*
X144596785Y-65546482D01*
X144570834Y-65551542D01*
X144567356Y-65550736D01*
X144550936Y-65540041D01*
X144514417Y-65515620D01*
X144461687Y-65480095D01*
X144396635Y-65436087D01*
X144323151Y-65386217D01*
X144308645Y-65376356D01*
X144222704Y-65318492D01*
X144157261Y-65275956D01*
X144109304Y-65247054D01*
X144075820Y-65230090D01*
X144053795Y-65223367D01*
X144040217Y-65225190D01*
X144040131Y-65225236D01*
X144022297Y-65239586D01*
X143987817Y-65271323D01*
X143940268Y-65317010D01*
X143883222Y-65373204D01*
X143820255Y-65436468D01*
X143813227Y-65443602D01*
X143736020Y-65523330D01*
X143679330Y-65584857D01*
X143642110Y-65629421D01*
X143623315Y-65658257D01*
X143620889Y-65670958D01*
X143631471Y-65689494D01*
X143655916Y-65727961D01*
X143691612Y-65782386D01*
X143735947Y-65848798D01*
X143786311Y-65923225D01*
X143798160Y-65940601D01*
X143966626Y-66187297D01*
X143916062Y-66298706D01*
X143886595Y-66366457D01*
X143856959Y-66439183D01*
X143833330Y-66501703D01*
X143832358Y-66504457D01*
X143814457Y-66553360D01*
X143799320Y-66591057D01*
X143790210Y-66609425D01*
X143790184Y-66609456D01*
X143773717Y-66615285D01*
X143733219Y-66625192D01*
X143673242Y-66638195D01*
X143598340Y-66653309D01*
X143513064Y-66669552D01*
X143505875Y-66670881D01*
X143418014Y-66687175D01*
X143338260Y-66702133D01*
X143271681Y-66714791D01*
X143223347Y-66724186D01*
X143198325Y-66729354D01*
X143197943Y-66729444D01*
X143187299Y-66732589D01*
X143179262Y-66738704D01*
X143173467Y-66751453D01*
X143169547Y-66774500D01*
X143167135Y-66811509D01*
X143165865Y-66866144D01*
X143165371Y-66942067D01*
X143165286Y-67042944D01*
X143165286Y-67056000D01*
X143165348Y-67159910D01*
X143165348Y-67159910D01*
G37*
X143165348Y-67159910D02*
X143165778Y-67238454D01*
X143166942Y-67295298D01*
X143169207Y-67334105D01*
X143172940Y-67358538D01*
X143178506Y-67372262D01*
X143186273Y-67378940D01*
X143196605Y-67382236D01*
X143197943Y-67382556D01*
X143222079Y-67387562D01*
X143269701Y-67396829D01*
X143335741Y-67409392D01*
X143415128Y-67424287D01*
X143502796Y-67440551D01*
X143505875Y-67441119D01*
X143591789Y-67457410D01*
X143667696Y-67472652D01*
X143729045Y-67485861D01*
X143771282Y-67496054D01*
X143789855Y-67502248D01*
X143790184Y-67502543D01*
X143799253Y-67520788D01*
X143814367Y-67558405D01*
X143832262Y-67607271D01*
X143832358Y-67607543D01*
X143855493Y-67669093D01*
X143884965Y-67741657D01*
X143914597Y-67810057D01*
X143916062Y-67813294D01*
X143966626Y-67924702D01*
X143798160Y-68171399D01*
X143746803Y-68247077D01*
X143700889Y-68315631D01*
X143663030Y-68373088D01*
X143635837Y-68415476D01*
X143621921Y-68438825D01*
X143620889Y-68441042D01*
X143625484Y-68458010D01*
X143647655Y-68489701D01*
X143688447Y-68537352D01*
X143748905Y-68602198D01*
X143813227Y-68668397D01*
X143876612Y-68732214D01*
X143934451Y-68789329D01*
X143983175Y-68836305D01*
X144019210Y-68869703D01*
X144038984Y-68886085D01*
X144040002Y-68886694D01*
X144053572Y-68888505D01*
X144075733Y-68881683D01*
X144109478Y-68864540D01*
X144157800Y-68835393D01*
X144223692Y-68792555D01*
X144308517Y-68735448D01*
X144383177Y-68684766D01*
X144450140Y-68639461D01*
X144505516Y-68602150D01*
X144545420Y-68575452D01*
X144565962Y-68561985D01*
X144567356Y-68561137D01*
X144587038Y-68562781D01*
X144625293Y-68575245D01*
X144674889Y-68596048D01*
X144690728Y-68603462D01*
X144761290Y-68635814D01*
X144841353Y-68670328D01*
X144910629Y-68698365D01*
X144962045Y-68718568D01*
X145001119Y-68734615D01*
X145021541Y-68743888D01*
X145023114Y-68745041D01*
X145025721Y-68762096D01*
X145032863Y-68802298D01*
X145043523Y-68860302D01*
X145056685Y-68930763D01*
X145071333Y-69008335D01*
X145086449Y-69087672D01*
X145101018Y-69163431D01*
X145114022Y-69230264D01*
X145124445Y-69282828D01*
X145131270Y-69315776D01*
X145133199Y-69323857D01*
X145137962Y-69332205D01*
X145148718Y-69338506D01*
X145169098Y-69343045D01*
X145202734Y-69346104D01*
X145253255Y-69347967D01*
X145324292Y-69348918D01*
X145419476Y-69349240D01*
X145458492Y-69349257D01*
X145775799Y-69349257D01*
X145790839Y-69273057D01*
X145798995Y-69230663D01*
X145810899Y-69167400D01*
X145825116Y-69090962D01*
X145840210Y-69009043D01*
X145844355Y-68986400D01*
X145859053Y-68910806D01*
X145873505Y-68844953D01*
X145886375Y-68794366D01*
X145896322Y-68764574D01*
X145899287Y-68759612D01*
X145920283Y-68747426D01*
X145960967Y-68729953D01*
X146013322Y-68710577D01*
X146024600Y-68706734D01*
X146094523Y-68681339D01*
X146173418Y-68649817D01*
X146244266Y-68618969D01*
X146244595Y-68618817D01*
X146355733Y-68567447D01*
X146604253Y-68736399D01*
X146852772Y-68905352D01*
X147070058Y-68688429D01*
X147134726Y-68622819D01*
X147191733Y-68562979D01*
X147238033Y-68512267D01*
X147270584Y-68474046D01*
X147286343Y-68451675D01*
X147287343Y-68448466D01*
X147279469Y-68429626D01*
X147257578Y-68391180D01*
X147224267Y-68337330D01*
X147182131Y-68272276D01*
X147134943Y-68201940D01*
X147086810Y-68130555D01*
X147044928Y-68066908D01*
X147011871Y-68015041D01*
X146990218Y-67978995D01*
X146982543Y-67962867D01*
X146989037Y-67943189D01*
X147006150Y-67905875D01*
X147030326Y-67858621D01*
X147033013Y-67853612D01*
X147064927Y-67789977D01*
X147080579Y-67746341D01*
X147080745Y-67719202D01*
X147066204Y-67705057D01*
X147066000Y-67704975D01*
X147048779Y-67697905D01*
X147007899Y-67681042D01*
X146946525Y-67655695D01*
X146867819Y-67623171D01*
X146774947Y-67584778D01*
X146671072Y-67541822D01*
X146570502Y-67500222D01*
X146459516Y-67454504D01*
X146356703Y-67412526D01*
X146265215Y-67375548D01*
X146188201Y-67344827D01*
X146128815Y-67321622D01*
X146090209Y-67307190D01*
X146075800Y-67302743D01*
X146059272Y-67313896D01*
X146032930Y-67343069D01*
X146003887Y-67381971D01*
X145912039Y-67492757D01*
X145806759Y-67579351D01*
X145690266Y-67640716D01*
X145564776Y-67675815D01*
X145432507Y-67683608D01*
X145371457Y-67677943D01*
X145244795Y-67647078D01*
X145132941Y-67593920D01*
X145037001Y-67521767D01*
X144958076Y-67433917D01*
X144897270Y-67333665D01*
X144855687Y-67224310D01*
X144834428Y-67109147D01*
X144834599Y-66991475D01*
X144857301Y-66874590D01*
X144903638Y-66761789D01*
X144974713Y-66656369D01*
X145014911Y-66612368D01*
X145118129Y-66527979D01*
X145230925Y-66469222D01*
X145350010Y-66435704D01*
X145472095Y-66427035D01*
X145593893Y-66442823D01*
X145712116Y-66482678D01*
X145823475Y-66546207D01*
X145924684Y-66633021D01*
X146003887Y-66730029D01*
X146034162Y-66770437D01*
X146060219Y-66798982D01*
X146075825Y-66809257D01*
X146092843Y-66803877D01*
X146133500Y-66788575D01*
X146194642Y-66764612D01*
X146273119Y-66733244D01*
X146365780Y-66695732D01*
X146469472Y-66653333D01*
X146570526Y-66611663D01*
X146681607Y-66565690D01*
X146784541Y-66523107D01*
X146876165Y-66485221D01*
X146953316Y-66453340D01*
X147012831Y-66428771D01*
X147051544Y-66412820D01*
X147066000Y-66406910D01*
X147080685Y-66392948D01*
X147080642Y-66365940D01*
X147065099Y-66322413D01*
X147033284Y-66258890D01*
X147033013Y-66258388D01*
X147008323Y-66210560D01*
X146990338Y-66171897D01*
X146982614Y-66150095D01*
X146982543Y-66149133D01*
X146990378Y-66132721D01*
X147012165Y-66096487D01*
X147045328Y-66044474D01*
X147087291Y-65980725D01*
X147134943Y-65910060D01*
X147183191Y-65838116D01*
X147225151Y-65773274D01*
X147258227Y-65719735D01*
X147279821Y-65681697D01*
X147287343Y-65663533D01*
X147277457Y-65646808D01*
X147249826Y-65613180D01*
X147207495Y-65566010D01*
X147153505Y-65508658D01*
X147090899Y-65444484D01*
X147069983Y-65423497D01*
X146852623Y-65206499D01*
X146610220Y-65371668D01*
X146535781Y-65421864D01*
X146468972Y-65465919D01*
X146413665Y-65501362D01*
X146373729Y-65525719D01*
X146353036Y-65536522D01*
X146351563Y-65536838D01*
X146332058Y-65531143D01*
X146292822Y-65515826D01*
X146240430Y-65493537D01*
X146205355Y-65477893D01*
X146138201Y-65448641D01*
X146070358Y-65421094D01*
X146013034Y-65399737D01*
X145995572Y-65393935D01*
X145948938Y-65377452D01*
X145912905Y-65361340D01*
X145899287Y-65352490D01*
X145890952Y-65332960D01*
X145879137Y-65290334D01*
X145865181Y-65230145D01*
X145850422Y-65157922D01*
X145844355Y-65125600D01*
X145829273Y-65043522D01*
X145814669Y-64964795D01*
X145801980Y-64897109D01*
X145792642Y-64848160D01*
X145790839Y-64838943D01*
X145775799Y-64762743D01*
X145458492Y-64762743D01*
X145354154Y-64762914D01*
X145275213Y-64763616D01*
X145218038Y-64765134D01*
X145178999Y-64767749D01*
X145154465Y-64771746D01*
X145140805Y-64777409D01*
X145134389Y-64785020D01*
X145133199Y-64788143D01*
X145128980Y-64806978D01*
X145120562Y-64848588D01*
X145108961Y-64907630D01*
X145095195Y-64978757D01*
X145080280Y-65056625D01*
X145065232Y-65135887D01*
X145051069Y-65211198D01*
X145038806Y-65277213D01*
X145029461Y-65328587D01*
X145024050Y-65359975D01*
X145023114Y-65366959D01*
X145010596Y-65373285D01*
X144977246Y-65387290D01*
X144929377Y-65406355D01*
X144910629Y-65413634D01*
X144838195Y-65442996D01*
X144758170Y-65477571D01*
X144690728Y-65508537D01*
X144639159Y-65531323D01*
X144596785Y-65546482D01*
X144570834Y-65551542D01*
X144567356Y-65550736D01*
X144550936Y-65540041D01*
X144514417Y-65515620D01*
X144461687Y-65480095D01*
X144396635Y-65436087D01*
X144323151Y-65386217D01*
X144308645Y-65376356D01*
X144222704Y-65318492D01*
X144157261Y-65275956D01*
X144109304Y-65247054D01*
X144075820Y-65230090D01*
X144053795Y-65223367D01*
X144040217Y-65225190D01*
X144040131Y-65225236D01*
X144022297Y-65239586D01*
X143987817Y-65271323D01*
X143940268Y-65317010D01*
X143883222Y-65373204D01*
X143820255Y-65436468D01*
X143813227Y-65443602D01*
X143736020Y-65523330D01*
X143679330Y-65584857D01*
X143642110Y-65629421D01*
X143623315Y-65658257D01*
X143620889Y-65670958D01*
X143631471Y-65689494D01*
X143655916Y-65727961D01*
X143691612Y-65782386D01*
X143735947Y-65848798D01*
X143786311Y-65923225D01*
X143798160Y-65940601D01*
X143966626Y-66187297D01*
X143916062Y-66298706D01*
X143886595Y-66366457D01*
X143856959Y-66439183D01*
X143833330Y-66501703D01*
X143832358Y-66504457D01*
X143814457Y-66553360D01*
X143799320Y-66591057D01*
X143790210Y-66609425D01*
X143790184Y-66609456D01*
X143773717Y-66615285D01*
X143733219Y-66625192D01*
X143673242Y-66638195D01*
X143598340Y-66653309D01*
X143513064Y-66669552D01*
X143505875Y-66670881D01*
X143418014Y-66687175D01*
X143338260Y-66702133D01*
X143271681Y-66714791D01*
X143223347Y-66724186D01*
X143198325Y-66729354D01*
X143197943Y-66729444D01*
X143187299Y-66732589D01*
X143179262Y-66738704D01*
X143173467Y-66751453D01*
X143169547Y-66774500D01*
X143167135Y-66811509D01*
X143165865Y-66866144D01*
X143165371Y-66942067D01*
X143165286Y-67042944D01*
X143165286Y-67056000D01*
X143165348Y-67159910D01*
G36*
X147889966Y-70209595D02*
X147927497Y-70267021D01*
X147961096Y-70294719D01*
X148022064Y-70316662D01*
X148070308Y-70318405D01*
X148134816Y-70314457D01*
X148199934Y-70165686D01*
X148233202Y-70093349D01*
X148259964Y-70046084D01*
X148283144Y-70021507D01*
X148305667Y-70017237D01*
X148330455Y-70030889D01*
X148346886Y-70045943D01*
X148373235Y-70089746D01*
X148375081Y-70137389D01*
X148354546Y-70181145D01*
X148313752Y-70213289D01*
X148299347Y-70219038D01*
X148254356Y-70246576D01*
X148235182Y-70278258D01*
X148218779Y-70321714D01*
X148280966Y-70321714D01*
X148323283Y-70317872D01*
X148358969Y-70302823D01*
X148399943Y-70271280D01*
X148405267Y-70266592D01*
X148441720Y-70231506D01*
X148461283Y-70201347D01*
X148470283Y-70163615D01*
X148473230Y-70132335D01*
X148473965Y-70076385D01*
X148464660Y-70036555D01*
X148450846Y-70011708D01*
X148420467Y-69972656D01*
X148387613Y-69945625D01*
X148346294Y-69928517D01*
X148290521Y-69919238D01*
X148214305Y-69915693D01*
X148175622Y-69915410D01*
X148129247Y-69916372D01*
X148129247Y-70004007D01*
X148154126Y-70005023D01*
X148158200Y-70007556D01*
X148152665Y-70024274D01*
X148138017Y-70060249D01*
X148117190Y-70108331D01*
X148112714Y-70118386D01*
X148081814Y-70179152D01*
X148054657Y-70212632D01*
X148029220Y-70219990D01*
X148003481Y-70202391D01*
X147992109Y-70187856D01*
X147969364Y-70135410D01*
X147973122Y-70086322D01*
X148000884Y-70045227D01*
X148050152Y-70016758D01*
X148089257Y-70007631D01*
X148129247Y-70004007D01*
X148129247Y-69916372D01*
X148085249Y-69917285D01*
X148018384Y-69924196D01*
X147969695Y-69937884D01*
X147933849Y-69960096D01*
X147905513Y-69992574D01*
X147896355Y-70006733D01*
X147872507Y-70071053D01*
X147871006Y-70141473D01*
X147889966Y-70209595D01*
X147889966Y-70209595D01*
G37*
X147889966Y-70209595D02*
X147927497Y-70267021D01*
X147961096Y-70294719D01*
X148022064Y-70316662D01*
X148070308Y-70318405D01*
X148134816Y-70314457D01*
X148199934Y-70165686D01*
X148233202Y-70093349D01*
X148259964Y-70046084D01*
X148283144Y-70021507D01*
X148305667Y-70017237D01*
X148330455Y-70030889D01*
X148346886Y-70045943D01*
X148373235Y-70089746D01*
X148375081Y-70137389D01*
X148354546Y-70181145D01*
X148313752Y-70213289D01*
X148299347Y-70219038D01*
X148254356Y-70246576D01*
X148235182Y-70278258D01*
X148218779Y-70321714D01*
X148280966Y-70321714D01*
X148323283Y-70317872D01*
X148358969Y-70302823D01*
X148399943Y-70271280D01*
X148405267Y-70266592D01*
X148441720Y-70231506D01*
X148461283Y-70201347D01*
X148470283Y-70163615D01*
X148473230Y-70132335D01*
X148473965Y-70076385D01*
X148464660Y-70036555D01*
X148450846Y-70011708D01*
X148420467Y-69972656D01*
X148387613Y-69945625D01*
X148346294Y-69928517D01*
X148290521Y-69919238D01*
X148214305Y-69915693D01*
X148175622Y-69915410D01*
X148129247Y-69916372D01*
X148129247Y-70004007D01*
X148154126Y-70005023D01*
X148158200Y-70007556D01*
X148152665Y-70024274D01*
X148138017Y-70060249D01*
X148117190Y-70108331D01*
X148112714Y-70118386D01*
X148081814Y-70179152D01*
X148054657Y-70212632D01*
X148029220Y-70219990D01*
X148003481Y-70202391D01*
X147992109Y-70187856D01*
X147969364Y-70135410D01*
X147973122Y-70086322D01*
X148000884Y-70045227D01*
X148050152Y-70016758D01*
X148089257Y-70007631D01*
X148129247Y-70004007D01*
X148129247Y-69916372D01*
X148085249Y-69917285D01*
X148018384Y-69924196D01*
X147969695Y-69937884D01*
X147933849Y-69960096D01*
X147905513Y-69992574D01*
X147896355Y-70006733D01*
X147872507Y-70071053D01*
X147871006Y-70141473D01*
X147889966Y-70209595D01*
G36*
X147881752Y-69708600D02*
X147889334Y-69725948D01*
X147922128Y-69767356D01*
X147969547Y-69802765D01*
X148020151Y-69824664D01*
X148045098Y-69828229D01*
X148079927Y-69816279D01*
X148098357Y-69790067D01*
X148109516Y-69761964D01*
X148111572Y-69749095D01*
X148096649Y-69742829D01*
X148064175Y-69730456D01*
X148049502Y-69725028D01*
X147998744Y-69694590D01*
X147973427Y-69650520D01*
X147974206Y-69594010D01*
X147975203Y-69589825D01*
X147989507Y-69559655D01*
X148017393Y-69537476D01*
X148062287Y-69522327D01*
X148127615Y-69513250D01*
X148216804Y-69509286D01*
X148264261Y-69508914D01*
X148339071Y-69508730D01*
X148390069Y-69507522D01*
X148422471Y-69504309D01*
X148441495Y-69498109D01*
X148452356Y-69487940D01*
X148460272Y-69472819D01*
X148460670Y-69471946D01*
X148472981Y-69442828D01*
X148477514Y-69428403D01*
X148463809Y-69426186D01*
X148425925Y-69424289D01*
X148368715Y-69422847D01*
X148297027Y-69421998D01*
X148244565Y-69421829D01*
X148143047Y-69422692D01*
X148066032Y-69426070D01*
X148009023Y-69433142D01*
X147967526Y-69445088D01*
X147937043Y-69463090D01*
X147913080Y-69488327D01*
X147896355Y-69513247D01*
X147874097Y-69573171D01*
X147869076Y-69642911D01*
X147881752Y-69708600D01*
X147881752Y-69708600D01*
G37*
X147881752Y-69708600D02*
X147889334Y-69725948D01*
X147922128Y-69767356D01*
X147969547Y-69802765D01*
X148020151Y-69824664D01*
X148045098Y-69828229D01*
X148079927Y-69816279D01*
X148098357Y-69790067D01*
X148109516Y-69761964D01*
X148111572Y-69749095D01*
X148096649Y-69742829D01*
X148064175Y-69730456D01*
X148049502Y-69725028D01*
X147998744Y-69694590D01*
X147973427Y-69650520D01*
X147974206Y-69594010D01*
X147975203Y-69589825D01*
X147989507Y-69559655D01*
X148017393Y-69537476D01*
X148062287Y-69522327D01*
X148127615Y-69513250D01*
X148216804Y-69509286D01*
X148264261Y-69508914D01*
X148339071Y-69508730D01*
X148390069Y-69507522D01*
X148422471Y-69504309D01*
X148441495Y-69498109D01*
X148452356Y-69487940D01*
X148460272Y-69472819D01*
X148460670Y-69471946D01*
X148472981Y-69442828D01*
X148477514Y-69428403D01*
X148463809Y-69426186D01*
X148425925Y-69424289D01*
X148368715Y-69422847D01*
X148297027Y-69421998D01*
X148244565Y-69421829D01*
X148143047Y-69422692D01*
X148066032Y-69426070D01*
X148009023Y-69433142D01*
X147967526Y-69445088D01*
X147937043Y-69463090D01*
X147913080Y-69488327D01*
X147896355Y-69513247D01*
X147874097Y-69573171D01*
X147869076Y-69642911D01*
X147881752Y-69708600D01*
G36*
X147879335Y-69200876D02*
X147898344Y-69242667D01*
X147921378Y-69275469D01*
X147947133Y-69299503D01*
X147980358Y-69316097D01*
X148025800Y-69326577D01*
X148088207Y-69332271D01*
X148172327Y-69334507D01*
X148227721Y-69334743D01*
X148443826Y-69334743D01*
X148460670Y-69297774D01*
X148472981Y-69268656D01*
X148477514Y-69254231D01*
X148464025Y-69251472D01*
X148427653Y-69249282D01*
X148374542Y-69247942D01*
X148332372Y-69247657D01*
X148271447Y-69246434D01*
X148223115Y-69243136D01*
X148193518Y-69238321D01*
X148187229Y-69234496D01*
X148193652Y-69208783D01*
X148210125Y-69168418D01*
X148232458Y-69121679D01*
X148256457Y-69076845D01*
X148277930Y-69042193D01*
X148292685Y-69026002D01*
X148292845Y-69025938D01*
X148320152Y-69027330D01*
X148346219Y-69039818D01*
X148367392Y-69061743D01*
X148374474Y-69093743D01*
X148373649Y-69121092D01*
X148373042Y-69159826D01*
X148382116Y-69180158D01*
X148406092Y-69192369D01*
X148410613Y-69193909D01*
X148444806Y-69199203D01*
X148465568Y-69185047D01*
X148475462Y-69148148D01*
X148477292Y-69108289D01*
X148463727Y-69036562D01*
X148444355Y-68999432D01*
X148398845Y-68953576D01*
X148342983Y-68929256D01*
X148283957Y-68927073D01*
X148228953Y-68947629D01*
X148194486Y-68978549D01*
X148175189Y-69009420D01*
X148150759Y-69057942D01*
X148125985Y-69114485D01*
X148122199Y-69123910D01*
X148094791Y-69186019D01*
X148070634Y-69221822D01*
X148046619Y-69233337D01*
X148019635Y-69222580D01*
X147998543Y-69204114D01*
X147972572Y-69160469D01*
X147970624Y-69112446D01*
X147990637Y-69068406D01*
X148030551Y-69036709D01*
X148040848Y-69032549D01*
X148078724Y-69008327D01*
X148106842Y-68972965D01*
X148129917Y-68928343D01*
X148064485Y-68928343D01*
X148024506Y-68930969D01*
X147992997Y-68942230D01*
X147959378Y-68967199D01*
X147933484Y-68991169D01*
X147896817Y-69028441D01*
X147877121Y-69057401D01*
X147869220Y-69088505D01*
X147867914Y-69123713D01*
X147879335Y-69200876D01*
X147879335Y-69200876D01*
G37*
X147879335Y-69200876D02*
X147898344Y-69242667D01*
X147921378Y-69275469D01*
X147947133Y-69299503D01*
X147980358Y-69316097D01*
X148025800Y-69326577D01*
X148088207Y-69332271D01*
X148172327Y-69334507D01*
X148227721Y-69334743D01*
X148443826Y-69334743D01*
X148460670Y-69297774D01*
X148472981Y-69268656D01*
X148477514Y-69254231D01*
X148464025Y-69251472D01*
X148427653Y-69249282D01*
X148374542Y-69247942D01*
X148332372Y-69247657D01*
X148271447Y-69246434D01*
X148223115Y-69243136D01*
X148193518Y-69238321D01*
X148187229Y-69234496D01*
X148193652Y-69208783D01*
X148210125Y-69168418D01*
X148232458Y-69121679D01*
X148256457Y-69076845D01*
X148277930Y-69042193D01*
X148292685Y-69026002D01*
X148292845Y-69025938D01*
X148320152Y-69027330D01*
X148346219Y-69039818D01*
X148367392Y-69061743D01*
X148374474Y-69093743D01*
X148373649Y-69121092D01*
X148373042Y-69159826D01*
X148382116Y-69180158D01*
X148406092Y-69192369D01*
X148410613Y-69193909D01*
X148444806Y-69199203D01*
X148465568Y-69185047D01*
X148475462Y-69148148D01*
X148477292Y-69108289D01*
X148463727Y-69036562D01*
X148444355Y-68999432D01*
X148398845Y-68953576D01*
X148342983Y-68929256D01*
X148283957Y-68927073D01*
X148228953Y-68947629D01*
X148194486Y-68978549D01*
X148175189Y-69009420D01*
X148150759Y-69057942D01*
X148125985Y-69114485D01*
X148122199Y-69123910D01*
X148094791Y-69186019D01*
X148070634Y-69221822D01*
X148046619Y-69233337D01*
X148019635Y-69222580D01*
X147998543Y-69204114D01*
X147972572Y-69160469D01*
X147970624Y-69112446D01*
X147990637Y-69068406D01*
X148030551Y-69036709D01*
X148040848Y-69032549D01*
X148078724Y-69008327D01*
X148106842Y-68972965D01*
X148129917Y-68928343D01*
X148064485Y-68928343D01*
X148024506Y-68930969D01*
X147992997Y-68942230D01*
X147959378Y-68967199D01*
X147933484Y-68991169D01*
X147896817Y-69028441D01*
X147877121Y-69057401D01*
X147869220Y-69088505D01*
X147867914Y-69123713D01*
X147879335Y-69200876D01*
G36*
X147881663Y-68835833D02*
X147919850Y-68838048D01*
X147977886Y-68839784D01*
X148051180Y-68840899D01*
X148128055Y-68841257D01*
X148388196Y-68841257D01*
X148434127Y-68795326D01*
X148462429Y-68763675D01*
X148473893Y-68735890D01*
X148473168Y-68697915D01*
X148471321Y-68682840D01*
X148465948Y-68635726D01*
X148462869Y-68596756D01*
X148462585Y-68587257D01*
X148464445Y-68555233D01*
X148469114Y-68509432D01*
X148471321Y-68491674D01*
X148474735Y-68448057D01*
X148467320Y-68418745D01*
X148444427Y-68389680D01*
X148434127Y-68379188D01*
X148388196Y-68333257D01*
X147901602Y-68333257D01*
X147884758Y-68370226D01*
X147872282Y-68402059D01*
X147867914Y-68420683D01*
X147881718Y-68425458D01*
X147920286Y-68429921D01*
X147979356Y-68433775D01*
X148054663Y-68436722D01*
X148118286Y-68438143D01*
X148368657Y-68442114D01*
X148373556Y-68476759D01*
X148370131Y-68508268D01*
X148359041Y-68523708D01*
X148338308Y-68528023D01*
X148294145Y-68531708D01*
X148232146Y-68534469D01*
X148157909Y-68536012D01*
X148119706Y-68536235D01*
X147899783Y-68536457D01*
X147883849Y-68582166D01*
X147873015Y-68614518D01*
X147867962Y-68632115D01*
X147867914Y-68632623D01*
X147881648Y-68634388D01*
X147919730Y-68636329D01*
X147977482Y-68638282D01*
X148050227Y-68640084D01*
X148118286Y-68641343D01*
X148368657Y-68645314D01*
X148368657Y-68732400D01*
X148140240Y-68736396D01*
X147911822Y-68740392D01*
X147889868Y-68782847D01*
X147874793Y-68814192D01*
X147867951Y-68832744D01*
X147867914Y-68833279D01*
X147881663Y-68835833D01*
X147881663Y-68835833D01*
G37*
X147881663Y-68835833D02*
X147919850Y-68838048D01*
X147977886Y-68839784D01*
X148051180Y-68840899D01*
X148128055Y-68841257D01*
X148388196Y-68841257D01*
X148434127Y-68795326D01*
X148462429Y-68763675D01*
X148473893Y-68735890D01*
X148473168Y-68697915D01*
X148471321Y-68682840D01*
X148465948Y-68635726D01*
X148462869Y-68596756D01*
X148462585Y-68587257D01*
X148464445Y-68555233D01*
X148469114Y-68509432D01*
X148471321Y-68491674D01*
X148474735Y-68448057D01*
X148467320Y-68418745D01*
X148444427Y-68389680D01*
X148434127Y-68379188D01*
X148388196Y-68333257D01*
X147901602Y-68333257D01*
X147884758Y-68370226D01*
X147872282Y-68402059D01*
X147867914Y-68420683D01*
X147881718Y-68425458D01*
X147920286Y-68429921D01*
X147979356Y-68433775D01*
X148054663Y-68436722D01*
X148118286Y-68438143D01*
X148368657Y-68442114D01*
X148373556Y-68476759D01*
X148370131Y-68508268D01*
X148359041Y-68523708D01*
X148338308Y-68528023D01*
X148294145Y-68531708D01*
X148232146Y-68534469D01*
X148157909Y-68536012D01*
X148119706Y-68536235D01*
X147899783Y-68536457D01*
X147883849Y-68582166D01*
X147873015Y-68614518D01*
X147867962Y-68632115D01*
X147867914Y-68632623D01*
X147881648Y-68634388D01*
X147919730Y-68636329D01*
X147977482Y-68638282D01*
X148050227Y-68640084D01*
X148118286Y-68641343D01*
X148368657Y-68645314D01*
X148368657Y-68732400D01*
X148140240Y-68736396D01*
X147911822Y-68740392D01*
X147889868Y-68782847D01*
X147874793Y-68814192D01*
X147867951Y-68832744D01*
X147867914Y-68833279D01*
X147881663Y-68835833D01*
G36*
X147988358Y-68246117D02*
X148096837Y-68245933D01*
X148180287Y-68245219D01*
X148242704Y-68243675D01*
X148288085Y-68241001D01*
X148320429Y-68236894D01*
X148343733Y-68231055D01*
X148361995Y-68223182D01*
X148372418Y-68217221D01*
X148428945Y-68167855D01*
X148464377Y-68105264D01*
X148477090Y-68036013D01*
X148465463Y-67966668D01*
X148444568Y-67925375D01*
X148408422Y-67882025D01*
X148364276Y-67852481D01*
X148306462Y-67834655D01*
X148229313Y-67826463D01*
X148172714Y-67825302D01*
X148168647Y-67825458D01*
X148168647Y-67926857D01*
X148233550Y-67927476D01*
X148276514Y-67930314D01*
X148304622Y-67936840D01*
X148324953Y-67948523D01*
X148340288Y-67962483D01*
X148369890Y-68009365D01*
X148372419Y-68059701D01*
X148347705Y-68107276D01*
X148344356Y-68110979D01*
X148326935Y-68126783D01*
X148306209Y-68136693D01*
X148275362Y-68142058D01*
X148227577Y-68144228D01*
X148174748Y-68144571D01*
X148108381Y-68143827D01*
X148064106Y-68140748D01*
X148035009Y-68134061D01*
X148014173Y-68122496D01*
X148003107Y-68113013D01*
X147975198Y-68068960D01*
X147971843Y-68018224D01*
X147993159Y-67969796D01*
X148001073Y-67960450D01*
X148018647Y-67944540D01*
X148039587Y-67934610D01*
X148070782Y-67929278D01*
X148119122Y-67927163D01*
X148168647Y-67926857D01*
X148168647Y-67825458D01*
X148081568Y-67828810D01*
X148013086Y-67840726D01*
X147961600Y-67863135D01*
X147921443Y-67898124D01*
X147900861Y-67925375D01*
X147878625Y-67974907D01*
X147868304Y-68032316D01*
X147871067Y-68085682D01*
X147882212Y-68115543D01*
X147885383Y-68127261D01*
X147873557Y-68135037D01*
X147841866Y-68140465D01*
X147793593Y-68144571D01*
X147739829Y-68149067D01*
X147707482Y-68155313D01*
X147688985Y-68166676D01*
X147676770Y-68186528D01*
X147671362Y-68199000D01*
X147651601Y-68246171D01*
X147988358Y-68246117D01*
X147988358Y-68246117D01*
G37*
X147988358Y-68246117D02*
X148096837Y-68245933D01*
X148180287Y-68245219D01*
X148242704Y-68243675D01*
X148288085Y-68241001D01*
X148320429Y-68236894D01*
X148343733Y-68231055D01*
X148361995Y-68223182D01*
X148372418Y-68217221D01*
X148428945Y-68167855D01*
X148464377Y-68105264D01*
X148477090Y-68036013D01*
X148465463Y-67966668D01*
X148444568Y-67925375D01*
X148408422Y-67882025D01*
X148364276Y-67852481D01*
X148306462Y-67834655D01*
X148229313Y-67826463D01*
X148172714Y-67825302D01*
X148168647Y-67825458D01*
X148168647Y-67926857D01*
X148233550Y-67927476D01*
X148276514Y-67930314D01*
X148304622Y-67936840D01*
X148324953Y-67948523D01*
X148340288Y-67962483D01*
X148369890Y-68009365D01*
X148372419Y-68059701D01*
X148347705Y-68107276D01*
X148344356Y-68110979D01*
X148326935Y-68126783D01*
X148306209Y-68136693D01*
X148275362Y-68142058D01*
X148227577Y-68144228D01*
X148174748Y-68144571D01*
X148108381Y-68143827D01*
X148064106Y-68140748D01*
X148035009Y-68134061D01*
X148014173Y-68122496D01*
X148003107Y-68113013D01*
X147975198Y-68068960D01*
X147971843Y-68018224D01*
X147993159Y-67969796D01*
X148001073Y-67960450D01*
X148018647Y-67944540D01*
X148039587Y-67934610D01*
X148070782Y-67929278D01*
X148119122Y-67927163D01*
X148168647Y-67926857D01*
X148168647Y-67825458D01*
X148081568Y-67828810D01*
X148013086Y-67840726D01*
X147961600Y-67863135D01*
X147921443Y-67898124D01*
X147900861Y-67925375D01*
X147878625Y-67974907D01*
X147868304Y-68032316D01*
X147871067Y-68085682D01*
X147882212Y-68115543D01*
X147885383Y-68127261D01*
X147873557Y-68135037D01*
X147841866Y-68140465D01*
X147793593Y-68144571D01*
X147739829Y-68149067D01*
X147707482Y-68155313D01*
X147688985Y-68166676D01*
X147676770Y-68186528D01*
X147671362Y-68199000D01*
X147651601Y-68246171D01*
X147988358Y-68246117D01*
G36*
X147872755Y-67585926D02*
X147897084Y-67651858D01*
X147940117Y-67705273D01*
X147970409Y-67726164D01*
X148025994Y-67748939D01*
X148066186Y-67748466D01*
X148093217Y-67724562D01*
X148097813Y-67715717D01*
X148112144Y-67677530D01*
X148108472Y-67658028D01*
X148084407Y-67651422D01*
X148071114Y-67651086D01*
X148022210Y-67638992D01*
X147987999Y-67607471D01*
X147971476Y-67563659D01*
X147975634Y-67514695D01*
X147997227Y-67474894D01*
X148009544Y-67461450D01*
X148024487Y-67451921D01*
X148047075Y-67445485D01*
X148082328Y-67441317D01*
X148135266Y-67438597D01*
X148210907Y-67436502D01*
X148234857Y-67435960D01*
X148316790Y-67433981D01*
X148374455Y-67431731D01*
X148412608Y-67428357D01*
X148436004Y-67423006D01*
X148449398Y-67414824D01*
X148457545Y-67402959D01*
X148461144Y-67395362D01*
X148473452Y-67363102D01*
X148477514Y-67344111D01*
X148463948Y-67337836D01*
X148422934Y-67334006D01*
X148353999Y-67332600D01*
X148256669Y-67333598D01*
X148241657Y-67333908D01*
X148152859Y-67336101D01*
X148088019Y-67338693D01*
X148042067Y-67342382D01*
X148009935Y-67347864D01*
X147986553Y-67355835D01*
X147966852Y-67366993D01*
X147958410Y-67372830D01*
X147921057Y-67406296D01*
X147892003Y-67443727D01*
X147889467Y-67448309D01*
X147869443Y-67515426D01*
X147872755Y-67585926D01*
X147872755Y-67585926D01*
G37*
X147872755Y-67585926D02*
X147897084Y-67651858D01*
X147940117Y-67705273D01*
X147970409Y-67726164D01*
X148025994Y-67748939D01*
X148066186Y-67748466D01*
X148093217Y-67724562D01*
X148097813Y-67715717D01*
X148112144Y-67677530D01*
X148108472Y-67658028D01*
X148084407Y-67651422D01*
X148071114Y-67651086D01*
X148022210Y-67638992D01*
X147987999Y-67607471D01*
X147971476Y-67563659D01*
X147975634Y-67514695D01*
X147997227Y-67474894D01*
X148009544Y-67461450D01*
X148024487Y-67451921D01*
X148047075Y-67445485D01*
X148082328Y-67441317D01*
X148135266Y-67438597D01*
X148210907Y-67436502D01*
X148234857Y-67435960D01*
X148316790Y-67433981D01*
X148374455Y-67431731D01*
X148412608Y-67428357D01*
X148436004Y-67423006D01*
X148449398Y-67414824D01*
X148457545Y-67402959D01*
X148461144Y-67395362D01*
X148473452Y-67363102D01*
X148477514Y-67344111D01*
X148463948Y-67337836D01*
X148422934Y-67334006D01*
X148353999Y-67332600D01*
X148256669Y-67333598D01*
X148241657Y-67333908D01*
X148152859Y-67336101D01*
X148088019Y-67338693D01*
X148042067Y-67342382D01*
X148009935Y-67347864D01*
X147986553Y-67355835D01*
X147966852Y-67366993D01*
X147958410Y-67372830D01*
X147921057Y-67406296D01*
X147892003Y-67443727D01*
X147889467Y-67448309D01*
X147869443Y-67515426D01*
X147872755Y-67585926D01*
G36*
X147873968Y-67095744D02*
X147895087Y-67152616D01*
X147895493Y-67153267D01*
X147921380Y-67188440D01*
X147951633Y-67214407D01*
X147991058Y-67232670D01*
X148044462Y-67244732D01*
X148116651Y-67252096D01*
X148212432Y-67256264D01*
X148226078Y-67256629D01*
X148431842Y-67261876D01*
X148454678Y-67217716D01*
X148470110Y-67185763D01*
X148477423Y-67166470D01*
X148477514Y-67165578D01*
X148464022Y-67162239D01*
X148427626Y-67159587D01*
X148374452Y-67157956D01*
X148331393Y-67157600D01*
X148261641Y-67157592D01*
X148217837Y-67154403D01*
X148196944Y-67143288D01*
X148195925Y-67119501D01*
X148211741Y-67078296D01*
X148240815Y-67016086D01*
X148264963Y-66970341D01*
X148285913Y-66946813D01*
X148308747Y-66939896D01*
X148309877Y-66939886D01*
X148349212Y-66951299D01*
X148370462Y-66985092D01*
X148373539Y-67036809D01*
X148373006Y-67074061D01*
X148383735Y-67093703D01*
X148409505Y-67105952D01*
X148442337Y-67113002D01*
X148460966Y-67102842D01*
X148463632Y-67099017D01*
X148474340Y-67063001D01*
X148475856Y-67012566D01*
X148468759Y-66960626D01*
X148455788Y-66923822D01*
X148412585Y-66872938D01*
X148352446Y-66844014D01*
X148305462Y-66838286D01*
X148263082Y-66842657D01*
X148228488Y-66858475D01*
X148197763Y-66889797D01*
X148166990Y-66940678D01*
X148132252Y-67015176D01*
X148130288Y-67019714D01*
X148099287Y-67086821D01*
X148073862Y-67128232D01*
X148051014Y-67145981D01*
X148027745Y-67142107D01*
X148001056Y-67118643D01*
X147994914Y-67111627D01*
X147971100Y-67064630D01*
X147972103Y-67015933D01*
X147995451Y-66973522D01*
X148038675Y-66945384D01*
X148047160Y-66942769D01*
X148088308Y-66917308D01*
X148108128Y-66885001D01*
X148127770Y-66838286D01*
X148076950Y-66838286D01*
X148003082Y-66852496D01*
X147935327Y-66894675D01*
X147912661Y-66916624D01*
X147883569Y-66966517D01*
X147870400Y-67029967D01*
X147873968Y-67095744D01*
X147873968Y-67095744D01*
G37*
X147873968Y-67095744D02*
X147895087Y-67152616D01*
X147895493Y-67153267D01*
X147921380Y-67188440D01*
X147951633Y-67214407D01*
X147991058Y-67232670D01*
X148044462Y-67244732D01*
X148116651Y-67252096D01*
X148212432Y-67256264D01*
X148226078Y-67256629D01*
X148431842Y-67261876D01*
X148454678Y-67217716D01*
X148470110Y-67185763D01*
X148477423Y-67166470D01*
X148477514Y-67165578D01*
X148464022Y-67162239D01*
X148427626Y-67159587D01*
X148374452Y-67157956D01*
X148331393Y-67157600D01*
X148261641Y-67157592D01*
X148217837Y-67154403D01*
X148196944Y-67143288D01*
X148195925Y-67119501D01*
X148211741Y-67078296D01*
X148240815Y-67016086D01*
X148264963Y-66970341D01*
X148285913Y-66946813D01*
X148308747Y-66939896D01*
X148309877Y-66939886D01*
X148349212Y-66951299D01*
X148370462Y-66985092D01*
X148373539Y-67036809D01*
X148373006Y-67074061D01*
X148383735Y-67093703D01*
X148409505Y-67105952D01*
X148442337Y-67113002D01*
X148460966Y-67102842D01*
X148463632Y-67099017D01*
X148474340Y-67063001D01*
X148475856Y-67012566D01*
X148468759Y-66960626D01*
X148455788Y-66923822D01*
X148412585Y-66872938D01*
X148352446Y-66844014D01*
X148305462Y-66838286D01*
X148263082Y-66842657D01*
X148228488Y-66858475D01*
X148197763Y-66889797D01*
X148166990Y-66940678D01*
X148132252Y-67015176D01*
X148130288Y-67019714D01*
X148099287Y-67086821D01*
X148073862Y-67128232D01*
X148051014Y-67145981D01*
X148027745Y-67142107D01*
X148001056Y-67118643D01*
X147994914Y-67111627D01*
X147971100Y-67064630D01*
X147972103Y-67015933D01*
X147995451Y-66973522D01*
X148038675Y-66945384D01*
X148047160Y-66942769D01*
X148088308Y-66917308D01*
X148108128Y-66885001D01*
X148127770Y-66838286D01*
X148076950Y-66838286D01*
X148003082Y-66852496D01*
X147935327Y-66894675D01*
X147912661Y-66916624D01*
X147883569Y-66966517D01*
X147870400Y-67029967D01*
X147873968Y-67095744D01*
G36*
X147774289Y-66431886D02*
X147833613Y-66436139D01*
X147868572Y-66441025D01*
X147883820Y-66447795D01*
X147884015Y-66457702D01*
X147882195Y-66460914D01*
X147869015Y-66503644D01*
X147869785Y-66559227D01*
X147883333Y-66615737D01*
X147900861Y-66651082D01*
X147928861Y-66687321D01*
X147960549Y-66713813D01*
X148000813Y-66731999D01*
X148054543Y-66743322D01*
X148126626Y-66749222D01*
X148221951Y-66751143D01*
X148240237Y-66751177D01*
X148445646Y-66751200D01*
X148461580Y-66705491D01*
X148472420Y-66673027D01*
X148477468Y-66655215D01*
X148477514Y-66654691D01*
X148463828Y-66652937D01*
X148426076Y-66651444D01*
X148369224Y-66650326D01*
X148298234Y-66649697D01*
X148255073Y-66649600D01*
X148169973Y-66649398D01*
X148108981Y-66648358D01*
X148067177Y-66645831D01*
X148039642Y-66641164D01*
X148021456Y-66633707D01*
X148007698Y-66622811D01*
X148001073Y-66616007D01*
X147974375Y-66569272D01*
X147972375Y-66518272D01*
X147994955Y-66472001D01*
X148003107Y-66463444D01*
X148018436Y-66450893D01*
X148036618Y-66442188D01*
X148062909Y-66436631D01*
X148102562Y-66433526D01*
X148160832Y-66432176D01*
X148241173Y-66431886D01*
X148445646Y-66431886D01*
X148461580Y-66386177D01*
X148472420Y-66353713D01*
X148477468Y-66335901D01*
X148477514Y-66335377D01*
X148463623Y-66334037D01*
X148424439Y-66332828D01*
X148363700Y-66331801D01*
X148285141Y-66331002D01*
X148192498Y-66330481D01*
X148089509Y-66330286D01*
X147692342Y-66330286D01*
X147672444Y-66377457D01*
X147652547Y-66424629D01*
X147774289Y-66431886D01*
X147774289Y-66431886D01*
G37*
X147774289Y-66431886D02*
X147833613Y-66436139D01*
X147868572Y-66441025D01*
X147883820Y-66447795D01*
X147884015Y-66457702D01*
X147882195Y-66460914D01*
X147869015Y-66503644D01*
X147869785Y-66559227D01*
X147883333Y-66615737D01*
X147900861Y-66651082D01*
X147928861Y-66687321D01*
X147960549Y-66713813D01*
X148000813Y-66731999D01*
X148054543Y-66743322D01*
X148126626Y-66749222D01*
X148221951Y-66751143D01*
X148240237Y-66751177D01*
X148445646Y-66751200D01*
X148461580Y-66705491D01*
X148472420Y-66673027D01*
X148477468Y-66655215D01*
X148477514Y-66654691D01*
X148463828Y-66652937D01*
X148426076Y-66651444D01*
X148369224Y-66650326D01*
X148298234Y-66649697D01*
X148255073Y-66649600D01*
X148169973Y-66649398D01*
X148108981Y-66648358D01*
X148067177Y-66645831D01*
X148039642Y-66641164D01*
X148021456Y-66633707D01*
X148007698Y-66622811D01*
X148001073Y-66616007D01*
X147974375Y-66569272D01*
X147972375Y-66518272D01*
X147994955Y-66472001D01*
X148003107Y-66463444D01*
X148018436Y-66450893D01*
X148036618Y-66442188D01*
X148062909Y-66436631D01*
X148102562Y-66433526D01*
X148160832Y-66432176D01*
X148241173Y-66431886D01*
X148445646Y-66431886D01*
X148461580Y-66386177D01*
X148472420Y-66353713D01*
X148477468Y-66335901D01*
X148477514Y-66335377D01*
X148463623Y-66334037D01*
X148424439Y-66332828D01*
X148363700Y-66331801D01*
X148285141Y-66331002D01*
X148192498Y-66330481D01*
X148089509Y-66330286D01*
X147692342Y-66330286D01*
X147672444Y-66377457D01*
X147652547Y-66424629D01*
X147774289Y-66431886D01*
G36*
X147854239Y-65224303D02*
X147892735Y-65281527D01*
X147948335Y-65325749D01*
X148019086Y-65352167D01*
X148071162Y-65357510D01*
X148092893Y-65356903D01*
X148109531Y-65351822D01*
X148124437Y-65337855D01*
X148140973Y-65310589D01*
X148162498Y-65265612D01*
X148192374Y-65198511D01*
X148192524Y-65198171D01*
X148220813Y-65136407D01*
X148245933Y-65085759D01*
X148265179Y-65051404D01*
X148275848Y-65038518D01*
X148275934Y-65038514D01*
X148299166Y-65049872D01*
X148324774Y-65076431D01*
X148343221Y-65106923D01*
X148346886Y-65122370D01*
X148334212Y-65164515D01*
X148302471Y-65200808D01*
X148267572Y-65218517D01*
X148241845Y-65235552D01*
X148212546Y-65268922D01*
X148187235Y-65308149D01*
X148173471Y-65342756D01*
X148172714Y-65349993D01*
X148185160Y-65358139D01*
X148216972Y-65358630D01*
X148259866Y-65352643D01*
X148305558Y-65341357D01*
X148345761Y-65325950D01*
X148347322Y-65325171D01*
X148412062Y-65278804D01*
X148456097Y-65218711D01*
X148477711Y-65150465D01*
X148475185Y-65079638D01*
X148446804Y-65011804D01*
X148444808Y-65008788D01*
X148396448Y-64955427D01*
X148333352Y-64920340D01*
X148250387Y-64900922D01*
X148227078Y-64898316D01*
X148117055Y-64893701D01*
X148065748Y-64899233D01*
X148065748Y-65038514D01*
X148097753Y-65040324D01*
X148107093Y-65050222D01*
X148100105Y-65074898D01*
X148083587Y-65113795D01*
X148062881Y-65157275D01*
X148062333Y-65158356D01*
X148042949Y-65195209D01*
X148030013Y-65210000D01*
X148016451Y-65206353D01*
X147998632Y-65190995D01*
X147972845Y-65151923D01*
X147970950Y-65109846D01*
X147989717Y-65072103D01*
X148025915Y-65046034D01*
X148065748Y-65038514D01*
X148065748Y-64899233D01*
X148029027Y-64903194D01*
X147959212Y-64927550D01*
X147910302Y-64961456D01*
X147860878Y-65022653D01*
X147836359Y-65090063D01*
X147834797Y-65158880D01*
X147854239Y-65224303D01*
X147854239Y-65224303D01*
G37*
X147854239Y-65224303D02*
X147892735Y-65281527D01*
X147948335Y-65325749D01*
X148019086Y-65352167D01*
X148071162Y-65357510D01*
X148092893Y-65356903D01*
X148109531Y-65351822D01*
X148124437Y-65337855D01*
X148140973Y-65310589D01*
X148162498Y-65265612D01*
X148192374Y-65198511D01*
X148192524Y-65198171D01*
X148220813Y-65136407D01*
X148245933Y-65085759D01*
X148265179Y-65051404D01*
X148275848Y-65038518D01*
X148275934Y-65038514D01*
X148299166Y-65049872D01*
X148324774Y-65076431D01*
X148343221Y-65106923D01*
X148346886Y-65122370D01*
X148334212Y-65164515D01*
X148302471Y-65200808D01*
X148267572Y-65218517D01*
X148241845Y-65235552D01*
X148212546Y-65268922D01*
X148187235Y-65308149D01*
X148173471Y-65342756D01*
X148172714Y-65349993D01*
X148185160Y-65358139D01*
X148216972Y-65358630D01*
X148259866Y-65352643D01*
X148305558Y-65341357D01*
X148345761Y-65325950D01*
X148347322Y-65325171D01*
X148412062Y-65278804D01*
X148456097Y-65218711D01*
X148477711Y-65150465D01*
X148475185Y-65079638D01*
X148446804Y-65011804D01*
X148444808Y-65008788D01*
X148396448Y-64955427D01*
X148333352Y-64920340D01*
X148250387Y-64900922D01*
X148227078Y-64898316D01*
X148117055Y-64893701D01*
X148065748Y-64899233D01*
X148065748Y-65038514D01*
X148097753Y-65040324D01*
X148107093Y-65050222D01*
X148100105Y-65074898D01*
X148083587Y-65113795D01*
X148062881Y-65157275D01*
X148062333Y-65158356D01*
X148042949Y-65195209D01*
X148030013Y-65210000D01*
X148016451Y-65206353D01*
X147998632Y-65190995D01*
X147972845Y-65151923D01*
X147970950Y-65109846D01*
X147989717Y-65072103D01*
X148025915Y-65046034D01*
X148065748Y-65038514D01*
X148065748Y-64899233D01*
X148029027Y-64903194D01*
X147959212Y-64927550D01*
X147910302Y-64961456D01*
X147860878Y-65022653D01*
X147836359Y-65090063D01*
X147834797Y-65158880D01*
X147854239Y-65224303D01*
G36*
X147844962Y-64097115D02*
X147880733Y-64165145D01*
X147938301Y-64215351D01*
X147975312Y-64233185D01*
X148030882Y-64247063D01*
X148101096Y-64254167D01*
X148177727Y-64254840D01*
X148252552Y-64249427D01*
X148317342Y-64238270D01*
X148363873Y-64221714D01*
X148371887Y-64216626D01*
X148431707Y-64156355D01*
X148467535Y-64084769D01*
X148478020Y-64007092D01*
X148461810Y-63928548D01*
X148452092Y-63906689D01*
X148422143Y-63864122D01*
X148382433Y-63826763D01*
X148377397Y-63823232D01*
X148353124Y-63808881D01*
X148327178Y-63799394D01*
X148293022Y-63793790D01*
X148244119Y-63791086D01*
X148173935Y-63790299D01*
X148158200Y-63790286D01*
X148153192Y-63790322D01*
X148153192Y-63935429D01*
X148219430Y-63936273D01*
X148263386Y-63939596D01*
X148291779Y-63946583D01*
X148311325Y-63958416D01*
X148317857Y-63964457D01*
X148342680Y-63999186D01*
X148341548Y-64032903D01*
X148320016Y-64066995D01*
X148297029Y-64087329D01*
X148263478Y-64099371D01*
X148210569Y-64106134D01*
X148204399Y-64106598D01*
X148108513Y-64107752D01*
X148037299Y-64095688D01*
X147991194Y-64070570D01*
X147970635Y-64032560D01*
X147969514Y-64018992D01*
X147975152Y-63983364D01*
X147994686Y-63958994D01*
X148032042Y-63944093D01*
X148091150Y-63936875D01*
X148153192Y-63935429D01*
X148153192Y-63790322D01*
X148083413Y-63790826D01*
X148031159Y-63793096D01*
X147994949Y-63798068D01*
X147968299Y-63806713D01*
X147944722Y-63820005D01*
X147940338Y-63822943D01*
X147881249Y-63872313D01*
X147846947Y-63926109D01*
X147833331Y-63991602D01*
X147832665Y-64013842D01*
X147844962Y-64097115D01*
X147844962Y-64097115D01*
G37*
X147844962Y-64097115D02*
X147880733Y-64165145D01*
X147938301Y-64215351D01*
X147975312Y-64233185D01*
X148030882Y-64247063D01*
X148101096Y-64254167D01*
X148177727Y-64254840D01*
X148252552Y-64249427D01*
X148317342Y-64238270D01*
X148363873Y-64221714D01*
X148371887Y-64216626D01*
X148431707Y-64156355D01*
X148467535Y-64084769D01*
X148478020Y-64007092D01*
X148461810Y-63928548D01*
X148452092Y-63906689D01*
X148422143Y-63864122D01*
X148382433Y-63826763D01*
X148377397Y-63823232D01*
X148353124Y-63808881D01*
X148327178Y-63799394D01*
X148293022Y-63793790D01*
X148244119Y-63791086D01*
X148173935Y-63790299D01*
X148158200Y-63790286D01*
X148153192Y-63790322D01*
X148153192Y-63935429D01*
X148219430Y-63936273D01*
X148263386Y-63939596D01*
X148291779Y-63946583D01*
X148311325Y-63958416D01*
X148317857Y-63964457D01*
X148342680Y-63999186D01*
X148341548Y-64032903D01*
X148320016Y-64066995D01*
X148297029Y-64087329D01*
X148263478Y-64099371D01*
X148210569Y-64106134D01*
X148204399Y-64106598D01*
X148108513Y-64107752D01*
X148037299Y-64095688D01*
X147991194Y-64070570D01*
X147970635Y-64032560D01*
X147969514Y-64018992D01*
X147975152Y-63983364D01*
X147994686Y-63958994D01*
X148032042Y-63944093D01*
X148091150Y-63936875D01*
X148153192Y-63935429D01*
X148153192Y-63790322D01*
X148083413Y-63790826D01*
X148031159Y-63793096D01*
X147994949Y-63798068D01*
X147968299Y-63806713D01*
X147944722Y-63820005D01*
X147940338Y-63822943D01*
X147881249Y-63872313D01*
X147846947Y-63926109D01*
X147833331Y-63991602D01*
X147832665Y-64013842D01*
X147844962Y-64097115D01*
G36*
X147850780Y-65772093D02*
X147877723Y-65818672D01*
X147904466Y-65851057D01*
X147932484Y-65874742D01*
X147966748Y-65891059D01*
X148012227Y-65901339D01*
X148073892Y-65906914D01*
X148156711Y-65909116D01*
X148216246Y-65909371D01*
X148435391Y-65909371D01*
X148463044Y-65847686D01*
X148490697Y-65786000D01*
X148250670Y-65778743D01*
X148161028Y-65775744D01*
X148095962Y-65772598D01*
X148051026Y-65768701D01*
X148021770Y-65763447D01*
X148003748Y-65756231D01*
X147992511Y-65746450D01*
X147990079Y-65743312D01*
X147971083Y-65695761D01*
X147978600Y-65647697D01*
X147998543Y-65619086D01*
X148012675Y-65607447D01*
X148031220Y-65599391D01*
X148059334Y-65594271D01*
X148102173Y-65591441D01*
X148164895Y-65590256D01*
X148230261Y-65590057D01*
X148312268Y-65590018D01*
X148370316Y-65588614D01*
X148409465Y-65583914D01*
X148434780Y-65573987D01*
X148451323Y-65556903D01*
X148464156Y-65530732D01*
X148477491Y-65495775D01*
X148492007Y-65457596D01*
X148234389Y-65462141D01*
X148141519Y-65463971D01*
X148072889Y-65466112D01*
X148023711Y-65469181D01*
X147989198Y-65473794D01*
X147964562Y-65480568D01*
X147945016Y-65490119D01*
X147927770Y-65501634D01*
X147872680Y-65557190D01*
X147840822Y-65624980D01*
X147833191Y-65698713D01*
X147850780Y-65772093D01*
X147850780Y-65772093D01*
G37*
X147850780Y-65772093D02*
X147877723Y-65818672D01*
X147904466Y-65851057D01*
X147932484Y-65874742D01*
X147966748Y-65891059D01*
X148012227Y-65901339D01*
X148073892Y-65906914D01*
X148156711Y-65909116D01*
X148216246Y-65909371D01*
X148435391Y-65909371D01*
X148463044Y-65847686D01*
X148490697Y-65786000D01*
X148250670Y-65778743D01*
X148161028Y-65775744D01*
X148095962Y-65772598D01*
X148051026Y-65768701D01*
X148021770Y-65763447D01*
X148003748Y-65756231D01*
X147992511Y-65746450D01*
X147990079Y-65743312D01*
X147971083Y-65695761D01*
X147978600Y-65647697D01*
X147998543Y-65619086D01*
X148012675Y-65607447D01*
X148031220Y-65599391D01*
X148059334Y-65594271D01*
X148102173Y-65591441D01*
X148164895Y-65590256D01*
X148230261Y-65590057D01*
X148312268Y-65590018D01*
X148370316Y-65588614D01*
X148409465Y-65583914D01*
X148434780Y-65573987D01*
X148451323Y-65556903D01*
X148464156Y-65530732D01*
X148477491Y-65495775D01*
X148492007Y-65457596D01*
X148234389Y-65462141D01*
X148141519Y-65463971D01*
X148072889Y-65466112D01*
X148023711Y-65469181D01*
X147989198Y-65473794D01*
X147964562Y-65480568D01*
X147945016Y-65490119D01*
X147927770Y-65501634D01*
X147872680Y-65557190D01*
X147840822Y-65624980D01*
X147833191Y-65698713D01*
X147850780Y-65772093D01*
G36*
X147842918Y-64655744D02*
X147870568Y-64711201D01*
X147921480Y-64760148D01*
X147940338Y-64773629D01*
X147965015Y-64788314D01*
X147991816Y-64797842D01*
X148027587Y-64803293D01*
X148079169Y-64805747D01*
X148147267Y-64806286D01*
X148240588Y-64803852D01*
X148310657Y-64795394D01*
X148362931Y-64779174D01*
X148402869Y-64753454D01*
X148435929Y-64716497D01*
X148437886Y-64713782D01*
X148457908Y-64677360D01*
X148467815Y-64633502D01*
X148470257Y-64577724D01*
X148470257Y-64487048D01*
X148558283Y-64487010D01*
X148607308Y-64486166D01*
X148636065Y-64481024D01*
X148653311Y-64467587D01*
X148667808Y-64441858D01*
X148670769Y-64435679D01*
X148684648Y-64406764D01*
X148693414Y-64384376D01*
X148694171Y-64367729D01*
X148684023Y-64356036D01*
X148660073Y-64348510D01*
X148619426Y-64344366D01*
X148559186Y-64342815D01*
X148476455Y-64343071D01*
X148368339Y-64344349D01*
X148336000Y-64344748D01*
X148224524Y-64346185D01*
X148151603Y-64347472D01*
X148151603Y-64486971D01*
X148213499Y-64487755D01*
X148253997Y-64491240D01*
X148280708Y-64499124D01*
X148301244Y-64513105D01*
X148311260Y-64522597D01*
X148340567Y-64561404D01*
X148342952Y-64595763D01*
X148318750Y-64631216D01*
X148317857Y-64632114D01*
X148299153Y-64646539D01*
X148273732Y-64655313D01*
X148234584Y-64659739D01*
X148174697Y-64661118D01*
X148161430Y-64661143D01*
X148078901Y-64657812D01*
X148021691Y-64646969D01*
X147986766Y-64627340D01*
X147971094Y-64597650D01*
X147969514Y-64580491D01*
X147976926Y-64539766D01*
X148001330Y-64511832D01*
X148045980Y-64495017D01*
X148114130Y-64487650D01*
X148151603Y-64486971D01*
X148151603Y-64347472D01*
X148138245Y-64347708D01*
X148073333Y-64349677D01*
X148025958Y-64352450D01*
X147992290Y-64356388D01*
X147968498Y-64361849D01*
X147950753Y-64369192D01*
X147935224Y-64378777D01*
X147929381Y-64382887D01*
X147874185Y-64437405D01*
X147842890Y-64506336D01*
X147834165Y-64586072D01*
X147842918Y-64655744D01*
X147842918Y-64655744D01*
G37*
X147842918Y-64655744D02*
X147870568Y-64711201D01*
X147921480Y-64760148D01*
X147940338Y-64773629D01*
X147965015Y-64788314D01*
X147991816Y-64797842D01*
X148027587Y-64803293D01*
X148079169Y-64805747D01*
X148147267Y-64806286D01*
X148240588Y-64803852D01*
X148310657Y-64795394D01*
X148362931Y-64779174D01*
X148402869Y-64753454D01*
X148435929Y-64716497D01*
X148437886Y-64713782D01*
X148457908Y-64677360D01*
X148467815Y-64633502D01*
X148470257Y-64577724D01*
X148470257Y-64487048D01*
X148558283Y-64487010D01*
X148607308Y-64486166D01*
X148636065Y-64481024D01*
X148653311Y-64467587D01*
X148667808Y-64441858D01*
X148670769Y-64435679D01*
X148684648Y-64406764D01*
X148693414Y-64384376D01*
X148694171Y-64367729D01*
X148684023Y-64356036D01*
X148660073Y-64348510D01*
X148619426Y-64344366D01*
X148559186Y-64342815D01*
X148476455Y-64343071D01*
X148368339Y-64344349D01*
X148336000Y-64344748D01*
X148224524Y-64346185D01*
X148151603Y-64347472D01*
X148151603Y-64486971D01*
X148213499Y-64487755D01*
X148253997Y-64491240D01*
X148280708Y-64499124D01*
X148301244Y-64513105D01*
X148311260Y-64522597D01*
X148340567Y-64561404D01*
X148342952Y-64595763D01*
X148318750Y-64631216D01*
X148317857Y-64632114D01*
X148299153Y-64646539D01*
X148273732Y-64655313D01*
X148234584Y-64659739D01*
X148174697Y-64661118D01*
X148161430Y-64661143D01*
X148078901Y-64657812D01*
X148021691Y-64646969D01*
X147986766Y-64627340D01*
X147971094Y-64597650D01*
X147969514Y-64580491D01*
X147976926Y-64539766D01*
X148001330Y-64511832D01*
X148045980Y-64495017D01*
X148114130Y-64487650D01*
X148151603Y-64486971D01*
X148151603Y-64347472D01*
X148138245Y-64347708D01*
X148073333Y-64349677D01*
X148025958Y-64352450D01*
X147992290Y-64356388D01*
X147968498Y-64361849D01*
X147950753Y-64369192D01*
X147935224Y-64378777D01*
X147929381Y-64382887D01*
X147874185Y-64437405D01*
X147842890Y-64506336D01*
X147834165Y-64586072D01*
X147842918Y-64655744D01*
G36*
X148808967Y-77869986D02*
X148796412Y-77951220D01*
X148807411Y-77993875D01*
X148842829Y-78120354D01*
X148900098Y-78330273D01*
X148968515Y-78584312D01*
X148988914Y-78660625D01*
X149081672Y-78962069D01*
X149167898Y-79138439D01*
X149251272Y-79191245D01*
X149335477Y-79122001D01*
X149424194Y-78932220D01*
X149452532Y-78851125D01*
X149563270Y-78517750D01*
X149669455Y-78835250D01*
X149765008Y-79064617D01*
X149856310Y-79167071D01*
X149944109Y-79142590D01*
X150029155Y-78991154D01*
X150083639Y-78823460D01*
X150158523Y-78562171D01*
X150237487Y-78299099D01*
X150277100Y-78173063D01*
X150330910Y-78002617D01*
X150363518Y-77891631D01*
X150368000Y-77871438D01*
X150313426Y-77856124D01*
X150207258Y-77851000D01*
X150108541Y-77859694D01*
X150045950Y-77903640D01*
X150004896Y-78009629D01*
X149970792Y-78204454D01*
X149955916Y-78312604D01*
X149922461Y-78480535D01*
X149881961Y-78574060D01*
X149860090Y-78581305D01*
X149813699Y-78505966D01*
X149750852Y-78346402D01*
X149701180Y-78190611D01*
X149639187Y-78010931D01*
X149582690Y-77903832D01*
X149549487Y-77890159D01*
X149505589Y-77976822D01*
X149439979Y-78145456D01*
X149379097Y-78322701D01*
X149256750Y-78699152D01*
X149163280Y-78275076D01*
X149108798Y-78048966D01*
X149060181Y-77920957D01*
X149001760Y-77863989D01*
X148917868Y-77851000D01*
X148917749Y-77851000D01*
X148808967Y-77869986D01*
X148808967Y-77869986D01*
G37*
X148808967Y-77869986D02*
X148796412Y-77951220D01*
X148807411Y-77993875D01*
X148842829Y-78120354D01*
X148900098Y-78330273D01*
X148968515Y-78584312D01*
X148988914Y-78660625D01*
X149081672Y-78962069D01*
X149167898Y-79138439D01*
X149251272Y-79191245D01*
X149335477Y-79122001D01*
X149424194Y-78932220D01*
X149452532Y-78851125D01*
X149563270Y-78517750D01*
X149669455Y-78835250D01*
X149765008Y-79064617D01*
X149856310Y-79167071D01*
X149944109Y-79142590D01*
X150029155Y-78991154D01*
X150083639Y-78823460D01*
X150158523Y-78562171D01*
X150237487Y-78299099D01*
X150277100Y-78173063D01*
X150330910Y-78002617D01*
X150363518Y-77891631D01*
X150368000Y-77871438D01*
X150313426Y-77856124D01*
X150207258Y-77851000D01*
X150108541Y-77859694D01*
X150045950Y-77903640D01*
X150004896Y-78009629D01*
X149970792Y-78204454D01*
X149955916Y-78312604D01*
X149922461Y-78480535D01*
X149881961Y-78574060D01*
X149860090Y-78581305D01*
X149813699Y-78505966D01*
X149750852Y-78346402D01*
X149701180Y-78190611D01*
X149639187Y-78010931D01*
X149582690Y-77903832D01*
X149549487Y-77890159D01*
X149505589Y-77976822D01*
X149439979Y-78145456D01*
X149379097Y-78322701D01*
X149256750Y-78699152D01*
X149163280Y-78275076D01*
X149108798Y-78048966D01*
X149060181Y-77920957D01*
X149001760Y-77863989D01*
X148917868Y-77851000D01*
X148917749Y-77851000D01*
X148808967Y-77869986D01*
G36*
X147721282Y-77855458D02*
X147677744Y-77883917D01*
X147652715Y-77959000D01*
X147641071Y-78103331D01*
X147637692Y-78339534D01*
X147637500Y-78517750D01*
X147638510Y-78814433D01*
X147644953Y-79006741D01*
X147661951Y-79117298D01*
X147694627Y-79168727D01*
X147748103Y-79183653D01*
X147788450Y-79184500D01*
X147879942Y-79174299D01*
X147918081Y-79121216D01*
X147916881Y-78991524D01*
X147907192Y-78898750D01*
X147874984Y-78613000D01*
X148416017Y-78613000D01*
X148383809Y-78898750D01*
X148369430Y-79074121D01*
X148388058Y-79157645D01*
X148453705Y-79183046D01*
X148502551Y-79184500D01*
X148569719Y-79180041D01*
X148613257Y-79151582D01*
X148638286Y-79076499D01*
X148649930Y-78932168D01*
X148653309Y-78695965D01*
X148653500Y-78517750D01*
X148652491Y-78221066D01*
X148646048Y-78028758D01*
X148629050Y-77918201D01*
X148596374Y-77866772D01*
X148542898Y-77851846D01*
X148502551Y-77851000D01*
X148411059Y-77861200D01*
X148372920Y-77914283D01*
X148374120Y-78043975D01*
X148383809Y-78136750D01*
X148416017Y-78422500D01*
X147874984Y-78422500D01*
X147907192Y-78136750D01*
X147921571Y-77961378D01*
X147902943Y-77877854D01*
X147837296Y-77852453D01*
X147788450Y-77851000D01*
X147721282Y-77855458D01*
X147721282Y-77855458D01*
G37*
X147721282Y-77855458D02*
X147677744Y-77883917D01*
X147652715Y-77959000D01*
X147641071Y-78103331D01*
X147637692Y-78339534D01*
X147637500Y-78517750D01*
X147638510Y-78814433D01*
X147644953Y-79006741D01*
X147661951Y-79117298D01*
X147694627Y-79168727D01*
X147748103Y-79183653D01*
X147788450Y-79184500D01*
X147879942Y-79174299D01*
X147918081Y-79121216D01*
X147916881Y-78991524D01*
X147907192Y-78898750D01*
X147874984Y-78613000D01*
X148416017Y-78613000D01*
X148383809Y-78898750D01*
X148369430Y-79074121D01*
X148388058Y-79157645D01*
X148453705Y-79183046D01*
X148502551Y-79184500D01*
X148569719Y-79180041D01*
X148613257Y-79151582D01*
X148638286Y-79076499D01*
X148649930Y-78932168D01*
X148653309Y-78695965D01*
X148653500Y-78517750D01*
X148652491Y-78221066D01*
X148646048Y-78028758D01*
X148629050Y-77918201D01*
X148596374Y-77866772D01*
X148542898Y-77851846D01*
X148502551Y-77851000D01*
X148411059Y-77861200D01*
X148372920Y-77914283D01*
X148374120Y-78043975D01*
X148383809Y-78136750D01*
X148416017Y-78422500D01*
X147874984Y-78422500D01*
X147907192Y-78136750D01*
X147921571Y-77961378D01*
X147902943Y-77877854D01*
X147837296Y-77852453D01*
X147788450Y-77851000D01*
X147721282Y-77855458D01*
G36*
X146790452Y-77943131D02*
X146708022Y-78102140D01*
X146596622Y-78326192D01*
X146489307Y-78547692D01*
X146184165Y-79184500D01*
X146363145Y-79184500D01*
X146495971Y-79162007D01*
X146561367Y-79068950D01*
X146581002Y-78990118D01*
X146618458Y-78863022D01*
X146690008Y-78813643D01*
X146839564Y-78814127D01*
X146856306Y-78815493D01*
X147022572Y-78846228D01*
X147104150Y-78919291D01*
X147129504Y-78994000D01*
X147202056Y-79124275D01*
X147345307Y-79173510D01*
X147464182Y-79172725D01*
X147498212Y-79141760D01*
X147461393Y-79066108D01*
X147381901Y-78901866D01*
X147272214Y-78674841D01*
X147184815Y-78493749D01*
X146934854Y-78493749D01*
X146883931Y-78546735D01*
X146849695Y-78549500D01*
X146787527Y-78502959D01*
X146795005Y-78417132D01*
X146832634Y-78332053D01*
X146880111Y-78364513D01*
X146883338Y-78369507D01*
X146934854Y-78493749D01*
X147184815Y-78493749D01*
X147170091Y-78463242D01*
X147045648Y-78214871D01*
X146939130Y-78020069D01*
X146862958Y-77900437D01*
X146831273Y-77874060D01*
X146790452Y-77943131D01*
X146790452Y-77943131D01*
G37*
X146790452Y-77943131D02*
X146708022Y-78102140D01*
X146596622Y-78326192D01*
X146489307Y-78547692D01*
X146184165Y-79184500D01*
X146363145Y-79184500D01*
X146495971Y-79162007D01*
X146561367Y-79068950D01*
X146581002Y-78990118D01*
X146618458Y-78863022D01*
X146690008Y-78813643D01*
X146839564Y-78814127D01*
X146856306Y-78815493D01*
X147022572Y-78846228D01*
X147104150Y-78919291D01*
X147129504Y-78994000D01*
X147202056Y-79124275D01*
X147345307Y-79173510D01*
X147464182Y-79172725D01*
X147498212Y-79141760D01*
X147461393Y-79066108D01*
X147381901Y-78901866D01*
X147272214Y-78674841D01*
X147184815Y-78493749D01*
X146934854Y-78493749D01*
X146883931Y-78546735D01*
X146849695Y-78549500D01*
X146787527Y-78502959D01*
X146795005Y-78417132D01*
X146832634Y-78332053D01*
X146880111Y-78364513D01*
X146883338Y-78369507D01*
X146934854Y-78493749D01*
X147184815Y-78493749D01*
X147170091Y-78463242D01*
X147045648Y-78214871D01*
X146939130Y-78020069D01*
X146862958Y-77900437D01*
X146831273Y-77874060D01*
X146790452Y-77943131D01*
G36*
X144466929Y-78295500D02*
X144314785Y-78494835D01*
X144190482Y-78647921D01*
X144113356Y-78731356D01*
X144099738Y-78740000D01*
X144086560Y-78682142D01*
X144086246Y-78529826D01*
X144098752Y-78314933D01*
X144100346Y-78295500D01*
X144117485Y-78063562D01*
X144115989Y-77930584D01*
X144089567Y-77869128D01*
X144031926Y-77851753D01*
X143998431Y-77851000D01*
X143936459Y-77857103D01*
X143896283Y-77890469D01*
X143873189Y-77973678D01*
X143862464Y-78129314D01*
X143859392Y-78379957D01*
X143859250Y-78517750D01*
X143860709Y-78814908D01*
X143868053Y-79007594D01*
X143885738Y-79118328D01*
X143918216Y-79169628D01*
X143969942Y-79184014D01*
X143991118Y-79184500D01*
X144114545Y-79127495D01*
X144281807Y-78955297D01*
X144403868Y-78796115D01*
X144684750Y-78407731D01*
X144703656Y-78796115D01*
X144719403Y-79012639D01*
X144746787Y-79130483D01*
X144796224Y-79177959D01*
X144846531Y-79184500D01*
X144905643Y-79174179D01*
X144942310Y-79127102D01*
X144961810Y-79019094D01*
X144969420Y-78825983D01*
X144970500Y-78616747D01*
X144981417Y-78297493D01*
X145012849Y-78084206D01*
X145062822Y-77982820D01*
X145129361Y-77999272D01*
X145161600Y-78042470D01*
X145256412Y-78093591D01*
X145345001Y-78088300D01*
X145408453Y-78078458D01*
X145447767Y-78104699D01*
X145468706Y-78189926D01*
X145477029Y-78357039D01*
X145478500Y-78618944D01*
X145479986Y-78887854D01*
X145488806Y-79054315D01*
X145511506Y-79142877D01*
X145554629Y-79178087D01*
X145624721Y-79184495D01*
X145629278Y-79184500D01*
X145700129Y-79180138D01*
X145742732Y-79150867D01*
X145762056Y-79072406D01*
X145763074Y-78920472D01*
X145750754Y-78670786D01*
X145747209Y-78608421D01*
X145714363Y-78032342D01*
X145941373Y-78074930D01*
X146089014Y-78095924D01*
X146143543Y-78072714D01*
X146135278Y-77990994D01*
X146133536Y-77984258D01*
X146109113Y-77924101D01*
X146057676Y-77885379D01*
X145955151Y-77863413D01*
X145777462Y-77853522D01*
X145500535Y-77851026D01*
X145448075Y-77851000D01*
X144797463Y-77851000D01*
X144466929Y-78295500D01*
X144466929Y-78295500D01*
G37*
X144466929Y-78295500D02*
X144314785Y-78494835D01*
X144190482Y-78647921D01*
X144113356Y-78731356D01*
X144099738Y-78740000D01*
X144086560Y-78682142D01*
X144086246Y-78529826D01*
X144098752Y-78314933D01*
X144100346Y-78295500D01*
X144117485Y-78063562D01*
X144115989Y-77930584D01*
X144089567Y-77869128D01*
X144031926Y-77851753D01*
X143998431Y-77851000D01*
X143936459Y-77857103D01*
X143896283Y-77890469D01*
X143873189Y-77973678D01*
X143862464Y-78129314D01*
X143859392Y-78379957D01*
X143859250Y-78517750D01*
X143860709Y-78814908D01*
X143868053Y-79007594D01*
X143885738Y-79118328D01*
X143918216Y-79169628D01*
X143969942Y-79184014D01*
X143991118Y-79184500D01*
X144114545Y-79127495D01*
X144281807Y-78955297D01*
X144403868Y-78796115D01*
X144684750Y-78407731D01*
X144703656Y-78796115D01*
X144719403Y-79012639D01*
X144746787Y-79130483D01*
X144796224Y-79177959D01*
X144846531Y-79184500D01*
X144905643Y-79174179D01*
X144942310Y-79127102D01*
X144961810Y-79019094D01*
X144969420Y-78825983D01*
X144970500Y-78616747D01*
X144981417Y-78297493D01*
X145012849Y-78084206D01*
X145062822Y-77982820D01*
X145129361Y-77999272D01*
X145161600Y-78042470D01*
X145256412Y-78093591D01*
X145345001Y-78088300D01*
X145408453Y-78078458D01*
X145447767Y-78104699D01*
X145468706Y-78189926D01*
X145477029Y-78357039D01*
X145478500Y-78618944D01*
X145479986Y-78887854D01*
X145488806Y-79054315D01*
X145511506Y-79142877D01*
X145554629Y-79178087D01*
X145624721Y-79184495D01*
X145629278Y-79184500D01*
X145700129Y-79180138D01*
X145742732Y-79150867D01*
X145762056Y-79072406D01*
X145763074Y-78920472D01*
X145750754Y-78670786D01*
X145747209Y-78608421D01*
X145714363Y-78032342D01*
X145941373Y-78074930D01*
X146089014Y-78095924D01*
X146143543Y-78072714D01*
X146135278Y-77990994D01*
X146133536Y-77984258D01*
X146109113Y-77924101D01*
X146057676Y-77885379D01*
X145955151Y-77863413D01*
X145777462Y-77853522D01*
X145500535Y-77851026D01*
X145448075Y-77851000D01*
X144797463Y-77851000D01*
X144466929Y-78295500D01*
G36*
X143430528Y-77856540D02*
X143389301Y-77888230D01*
X143365601Y-77968670D01*
X143354586Y-78120462D01*
X143351411Y-78366207D01*
X143351250Y-78517750D01*
X143352438Y-78814539D01*
X143359228Y-79006932D01*
X143376466Y-79117531D01*
X143408992Y-79168936D01*
X143461652Y-79183749D01*
X143494125Y-79184500D01*
X143557723Y-79178959D01*
X143598950Y-79147269D01*
X143622650Y-79066829D01*
X143633665Y-78915037D01*
X143636840Y-78669292D01*
X143637000Y-78517750D01*
X143635813Y-78220960D01*
X143629023Y-78028567D01*
X143611785Y-77917968D01*
X143579259Y-77866563D01*
X143526599Y-77851750D01*
X143494125Y-77851000D01*
X143430528Y-77856540D01*
X143430528Y-77856540D01*
G37*
X143430528Y-77856540D02*
X143389301Y-77888230D01*
X143365601Y-77968670D01*
X143354586Y-78120462D01*
X143351411Y-78366207D01*
X143351250Y-78517750D01*
X143352438Y-78814539D01*
X143359228Y-79006932D01*
X143376466Y-79117531D01*
X143408992Y-79168936D01*
X143461652Y-79183749D01*
X143494125Y-79184500D01*
X143557723Y-79178959D01*
X143598950Y-79147269D01*
X143622650Y-79066829D01*
X143633665Y-78915037D01*
X143636840Y-78669292D01*
X143637000Y-78517750D01*
X143635813Y-78220960D01*
X143629023Y-78028567D01*
X143611785Y-77917968D01*
X143579259Y-77866563D01*
X143526599Y-77851750D01*
X143494125Y-77851000D01*
X143430528Y-77856540D01*
G36*
X142278311Y-77874656D02*
X142152655Y-77945785D01*
X142113000Y-78049503D01*
X142136267Y-78143778D01*
X142222526Y-78136046D01*
X142224125Y-78135377D01*
X142486580Y-78071206D01*
X142696894Y-78111299D01*
X142839671Y-78247211D01*
X142899514Y-78470495D01*
X142900400Y-78506410D01*
X142850820Y-78750644D01*
X142718018Y-78917107D01*
X142525906Y-78990833D01*
X142298394Y-78956857D01*
X142230761Y-78925555D01*
X142137578Y-78890041D01*
X142117316Y-78946873D01*
X142123811Y-79004930D01*
X142151353Y-79093046D01*
X142224121Y-79141134D01*
X142375516Y-79164955D01*
X142477708Y-79171928D01*
X142690998Y-79174098D01*
X142829824Y-79140319D01*
X142944850Y-79056372D01*
X142967250Y-79034522D01*
X143137088Y-78789243D01*
X143183489Y-78523765D01*
X143106058Y-78249361D01*
X143000629Y-78085928D01*
X142852180Y-77961413D01*
X142660616Y-77883805D01*
X142458479Y-77854441D01*
X142278311Y-77874656D01*
X142278311Y-77874656D01*
G37*
X142278311Y-77874656D02*
X142152655Y-77945785D01*
X142113000Y-78049503D01*
X142136267Y-78143778D01*
X142222526Y-78136046D01*
X142224125Y-78135377D01*
X142486580Y-78071206D01*
X142696894Y-78111299D01*
X142839671Y-78247211D01*
X142899514Y-78470495D01*
X142900400Y-78506410D01*
X142850820Y-78750644D01*
X142718018Y-78917107D01*
X142525906Y-78990833D01*
X142298394Y-78956857D01*
X142230761Y-78925555D01*
X142137578Y-78890041D01*
X142117316Y-78946873D01*
X142123811Y-79004930D01*
X142151353Y-79093046D01*
X142224121Y-79141134D01*
X142375516Y-79164955D01*
X142477708Y-79171928D01*
X142690998Y-79174098D01*
X142829824Y-79140319D01*
X142944850Y-79056372D01*
X142967250Y-79034522D01*
X143137088Y-78789243D01*
X143183489Y-78523765D01*
X143106058Y-78249361D01*
X143000629Y-78085928D01*
X142852180Y-77961413D01*
X142660616Y-77883805D01*
X142458479Y-77854441D01*
X142278311Y-77874656D01*
G36*
X141720406Y-77859658D02*
X141680274Y-77908720D01*
X141685411Y-78032813D01*
X141698040Y-78120875D01*
X141738743Y-78390750D01*
X141546580Y-78168500D01*
X141431560Y-78026390D01*
X141361974Y-77922938D01*
X141352709Y-77898625D01*
X141296063Y-77865504D01*
X141161463Y-77851024D01*
X141155104Y-77851000D01*
X140959207Y-77851000D01*
X141218787Y-78145898D01*
X141363342Y-78330371D01*
X141429837Y-78462231D01*
X141426044Y-78511023D01*
X141360092Y-78596057D01*
X141242944Y-78744263D01*
X141132461Y-78882875D01*
X140891202Y-79184500D01*
X141084172Y-79184500D01*
X141237489Y-79155585D01*
X141356912Y-79048291D01*
X141410089Y-78969388D01*
X141523857Y-78806088D01*
X141632378Y-78681645D01*
X141648017Y-78667763D01*
X141709091Y-78627698D01*
X141732684Y-78657415D01*
X141725375Y-78779039D01*
X141711965Y-78882875D01*
X141691573Y-79064072D01*
X141703755Y-79152769D01*
X141761230Y-79181902D01*
X141828465Y-79184500D01*
X141986000Y-79184500D01*
X141986000Y-77851000D01*
X141821669Y-77851000D01*
X141720406Y-77859658D01*
X141720406Y-77859658D01*
G37*
X141720406Y-77859658D02*
X141680274Y-77908720D01*
X141685411Y-78032813D01*
X141698040Y-78120875D01*
X141738743Y-78390750D01*
X141546580Y-78168500D01*
X141431560Y-78026390D01*
X141361974Y-77922938D01*
X141352709Y-77898625D01*
X141296063Y-77865504D01*
X141161463Y-77851024D01*
X141155104Y-77851000D01*
X140959207Y-77851000D01*
X141218787Y-78145898D01*
X141363342Y-78330371D01*
X141429837Y-78462231D01*
X141426044Y-78511023D01*
X141360092Y-78596057D01*
X141242944Y-78744263D01*
X141132461Y-78882875D01*
X140891202Y-79184500D01*
X141084172Y-79184500D01*
X141237489Y-79155585D01*
X141356912Y-79048291D01*
X141410089Y-78969388D01*
X141523857Y-78806088D01*
X141632378Y-78681645D01*
X141648017Y-78667763D01*
X141709091Y-78627698D01*
X141732684Y-78657415D01*
X141725375Y-78779039D01*
X141711965Y-78882875D01*
X141691573Y-79064072D01*
X141703755Y-79152769D01*
X141761230Y-79181902D01*
X141828465Y-79184500D01*
X141986000Y-79184500D01*
X141986000Y-77851000D01*
X141821669Y-77851000D01*
X141720406Y-77859658D01*
G36*
X146051034Y-73425447D02*
X146003221Y-73539933D01*
X145987210Y-73762977D01*
X145986500Y-73854779D01*
X145988576Y-74087501D01*
X146000622Y-74218031D01*
X146031369Y-74271172D01*
X146089545Y-74271724D01*
X146129375Y-74260714D01*
X146284577Y-74189279D01*
X146362099Y-74132568D01*
X146441474Y-74086097D01*
X146538612Y-74114319D01*
X146631690Y-74175255D01*
X146811433Y-74303243D01*
X146428327Y-74806511D01*
X146174609Y-75112070D01*
X145955868Y-75301834D01*
X145755733Y-75375754D01*
X145557838Y-75333776D01*
X145345812Y-75175850D01*
X145103288Y-74901926D01*
X145025928Y-74802118D01*
X144858956Y-74579562D01*
X144759799Y-74433640D01*
X144718629Y-74340480D01*
X144725621Y-74276214D01*
X144770949Y-74216971D01*
X144780808Y-74206667D01*
X144861546Y-74135522D01*
X144943163Y-74119898D01*
X145073003Y-74157831D01*
X145157745Y-74191038D01*
X145322704Y-74251011D01*
X145408143Y-74258334D01*
X145449624Y-74214077D01*
X145455443Y-74199995D01*
X145542124Y-74119474D01*
X145612294Y-74104500D01*
X145711459Y-74062921D01*
X145732500Y-74009250D01*
X145679561Y-73931678D01*
X145605500Y-73914000D01*
X145502315Y-73887407D01*
X145478500Y-73850500D01*
X145531685Y-73798907D01*
X145605500Y-73787000D01*
X145708929Y-73747295D01*
X145732500Y-73691750D01*
X145679561Y-73614178D01*
X145605500Y-73596500D01*
X145499846Y-73553894D01*
X145478500Y-73494366D01*
X145433989Y-73426752D01*
X145318972Y-73430888D01*
X145161223Y-73498088D01*
X144988516Y-73619666D01*
X144941086Y-73662435D01*
X144777143Y-73813822D01*
X144576138Y-73993094D01*
X144473777Y-74082121D01*
X144168772Y-74419580D01*
X143969857Y-74801713D01*
X143872847Y-75210202D01*
X143873555Y-75626728D01*
X143967795Y-76032975D01*
X144151379Y-76410624D01*
X144420122Y-76741357D01*
X144769837Y-77006858D01*
X145182917Y-77184875D01*
X145661818Y-77268995D01*
X146126288Y-77229635D01*
X146289917Y-77186172D01*
X146700295Y-76993308D01*
X147063305Y-76692384D01*
X147360924Y-76298904D01*
X147399424Y-76231750D01*
X147474062Y-76068573D01*
X147517605Y-75887742D01*
X147537338Y-75648374D01*
X147540858Y-75438000D01*
X147523427Y-75198923D01*
X147247965Y-75198923D01*
X147243046Y-75591634D01*
X147150271Y-75977645D01*
X146978082Y-76323094D01*
X146734920Y-76594116D01*
X146713424Y-76610981D01*
X146332842Y-76827873D01*
X145917775Y-76936196D01*
X145494185Y-76934019D01*
X145088036Y-76819410D01*
X144938601Y-76743019D01*
X144613056Y-76485477D01*
X144371953Y-76157254D01*
X144223047Y-75782923D01*
X144174091Y-75387056D01*
X144232841Y-74994226D01*
X144318706Y-74778680D01*
X144410995Y-74595611D01*
X144569924Y-74873930D01*
X144781455Y-75259147D01*
X144934764Y-75578877D01*
X145045522Y-75870923D01*
X145129395Y-76173093D01*
X145154443Y-76284258D01*
X145211516Y-76537257D01*
X145259425Y-76693462D01*
X145313698Y-76780654D01*
X145389863Y-76826617D01*
X145471122Y-76850855D01*
X145671864Y-76873139D01*
X145900725Y-76859215D01*
X145939586Y-76852463D01*
X146201761Y-76800615D01*
X146282561Y-76362820D01*
X146378249Y-75999485D01*
X146534359Y-75581791D01*
X146732271Y-75154781D01*
X146924586Y-74809747D01*
X147056669Y-74594244D01*
X147156585Y-74833377D01*
X147247965Y-75198923D01*
X147523427Y-75198923D01*
X147507663Y-74982722D01*
X147398544Y-74611198D01*
X147203109Y-74298394D01*
X146972840Y-74069568D01*
X146779661Y-73906405D01*
X146590627Y-73745581D01*
X146526250Y-73690413D01*
X146298452Y-73504979D01*
X146144745Y-73415226D01*
X146051034Y-73425447D01*
X146051034Y-73425447D01*
G37*
X146051034Y-73425447D02*
X146003221Y-73539933D01*
X145987210Y-73762977D01*
X145986500Y-73854779D01*
X145988576Y-74087501D01*
X146000622Y-74218031D01*
X146031369Y-74271172D01*
X146089545Y-74271724D01*
X146129375Y-74260714D01*
X146284577Y-74189279D01*
X146362099Y-74132568D01*
X146441474Y-74086097D01*
X146538612Y-74114319D01*
X146631690Y-74175255D01*
X146811433Y-74303243D01*
X146428327Y-74806511D01*
X146174609Y-75112070D01*
X145955868Y-75301834D01*
X145755733Y-75375754D01*
X145557838Y-75333776D01*
X145345812Y-75175850D01*
X145103288Y-74901926D01*
X145025928Y-74802118D01*
X144858956Y-74579562D01*
X144759799Y-74433640D01*
X144718629Y-74340480D01*
X144725621Y-74276214D01*
X144770949Y-74216971D01*
X144780808Y-74206667D01*
X144861546Y-74135522D01*
X144943163Y-74119898D01*
X145073003Y-74157831D01*
X145157745Y-74191038D01*
X145322704Y-74251011D01*
X145408143Y-74258334D01*
X145449624Y-74214077D01*
X145455443Y-74199995D01*
X145542124Y-74119474D01*
X145612294Y-74104500D01*
X145711459Y-74062921D01*
X145732500Y-74009250D01*
X145679561Y-73931678D01*
X145605500Y-73914000D01*
X145502315Y-73887407D01*
X145478500Y-73850500D01*
X145531685Y-73798907D01*
X145605500Y-73787000D01*
X145708929Y-73747295D01*
X145732500Y-73691750D01*
X145679561Y-73614178D01*
X145605500Y-73596500D01*
X145499846Y-73553894D01*
X145478500Y-73494366D01*
X145433989Y-73426752D01*
X145318972Y-73430888D01*
X145161223Y-73498088D01*
X144988516Y-73619666D01*
X144941086Y-73662435D01*
X144777143Y-73813822D01*
X144576138Y-73993094D01*
X144473777Y-74082121D01*
X144168772Y-74419580D01*
X143969857Y-74801713D01*
X143872847Y-75210202D01*
X143873555Y-75626728D01*
X143967795Y-76032975D01*
X144151379Y-76410624D01*
X144420122Y-76741357D01*
X144769837Y-77006858D01*
X145182917Y-77184875D01*
X145661818Y-77268995D01*
X146126288Y-77229635D01*
X146289917Y-77186172D01*
X146700295Y-76993308D01*
X147063305Y-76692384D01*
X147360924Y-76298904D01*
X147399424Y-76231750D01*
X147474062Y-76068573D01*
X147517605Y-75887742D01*
X147537338Y-75648374D01*
X147540858Y-75438000D01*
X147523427Y-75198923D01*
X147247965Y-75198923D01*
X147243046Y-75591634D01*
X147150271Y-75977645D01*
X146978082Y-76323094D01*
X146734920Y-76594116D01*
X146713424Y-76610981D01*
X146332842Y-76827873D01*
X145917775Y-76936196D01*
X145494185Y-76934019D01*
X145088036Y-76819410D01*
X144938601Y-76743019D01*
X144613056Y-76485477D01*
X144371953Y-76157254D01*
X144223047Y-75782923D01*
X144174091Y-75387056D01*
X144232841Y-74994226D01*
X144318706Y-74778680D01*
X144410995Y-74595611D01*
X144569924Y-74873930D01*
X144781455Y-75259147D01*
X144934764Y-75578877D01*
X145045522Y-75870923D01*
X145129395Y-76173093D01*
X145154443Y-76284258D01*
X145211516Y-76537257D01*
X145259425Y-76693462D01*
X145313698Y-76780654D01*
X145389863Y-76826617D01*
X145471122Y-76850855D01*
X145671864Y-76873139D01*
X145900725Y-76859215D01*
X145939586Y-76852463D01*
X146201761Y-76800615D01*
X146282561Y-76362820D01*
X146378249Y-75999485D01*
X146534359Y-75581791D01*
X146732271Y-75154781D01*
X146924586Y-74809747D01*
X147056669Y-74594244D01*
X147156585Y-74833377D01*
X147247965Y-75198923D01*
X147523427Y-75198923D01*
X147507663Y-74982722D01*
X147398544Y-74611198D01*
X147203109Y-74298394D01*
X146972840Y-74069568D01*
X146779661Y-73906405D01*
X146590627Y-73745581D01*
X146526250Y-73690413D01*
X146298452Y-73504979D01*
X146144745Y-73415226D01*
X146051034Y-73425447D01*
G36*
X145540753Y-74518818D02*
X145412372Y-74633325D01*
X145360998Y-74719467D01*
X145319996Y-74903860D01*
X145377163Y-75066096D01*
X145503723Y-75187867D01*
X145670903Y-75250867D01*
X145849929Y-75236789D01*
X146008409Y-75131374D01*
X146102383Y-74949547D01*
X146094282Y-74759893D01*
X145999703Y-74598214D01*
X145834238Y-74500311D01*
X145727500Y-74486472D01*
X145540753Y-74518818D01*
X145540753Y-74518818D01*
G37*
X145540753Y-74518818D02*
X145412372Y-74633325D01*
X145360998Y-74719467D01*
X145319996Y-74903860D01*
X145377163Y-75066096D01*
X145503723Y-75187867D01*
X145670903Y-75250867D01*
X145849929Y-75236789D01*
X146008409Y-75131374D01*
X146102383Y-74949547D01*
X146094282Y-74759893D01*
X145999703Y-74598214D01*
X145834238Y-74500311D01*
X145727500Y-74486472D01*
X145540753Y-74518818D01*
G36*
X146566461Y-72617002D02*
X146379143Y-72729484D01*
X146241906Y-72834778D01*
X146192028Y-72896252D01*
X146128054Y-73005957D01*
X146015364Y-73147681D01*
X145997062Y-73167875D01*
X145900627Y-73286216D01*
X145898645Y-73332115D01*
X145993906Y-73305393D01*
X146189202Y-73205867D01*
X146290309Y-73148872D01*
X146461145Y-73037534D01*
X146566398Y-72942253D01*
X146584997Y-72890308D01*
X146598863Y-72807434D01*
X146682620Y-72678987D01*
X146725689Y-72629465D01*
X146907250Y-72434752D01*
X146566461Y-72617002D01*
X146566461Y-72617002D01*
G37*
X146566461Y-72617002D02*
X146379143Y-72729484D01*
X146241906Y-72834778D01*
X146192028Y-72896252D01*
X146128054Y-73005957D01*
X146015364Y-73147681D01*
X145997062Y-73167875D01*
X145900627Y-73286216D01*
X145898645Y-73332115D01*
X145993906Y-73305393D01*
X146189202Y-73205867D01*
X146290309Y-73148872D01*
X146461145Y-73037534D01*
X146566398Y-72942253D01*
X146584997Y-72890308D01*
X146598863Y-72807434D01*
X146682620Y-72678987D01*
X146725689Y-72629465D01*
X146907250Y-72434752D01*
X146566461Y-72617002D01*
G36*
X144564979Y-72493812D02*
X144641410Y-72594546D01*
X144709582Y-72668612D01*
X144833692Y-72817105D01*
X144854109Y-72898676D01*
X144836653Y-72910865D01*
X144850757Y-72949684D01*
X144945472Y-73028359D01*
X145089400Y-73126882D01*
X145251147Y-73225245D01*
X145399317Y-73303442D01*
X145502512Y-73341466D01*
X145513985Y-73342500D01*
X145507556Y-73302820D01*
X145430255Y-73203002D01*
X145383885Y-73152662D01*
X145281135Y-73025809D01*
X145241255Y-72935026D01*
X145246627Y-72918206D01*
X145219012Y-72868427D01*
X145113280Y-72778342D01*
X144961980Y-72669950D01*
X144797662Y-72565250D01*
X144652876Y-72486240D01*
X144561169Y-72454934D01*
X144564979Y-72493812D01*
X144564979Y-72493812D01*
G37*
X144564979Y-72493812D02*
X144641410Y-72594546D01*
X144709582Y-72668612D01*
X144833692Y-72817105D01*
X144854109Y-72898676D01*
X144836653Y-72910865D01*
X144850757Y-72949684D01*
X144945472Y-73028359D01*
X145089400Y-73126882D01*
X145251147Y-73225245D01*
X145399317Y-73303442D01*
X145502512Y-73341466D01*
X145513985Y-73342500D01*
X145507556Y-73302820D01*
X145430255Y-73203002D01*
X145383885Y-73152662D01*
X145281135Y-73025809D01*
X145241255Y-72935026D01*
X145246627Y-72918206D01*
X145219012Y-72868427D01*
X145113280Y-72778342D01*
X144961980Y-72669950D01*
X144797662Y-72565250D01*
X144652876Y-72486240D01*
X144561169Y-72454934D01*
X144564979Y-72493812D01*
D12*
X136016000Y-70490000D02*
X136016000Y-66670000D01*
X136016000Y-66670000D02*
X137796000Y-66670000D01*
X137796000Y-66670000D02*
X137796000Y-70490000D01*
X136016000Y-70490000D02*
X137796000Y-70490000D01*
X137796000Y-71115000D02*
X136016000Y-71115000D01*
X136016000Y-74935000D02*
X136016000Y-71115000D01*
X137796000Y-74935000D02*
X136016000Y-74935000D01*
X137796000Y-71115000D02*
X137796000Y-74935000D01*
X140082000Y-66670000D02*
X138302000Y-66670000D01*
X138302000Y-70490000D02*
X138302000Y-66670000D01*
X140082000Y-70490000D02*
X138302000Y-70490000D01*
X140082000Y-66670000D02*
X140082000Y-70490000D01*
D13*
X154907000Y-62541000D02*
X135157000Y-62541000D01*
X135157000Y-62541000D02*
X135157000Y-58341000D01*
X135157000Y-58341000D02*
X156857000Y-58341000D01*
X156857000Y-58341000D02*
X156857000Y-61341000D01*
D12*
X151764000Y-75316000D02*
X153544000Y-75316000D01*
X153544000Y-71496000D02*
X153544000Y-75316000D01*
X151764000Y-71496000D02*
X153544000Y-71496000D01*
X151764000Y-75316000D02*
X151764000Y-71496000D01*
X155830000Y-71496000D02*
X155830000Y-75316000D01*
X155830000Y-75316000D02*
X154050000Y-75316000D01*
X154050000Y-75316000D02*
X154050000Y-71496000D01*
X155830000Y-71496000D02*
X154050000Y-71496000D01*
X154050000Y-70744000D02*
X155830000Y-70744000D01*
X155830000Y-66924000D02*
X155830000Y-70744000D01*
X154050000Y-66924000D02*
X155830000Y-66924000D01*
X154050000Y-70744000D02*
X154050000Y-66924000D01*
D14*
X142672476Y-67409190D02*
X142672476Y-66909190D01*
X142148666Y-67409190D02*
X142315333Y-67171095D01*
X142434380Y-67409190D02*
X142434380Y-66909190D01*
X142243904Y-66909190D01*
X142196285Y-66933000D01*
X142172476Y-66956809D01*
X142148666Y-67004428D01*
X142148666Y-67075857D01*
X142172476Y-67123476D01*
X142196285Y-67147285D01*
X142243904Y-67171095D01*
X142434380Y-67171095D01*
X141601047Y-67456809D02*
X141648666Y-67433000D01*
X141696285Y-67385380D01*
X141767714Y-67313952D01*
X141815333Y-67290142D01*
X141862952Y-67290142D01*
X141839142Y-67409190D02*
X141886761Y-67385380D01*
X141934380Y-67337761D01*
X141958190Y-67242523D01*
X141958190Y-67075857D01*
X141934380Y-66980619D01*
X141886761Y-66933000D01*
X141839142Y-66909190D01*
X141743904Y-66909190D01*
X141696285Y-66933000D01*
X141648666Y-66980619D01*
X141624857Y-67075857D01*
X141624857Y-67242523D01*
X141648666Y-67337761D01*
X141696285Y-67385380D01*
X141743904Y-67409190D01*
X141839142Y-67409190D01*
X141529619Y-67456809D02*
X141148666Y-67456809D01*
X140767714Y-67409190D02*
X141053428Y-67409190D01*
X140910571Y-67409190D02*
X140910571Y-66909190D01*
X140958190Y-66980619D01*
X141005809Y-67028238D01*
X141053428Y-67052047D01*
X142438333Y-64369190D02*
X142105000Y-64369190D01*
X142438333Y-64869190D01*
X142105000Y-64869190D01*
X141962142Y-64369190D02*
X141628809Y-64869190D01*
X141628809Y-64369190D02*
X141962142Y-64869190D01*
X141557380Y-64916809D02*
X141176428Y-64916809D01*
X140795476Y-64869190D02*
X141081190Y-64869190D01*
X140938333Y-64869190D02*
X140938333Y-64369190D01*
X140985952Y-64440619D01*
X141033571Y-64488238D01*
X141081190Y-64512047D01*
X142974047Y-74529190D02*
X142855000Y-75029190D01*
X142759761Y-74672047D01*
X142664523Y-75029190D01*
X142545476Y-74529190D01*
X142378809Y-74886333D02*
X142140714Y-74886333D01*
X142426428Y-75029190D02*
X142259761Y-74529190D01*
X142093095Y-75029190D01*
X141640714Y-75029190D02*
X141807380Y-74791095D01*
X141926428Y-75029190D02*
X141926428Y-74529190D01*
X141735952Y-74529190D01*
X141688333Y-74553000D01*
X141664523Y-74576809D01*
X141640714Y-74624428D01*
X141640714Y-74695857D01*
X141664523Y-74743476D01*
X141688333Y-74767285D01*
X141735952Y-74791095D01*
X141926428Y-74791095D01*
X141426428Y-75029190D02*
X141426428Y-74529190D01*
X141140714Y-75029190D01*
X141140714Y-74529190D01*
X141021666Y-75076809D02*
X140640714Y-75076809D01*
X140259761Y-75029190D02*
X140545476Y-75029190D01*
X140402619Y-75029190D02*
X140402619Y-74529190D01*
X140450238Y-74600619D01*
X140497857Y-74648238D01*
X140545476Y-74672047D01*
X142331190Y-72441571D02*
X142355000Y-72465380D01*
X142426428Y-72489190D01*
X142474047Y-72489190D01*
X142545476Y-72465380D01*
X142593095Y-72417761D01*
X142616904Y-72370142D01*
X142640714Y-72274904D01*
X142640714Y-72203476D01*
X142616904Y-72108238D01*
X142593095Y-72060619D01*
X142545476Y-72013000D01*
X142474047Y-71989190D01*
X142426428Y-71989190D01*
X142355000Y-72013000D01*
X142331190Y-72036809D01*
X141950238Y-72227285D02*
X142116904Y-72227285D01*
X142116904Y-72489190D02*
X142116904Y-71989190D01*
X141878809Y-71989190D01*
X141426428Y-72489190D02*
X141712142Y-72489190D01*
X141569285Y-72489190D02*
X141569285Y-71989190D01*
X141616904Y-72060619D01*
X141664523Y-72108238D01*
X141712142Y-72132047D01*
X141331190Y-72536809D02*
X140950238Y-72536809D01*
X140569285Y-72489190D02*
X140855000Y-72489190D01*
X140712142Y-72489190D02*
X140712142Y-71989190D01*
X140759761Y-72060619D01*
X140807380Y-72108238D01*
X140855000Y-72132047D01*
X142331190Y-69901571D02*
X142355000Y-69925380D01*
X142426428Y-69949190D01*
X142474047Y-69949190D01*
X142545476Y-69925380D01*
X142593095Y-69877761D01*
X142616904Y-69830142D01*
X142640714Y-69734904D01*
X142640714Y-69663476D01*
X142616904Y-69568238D01*
X142593095Y-69520619D01*
X142545476Y-69473000D01*
X142474047Y-69449190D01*
X142426428Y-69449190D01*
X142355000Y-69473000D01*
X142331190Y-69496809D01*
X141950238Y-69687285D02*
X142116904Y-69687285D01*
X142116904Y-69949190D02*
X142116904Y-69449190D01*
X141878809Y-69449190D01*
X141712142Y-69496809D02*
X141688333Y-69473000D01*
X141640714Y-69449190D01*
X141521666Y-69449190D01*
X141474047Y-69473000D01*
X141450238Y-69496809D01*
X141426428Y-69544428D01*
X141426428Y-69592047D01*
X141450238Y-69663476D01*
X141735952Y-69949190D01*
X141426428Y-69949190D01*
X141331190Y-69996809D02*
X140950238Y-69996809D01*
X140569285Y-69949190D02*
X140855000Y-69949190D01*
X140712142Y-69949190D02*
X140712142Y-69449190D01*
X140759761Y-69520619D01*
X140807380Y-69568238D01*
X140855000Y-69592047D01*
X151201333Y-74529190D02*
X150868000Y-74529190D01*
X151201333Y-75029190D01*
X150868000Y-75029190D01*
X150725142Y-74529190D02*
X150391809Y-75029190D01*
X150391809Y-74529190D02*
X150725142Y-75029190D01*
X150320380Y-75076809D02*
X149939428Y-75076809D01*
X149725142Y-74529190D02*
X149677523Y-74529190D01*
X149629904Y-74553000D01*
X149606095Y-74576809D01*
X149582285Y-74624428D01*
X149558476Y-74719666D01*
X149558476Y-74838714D01*
X149582285Y-74933952D01*
X149606095Y-74981571D01*
X149629904Y-75005380D01*
X149677523Y-75029190D01*
X149725142Y-75029190D01*
X149772761Y-75005380D01*
X149796571Y-74981571D01*
X149820380Y-74933952D01*
X149844190Y-74838714D01*
X149844190Y-74719666D01*
X149820380Y-74624428D01*
X149796571Y-74576809D01*
X149772761Y-74553000D01*
X149725142Y-74529190D01*
X151308476Y-72489190D02*
X151308476Y-71989190D01*
X150784666Y-72489190D02*
X150951333Y-72251095D01*
X151070380Y-72489190D02*
X151070380Y-71989190D01*
X150879904Y-71989190D01*
X150832285Y-72013000D01*
X150808476Y-72036809D01*
X150784666Y-72084428D01*
X150784666Y-72155857D01*
X150808476Y-72203476D01*
X150832285Y-72227285D01*
X150879904Y-72251095D01*
X151070380Y-72251095D01*
X150237047Y-72536809D02*
X150284666Y-72513000D01*
X150332285Y-72465380D01*
X150403714Y-72393952D01*
X150451333Y-72370142D01*
X150498952Y-72370142D01*
X150475142Y-72489190D02*
X150522761Y-72465380D01*
X150570380Y-72417761D01*
X150594190Y-72322523D01*
X150594190Y-72155857D01*
X150570380Y-72060619D01*
X150522761Y-72013000D01*
X150475142Y-71989190D01*
X150379904Y-71989190D01*
X150332285Y-72013000D01*
X150284666Y-72060619D01*
X150260857Y-72155857D01*
X150260857Y-72322523D01*
X150284666Y-72417761D01*
X150332285Y-72465380D01*
X150379904Y-72489190D01*
X150475142Y-72489190D01*
X150165619Y-72536809D02*
X149784666Y-72536809D01*
X149570380Y-71989190D02*
X149522761Y-71989190D01*
X149475142Y-72013000D01*
X149451333Y-72036809D01*
X149427523Y-72084428D01*
X149403714Y-72179666D01*
X149403714Y-72298714D01*
X149427523Y-72393952D01*
X149451333Y-72441571D01*
X149475142Y-72465380D01*
X149522761Y-72489190D01*
X149570380Y-72489190D01*
X149618000Y-72465380D01*
X149641809Y-72441571D01*
X149665619Y-72393952D01*
X149689428Y-72298714D01*
X149689428Y-72179666D01*
X149665619Y-72084428D01*
X149641809Y-72036809D01*
X149618000Y-72013000D01*
X149570380Y-71989190D01*
X151094190Y-69901571D02*
X151118000Y-69925380D01*
X151189428Y-69949190D01*
X151237047Y-69949190D01*
X151308476Y-69925380D01*
X151356095Y-69877761D01*
X151379904Y-69830142D01*
X151403714Y-69734904D01*
X151403714Y-69663476D01*
X151379904Y-69568238D01*
X151356095Y-69520619D01*
X151308476Y-69473000D01*
X151237047Y-69449190D01*
X151189428Y-69449190D01*
X151118000Y-69473000D01*
X151094190Y-69496809D01*
X150713238Y-69687285D02*
X150879904Y-69687285D01*
X150879904Y-69949190D02*
X150879904Y-69449190D01*
X150641809Y-69449190D01*
X150475142Y-69496809D02*
X150451333Y-69473000D01*
X150403714Y-69449190D01*
X150284666Y-69449190D01*
X150237047Y-69473000D01*
X150213238Y-69496809D01*
X150189428Y-69544428D01*
X150189428Y-69592047D01*
X150213238Y-69663476D01*
X150498952Y-69949190D01*
X150189428Y-69949190D01*
X150094190Y-69996809D02*
X149713238Y-69996809D01*
X149498952Y-69449190D02*
X149451333Y-69449190D01*
X149403714Y-69473000D01*
X149379904Y-69496809D01*
X149356095Y-69544428D01*
X149332285Y-69639666D01*
X149332285Y-69758714D01*
X149356095Y-69853952D01*
X149379904Y-69901571D01*
X149403714Y-69925380D01*
X149451333Y-69949190D01*
X149498952Y-69949190D01*
X149546571Y-69925380D01*
X149570380Y-69901571D01*
X149594190Y-69853952D01*
X149618000Y-69758714D01*
X149618000Y-69639666D01*
X149594190Y-69544428D01*
X149570380Y-69496809D01*
X149546571Y-69473000D01*
X149498952Y-69449190D01*
X151094190Y-67361571D02*
X151118000Y-67385380D01*
X151189428Y-67409190D01*
X151237047Y-67409190D01*
X151308476Y-67385380D01*
X151356095Y-67337761D01*
X151379904Y-67290142D01*
X151403714Y-67194904D01*
X151403714Y-67123476D01*
X151379904Y-67028238D01*
X151356095Y-66980619D01*
X151308476Y-66933000D01*
X151237047Y-66909190D01*
X151189428Y-66909190D01*
X151118000Y-66933000D01*
X151094190Y-66956809D01*
X150713238Y-67147285D02*
X150879904Y-67147285D01*
X150879904Y-67409190D02*
X150879904Y-66909190D01*
X150641809Y-66909190D01*
X150189428Y-67409190D02*
X150475142Y-67409190D01*
X150332285Y-67409190D02*
X150332285Y-66909190D01*
X150379904Y-66980619D01*
X150427523Y-67028238D01*
X150475142Y-67052047D01*
X150094190Y-67456809D02*
X149713238Y-67456809D01*
X149498952Y-66909190D02*
X149451333Y-66909190D01*
X149403714Y-66933000D01*
X149379904Y-66956809D01*
X149356095Y-67004428D01*
X149332285Y-67099666D01*
X149332285Y-67218714D01*
X149356095Y-67313952D01*
X149379904Y-67361571D01*
X149403714Y-67385380D01*
X149451333Y-67409190D01*
X149498952Y-67409190D01*
X149546571Y-67385380D01*
X149570380Y-67361571D01*
X149594190Y-67313952D01*
X149618000Y-67218714D01*
X149618000Y-67099666D01*
X149594190Y-67004428D01*
X149570380Y-66956809D01*
X149546571Y-66933000D01*
X149498952Y-66909190D01*
X151737047Y-64369190D02*
X151618000Y-64869190D01*
X151522761Y-64512047D01*
X151427523Y-64869190D01*
X151308476Y-64369190D01*
X151141809Y-64726333D02*
X150903714Y-64726333D01*
X151189428Y-64869190D02*
X151022761Y-64369190D01*
X150856095Y-64869190D01*
X150403714Y-64869190D02*
X150570380Y-64631095D01*
X150689428Y-64869190D02*
X150689428Y-64369190D01*
X150498952Y-64369190D01*
X150451333Y-64393000D01*
X150427523Y-64416809D01*
X150403714Y-64464428D01*
X150403714Y-64535857D01*
X150427523Y-64583476D01*
X150451333Y-64607285D01*
X150498952Y-64631095D01*
X150689428Y-64631095D01*
X150189428Y-64869190D02*
X150189428Y-64369190D01*
X149903714Y-64869190D01*
X149903714Y-64369190D01*
X149784666Y-64916809D02*
X149403714Y-64916809D01*
X149189428Y-64369190D02*
X149141809Y-64369190D01*
X149094190Y-64393000D01*
X149070380Y-64416809D01*
X149046571Y-64464428D01*
X149022761Y-64559666D01*
X149022761Y-64678714D01*
X149046571Y-64773952D01*
X149070380Y-64821571D01*
X149094190Y-64845380D01*
X149141809Y-64869190D01*
X149189428Y-64869190D01*
X149237047Y-64845380D01*
X149260857Y-64821571D01*
X149284666Y-64773952D01*
X149308476Y-64678714D01*
X149308476Y-64559666D01*
X149284666Y-64464428D01*
X149260857Y-64416809D01*
X149237047Y-64393000D01*
X149189428Y-64369190D01*
X137072666Y-65893190D02*
X137072666Y-66250333D01*
X137096476Y-66321761D01*
X137144095Y-66369380D01*
X137215523Y-66393190D01*
X137263142Y-66393190D01*
X136858380Y-65940809D02*
X136834571Y-65917000D01*
X136786952Y-65893190D01*
X136667904Y-65893190D01*
X136620285Y-65917000D01*
X136596476Y-65940809D01*
X136572666Y-65988428D01*
X136572666Y-66036047D01*
X136596476Y-66107476D01*
X136882190Y-66393190D01*
X136572666Y-66393190D01*
X137072666Y-75291190D02*
X137072666Y-75648333D01*
X137096476Y-75719761D01*
X137144095Y-75767380D01*
X137215523Y-75791190D01*
X137263142Y-75791190D01*
X136572666Y-75791190D02*
X136858380Y-75791190D01*
X136715523Y-75791190D02*
X136715523Y-75291190D01*
X136763142Y-75362619D01*
X136810761Y-75410238D01*
X136858380Y-75434047D01*
X139485666Y-65893190D02*
X139485666Y-66250333D01*
X139509476Y-66321761D01*
X139557095Y-66369380D01*
X139628523Y-66393190D01*
X139676142Y-66393190D01*
X139295190Y-65893190D02*
X138985666Y-65893190D01*
X139152333Y-66083666D01*
X139080904Y-66083666D01*
X139033285Y-66107476D01*
X139009476Y-66131285D01*
X138985666Y-66178904D01*
X138985666Y-66297952D01*
X139009476Y-66345571D01*
X139033285Y-66369380D01*
X139080904Y-66393190D01*
X139223761Y-66393190D01*
X139271380Y-66369380D01*
X139295190Y-66345571D01*
X155073666Y-61067190D02*
X155073666Y-61424333D01*
X155097476Y-61495761D01*
X155145095Y-61543380D01*
X155216523Y-61567190D01*
X155264142Y-61567190D01*
X154597476Y-61067190D02*
X154835571Y-61067190D01*
X154859380Y-61305285D01*
X154835571Y-61281476D01*
X154787952Y-61257666D01*
X154668904Y-61257666D01*
X154621285Y-61281476D01*
X154597476Y-61305285D01*
X154573666Y-61352904D01*
X154573666Y-61471952D01*
X154597476Y-61519571D01*
X154621285Y-61543380D01*
X154668904Y-61567190D01*
X154787952Y-61567190D01*
X154835571Y-61543380D01*
X154859380Y-61519571D01*
X152820666Y-75672190D02*
X152820666Y-76029333D01*
X152844476Y-76100761D01*
X152892095Y-76148380D01*
X152963523Y-76172190D01*
X153011142Y-76172190D01*
X152511142Y-75886476D02*
X152558761Y-75862666D01*
X152582571Y-75838857D01*
X152606380Y-75791238D01*
X152606380Y-75767428D01*
X152582571Y-75719809D01*
X152558761Y-75696000D01*
X152511142Y-75672190D01*
X152415904Y-75672190D01*
X152368285Y-75696000D01*
X152344476Y-75719809D01*
X152320666Y-75767428D01*
X152320666Y-75791238D01*
X152344476Y-75838857D01*
X152368285Y-75862666D01*
X152415904Y-75886476D01*
X152511142Y-75886476D01*
X152558761Y-75910285D01*
X152582571Y-75934095D01*
X152606380Y-75981714D01*
X152606380Y-76076952D01*
X152582571Y-76124571D01*
X152558761Y-76148380D01*
X152511142Y-76172190D01*
X152415904Y-76172190D01*
X152368285Y-76148380D01*
X152344476Y-76124571D01*
X152320666Y-76076952D01*
X152320666Y-75981714D01*
X152344476Y-75934095D01*
X152368285Y-75910285D01*
X152415904Y-75886476D01*
X155106666Y-75672190D02*
X155106666Y-76029333D01*
X155130476Y-76100761D01*
X155178095Y-76148380D01*
X155249523Y-76172190D01*
X155297142Y-76172190D01*
X154916190Y-75672190D02*
X154582857Y-75672190D01*
X154797142Y-76172190D01*
X155106666Y-66147190D02*
X155106666Y-66504333D01*
X155130476Y-66575761D01*
X155178095Y-66623380D01*
X155249523Y-66647190D01*
X155297142Y-66647190D01*
X154654285Y-66147190D02*
X154749523Y-66147190D01*
X154797142Y-66171000D01*
X154820952Y-66194809D01*
X154868571Y-66266238D01*
X154892380Y-66361476D01*
X154892380Y-66551952D01*
X154868571Y-66599571D01*
X154844761Y-66623380D01*
X154797142Y-66647190D01*
X154701904Y-66647190D01*
X154654285Y-66623380D01*
X154630476Y-66599571D01*
X154606666Y-66551952D01*
X154606666Y-66432904D01*
X154630476Y-66385285D01*
X154654285Y-66361476D01*
X154701904Y-66337666D01*
X154797142Y-66337666D01*
X154844761Y-66361476D01*
X154868571Y-66385285D01*
X154892380Y-66432904D01*
M02*
