G04 #@! TF.GenerationSoftware,KiCad,Pcbnew,(2018-01-07 revision 47989ccfc)-makepkg*
G04 #@! TF.CreationDate,2018-01-22T20:28:46+10:30*
G04 #@! TF.ProjectId,din_meter_atm90e26,64696E5F6D657465725F61746D393065,rev?*
G04 #@! TF.SameCoordinates,Original*
G04 #@! TF.FileFunction,Copper,L2,Bot,Mixed*
G04 #@! TF.FilePolarity,Positive*
%FSLAX46Y46*%
G04 Gerber Fmt 4.6, Leading zero omitted, Abs format (unit mm)*
G04 Created by KiCad (PCBNEW (2018-01-07 revision 47989ccfc)-makepkg) date 01/22/18 20:28:46*
%MOMM*%
%LPD*%
G01*
G04 APERTURE LIST*
%ADD10C,1.000000*%
%ADD11R,1.270000X0.970000*%
%ADD12R,1.575000X1.575000*%
%ADD13C,1.575000*%
%ADD14O,0.650000X0.650000*%
%ADD15R,0.650000X4.600000*%
%ADD16R,0.650000X3.600000*%
%ADD17C,0.600000*%
%ADD18C,0.250000*%
%ADD19C,0.150000*%
%ADD20C,0.300000*%
%ADD21C,0.400000*%
%ADD22C,0.200000*%
G04 APERTURE END LIST*
D10*
X138910000Y-70150000D03*
X138910000Y-68900000D03*
X138910000Y-73900000D03*
X138910000Y-72650000D03*
X138910000Y-71400000D03*
X152660000Y-70400000D03*
X152660000Y-69150000D03*
X152660000Y-67900000D03*
X152660000Y-66650000D03*
X152660000Y-65400000D03*
D11*
X137160000Y-64130000D03*
X137160000Y-65400000D03*
X137160000Y-66670000D03*
X137160000Y-71380000D03*
X137160000Y-72650000D03*
X137160000Y-73920000D03*
X139160000Y-64130000D03*
X139160000Y-65400000D03*
X139160000Y-66670000D03*
D12*
X154907000Y-61341000D03*
D13*
X152907000Y-61341000D03*
X150907000Y-61341000D03*
X148907000Y-61341000D03*
X146907000Y-61341000D03*
X144907000Y-61341000D03*
X142907000Y-61341000D03*
X140907000Y-61341000D03*
X138907000Y-61341000D03*
X136907000Y-61341000D03*
D11*
X152410000Y-75170000D03*
X152410000Y-73900000D03*
X152410000Y-72630000D03*
X154410000Y-75170000D03*
X154410000Y-73900000D03*
X154410000Y-72630000D03*
X154410000Y-67920000D03*
X154410000Y-66650000D03*
X154410000Y-65380000D03*
D14*
X136508000Y-87723000D03*
X154508000Y-87723000D03*
X153508000Y-87723000D03*
X148508000Y-87723000D03*
X145508000Y-87723000D03*
X152508000Y-87723000D03*
X149508000Y-87723000D03*
X137508000Y-87723000D03*
X151508000Y-87723000D03*
X150508000Y-87723000D03*
X144508000Y-87723000D03*
X143508000Y-87723000D03*
X142508000Y-87723000D03*
X141508000Y-87723000D03*
X140508000Y-87723000D03*
X139508000Y-87723000D03*
X138508000Y-87723000D03*
D15*
X149508000Y-85423000D03*
X148508000Y-85423000D03*
X154508000Y-85423000D03*
X153508000Y-85423000D03*
X152508000Y-85423000D03*
X151508000Y-85423000D03*
X150508000Y-85423000D03*
X145508000Y-85423000D03*
X144508000Y-85423000D03*
X143508000Y-85423000D03*
X142508000Y-85423000D03*
X141508000Y-85423000D03*
X140508000Y-85423000D03*
X139508000Y-85423000D03*
X138508000Y-85423000D03*
X137508000Y-85423000D03*
X136508000Y-85423000D03*
D16*
X135508000Y-84923000D03*
D17*
X140410000Y-65400000D03*
X144410000Y-74350000D03*
X141360000Y-75100000D03*
X141710000Y-62500000D03*
X146860000Y-69200000D03*
X146610000Y-66850000D03*
X144260000Y-70150000D03*
X144510000Y-72650000D03*
X144910000Y-66350000D03*
X146010000Y-63050000D03*
X144710000Y-70800000D03*
X144710000Y-71900000D03*
X135910000Y-72650000D03*
X138042239Y-79321293D03*
X148030586Y-78925977D03*
X142843593Y-79101660D03*
X144132000Y-80580000D03*
X145510011Y-78575967D03*
X155660000Y-70650000D03*
X151460000Y-71450000D03*
X135910000Y-68650000D03*
X138560000Y-67800000D03*
X131610000Y-59100000D03*
X136010000Y-60150000D03*
X134010000Y-62150000D03*
X160010000Y-59250000D03*
X152310000Y-59250000D03*
X145910000Y-60000000D03*
X159160000Y-74400000D03*
X159160000Y-77750000D03*
X143660000Y-73150000D03*
X140660000Y-79400000D03*
X152410000Y-79150000D03*
X149910000Y-79350000D03*
X155410000Y-77150000D03*
X135210000Y-78050000D03*
X151160000Y-74900000D03*
X154660000Y-63400000D03*
X149660000Y-63400000D03*
X140410000Y-64150000D03*
X135910000Y-64150000D03*
X135910000Y-73900000D03*
X132410000Y-64900000D03*
X132410000Y-70900000D03*
X132410000Y-75400000D03*
X147910000Y-66150000D03*
X159160000Y-63900000D03*
X159160000Y-68400000D03*
X155660000Y-75150000D03*
X155660000Y-65400000D03*
X135910000Y-65400000D03*
X147310000Y-76350000D03*
X150360000Y-74650000D03*
X144260000Y-76700000D03*
X154410000Y-68950000D03*
X137160000Y-70350000D03*
X135910000Y-66650000D03*
X155660000Y-72650000D03*
X151160000Y-73900000D03*
X155660000Y-66650000D03*
X155660000Y-73900000D03*
X147160000Y-63800000D03*
X147160000Y-64900000D03*
X147160000Y-67400000D03*
X147360000Y-68600000D03*
X151660000Y-70400000D03*
X151660000Y-69150000D03*
X151660000Y-67900000D03*
X151660000Y-66650000D03*
X151660000Y-65400000D03*
X139560000Y-80580000D03*
X136685978Y-80319685D03*
X136004000Y-80580000D03*
X141010000Y-64700000D03*
X140410000Y-66150000D03*
X139910000Y-68900000D03*
X139910000Y-70150000D03*
X139910000Y-71400000D03*
X139910000Y-72650000D03*
X139910000Y-73900000D03*
X138290000Y-80580000D03*
X131410000Y-59950000D03*
X141410000Y-79050000D03*
X152560000Y-80300000D03*
X148704000Y-80326000D03*
X157410000Y-77750000D03*
X143910005Y-78625967D03*
X151610000Y-80000000D03*
X160210000Y-62250000D03*
X161010000Y-60450000D03*
X131610000Y-62150000D03*
D18*
X139160000Y-65400000D02*
X139160000Y-66718000D01*
D19*
X140410000Y-65400000D02*
X139160000Y-65400000D01*
X144410000Y-74350000D02*
X143660000Y-75100000D01*
X143660000Y-75100000D02*
X141360000Y-75100000D01*
X141710000Y-62500000D02*
X142869000Y-61341000D01*
X142869000Y-61341000D02*
X142907000Y-61341000D01*
X146860000Y-69200000D02*
X146810000Y-69150000D01*
X146810000Y-69150000D02*
X146810000Y-67850000D01*
X146810000Y-67850000D02*
X146610000Y-67650000D01*
X146610000Y-67650000D02*
X146610000Y-66850000D01*
X144160000Y-70250000D02*
X144260000Y-70150000D01*
X144160000Y-72300000D02*
X144160000Y-70250000D01*
X144510000Y-72650000D02*
X144160000Y-72300000D01*
X146010000Y-65250000D02*
X146010000Y-63050000D01*
X144910000Y-66350000D02*
X146010000Y-65250000D01*
X144710000Y-71900000D02*
X144710000Y-70800000D01*
D18*
X137160000Y-72650000D02*
X137160000Y-73836000D01*
D19*
X137160000Y-72650000D02*
X135910000Y-72650000D01*
D20*
X140660000Y-79400000D02*
X141840000Y-80580000D01*
X141840000Y-80580000D02*
X143707736Y-80580000D01*
X143707736Y-80580000D02*
X144132000Y-80580000D01*
X155660000Y-70650000D02*
X154860000Y-71450000D01*
X154860000Y-71450000D02*
X151460000Y-71450000D01*
X135910000Y-68650000D02*
X136760000Y-67800000D01*
X136760000Y-67800000D02*
X138560000Y-67800000D01*
X136010000Y-60150000D02*
X136160000Y-60000000D01*
X159710000Y-58950000D02*
X160010000Y-59250000D01*
X152610000Y-58950000D02*
X159710000Y-58950000D01*
X152310000Y-59250000D02*
X152610000Y-58950000D01*
X136160000Y-60000000D02*
X145910000Y-60000000D01*
X151180000Y-75170000D02*
X151180000Y-74920000D01*
X151180000Y-74920000D02*
X151160000Y-74900000D01*
X140390000Y-64130000D02*
X140410000Y-64150000D01*
X139160000Y-64130000D02*
X140390000Y-64130000D01*
X135930000Y-64130000D02*
X135910000Y-64150000D01*
X137160000Y-64130000D02*
X135930000Y-64130000D01*
X135910000Y-73900000D02*
X135930000Y-73920000D01*
X135930000Y-73920000D02*
X137160000Y-73920000D01*
X152410000Y-75170000D02*
X151180000Y-75170000D01*
X151180000Y-75170000D02*
X151160000Y-75150000D01*
X154410000Y-75170000D02*
X155640000Y-75170000D01*
X155640000Y-75170000D02*
X155660000Y-75150000D01*
X155640000Y-65380000D02*
X154410000Y-65380000D01*
X155660000Y-65400000D02*
X155640000Y-65380000D01*
D18*
X137160000Y-65400000D02*
X137160000Y-64083000D01*
D19*
X135910000Y-65400000D02*
X137160000Y-65400000D01*
D20*
X151280000Y-72630000D02*
X152410000Y-72630000D01*
X150360000Y-73550000D02*
X151280000Y-72630000D01*
X150360000Y-74650000D02*
X150360000Y-73550000D01*
X146960000Y-76700000D02*
X147310000Y-76350000D01*
X144260000Y-76700000D02*
X146960000Y-76700000D01*
X154410000Y-67920000D02*
X154410000Y-68950000D01*
X137160000Y-71380000D02*
X137160000Y-70350000D01*
X135930000Y-66670000D02*
X135910000Y-66650000D01*
X137160000Y-66670000D02*
X135930000Y-66670000D01*
X137160000Y-66670000D02*
X139160000Y-66670000D01*
X154410000Y-72630000D02*
X152410000Y-72630000D01*
X154410000Y-72630000D02*
X155640000Y-72630000D01*
X155640000Y-72630000D02*
X155660000Y-72650000D01*
D18*
X152410000Y-73900000D02*
X152410000Y-72602000D01*
D19*
X151160000Y-73900000D02*
X152410000Y-73900000D01*
D18*
X154410000Y-66650000D02*
X154410000Y-65349000D01*
D19*
X154410000Y-66650000D02*
X155660000Y-66650000D01*
D18*
X154410000Y-73900000D02*
X154410000Y-75110000D01*
D19*
X155660000Y-73900000D02*
X154410000Y-73900000D01*
X147160000Y-64900000D02*
X147160000Y-63800000D01*
X147160000Y-68400000D02*
X147160000Y-67400000D01*
X147360000Y-68600000D02*
X147160000Y-68400000D01*
X151660000Y-70400000D02*
X152660000Y-70400000D01*
X151660000Y-69150000D02*
X152660000Y-69150000D01*
X152660000Y-67900000D02*
X151660000Y-67900000D01*
X151660000Y-66650000D02*
X152660000Y-66650000D01*
X151660000Y-65400000D02*
X152660000Y-65400000D01*
X138999686Y-80019686D02*
X139260001Y-80280001D01*
X136985977Y-80019686D02*
X138999686Y-80019686D01*
X136685978Y-80319685D02*
X136985977Y-80019686D01*
X139260001Y-80280001D02*
X139560000Y-80580000D01*
X136508000Y-85423000D02*
X136508000Y-81084000D01*
X136303999Y-80879999D02*
X136004000Y-80580000D01*
X136508000Y-81084000D02*
X136303999Y-80879999D01*
X141010000Y-65550000D02*
X141010000Y-64700000D01*
X140410000Y-66150000D02*
X141010000Y-65550000D01*
X139910000Y-68900000D02*
X138910000Y-68900000D01*
X139910000Y-70150000D02*
X138910000Y-70150000D01*
X138910000Y-71400000D02*
X139910000Y-71400000D01*
X139910000Y-72650000D02*
X138910000Y-72650000D01*
X139910000Y-73900000D02*
X138910000Y-73900000D01*
X138508000Y-85423000D02*
X138508000Y-80798000D01*
X138508000Y-80798000D02*
X138290000Y-80580000D01*
D20*
X131410000Y-59950000D02*
X131310000Y-60050000D01*
X131310000Y-60050000D02*
X131310000Y-60450000D01*
X130410000Y-61750000D02*
X130410000Y-61350000D01*
X130810000Y-79650000D02*
X130410000Y-79250000D01*
X130410000Y-79250000D02*
X130410000Y-62250000D01*
X130410000Y-62250000D02*
X130410000Y-61750000D01*
X135508000Y-84923000D02*
X135508000Y-82848000D01*
X134410000Y-79650000D02*
X133710000Y-79650000D01*
X135210000Y-80450000D02*
X134410000Y-79650000D01*
X135210000Y-82550000D02*
X135210000Y-80450000D01*
X135508000Y-82848000D02*
X135210000Y-82550000D01*
X133710000Y-79650000D02*
X130810000Y-79650000D01*
X136001000Y-61341000D02*
X136907000Y-61341000D01*
X135110000Y-60450000D02*
X136001000Y-61341000D01*
X131310000Y-60450000D02*
X135110000Y-60450000D01*
X130410000Y-61350000D02*
X131310000Y-60450000D01*
X136898000Y-61350000D02*
X136907000Y-61341000D01*
D19*
X148905992Y-79750990D02*
X149705002Y-80550000D01*
X142110990Y-79750990D02*
X148905992Y-79750990D01*
X152135736Y-80300000D02*
X152560000Y-80300000D01*
X149705002Y-80550000D02*
X151885736Y-80550000D01*
X151885736Y-80550000D02*
X152135736Y-80300000D01*
X141410000Y-79050000D02*
X142110990Y-79750990D01*
X153134998Y-80825002D02*
X153085002Y-80874998D01*
X157410000Y-77750000D02*
X155055404Y-77750000D01*
X155055404Y-77750000D02*
X153134998Y-79670406D01*
X153134998Y-79670406D02*
X153134998Y-80825002D01*
X149252998Y-80874998D02*
X149003999Y-80625999D01*
X153085002Y-80874998D02*
X149252998Y-80874998D01*
X149003999Y-80625999D02*
X148704000Y-80326000D01*
X151610000Y-80000000D02*
X149610966Y-78000966D01*
X144535006Y-78000966D02*
X144210004Y-78325968D01*
X144210004Y-78325968D02*
X143910005Y-78625967D01*
X149610966Y-78000966D02*
X144535006Y-78000966D01*
D21*
X153810000Y-81050000D02*
X153810000Y-81550000D01*
X153810000Y-79950000D02*
X153810000Y-81050000D01*
X152907000Y-61341000D02*
X152907000Y-60553000D01*
X160110000Y-78750000D02*
X155010000Y-78750000D01*
X160510000Y-78350000D02*
X160110000Y-78750000D01*
X160510000Y-62550000D02*
X160510000Y-78350000D01*
X160210000Y-62250000D02*
X160510000Y-62550000D01*
X156910000Y-60450000D02*
X161010000Y-60450000D01*
X156310000Y-59850000D02*
X156910000Y-60450000D01*
X153610000Y-59850000D02*
X156310000Y-59850000D01*
X152907000Y-60553000D02*
X153610000Y-59850000D01*
X155010000Y-78750000D02*
X153810000Y-79950000D01*
X153810000Y-81550000D02*
X152210000Y-81550000D01*
X148508000Y-82752000D02*
X148508000Y-85423000D01*
X148810000Y-82450000D02*
X148508000Y-82752000D01*
X151310000Y-82450000D02*
X148810000Y-82450000D01*
X152210000Y-81550000D02*
X151310000Y-82450000D01*
X152610000Y-82450000D02*
X152508000Y-82552000D01*
X154710000Y-82450000D02*
X153410000Y-82450000D01*
X153410000Y-82450000D02*
X152610000Y-82450000D01*
X154907000Y-61341000D02*
X160601000Y-61341000D01*
X152508000Y-82552000D02*
X152508000Y-85423000D01*
X154710000Y-80350000D02*
X154710000Y-81750000D01*
X155410000Y-79650000D02*
X154710000Y-80350000D01*
X160910000Y-79650000D02*
X155410000Y-79650000D01*
X161410000Y-79150000D02*
X160910000Y-79650000D01*
X161410000Y-62150000D02*
X161410000Y-79150000D01*
X160601000Y-61341000D02*
X161410000Y-62150000D01*
X154710000Y-81750000D02*
X154710000Y-82450000D01*
D20*
X142508000Y-85423000D02*
X142508000Y-82565996D01*
X131010000Y-71067996D02*
X131010000Y-62150000D01*
X142508000Y-82565996D02*
X131010000Y-71067996D01*
X131610000Y-62150000D02*
X131010000Y-62150000D01*
X131010000Y-62150000D02*
X131010000Y-61650000D01*
X136410000Y-62550000D02*
X137698000Y-62550000D01*
X134910000Y-61050000D02*
X136410000Y-62550000D01*
X131610000Y-61050000D02*
X134910000Y-61050000D01*
X131010000Y-61650000D02*
X131610000Y-61050000D01*
X137698000Y-62550000D02*
X138907000Y-61341000D01*
D22*
G36*
X136091802Y-62868198D02*
X136237792Y-62965746D01*
X136410000Y-63000000D01*
X137698000Y-63000000D01*
X137870208Y-62965746D01*
X138016198Y-62868198D01*
X138524639Y-62359757D01*
X138689734Y-62428310D01*
X139122368Y-62428688D01*
X139522214Y-62263475D01*
X139828400Y-61957823D01*
X139906988Y-61768561D01*
X139984525Y-61956214D01*
X140290177Y-62262400D01*
X140689734Y-62428310D01*
X141110062Y-62428677D01*
X141109896Y-62618824D01*
X141201048Y-62839429D01*
X141369683Y-63008359D01*
X141590129Y-63099896D01*
X141828824Y-63100104D01*
X142049429Y-63008952D01*
X142218359Y-62840317D01*
X142309896Y-62619871D01*
X142310061Y-62430269D01*
X142422843Y-62317487D01*
X142689734Y-62428310D01*
X143122368Y-62428688D01*
X143522214Y-62263475D01*
X143828400Y-61957823D01*
X143906988Y-61768561D01*
X143984525Y-61956214D01*
X144290177Y-62262400D01*
X144689734Y-62428310D01*
X145122368Y-62428688D01*
X145522214Y-62263475D01*
X145828400Y-61957823D01*
X145906988Y-61768561D01*
X145984525Y-61956214D01*
X146290177Y-62262400D01*
X146689734Y-62428310D01*
X147122368Y-62428688D01*
X147522214Y-62263475D01*
X147828400Y-61957823D01*
X147906988Y-61768561D01*
X147984525Y-61956214D01*
X148290177Y-62262400D01*
X148689734Y-62428310D01*
X149122368Y-62428688D01*
X149522214Y-62263475D01*
X149828400Y-61957823D01*
X149906988Y-61768561D01*
X149984525Y-61956214D01*
X150290177Y-62262400D01*
X150689734Y-62428310D01*
X151122368Y-62428688D01*
X151522214Y-62263475D01*
X151786196Y-61999953D01*
X151814874Y-62069358D01*
X152176737Y-62431853D01*
X152649777Y-62628276D01*
X153161976Y-62628723D01*
X153635358Y-62433126D01*
X153687153Y-62381422D01*
X153759020Y-62488980D01*
X153924410Y-62599489D01*
X154119500Y-62638295D01*
X155694500Y-62638295D01*
X155889590Y-62599489D01*
X156054980Y-62488980D01*
X156165489Y-62323590D01*
X156204295Y-62128500D01*
X156204295Y-62041000D01*
X159430557Y-62041000D01*
X159410139Y-62090172D01*
X159409861Y-62408432D01*
X159531397Y-62702572D01*
X159756245Y-62927812D01*
X159810000Y-62950133D01*
X159810000Y-78050000D01*
X157935100Y-78050000D01*
X158009896Y-77869871D01*
X158010104Y-77631176D01*
X157918952Y-77410571D01*
X157750317Y-77241641D01*
X157529871Y-77150104D01*
X157291176Y-77149896D01*
X157070571Y-77241048D01*
X156936385Y-77375000D01*
X155055404Y-77375000D01*
X154911897Y-77403545D01*
X154790239Y-77484835D01*
X152869833Y-79405241D01*
X152788543Y-79526899D01*
X152764078Y-79649896D01*
X152759998Y-79670406D01*
X152759998Y-79733376D01*
X152679871Y-79700104D01*
X152441176Y-79699896D01*
X152220571Y-79791048D01*
X152186795Y-79824765D01*
X152118952Y-79660571D01*
X151950317Y-79491641D01*
X151729871Y-79400104D01*
X151540269Y-79399939D01*
X149876131Y-77735801D01*
X149754473Y-77654511D01*
X149610966Y-77625966D01*
X144535006Y-77625966D01*
X144391499Y-77654511D01*
X144269841Y-77735801D01*
X143979615Y-78026027D01*
X143791181Y-78025863D01*
X143570576Y-78117015D01*
X143401646Y-78285650D01*
X143310109Y-78506096D01*
X143309901Y-78744791D01*
X143401053Y-78965396D01*
X143569688Y-79134326D01*
X143790134Y-79225863D01*
X144028829Y-79226071D01*
X144249434Y-79134919D01*
X144418364Y-78966284D01*
X144509901Y-78745838D01*
X144510066Y-78556236D01*
X144690336Y-78375966D01*
X149455636Y-78375966D01*
X151010060Y-79930390D01*
X151009896Y-80118824D01*
X151033107Y-80175000D01*
X149860332Y-80175000D01*
X149171157Y-79485825D01*
X149049499Y-79404535D01*
X148905992Y-79375990D01*
X142266320Y-79375990D01*
X142009940Y-79119610D01*
X142010104Y-78931176D01*
X141918952Y-78710571D01*
X141750317Y-78541641D01*
X141529871Y-78450104D01*
X141291176Y-78449896D01*
X141070571Y-78541048D01*
X140901641Y-78709683D01*
X140810104Y-78930129D01*
X140809896Y-79168824D01*
X140901048Y-79389429D01*
X141069683Y-79558359D01*
X141290129Y-79649896D01*
X141479731Y-79650061D01*
X141845825Y-80016155D01*
X141967484Y-80097445D01*
X142110990Y-80125990D01*
X146419680Y-80125990D01*
X145911835Y-80633835D01*
X145830545Y-80755493D01*
X145804437Y-80886746D01*
X145802000Y-80899000D01*
X145802000Y-80988000D01*
X141566400Y-80988000D01*
X137397224Y-76818824D01*
X143659896Y-76818824D01*
X143751048Y-77039429D01*
X143919683Y-77208359D01*
X144140129Y-77299896D01*
X144378824Y-77300104D01*
X144599429Y-77208952D01*
X144658484Y-77150000D01*
X146960000Y-77150000D01*
X147132208Y-77115746D01*
X147278198Y-77018198D01*
X147346364Y-76950032D01*
X147428824Y-76950104D01*
X147649429Y-76858952D01*
X147818359Y-76690317D01*
X147909896Y-76469871D01*
X147910104Y-76231176D01*
X147818952Y-76010571D01*
X147650317Y-75841641D01*
X147429871Y-75750104D01*
X147191176Y-75749896D01*
X146970571Y-75841048D01*
X146801641Y-76009683D01*
X146710104Y-76230129D01*
X146710087Y-76250000D01*
X144658574Y-76250000D01*
X144600317Y-76191641D01*
X144379871Y-76100104D01*
X144141176Y-76099896D01*
X143920571Y-76191048D01*
X143751641Y-76359683D01*
X143660104Y-76580129D01*
X143659896Y-76818824D01*
X137397224Y-76818824D01*
X135797224Y-75218824D01*
X140759896Y-75218824D01*
X140851048Y-75439429D01*
X141019683Y-75608359D01*
X141240129Y-75699896D01*
X141478824Y-75700104D01*
X141699429Y-75608952D01*
X141833615Y-75475000D01*
X143660000Y-75475000D01*
X143803507Y-75446455D01*
X143925165Y-75365165D01*
X143945330Y-75345000D01*
X151475000Y-75345000D01*
X151475000Y-75714673D01*
X151520672Y-75824936D01*
X151605063Y-75909328D01*
X151715326Y-75955000D01*
X152235000Y-75955000D01*
X152310000Y-75880000D01*
X152310000Y-75270000D01*
X152510000Y-75270000D01*
X152510000Y-75880000D01*
X152585000Y-75955000D01*
X153104674Y-75955000D01*
X153214937Y-75909328D01*
X153299328Y-75824936D01*
X153345000Y-75714673D01*
X153345000Y-75345000D01*
X153270000Y-75270000D01*
X152510000Y-75270000D01*
X152310000Y-75270000D01*
X151550000Y-75270000D01*
X151475000Y-75345000D01*
X143945330Y-75345000D01*
X144340390Y-74949940D01*
X144528824Y-74950104D01*
X144749429Y-74858952D01*
X144839714Y-74768824D01*
X149759896Y-74768824D01*
X149851048Y-74989429D01*
X150019683Y-75158359D01*
X150240129Y-75249896D01*
X150478824Y-75250104D01*
X150699429Y-75158952D01*
X150868359Y-74990317D01*
X150959896Y-74769871D01*
X150960104Y-74531176D01*
X150927929Y-74453307D01*
X151040129Y-74499896D01*
X151278824Y-74500104D01*
X151475827Y-74418704D01*
X151492407Y-74502054D01*
X151513182Y-74533147D01*
X151475000Y-74625327D01*
X151475000Y-74995000D01*
X151550000Y-75070000D01*
X152310000Y-75070000D01*
X152310000Y-75050000D01*
X152510000Y-75050000D01*
X152510000Y-75070000D01*
X153270000Y-75070000D01*
X153345000Y-74995000D01*
X153345000Y-74625327D01*
X153306818Y-74533147D01*
X153327593Y-74502054D01*
X153350877Y-74385000D01*
X153350877Y-73415000D01*
X153327593Y-73297946D01*
X153305580Y-73265000D01*
X153327593Y-73232054D01*
X153350877Y-73115000D01*
X153350877Y-73080000D01*
X153469123Y-73080000D01*
X153469123Y-73115000D01*
X153492407Y-73232054D01*
X153514420Y-73265000D01*
X153492407Y-73297946D01*
X153469123Y-73415000D01*
X153469123Y-74385000D01*
X153492407Y-74502054D01*
X153513182Y-74533147D01*
X153475000Y-74625327D01*
X153475000Y-74995000D01*
X153550000Y-75070000D01*
X153985000Y-75070000D01*
X153985000Y-75110000D01*
X154016826Y-75270000D01*
X153550000Y-75270000D01*
X153475000Y-75345000D01*
X153475000Y-75714673D01*
X153520672Y-75824936D01*
X153605063Y-75909328D01*
X153715326Y-75955000D01*
X154235000Y-75955000D01*
X154310000Y-75880000D01*
X154310000Y-75515109D01*
X154410000Y-75535000D01*
X154510000Y-75515109D01*
X154510000Y-75880000D01*
X154585000Y-75955000D01*
X155104674Y-75955000D01*
X155214937Y-75909328D01*
X155299328Y-75824936D01*
X155345000Y-75714673D01*
X155345000Y-75345000D01*
X155270000Y-75270000D01*
X154803174Y-75270000D01*
X154835000Y-75110000D01*
X154835000Y-75070000D01*
X155270000Y-75070000D01*
X155345000Y-74995000D01*
X155345000Y-74625327D01*
X155306818Y-74533147D01*
X155327593Y-74502054D01*
X155344205Y-74418541D01*
X155540129Y-74499896D01*
X155778824Y-74500104D01*
X155999429Y-74408952D01*
X156168359Y-74240317D01*
X156259896Y-74019871D01*
X156260104Y-73781176D01*
X156168952Y-73560571D01*
X156000317Y-73391641D01*
X155779871Y-73300104D01*
X155541176Y-73299896D01*
X155344173Y-73381296D01*
X155327593Y-73297946D01*
X155305580Y-73265000D01*
X155327593Y-73232054D01*
X155340530Y-73167016D01*
X155540129Y-73249896D01*
X155778824Y-73250104D01*
X155999429Y-73158952D01*
X156168359Y-72990317D01*
X156259896Y-72769871D01*
X156260104Y-72531176D01*
X156168952Y-72310571D01*
X156000317Y-72141641D01*
X155779871Y-72050104D01*
X155541176Y-72049896D01*
X155347849Y-72129777D01*
X155327593Y-72027946D01*
X155261288Y-71928712D01*
X155162054Y-71862407D01*
X155045000Y-71839123D01*
X153775000Y-71839123D01*
X153657946Y-71862407D01*
X153558712Y-71928712D01*
X153492407Y-72027946D01*
X153469123Y-72145000D01*
X153469123Y-72180000D01*
X153350877Y-72180000D01*
X153350877Y-72145000D01*
X153327593Y-72027946D01*
X153261288Y-71928712D01*
X153162054Y-71862407D01*
X153045000Y-71839123D01*
X151775000Y-71839123D01*
X151657946Y-71862407D01*
X151558712Y-71928712D01*
X151492407Y-72027946D01*
X151469123Y-72145000D01*
X151469123Y-72180000D01*
X151280000Y-72180000D01*
X151107792Y-72214254D01*
X150961802Y-72311802D01*
X150041802Y-73231802D01*
X149944254Y-73377792D01*
X149910000Y-73550000D01*
X149910000Y-74251426D01*
X149851641Y-74309683D01*
X149760104Y-74530129D01*
X149759896Y-74768824D01*
X144839714Y-74768824D01*
X144918359Y-74690317D01*
X145009896Y-74469871D01*
X145010104Y-74231176D01*
X144918952Y-74010571D01*
X144750317Y-73841641D01*
X144529871Y-73750104D01*
X144291176Y-73749896D01*
X144070571Y-73841048D01*
X143901641Y-74009683D01*
X143810104Y-74230129D01*
X143809939Y-74419731D01*
X143504670Y-74725000D01*
X141833443Y-74725000D01*
X141700317Y-74591641D01*
X141479871Y-74500104D01*
X141241176Y-74499896D01*
X141020571Y-74591048D01*
X140851641Y-74759683D01*
X140760104Y-74980129D01*
X140759896Y-75218824D01*
X135797224Y-75218824D01*
X133347224Y-72768824D01*
X135309896Y-72768824D01*
X135401048Y-72989429D01*
X135569683Y-73158359D01*
X135790129Y-73249896D01*
X136028824Y-73250104D01*
X136225827Y-73168704D01*
X136242407Y-73252054D01*
X136263182Y-73283147D01*
X136225000Y-73375327D01*
X136225000Y-73745000D01*
X136300000Y-73820000D01*
X136735000Y-73820000D01*
X136735000Y-73836000D01*
X136767351Y-73998640D01*
X136781623Y-74020000D01*
X136300000Y-74020000D01*
X136225000Y-74095000D01*
X136225000Y-74464673D01*
X136270672Y-74574936D01*
X136355063Y-74659328D01*
X136465326Y-74705000D01*
X136985000Y-74705000D01*
X137060000Y-74630000D01*
X137060000Y-74241109D01*
X137160000Y-74261000D01*
X137260000Y-74241109D01*
X137260000Y-74630000D01*
X137335000Y-74705000D01*
X137854674Y-74705000D01*
X137964937Y-74659328D01*
X138049328Y-74574936D01*
X138095000Y-74464673D01*
X138095000Y-74095000D01*
X138020000Y-74020000D01*
X137538377Y-74020000D01*
X137552649Y-73998640D01*
X137585000Y-73836000D01*
X137585000Y-73820000D01*
X138020000Y-73820000D01*
X138095000Y-73745000D01*
X138095000Y-73375327D01*
X138056818Y-73283147D01*
X138077593Y-73252054D01*
X138100877Y-73135000D01*
X138100877Y-72165000D01*
X138077593Y-72047946D01*
X138055580Y-72015000D01*
X138077593Y-71982054D01*
X138100877Y-71865000D01*
X138100877Y-70895000D01*
X138077593Y-70777946D01*
X138011288Y-70678712D01*
X137912054Y-70612407D01*
X137795000Y-70589123D01*
X137710378Y-70589123D01*
X137759896Y-70469871D01*
X137760104Y-70231176D01*
X137668952Y-70010571D01*
X137500317Y-69841641D01*
X137279871Y-69750104D01*
X137041176Y-69749896D01*
X136820571Y-69841048D01*
X136651641Y-70009683D01*
X136560104Y-70230129D01*
X136559896Y-70468824D01*
X136609602Y-70589123D01*
X136525000Y-70589123D01*
X136407946Y-70612407D01*
X136308712Y-70678712D01*
X136242407Y-70777946D01*
X136219123Y-70895000D01*
X136219123Y-71865000D01*
X136242407Y-71982054D01*
X136264420Y-72015000D01*
X136242407Y-72047946D01*
X136225795Y-72131459D01*
X136029871Y-72050104D01*
X135791176Y-72049896D01*
X135570571Y-72141048D01*
X135401641Y-72309683D01*
X135310104Y-72530129D01*
X135309896Y-72768824D01*
X133347224Y-72768824D01*
X131460000Y-70881600D01*
X131460000Y-69058432D01*
X138109861Y-69058432D01*
X138231397Y-69352572D01*
X138403628Y-69525103D01*
X138232188Y-69696245D01*
X138110139Y-69990172D01*
X138109861Y-70308432D01*
X138231397Y-70602572D01*
X138403628Y-70775103D01*
X138232188Y-70946245D01*
X138110139Y-71240172D01*
X138109861Y-71558432D01*
X138231397Y-71852572D01*
X138403628Y-72025103D01*
X138232188Y-72196245D01*
X138110139Y-72490172D01*
X138109861Y-72808432D01*
X138231397Y-73102572D01*
X138403628Y-73275103D01*
X138232188Y-73446245D01*
X138110139Y-73740172D01*
X138109861Y-74058432D01*
X138231397Y-74352572D01*
X138456245Y-74577812D01*
X138750172Y-74699861D01*
X139068432Y-74700139D01*
X139362572Y-74578603D01*
X139551430Y-74390074D01*
X139569683Y-74408359D01*
X139790129Y-74499896D01*
X140028824Y-74500104D01*
X140249429Y-74408952D01*
X140418359Y-74240317D01*
X140509896Y-74019871D01*
X140510104Y-73781176D01*
X140418952Y-73560571D01*
X140250317Y-73391641D01*
X140029871Y-73300104D01*
X139791176Y-73299896D01*
X139570571Y-73391048D01*
X139551413Y-73410173D01*
X139416372Y-73274897D01*
X139551430Y-73140074D01*
X139569683Y-73158359D01*
X139790129Y-73249896D01*
X140028824Y-73250104D01*
X140249429Y-73158952D01*
X140418359Y-72990317D01*
X140509896Y-72769871D01*
X140510104Y-72531176D01*
X140418952Y-72310571D01*
X140250317Y-72141641D01*
X140029871Y-72050104D01*
X139791176Y-72049896D01*
X139570571Y-72141048D01*
X139551413Y-72160173D01*
X139416372Y-72024897D01*
X139551430Y-71890074D01*
X139569683Y-71908359D01*
X139790129Y-71999896D01*
X140028824Y-72000104D01*
X140249429Y-71908952D01*
X140418359Y-71740317D01*
X140509896Y-71519871D01*
X140510104Y-71281176D01*
X140418952Y-71060571D01*
X140250317Y-70891641D01*
X140029871Y-70800104D01*
X139791176Y-70799896D01*
X139570571Y-70891048D01*
X139551413Y-70910173D01*
X139416372Y-70774897D01*
X139551430Y-70640074D01*
X139569683Y-70658359D01*
X139790129Y-70749896D01*
X140028824Y-70750104D01*
X140249429Y-70658952D01*
X140418359Y-70490317D01*
X140509896Y-70269871D01*
X140509896Y-70268824D01*
X143659896Y-70268824D01*
X143751048Y-70489429D01*
X143785000Y-70523440D01*
X143785000Y-72300000D01*
X143813545Y-72443507D01*
X143894835Y-72565165D01*
X143910060Y-72580390D01*
X143909896Y-72768824D01*
X144001048Y-72989429D01*
X144169683Y-73158359D01*
X144390129Y-73249896D01*
X144628824Y-73250104D01*
X144849429Y-73158952D01*
X145018359Y-72990317D01*
X145109896Y-72769871D01*
X145110104Y-72531176D01*
X145056631Y-72401762D01*
X145218359Y-72240317D01*
X145309896Y-72019871D01*
X145310104Y-71781176D01*
X145218952Y-71560571D01*
X145085000Y-71426385D01*
X145085000Y-71273443D01*
X145218359Y-71140317D01*
X145309896Y-70919871D01*
X145310104Y-70681176D01*
X145218952Y-70460571D01*
X145050317Y-70291641D01*
X144859946Y-70212592D01*
X144860104Y-70031176D01*
X144768952Y-69810571D01*
X144600317Y-69641641D01*
X144379871Y-69550104D01*
X144141176Y-69549896D01*
X143920571Y-69641048D01*
X143751641Y-69809683D01*
X143660104Y-70030129D01*
X143659896Y-70268824D01*
X140509896Y-70268824D01*
X140510104Y-70031176D01*
X140418952Y-69810571D01*
X140250317Y-69641641D01*
X140029871Y-69550104D01*
X139791176Y-69549896D01*
X139570571Y-69641048D01*
X139551413Y-69660173D01*
X139416372Y-69524897D01*
X139551430Y-69390074D01*
X139569683Y-69408359D01*
X139790129Y-69499896D01*
X140028824Y-69500104D01*
X140249429Y-69408952D01*
X140418359Y-69240317D01*
X140509896Y-69019871D01*
X140510104Y-68781176D01*
X140418952Y-68560571D01*
X140250317Y-68391641D01*
X140029871Y-68300104D01*
X139791176Y-68299896D01*
X139570571Y-68391048D01*
X139551413Y-68410173D01*
X139363755Y-68222188D01*
X139069828Y-68100139D01*
X138751568Y-68099861D01*
X138457428Y-68221397D01*
X138232188Y-68446245D01*
X138110139Y-68740172D01*
X138109861Y-69058432D01*
X131460000Y-69058432D01*
X131460000Y-65518824D01*
X135309896Y-65518824D01*
X135401048Y-65739429D01*
X135569683Y-65908359D01*
X135790129Y-65999896D01*
X136028824Y-66000104D01*
X136225827Y-65918704D01*
X136242407Y-66002054D01*
X136264420Y-66035000D01*
X136242407Y-66067946D01*
X136229470Y-66132984D01*
X136029871Y-66050104D01*
X135791176Y-66049896D01*
X135570571Y-66141048D01*
X135401641Y-66309683D01*
X135310104Y-66530129D01*
X135309896Y-66768824D01*
X135401048Y-66989429D01*
X135569683Y-67158359D01*
X135790129Y-67249896D01*
X136028824Y-67250104D01*
X136222151Y-67170223D01*
X136242407Y-67272054D01*
X136308712Y-67371288D01*
X136407946Y-67437593D01*
X136525000Y-67460877D01*
X137795000Y-67460877D01*
X137912054Y-67437593D01*
X138011288Y-67371288D01*
X138077593Y-67272054D01*
X138100877Y-67155000D01*
X138100877Y-67120000D01*
X138219123Y-67120000D01*
X138219123Y-67155000D01*
X138242407Y-67272054D01*
X138308712Y-67371288D01*
X138407946Y-67437593D01*
X138525000Y-67460877D01*
X139795000Y-67460877D01*
X139912054Y-67437593D01*
X140011288Y-67371288D01*
X140077593Y-67272054D01*
X140100877Y-67155000D01*
X140100877Y-66968824D01*
X146009896Y-66968824D01*
X146101048Y-67189429D01*
X146235000Y-67323615D01*
X146235000Y-67650000D01*
X146263545Y-67793507D01*
X146344835Y-67915165D01*
X146435000Y-68005330D01*
X146435000Y-68776470D01*
X146351641Y-68859683D01*
X146260104Y-69080129D01*
X146259896Y-69318824D01*
X146351048Y-69539429D01*
X146519683Y-69708359D01*
X146740129Y-69799896D01*
X146978824Y-69800104D01*
X147199429Y-69708952D01*
X147368359Y-69540317D01*
X147459896Y-69319871D01*
X147460000Y-69200088D01*
X147478824Y-69200104D01*
X147699429Y-69108952D01*
X147868359Y-68940317D01*
X147959896Y-68719871D01*
X147960104Y-68481176D01*
X147868952Y-68260571D01*
X147700317Y-68091641D01*
X147535000Y-68022996D01*
X147535000Y-67873443D01*
X147668359Y-67740317D01*
X147759896Y-67519871D01*
X147760104Y-67281176D01*
X147668952Y-67060571D01*
X147500317Y-66891641D01*
X147279871Y-66800104D01*
X147210044Y-66800043D01*
X147210104Y-66731176D01*
X147118952Y-66510571D01*
X146950317Y-66341641D01*
X146729871Y-66250104D01*
X146491176Y-66249896D01*
X146270571Y-66341048D01*
X146101641Y-66509683D01*
X146010104Y-66730129D01*
X146009896Y-66968824D01*
X140100877Y-66968824D01*
X140100877Y-66671312D01*
X140290129Y-66749896D01*
X140528824Y-66750104D01*
X140749429Y-66658952D01*
X140918359Y-66490317D01*
X140927283Y-66468824D01*
X144309896Y-66468824D01*
X144401048Y-66689429D01*
X144569683Y-66858359D01*
X144790129Y-66949896D01*
X145028824Y-66950104D01*
X145249429Y-66858952D01*
X145418359Y-66690317D01*
X145509896Y-66469871D01*
X145510061Y-66280269D01*
X146271506Y-65518824D01*
X151059896Y-65518824D01*
X151151048Y-65739429D01*
X151319683Y-65908359D01*
X151540129Y-65999896D01*
X151778824Y-66000104D01*
X151999429Y-65908952D01*
X152018587Y-65889827D01*
X152153628Y-66025103D01*
X152018570Y-66159926D01*
X152000317Y-66141641D01*
X151779871Y-66050104D01*
X151541176Y-66049896D01*
X151320571Y-66141048D01*
X151151641Y-66309683D01*
X151060104Y-66530129D01*
X151059896Y-66768824D01*
X151151048Y-66989429D01*
X151319683Y-67158359D01*
X151540129Y-67249896D01*
X151778824Y-67250104D01*
X151999429Y-67158952D01*
X152018587Y-67139827D01*
X152153628Y-67275103D01*
X152018570Y-67409926D01*
X152000317Y-67391641D01*
X151779871Y-67300104D01*
X151541176Y-67299896D01*
X151320571Y-67391048D01*
X151151641Y-67559683D01*
X151060104Y-67780129D01*
X151059896Y-68018824D01*
X151151048Y-68239429D01*
X151319683Y-68408359D01*
X151540129Y-68499896D01*
X151778824Y-68500104D01*
X151999429Y-68408952D01*
X152018587Y-68389827D01*
X152153628Y-68525103D01*
X152018570Y-68659926D01*
X152000317Y-68641641D01*
X151779871Y-68550104D01*
X151541176Y-68549896D01*
X151320571Y-68641048D01*
X151151641Y-68809683D01*
X151060104Y-69030129D01*
X151059896Y-69268824D01*
X151151048Y-69489429D01*
X151319683Y-69658359D01*
X151540129Y-69749896D01*
X151778824Y-69750104D01*
X151999429Y-69658952D01*
X152018587Y-69639827D01*
X152153628Y-69775103D01*
X152018570Y-69909926D01*
X152000317Y-69891641D01*
X151779871Y-69800104D01*
X151541176Y-69799896D01*
X151320571Y-69891048D01*
X151151641Y-70059683D01*
X151060104Y-70280129D01*
X151059896Y-70518824D01*
X151151048Y-70739429D01*
X151319683Y-70908359D01*
X151540129Y-70999896D01*
X151778824Y-71000104D01*
X151999429Y-70908952D01*
X152018587Y-70889827D01*
X152206245Y-71077812D01*
X152500172Y-71199861D01*
X152818432Y-71200139D01*
X153112572Y-71078603D01*
X153337812Y-70853755D01*
X153459861Y-70559828D01*
X153460139Y-70241568D01*
X153338603Y-69947428D01*
X153166372Y-69774897D01*
X153337812Y-69603755D01*
X153459861Y-69309828D01*
X153460139Y-68991568D01*
X153338603Y-68697428D01*
X153166372Y-68524897D01*
X153337812Y-68353755D01*
X153459861Y-68059828D01*
X153460139Y-67741568D01*
X153338603Y-67447428D01*
X153166372Y-67274897D01*
X153337812Y-67103755D01*
X153459861Y-66809828D01*
X153460139Y-66491568D01*
X153338603Y-66197428D01*
X153306232Y-66165000D01*
X153469123Y-66165000D01*
X153469123Y-67135000D01*
X153492407Y-67252054D01*
X153514420Y-67285000D01*
X153492407Y-67317946D01*
X153469123Y-67435000D01*
X153469123Y-68405000D01*
X153492407Y-68522054D01*
X153558712Y-68621288D01*
X153657946Y-68687593D01*
X153775000Y-68710877D01*
X153859622Y-68710877D01*
X153810104Y-68830129D01*
X153809896Y-69068824D01*
X153901048Y-69289429D01*
X154069683Y-69458359D01*
X154290129Y-69549896D01*
X154528824Y-69550104D01*
X154749429Y-69458952D01*
X154918359Y-69290317D01*
X155009896Y-69069871D01*
X155010104Y-68831176D01*
X154960398Y-68710877D01*
X155045000Y-68710877D01*
X155162054Y-68687593D01*
X155261288Y-68621288D01*
X155327593Y-68522054D01*
X155350877Y-68405000D01*
X155350877Y-67435000D01*
X155327593Y-67317946D01*
X155305580Y-67285000D01*
X155327593Y-67252054D01*
X155344205Y-67168541D01*
X155540129Y-67249896D01*
X155778824Y-67250104D01*
X155999429Y-67158952D01*
X156168359Y-66990317D01*
X156259896Y-66769871D01*
X156260104Y-66531176D01*
X156168952Y-66310571D01*
X156000317Y-66141641D01*
X155779871Y-66050104D01*
X155541176Y-66049896D01*
X155344173Y-66131296D01*
X155327593Y-66047946D01*
X155306818Y-66016853D01*
X155345000Y-65924673D01*
X155345000Y-65555000D01*
X155270000Y-65480000D01*
X154835000Y-65480000D01*
X154835000Y-65349000D01*
X154821275Y-65280000D01*
X155270000Y-65280000D01*
X155345000Y-65205000D01*
X155345000Y-64835327D01*
X155299328Y-64725064D01*
X155214937Y-64640672D01*
X155104674Y-64595000D01*
X154585000Y-64595000D01*
X154510000Y-64670000D01*
X154510000Y-64943891D01*
X154410000Y-64924000D01*
X154310000Y-64943891D01*
X154310000Y-64670000D01*
X154235000Y-64595000D01*
X153715326Y-64595000D01*
X153605063Y-64640672D01*
X153520672Y-64725064D01*
X153475000Y-64835327D01*
X153475000Y-65205000D01*
X153550000Y-65280000D01*
X153998725Y-65280000D01*
X153985000Y-65349000D01*
X153985000Y-65480000D01*
X153550000Y-65480000D01*
X153475000Y-65555000D01*
X153475000Y-65924673D01*
X153513182Y-66016853D01*
X153492407Y-66047946D01*
X153469123Y-66165000D01*
X153306232Y-66165000D01*
X153166372Y-66024897D01*
X153337812Y-65853755D01*
X153459861Y-65559828D01*
X153460139Y-65241568D01*
X153338603Y-64947428D01*
X153113755Y-64722188D01*
X152819828Y-64600139D01*
X152501568Y-64599861D01*
X152207428Y-64721397D01*
X152018570Y-64909926D01*
X152000317Y-64891641D01*
X151779871Y-64800104D01*
X151541176Y-64799896D01*
X151320571Y-64891048D01*
X151151641Y-65059683D01*
X151060104Y-65280129D01*
X151059896Y-65518824D01*
X146271506Y-65518824D01*
X146275165Y-65515165D01*
X146356455Y-65393507D01*
X146385000Y-65250000D01*
X146385000Y-63918824D01*
X146559896Y-63918824D01*
X146651048Y-64139429D01*
X146785000Y-64273615D01*
X146785000Y-64426557D01*
X146651641Y-64559683D01*
X146560104Y-64780129D01*
X146559896Y-65018824D01*
X146651048Y-65239429D01*
X146819683Y-65408359D01*
X147040129Y-65499896D01*
X147278824Y-65500104D01*
X147499429Y-65408952D01*
X147668359Y-65240317D01*
X147759896Y-65019871D01*
X147760104Y-64781176D01*
X147668952Y-64560571D01*
X147535000Y-64426385D01*
X147535000Y-64273443D01*
X147668359Y-64140317D01*
X147759896Y-63919871D01*
X147760104Y-63681176D01*
X147668952Y-63460571D01*
X147500317Y-63291641D01*
X147279871Y-63200104D01*
X147041176Y-63199896D01*
X146820571Y-63291048D01*
X146651641Y-63459683D01*
X146560104Y-63680129D01*
X146559896Y-63918824D01*
X146385000Y-63918824D01*
X146385000Y-63523443D01*
X146518359Y-63390317D01*
X146609896Y-63169871D01*
X146610104Y-62931176D01*
X146518952Y-62710571D01*
X146350317Y-62541641D01*
X146129871Y-62450104D01*
X145891176Y-62449896D01*
X145670571Y-62541048D01*
X145501641Y-62709683D01*
X145410104Y-62930129D01*
X145409896Y-63168824D01*
X145501048Y-63389429D01*
X145635000Y-63523615D01*
X145635000Y-65094670D01*
X144979610Y-65750060D01*
X144791176Y-65749896D01*
X144570571Y-65841048D01*
X144401641Y-66009683D01*
X144310104Y-66230129D01*
X144309896Y-66468824D01*
X140927283Y-66468824D01*
X141009896Y-66269871D01*
X141010061Y-66080269D01*
X141275165Y-65815165D01*
X141356455Y-65693507D01*
X141385000Y-65550000D01*
X141385000Y-65173443D01*
X141518359Y-65040317D01*
X141609896Y-64819871D01*
X141610104Y-64581176D01*
X141518952Y-64360571D01*
X141350317Y-64191641D01*
X141129871Y-64100104D01*
X140891176Y-64099896D01*
X140670571Y-64191048D01*
X140501641Y-64359683D01*
X140410104Y-64580129D01*
X140409912Y-64799999D01*
X140291176Y-64799896D01*
X140094173Y-64881296D01*
X140077593Y-64797946D01*
X140056818Y-64766853D01*
X140095000Y-64674673D01*
X140095000Y-64305000D01*
X140020000Y-64230000D01*
X139260000Y-64230000D01*
X139260000Y-64250000D01*
X139060000Y-64250000D01*
X139060000Y-64230000D01*
X138300000Y-64230000D01*
X138225000Y-64305000D01*
X138225000Y-64674673D01*
X138263182Y-64766853D01*
X138242407Y-64797946D01*
X138219123Y-64915000D01*
X138219123Y-65885000D01*
X138242407Y-66002054D01*
X138264420Y-66035000D01*
X138242407Y-66067946D01*
X138219123Y-66185000D01*
X138219123Y-66220000D01*
X138100877Y-66220000D01*
X138100877Y-66185000D01*
X138077593Y-66067946D01*
X138055580Y-66035000D01*
X138077593Y-66002054D01*
X138100877Y-65885000D01*
X138100877Y-64915000D01*
X138077593Y-64797946D01*
X138056818Y-64766853D01*
X138095000Y-64674673D01*
X138095000Y-64305000D01*
X138020000Y-64230000D01*
X137585000Y-64230000D01*
X137585000Y-64083000D01*
X137574458Y-64030000D01*
X138020000Y-64030000D01*
X138095000Y-63955000D01*
X138095000Y-63585327D01*
X138225000Y-63585327D01*
X138225000Y-63955000D01*
X138300000Y-64030000D01*
X139060000Y-64030000D01*
X139060000Y-63420000D01*
X139260000Y-63420000D01*
X139260000Y-64030000D01*
X140020000Y-64030000D01*
X140095000Y-63955000D01*
X140095000Y-63585327D01*
X140049328Y-63475064D01*
X139964937Y-63390672D01*
X139854674Y-63345000D01*
X139335000Y-63345000D01*
X139260000Y-63420000D01*
X139060000Y-63420000D01*
X138985000Y-63345000D01*
X138465326Y-63345000D01*
X138355063Y-63390672D01*
X138270672Y-63475064D01*
X138225000Y-63585327D01*
X138095000Y-63585327D01*
X138049328Y-63475064D01*
X137964937Y-63390672D01*
X137854674Y-63345000D01*
X137335000Y-63345000D01*
X137260000Y-63420000D01*
X137260000Y-63677891D01*
X137160000Y-63658000D01*
X137060000Y-63677891D01*
X137060000Y-63420000D01*
X136985000Y-63345000D01*
X136465326Y-63345000D01*
X136355063Y-63390672D01*
X136270672Y-63475064D01*
X136225000Y-63585327D01*
X136225000Y-63955000D01*
X136300000Y-64030000D01*
X136745542Y-64030000D01*
X136735000Y-64083000D01*
X136735000Y-64230000D01*
X136300000Y-64230000D01*
X136225000Y-64305000D01*
X136225000Y-64674673D01*
X136263182Y-64766853D01*
X136242407Y-64797946D01*
X136225795Y-64881459D01*
X136029871Y-64800104D01*
X135791176Y-64799896D01*
X135570571Y-64891048D01*
X135401641Y-65059683D01*
X135310104Y-65280129D01*
X135309896Y-65518824D01*
X131460000Y-65518824D01*
X131460000Y-62737385D01*
X131490129Y-62749896D01*
X131728824Y-62750104D01*
X131949429Y-62658952D01*
X132118359Y-62490317D01*
X132209896Y-62269871D01*
X132210104Y-62031176D01*
X132118952Y-61810571D01*
X131950317Y-61641641D01*
X131741474Y-61554922D01*
X131796396Y-61500000D01*
X134723604Y-61500000D01*
X136091802Y-62868198D01*
X136091802Y-62868198D01*
G37*
X136091802Y-62868198D02*
X136237792Y-62965746D01*
X136410000Y-63000000D01*
X137698000Y-63000000D01*
X137870208Y-62965746D01*
X138016198Y-62868198D01*
X138524639Y-62359757D01*
X138689734Y-62428310D01*
X139122368Y-62428688D01*
X139522214Y-62263475D01*
X139828400Y-61957823D01*
X139906988Y-61768561D01*
X139984525Y-61956214D01*
X140290177Y-62262400D01*
X140689734Y-62428310D01*
X141110062Y-62428677D01*
X141109896Y-62618824D01*
X141201048Y-62839429D01*
X141369683Y-63008359D01*
X141590129Y-63099896D01*
X141828824Y-63100104D01*
X142049429Y-63008952D01*
X142218359Y-62840317D01*
X142309896Y-62619871D01*
X142310061Y-62430269D01*
X142422843Y-62317487D01*
X142689734Y-62428310D01*
X143122368Y-62428688D01*
X143522214Y-62263475D01*
X143828400Y-61957823D01*
X143906988Y-61768561D01*
X143984525Y-61956214D01*
X144290177Y-62262400D01*
X144689734Y-62428310D01*
X145122368Y-62428688D01*
X145522214Y-62263475D01*
X145828400Y-61957823D01*
X145906988Y-61768561D01*
X145984525Y-61956214D01*
X146290177Y-62262400D01*
X146689734Y-62428310D01*
X147122368Y-62428688D01*
X147522214Y-62263475D01*
X147828400Y-61957823D01*
X147906988Y-61768561D01*
X147984525Y-61956214D01*
X148290177Y-62262400D01*
X148689734Y-62428310D01*
X149122368Y-62428688D01*
X149522214Y-62263475D01*
X149828400Y-61957823D01*
X149906988Y-61768561D01*
X149984525Y-61956214D01*
X150290177Y-62262400D01*
X150689734Y-62428310D01*
X151122368Y-62428688D01*
X151522214Y-62263475D01*
X151786196Y-61999953D01*
X151814874Y-62069358D01*
X152176737Y-62431853D01*
X152649777Y-62628276D01*
X153161976Y-62628723D01*
X153635358Y-62433126D01*
X153687153Y-62381422D01*
X153759020Y-62488980D01*
X153924410Y-62599489D01*
X154119500Y-62638295D01*
X155694500Y-62638295D01*
X155889590Y-62599489D01*
X156054980Y-62488980D01*
X156165489Y-62323590D01*
X156204295Y-62128500D01*
X156204295Y-62041000D01*
X159430557Y-62041000D01*
X159410139Y-62090172D01*
X159409861Y-62408432D01*
X159531397Y-62702572D01*
X159756245Y-62927812D01*
X159810000Y-62950133D01*
X159810000Y-78050000D01*
X157935100Y-78050000D01*
X158009896Y-77869871D01*
X158010104Y-77631176D01*
X157918952Y-77410571D01*
X157750317Y-77241641D01*
X157529871Y-77150104D01*
X157291176Y-77149896D01*
X157070571Y-77241048D01*
X156936385Y-77375000D01*
X155055404Y-77375000D01*
X154911897Y-77403545D01*
X154790239Y-77484835D01*
X152869833Y-79405241D01*
X152788543Y-79526899D01*
X152764078Y-79649896D01*
X152759998Y-79670406D01*
X152759998Y-79733376D01*
X152679871Y-79700104D01*
X152441176Y-79699896D01*
X152220571Y-79791048D01*
X152186795Y-79824765D01*
X152118952Y-79660571D01*
X151950317Y-79491641D01*
X151729871Y-79400104D01*
X151540269Y-79399939D01*
X149876131Y-77735801D01*
X149754473Y-77654511D01*
X149610966Y-77625966D01*
X144535006Y-77625966D01*
X144391499Y-77654511D01*
X144269841Y-77735801D01*
X143979615Y-78026027D01*
X143791181Y-78025863D01*
X143570576Y-78117015D01*
X143401646Y-78285650D01*
X143310109Y-78506096D01*
X143309901Y-78744791D01*
X143401053Y-78965396D01*
X143569688Y-79134326D01*
X143790134Y-79225863D01*
X144028829Y-79226071D01*
X144249434Y-79134919D01*
X144418364Y-78966284D01*
X144509901Y-78745838D01*
X144510066Y-78556236D01*
X144690336Y-78375966D01*
X149455636Y-78375966D01*
X151010060Y-79930390D01*
X151009896Y-80118824D01*
X151033107Y-80175000D01*
X149860332Y-80175000D01*
X149171157Y-79485825D01*
X149049499Y-79404535D01*
X148905992Y-79375990D01*
X142266320Y-79375990D01*
X142009940Y-79119610D01*
X142010104Y-78931176D01*
X141918952Y-78710571D01*
X141750317Y-78541641D01*
X141529871Y-78450104D01*
X141291176Y-78449896D01*
X141070571Y-78541048D01*
X140901641Y-78709683D01*
X140810104Y-78930129D01*
X140809896Y-79168824D01*
X140901048Y-79389429D01*
X141069683Y-79558359D01*
X141290129Y-79649896D01*
X141479731Y-79650061D01*
X141845825Y-80016155D01*
X141967484Y-80097445D01*
X142110990Y-80125990D01*
X146419680Y-80125990D01*
X145911835Y-80633835D01*
X145830545Y-80755493D01*
X145804437Y-80886746D01*
X145802000Y-80899000D01*
X145802000Y-80988000D01*
X141566400Y-80988000D01*
X137397224Y-76818824D01*
X143659896Y-76818824D01*
X143751048Y-77039429D01*
X143919683Y-77208359D01*
X144140129Y-77299896D01*
X144378824Y-77300104D01*
X144599429Y-77208952D01*
X144658484Y-77150000D01*
X146960000Y-77150000D01*
X147132208Y-77115746D01*
X147278198Y-77018198D01*
X147346364Y-76950032D01*
X147428824Y-76950104D01*
X147649429Y-76858952D01*
X147818359Y-76690317D01*
X147909896Y-76469871D01*
X147910104Y-76231176D01*
X147818952Y-76010571D01*
X147650317Y-75841641D01*
X147429871Y-75750104D01*
X147191176Y-75749896D01*
X146970571Y-75841048D01*
X146801641Y-76009683D01*
X146710104Y-76230129D01*
X146710087Y-76250000D01*
X144658574Y-76250000D01*
X144600317Y-76191641D01*
X144379871Y-76100104D01*
X144141176Y-76099896D01*
X143920571Y-76191048D01*
X143751641Y-76359683D01*
X143660104Y-76580129D01*
X143659896Y-76818824D01*
X137397224Y-76818824D01*
X135797224Y-75218824D01*
X140759896Y-75218824D01*
X140851048Y-75439429D01*
X141019683Y-75608359D01*
X141240129Y-75699896D01*
X141478824Y-75700104D01*
X141699429Y-75608952D01*
X141833615Y-75475000D01*
X143660000Y-75475000D01*
X143803507Y-75446455D01*
X143925165Y-75365165D01*
X143945330Y-75345000D01*
X151475000Y-75345000D01*
X151475000Y-75714673D01*
X151520672Y-75824936D01*
X151605063Y-75909328D01*
X151715326Y-75955000D01*
X152235000Y-75955000D01*
X152310000Y-75880000D01*
X152310000Y-75270000D01*
X152510000Y-75270000D01*
X152510000Y-75880000D01*
X152585000Y-75955000D01*
X153104674Y-75955000D01*
X153214937Y-75909328D01*
X153299328Y-75824936D01*
X153345000Y-75714673D01*
X153345000Y-75345000D01*
X153270000Y-75270000D01*
X152510000Y-75270000D01*
X152310000Y-75270000D01*
X151550000Y-75270000D01*
X151475000Y-75345000D01*
X143945330Y-75345000D01*
X144340390Y-74949940D01*
X144528824Y-74950104D01*
X144749429Y-74858952D01*
X144839714Y-74768824D01*
X149759896Y-74768824D01*
X149851048Y-74989429D01*
X150019683Y-75158359D01*
X150240129Y-75249896D01*
X150478824Y-75250104D01*
X150699429Y-75158952D01*
X150868359Y-74990317D01*
X150959896Y-74769871D01*
X150960104Y-74531176D01*
X150927929Y-74453307D01*
X151040129Y-74499896D01*
X151278824Y-74500104D01*
X151475827Y-74418704D01*
X151492407Y-74502054D01*
X151513182Y-74533147D01*
X151475000Y-74625327D01*
X151475000Y-74995000D01*
X151550000Y-75070000D01*
X152310000Y-75070000D01*
X152310000Y-75050000D01*
X152510000Y-75050000D01*
X152510000Y-75070000D01*
X153270000Y-75070000D01*
X153345000Y-74995000D01*
X153345000Y-74625327D01*
X153306818Y-74533147D01*
X153327593Y-74502054D01*
X153350877Y-74385000D01*
X153350877Y-73415000D01*
X153327593Y-73297946D01*
X153305580Y-73265000D01*
X153327593Y-73232054D01*
X153350877Y-73115000D01*
X153350877Y-73080000D01*
X153469123Y-73080000D01*
X153469123Y-73115000D01*
X153492407Y-73232054D01*
X153514420Y-73265000D01*
X153492407Y-73297946D01*
X153469123Y-73415000D01*
X153469123Y-74385000D01*
X153492407Y-74502054D01*
X153513182Y-74533147D01*
X153475000Y-74625327D01*
X153475000Y-74995000D01*
X153550000Y-75070000D01*
X153985000Y-75070000D01*
X153985000Y-75110000D01*
X154016826Y-75270000D01*
X153550000Y-75270000D01*
X153475000Y-75345000D01*
X153475000Y-75714673D01*
X153520672Y-75824936D01*
X153605063Y-75909328D01*
X153715326Y-75955000D01*
X154235000Y-75955000D01*
X154310000Y-75880000D01*
X154310000Y-75515109D01*
X154410000Y-75535000D01*
X154510000Y-75515109D01*
X154510000Y-75880000D01*
X154585000Y-75955000D01*
X155104674Y-75955000D01*
X155214937Y-75909328D01*
X155299328Y-75824936D01*
X155345000Y-75714673D01*
X155345000Y-75345000D01*
X155270000Y-75270000D01*
X154803174Y-75270000D01*
X154835000Y-75110000D01*
X154835000Y-75070000D01*
X155270000Y-75070000D01*
X155345000Y-74995000D01*
X155345000Y-74625327D01*
X155306818Y-74533147D01*
X155327593Y-74502054D01*
X155344205Y-74418541D01*
X155540129Y-74499896D01*
X155778824Y-74500104D01*
X155999429Y-74408952D01*
X156168359Y-74240317D01*
X156259896Y-74019871D01*
X156260104Y-73781176D01*
X156168952Y-73560571D01*
X156000317Y-73391641D01*
X155779871Y-73300104D01*
X155541176Y-73299896D01*
X155344173Y-73381296D01*
X155327593Y-73297946D01*
X155305580Y-73265000D01*
X155327593Y-73232054D01*
X155340530Y-73167016D01*
X155540129Y-73249896D01*
X155778824Y-73250104D01*
X155999429Y-73158952D01*
X156168359Y-72990317D01*
X156259896Y-72769871D01*
X156260104Y-72531176D01*
X156168952Y-72310571D01*
X156000317Y-72141641D01*
X155779871Y-72050104D01*
X155541176Y-72049896D01*
X155347849Y-72129777D01*
X155327593Y-72027946D01*
X155261288Y-71928712D01*
X155162054Y-71862407D01*
X155045000Y-71839123D01*
X153775000Y-71839123D01*
X153657946Y-71862407D01*
X153558712Y-71928712D01*
X153492407Y-72027946D01*
X153469123Y-72145000D01*
X153469123Y-72180000D01*
X153350877Y-72180000D01*
X153350877Y-72145000D01*
X153327593Y-72027946D01*
X153261288Y-71928712D01*
X153162054Y-71862407D01*
X153045000Y-71839123D01*
X151775000Y-71839123D01*
X151657946Y-71862407D01*
X151558712Y-71928712D01*
X151492407Y-72027946D01*
X151469123Y-72145000D01*
X151469123Y-72180000D01*
X151280000Y-72180000D01*
X151107792Y-72214254D01*
X150961802Y-72311802D01*
X150041802Y-73231802D01*
X149944254Y-73377792D01*
X149910000Y-73550000D01*
X149910000Y-74251426D01*
X149851641Y-74309683D01*
X149760104Y-74530129D01*
X149759896Y-74768824D01*
X144839714Y-74768824D01*
X144918359Y-74690317D01*
X145009896Y-74469871D01*
X145010104Y-74231176D01*
X144918952Y-74010571D01*
X144750317Y-73841641D01*
X144529871Y-73750104D01*
X144291176Y-73749896D01*
X144070571Y-73841048D01*
X143901641Y-74009683D01*
X143810104Y-74230129D01*
X143809939Y-74419731D01*
X143504670Y-74725000D01*
X141833443Y-74725000D01*
X141700317Y-74591641D01*
X141479871Y-74500104D01*
X141241176Y-74499896D01*
X141020571Y-74591048D01*
X140851641Y-74759683D01*
X140760104Y-74980129D01*
X140759896Y-75218824D01*
X135797224Y-75218824D01*
X133347224Y-72768824D01*
X135309896Y-72768824D01*
X135401048Y-72989429D01*
X135569683Y-73158359D01*
X135790129Y-73249896D01*
X136028824Y-73250104D01*
X136225827Y-73168704D01*
X136242407Y-73252054D01*
X136263182Y-73283147D01*
X136225000Y-73375327D01*
X136225000Y-73745000D01*
X136300000Y-73820000D01*
X136735000Y-73820000D01*
X136735000Y-73836000D01*
X136767351Y-73998640D01*
X136781623Y-74020000D01*
X136300000Y-74020000D01*
X136225000Y-74095000D01*
X136225000Y-74464673D01*
X136270672Y-74574936D01*
X136355063Y-74659328D01*
X136465326Y-74705000D01*
X136985000Y-74705000D01*
X137060000Y-74630000D01*
X137060000Y-74241109D01*
X137160000Y-74261000D01*
X137260000Y-74241109D01*
X137260000Y-74630000D01*
X137335000Y-74705000D01*
X137854674Y-74705000D01*
X137964937Y-74659328D01*
X138049328Y-74574936D01*
X138095000Y-74464673D01*
X138095000Y-74095000D01*
X138020000Y-74020000D01*
X137538377Y-74020000D01*
X137552649Y-73998640D01*
X137585000Y-73836000D01*
X137585000Y-73820000D01*
X138020000Y-73820000D01*
X138095000Y-73745000D01*
X138095000Y-73375327D01*
X138056818Y-73283147D01*
X138077593Y-73252054D01*
X138100877Y-73135000D01*
X138100877Y-72165000D01*
X138077593Y-72047946D01*
X138055580Y-72015000D01*
X138077593Y-71982054D01*
X138100877Y-71865000D01*
X138100877Y-70895000D01*
X138077593Y-70777946D01*
X138011288Y-70678712D01*
X137912054Y-70612407D01*
X137795000Y-70589123D01*
X137710378Y-70589123D01*
X137759896Y-70469871D01*
X137760104Y-70231176D01*
X137668952Y-70010571D01*
X137500317Y-69841641D01*
X137279871Y-69750104D01*
X137041176Y-69749896D01*
X136820571Y-69841048D01*
X136651641Y-70009683D01*
X136560104Y-70230129D01*
X136559896Y-70468824D01*
X136609602Y-70589123D01*
X136525000Y-70589123D01*
X136407946Y-70612407D01*
X136308712Y-70678712D01*
X136242407Y-70777946D01*
X136219123Y-70895000D01*
X136219123Y-71865000D01*
X136242407Y-71982054D01*
X136264420Y-72015000D01*
X136242407Y-72047946D01*
X136225795Y-72131459D01*
X136029871Y-72050104D01*
X135791176Y-72049896D01*
X135570571Y-72141048D01*
X135401641Y-72309683D01*
X135310104Y-72530129D01*
X135309896Y-72768824D01*
X133347224Y-72768824D01*
X131460000Y-70881600D01*
X131460000Y-69058432D01*
X138109861Y-69058432D01*
X138231397Y-69352572D01*
X138403628Y-69525103D01*
X138232188Y-69696245D01*
X138110139Y-69990172D01*
X138109861Y-70308432D01*
X138231397Y-70602572D01*
X138403628Y-70775103D01*
X138232188Y-70946245D01*
X138110139Y-71240172D01*
X138109861Y-71558432D01*
X138231397Y-71852572D01*
X138403628Y-72025103D01*
X138232188Y-72196245D01*
X138110139Y-72490172D01*
X138109861Y-72808432D01*
X138231397Y-73102572D01*
X138403628Y-73275103D01*
X138232188Y-73446245D01*
X138110139Y-73740172D01*
X138109861Y-74058432D01*
X138231397Y-74352572D01*
X138456245Y-74577812D01*
X138750172Y-74699861D01*
X139068432Y-74700139D01*
X139362572Y-74578603D01*
X139551430Y-74390074D01*
X139569683Y-74408359D01*
X139790129Y-74499896D01*
X140028824Y-74500104D01*
X140249429Y-74408952D01*
X140418359Y-74240317D01*
X140509896Y-74019871D01*
X140510104Y-73781176D01*
X140418952Y-73560571D01*
X140250317Y-73391641D01*
X140029871Y-73300104D01*
X139791176Y-73299896D01*
X139570571Y-73391048D01*
X139551413Y-73410173D01*
X139416372Y-73274897D01*
X139551430Y-73140074D01*
X139569683Y-73158359D01*
X139790129Y-73249896D01*
X140028824Y-73250104D01*
X140249429Y-73158952D01*
X140418359Y-72990317D01*
X140509896Y-72769871D01*
X140510104Y-72531176D01*
X140418952Y-72310571D01*
X140250317Y-72141641D01*
X140029871Y-72050104D01*
X139791176Y-72049896D01*
X139570571Y-72141048D01*
X139551413Y-72160173D01*
X139416372Y-72024897D01*
X139551430Y-71890074D01*
X139569683Y-71908359D01*
X139790129Y-71999896D01*
X140028824Y-72000104D01*
X140249429Y-71908952D01*
X140418359Y-71740317D01*
X140509896Y-71519871D01*
X140510104Y-71281176D01*
X140418952Y-71060571D01*
X140250317Y-70891641D01*
X140029871Y-70800104D01*
X139791176Y-70799896D01*
X139570571Y-70891048D01*
X139551413Y-70910173D01*
X139416372Y-70774897D01*
X139551430Y-70640074D01*
X139569683Y-70658359D01*
X139790129Y-70749896D01*
X140028824Y-70750104D01*
X140249429Y-70658952D01*
X140418359Y-70490317D01*
X140509896Y-70269871D01*
X140509896Y-70268824D01*
X143659896Y-70268824D01*
X143751048Y-70489429D01*
X143785000Y-70523440D01*
X143785000Y-72300000D01*
X143813545Y-72443507D01*
X143894835Y-72565165D01*
X143910060Y-72580390D01*
X143909896Y-72768824D01*
X144001048Y-72989429D01*
X144169683Y-73158359D01*
X144390129Y-73249896D01*
X144628824Y-73250104D01*
X144849429Y-73158952D01*
X145018359Y-72990317D01*
X145109896Y-72769871D01*
X145110104Y-72531176D01*
X145056631Y-72401762D01*
X145218359Y-72240317D01*
X145309896Y-72019871D01*
X145310104Y-71781176D01*
X145218952Y-71560571D01*
X145085000Y-71426385D01*
X145085000Y-71273443D01*
X145218359Y-71140317D01*
X145309896Y-70919871D01*
X145310104Y-70681176D01*
X145218952Y-70460571D01*
X145050317Y-70291641D01*
X144859946Y-70212592D01*
X144860104Y-70031176D01*
X144768952Y-69810571D01*
X144600317Y-69641641D01*
X144379871Y-69550104D01*
X144141176Y-69549896D01*
X143920571Y-69641048D01*
X143751641Y-69809683D01*
X143660104Y-70030129D01*
X143659896Y-70268824D01*
X140509896Y-70268824D01*
X140510104Y-70031176D01*
X140418952Y-69810571D01*
X140250317Y-69641641D01*
X140029871Y-69550104D01*
X139791176Y-69549896D01*
X139570571Y-69641048D01*
X139551413Y-69660173D01*
X139416372Y-69524897D01*
X139551430Y-69390074D01*
X139569683Y-69408359D01*
X139790129Y-69499896D01*
X140028824Y-69500104D01*
X140249429Y-69408952D01*
X140418359Y-69240317D01*
X140509896Y-69019871D01*
X140510104Y-68781176D01*
X140418952Y-68560571D01*
X140250317Y-68391641D01*
X140029871Y-68300104D01*
X139791176Y-68299896D01*
X139570571Y-68391048D01*
X139551413Y-68410173D01*
X139363755Y-68222188D01*
X139069828Y-68100139D01*
X138751568Y-68099861D01*
X138457428Y-68221397D01*
X138232188Y-68446245D01*
X138110139Y-68740172D01*
X138109861Y-69058432D01*
X131460000Y-69058432D01*
X131460000Y-65518824D01*
X135309896Y-65518824D01*
X135401048Y-65739429D01*
X135569683Y-65908359D01*
X135790129Y-65999896D01*
X136028824Y-66000104D01*
X136225827Y-65918704D01*
X136242407Y-66002054D01*
X136264420Y-66035000D01*
X136242407Y-66067946D01*
X136229470Y-66132984D01*
X136029871Y-66050104D01*
X135791176Y-66049896D01*
X135570571Y-66141048D01*
X135401641Y-66309683D01*
X135310104Y-66530129D01*
X135309896Y-66768824D01*
X135401048Y-66989429D01*
X135569683Y-67158359D01*
X135790129Y-67249896D01*
X136028824Y-67250104D01*
X136222151Y-67170223D01*
X136242407Y-67272054D01*
X136308712Y-67371288D01*
X136407946Y-67437593D01*
X136525000Y-67460877D01*
X137795000Y-67460877D01*
X137912054Y-67437593D01*
X138011288Y-67371288D01*
X138077593Y-67272054D01*
X138100877Y-67155000D01*
X138100877Y-67120000D01*
X138219123Y-67120000D01*
X138219123Y-67155000D01*
X138242407Y-67272054D01*
X138308712Y-67371288D01*
X138407946Y-67437593D01*
X138525000Y-67460877D01*
X139795000Y-67460877D01*
X139912054Y-67437593D01*
X140011288Y-67371288D01*
X140077593Y-67272054D01*
X140100877Y-67155000D01*
X140100877Y-66968824D01*
X146009896Y-66968824D01*
X146101048Y-67189429D01*
X146235000Y-67323615D01*
X146235000Y-67650000D01*
X146263545Y-67793507D01*
X146344835Y-67915165D01*
X146435000Y-68005330D01*
X146435000Y-68776470D01*
X146351641Y-68859683D01*
X146260104Y-69080129D01*
X146259896Y-69318824D01*
X146351048Y-69539429D01*
X146519683Y-69708359D01*
X146740129Y-69799896D01*
X146978824Y-69800104D01*
X147199429Y-69708952D01*
X147368359Y-69540317D01*
X147459896Y-69319871D01*
X147460000Y-69200088D01*
X147478824Y-69200104D01*
X147699429Y-69108952D01*
X147868359Y-68940317D01*
X147959896Y-68719871D01*
X147960104Y-68481176D01*
X147868952Y-68260571D01*
X147700317Y-68091641D01*
X147535000Y-68022996D01*
X147535000Y-67873443D01*
X147668359Y-67740317D01*
X147759896Y-67519871D01*
X147760104Y-67281176D01*
X147668952Y-67060571D01*
X147500317Y-66891641D01*
X147279871Y-66800104D01*
X147210044Y-66800043D01*
X147210104Y-66731176D01*
X147118952Y-66510571D01*
X146950317Y-66341641D01*
X146729871Y-66250104D01*
X146491176Y-66249896D01*
X146270571Y-66341048D01*
X146101641Y-66509683D01*
X146010104Y-66730129D01*
X146009896Y-66968824D01*
X140100877Y-66968824D01*
X140100877Y-66671312D01*
X140290129Y-66749896D01*
X140528824Y-66750104D01*
X140749429Y-66658952D01*
X140918359Y-66490317D01*
X140927283Y-66468824D01*
X144309896Y-66468824D01*
X144401048Y-66689429D01*
X144569683Y-66858359D01*
X144790129Y-66949896D01*
X145028824Y-66950104D01*
X145249429Y-66858952D01*
X145418359Y-66690317D01*
X145509896Y-66469871D01*
X145510061Y-66280269D01*
X146271506Y-65518824D01*
X151059896Y-65518824D01*
X151151048Y-65739429D01*
X151319683Y-65908359D01*
X151540129Y-65999896D01*
X151778824Y-66000104D01*
X151999429Y-65908952D01*
X152018587Y-65889827D01*
X152153628Y-66025103D01*
X152018570Y-66159926D01*
X152000317Y-66141641D01*
X151779871Y-66050104D01*
X151541176Y-66049896D01*
X151320571Y-66141048D01*
X151151641Y-66309683D01*
X151060104Y-66530129D01*
X151059896Y-66768824D01*
X151151048Y-66989429D01*
X151319683Y-67158359D01*
X151540129Y-67249896D01*
X151778824Y-67250104D01*
X151999429Y-67158952D01*
X152018587Y-67139827D01*
X152153628Y-67275103D01*
X152018570Y-67409926D01*
X152000317Y-67391641D01*
X151779871Y-67300104D01*
X151541176Y-67299896D01*
X151320571Y-67391048D01*
X151151641Y-67559683D01*
X151060104Y-67780129D01*
X151059896Y-68018824D01*
X151151048Y-68239429D01*
X151319683Y-68408359D01*
X151540129Y-68499896D01*
X151778824Y-68500104D01*
X151999429Y-68408952D01*
X152018587Y-68389827D01*
X152153628Y-68525103D01*
X152018570Y-68659926D01*
X152000317Y-68641641D01*
X151779871Y-68550104D01*
X151541176Y-68549896D01*
X151320571Y-68641048D01*
X151151641Y-68809683D01*
X151060104Y-69030129D01*
X151059896Y-69268824D01*
X151151048Y-69489429D01*
X151319683Y-69658359D01*
X151540129Y-69749896D01*
X151778824Y-69750104D01*
X151999429Y-69658952D01*
X152018587Y-69639827D01*
X152153628Y-69775103D01*
X152018570Y-69909926D01*
X152000317Y-69891641D01*
X151779871Y-69800104D01*
X151541176Y-69799896D01*
X151320571Y-69891048D01*
X151151641Y-70059683D01*
X151060104Y-70280129D01*
X151059896Y-70518824D01*
X151151048Y-70739429D01*
X151319683Y-70908359D01*
X151540129Y-70999896D01*
X151778824Y-71000104D01*
X151999429Y-70908952D01*
X152018587Y-70889827D01*
X152206245Y-71077812D01*
X152500172Y-71199861D01*
X152818432Y-71200139D01*
X153112572Y-71078603D01*
X153337812Y-70853755D01*
X153459861Y-70559828D01*
X153460139Y-70241568D01*
X153338603Y-69947428D01*
X153166372Y-69774897D01*
X153337812Y-69603755D01*
X153459861Y-69309828D01*
X153460139Y-68991568D01*
X153338603Y-68697428D01*
X153166372Y-68524897D01*
X153337812Y-68353755D01*
X153459861Y-68059828D01*
X153460139Y-67741568D01*
X153338603Y-67447428D01*
X153166372Y-67274897D01*
X153337812Y-67103755D01*
X153459861Y-66809828D01*
X153460139Y-66491568D01*
X153338603Y-66197428D01*
X153306232Y-66165000D01*
X153469123Y-66165000D01*
X153469123Y-67135000D01*
X153492407Y-67252054D01*
X153514420Y-67285000D01*
X153492407Y-67317946D01*
X153469123Y-67435000D01*
X153469123Y-68405000D01*
X153492407Y-68522054D01*
X153558712Y-68621288D01*
X153657946Y-68687593D01*
X153775000Y-68710877D01*
X153859622Y-68710877D01*
X153810104Y-68830129D01*
X153809896Y-69068824D01*
X153901048Y-69289429D01*
X154069683Y-69458359D01*
X154290129Y-69549896D01*
X154528824Y-69550104D01*
X154749429Y-69458952D01*
X154918359Y-69290317D01*
X155009896Y-69069871D01*
X155010104Y-68831176D01*
X154960398Y-68710877D01*
X155045000Y-68710877D01*
X155162054Y-68687593D01*
X155261288Y-68621288D01*
X155327593Y-68522054D01*
X155350877Y-68405000D01*
X155350877Y-67435000D01*
X155327593Y-67317946D01*
X155305580Y-67285000D01*
X155327593Y-67252054D01*
X155344205Y-67168541D01*
X155540129Y-67249896D01*
X155778824Y-67250104D01*
X155999429Y-67158952D01*
X156168359Y-66990317D01*
X156259896Y-66769871D01*
X156260104Y-66531176D01*
X156168952Y-66310571D01*
X156000317Y-66141641D01*
X155779871Y-66050104D01*
X155541176Y-66049896D01*
X155344173Y-66131296D01*
X155327593Y-66047946D01*
X155306818Y-66016853D01*
X155345000Y-65924673D01*
X155345000Y-65555000D01*
X155270000Y-65480000D01*
X154835000Y-65480000D01*
X154835000Y-65349000D01*
X154821275Y-65280000D01*
X155270000Y-65280000D01*
X155345000Y-65205000D01*
X155345000Y-64835327D01*
X155299328Y-64725064D01*
X155214937Y-64640672D01*
X155104674Y-64595000D01*
X154585000Y-64595000D01*
X154510000Y-64670000D01*
X154510000Y-64943891D01*
X154410000Y-64924000D01*
X154310000Y-64943891D01*
X154310000Y-64670000D01*
X154235000Y-64595000D01*
X153715326Y-64595000D01*
X153605063Y-64640672D01*
X153520672Y-64725064D01*
X153475000Y-64835327D01*
X153475000Y-65205000D01*
X153550000Y-65280000D01*
X153998725Y-65280000D01*
X153985000Y-65349000D01*
X153985000Y-65480000D01*
X153550000Y-65480000D01*
X153475000Y-65555000D01*
X153475000Y-65924673D01*
X153513182Y-66016853D01*
X153492407Y-66047946D01*
X153469123Y-66165000D01*
X153306232Y-66165000D01*
X153166372Y-66024897D01*
X153337812Y-65853755D01*
X153459861Y-65559828D01*
X153460139Y-65241568D01*
X153338603Y-64947428D01*
X153113755Y-64722188D01*
X152819828Y-64600139D01*
X152501568Y-64599861D01*
X152207428Y-64721397D01*
X152018570Y-64909926D01*
X152000317Y-64891641D01*
X151779871Y-64800104D01*
X151541176Y-64799896D01*
X151320571Y-64891048D01*
X151151641Y-65059683D01*
X151060104Y-65280129D01*
X151059896Y-65518824D01*
X146271506Y-65518824D01*
X146275165Y-65515165D01*
X146356455Y-65393507D01*
X146385000Y-65250000D01*
X146385000Y-63918824D01*
X146559896Y-63918824D01*
X146651048Y-64139429D01*
X146785000Y-64273615D01*
X146785000Y-64426557D01*
X146651641Y-64559683D01*
X146560104Y-64780129D01*
X146559896Y-65018824D01*
X146651048Y-65239429D01*
X146819683Y-65408359D01*
X147040129Y-65499896D01*
X147278824Y-65500104D01*
X147499429Y-65408952D01*
X147668359Y-65240317D01*
X147759896Y-65019871D01*
X147760104Y-64781176D01*
X147668952Y-64560571D01*
X147535000Y-64426385D01*
X147535000Y-64273443D01*
X147668359Y-64140317D01*
X147759896Y-63919871D01*
X147760104Y-63681176D01*
X147668952Y-63460571D01*
X147500317Y-63291641D01*
X147279871Y-63200104D01*
X147041176Y-63199896D01*
X146820571Y-63291048D01*
X146651641Y-63459683D01*
X146560104Y-63680129D01*
X146559896Y-63918824D01*
X146385000Y-63918824D01*
X146385000Y-63523443D01*
X146518359Y-63390317D01*
X146609896Y-63169871D01*
X146610104Y-62931176D01*
X146518952Y-62710571D01*
X146350317Y-62541641D01*
X146129871Y-62450104D01*
X145891176Y-62449896D01*
X145670571Y-62541048D01*
X145501641Y-62709683D01*
X145410104Y-62930129D01*
X145409896Y-63168824D01*
X145501048Y-63389429D01*
X145635000Y-63523615D01*
X145635000Y-65094670D01*
X144979610Y-65750060D01*
X144791176Y-65749896D01*
X144570571Y-65841048D01*
X144401641Y-66009683D01*
X144310104Y-66230129D01*
X144309896Y-66468824D01*
X140927283Y-66468824D01*
X141009896Y-66269871D01*
X141010061Y-66080269D01*
X141275165Y-65815165D01*
X141356455Y-65693507D01*
X141385000Y-65550000D01*
X141385000Y-65173443D01*
X141518359Y-65040317D01*
X141609896Y-64819871D01*
X141610104Y-64581176D01*
X141518952Y-64360571D01*
X141350317Y-64191641D01*
X141129871Y-64100104D01*
X140891176Y-64099896D01*
X140670571Y-64191048D01*
X140501641Y-64359683D01*
X140410104Y-64580129D01*
X140409912Y-64799999D01*
X140291176Y-64799896D01*
X140094173Y-64881296D01*
X140077593Y-64797946D01*
X140056818Y-64766853D01*
X140095000Y-64674673D01*
X140095000Y-64305000D01*
X140020000Y-64230000D01*
X139260000Y-64230000D01*
X139260000Y-64250000D01*
X139060000Y-64250000D01*
X139060000Y-64230000D01*
X138300000Y-64230000D01*
X138225000Y-64305000D01*
X138225000Y-64674673D01*
X138263182Y-64766853D01*
X138242407Y-64797946D01*
X138219123Y-64915000D01*
X138219123Y-65885000D01*
X138242407Y-66002054D01*
X138264420Y-66035000D01*
X138242407Y-66067946D01*
X138219123Y-66185000D01*
X138219123Y-66220000D01*
X138100877Y-66220000D01*
X138100877Y-66185000D01*
X138077593Y-66067946D01*
X138055580Y-66035000D01*
X138077593Y-66002054D01*
X138100877Y-65885000D01*
X138100877Y-64915000D01*
X138077593Y-64797946D01*
X138056818Y-64766853D01*
X138095000Y-64674673D01*
X138095000Y-64305000D01*
X138020000Y-64230000D01*
X137585000Y-64230000D01*
X137585000Y-64083000D01*
X137574458Y-64030000D01*
X138020000Y-64030000D01*
X138095000Y-63955000D01*
X138095000Y-63585327D01*
X138225000Y-63585327D01*
X138225000Y-63955000D01*
X138300000Y-64030000D01*
X139060000Y-64030000D01*
X139060000Y-63420000D01*
X139260000Y-63420000D01*
X139260000Y-64030000D01*
X140020000Y-64030000D01*
X140095000Y-63955000D01*
X140095000Y-63585327D01*
X140049328Y-63475064D01*
X139964937Y-63390672D01*
X139854674Y-63345000D01*
X139335000Y-63345000D01*
X139260000Y-63420000D01*
X139060000Y-63420000D01*
X138985000Y-63345000D01*
X138465326Y-63345000D01*
X138355063Y-63390672D01*
X138270672Y-63475064D01*
X138225000Y-63585327D01*
X138095000Y-63585327D01*
X138049328Y-63475064D01*
X137964937Y-63390672D01*
X137854674Y-63345000D01*
X137335000Y-63345000D01*
X137260000Y-63420000D01*
X137260000Y-63677891D01*
X137160000Y-63658000D01*
X137060000Y-63677891D01*
X137060000Y-63420000D01*
X136985000Y-63345000D01*
X136465326Y-63345000D01*
X136355063Y-63390672D01*
X136270672Y-63475064D01*
X136225000Y-63585327D01*
X136225000Y-63955000D01*
X136300000Y-64030000D01*
X136745542Y-64030000D01*
X136735000Y-64083000D01*
X136735000Y-64230000D01*
X136300000Y-64230000D01*
X136225000Y-64305000D01*
X136225000Y-64674673D01*
X136263182Y-64766853D01*
X136242407Y-64797946D01*
X136225795Y-64881459D01*
X136029871Y-64800104D01*
X135791176Y-64799896D01*
X135570571Y-64891048D01*
X135401641Y-65059683D01*
X135310104Y-65280129D01*
X135309896Y-65518824D01*
X131460000Y-65518824D01*
X131460000Y-62737385D01*
X131490129Y-62749896D01*
X131728824Y-62750104D01*
X131949429Y-62658952D01*
X132118359Y-62490317D01*
X132209896Y-62269871D01*
X132210104Y-62031176D01*
X132118952Y-61810571D01*
X131950317Y-61641641D01*
X131741474Y-61554922D01*
X131796396Y-61500000D01*
X134723604Y-61500000D01*
X136091802Y-62868198D01*
G36*
X138950294Y-79644686D02*
X136985977Y-79644686D01*
X136842471Y-79673231D01*
X136772835Y-79719760D01*
X136567154Y-79719581D01*
X136346549Y-79810733D01*
X136177619Y-79979368D01*
X136169454Y-79999032D01*
X136123871Y-79980104D01*
X135885176Y-79979896D01*
X135664571Y-80071048D01*
X135558413Y-80177021D01*
X135528198Y-80131802D01*
X134728198Y-79331802D01*
X134685518Y-79303284D01*
X134582208Y-79234254D01*
X134410000Y-79200000D01*
X130996396Y-79200000D01*
X130860000Y-79063604D01*
X130860000Y-71554392D01*
X138950294Y-79644686D01*
X138950294Y-79644686D01*
G37*
X138950294Y-79644686D02*
X136985977Y-79644686D01*
X136842471Y-79673231D01*
X136772835Y-79719760D01*
X136567154Y-79719581D01*
X136346549Y-79810733D01*
X136177619Y-79979368D01*
X136169454Y-79999032D01*
X136123871Y-79980104D01*
X135885176Y-79979896D01*
X135664571Y-80071048D01*
X135558413Y-80177021D01*
X135528198Y-80131802D01*
X134728198Y-79331802D01*
X134685518Y-79303284D01*
X134582208Y-79234254D01*
X134410000Y-79200000D01*
X130996396Y-79200000D01*
X130860000Y-79063604D01*
X130860000Y-71554392D01*
X138950294Y-79644686D01*
G36*
X161535000Y-59805330D02*
X161535000Y-59843557D01*
X161463755Y-59772188D01*
X161169828Y-59650139D01*
X160851568Y-59649861D01*
X160609213Y-59750000D01*
X157199950Y-59750000D01*
X156804975Y-59355025D01*
X156577879Y-59203284D01*
X156310000Y-59150000D01*
X153610000Y-59150000D01*
X153342121Y-59203284D01*
X153115025Y-59355025D01*
X152412025Y-60058025D01*
X152324877Y-60188451D01*
X152178642Y-60248874D01*
X151816147Y-60610737D01*
X151786324Y-60682559D01*
X151523823Y-60419600D01*
X151124266Y-60253690D01*
X150691632Y-60253312D01*
X150291786Y-60418525D01*
X149985600Y-60724177D01*
X149907012Y-60913439D01*
X149829475Y-60725786D01*
X149523823Y-60419600D01*
X149124266Y-60253690D01*
X148691632Y-60253312D01*
X148291786Y-60418525D01*
X147985600Y-60724177D01*
X147907012Y-60913439D01*
X147829475Y-60725786D01*
X147523823Y-60419600D01*
X147124266Y-60253690D01*
X146691632Y-60253312D01*
X146291786Y-60418525D01*
X145985600Y-60724177D01*
X145907012Y-60913439D01*
X145829475Y-60725786D01*
X145523823Y-60419600D01*
X145124266Y-60253690D01*
X144691632Y-60253312D01*
X144291786Y-60418525D01*
X143985600Y-60724177D01*
X143907012Y-60913439D01*
X143829475Y-60725786D01*
X143523823Y-60419600D01*
X143124266Y-60253690D01*
X142691632Y-60253312D01*
X142291786Y-60418525D01*
X141985600Y-60724177D01*
X141907012Y-60913439D01*
X141829475Y-60725786D01*
X141523823Y-60419600D01*
X141124266Y-60253690D01*
X140691632Y-60253312D01*
X140291786Y-60418525D01*
X139985600Y-60724177D01*
X139907012Y-60913439D01*
X139829475Y-60725786D01*
X139523823Y-60419600D01*
X139124266Y-60253690D01*
X138691632Y-60253312D01*
X138291786Y-60418525D01*
X137985600Y-60724177D01*
X137907012Y-60913439D01*
X137829475Y-60725786D01*
X137523823Y-60419600D01*
X137124266Y-60253690D01*
X136691632Y-60253312D01*
X136291786Y-60418525D01*
X136003102Y-60706706D01*
X135428198Y-60131802D01*
X135333945Y-60068824D01*
X135282208Y-60034254D01*
X135110000Y-60000000D01*
X132009957Y-60000000D01*
X132010104Y-59831176D01*
X131918952Y-59610571D01*
X131750317Y-59441641D01*
X131529871Y-59350104D01*
X131291176Y-59349896D01*
X131070571Y-59441048D01*
X130901641Y-59609683D01*
X130810104Y-59830129D01*
X130809896Y-60068824D01*
X130860000Y-60190085D01*
X130860000Y-60263604D01*
X130285000Y-60838604D01*
X130285000Y-59805330D01*
X131315330Y-58775000D01*
X160504670Y-58775000D01*
X161535000Y-59805330D01*
X161535000Y-59805330D01*
G37*
X161535000Y-59805330D02*
X161535000Y-59843557D01*
X161463755Y-59772188D01*
X161169828Y-59650139D01*
X160851568Y-59649861D01*
X160609213Y-59750000D01*
X157199950Y-59750000D01*
X156804975Y-59355025D01*
X156577879Y-59203284D01*
X156310000Y-59150000D01*
X153610000Y-59150000D01*
X153342121Y-59203284D01*
X153115025Y-59355025D01*
X152412025Y-60058025D01*
X152324877Y-60188451D01*
X152178642Y-60248874D01*
X151816147Y-60610737D01*
X151786324Y-60682559D01*
X151523823Y-60419600D01*
X151124266Y-60253690D01*
X150691632Y-60253312D01*
X150291786Y-60418525D01*
X149985600Y-60724177D01*
X149907012Y-60913439D01*
X149829475Y-60725786D01*
X149523823Y-60419600D01*
X149124266Y-60253690D01*
X148691632Y-60253312D01*
X148291786Y-60418525D01*
X147985600Y-60724177D01*
X147907012Y-60913439D01*
X147829475Y-60725786D01*
X147523823Y-60419600D01*
X147124266Y-60253690D01*
X146691632Y-60253312D01*
X146291786Y-60418525D01*
X145985600Y-60724177D01*
X145907012Y-60913439D01*
X145829475Y-60725786D01*
X145523823Y-60419600D01*
X145124266Y-60253690D01*
X144691632Y-60253312D01*
X144291786Y-60418525D01*
X143985600Y-60724177D01*
X143907012Y-60913439D01*
X143829475Y-60725786D01*
X143523823Y-60419600D01*
X143124266Y-60253690D01*
X142691632Y-60253312D01*
X142291786Y-60418525D01*
X141985600Y-60724177D01*
X141907012Y-60913439D01*
X141829475Y-60725786D01*
X141523823Y-60419600D01*
X141124266Y-60253690D01*
X140691632Y-60253312D01*
X140291786Y-60418525D01*
X139985600Y-60724177D01*
X139907012Y-60913439D01*
X139829475Y-60725786D01*
X139523823Y-60419600D01*
X139124266Y-60253690D01*
X138691632Y-60253312D01*
X138291786Y-60418525D01*
X137985600Y-60724177D01*
X137907012Y-60913439D01*
X137829475Y-60725786D01*
X137523823Y-60419600D01*
X137124266Y-60253690D01*
X136691632Y-60253312D01*
X136291786Y-60418525D01*
X136003102Y-60706706D01*
X135428198Y-60131802D01*
X135333945Y-60068824D01*
X135282208Y-60034254D01*
X135110000Y-60000000D01*
X132009957Y-60000000D01*
X132010104Y-59831176D01*
X131918952Y-59610571D01*
X131750317Y-59441641D01*
X131529871Y-59350104D01*
X131291176Y-59349896D01*
X131070571Y-59441048D01*
X130901641Y-59609683D01*
X130810104Y-59830129D01*
X130809896Y-60068824D01*
X130860000Y-60190085D01*
X130860000Y-60263604D01*
X130285000Y-60838604D01*
X130285000Y-59805330D01*
X131315330Y-58775000D01*
X160504670Y-58775000D01*
X161535000Y-59805330D01*
M02*
