%TF.GenerationSoftware,KiCad,Pcbnew,(2017-09-19 revision dddaa7e69)-makepkg*%
%TF.CreationDate,2017-11-22T17:56:27+10:30*%
%TF.ProjectId,din_meter_atm90e26,64696E5F6D657465725F61746D393065,rev?*%
%TF.SameCoordinates,Original*%
%TF.FileFunction,Soldermask,Bot*%
%TF.FilePolarity,Negative*%
%FSLAX46Y46*%
G04 Gerber Fmt 4.6, Leading zero omitted, Abs format (unit mm)*
G04 Created by KiCad (PCBNEW (2017-09-19 revision dddaa7e69)-makepkg) date 11/22/17 17:56:27*
%MOMM*%
%LPD*%
G01*
G04 APERTURE LIST*
%ADD10C,1.300000*%
%ADD11R,1.570000X1.270000*%
%ADD12R,1.875000X1.875000*%
%ADD13C,1.875000*%
%ADD14O,0.950000X0.950000*%
%ADD15R,0.950000X4.900000*%
%ADD16R,0.950000X3.900000*%
G04 APERTURE END LIST*
D10*
%TO.C,IRQ_1*%
X138910000Y-70150000D03*
%TD*%
%TO.C,ZX_1*%
X138910000Y-68900000D03*
%TD*%
%TO.C,WARN_1*%
X138910000Y-73900000D03*
%TD*%
%TO.C,CF1_1*%
X138910000Y-72650000D03*
%TD*%
%TO.C,CF2_1*%
X138910000Y-71400000D03*
%TD*%
%TO.C,ZX_0*%
X152660000Y-70400000D03*
%TD*%
%TO.C,IRQ_0*%
X152660000Y-69150000D03*
%TD*%
%TO.C,CF2_0*%
X152660000Y-67900000D03*
%TD*%
%TO.C,CF1_0*%
X152660000Y-66650000D03*
%TD*%
%TO.C,WARN_0*%
X152660000Y-65400000D03*
%TD*%
D11*
%TO.C,J2*%
X137160000Y-64130000D03*
X137160000Y-65400000D03*
X137160000Y-66670000D03*
%TD*%
%TO.C,J1*%
X137160000Y-71380000D03*
X137160000Y-72650000D03*
X137160000Y-73920000D03*
%TD*%
%TO.C,J3*%
X139160000Y-64130000D03*
X139160000Y-65400000D03*
X139160000Y-66670000D03*
%TD*%
D12*
%TO.C,J5*%
X154907000Y-61341000D03*
D13*
X152907000Y-61341000D03*
X150907000Y-61341000D03*
X148907000Y-61341000D03*
X146907000Y-61341000D03*
X144907000Y-61341000D03*
X142907000Y-61341000D03*
X140907000Y-61341000D03*
X138907000Y-61341000D03*
X136907000Y-61341000D03*
%TD*%
D11*
%TO.C,J8*%
X152410000Y-75170000D03*
X152410000Y-73900000D03*
X152410000Y-72630000D03*
%TD*%
%TO.C,J7*%
X154410000Y-75170000D03*
X154410000Y-73900000D03*
X154410000Y-72630000D03*
%TD*%
%TO.C,J6*%
X154410000Y-67920000D03*
X154410000Y-66650000D03*
X154410000Y-65380000D03*
%TD*%
D14*
%TO.C,J4*%
X136508000Y-87723000D03*
X154508000Y-87723000D03*
X153508000Y-87723000D03*
X148508000Y-87723000D03*
X145508000Y-87723000D03*
X152508000Y-87723000D03*
X149508000Y-87723000D03*
X137508000Y-87723000D03*
X151508000Y-87723000D03*
X150508000Y-87723000D03*
X144508000Y-87723000D03*
X143508000Y-87723000D03*
X142508000Y-87723000D03*
X141508000Y-87723000D03*
X140508000Y-87723000D03*
X139508000Y-87723000D03*
X138508000Y-87723000D03*
D15*
X149508000Y-85423000D03*
X148508000Y-85423000D03*
X154508000Y-85423000D03*
X153508000Y-85423000D03*
X152508000Y-85423000D03*
X151508000Y-85423000D03*
X150508000Y-85423000D03*
X145508000Y-85423000D03*
X144508000Y-85423000D03*
X143508000Y-85423000D03*
X142508000Y-85423000D03*
X141508000Y-85423000D03*
X140508000Y-85423000D03*
X139508000Y-85423000D03*
X138508000Y-85423000D03*
X137508000Y-85423000D03*
X136508000Y-85423000D03*
D16*
X135508000Y-84923000D03*
%TD*%
M02*
