G04 #@! TF.GenerationSoftware,KiCad,Pcbnew,(2018-01-07 revision 47989ccfc)-makepkg*
G04 #@! TF.CreationDate,2018-01-22T22:08:51+10:30*
G04 #@! TF.ProjectId,din_meter_atm90e26,64696E5F6D657465725F61746D393065,rev?*
G04 #@! TF.SameCoordinates,Original*
G04 #@! TF.FileFunction,Copper,L1,Top,Mixed*
G04 #@! TF.FilePolarity,Positive*
%FSLAX46Y46*%
G04 Gerber Fmt 4.6, Leading zero omitted, Abs format (unit mm)*
G04 Created by KiCad (PCBNEW (2018-01-07 revision 47989ccfc)-makepkg) date 01/22/18 22:08:51*
%MOMM*%
%LPD*%
G01*
G04 APERTURE LIST*
%ADD10R,1.750000X0.450000*%
%ADD11R,0.500000X0.600000*%
%ADD12R,0.400000X0.600000*%
%ADD13R,0.600000X0.400000*%
%ADD14R,2.400000X2.000000*%
%ADD15R,0.600000X0.500000*%
%ADD16R,1.575000X1.575000*%
%ADD17C,1.575000*%
%ADD18R,0.750000X0.800000*%
%ADD19C,0.650000*%
%ADD20R,0.650000X4.600000*%
%ADD21R,0.650000X3.600000*%
%ADD22C,0.600000*%
%ADD23C,0.150000*%
%ADD24C,0.300000*%
%ADD25C,0.400000*%
%ADD26C,0.200000*%
G04 APERTURE END LIST*
D10*
X149810000Y-73875000D03*
X149810000Y-73225000D03*
X149810000Y-72575000D03*
X149810000Y-71925000D03*
X149810000Y-71275000D03*
X149810000Y-70625000D03*
X149810000Y-69975000D03*
X149810000Y-69325000D03*
X149810000Y-68675000D03*
X149810000Y-68025000D03*
X149810000Y-67375000D03*
X149810000Y-66725000D03*
X149810000Y-66075000D03*
X149810000Y-65425000D03*
X157010000Y-65425000D03*
X157010000Y-66075000D03*
X157010000Y-66725000D03*
X157010000Y-67375000D03*
X157010000Y-68025000D03*
X157010000Y-68675000D03*
X157010000Y-69325000D03*
X157010000Y-69975000D03*
X157010000Y-70625000D03*
X157010000Y-71275000D03*
X157010000Y-71925000D03*
X157010000Y-72575000D03*
X157010000Y-73225000D03*
X157010000Y-73875000D03*
D11*
X143660000Y-72450000D03*
X143660000Y-71350000D03*
D12*
X133260000Y-59950000D03*
X132360000Y-59950000D03*
X133260000Y-62150000D03*
X132360000Y-62150000D03*
D11*
X153160000Y-77350000D03*
X153160000Y-78450000D03*
X156160000Y-77150000D03*
X156160000Y-76050000D03*
X140660000Y-78450000D03*
X140660000Y-77350000D03*
X143160000Y-77350000D03*
X143160000Y-78450000D03*
D13*
X154410000Y-77450000D03*
X154410000Y-78350000D03*
X144410000Y-78350000D03*
X144410000Y-77450000D03*
X157410000Y-76150000D03*
X157410000Y-77050000D03*
X141910000Y-78350000D03*
X141910000Y-77450000D03*
D14*
X145160000Y-68250000D03*
X145160000Y-64550000D03*
X146410000Y-74750000D03*
X146410000Y-71050000D03*
D11*
X150660000Y-78450000D03*
X150660000Y-77350000D03*
X148160000Y-77350000D03*
X148160000Y-78450000D03*
X138160000Y-78450000D03*
X138160000Y-77350000D03*
X135210000Y-76100000D03*
X135210000Y-77200000D03*
D13*
X151910000Y-78350000D03*
X151910000Y-77450000D03*
X149410000Y-78350000D03*
X149410000Y-77450000D03*
X139410000Y-77450000D03*
X139410000Y-78350000D03*
X136410000Y-77100000D03*
X136410000Y-76200000D03*
D15*
X153710000Y-63400000D03*
X152610000Y-63400000D03*
D11*
X145660000Y-77350000D03*
X145660000Y-78450000D03*
D12*
X151360000Y-63400000D03*
X150460000Y-63400000D03*
D13*
X146910000Y-78350000D03*
X146910000Y-77450000D03*
D16*
X154907000Y-61341000D03*
D17*
X152907000Y-61341000D03*
X150907000Y-61341000D03*
X148907000Y-61341000D03*
X146907000Y-61341000D03*
X144907000Y-61341000D03*
X142907000Y-61341000D03*
X140907000Y-61341000D03*
X138907000Y-61341000D03*
X136907000Y-61341000D03*
D11*
X159160000Y-70450000D03*
X159160000Y-69350000D03*
X160660000Y-70450000D03*
X160660000Y-69350000D03*
X159160000Y-64850000D03*
X159160000Y-65950000D03*
X143660000Y-74950000D03*
X143660000Y-73850000D03*
D18*
X159160000Y-71900000D03*
X159160000Y-73400000D03*
X160660000Y-66150000D03*
X160660000Y-64650000D03*
D11*
X147910000Y-65450000D03*
X147910000Y-64350000D03*
X147910000Y-67950000D03*
X147910000Y-66850000D03*
X132410000Y-74450000D03*
X132410000Y-73350000D03*
X130910000Y-68850000D03*
X130910000Y-69950000D03*
X132410000Y-68850000D03*
X132410000Y-69950000D03*
D18*
X130910000Y-74650000D03*
X130910000Y-73150000D03*
X132410000Y-67400000D03*
X132410000Y-65900000D03*
D19*
X136508000Y-87723000D03*
X152508000Y-87723000D03*
X151508000Y-87723000D03*
X150508000Y-87723000D03*
X149508000Y-87723000D03*
X148508000Y-87723000D03*
X135508000Y-87723000D03*
X145508000Y-87723000D03*
X144508000Y-87723000D03*
X143508000Y-87723000D03*
X142508000Y-87723000D03*
X141508000Y-87723000D03*
X140508000Y-87723000D03*
X139508000Y-87723000D03*
X138508000Y-87723000D03*
X137508000Y-87723000D03*
D20*
X149508000Y-85423000D03*
X148508000Y-85423000D03*
X154508000Y-85423000D03*
D21*
X153508000Y-84923000D03*
D20*
X152508000Y-85423000D03*
X151508000Y-85423000D03*
X150508000Y-85423000D03*
X145508000Y-85423000D03*
X144508000Y-85423000D03*
X143508000Y-85423000D03*
X142508000Y-85423000D03*
X141508000Y-85423000D03*
X140508000Y-85423000D03*
X139508000Y-85423000D03*
X138508000Y-85423000D03*
X137508000Y-85423000D03*
X136508000Y-85423000D03*
X135508000Y-85423000D03*
D19*
X154508000Y-87723000D03*
D10*
X141760000Y-65425000D03*
X141760000Y-66075000D03*
X141760000Y-66725000D03*
X141760000Y-67375000D03*
X141760000Y-68025000D03*
X141760000Y-68675000D03*
X141760000Y-69325000D03*
X141760000Y-69975000D03*
X141760000Y-70625000D03*
X141760000Y-71275000D03*
X141760000Y-71925000D03*
X141760000Y-72575000D03*
X141760000Y-73225000D03*
X141760000Y-73875000D03*
X134560000Y-73875000D03*
X134560000Y-73225000D03*
X134560000Y-72575000D03*
X134560000Y-71925000D03*
X134560000Y-71275000D03*
X134560000Y-70625000D03*
X134560000Y-69975000D03*
X134560000Y-69325000D03*
X134560000Y-68675000D03*
X134560000Y-68025000D03*
X134560000Y-67375000D03*
X134560000Y-66725000D03*
X134560000Y-66075000D03*
X134560000Y-65425000D03*
D22*
X140410000Y-65400000D03*
X144410000Y-74350000D03*
X141360000Y-75100000D03*
X141710000Y-62500000D03*
X146860000Y-69200000D03*
X146610000Y-66850000D03*
X144260000Y-70150000D03*
X144510000Y-72650000D03*
X144910000Y-66350000D03*
X146010000Y-63050000D03*
X144710000Y-70800000D03*
X144710000Y-71900000D03*
X135910000Y-72650000D03*
X148704000Y-79056000D03*
X145004854Y-78953823D03*
X138042239Y-79321293D03*
X142843593Y-79101660D03*
X144132000Y-80580000D03*
X155660000Y-70650000D03*
X151460000Y-71450000D03*
X135910000Y-68650000D03*
X138560000Y-67800000D03*
X131610000Y-59100000D03*
X136010000Y-60150000D03*
X134010000Y-62150000D03*
X160010000Y-59250000D03*
X152310000Y-59250000D03*
X145910000Y-60000000D03*
X159160000Y-74400000D03*
X159160000Y-77750000D03*
X143660000Y-73150000D03*
X140660000Y-79400000D03*
X152410000Y-79150000D03*
X149910000Y-79350000D03*
X155410000Y-77150000D03*
X135210000Y-78050000D03*
X151160000Y-74900000D03*
X154660000Y-63400000D03*
X149660000Y-63400000D03*
X140410000Y-64150000D03*
X135910000Y-64150000D03*
X135910000Y-73900000D03*
X132410000Y-64900000D03*
X132410000Y-70900000D03*
X132410000Y-75400000D03*
X147910000Y-66150000D03*
X159160000Y-63900000D03*
X159160000Y-68400000D03*
X155660000Y-75150000D03*
X155660000Y-65400000D03*
X135910000Y-65400000D03*
X147310000Y-76350000D03*
X150360000Y-74650000D03*
X144260000Y-76700000D03*
X154410000Y-68950000D03*
X137160000Y-70350000D03*
X135910000Y-66650000D03*
X155660000Y-72650000D03*
X151160000Y-73900000D03*
X155660000Y-66650000D03*
X155660000Y-73900000D03*
X147160000Y-63800000D03*
X147160000Y-64900000D03*
X147160000Y-67400000D03*
X147360000Y-68600000D03*
X151660000Y-70400000D03*
X151660000Y-69150000D03*
X151660000Y-67900000D03*
X151660000Y-66650000D03*
X151660000Y-65400000D03*
X139560000Y-80580000D03*
X136685978Y-80319685D03*
X136004000Y-80580000D03*
X141010000Y-64700000D03*
X140410000Y-66150000D03*
X139910000Y-68900000D03*
X139910000Y-70150000D03*
X139910000Y-71400000D03*
X139910000Y-72650000D03*
X139910000Y-73900000D03*
X138290000Y-80580000D03*
X131410000Y-59950000D03*
X141410000Y-79050000D03*
X152560000Y-80300000D03*
X148733208Y-80456023D03*
X157410000Y-77750000D03*
X144210007Y-78480403D03*
X151610000Y-80000000D03*
X160210000Y-62250000D03*
X161010000Y-60450000D03*
X131610000Y-62150000D03*
D23*
X140435000Y-65425000D02*
X140410000Y-65400000D01*
X141760000Y-65425000D02*
X140435000Y-65425000D01*
X142985000Y-66075000D02*
X143160000Y-65900000D01*
X141760000Y-66075000D02*
X142985000Y-66075000D01*
X143160000Y-65900000D02*
X143160000Y-61594000D01*
X143160000Y-61594000D02*
X142907000Y-61341000D01*
X141360000Y-75100000D02*
X141085002Y-75374998D01*
X148510000Y-73100000D02*
X144810000Y-73100000D01*
X144810000Y-73100000D02*
X144410000Y-73500000D01*
X144410000Y-73500000D02*
X144410000Y-74350000D01*
X149810000Y-73225000D02*
X148635000Y-73225000D01*
X148635000Y-73225000D02*
X148510000Y-73100000D01*
X140660000Y-63550000D02*
X141710000Y-62500000D01*
X140110000Y-63550000D02*
X140660000Y-63550000D01*
X139810000Y-63850000D02*
X140110000Y-63550000D01*
X139810000Y-67900000D02*
X139810000Y-63850000D01*
X139310000Y-68400000D02*
X139810000Y-67900000D01*
X139310000Y-71350000D02*
X139310000Y-68400000D01*
X139060000Y-71600000D02*
X139310000Y-71350000D01*
X139060000Y-74500000D02*
X139060000Y-71600000D01*
X139260000Y-74700000D02*
X139060000Y-74500000D01*
X139510000Y-74700000D02*
X139260000Y-74700000D01*
X140184998Y-75374998D02*
X139510000Y-74700000D01*
X141085002Y-75374998D02*
X140184998Y-75374998D01*
X143160000Y-61594000D02*
X142907000Y-61341000D01*
X146610000Y-66150000D02*
X146260000Y-65800000D01*
X143710000Y-66200000D02*
X143910000Y-66200000D01*
X144760000Y-69650000D02*
X146710000Y-69650000D01*
X146710000Y-69650000D02*
X146860000Y-69500000D01*
X146860000Y-69500000D02*
X146860000Y-69200000D01*
X146610000Y-66850000D02*
X146610000Y-66150000D01*
X148285000Y-72575000D02*
X149810000Y-72575000D01*
X144610000Y-72750000D02*
X144510000Y-72650000D01*
X148110000Y-72750000D02*
X144610000Y-72750000D01*
X148285000Y-72575000D02*
X148110000Y-72750000D01*
X144260000Y-70150000D02*
X144760000Y-69650000D01*
X144310000Y-65800000D02*
X143910000Y-66200000D01*
X146260000Y-65800000D02*
X144310000Y-65800000D01*
X143085000Y-66725000D02*
X143185000Y-66725000D01*
X143510000Y-62738000D02*
X143660000Y-62588000D01*
X144907000Y-61341000D02*
X143660000Y-62588000D01*
X143085000Y-66725000D02*
X141760000Y-66725000D01*
X143510000Y-65500000D02*
X143510000Y-62738000D01*
X143710000Y-65700000D02*
X143510000Y-65500000D01*
X143710000Y-66200000D02*
X143710000Y-65700000D01*
X143185000Y-66725000D02*
X143710000Y-66200000D01*
X143610000Y-66750000D02*
X143810000Y-66550000D01*
X143185000Y-67375000D02*
X143185000Y-67175000D01*
X143185000Y-67175000D02*
X143610000Y-66750000D01*
X144710000Y-66150000D02*
X144910000Y-66350000D01*
X144460000Y-66150000D02*
X144710000Y-66150000D01*
X144060000Y-66550000D02*
X144460000Y-66150000D01*
X143810000Y-66550000D02*
X144060000Y-66550000D01*
X146010000Y-63050000D02*
X146010000Y-62238000D01*
X146010000Y-62238000D02*
X146907000Y-61341000D01*
X143610000Y-69050000D02*
X143610000Y-67800000D01*
X144110000Y-70800000D02*
X143610000Y-70300000D01*
X143610000Y-70300000D02*
X143610000Y-69050000D01*
X148435000Y-71925000D02*
X147960000Y-72400000D01*
X149810000Y-71925000D02*
X148435000Y-71925000D01*
X144910000Y-72100000D02*
X144710000Y-71900000D01*
X144910000Y-72300000D02*
X144910000Y-72100000D01*
X145010000Y-72400000D02*
X144910000Y-72300000D01*
X147960000Y-72400000D02*
X145010000Y-72400000D01*
X144710000Y-70800000D02*
X144110000Y-70800000D01*
X143185000Y-67375000D02*
X143160000Y-67375000D01*
X143160000Y-67375000D02*
X141760000Y-67375000D01*
X143610000Y-67800000D02*
X143185000Y-67375000D01*
D24*
X132960000Y-73350000D02*
X133085000Y-73225000D01*
X133085000Y-73225000D02*
X134560000Y-73225000D01*
X132410000Y-73350000D02*
X132960000Y-73350000D01*
X131860000Y-73350000D02*
X131660000Y-73150000D01*
X131660000Y-73150000D02*
X130910000Y-73150000D01*
X132410000Y-73350000D02*
X131960000Y-73350000D01*
X131960000Y-73350000D02*
X131860000Y-73350000D01*
X130910000Y-73150000D02*
X130410000Y-73150000D01*
D23*
X135910000Y-72650000D02*
X135835000Y-72575000D01*
X135835000Y-72575000D02*
X134560000Y-72575000D01*
D24*
X148166000Y-79056000D02*
X148279736Y-79056000D01*
X148279736Y-79056000D02*
X148704000Y-79056000D01*
X148160000Y-78450000D02*
X148160000Y-79050000D01*
X148160000Y-79050000D02*
X148166000Y-79056000D01*
X145110000Y-79050000D02*
X145101031Y-79050000D01*
X145101031Y-79050000D02*
X145004854Y-78953823D01*
X145660000Y-78500000D02*
X145110000Y-79050000D01*
X145660000Y-78450000D02*
X145660000Y-78500000D01*
X138160000Y-79203532D02*
X138042239Y-79321293D01*
X138160000Y-78450000D02*
X138160000Y-79203532D01*
X143160000Y-78450000D02*
X143160000Y-78785253D01*
X143143592Y-78801661D02*
X142843593Y-79101660D01*
X143160000Y-78785253D02*
X143143592Y-78801661D01*
X155685000Y-70625000D02*
X155660000Y-70650000D01*
X157010000Y-70625000D02*
X155685000Y-70625000D01*
X134560000Y-68675000D02*
X135885000Y-68675000D01*
X135885000Y-68675000D02*
X135910000Y-68650000D01*
X136010000Y-60150000D02*
X134910000Y-59050000D01*
X131660000Y-59050000D02*
X131610000Y-59100000D01*
X134910000Y-59050000D02*
X131660000Y-59050000D01*
X133910000Y-62150000D02*
X134010000Y-62150000D01*
X133260000Y-62150000D02*
X133910000Y-62150000D01*
X136010000Y-60150000D02*
X134010000Y-62150000D01*
X151560000Y-60000000D02*
X152310000Y-59250000D01*
X145910000Y-60000000D02*
X151560000Y-60000000D01*
X159160000Y-77750000D02*
X159160000Y-74400000D01*
X159160000Y-74400000D02*
X159160000Y-73400000D01*
X140660000Y-78450000D02*
X140660000Y-79400000D01*
X153160000Y-79000000D02*
X153010000Y-79150000D01*
X153160000Y-78450000D02*
X153160000Y-79000000D01*
X153010000Y-79150000D02*
X152410000Y-79150000D01*
X150660000Y-78450000D02*
X150660000Y-79000000D01*
X150310000Y-79350000D02*
X149910000Y-79350000D01*
X150660000Y-79000000D02*
X150310000Y-79350000D01*
X156160000Y-77150000D02*
X155410000Y-77150000D01*
X135210000Y-77200000D02*
X135210000Y-78050000D01*
X146910000Y-78350000D02*
X146310000Y-78350000D01*
X146210000Y-78450000D02*
X145660000Y-78450000D01*
X146310000Y-78350000D02*
X146210000Y-78450000D01*
X153710000Y-63400000D02*
X154660000Y-63400000D01*
X150460000Y-63400000D02*
X149660000Y-63400000D01*
X143660000Y-73150000D02*
X143660000Y-73850000D01*
X143660000Y-72450000D02*
X143660000Y-73150000D01*
X130910000Y-69950000D02*
X130460000Y-69950000D01*
X160660000Y-69350000D02*
X161110000Y-69350000D01*
X132960000Y-69950000D02*
X133160000Y-70150000D01*
X133160000Y-70150000D02*
X133160000Y-70400000D01*
X133160000Y-70400000D02*
X133385000Y-70625000D01*
X133385000Y-70625000D02*
X134560000Y-70625000D01*
X132410000Y-69950000D02*
X132960000Y-69950000D01*
X133335000Y-66075000D02*
X134560000Y-66075000D01*
X133335000Y-66075000D02*
X133160000Y-65900000D01*
X132410000Y-65900000D02*
X133160000Y-65900000D01*
X133435000Y-73875000D02*
X133160000Y-74150000D01*
X133160000Y-74150000D02*
X133160000Y-74400000D01*
X133160000Y-74400000D02*
X133110000Y-74450000D01*
X133110000Y-74450000D02*
X132410000Y-74450000D01*
X134560000Y-73875000D02*
X133435000Y-73875000D01*
X131860000Y-74450000D02*
X131660000Y-74650000D01*
X131660000Y-74650000D02*
X130410000Y-74650000D01*
X132410000Y-74450000D02*
X131860000Y-74450000D01*
X130910000Y-74650000D02*
X131660000Y-74650000D01*
X135885000Y-73875000D02*
X135910000Y-73900000D01*
X134560000Y-73875000D02*
X135885000Y-73875000D01*
X132410000Y-65900000D02*
X132410000Y-64900000D01*
X132410000Y-69950000D02*
X132410000Y-70900000D01*
X132410000Y-74450000D02*
X132410000Y-75400000D01*
X132410000Y-69950000D02*
X130910000Y-69950000D01*
X147910000Y-66850000D02*
X147910000Y-66150000D01*
X147910000Y-66150000D02*
X147910000Y-65450000D01*
X159160000Y-69350000D02*
X160660000Y-69350000D01*
X159160000Y-64850000D02*
X159160000Y-63900000D01*
X159160000Y-69350000D02*
X159160000Y-68400000D01*
X157010000Y-65425000D02*
X155685000Y-65425000D01*
X155685000Y-65425000D02*
X155660000Y-65400000D01*
X160660000Y-64650000D02*
X159910000Y-64650000D01*
X159160000Y-64850000D02*
X159710000Y-64850000D01*
X159910000Y-64650000D02*
X161160000Y-64650000D01*
X159710000Y-64850000D02*
X159910000Y-64650000D01*
X157010000Y-65425000D02*
X158135000Y-65425000D01*
X158460000Y-64850000D02*
X159160000Y-64850000D01*
X158410000Y-64900000D02*
X158460000Y-64850000D01*
X158410000Y-65150000D02*
X158410000Y-64900000D01*
X158135000Y-65425000D02*
X158410000Y-65150000D01*
X159160000Y-73400000D02*
X158410000Y-73400000D01*
X158235000Y-73225000D02*
X158410000Y-73400000D01*
X158235000Y-73225000D02*
X157010000Y-73225000D01*
X159160000Y-69350000D02*
X158610000Y-69350000D01*
X158185000Y-68675000D02*
X157010000Y-68675000D01*
X158410000Y-68900000D02*
X158185000Y-68675000D01*
X158410000Y-69150000D02*
X158410000Y-68900000D01*
X158610000Y-69350000D02*
X158410000Y-69150000D01*
D23*
X135885000Y-65425000D02*
X135910000Y-65400000D01*
X134560000Y-65425000D02*
X135885000Y-65425000D01*
D24*
X139960000Y-75800000D02*
X141960000Y-75800000D01*
X147310000Y-76350000D02*
X147560000Y-76350000D01*
X138610000Y-71800000D02*
X138610000Y-74900000D01*
X138610000Y-74900000D02*
X138610000Y-74950000D01*
X138610000Y-74950000D02*
X138810000Y-75150000D01*
X138810000Y-75150000D02*
X139310000Y-75150000D01*
X139310000Y-75150000D02*
X139960000Y-75800000D01*
X137160000Y-70350000D02*
X138610000Y-71800000D01*
X150360000Y-75550000D02*
X150360000Y-74650000D01*
X150260000Y-75650000D02*
X150360000Y-75550000D01*
X148260000Y-75650000D02*
X150260000Y-75650000D01*
X147560000Y-76350000D02*
X148260000Y-75650000D01*
X144160000Y-76600000D02*
X144260000Y-76700000D01*
X142760000Y-76600000D02*
X144160000Y-76600000D01*
X141960000Y-75800000D02*
X142760000Y-76600000D01*
X134560000Y-68025000D02*
X133285000Y-68025000D01*
X133285000Y-68025000D02*
X133160000Y-67900000D01*
X133160000Y-67400000D02*
X133160000Y-67900000D01*
X133160000Y-67900000D02*
X133285000Y-68025000D01*
X133160000Y-67400000D02*
X134535000Y-67400000D01*
X134535000Y-67400000D02*
X134560000Y-67375000D01*
X133160000Y-66900000D02*
X133160000Y-67400000D01*
X134560000Y-66725000D02*
X133335000Y-66725000D01*
X133335000Y-66725000D02*
X133160000Y-66900000D01*
X158410000Y-71925000D02*
X158410000Y-71400000D01*
X158410000Y-71400000D02*
X158285000Y-71275000D01*
X157010000Y-71925000D02*
X158410000Y-71925000D01*
X158410000Y-71925000D02*
X158410000Y-71950000D01*
X157010000Y-71275000D02*
X158285000Y-71275000D01*
X158285000Y-71275000D02*
X158410000Y-71400000D01*
X154410000Y-68950000D02*
X154410000Y-71400000D01*
X154410000Y-71400000D02*
X155660000Y-72650000D01*
X137160000Y-70350000D02*
X137160000Y-67200000D01*
X137160000Y-67200000D02*
X136610000Y-66650000D01*
X136610000Y-66650000D02*
X135910000Y-66650000D01*
X131910000Y-67400000D02*
X131660000Y-67400000D01*
X132410000Y-67400000D02*
X131910000Y-67400000D01*
X133810000Y-59950000D02*
X133260000Y-59950000D01*
X134010000Y-60150000D02*
X133810000Y-59950000D01*
X134010000Y-60650000D02*
X134010000Y-60150000D01*
X133710000Y-60950000D02*
X134010000Y-60650000D01*
X131810000Y-60950000D02*
X133710000Y-60950000D01*
X130910000Y-61850000D02*
X131810000Y-60950000D01*
X130910000Y-62450000D02*
X130910000Y-61850000D01*
X131410000Y-62950000D02*
X130910000Y-62450000D01*
X131410000Y-67150000D02*
X131410000Y-62950000D01*
X131660000Y-67400000D02*
X131410000Y-67150000D01*
X130910000Y-68850000D02*
X130460000Y-68850000D01*
X160660000Y-70450000D02*
X161110000Y-70450000D01*
X134535000Y-67400000D02*
X134560000Y-67375000D01*
X132410000Y-67400000D02*
X133160000Y-67400000D01*
X133335000Y-66725000D02*
X133160000Y-66900000D01*
X133160000Y-66900000D02*
X133160000Y-67900000D01*
X133160000Y-67900000D02*
X133285000Y-68025000D01*
X132960000Y-68850000D02*
X133160000Y-68650000D01*
X132410000Y-68850000D02*
X132960000Y-68850000D01*
X133160000Y-68650000D02*
X133160000Y-67900000D01*
X135910000Y-66650000D02*
X135835000Y-66725000D01*
X135835000Y-66725000D02*
X134560000Y-66725000D01*
X131960000Y-68850000D02*
X132410000Y-68850000D01*
X130910000Y-68850000D02*
X131960000Y-68850000D01*
X160660000Y-70450000D02*
X159610000Y-70450000D01*
X159610000Y-70450000D02*
X159160000Y-70450000D01*
X155735000Y-72575000D02*
X157010000Y-72575000D01*
X155660000Y-72650000D02*
X155735000Y-72575000D01*
X159160000Y-71900000D02*
X159660000Y-71900000D01*
X159160000Y-70450000D02*
X158610000Y-70450000D01*
X158610000Y-70450000D02*
X158410000Y-70650000D01*
X158410000Y-70650000D02*
X158410000Y-71400000D01*
X157010000Y-72575000D02*
X158235000Y-72575000D01*
X158235000Y-72575000D02*
X158410000Y-72400000D01*
X158410000Y-72400000D02*
X158410000Y-71950000D01*
X158410000Y-71400000D02*
X158285000Y-71275000D01*
X158410000Y-71950000D02*
X158410000Y-71400000D01*
X159160000Y-71900000D02*
X157035000Y-71900000D01*
X157035000Y-71900000D02*
X157010000Y-71925000D01*
D23*
X149810000Y-73875000D02*
X151135000Y-73875000D01*
X151135000Y-73875000D02*
X151160000Y-73900000D01*
D24*
X160660000Y-66150000D02*
X161160000Y-66150000D01*
X159610000Y-65950000D02*
X159710000Y-65950000D01*
X159160000Y-65950000D02*
X159610000Y-65950000D01*
X159910000Y-66150000D02*
X160660000Y-66150000D01*
X159710000Y-65950000D02*
X159910000Y-66150000D01*
X159160000Y-65950000D02*
X158610000Y-65950000D01*
X158485000Y-66075000D02*
X157010000Y-66075000D01*
X158610000Y-65950000D02*
X158485000Y-66075000D01*
D23*
X155735000Y-66725000D02*
X157010000Y-66725000D01*
X155660000Y-66650000D02*
X155735000Y-66725000D01*
X157010000Y-73875000D02*
X155685000Y-73875000D01*
X155685000Y-73875000D02*
X155660000Y-73900000D01*
X148410000Y-71150000D02*
X147960000Y-70700000D01*
X148535000Y-71275000D02*
X148410000Y-71150000D01*
X149810000Y-71275000D02*
X148535000Y-71275000D01*
X147160000Y-63088000D02*
X148907000Y-61341000D01*
X147160000Y-63800000D02*
X147160000Y-63088000D01*
X147160000Y-67400000D02*
X147160000Y-64900000D01*
X147560000Y-68600000D02*
X147360000Y-68600000D01*
X147960000Y-69000000D02*
X147560000Y-68600000D01*
X147960000Y-70700000D02*
X147960000Y-69000000D01*
X148310000Y-69050000D02*
X148310000Y-68850000D01*
X148310000Y-70300000D02*
X148310000Y-69050000D01*
X149810000Y-70625000D02*
X148635000Y-70625000D01*
X148635000Y-70625000D02*
X148310000Y-70300000D01*
X147910000Y-68450000D02*
X147910000Y-67950000D01*
X148310000Y-68850000D02*
X147910000Y-68450000D01*
X145160000Y-68000000D02*
X146560000Y-68000000D01*
X146610000Y-67950000D02*
X147910000Y-67950000D01*
X146560000Y-68000000D02*
X146610000Y-67950000D01*
X147910000Y-64350000D02*
X148360000Y-64350000D01*
X148735000Y-69975000D02*
X149810000Y-69975000D01*
X148660000Y-69900000D02*
X148735000Y-69975000D01*
X148660000Y-64650000D02*
X148660000Y-69900000D01*
X148360000Y-64350000D02*
X148660000Y-64650000D01*
X145160000Y-64300000D02*
X146560000Y-64300000D01*
X146610000Y-64350000D02*
X147910000Y-64350000D01*
X146560000Y-64300000D02*
X146610000Y-64350000D01*
X149810000Y-69325000D02*
X151085000Y-69325000D01*
X151660000Y-69900000D02*
X151660000Y-70400000D01*
X151085000Y-69325000D02*
X151660000Y-69900000D01*
X149810000Y-68675000D02*
X151185000Y-68675000D01*
X151185000Y-68675000D02*
X151660000Y-69150000D01*
X151535000Y-68025000D02*
X149810000Y-68025000D01*
X151660000Y-67900000D02*
X151535000Y-68025000D01*
X149810000Y-67375000D02*
X151185000Y-67375000D01*
X151660000Y-66900000D02*
X151660000Y-66650000D01*
X151185000Y-67375000D02*
X151660000Y-66900000D01*
X149810000Y-66725000D02*
X150835000Y-66725000D01*
X151660000Y-65900000D02*
X151660000Y-65400000D01*
X150835000Y-66725000D02*
X151660000Y-65900000D01*
X152210000Y-75100000D02*
X151660000Y-75650000D01*
X147510000Y-77050000D02*
X147510000Y-78639442D01*
X147510000Y-78639442D02*
X146948466Y-79200976D01*
X139984264Y-80580000D02*
X139560000Y-80580000D01*
X152210000Y-64950000D02*
X152210000Y-75100000D01*
X142827710Y-80355009D02*
X140209255Y-80355009D01*
X150410000Y-76150000D02*
X148410000Y-76150000D01*
X151660000Y-75650000D02*
X150910000Y-75650000D01*
X143551717Y-79631002D02*
X142827710Y-80355009D01*
X145170002Y-79631002D02*
X143551717Y-79631002D01*
X145600028Y-79200976D02*
X145170002Y-79631002D01*
X150910000Y-75650000D02*
X150410000Y-76150000D01*
X146948466Y-79200976D02*
X145600028Y-79200976D01*
X148410000Y-76150000D02*
X147510000Y-77050000D01*
X140209255Y-80355009D02*
X139984264Y-80580000D01*
X136004000Y-80580000D02*
X136428264Y-80580000D01*
X136685978Y-80322286D02*
X136685978Y-80319685D01*
X136428264Y-80580000D02*
X136685978Y-80322286D01*
X148410000Y-76150000D02*
X148410000Y-76150000D01*
X152210000Y-64950000D02*
X152210000Y-65000000D01*
X152210000Y-65000000D02*
X152210000Y-64950000D01*
X150985000Y-66075000D02*
X149810000Y-66075000D01*
X150985000Y-66075000D02*
X150985000Y-65075000D01*
X150985000Y-65075000D02*
X151410000Y-64650000D01*
X151410000Y-64650000D02*
X151910000Y-64650000D01*
X151910000Y-64650000D02*
X152210000Y-64950000D01*
X151910000Y-63400000D02*
X151910000Y-63900000D01*
X149810000Y-64750000D02*
X149810000Y-65425000D01*
X149910000Y-64650000D02*
X149810000Y-64750000D01*
X150660000Y-64650000D02*
X149910000Y-64650000D01*
X151160000Y-64150000D02*
X150660000Y-64650000D01*
X151660000Y-64150000D02*
X151160000Y-64150000D01*
X151910000Y-63900000D02*
X151660000Y-64150000D01*
X152610000Y-63400000D02*
X151910000Y-63400000D01*
X151910000Y-63400000D02*
X151360000Y-63400000D01*
X136660000Y-72650000D02*
X136660000Y-75400000D01*
X134560000Y-71925000D02*
X135935000Y-71925000D01*
X135935000Y-71925000D02*
X136660000Y-72650000D01*
X136660000Y-75400000D02*
X136410000Y-75650000D01*
X135210000Y-76100000D02*
X135210000Y-75550000D01*
X136410000Y-75650000D02*
X136410000Y-76200000D01*
X136210000Y-75450000D02*
X136410000Y-75650000D01*
X135310000Y-75450000D02*
X136210000Y-75450000D01*
X135210000Y-75550000D02*
X135310000Y-75450000D01*
X151660000Y-76650000D02*
X152160000Y-76650000D01*
X155685000Y-68025000D02*
X157010000Y-68025000D01*
X154510000Y-66850000D02*
X155685000Y-68025000D01*
X153560000Y-66850000D02*
X154510000Y-66850000D01*
X152910000Y-67500000D02*
X153560000Y-66850000D01*
X152910000Y-75900000D02*
X152910000Y-67500000D01*
X152160000Y-76650000D02*
X152910000Y-75900000D01*
X151160000Y-76650000D02*
X151660000Y-76650000D01*
X151910000Y-77450000D02*
X151910000Y-76900000D01*
X150910000Y-76650000D02*
X151160000Y-76650000D01*
X150910000Y-76650000D02*
X150660000Y-76900000D01*
X150660000Y-76900000D02*
X150660000Y-77350000D01*
X151660000Y-76650000D02*
X151910000Y-76900000D01*
X153260000Y-76050000D02*
X153410000Y-76200000D01*
X153260000Y-76050000D02*
X153260000Y-67650000D01*
X153260000Y-67650000D02*
X153710000Y-67200000D01*
X153710000Y-67200000D02*
X154360000Y-67200000D01*
X154360000Y-67200000D02*
X155710000Y-68550000D01*
X155710000Y-68550000D02*
X155710000Y-69150000D01*
X155710000Y-69150000D02*
X155885000Y-69325000D01*
X157010000Y-69325000D02*
X155885000Y-69325000D01*
X153410000Y-76200000D02*
X153410000Y-76650000D01*
X154410000Y-77450000D02*
X154410000Y-76900000D01*
X153160000Y-76900000D02*
X153160000Y-77350000D01*
X153410000Y-76650000D02*
X153160000Y-76900000D01*
X154160000Y-76650000D02*
X153910000Y-76650000D01*
X153910000Y-76650000D02*
X153660000Y-76650000D01*
X153660000Y-76650000D02*
X153410000Y-76650000D01*
X154410000Y-76900000D02*
X154160000Y-76650000D01*
X153860000Y-75800000D02*
X153610000Y-75550000D01*
X155560000Y-76050000D02*
X154110000Y-76050000D01*
X156160000Y-76050000D02*
X155560000Y-76050000D01*
X154110000Y-76050000D02*
X153860000Y-75800000D01*
X155785000Y-69975000D02*
X157010000Y-69975000D01*
X155360000Y-69550000D02*
X155785000Y-69975000D01*
X155360000Y-68700000D02*
X155360000Y-69550000D01*
X154210000Y-67550000D02*
X155360000Y-68700000D01*
X153860002Y-67550000D02*
X154210000Y-67550000D01*
X153610000Y-67800002D02*
X153860002Y-67550000D01*
X153610000Y-75550000D02*
X153610000Y-67800002D01*
X156160000Y-76050000D02*
X156510000Y-76050000D01*
X156310000Y-75450000D02*
X156410000Y-75350000D01*
X157410000Y-75600000D02*
X157160000Y-75350000D01*
X156310000Y-75450000D02*
X156160000Y-75600000D01*
X156160000Y-76050000D02*
X156160000Y-75600000D01*
X157410000Y-75600000D02*
X157410000Y-76150000D01*
X156410000Y-75350000D02*
X157160000Y-75350000D01*
X141760000Y-68025000D02*
X140685000Y-68025000D01*
X142810000Y-62800000D02*
X141351000Y-61341000D01*
X142810000Y-64500000D02*
X142810000Y-62800000D01*
X142460000Y-64850000D02*
X142810000Y-64500000D01*
X141160000Y-64850000D02*
X142460000Y-64850000D01*
X141010000Y-64700000D02*
X141160000Y-64850000D01*
X140410000Y-67750000D02*
X140410000Y-66150000D01*
X140685000Y-68025000D02*
X140410000Y-67750000D01*
X141351000Y-61341000D02*
X140907000Y-61341000D01*
X143660000Y-71350000D02*
X143660000Y-70850000D01*
X143260000Y-70450000D02*
X143260000Y-69000000D01*
X143660000Y-70850000D02*
X143260000Y-70450000D01*
X142935000Y-68675000D02*
X141760000Y-68675000D01*
X143260000Y-69000000D02*
X142935000Y-68675000D01*
X145010000Y-71300000D02*
X144960000Y-71350000D01*
X144960000Y-71350000D02*
X143660000Y-71350000D01*
X146410000Y-71300000D02*
X145010000Y-71300000D01*
X143660000Y-74950000D02*
X143210000Y-74950000D01*
X142835000Y-69325000D02*
X141760000Y-69325000D01*
X142910000Y-69400000D02*
X142835000Y-69325000D01*
X142910000Y-74650000D02*
X142910000Y-69400000D01*
X143210000Y-74950000D02*
X142910000Y-74650000D01*
X145010000Y-75000000D02*
X144960000Y-74950000D01*
X144960000Y-74950000D02*
X143660000Y-74950000D01*
X146410000Y-75000000D02*
X145010000Y-75000000D01*
X140485000Y-69975000D02*
X139910000Y-69400000D01*
X139910000Y-69400000D02*
X139910000Y-68900000D01*
X141760000Y-69975000D02*
X140485000Y-69975000D01*
X140385000Y-70625000D02*
X139910000Y-70150000D01*
X141760000Y-70625000D02*
X140385000Y-70625000D01*
X139910000Y-71400000D02*
X140035000Y-71275000D01*
X140035000Y-71275000D02*
X141760000Y-71275000D01*
X140385000Y-71925000D02*
X139910000Y-72400000D01*
X139910000Y-72400000D02*
X139910000Y-72650000D01*
X141760000Y-71925000D02*
X140385000Y-71925000D01*
X140735000Y-72575000D02*
X139910000Y-73400000D01*
X139910000Y-73400000D02*
X139910000Y-73900000D01*
X141760000Y-72575000D02*
X140735000Y-72575000D01*
X141760000Y-73225000D02*
X140735000Y-73225000D01*
X140735000Y-73225000D02*
X140510000Y-73450000D01*
X140660000Y-74350000D02*
X141410000Y-74350000D01*
X138589999Y-80280001D02*
X138290000Y-80580000D01*
X145110000Y-77705000D02*
X144890001Y-77924999D01*
X145110000Y-76700000D02*
X145110000Y-77705000D01*
X141410000Y-74350000D02*
X142910000Y-75850000D01*
X143685001Y-78100966D02*
X143685001Y-79073439D01*
X140510000Y-73450000D02*
X140510000Y-74200000D01*
X140510000Y-74200000D02*
X140660000Y-74350000D01*
X142703442Y-80054998D02*
X138815002Y-80054998D01*
X143685001Y-79073439D02*
X142703442Y-80054998D01*
X144260000Y-75850000D02*
X145110000Y-76700000D01*
X138815002Y-80054998D02*
X138589999Y-80280001D01*
X144890001Y-77924999D02*
X143860968Y-77924999D01*
X142910000Y-75850000D02*
X144260000Y-75850000D01*
X143860968Y-77924999D02*
X143685001Y-78100966D01*
X145910000Y-76650000D02*
X145610000Y-76650000D01*
X144460000Y-75500000D02*
X145610000Y-76650000D01*
X143260000Y-75500000D02*
X142560000Y-74800000D01*
X143260000Y-75500000D02*
X144460000Y-75500000D01*
X141760000Y-74250000D02*
X141910000Y-74400000D01*
X141760000Y-73875000D02*
X141760000Y-74250000D01*
X142160000Y-74400000D02*
X142560000Y-74800000D01*
X141910000Y-74400000D02*
X142160000Y-74400000D01*
X142560000Y-74800000D02*
X142560000Y-74800000D01*
X145910000Y-76650000D02*
X145910000Y-76650000D01*
X146910000Y-77450000D02*
X146910000Y-76900000D01*
X145660000Y-76900000D02*
X145660000Y-77350000D01*
X145910000Y-76650000D02*
X145660000Y-76900000D01*
X146660000Y-76650000D02*
X145910000Y-76650000D01*
X146910000Y-76900000D02*
X146660000Y-76650000D01*
D24*
X132360000Y-59950000D02*
X131410000Y-59950000D01*
D23*
X136410000Y-77450000D02*
X136410000Y-77100000D01*
X137508000Y-82973000D02*
X137210988Y-82675988D01*
X137210988Y-82675988D02*
X137210988Y-78250988D01*
X137210988Y-78250988D02*
X136410000Y-77450000D01*
X137508000Y-85423000D02*
X137508000Y-82973000D01*
X137160000Y-72650000D02*
X137160000Y-76400000D01*
X135785000Y-71275000D02*
X137160000Y-72650000D01*
X134560000Y-71275000D02*
X135785000Y-71275000D01*
X137410000Y-76650000D02*
X138410000Y-76650000D01*
X137160000Y-76400000D02*
X137410000Y-76650000D01*
X139410000Y-77450000D02*
X139410000Y-76900000D01*
X138160000Y-76900000D02*
X138160000Y-77350000D01*
X138410000Y-76650000D02*
X138160000Y-76900000D01*
X139160000Y-76650000D02*
X138410000Y-76650000D01*
X139410000Y-76900000D02*
X139160000Y-76650000D01*
X138121726Y-80054993D02*
X137783999Y-80054993D01*
X137510999Y-82450999D02*
X138508000Y-83448000D01*
X137783999Y-80054993D02*
X137510999Y-80327993D01*
X139410000Y-78766719D02*
X138121726Y-80054993D01*
X137510999Y-80327993D02*
X137510999Y-82450999D01*
X138508000Y-83448000D02*
X138508000Y-85423000D01*
X139410000Y-78350000D02*
X139410000Y-78766719D01*
X149410000Y-78700000D02*
X149279002Y-78830998D01*
X145880708Y-79931013D02*
X143675985Y-79931013D01*
X143675985Y-79931013D02*
X142886010Y-80720988D01*
X146180719Y-79631002D02*
X145880708Y-79931013D01*
X148980002Y-79631002D02*
X146180719Y-79631002D01*
X149279002Y-79332002D02*
X148980002Y-79631002D01*
X149410000Y-78350000D02*
X149410000Y-78700000D01*
X149279002Y-78830998D02*
X149279002Y-79332002D01*
X142235012Y-80720988D02*
X139508000Y-83448000D01*
X139508000Y-83448000D02*
X139508000Y-85423000D01*
X142886010Y-80720988D02*
X142235012Y-80720988D01*
X142546999Y-81409001D02*
X140508000Y-83448000D01*
X144826999Y-81409001D02*
X142546999Y-81409001D01*
X146304987Y-79931013D02*
X144826999Y-81409001D01*
X140508000Y-83448000D02*
X140508000Y-85423000D01*
X151810000Y-78350000D02*
X151460000Y-78700000D01*
X150428987Y-79931013D02*
X146304987Y-79931013D01*
X151460000Y-78900000D02*
X150428987Y-79931013D01*
X151460000Y-78700000D02*
X151460000Y-78900000D01*
X151910000Y-78350000D02*
X151810000Y-78350000D01*
X137660000Y-72650000D02*
X137660000Y-75900000D01*
X135735000Y-69975000D02*
X135910000Y-70150000D01*
X135910000Y-70150000D02*
X135910000Y-70900000D01*
X135910000Y-70900000D02*
X137660000Y-72650000D01*
X134560000Y-69975000D02*
X135735000Y-69975000D01*
X139660000Y-76650000D02*
X140910000Y-76650000D01*
X139160000Y-76150000D02*
X139660000Y-76650000D01*
X137910000Y-76150000D02*
X139160000Y-76150000D01*
X137660000Y-75900000D02*
X137910000Y-76150000D01*
X141910000Y-77450000D02*
X141910000Y-76900000D01*
X140660000Y-76900000D02*
X140660000Y-77350000D01*
X140910000Y-76650000D02*
X140660000Y-76900000D01*
X141660000Y-76650000D02*
X140910000Y-76650000D01*
X141910000Y-76900000D02*
X141660000Y-76650000D01*
X144410000Y-77450000D02*
X144809998Y-77450000D01*
X144410000Y-77450000D02*
X143810000Y-77450000D01*
X143560000Y-77350000D02*
X143160000Y-77350000D01*
X143710000Y-77350000D02*
X143560000Y-77350000D01*
X143810000Y-77450000D02*
X143710000Y-77350000D01*
X141810000Y-76300000D02*
X142510000Y-77000000D01*
X138160000Y-75400000D02*
X138410000Y-75650000D01*
X138410000Y-75650000D02*
X139160000Y-75650000D01*
X139160000Y-75650000D02*
X139810000Y-76300000D01*
X139810000Y-76300000D02*
X141810000Y-76300000D01*
X134560000Y-69325000D02*
X135835000Y-69325000D01*
X135835000Y-69325000D02*
X136410000Y-69900000D01*
X136410000Y-69900000D02*
X136410000Y-70900000D01*
X136410000Y-70900000D02*
X138160000Y-72650000D01*
X138160000Y-72650000D02*
X138160000Y-75400000D01*
X142660000Y-77350000D02*
X143160000Y-77350000D01*
X142510000Y-77200000D02*
X142660000Y-77350000D01*
X142510000Y-77000000D02*
X142510000Y-77200000D01*
X150910000Y-76150000D02*
X152160000Y-76150000D01*
X150910000Y-76150000D02*
X150410000Y-76650000D01*
X149160000Y-76650000D02*
X150410000Y-76650000D01*
X155535000Y-67375000D02*
X157010000Y-67375000D01*
X154660000Y-66500000D02*
X155535000Y-67375000D01*
X153460000Y-66500000D02*
X154660000Y-66500000D01*
X152560000Y-67400000D02*
X153460000Y-66500000D01*
X152560000Y-75750000D02*
X152560000Y-67400000D01*
X152160000Y-76150000D02*
X152560000Y-75750000D01*
X149410000Y-77450000D02*
X149410000Y-76900000D01*
X148160000Y-76900000D02*
X148160000Y-77350000D01*
X148410000Y-76650000D02*
X148160000Y-76900000D01*
X149160000Y-76650000D02*
X148410000Y-76650000D01*
X149410000Y-76900000D02*
X149160000Y-76650000D01*
X152560000Y-80300000D02*
X154508000Y-82248000D01*
X141910000Y-78350000D02*
X141910000Y-78850000D01*
X141910000Y-78850000D02*
X141710000Y-79050000D01*
X141710000Y-79050000D02*
X141410000Y-79050000D01*
X154508000Y-82248000D02*
X154508000Y-85423000D01*
X148508000Y-85423000D02*
X148508000Y-80681231D01*
X148508000Y-80681231D02*
X148733208Y-80456023D01*
X157410000Y-77050000D02*
X157410000Y-77750000D01*
X144340410Y-78350000D02*
X144210007Y-78480403D01*
X144410000Y-78350000D02*
X144340410Y-78350000D01*
X151610000Y-80000000D02*
X151610000Y-80150000D01*
X152508000Y-81048000D02*
X152508000Y-85423000D01*
X151610000Y-80150000D02*
X152508000Y-81048000D01*
X150560000Y-80300000D02*
X150508000Y-80352000D01*
X152160000Y-79750000D02*
X151810000Y-79400000D01*
X151810000Y-79400000D02*
X151460000Y-79400000D01*
X151460000Y-79400000D02*
X150560000Y-80300000D01*
X154410000Y-78350000D02*
X154410000Y-78750000D01*
X153410000Y-79750000D02*
X154410000Y-78750000D01*
X153210000Y-79750000D02*
X153410000Y-79750000D01*
X153110000Y-79750000D02*
X153210000Y-79750000D01*
X153110000Y-79750000D02*
X152160000Y-79750000D01*
X150508000Y-80352000D02*
X150508000Y-85423000D01*
D25*
X160210000Y-61250000D02*
X160210000Y-62250000D01*
X161010000Y-60450000D02*
X160210000Y-61250000D01*
D24*
X132360000Y-62150000D02*
X131610000Y-62150000D01*
D26*
G36*
X144717670Y-80988000D02*
X143148411Y-80988000D01*
X143151175Y-80986153D01*
X143831315Y-80306013D01*
X145399657Y-80306013D01*
X144717670Y-80988000D01*
X144717670Y-80988000D01*
G37*
X144717670Y-80988000D02*
X143148411Y-80988000D01*
X143151175Y-80986153D01*
X143831315Y-80306013D01*
X145399657Y-80306013D01*
X144717670Y-80988000D01*
G36*
X136285000Y-75089918D02*
X136210000Y-75075000D01*
X135310000Y-75075000D01*
X135166494Y-75103545D01*
X135106688Y-75143506D01*
X135044835Y-75184835D01*
X134944835Y-75284835D01*
X134863545Y-75406493D01*
X134853599Y-75456494D01*
X134841259Y-75518534D01*
X134743712Y-75583712D01*
X134677407Y-75682946D01*
X134654123Y-75800000D01*
X134654123Y-76400000D01*
X134677407Y-76517054D01*
X134743712Y-76616288D01*
X134789113Y-76646623D01*
X134705672Y-76730063D01*
X134660000Y-76840326D01*
X134660000Y-77025000D01*
X134735000Y-77100000D01*
X135110000Y-77100000D01*
X135110000Y-77080000D01*
X135310000Y-77080000D01*
X135310000Y-77100000D01*
X135685000Y-77100000D01*
X135760000Y-77025000D01*
X135760000Y-76840326D01*
X135714328Y-76730063D01*
X135630887Y-76646623D01*
X135676288Y-76616288D01*
X135742593Y-76517054D01*
X135765877Y-76400000D01*
X135765877Y-75825000D01*
X135866125Y-75825000D01*
X135827407Y-75882946D01*
X135804123Y-76000000D01*
X135804123Y-76400000D01*
X135827407Y-76517054D01*
X135893712Y-76616288D01*
X135944166Y-76650000D01*
X135893712Y-76683712D01*
X135827407Y-76782946D01*
X135804123Y-76900000D01*
X135804123Y-77300000D01*
X135827407Y-77417054D01*
X135893712Y-77516288D01*
X135992946Y-77582593D01*
X136065956Y-77597116D01*
X136144835Y-77715165D01*
X136835988Y-78406318D01*
X136835988Y-79732304D01*
X136805849Y-79719789D01*
X136567154Y-79719581D01*
X136346549Y-79810733D01*
X136177619Y-79979368D01*
X136169454Y-79999032D01*
X136123871Y-79980104D01*
X135885176Y-79979896D01*
X135664571Y-80071048D01*
X135495641Y-80239683D01*
X135404104Y-80460129D01*
X135403896Y-80698824D01*
X135495048Y-80919429D01*
X135563499Y-80988000D01*
X135122000Y-80988000D01*
X135122000Y-80645000D01*
X135118861Y-80629217D01*
X135120651Y-80613229D01*
X135104683Y-80557944D01*
X135093455Y-80501494D01*
X135084516Y-80488115D01*
X135080051Y-80472657D01*
X135044138Y-80427686D01*
X135012165Y-80379835D01*
X134998786Y-80370896D01*
X134988746Y-80358323D01*
X134401746Y-79863323D01*
X134351360Y-79835520D01*
X134303506Y-79803545D01*
X134287724Y-79800406D01*
X134273638Y-79792633D01*
X134216447Y-79786228D01*
X134160000Y-79775000D01*
X130815330Y-79775000D01*
X130285000Y-79244670D01*
X130285000Y-77375000D01*
X134660000Y-77375000D01*
X134660000Y-77559674D01*
X134705672Y-77669937D01*
X134790064Y-77754328D01*
X134900327Y-77800000D01*
X135035000Y-77800000D01*
X135110000Y-77725000D01*
X135110000Y-77300000D01*
X135310000Y-77300000D01*
X135310000Y-77725000D01*
X135385000Y-77800000D01*
X135519673Y-77800000D01*
X135629936Y-77754328D01*
X135714328Y-77669937D01*
X135760000Y-77559674D01*
X135760000Y-77375000D01*
X135685000Y-77300000D01*
X135310000Y-77300000D01*
X135110000Y-77300000D01*
X134735000Y-77300000D01*
X134660000Y-77375000D01*
X130285000Y-77375000D01*
X130285000Y-75224265D01*
X130365064Y-75304328D01*
X130475327Y-75350000D01*
X130735000Y-75350000D01*
X130810000Y-75275000D01*
X130810000Y-74750000D01*
X131010000Y-74750000D01*
X131010000Y-75275000D01*
X131085000Y-75350000D01*
X131344673Y-75350000D01*
X131454936Y-75304328D01*
X131539328Y-75219937D01*
X131585000Y-75109674D01*
X131585000Y-74825000D01*
X131510000Y-74750000D01*
X131010000Y-74750000D01*
X130810000Y-74750000D01*
X130790000Y-74750000D01*
X130790000Y-74625000D01*
X131860000Y-74625000D01*
X131860000Y-74809674D01*
X131905672Y-74919937D01*
X131990064Y-75004328D01*
X132100327Y-75050000D01*
X132235000Y-75050000D01*
X132310000Y-74975000D01*
X132310000Y-74550000D01*
X132510000Y-74550000D01*
X132510000Y-74975000D01*
X132585000Y-75050000D01*
X132719673Y-75050000D01*
X132829936Y-75004328D01*
X132914328Y-74919937D01*
X132960000Y-74809674D01*
X132960000Y-74625000D01*
X132885000Y-74550000D01*
X132510000Y-74550000D01*
X132310000Y-74550000D01*
X131935000Y-74550000D01*
X131860000Y-74625000D01*
X130790000Y-74625000D01*
X130790000Y-74550000D01*
X130810000Y-74550000D01*
X130810000Y-74025000D01*
X131010000Y-74025000D01*
X131010000Y-74550000D01*
X131510000Y-74550000D01*
X131585000Y-74475000D01*
X131585000Y-74190326D01*
X131539328Y-74080063D01*
X131454936Y-73995672D01*
X131344673Y-73950000D01*
X131085000Y-73950000D01*
X131010000Y-74025000D01*
X130810000Y-74025000D01*
X130735000Y-73950000D01*
X130475327Y-73950000D01*
X130365064Y-73995672D01*
X130285000Y-74075735D01*
X130285000Y-73715834D01*
X130318712Y-73766288D01*
X130417946Y-73832593D01*
X130535000Y-73855877D01*
X131285000Y-73855877D01*
X131402054Y-73832593D01*
X131501288Y-73766288D01*
X131559104Y-73679759D01*
X131687792Y-73765746D01*
X131860000Y-73800000D01*
X131899420Y-73800000D01*
X131943712Y-73866288D01*
X131989113Y-73896623D01*
X131905672Y-73980063D01*
X131860000Y-74090326D01*
X131860000Y-74275000D01*
X131935000Y-74350000D01*
X132310000Y-74350000D01*
X132310000Y-74330000D01*
X132510000Y-74330000D01*
X132510000Y-74350000D01*
X132885000Y-74350000D01*
X132960000Y-74275000D01*
X132960000Y-74090326D01*
X132943297Y-74050000D01*
X133385000Y-74050000D01*
X133385000Y-74159673D01*
X133430672Y-74269936D01*
X133515063Y-74354328D01*
X133625326Y-74400000D01*
X134385000Y-74400000D01*
X134460000Y-74325000D01*
X134460000Y-73975000D01*
X134660000Y-73975000D01*
X134660000Y-74325000D01*
X134735000Y-74400000D01*
X135494674Y-74400000D01*
X135604937Y-74354328D01*
X135689328Y-74269936D01*
X135735000Y-74159673D01*
X135735000Y-74050000D01*
X135660000Y-73975000D01*
X134660000Y-73975000D01*
X134460000Y-73975000D01*
X133460000Y-73975000D01*
X133385000Y-74050000D01*
X132943297Y-74050000D01*
X132914328Y-73980063D01*
X132830887Y-73896623D01*
X132876288Y-73866288D01*
X132920580Y-73800000D01*
X132960000Y-73800000D01*
X133132208Y-73765746D01*
X133268018Y-73675000D01*
X133385000Y-73675000D01*
X133385000Y-73700000D01*
X133460000Y-73775000D01*
X134460000Y-73775000D01*
X134460000Y-73755877D01*
X134660000Y-73755877D01*
X134660000Y-73775000D01*
X135660000Y-73775000D01*
X135735000Y-73700000D01*
X135735000Y-73590327D01*
X135720113Y-73554386D01*
X135740877Y-73450000D01*
X135740877Y-73229445D01*
X135790129Y-73249896D01*
X136028824Y-73250104D01*
X136249429Y-73158952D01*
X136285000Y-73123443D01*
X136285000Y-75089918D01*
X136285000Y-75089918D01*
G37*
X136285000Y-75089918D02*
X136210000Y-75075000D01*
X135310000Y-75075000D01*
X135166494Y-75103545D01*
X135106688Y-75143506D01*
X135044835Y-75184835D01*
X134944835Y-75284835D01*
X134863545Y-75406493D01*
X134853599Y-75456494D01*
X134841259Y-75518534D01*
X134743712Y-75583712D01*
X134677407Y-75682946D01*
X134654123Y-75800000D01*
X134654123Y-76400000D01*
X134677407Y-76517054D01*
X134743712Y-76616288D01*
X134789113Y-76646623D01*
X134705672Y-76730063D01*
X134660000Y-76840326D01*
X134660000Y-77025000D01*
X134735000Y-77100000D01*
X135110000Y-77100000D01*
X135110000Y-77080000D01*
X135310000Y-77080000D01*
X135310000Y-77100000D01*
X135685000Y-77100000D01*
X135760000Y-77025000D01*
X135760000Y-76840326D01*
X135714328Y-76730063D01*
X135630887Y-76646623D01*
X135676288Y-76616288D01*
X135742593Y-76517054D01*
X135765877Y-76400000D01*
X135765877Y-75825000D01*
X135866125Y-75825000D01*
X135827407Y-75882946D01*
X135804123Y-76000000D01*
X135804123Y-76400000D01*
X135827407Y-76517054D01*
X135893712Y-76616288D01*
X135944166Y-76650000D01*
X135893712Y-76683712D01*
X135827407Y-76782946D01*
X135804123Y-76900000D01*
X135804123Y-77300000D01*
X135827407Y-77417054D01*
X135893712Y-77516288D01*
X135992946Y-77582593D01*
X136065956Y-77597116D01*
X136144835Y-77715165D01*
X136835988Y-78406318D01*
X136835988Y-79732304D01*
X136805849Y-79719789D01*
X136567154Y-79719581D01*
X136346549Y-79810733D01*
X136177619Y-79979368D01*
X136169454Y-79999032D01*
X136123871Y-79980104D01*
X135885176Y-79979896D01*
X135664571Y-80071048D01*
X135495641Y-80239683D01*
X135404104Y-80460129D01*
X135403896Y-80698824D01*
X135495048Y-80919429D01*
X135563499Y-80988000D01*
X135122000Y-80988000D01*
X135122000Y-80645000D01*
X135118861Y-80629217D01*
X135120651Y-80613229D01*
X135104683Y-80557944D01*
X135093455Y-80501494D01*
X135084516Y-80488115D01*
X135080051Y-80472657D01*
X135044138Y-80427686D01*
X135012165Y-80379835D01*
X134998786Y-80370896D01*
X134988746Y-80358323D01*
X134401746Y-79863323D01*
X134351360Y-79835520D01*
X134303506Y-79803545D01*
X134287724Y-79800406D01*
X134273638Y-79792633D01*
X134216447Y-79786228D01*
X134160000Y-79775000D01*
X130815330Y-79775000D01*
X130285000Y-79244670D01*
X130285000Y-77375000D01*
X134660000Y-77375000D01*
X134660000Y-77559674D01*
X134705672Y-77669937D01*
X134790064Y-77754328D01*
X134900327Y-77800000D01*
X135035000Y-77800000D01*
X135110000Y-77725000D01*
X135110000Y-77300000D01*
X135310000Y-77300000D01*
X135310000Y-77725000D01*
X135385000Y-77800000D01*
X135519673Y-77800000D01*
X135629936Y-77754328D01*
X135714328Y-77669937D01*
X135760000Y-77559674D01*
X135760000Y-77375000D01*
X135685000Y-77300000D01*
X135310000Y-77300000D01*
X135110000Y-77300000D01*
X134735000Y-77300000D01*
X134660000Y-77375000D01*
X130285000Y-77375000D01*
X130285000Y-75224265D01*
X130365064Y-75304328D01*
X130475327Y-75350000D01*
X130735000Y-75350000D01*
X130810000Y-75275000D01*
X130810000Y-74750000D01*
X131010000Y-74750000D01*
X131010000Y-75275000D01*
X131085000Y-75350000D01*
X131344673Y-75350000D01*
X131454936Y-75304328D01*
X131539328Y-75219937D01*
X131585000Y-75109674D01*
X131585000Y-74825000D01*
X131510000Y-74750000D01*
X131010000Y-74750000D01*
X130810000Y-74750000D01*
X130790000Y-74750000D01*
X130790000Y-74625000D01*
X131860000Y-74625000D01*
X131860000Y-74809674D01*
X131905672Y-74919937D01*
X131990064Y-75004328D01*
X132100327Y-75050000D01*
X132235000Y-75050000D01*
X132310000Y-74975000D01*
X132310000Y-74550000D01*
X132510000Y-74550000D01*
X132510000Y-74975000D01*
X132585000Y-75050000D01*
X132719673Y-75050000D01*
X132829936Y-75004328D01*
X132914328Y-74919937D01*
X132960000Y-74809674D01*
X132960000Y-74625000D01*
X132885000Y-74550000D01*
X132510000Y-74550000D01*
X132310000Y-74550000D01*
X131935000Y-74550000D01*
X131860000Y-74625000D01*
X130790000Y-74625000D01*
X130790000Y-74550000D01*
X130810000Y-74550000D01*
X130810000Y-74025000D01*
X131010000Y-74025000D01*
X131010000Y-74550000D01*
X131510000Y-74550000D01*
X131585000Y-74475000D01*
X131585000Y-74190326D01*
X131539328Y-74080063D01*
X131454936Y-73995672D01*
X131344673Y-73950000D01*
X131085000Y-73950000D01*
X131010000Y-74025000D01*
X130810000Y-74025000D01*
X130735000Y-73950000D01*
X130475327Y-73950000D01*
X130365064Y-73995672D01*
X130285000Y-74075735D01*
X130285000Y-73715834D01*
X130318712Y-73766288D01*
X130417946Y-73832593D01*
X130535000Y-73855877D01*
X131285000Y-73855877D01*
X131402054Y-73832593D01*
X131501288Y-73766288D01*
X131559104Y-73679759D01*
X131687792Y-73765746D01*
X131860000Y-73800000D01*
X131899420Y-73800000D01*
X131943712Y-73866288D01*
X131989113Y-73896623D01*
X131905672Y-73980063D01*
X131860000Y-74090326D01*
X131860000Y-74275000D01*
X131935000Y-74350000D01*
X132310000Y-74350000D01*
X132310000Y-74330000D01*
X132510000Y-74330000D01*
X132510000Y-74350000D01*
X132885000Y-74350000D01*
X132960000Y-74275000D01*
X132960000Y-74090326D01*
X132943297Y-74050000D01*
X133385000Y-74050000D01*
X133385000Y-74159673D01*
X133430672Y-74269936D01*
X133515063Y-74354328D01*
X133625326Y-74400000D01*
X134385000Y-74400000D01*
X134460000Y-74325000D01*
X134460000Y-73975000D01*
X134660000Y-73975000D01*
X134660000Y-74325000D01*
X134735000Y-74400000D01*
X135494674Y-74400000D01*
X135604937Y-74354328D01*
X135689328Y-74269936D01*
X135735000Y-74159673D01*
X135735000Y-74050000D01*
X135660000Y-73975000D01*
X134660000Y-73975000D01*
X134460000Y-73975000D01*
X133460000Y-73975000D01*
X133385000Y-74050000D01*
X132943297Y-74050000D01*
X132914328Y-73980063D01*
X132830887Y-73896623D01*
X132876288Y-73866288D01*
X132920580Y-73800000D01*
X132960000Y-73800000D01*
X133132208Y-73765746D01*
X133268018Y-73675000D01*
X133385000Y-73675000D01*
X133385000Y-73700000D01*
X133460000Y-73775000D01*
X134460000Y-73775000D01*
X134460000Y-73755877D01*
X134660000Y-73755877D01*
X134660000Y-73775000D01*
X135660000Y-73775000D01*
X135735000Y-73700000D01*
X135735000Y-73590327D01*
X135720113Y-73554386D01*
X135740877Y-73450000D01*
X135740877Y-73229445D01*
X135790129Y-73249896D01*
X136028824Y-73250104D01*
X136249429Y-73158952D01*
X136285000Y-73123443D01*
X136285000Y-75089918D01*
G36*
X161535000Y-79244670D02*
X161004670Y-79775000D01*
X155910000Y-79775000D01*
X155870894Y-79782779D01*
X155831024Y-79783410D01*
X155799829Y-79796914D01*
X155766494Y-79803545D01*
X155733342Y-79825696D01*
X155696748Y-79841538D01*
X154980748Y-80336538D01*
X154957096Y-80360952D01*
X154928835Y-80379835D01*
X154906683Y-80412987D01*
X154878938Y-80441626D01*
X154866430Y-80473231D01*
X154847545Y-80501494D01*
X154839766Y-80540603D01*
X154825093Y-80577677D01*
X154825631Y-80611661D01*
X154819000Y-80645000D01*
X154819000Y-80988000D01*
X153778330Y-80988000D01*
X153159940Y-80369610D01*
X153160104Y-80181176D01*
X153136893Y-80125000D01*
X153410000Y-80125000D01*
X153553507Y-80096455D01*
X153675165Y-80015165D01*
X154675165Y-79015165D01*
X154756455Y-78893506D01*
X154766162Y-78844705D01*
X154827054Y-78832593D01*
X154926288Y-78766288D01*
X154992593Y-78667054D01*
X155015877Y-78550000D01*
X155015877Y-78150000D01*
X154992593Y-78032946D01*
X154926288Y-77933712D01*
X154875834Y-77900000D01*
X154926288Y-77866288D01*
X154992593Y-77767054D01*
X155015877Y-77650000D01*
X155015877Y-77325000D01*
X155610000Y-77325000D01*
X155610000Y-77509674D01*
X155655672Y-77619937D01*
X155740064Y-77704328D01*
X155850327Y-77750000D01*
X155985000Y-77750000D01*
X156060000Y-77675000D01*
X156060000Y-77250000D01*
X156260000Y-77250000D01*
X156260000Y-77675000D01*
X156335000Y-77750000D01*
X156469673Y-77750000D01*
X156579936Y-77704328D01*
X156664328Y-77619937D01*
X156710000Y-77509674D01*
X156710000Y-77325000D01*
X156635000Y-77250000D01*
X156260000Y-77250000D01*
X156060000Y-77250000D01*
X155685000Y-77250000D01*
X155610000Y-77325000D01*
X155015877Y-77325000D01*
X155015877Y-77250000D01*
X154992593Y-77132946D01*
X154926288Y-77033712D01*
X154827054Y-76967407D01*
X154785000Y-76959042D01*
X154785000Y-76900000D01*
X154756455Y-76756494D01*
X154675165Y-76634835D01*
X154465330Y-76425000D01*
X155619042Y-76425000D01*
X155627407Y-76467054D01*
X155693712Y-76566288D01*
X155739113Y-76596623D01*
X155655672Y-76680063D01*
X155610000Y-76790326D01*
X155610000Y-76975000D01*
X155685000Y-77050000D01*
X156060000Y-77050000D01*
X156060000Y-77030000D01*
X156260000Y-77030000D01*
X156260000Y-77050000D01*
X156635000Y-77050000D01*
X156710000Y-76975000D01*
X156710000Y-76790326D01*
X156664328Y-76680063D01*
X156580887Y-76596623D01*
X156626288Y-76566288D01*
X156692593Y-76467054D01*
X156714780Y-76355513D01*
X156775165Y-76315165D01*
X156804123Y-76271826D01*
X156804123Y-76350000D01*
X156827407Y-76467054D01*
X156893712Y-76566288D01*
X156944166Y-76600000D01*
X156893712Y-76633712D01*
X156827407Y-76732946D01*
X156804123Y-76850000D01*
X156804123Y-77250000D01*
X156827407Y-77367054D01*
X156884106Y-77451912D01*
X156810104Y-77630129D01*
X156809896Y-77868824D01*
X156901048Y-78089429D01*
X157069683Y-78258359D01*
X157290129Y-78349896D01*
X157528824Y-78350104D01*
X157749429Y-78258952D01*
X157918359Y-78090317D01*
X158009896Y-77869871D01*
X158010104Y-77631176D01*
X157935980Y-77451782D01*
X157992593Y-77367054D01*
X158015877Y-77250000D01*
X158015877Y-76850000D01*
X157992593Y-76732946D01*
X157926288Y-76633712D01*
X157875834Y-76600000D01*
X157926288Y-76566288D01*
X157992593Y-76467054D01*
X158015877Y-76350000D01*
X158015877Y-75950000D01*
X157992593Y-75832946D01*
X157926288Y-75733712D01*
X157827054Y-75667407D01*
X157785000Y-75659042D01*
X157785000Y-75600000D01*
X157756455Y-75456494D01*
X157675165Y-75334835D01*
X157425165Y-75084835D01*
X157303507Y-75003545D01*
X157160000Y-74975000D01*
X156410000Y-74975000D01*
X156266494Y-75003545D01*
X156229082Y-75028543D01*
X156144835Y-75084835D01*
X155894835Y-75334835D01*
X155813545Y-75456493D01*
X155812133Y-75463590D01*
X155792946Y-75467407D01*
X155693712Y-75533712D01*
X155627407Y-75632946D01*
X155619042Y-75675000D01*
X154265330Y-75675000D01*
X153985000Y-75394670D01*
X153985000Y-71525685D01*
X153994254Y-71572208D01*
X154062938Y-71675000D01*
X154091802Y-71718198D01*
X155059968Y-72686364D01*
X155059896Y-72768824D01*
X155151048Y-72989429D01*
X155319683Y-73158359D01*
X155540129Y-73249896D01*
X155778824Y-73250104D01*
X155835000Y-73226893D01*
X155835000Y-73322996D01*
X155779871Y-73300104D01*
X155541176Y-73299896D01*
X155320571Y-73391048D01*
X155151641Y-73559683D01*
X155060104Y-73780129D01*
X155059896Y-74018824D01*
X155151048Y-74239429D01*
X155319683Y-74408359D01*
X155540129Y-74499896D01*
X155778824Y-74500104D01*
X155999429Y-74408952D01*
X156024523Y-74383901D01*
X156135000Y-74405877D01*
X157885000Y-74405877D01*
X158002054Y-74382593D01*
X158101288Y-74316288D01*
X158167593Y-74217054D01*
X158190877Y-74100000D01*
X158190877Y-73650000D01*
X158175959Y-73575000D01*
X158485000Y-73575000D01*
X158485000Y-73859674D01*
X158530672Y-73969937D01*
X158615064Y-74054328D01*
X158725327Y-74100000D01*
X158985000Y-74100000D01*
X159060000Y-74025000D01*
X159060000Y-73500000D01*
X159260000Y-73500000D01*
X159260000Y-74025000D01*
X159335000Y-74100000D01*
X159594673Y-74100000D01*
X159704936Y-74054328D01*
X159789328Y-73969937D01*
X159835000Y-73859674D01*
X159835000Y-73575000D01*
X159760000Y-73500000D01*
X159260000Y-73500000D01*
X159060000Y-73500000D01*
X158560000Y-73500000D01*
X158485000Y-73575000D01*
X158175959Y-73575000D01*
X158170113Y-73545614D01*
X158185000Y-73509673D01*
X158185000Y-73400000D01*
X158110000Y-73325000D01*
X157110000Y-73325000D01*
X157110000Y-73344123D01*
X156910000Y-73344123D01*
X156910000Y-73325000D01*
X156890000Y-73325000D01*
X156890000Y-73125000D01*
X156910000Y-73125000D01*
X156910000Y-73105877D01*
X157110000Y-73105877D01*
X157110000Y-73125000D01*
X158110000Y-73125000D01*
X158185000Y-73050000D01*
X158185000Y-73025000D01*
X158235000Y-73025000D01*
X158407208Y-72990746D01*
X158485893Y-72938170D01*
X158485000Y-72940326D01*
X158485000Y-73225000D01*
X158560000Y-73300000D01*
X159060000Y-73300000D01*
X159060000Y-72775000D01*
X159260000Y-72775000D01*
X159260000Y-73300000D01*
X159760000Y-73300000D01*
X159835000Y-73225000D01*
X159835000Y-72940326D01*
X159789328Y-72830063D01*
X159704936Y-72745672D01*
X159594673Y-72700000D01*
X159335000Y-72700000D01*
X159260000Y-72775000D01*
X159060000Y-72775000D01*
X158985000Y-72700000D01*
X158740358Y-72700000D01*
X158803249Y-72605877D01*
X159535000Y-72605877D01*
X159652054Y-72582593D01*
X159751288Y-72516288D01*
X159817593Y-72417054D01*
X159838594Y-72311479D01*
X159978198Y-72218198D01*
X160075746Y-72072208D01*
X160110000Y-71900000D01*
X160075746Y-71727792D01*
X159978198Y-71581802D01*
X159838594Y-71488521D01*
X159817593Y-71382946D01*
X159751288Y-71283712D01*
X159652054Y-71217407D01*
X159535000Y-71194123D01*
X158860000Y-71194123D01*
X158860000Y-71045931D01*
X158910000Y-71055877D01*
X159410000Y-71055877D01*
X159527054Y-71032593D01*
X159626288Y-70966288D01*
X159670580Y-70900000D01*
X160149420Y-70900000D01*
X160193712Y-70966288D01*
X160292946Y-71032593D01*
X160410000Y-71055877D01*
X160910000Y-71055877D01*
X161027054Y-71032593D01*
X161126288Y-70966288D01*
X161179865Y-70886103D01*
X161282208Y-70865746D01*
X161428198Y-70768198D01*
X161525746Y-70622208D01*
X161535000Y-70575685D01*
X161535000Y-79244670D01*
X161535000Y-79244670D01*
G37*
X161535000Y-79244670D02*
X161004670Y-79775000D01*
X155910000Y-79775000D01*
X155870894Y-79782779D01*
X155831024Y-79783410D01*
X155799829Y-79796914D01*
X155766494Y-79803545D01*
X155733342Y-79825696D01*
X155696748Y-79841538D01*
X154980748Y-80336538D01*
X154957096Y-80360952D01*
X154928835Y-80379835D01*
X154906683Y-80412987D01*
X154878938Y-80441626D01*
X154866430Y-80473231D01*
X154847545Y-80501494D01*
X154839766Y-80540603D01*
X154825093Y-80577677D01*
X154825631Y-80611661D01*
X154819000Y-80645000D01*
X154819000Y-80988000D01*
X153778330Y-80988000D01*
X153159940Y-80369610D01*
X153160104Y-80181176D01*
X153136893Y-80125000D01*
X153410000Y-80125000D01*
X153553507Y-80096455D01*
X153675165Y-80015165D01*
X154675165Y-79015165D01*
X154756455Y-78893506D01*
X154766162Y-78844705D01*
X154827054Y-78832593D01*
X154926288Y-78766288D01*
X154992593Y-78667054D01*
X155015877Y-78550000D01*
X155015877Y-78150000D01*
X154992593Y-78032946D01*
X154926288Y-77933712D01*
X154875834Y-77900000D01*
X154926288Y-77866288D01*
X154992593Y-77767054D01*
X155015877Y-77650000D01*
X155015877Y-77325000D01*
X155610000Y-77325000D01*
X155610000Y-77509674D01*
X155655672Y-77619937D01*
X155740064Y-77704328D01*
X155850327Y-77750000D01*
X155985000Y-77750000D01*
X156060000Y-77675000D01*
X156060000Y-77250000D01*
X156260000Y-77250000D01*
X156260000Y-77675000D01*
X156335000Y-77750000D01*
X156469673Y-77750000D01*
X156579936Y-77704328D01*
X156664328Y-77619937D01*
X156710000Y-77509674D01*
X156710000Y-77325000D01*
X156635000Y-77250000D01*
X156260000Y-77250000D01*
X156060000Y-77250000D01*
X155685000Y-77250000D01*
X155610000Y-77325000D01*
X155015877Y-77325000D01*
X155015877Y-77250000D01*
X154992593Y-77132946D01*
X154926288Y-77033712D01*
X154827054Y-76967407D01*
X154785000Y-76959042D01*
X154785000Y-76900000D01*
X154756455Y-76756494D01*
X154675165Y-76634835D01*
X154465330Y-76425000D01*
X155619042Y-76425000D01*
X155627407Y-76467054D01*
X155693712Y-76566288D01*
X155739113Y-76596623D01*
X155655672Y-76680063D01*
X155610000Y-76790326D01*
X155610000Y-76975000D01*
X155685000Y-77050000D01*
X156060000Y-77050000D01*
X156060000Y-77030000D01*
X156260000Y-77030000D01*
X156260000Y-77050000D01*
X156635000Y-77050000D01*
X156710000Y-76975000D01*
X156710000Y-76790326D01*
X156664328Y-76680063D01*
X156580887Y-76596623D01*
X156626288Y-76566288D01*
X156692593Y-76467054D01*
X156714780Y-76355513D01*
X156775165Y-76315165D01*
X156804123Y-76271826D01*
X156804123Y-76350000D01*
X156827407Y-76467054D01*
X156893712Y-76566288D01*
X156944166Y-76600000D01*
X156893712Y-76633712D01*
X156827407Y-76732946D01*
X156804123Y-76850000D01*
X156804123Y-77250000D01*
X156827407Y-77367054D01*
X156884106Y-77451912D01*
X156810104Y-77630129D01*
X156809896Y-77868824D01*
X156901048Y-78089429D01*
X157069683Y-78258359D01*
X157290129Y-78349896D01*
X157528824Y-78350104D01*
X157749429Y-78258952D01*
X157918359Y-78090317D01*
X158009896Y-77869871D01*
X158010104Y-77631176D01*
X157935980Y-77451782D01*
X157992593Y-77367054D01*
X158015877Y-77250000D01*
X158015877Y-76850000D01*
X157992593Y-76732946D01*
X157926288Y-76633712D01*
X157875834Y-76600000D01*
X157926288Y-76566288D01*
X157992593Y-76467054D01*
X158015877Y-76350000D01*
X158015877Y-75950000D01*
X157992593Y-75832946D01*
X157926288Y-75733712D01*
X157827054Y-75667407D01*
X157785000Y-75659042D01*
X157785000Y-75600000D01*
X157756455Y-75456494D01*
X157675165Y-75334835D01*
X157425165Y-75084835D01*
X157303507Y-75003545D01*
X157160000Y-74975000D01*
X156410000Y-74975000D01*
X156266494Y-75003545D01*
X156229082Y-75028543D01*
X156144835Y-75084835D01*
X155894835Y-75334835D01*
X155813545Y-75456493D01*
X155812133Y-75463590D01*
X155792946Y-75467407D01*
X155693712Y-75533712D01*
X155627407Y-75632946D01*
X155619042Y-75675000D01*
X154265330Y-75675000D01*
X153985000Y-75394670D01*
X153985000Y-71525685D01*
X153994254Y-71572208D01*
X154062938Y-71675000D01*
X154091802Y-71718198D01*
X155059968Y-72686364D01*
X155059896Y-72768824D01*
X155151048Y-72989429D01*
X155319683Y-73158359D01*
X155540129Y-73249896D01*
X155778824Y-73250104D01*
X155835000Y-73226893D01*
X155835000Y-73322996D01*
X155779871Y-73300104D01*
X155541176Y-73299896D01*
X155320571Y-73391048D01*
X155151641Y-73559683D01*
X155060104Y-73780129D01*
X155059896Y-74018824D01*
X155151048Y-74239429D01*
X155319683Y-74408359D01*
X155540129Y-74499896D01*
X155778824Y-74500104D01*
X155999429Y-74408952D01*
X156024523Y-74383901D01*
X156135000Y-74405877D01*
X157885000Y-74405877D01*
X158002054Y-74382593D01*
X158101288Y-74316288D01*
X158167593Y-74217054D01*
X158190877Y-74100000D01*
X158190877Y-73650000D01*
X158175959Y-73575000D01*
X158485000Y-73575000D01*
X158485000Y-73859674D01*
X158530672Y-73969937D01*
X158615064Y-74054328D01*
X158725327Y-74100000D01*
X158985000Y-74100000D01*
X159060000Y-74025000D01*
X159060000Y-73500000D01*
X159260000Y-73500000D01*
X159260000Y-74025000D01*
X159335000Y-74100000D01*
X159594673Y-74100000D01*
X159704936Y-74054328D01*
X159789328Y-73969937D01*
X159835000Y-73859674D01*
X159835000Y-73575000D01*
X159760000Y-73500000D01*
X159260000Y-73500000D01*
X159060000Y-73500000D01*
X158560000Y-73500000D01*
X158485000Y-73575000D01*
X158175959Y-73575000D01*
X158170113Y-73545614D01*
X158185000Y-73509673D01*
X158185000Y-73400000D01*
X158110000Y-73325000D01*
X157110000Y-73325000D01*
X157110000Y-73344123D01*
X156910000Y-73344123D01*
X156910000Y-73325000D01*
X156890000Y-73325000D01*
X156890000Y-73125000D01*
X156910000Y-73125000D01*
X156910000Y-73105877D01*
X157110000Y-73105877D01*
X157110000Y-73125000D01*
X158110000Y-73125000D01*
X158185000Y-73050000D01*
X158185000Y-73025000D01*
X158235000Y-73025000D01*
X158407208Y-72990746D01*
X158485893Y-72938170D01*
X158485000Y-72940326D01*
X158485000Y-73225000D01*
X158560000Y-73300000D01*
X159060000Y-73300000D01*
X159060000Y-72775000D01*
X159260000Y-72775000D01*
X159260000Y-73300000D01*
X159760000Y-73300000D01*
X159835000Y-73225000D01*
X159835000Y-72940326D01*
X159789328Y-72830063D01*
X159704936Y-72745672D01*
X159594673Y-72700000D01*
X159335000Y-72700000D01*
X159260000Y-72775000D01*
X159060000Y-72775000D01*
X158985000Y-72700000D01*
X158740358Y-72700000D01*
X158803249Y-72605877D01*
X159535000Y-72605877D01*
X159652054Y-72582593D01*
X159751288Y-72516288D01*
X159817593Y-72417054D01*
X159838594Y-72311479D01*
X159978198Y-72218198D01*
X160075746Y-72072208D01*
X160110000Y-71900000D01*
X160075746Y-71727792D01*
X159978198Y-71581802D01*
X159838594Y-71488521D01*
X159817593Y-71382946D01*
X159751288Y-71283712D01*
X159652054Y-71217407D01*
X159535000Y-71194123D01*
X158860000Y-71194123D01*
X158860000Y-71045931D01*
X158910000Y-71055877D01*
X159410000Y-71055877D01*
X159527054Y-71032593D01*
X159626288Y-70966288D01*
X159670580Y-70900000D01*
X160149420Y-70900000D01*
X160193712Y-70966288D01*
X160292946Y-71032593D01*
X160410000Y-71055877D01*
X160910000Y-71055877D01*
X161027054Y-71032593D01*
X161126288Y-70966288D01*
X161179865Y-70886103D01*
X161282208Y-70865746D01*
X161428198Y-70768198D01*
X161525746Y-70622208D01*
X161535000Y-70575685D01*
X161535000Y-79244670D01*
G36*
X137144835Y-76915165D02*
X137266494Y-76996455D01*
X137410000Y-77025000D01*
X137609096Y-77025000D01*
X137604123Y-77050000D01*
X137604123Y-77650000D01*
X137627407Y-77767054D01*
X137693712Y-77866288D01*
X137739113Y-77896623D01*
X137655672Y-77980063D01*
X137610000Y-78090326D01*
X137610000Y-78275000D01*
X137685000Y-78350000D01*
X138060000Y-78350000D01*
X138060000Y-78330000D01*
X138260000Y-78330000D01*
X138260000Y-78350000D01*
X138635000Y-78350000D01*
X138710000Y-78275000D01*
X138710000Y-78090326D01*
X138664328Y-77980063D01*
X138580887Y-77896623D01*
X138626288Y-77866288D01*
X138692593Y-77767054D01*
X138715877Y-77650000D01*
X138715877Y-77050000D01*
X138710904Y-77025000D01*
X138906751Y-77025000D01*
X138893712Y-77033712D01*
X138827407Y-77132946D01*
X138804123Y-77250000D01*
X138804123Y-77650000D01*
X138827407Y-77767054D01*
X138893712Y-77866288D01*
X138944166Y-77900000D01*
X138893712Y-77933712D01*
X138827407Y-78032946D01*
X138804123Y-78150000D01*
X138804123Y-78550000D01*
X138827407Y-78667054D01*
X138888260Y-78758129D01*
X137966396Y-79679993D01*
X137783999Y-79679993D01*
X137640492Y-79708538D01*
X137585988Y-79744957D01*
X137585988Y-78625000D01*
X137610000Y-78625000D01*
X137610000Y-78809674D01*
X137655672Y-78919937D01*
X137740064Y-79004328D01*
X137850327Y-79050000D01*
X137985000Y-79050000D01*
X138060000Y-78975000D01*
X138060000Y-78550000D01*
X138260000Y-78550000D01*
X138260000Y-78975000D01*
X138335000Y-79050000D01*
X138469673Y-79050000D01*
X138579936Y-79004328D01*
X138664328Y-78919937D01*
X138710000Y-78809674D01*
X138710000Y-78625000D01*
X138635000Y-78550000D01*
X138260000Y-78550000D01*
X138060000Y-78550000D01*
X137685000Y-78550000D01*
X137610000Y-78625000D01*
X137585988Y-78625000D01*
X137585988Y-78250988D01*
X137557443Y-78107482D01*
X137557443Y-78107481D01*
X137476153Y-77985823D01*
X136958463Y-77468133D01*
X136992593Y-77417054D01*
X137015877Y-77300000D01*
X137015877Y-76900000D01*
X136992593Y-76782946D01*
X136952275Y-76722605D01*
X137144835Y-76915165D01*
X137144835Y-76915165D01*
G37*
X137144835Y-76915165D02*
X137266494Y-76996455D01*
X137410000Y-77025000D01*
X137609096Y-77025000D01*
X137604123Y-77050000D01*
X137604123Y-77650000D01*
X137627407Y-77767054D01*
X137693712Y-77866288D01*
X137739113Y-77896623D01*
X137655672Y-77980063D01*
X137610000Y-78090326D01*
X137610000Y-78275000D01*
X137685000Y-78350000D01*
X138060000Y-78350000D01*
X138060000Y-78330000D01*
X138260000Y-78330000D01*
X138260000Y-78350000D01*
X138635000Y-78350000D01*
X138710000Y-78275000D01*
X138710000Y-78090326D01*
X138664328Y-77980063D01*
X138580887Y-77896623D01*
X138626288Y-77866288D01*
X138692593Y-77767054D01*
X138715877Y-77650000D01*
X138715877Y-77050000D01*
X138710904Y-77025000D01*
X138906751Y-77025000D01*
X138893712Y-77033712D01*
X138827407Y-77132946D01*
X138804123Y-77250000D01*
X138804123Y-77650000D01*
X138827407Y-77767054D01*
X138893712Y-77866288D01*
X138944166Y-77900000D01*
X138893712Y-77933712D01*
X138827407Y-78032946D01*
X138804123Y-78150000D01*
X138804123Y-78550000D01*
X138827407Y-78667054D01*
X138888260Y-78758129D01*
X137966396Y-79679993D01*
X137783999Y-79679993D01*
X137640492Y-79708538D01*
X137585988Y-79744957D01*
X137585988Y-78625000D01*
X137610000Y-78625000D01*
X137610000Y-78809674D01*
X137655672Y-78919937D01*
X137740064Y-79004328D01*
X137850327Y-79050000D01*
X137985000Y-79050000D01*
X138060000Y-78975000D01*
X138060000Y-78550000D01*
X138260000Y-78550000D01*
X138260000Y-78975000D01*
X138335000Y-79050000D01*
X138469673Y-79050000D01*
X138579936Y-79004328D01*
X138664328Y-78919937D01*
X138710000Y-78809674D01*
X138710000Y-78625000D01*
X138635000Y-78550000D01*
X138260000Y-78550000D01*
X138060000Y-78550000D01*
X137685000Y-78550000D01*
X137610000Y-78625000D01*
X137585988Y-78625000D01*
X137585988Y-78250988D01*
X137557443Y-78107482D01*
X137557443Y-78107481D01*
X137476153Y-77985823D01*
X136958463Y-77468133D01*
X136992593Y-77417054D01*
X137015877Y-77300000D01*
X137015877Y-76900000D01*
X136992593Y-76782946D01*
X136952275Y-76722605D01*
X137144835Y-76915165D01*
G36*
X140104123Y-77050000D02*
X140104123Y-77650000D01*
X140127407Y-77767054D01*
X140193712Y-77866288D01*
X140239113Y-77896623D01*
X140155672Y-77980063D01*
X140110000Y-78090326D01*
X140110000Y-78275000D01*
X140185000Y-78350000D01*
X140560000Y-78350000D01*
X140560000Y-78330000D01*
X140760000Y-78330000D01*
X140760000Y-78350000D01*
X141135000Y-78350000D01*
X141210000Y-78275000D01*
X141210000Y-78090326D01*
X141164328Y-77980063D01*
X141080887Y-77896623D01*
X141126288Y-77866288D01*
X141192593Y-77767054D01*
X141215877Y-77650000D01*
X141215877Y-77050000D01*
X141210904Y-77025000D01*
X141406751Y-77025000D01*
X141393712Y-77033712D01*
X141327407Y-77132946D01*
X141304123Y-77250000D01*
X141304123Y-77650000D01*
X141327407Y-77767054D01*
X141393712Y-77866288D01*
X141444166Y-77900000D01*
X141393712Y-77933712D01*
X141327407Y-78032946D01*
X141304123Y-78150000D01*
X141304123Y-78449907D01*
X141291176Y-78449896D01*
X141070571Y-78541048D01*
X141061603Y-78550000D01*
X140760000Y-78550000D01*
X140760000Y-78975000D01*
X140810021Y-79025021D01*
X140809896Y-79168824D01*
X140901048Y-79389429D01*
X141069683Y-79558359D01*
X141290129Y-79649896D01*
X141528824Y-79650104D01*
X141749429Y-79558952D01*
X141918359Y-79390317D01*
X141939734Y-79338839D01*
X141975165Y-79315165D01*
X142175165Y-79115165D01*
X142256455Y-78993506D01*
X142285000Y-78850000D01*
X142285000Y-78840958D01*
X142327054Y-78832593D01*
X142426288Y-78766288D01*
X142492593Y-78667054D01*
X142500958Y-78625000D01*
X142610000Y-78625000D01*
X142610000Y-78809674D01*
X142655672Y-78919937D01*
X142740064Y-79004328D01*
X142850327Y-79050000D01*
X142985000Y-79050000D01*
X143060000Y-78975000D01*
X143060000Y-78550000D01*
X142685000Y-78550000D01*
X142610000Y-78625000D01*
X142500958Y-78625000D01*
X142515877Y-78550000D01*
X142515877Y-78150000D01*
X142492593Y-78032946D01*
X142426288Y-77933712D01*
X142375834Y-77900000D01*
X142426288Y-77866288D01*
X142492593Y-77767054D01*
X142507793Y-77690642D01*
X142516493Y-77696455D01*
X142617354Y-77716517D01*
X142627407Y-77767054D01*
X142693712Y-77866288D01*
X142739113Y-77896623D01*
X142655672Y-77980063D01*
X142610000Y-78090326D01*
X142610000Y-78275000D01*
X142685000Y-78350000D01*
X143060000Y-78350000D01*
X143060000Y-78330000D01*
X143260000Y-78330000D01*
X143260000Y-78350000D01*
X143280000Y-78350000D01*
X143280000Y-78550000D01*
X143260000Y-78550000D01*
X143260000Y-78968110D01*
X142548112Y-79679998D01*
X139027051Y-79679998D01*
X139675165Y-79031884D01*
X139756455Y-78910225D01*
X139769625Y-78844017D01*
X139827054Y-78832593D01*
X139926288Y-78766288D01*
X139992593Y-78667054D01*
X140000958Y-78625000D01*
X140110000Y-78625000D01*
X140110000Y-78809674D01*
X140155672Y-78919937D01*
X140240064Y-79004328D01*
X140350327Y-79050000D01*
X140485000Y-79050000D01*
X140560000Y-78975000D01*
X140560000Y-78550000D01*
X140185000Y-78550000D01*
X140110000Y-78625000D01*
X140000958Y-78625000D01*
X140015877Y-78550000D01*
X140015877Y-78150000D01*
X139992593Y-78032946D01*
X139926288Y-77933712D01*
X139875834Y-77900000D01*
X139926288Y-77866288D01*
X139992593Y-77767054D01*
X140015877Y-77650000D01*
X140015877Y-77250000D01*
X139992593Y-77132946D01*
X139926288Y-77033712D01*
X139913249Y-77025000D01*
X140109096Y-77025000D01*
X140104123Y-77050000D01*
X140104123Y-77050000D01*
G37*
X140104123Y-77050000D02*
X140104123Y-77650000D01*
X140127407Y-77767054D01*
X140193712Y-77866288D01*
X140239113Y-77896623D01*
X140155672Y-77980063D01*
X140110000Y-78090326D01*
X140110000Y-78275000D01*
X140185000Y-78350000D01*
X140560000Y-78350000D01*
X140560000Y-78330000D01*
X140760000Y-78330000D01*
X140760000Y-78350000D01*
X141135000Y-78350000D01*
X141210000Y-78275000D01*
X141210000Y-78090326D01*
X141164328Y-77980063D01*
X141080887Y-77896623D01*
X141126288Y-77866288D01*
X141192593Y-77767054D01*
X141215877Y-77650000D01*
X141215877Y-77050000D01*
X141210904Y-77025000D01*
X141406751Y-77025000D01*
X141393712Y-77033712D01*
X141327407Y-77132946D01*
X141304123Y-77250000D01*
X141304123Y-77650000D01*
X141327407Y-77767054D01*
X141393712Y-77866288D01*
X141444166Y-77900000D01*
X141393712Y-77933712D01*
X141327407Y-78032946D01*
X141304123Y-78150000D01*
X141304123Y-78449907D01*
X141291176Y-78449896D01*
X141070571Y-78541048D01*
X141061603Y-78550000D01*
X140760000Y-78550000D01*
X140760000Y-78975000D01*
X140810021Y-79025021D01*
X140809896Y-79168824D01*
X140901048Y-79389429D01*
X141069683Y-79558359D01*
X141290129Y-79649896D01*
X141528824Y-79650104D01*
X141749429Y-79558952D01*
X141918359Y-79390317D01*
X141939734Y-79338839D01*
X141975165Y-79315165D01*
X142175165Y-79115165D01*
X142256455Y-78993506D01*
X142285000Y-78850000D01*
X142285000Y-78840958D01*
X142327054Y-78832593D01*
X142426288Y-78766288D01*
X142492593Y-78667054D01*
X142500958Y-78625000D01*
X142610000Y-78625000D01*
X142610000Y-78809674D01*
X142655672Y-78919937D01*
X142740064Y-79004328D01*
X142850327Y-79050000D01*
X142985000Y-79050000D01*
X143060000Y-78975000D01*
X143060000Y-78550000D01*
X142685000Y-78550000D01*
X142610000Y-78625000D01*
X142500958Y-78625000D01*
X142515877Y-78550000D01*
X142515877Y-78150000D01*
X142492593Y-78032946D01*
X142426288Y-77933712D01*
X142375834Y-77900000D01*
X142426288Y-77866288D01*
X142492593Y-77767054D01*
X142507793Y-77690642D01*
X142516493Y-77696455D01*
X142617354Y-77716517D01*
X142627407Y-77767054D01*
X142693712Y-77866288D01*
X142739113Y-77896623D01*
X142655672Y-77980063D01*
X142610000Y-78090326D01*
X142610000Y-78275000D01*
X142685000Y-78350000D01*
X143060000Y-78350000D01*
X143060000Y-78330000D01*
X143260000Y-78330000D01*
X143260000Y-78350000D01*
X143280000Y-78350000D01*
X143280000Y-78550000D01*
X143260000Y-78550000D01*
X143260000Y-78968110D01*
X142548112Y-79679998D01*
X139027051Y-79679998D01*
X139675165Y-79031884D01*
X139756455Y-78910225D01*
X139769625Y-78844017D01*
X139827054Y-78832593D01*
X139926288Y-78766288D01*
X139992593Y-78667054D01*
X140000958Y-78625000D01*
X140110000Y-78625000D01*
X140110000Y-78809674D01*
X140155672Y-78919937D01*
X140240064Y-79004328D01*
X140350327Y-79050000D01*
X140485000Y-79050000D01*
X140560000Y-78975000D01*
X140560000Y-78550000D01*
X140185000Y-78550000D01*
X140110000Y-78625000D01*
X140000958Y-78625000D01*
X140015877Y-78550000D01*
X140015877Y-78150000D01*
X139992593Y-78032946D01*
X139926288Y-77933712D01*
X139875834Y-77900000D01*
X139926288Y-77866288D01*
X139992593Y-77767054D01*
X140015877Y-77650000D01*
X140015877Y-77250000D01*
X139992593Y-77132946D01*
X139926288Y-77033712D01*
X139913249Y-77025000D01*
X140109096Y-77025000D01*
X140104123Y-77050000D01*
G36*
X150104123Y-77050000D02*
X150104123Y-77650000D01*
X150127407Y-77767054D01*
X150193712Y-77866288D01*
X150239113Y-77896623D01*
X150155672Y-77980063D01*
X150110000Y-78090326D01*
X150110000Y-78275000D01*
X150185000Y-78350000D01*
X150560000Y-78350000D01*
X150560000Y-78330000D01*
X150760000Y-78330000D01*
X150760000Y-78350000D01*
X150780000Y-78350000D01*
X150780000Y-78550000D01*
X150760000Y-78550000D01*
X150760000Y-78975000D01*
X150807335Y-79022335D01*
X150273657Y-79556013D01*
X149571665Y-79556013D01*
X149625457Y-79475509D01*
X149654002Y-79332002D01*
X149654002Y-78986328D01*
X149675165Y-78965165D01*
X149754044Y-78847116D01*
X149827054Y-78832593D01*
X149926288Y-78766288D01*
X149992593Y-78667054D01*
X150000958Y-78625000D01*
X150110000Y-78625000D01*
X150110000Y-78809674D01*
X150155672Y-78919937D01*
X150240064Y-79004328D01*
X150350327Y-79050000D01*
X150485000Y-79050000D01*
X150560000Y-78975000D01*
X150560000Y-78550000D01*
X150185000Y-78550000D01*
X150110000Y-78625000D01*
X150000958Y-78625000D01*
X150015877Y-78550000D01*
X150015877Y-78150000D01*
X149992593Y-78032946D01*
X149926288Y-77933712D01*
X149875834Y-77900000D01*
X149926288Y-77866288D01*
X149992593Y-77767054D01*
X150015877Y-77650000D01*
X150015877Y-77250000D01*
X149992593Y-77132946D01*
X149926288Y-77033712D01*
X149913249Y-77025000D01*
X150109096Y-77025000D01*
X150104123Y-77050000D01*
X150104123Y-77050000D01*
G37*
X150104123Y-77050000D02*
X150104123Y-77650000D01*
X150127407Y-77767054D01*
X150193712Y-77866288D01*
X150239113Y-77896623D01*
X150155672Y-77980063D01*
X150110000Y-78090326D01*
X150110000Y-78275000D01*
X150185000Y-78350000D01*
X150560000Y-78350000D01*
X150560000Y-78330000D01*
X150760000Y-78330000D01*
X150760000Y-78350000D01*
X150780000Y-78350000D01*
X150780000Y-78550000D01*
X150760000Y-78550000D01*
X150760000Y-78975000D01*
X150807335Y-79022335D01*
X150273657Y-79556013D01*
X149571665Y-79556013D01*
X149625457Y-79475509D01*
X149654002Y-79332002D01*
X149654002Y-78986328D01*
X149675165Y-78965165D01*
X149754044Y-78847116D01*
X149827054Y-78832593D01*
X149926288Y-78766288D01*
X149992593Y-78667054D01*
X150000958Y-78625000D01*
X150110000Y-78625000D01*
X150110000Y-78809674D01*
X150155672Y-78919937D01*
X150240064Y-79004328D01*
X150350327Y-79050000D01*
X150485000Y-79050000D01*
X150560000Y-78975000D01*
X150560000Y-78550000D01*
X150185000Y-78550000D01*
X150110000Y-78625000D01*
X150000958Y-78625000D01*
X150015877Y-78550000D01*
X150015877Y-78150000D01*
X149992593Y-78032946D01*
X149926288Y-77933712D01*
X149875834Y-77900000D01*
X149926288Y-77866288D01*
X149992593Y-77767054D01*
X150015877Y-77650000D01*
X150015877Y-77250000D01*
X149992593Y-77132946D01*
X149926288Y-77033712D01*
X149913249Y-77025000D01*
X150109096Y-77025000D01*
X150104123Y-77050000D01*
G36*
X153035000Y-76355330D02*
X153035000Y-76494670D01*
X152894835Y-76634835D01*
X152813545Y-76756493D01*
X152812133Y-76763590D01*
X152792946Y-76767407D01*
X152693712Y-76833712D01*
X152627407Y-76932946D01*
X152604123Y-77050000D01*
X152604123Y-77650000D01*
X152627407Y-77767054D01*
X152693712Y-77866288D01*
X152739113Y-77896623D01*
X152655672Y-77980063D01*
X152610000Y-78090326D01*
X152610000Y-78275000D01*
X152685000Y-78350000D01*
X153060000Y-78350000D01*
X153060000Y-78330000D01*
X153260000Y-78330000D01*
X153260000Y-78350000D01*
X153635000Y-78350000D01*
X153710000Y-78275000D01*
X153710000Y-78090326D01*
X153664328Y-77980063D01*
X153580887Y-77896623D01*
X153626288Y-77866288D01*
X153692593Y-77767054D01*
X153715877Y-77650000D01*
X153715877Y-77050000D01*
X153710904Y-77025000D01*
X153906751Y-77025000D01*
X153893712Y-77033712D01*
X153827407Y-77132946D01*
X153804123Y-77250000D01*
X153804123Y-77650000D01*
X153827407Y-77767054D01*
X153893712Y-77866288D01*
X153944166Y-77900000D01*
X153893712Y-77933712D01*
X153827407Y-78032946D01*
X153804123Y-78150000D01*
X153804123Y-78550000D01*
X153827407Y-78667054D01*
X153881564Y-78748106D01*
X153254670Y-79375000D01*
X152315330Y-79375000D01*
X152075165Y-79134835D01*
X151953507Y-79053545D01*
X151810131Y-79025026D01*
X151835000Y-78900000D01*
X151835000Y-78855877D01*
X152210000Y-78855877D01*
X152327054Y-78832593D01*
X152426288Y-78766288D01*
X152492593Y-78667054D01*
X152500958Y-78625000D01*
X152610000Y-78625000D01*
X152610000Y-78809674D01*
X152655672Y-78919937D01*
X152740064Y-79004328D01*
X152850327Y-79050000D01*
X152985000Y-79050000D01*
X153060000Y-78975000D01*
X153060000Y-78550000D01*
X153260000Y-78550000D01*
X153260000Y-78975000D01*
X153335000Y-79050000D01*
X153469673Y-79050000D01*
X153579936Y-79004328D01*
X153664328Y-78919937D01*
X153710000Y-78809674D01*
X153710000Y-78625000D01*
X153635000Y-78550000D01*
X153260000Y-78550000D01*
X153060000Y-78550000D01*
X152685000Y-78550000D01*
X152610000Y-78625000D01*
X152500958Y-78625000D01*
X152515877Y-78550000D01*
X152515877Y-78150000D01*
X152492593Y-78032946D01*
X152426288Y-77933712D01*
X152375834Y-77900000D01*
X152426288Y-77866288D01*
X152492593Y-77767054D01*
X152515877Y-77650000D01*
X152515877Y-77250000D01*
X152492593Y-77132946D01*
X152426288Y-77033712D01*
X152337017Y-76974064D01*
X152425165Y-76915165D01*
X153010000Y-76330330D01*
X153035000Y-76355330D01*
X153035000Y-76355330D01*
G37*
X153035000Y-76355330D02*
X153035000Y-76494670D01*
X152894835Y-76634835D01*
X152813545Y-76756493D01*
X152812133Y-76763590D01*
X152792946Y-76767407D01*
X152693712Y-76833712D01*
X152627407Y-76932946D01*
X152604123Y-77050000D01*
X152604123Y-77650000D01*
X152627407Y-77767054D01*
X152693712Y-77866288D01*
X152739113Y-77896623D01*
X152655672Y-77980063D01*
X152610000Y-78090326D01*
X152610000Y-78275000D01*
X152685000Y-78350000D01*
X153060000Y-78350000D01*
X153060000Y-78330000D01*
X153260000Y-78330000D01*
X153260000Y-78350000D01*
X153635000Y-78350000D01*
X153710000Y-78275000D01*
X153710000Y-78090326D01*
X153664328Y-77980063D01*
X153580887Y-77896623D01*
X153626288Y-77866288D01*
X153692593Y-77767054D01*
X153715877Y-77650000D01*
X153715877Y-77050000D01*
X153710904Y-77025000D01*
X153906751Y-77025000D01*
X153893712Y-77033712D01*
X153827407Y-77132946D01*
X153804123Y-77250000D01*
X153804123Y-77650000D01*
X153827407Y-77767054D01*
X153893712Y-77866288D01*
X153944166Y-77900000D01*
X153893712Y-77933712D01*
X153827407Y-78032946D01*
X153804123Y-78150000D01*
X153804123Y-78550000D01*
X153827407Y-78667054D01*
X153881564Y-78748106D01*
X153254670Y-79375000D01*
X152315330Y-79375000D01*
X152075165Y-79134835D01*
X151953507Y-79053545D01*
X151810131Y-79025026D01*
X151835000Y-78900000D01*
X151835000Y-78855877D01*
X152210000Y-78855877D01*
X152327054Y-78832593D01*
X152426288Y-78766288D01*
X152492593Y-78667054D01*
X152500958Y-78625000D01*
X152610000Y-78625000D01*
X152610000Y-78809674D01*
X152655672Y-78919937D01*
X152740064Y-79004328D01*
X152850327Y-79050000D01*
X152985000Y-79050000D01*
X153060000Y-78975000D01*
X153060000Y-78550000D01*
X153260000Y-78550000D01*
X153260000Y-78975000D01*
X153335000Y-79050000D01*
X153469673Y-79050000D01*
X153579936Y-79004328D01*
X153664328Y-78919937D01*
X153710000Y-78809674D01*
X153710000Y-78625000D01*
X153635000Y-78550000D01*
X153260000Y-78550000D01*
X153060000Y-78550000D01*
X152685000Y-78550000D01*
X152610000Y-78625000D01*
X152500958Y-78625000D01*
X152515877Y-78550000D01*
X152515877Y-78150000D01*
X152492593Y-78032946D01*
X152426288Y-77933712D01*
X152375834Y-77900000D01*
X152426288Y-77866288D01*
X152492593Y-77767054D01*
X152515877Y-77650000D01*
X152515877Y-77250000D01*
X152492593Y-77132946D01*
X152426288Y-77033712D01*
X152337017Y-76974064D01*
X152425165Y-76915165D01*
X153010000Y-76330330D01*
X153035000Y-76355330D01*
G36*
X146393712Y-77033712D02*
X146327407Y-77132946D01*
X146304123Y-77250000D01*
X146304123Y-77650000D01*
X146327407Y-77767054D01*
X146393712Y-77866288D01*
X146439113Y-77896623D01*
X146355672Y-77980063D01*
X146310000Y-78090326D01*
X146310000Y-78175000D01*
X146385000Y-78250000D01*
X146810000Y-78250000D01*
X146810000Y-78230000D01*
X147010000Y-78230000D01*
X147010000Y-78250000D01*
X147030000Y-78250000D01*
X147030000Y-78450000D01*
X147010000Y-78450000D01*
X147010000Y-78470000D01*
X146810000Y-78470000D01*
X146810000Y-78450000D01*
X146385000Y-78450000D01*
X146310000Y-78525000D01*
X146310000Y-78609674D01*
X146355672Y-78719937D01*
X146440064Y-78804328D01*
X146492327Y-78825976D01*
X146203248Y-78825976D01*
X146210000Y-78809674D01*
X146210000Y-78625000D01*
X146135000Y-78550000D01*
X145760000Y-78550000D01*
X145760000Y-78570000D01*
X145560000Y-78570000D01*
X145560000Y-78550000D01*
X145185000Y-78550000D01*
X145110000Y-78625000D01*
X145110000Y-78809674D01*
X145155672Y-78919937D01*
X145240064Y-79004328D01*
X145258648Y-79012026D01*
X145014672Y-79256002D01*
X144005359Y-79256002D01*
X144031456Y-79216946D01*
X144060001Y-79073439D01*
X144060001Y-79067786D01*
X144090136Y-79080299D01*
X144328831Y-79080507D01*
X144549436Y-78989355D01*
X144683147Y-78855877D01*
X144710000Y-78855877D01*
X144827054Y-78832593D01*
X144926288Y-78766288D01*
X144992593Y-78667054D01*
X145015877Y-78550000D01*
X145015877Y-78274961D01*
X145033508Y-78271454D01*
X145110000Y-78220343D01*
X145110000Y-78275000D01*
X145185000Y-78350000D01*
X145560000Y-78350000D01*
X145560000Y-78330000D01*
X145760000Y-78330000D01*
X145760000Y-78350000D01*
X146135000Y-78350000D01*
X146210000Y-78275000D01*
X146210000Y-78090326D01*
X146164328Y-77980063D01*
X146080887Y-77896623D01*
X146126288Y-77866288D01*
X146192593Y-77767054D01*
X146215877Y-77650000D01*
X146215877Y-77050000D01*
X146210904Y-77025000D01*
X146406751Y-77025000D01*
X146393712Y-77033712D01*
X146393712Y-77033712D01*
G37*
X146393712Y-77033712D02*
X146327407Y-77132946D01*
X146304123Y-77250000D01*
X146304123Y-77650000D01*
X146327407Y-77767054D01*
X146393712Y-77866288D01*
X146439113Y-77896623D01*
X146355672Y-77980063D01*
X146310000Y-78090326D01*
X146310000Y-78175000D01*
X146385000Y-78250000D01*
X146810000Y-78250000D01*
X146810000Y-78230000D01*
X147010000Y-78230000D01*
X147010000Y-78250000D01*
X147030000Y-78250000D01*
X147030000Y-78450000D01*
X147010000Y-78450000D01*
X147010000Y-78470000D01*
X146810000Y-78470000D01*
X146810000Y-78450000D01*
X146385000Y-78450000D01*
X146310000Y-78525000D01*
X146310000Y-78609674D01*
X146355672Y-78719937D01*
X146440064Y-78804328D01*
X146492327Y-78825976D01*
X146203248Y-78825976D01*
X146210000Y-78809674D01*
X146210000Y-78625000D01*
X146135000Y-78550000D01*
X145760000Y-78550000D01*
X145760000Y-78570000D01*
X145560000Y-78570000D01*
X145560000Y-78550000D01*
X145185000Y-78550000D01*
X145110000Y-78625000D01*
X145110000Y-78809674D01*
X145155672Y-78919937D01*
X145240064Y-79004328D01*
X145258648Y-79012026D01*
X145014672Y-79256002D01*
X144005359Y-79256002D01*
X144031456Y-79216946D01*
X144060001Y-79073439D01*
X144060001Y-79067786D01*
X144090136Y-79080299D01*
X144328831Y-79080507D01*
X144549436Y-78989355D01*
X144683147Y-78855877D01*
X144710000Y-78855877D01*
X144827054Y-78832593D01*
X144926288Y-78766288D01*
X144992593Y-78667054D01*
X145015877Y-78550000D01*
X145015877Y-78274961D01*
X145033508Y-78271454D01*
X145110000Y-78220343D01*
X145110000Y-78275000D01*
X145185000Y-78350000D01*
X145560000Y-78350000D01*
X145560000Y-78330000D01*
X145760000Y-78330000D01*
X145760000Y-78350000D01*
X146135000Y-78350000D01*
X146210000Y-78275000D01*
X146210000Y-78090326D01*
X146164328Y-77980063D01*
X146080887Y-77896623D01*
X146126288Y-77866288D01*
X146192593Y-77767054D01*
X146215877Y-77650000D01*
X146215877Y-77050000D01*
X146210904Y-77025000D01*
X146406751Y-77025000D01*
X146393712Y-77033712D01*
G36*
X148893712Y-77033712D02*
X148827407Y-77132946D01*
X148804123Y-77250000D01*
X148804123Y-77650000D01*
X148827407Y-77767054D01*
X148893712Y-77866288D01*
X148944166Y-77900000D01*
X148893712Y-77933712D01*
X148827407Y-78032946D01*
X148804123Y-78150000D01*
X148804123Y-78550000D01*
X148827407Y-78667054D01*
X148893712Y-78766288D01*
X148914156Y-78779948D01*
X148913184Y-78784835D01*
X148904002Y-78830998D01*
X148904002Y-79176672D01*
X148824672Y-79256002D01*
X147423770Y-79256002D01*
X147707754Y-78972018D01*
X147740064Y-79004328D01*
X147850327Y-79050000D01*
X147985000Y-79050000D01*
X148060000Y-78975000D01*
X148060000Y-78550000D01*
X148260000Y-78550000D01*
X148260000Y-78975000D01*
X148335000Y-79050000D01*
X148469673Y-79050000D01*
X148579936Y-79004328D01*
X148664328Y-78919937D01*
X148710000Y-78809674D01*
X148710000Y-78625000D01*
X148635000Y-78550000D01*
X148260000Y-78550000D01*
X148060000Y-78550000D01*
X148040000Y-78550000D01*
X148040000Y-78350000D01*
X148060000Y-78350000D01*
X148060000Y-78330000D01*
X148260000Y-78330000D01*
X148260000Y-78350000D01*
X148635000Y-78350000D01*
X148710000Y-78275000D01*
X148710000Y-78090326D01*
X148664328Y-77980063D01*
X148580887Y-77896623D01*
X148626288Y-77866288D01*
X148692593Y-77767054D01*
X148715877Y-77650000D01*
X148715877Y-77050000D01*
X148710904Y-77025000D01*
X148906751Y-77025000D01*
X148893712Y-77033712D01*
X148893712Y-77033712D01*
G37*
X148893712Y-77033712D02*
X148827407Y-77132946D01*
X148804123Y-77250000D01*
X148804123Y-77650000D01*
X148827407Y-77767054D01*
X148893712Y-77866288D01*
X148944166Y-77900000D01*
X148893712Y-77933712D01*
X148827407Y-78032946D01*
X148804123Y-78150000D01*
X148804123Y-78550000D01*
X148827407Y-78667054D01*
X148893712Y-78766288D01*
X148914156Y-78779948D01*
X148913184Y-78784835D01*
X148904002Y-78830998D01*
X148904002Y-79176672D01*
X148824672Y-79256002D01*
X147423770Y-79256002D01*
X147707754Y-78972018D01*
X147740064Y-79004328D01*
X147850327Y-79050000D01*
X147985000Y-79050000D01*
X148060000Y-78975000D01*
X148060000Y-78550000D01*
X148260000Y-78550000D01*
X148260000Y-78975000D01*
X148335000Y-79050000D01*
X148469673Y-79050000D01*
X148579936Y-79004328D01*
X148664328Y-78919937D01*
X148710000Y-78809674D01*
X148710000Y-78625000D01*
X148635000Y-78550000D01*
X148260000Y-78550000D01*
X148060000Y-78550000D01*
X148040000Y-78550000D01*
X148040000Y-78350000D01*
X148060000Y-78350000D01*
X148060000Y-78330000D01*
X148260000Y-78330000D01*
X148260000Y-78350000D01*
X148635000Y-78350000D01*
X148710000Y-78275000D01*
X148710000Y-78090326D01*
X148664328Y-77980063D01*
X148580887Y-77896623D01*
X148626288Y-77866288D01*
X148692593Y-77767054D01*
X148715877Y-77650000D01*
X148715877Y-77050000D01*
X148710904Y-77025000D01*
X148906751Y-77025000D01*
X148893712Y-77033712D01*
G36*
X151220557Y-69990887D02*
X151151641Y-70059683D01*
X151060104Y-70280129D01*
X151059896Y-70518824D01*
X151151048Y-70739429D01*
X151319683Y-70908359D01*
X151540129Y-70999896D01*
X151778824Y-71000104D01*
X151835000Y-70976893D01*
X151835000Y-74944670D01*
X151504670Y-75275000D01*
X150910000Y-75275000D01*
X150810000Y-75294891D01*
X150810000Y-75048574D01*
X150868359Y-74990317D01*
X150959896Y-74769871D01*
X150960104Y-74531176D01*
X150927929Y-74453307D01*
X151040129Y-74499896D01*
X151278824Y-74500104D01*
X151499429Y-74408952D01*
X151668359Y-74240317D01*
X151759896Y-74019871D01*
X151760104Y-73781176D01*
X151668952Y-73560571D01*
X151500317Y-73391641D01*
X151279871Y-73300104D01*
X151041176Y-73299896D01*
X150990877Y-73320679D01*
X150990877Y-73000000D01*
X150970985Y-72900000D01*
X150990877Y-72800000D01*
X150990877Y-72350000D01*
X150970985Y-72250000D01*
X150990877Y-72150000D01*
X150990877Y-71700000D01*
X150970985Y-71600000D01*
X150990877Y-71500000D01*
X150990877Y-71050000D01*
X150970985Y-70950000D01*
X150990877Y-70850000D01*
X150990877Y-70400000D01*
X150970985Y-70300000D01*
X150990877Y-70200000D01*
X150990877Y-69761207D01*
X151220557Y-69990887D01*
X151220557Y-69990887D01*
G37*
X151220557Y-69990887D02*
X151151641Y-70059683D01*
X151060104Y-70280129D01*
X151059896Y-70518824D01*
X151151048Y-70739429D01*
X151319683Y-70908359D01*
X151540129Y-70999896D01*
X151778824Y-71000104D01*
X151835000Y-70976893D01*
X151835000Y-74944670D01*
X151504670Y-75275000D01*
X150910000Y-75275000D01*
X150810000Y-75294891D01*
X150810000Y-75048574D01*
X150868359Y-74990317D01*
X150959896Y-74769871D01*
X150960104Y-74531176D01*
X150927929Y-74453307D01*
X151040129Y-74499896D01*
X151278824Y-74500104D01*
X151499429Y-74408952D01*
X151668359Y-74240317D01*
X151759896Y-74019871D01*
X151760104Y-73781176D01*
X151668952Y-73560571D01*
X151500317Y-73391641D01*
X151279871Y-73300104D01*
X151041176Y-73299896D01*
X150990877Y-73320679D01*
X150990877Y-73000000D01*
X150970985Y-72900000D01*
X150990877Y-72800000D01*
X150990877Y-72350000D01*
X150970985Y-72250000D01*
X150990877Y-72150000D01*
X150990877Y-71700000D01*
X150970985Y-71600000D01*
X150990877Y-71500000D01*
X150990877Y-71050000D01*
X150970985Y-70950000D01*
X150990877Y-70850000D01*
X150990877Y-70400000D01*
X150970985Y-70300000D01*
X150990877Y-70200000D01*
X150990877Y-69761207D01*
X151220557Y-69990887D01*
G36*
X143760000Y-72350000D02*
X143780000Y-72350000D01*
X143780000Y-72550000D01*
X143760000Y-72550000D01*
X143760000Y-72975000D01*
X143835000Y-73050000D01*
X143969673Y-73050000D01*
X144034647Y-73023087D01*
X144169683Y-73158359D01*
X144206163Y-73173507D01*
X144144835Y-73234835D01*
X144094472Y-73310208D01*
X144079936Y-73295672D01*
X143969673Y-73250000D01*
X143835000Y-73250000D01*
X143760000Y-73325000D01*
X143760000Y-73750000D01*
X143780000Y-73750000D01*
X143780000Y-73950000D01*
X143760000Y-73950000D01*
X143760000Y-73970000D01*
X143560000Y-73970000D01*
X143560000Y-73950000D01*
X143540000Y-73950000D01*
X143540000Y-73750000D01*
X143560000Y-73750000D01*
X143560000Y-73325000D01*
X143485000Y-73250000D01*
X143350327Y-73250000D01*
X143285000Y-73277059D01*
X143285000Y-73022941D01*
X143350327Y-73050000D01*
X143485000Y-73050000D01*
X143560000Y-72975000D01*
X143560000Y-72550000D01*
X143540000Y-72550000D01*
X143540000Y-72350000D01*
X143560000Y-72350000D01*
X143560000Y-72330000D01*
X143760000Y-72330000D01*
X143760000Y-72350000D01*
X143760000Y-72350000D01*
G37*
X143760000Y-72350000D02*
X143780000Y-72350000D01*
X143780000Y-72550000D01*
X143760000Y-72550000D01*
X143760000Y-72975000D01*
X143835000Y-73050000D01*
X143969673Y-73050000D01*
X144034647Y-73023087D01*
X144169683Y-73158359D01*
X144206163Y-73173507D01*
X144144835Y-73234835D01*
X144094472Y-73310208D01*
X144079936Y-73295672D01*
X143969673Y-73250000D01*
X143835000Y-73250000D01*
X143760000Y-73325000D01*
X143760000Y-73750000D01*
X143780000Y-73750000D01*
X143780000Y-73950000D01*
X143760000Y-73950000D01*
X143760000Y-73970000D01*
X143560000Y-73970000D01*
X143560000Y-73950000D01*
X143540000Y-73950000D01*
X143540000Y-73750000D01*
X143560000Y-73750000D01*
X143560000Y-73325000D01*
X143485000Y-73250000D01*
X143350327Y-73250000D01*
X143285000Y-73277059D01*
X143285000Y-73022941D01*
X143350327Y-73050000D01*
X143485000Y-73050000D01*
X143560000Y-72975000D01*
X143560000Y-72550000D01*
X143540000Y-72550000D01*
X143540000Y-72350000D01*
X143560000Y-72350000D01*
X143560000Y-72330000D01*
X143760000Y-72330000D01*
X143760000Y-72350000D01*
G36*
X133379123Y-69100000D02*
X133379123Y-69550000D01*
X133399015Y-69650000D01*
X133379123Y-69750000D01*
X133379123Y-70200000D01*
X133399887Y-70304386D01*
X133385000Y-70340327D01*
X133385000Y-70450000D01*
X133460000Y-70525000D01*
X134460000Y-70525000D01*
X134460000Y-70505877D01*
X134660000Y-70505877D01*
X134660000Y-70525000D01*
X134680000Y-70525000D01*
X134680000Y-70725000D01*
X134660000Y-70725000D01*
X134660000Y-70744123D01*
X134460000Y-70744123D01*
X134460000Y-70725000D01*
X133460000Y-70725000D01*
X133385000Y-70800000D01*
X133385000Y-70909673D01*
X133399887Y-70945614D01*
X133379123Y-71050000D01*
X133379123Y-71500000D01*
X133399015Y-71600000D01*
X133379123Y-71700000D01*
X133379123Y-72150000D01*
X133399015Y-72250000D01*
X133379123Y-72350000D01*
X133379123Y-72775000D01*
X133085000Y-72775000D01*
X132912792Y-72809254D01*
X132876238Y-72833679D01*
X132777054Y-72767407D01*
X132660000Y-72744123D01*
X132160000Y-72744123D01*
X132042946Y-72767407D01*
X131962384Y-72821236D01*
X131832208Y-72734254D01*
X131660000Y-72700000D01*
X131580931Y-72700000D01*
X131567593Y-72632946D01*
X131501288Y-72533712D01*
X131402054Y-72467407D01*
X131285000Y-72444123D01*
X130535000Y-72444123D01*
X130417946Y-72467407D01*
X130318712Y-72533712D01*
X130285000Y-72584166D01*
X130285000Y-70125000D01*
X130360000Y-70125000D01*
X130360000Y-70309674D01*
X130405672Y-70419937D01*
X130490064Y-70504328D01*
X130600327Y-70550000D01*
X130735000Y-70550000D01*
X130810000Y-70475000D01*
X130810000Y-70050000D01*
X131010000Y-70050000D01*
X131010000Y-70475000D01*
X131085000Y-70550000D01*
X131219673Y-70550000D01*
X131329936Y-70504328D01*
X131414328Y-70419937D01*
X131460000Y-70309674D01*
X131460000Y-70125000D01*
X131860000Y-70125000D01*
X131860000Y-70309674D01*
X131905672Y-70419937D01*
X131990064Y-70504328D01*
X132100327Y-70550000D01*
X132235000Y-70550000D01*
X132310000Y-70475000D01*
X132310000Y-70050000D01*
X132510000Y-70050000D01*
X132510000Y-70475000D01*
X132585000Y-70550000D01*
X132719673Y-70550000D01*
X132829936Y-70504328D01*
X132914328Y-70419937D01*
X132960000Y-70309674D01*
X132960000Y-70125000D01*
X132885000Y-70050000D01*
X132510000Y-70050000D01*
X132310000Y-70050000D01*
X131935000Y-70050000D01*
X131860000Y-70125000D01*
X131460000Y-70125000D01*
X131385000Y-70050000D01*
X131010000Y-70050000D01*
X130810000Y-70050000D01*
X130435000Y-70050000D01*
X130360000Y-70125000D01*
X130285000Y-70125000D01*
X130285000Y-69263880D01*
X130287792Y-69265746D01*
X130390135Y-69286103D01*
X130443712Y-69366288D01*
X130489113Y-69396623D01*
X130405672Y-69480063D01*
X130360000Y-69590326D01*
X130360000Y-69775000D01*
X130435000Y-69850000D01*
X130810000Y-69850000D01*
X130810000Y-69830000D01*
X131010000Y-69830000D01*
X131010000Y-69850000D01*
X131385000Y-69850000D01*
X131460000Y-69775000D01*
X131460000Y-69590326D01*
X131414328Y-69480063D01*
X131330887Y-69396623D01*
X131376288Y-69366288D01*
X131420580Y-69300000D01*
X131899420Y-69300000D01*
X131943712Y-69366288D01*
X131989113Y-69396623D01*
X131905672Y-69480063D01*
X131860000Y-69590326D01*
X131860000Y-69775000D01*
X131935000Y-69850000D01*
X132310000Y-69850000D01*
X132310000Y-69830000D01*
X132510000Y-69830000D01*
X132510000Y-69850000D01*
X132885000Y-69850000D01*
X132960000Y-69775000D01*
X132960000Y-69590326D01*
X132914328Y-69480063D01*
X132830887Y-69396623D01*
X132876288Y-69366288D01*
X132920580Y-69300000D01*
X132960000Y-69300000D01*
X133132208Y-69265746D01*
X133278198Y-69168198D01*
X133387249Y-69059147D01*
X133379123Y-69100000D01*
X133379123Y-69100000D01*
G37*
X133379123Y-69100000D02*
X133379123Y-69550000D01*
X133399015Y-69650000D01*
X133379123Y-69750000D01*
X133379123Y-70200000D01*
X133399887Y-70304386D01*
X133385000Y-70340327D01*
X133385000Y-70450000D01*
X133460000Y-70525000D01*
X134460000Y-70525000D01*
X134460000Y-70505877D01*
X134660000Y-70505877D01*
X134660000Y-70525000D01*
X134680000Y-70525000D01*
X134680000Y-70725000D01*
X134660000Y-70725000D01*
X134660000Y-70744123D01*
X134460000Y-70744123D01*
X134460000Y-70725000D01*
X133460000Y-70725000D01*
X133385000Y-70800000D01*
X133385000Y-70909673D01*
X133399887Y-70945614D01*
X133379123Y-71050000D01*
X133379123Y-71500000D01*
X133399015Y-71600000D01*
X133379123Y-71700000D01*
X133379123Y-72150000D01*
X133399015Y-72250000D01*
X133379123Y-72350000D01*
X133379123Y-72775000D01*
X133085000Y-72775000D01*
X132912792Y-72809254D01*
X132876238Y-72833679D01*
X132777054Y-72767407D01*
X132660000Y-72744123D01*
X132160000Y-72744123D01*
X132042946Y-72767407D01*
X131962384Y-72821236D01*
X131832208Y-72734254D01*
X131660000Y-72700000D01*
X131580931Y-72700000D01*
X131567593Y-72632946D01*
X131501288Y-72533712D01*
X131402054Y-72467407D01*
X131285000Y-72444123D01*
X130535000Y-72444123D01*
X130417946Y-72467407D01*
X130318712Y-72533712D01*
X130285000Y-72584166D01*
X130285000Y-70125000D01*
X130360000Y-70125000D01*
X130360000Y-70309674D01*
X130405672Y-70419937D01*
X130490064Y-70504328D01*
X130600327Y-70550000D01*
X130735000Y-70550000D01*
X130810000Y-70475000D01*
X130810000Y-70050000D01*
X131010000Y-70050000D01*
X131010000Y-70475000D01*
X131085000Y-70550000D01*
X131219673Y-70550000D01*
X131329936Y-70504328D01*
X131414328Y-70419937D01*
X131460000Y-70309674D01*
X131460000Y-70125000D01*
X131860000Y-70125000D01*
X131860000Y-70309674D01*
X131905672Y-70419937D01*
X131990064Y-70504328D01*
X132100327Y-70550000D01*
X132235000Y-70550000D01*
X132310000Y-70475000D01*
X132310000Y-70050000D01*
X132510000Y-70050000D01*
X132510000Y-70475000D01*
X132585000Y-70550000D01*
X132719673Y-70550000D01*
X132829936Y-70504328D01*
X132914328Y-70419937D01*
X132960000Y-70309674D01*
X132960000Y-70125000D01*
X132885000Y-70050000D01*
X132510000Y-70050000D01*
X132310000Y-70050000D01*
X131935000Y-70050000D01*
X131860000Y-70125000D01*
X131460000Y-70125000D01*
X131385000Y-70050000D01*
X131010000Y-70050000D01*
X130810000Y-70050000D01*
X130435000Y-70050000D01*
X130360000Y-70125000D01*
X130285000Y-70125000D01*
X130285000Y-69263880D01*
X130287792Y-69265746D01*
X130390135Y-69286103D01*
X130443712Y-69366288D01*
X130489113Y-69396623D01*
X130405672Y-69480063D01*
X130360000Y-69590326D01*
X130360000Y-69775000D01*
X130435000Y-69850000D01*
X130810000Y-69850000D01*
X130810000Y-69830000D01*
X131010000Y-69830000D01*
X131010000Y-69850000D01*
X131385000Y-69850000D01*
X131460000Y-69775000D01*
X131460000Y-69590326D01*
X131414328Y-69480063D01*
X131330887Y-69396623D01*
X131376288Y-69366288D01*
X131420580Y-69300000D01*
X131899420Y-69300000D01*
X131943712Y-69366288D01*
X131989113Y-69396623D01*
X131905672Y-69480063D01*
X131860000Y-69590326D01*
X131860000Y-69775000D01*
X131935000Y-69850000D01*
X132310000Y-69850000D01*
X132310000Y-69830000D01*
X132510000Y-69830000D01*
X132510000Y-69850000D01*
X132885000Y-69850000D01*
X132960000Y-69775000D01*
X132960000Y-69590326D01*
X132914328Y-69480063D01*
X132830887Y-69396623D01*
X132876288Y-69366288D01*
X132920580Y-69300000D01*
X132960000Y-69300000D01*
X133132208Y-69265746D01*
X133278198Y-69168198D01*
X133387249Y-69059147D01*
X133379123Y-69100000D01*
G36*
X154985000Y-69550000D02*
X155013545Y-69693507D01*
X155094835Y-69815165D01*
X155519835Y-70240165D01*
X155641494Y-70321455D01*
X155785000Y-70350000D01*
X155835000Y-70350000D01*
X155835000Y-70450000D01*
X155910000Y-70525000D01*
X156910000Y-70525000D01*
X156910000Y-70505877D01*
X157110000Y-70505877D01*
X157110000Y-70525000D01*
X157130000Y-70525000D01*
X157130000Y-70725000D01*
X157110000Y-70725000D01*
X157110000Y-70744123D01*
X156910000Y-70744123D01*
X156910000Y-70725000D01*
X155910000Y-70725000D01*
X155835000Y-70800000D01*
X155835000Y-70909673D01*
X155849887Y-70945614D01*
X155829123Y-71050000D01*
X155829123Y-71500000D01*
X155849015Y-71600000D01*
X155829123Y-71700000D01*
X155829123Y-72070555D01*
X155779871Y-72050104D01*
X155696427Y-72050031D01*
X154860000Y-71213604D01*
X154860000Y-69348574D01*
X154918359Y-69290317D01*
X154985000Y-69129827D01*
X154985000Y-69550000D01*
X154985000Y-69550000D01*
G37*
X154985000Y-69550000D02*
X155013545Y-69693507D01*
X155094835Y-69815165D01*
X155519835Y-70240165D01*
X155641494Y-70321455D01*
X155785000Y-70350000D01*
X155835000Y-70350000D01*
X155835000Y-70450000D01*
X155910000Y-70525000D01*
X156910000Y-70525000D01*
X156910000Y-70505877D01*
X157110000Y-70505877D01*
X157110000Y-70525000D01*
X157130000Y-70525000D01*
X157130000Y-70725000D01*
X157110000Y-70725000D01*
X157110000Y-70744123D01*
X156910000Y-70744123D01*
X156910000Y-70725000D01*
X155910000Y-70725000D01*
X155835000Y-70800000D01*
X155835000Y-70909673D01*
X155849887Y-70945614D01*
X155829123Y-71050000D01*
X155829123Y-71500000D01*
X155849015Y-71600000D01*
X155829123Y-71700000D01*
X155829123Y-72070555D01*
X155779871Y-72050104D01*
X155696427Y-72050031D01*
X154860000Y-71213604D01*
X154860000Y-69348574D01*
X154918359Y-69290317D01*
X154985000Y-69129827D01*
X154985000Y-69550000D01*
G36*
X161535000Y-59805330D02*
X161535000Y-59843557D01*
X161463755Y-59772188D01*
X161169828Y-59650139D01*
X160851568Y-59649861D01*
X160557428Y-59771397D01*
X160332188Y-59996245D01*
X160231627Y-60238423D01*
X159715025Y-60755025D01*
X159563284Y-60982121D01*
X159563284Y-60982122D01*
X159510000Y-61250000D01*
X159510000Y-61849680D01*
X159410139Y-62090172D01*
X159409861Y-62408432D01*
X159531397Y-62702572D01*
X159756245Y-62927812D01*
X160050172Y-63049861D01*
X160368432Y-63050139D01*
X160662572Y-62928603D01*
X160887812Y-62703755D01*
X161009861Y-62409828D01*
X161010139Y-62091568D01*
X160910000Y-61849213D01*
X160910000Y-61539950D01*
X161221906Y-61228044D01*
X161462572Y-61128603D01*
X161535000Y-61056301D01*
X161535000Y-65916812D01*
X161478198Y-65831802D01*
X161338594Y-65738521D01*
X161317593Y-65632946D01*
X161251288Y-65533712D01*
X161152054Y-65467407D01*
X161035000Y-65444123D01*
X160285000Y-65444123D01*
X160167946Y-65467407D01*
X160068712Y-65533712D01*
X160010896Y-65620241D01*
X159974126Y-65595672D01*
X159882208Y-65534254D01*
X159710000Y-65500000D01*
X159670580Y-65500000D01*
X159626288Y-65433712D01*
X159580887Y-65403377D01*
X159664328Y-65319937D01*
X159710000Y-65209674D01*
X159710000Y-65025000D01*
X159635000Y-64950000D01*
X159260000Y-64950000D01*
X159260000Y-64970000D01*
X159060000Y-64970000D01*
X159060000Y-64950000D01*
X158685000Y-64950000D01*
X158610000Y-65025000D01*
X158610000Y-65209674D01*
X158655672Y-65319937D01*
X158739113Y-65403377D01*
X158693712Y-65433712D01*
X158649420Y-65500000D01*
X158610000Y-65500000D01*
X158437792Y-65534254D01*
X158345874Y-65595672D01*
X158301982Y-65625000D01*
X158185000Y-65625000D01*
X158185000Y-65600000D01*
X158110000Y-65525000D01*
X157110000Y-65525000D01*
X157110000Y-65544123D01*
X156910000Y-65544123D01*
X156910000Y-65525000D01*
X155910000Y-65525000D01*
X155835000Y-65600000D01*
X155835000Y-65709673D01*
X155849887Y-65745614D01*
X155829123Y-65850000D01*
X155829123Y-66070555D01*
X155779871Y-66050104D01*
X155541176Y-66049896D01*
X155320571Y-66141048D01*
X155151641Y-66309683D01*
X155107153Y-66416823D01*
X154925165Y-66234835D01*
X154803507Y-66153545D01*
X154660000Y-66125000D01*
X153460000Y-66125000D01*
X153316493Y-66153545D01*
X153194835Y-66234835D01*
X152585000Y-66844670D01*
X152585000Y-65140327D01*
X155835000Y-65140327D01*
X155835000Y-65250000D01*
X155910000Y-65325000D01*
X156910000Y-65325000D01*
X156910000Y-64975000D01*
X157110000Y-64975000D01*
X157110000Y-65325000D01*
X158110000Y-65325000D01*
X158185000Y-65250000D01*
X158185000Y-65140327D01*
X158139328Y-65030064D01*
X158054937Y-64945672D01*
X157944674Y-64900000D01*
X157185000Y-64900000D01*
X157110000Y-64975000D01*
X156910000Y-64975000D01*
X156835000Y-64900000D01*
X156075326Y-64900000D01*
X155965063Y-64945672D01*
X155880672Y-65030064D01*
X155835000Y-65140327D01*
X152585000Y-65140327D01*
X152585000Y-64950000D01*
X152560137Y-64825000D01*
X159985000Y-64825000D01*
X159985000Y-65109674D01*
X160030672Y-65219937D01*
X160115064Y-65304328D01*
X160225327Y-65350000D01*
X160485000Y-65350000D01*
X160560000Y-65275000D01*
X160560000Y-64750000D01*
X160760000Y-64750000D01*
X160760000Y-65275000D01*
X160835000Y-65350000D01*
X161094673Y-65350000D01*
X161204936Y-65304328D01*
X161289328Y-65219937D01*
X161335000Y-65109674D01*
X161335000Y-64825000D01*
X161260000Y-64750000D01*
X160760000Y-64750000D01*
X160560000Y-64750000D01*
X160060000Y-64750000D01*
X159985000Y-64825000D01*
X152560137Y-64825000D01*
X152556455Y-64806494D01*
X152556455Y-64806493D01*
X152475165Y-64684835D01*
X152280656Y-64490326D01*
X158610000Y-64490326D01*
X158610000Y-64675000D01*
X158685000Y-64750000D01*
X159060000Y-64750000D01*
X159060000Y-64325000D01*
X159260000Y-64325000D01*
X159260000Y-64750000D01*
X159635000Y-64750000D01*
X159710000Y-64675000D01*
X159710000Y-64490326D01*
X159664328Y-64380063D01*
X159579936Y-64295672D01*
X159469673Y-64250000D01*
X159335000Y-64250000D01*
X159260000Y-64325000D01*
X159060000Y-64325000D01*
X158985000Y-64250000D01*
X158850327Y-64250000D01*
X158740064Y-64295672D01*
X158655672Y-64380063D01*
X158610000Y-64490326D01*
X152280656Y-64490326D01*
X152175165Y-64384835D01*
X152053507Y-64303545D01*
X152039559Y-64300771D01*
X152150004Y-64190326D01*
X159985000Y-64190326D01*
X159985000Y-64475000D01*
X160060000Y-64550000D01*
X160560000Y-64550000D01*
X160560000Y-64025000D01*
X160760000Y-64025000D01*
X160760000Y-64550000D01*
X161260000Y-64550000D01*
X161335000Y-64475000D01*
X161335000Y-64190326D01*
X161289328Y-64080063D01*
X161204936Y-63995672D01*
X161094673Y-63950000D01*
X160835000Y-63950000D01*
X160760000Y-64025000D01*
X160560000Y-64025000D01*
X160485000Y-63950000D01*
X160225327Y-63950000D01*
X160115064Y-63995672D01*
X160030672Y-64080063D01*
X159985000Y-64190326D01*
X152150004Y-64190326D01*
X152175165Y-64165165D01*
X152256454Y-64043507D01*
X152256455Y-64043506D01*
X152275260Y-63948967D01*
X152310000Y-63955877D01*
X152910000Y-63955877D01*
X153027054Y-63932593D01*
X153126288Y-63866288D01*
X153156623Y-63820887D01*
X153240063Y-63904328D01*
X153350326Y-63950000D01*
X153535000Y-63950000D01*
X153610000Y-63875000D01*
X153610000Y-63500000D01*
X153810000Y-63500000D01*
X153810000Y-63875000D01*
X153885000Y-63950000D01*
X154069674Y-63950000D01*
X154179937Y-63904328D01*
X154264328Y-63819936D01*
X154310000Y-63709673D01*
X154310000Y-63575000D01*
X154235000Y-63500000D01*
X153810000Y-63500000D01*
X153610000Y-63500000D01*
X153590000Y-63500000D01*
X153590000Y-63300000D01*
X153610000Y-63300000D01*
X153610000Y-62925000D01*
X153810000Y-62925000D01*
X153810000Y-63300000D01*
X154235000Y-63300000D01*
X154310000Y-63225000D01*
X154310000Y-63090327D01*
X154264328Y-62980064D01*
X154179937Y-62895672D01*
X154069674Y-62850000D01*
X153885000Y-62850000D01*
X153810000Y-62925000D01*
X153610000Y-62925000D01*
X153535000Y-62850000D01*
X153350326Y-62850000D01*
X153240063Y-62895672D01*
X153156623Y-62979113D01*
X153126288Y-62933712D01*
X153027054Y-62867407D01*
X152910000Y-62844123D01*
X152310000Y-62844123D01*
X152192946Y-62867407D01*
X152093712Y-62933712D01*
X152032716Y-63025000D01*
X151850958Y-63025000D01*
X151842593Y-62982946D01*
X151776288Y-62883712D01*
X151677054Y-62817407D01*
X151560000Y-62794123D01*
X151160000Y-62794123D01*
X151042946Y-62817407D01*
X150943712Y-62883712D01*
X150913377Y-62929113D01*
X150829937Y-62845672D01*
X150719674Y-62800000D01*
X150635000Y-62800000D01*
X150560000Y-62875000D01*
X150560000Y-63300000D01*
X150580000Y-63300000D01*
X150580000Y-63500000D01*
X150560000Y-63500000D01*
X150560000Y-63925000D01*
X150635000Y-64000000D01*
X150719674Y-64000000D01*
X150822093Y-63957577D01*
X150504670Y-64275000D01*
X149910000Y-64275000D01*
X149766494Y-64303545D01*
X149696969Y-64350000D01*
X149644835Y-64384835D01*
X149544835Y-64484835D01*
X149463545Y-64606493D01*
X149456183Y-64643506D01*
X149435000Y-64750000D01*
X149435000Y-64894123D01*
X149035000Y-64894123D01*
X149035000Y-64650000D01*
X149017035Y-64559683D01*
X149006455Y-64506493D01*
X148925165Y-64384835D01*
X148625165Y-64084835D01*
X148503507Y-64003545D01*
X148454705Y-63993838D01*
X148442593Y-63932946D01*
X148376288Y-63833712D01*
X148277054Y-63767407D01*
X148160000Y-63744123D01*
X147760049Y-63744123D01*
X147760104Y-63681176D01*
X147716234Y-63575000D01*
X149960000Y-63575000D01*
X149960000Y-63759673D01*
X150005672Y-63869936D01*
X150090063Y-63954328D01*
X150200326Y-64000000D01*
X150285000Y-64000000D01*
X150360000Y-63925000D01*
X150360000Y-63500000D01*
X150035000Y-63500000D01*
X149960000Y-63575000D01*
X147716234Y-63575000D01*
X147668952Y-63460571D01*
X147535000Y-63326385D01*
X147535000Y-63243330D01*
X147738003Y-63040327D01*
X149960000Y-63040327D01*
X149960000Y-63225000D01*
X150035000Y-63300000D01*
X150360000Y-63300000D01*
X150360000Y-62875000D01*
X150285000Y-62800000D01*
X150200326Y-62800000D01*
X150090063Y-62845672D01*
X150005672Y-62930064D01*
X149960000Y-63040327D01*
X147738003Y-63040327D01*
X148449693Y-62328637D01*
X148689734Y-62428310D01*
X149122368Y-62428688D01*
X149522214Y-62263475D01*
X149828400Y-61957823D01*
X149906988Y-61768561D01*
X149984525Y-61956214D01*
X150290177Y-62262400D01*
X150689734Y-62428310D01*
X151122368Y-62428688D01*
X151522214Y-62263475D01*
X151786196Y-61999953D01*
X151814874Y-62069358D01*
X152176737Y-62431853D01*
X152649777Y-62628276D01*
X153161976Y-62628723D01*
X153635358Y-62433126D01*
X153687153Y-62381422D01*
X153759020Y-62488980D01*
X153924410Y-62599489D01*
X154119500Y-62638295D01*
X155694500Y-62638295D01*
X155889590Y-62599489D01*
X156054980Y-62488980D01*
X156165489Y-62323590D01*
X156204295Y-62128500D01*
X156204295Y-60553500D01*
X156165489Y-60358410D01*
X156054980Y-60193020D01*
X155889590Y-60082511D01*
X155694500Y-60043705D01*
X154119500Y-60043705D01*
X153924410Y-60082511D01*
X153759020Y-60193020D01*
X153687335Y-60300306D01*
X153637263Y-60250147D01*
X153164223Y-60053724D01*
X152652024Y-60053277D01*
X152178642Y-60248874D01*
X151816147Y-60610737D01*
X151786324Y-60682559D01*
X151523823Y-60419600D01*
X151124266Y-60253690D01*
X150691632Y-60253312D01*
X150291786Y-60418525D01*
X149985600Y-60724177D01*
X149907012Y-60913439D01*
X149829475Y-60725786D01*
X149523823Y-60419600D01*
X149124266Y-60253690D01*
X148691632Y-60253312D01*
X148291786Y-60418525D01*
X147985600Y-60724177D01*
X147907012Y-60913439D01*
X147829475Y-60725786D01*
X147523823Y-60419600D01*
X147124266Y-60253690D01*
X146691632Y-60253312D01*
X146291786Y-60418525D01*
X145985600Y-60724177D01*
X145907012Y-60913439D01*
X145829475Y-60725786D01*
X145523823Y-60419600D01*
X145124266Y-60253690D01*
X144691632Y-60253312D01*
X144291786Y-60418525D01*
X143985600Y-60724177D01*
X143907012Y-60913439D01*
X143829475Y-60725786D01*
X143523823Y-60419600D01*
X143124266Y-60253690D01*
X142691632Y-60253312D01*
X142291786Y-60418525D01*
X141985600Y-60724177D01*
X141907012Y-60913439D01*
X141829475Y-60725786D01*
X141523823Y-60419600D01*
X141124266Y-60253690D01*
X140691632Y-60253312D01*
X140291786Y-60418525D01*
X139985600Y-60724177D01*
X139907012Y-60913439D01*
X139829475Y-60725786D01*
X139523823Y-60419600D01*
X139124266Y-60253690D01*
X138691632Y-60253312D01*
X138291786Y-60418525D01*
X137985600Y-60724177D01*
X137907012Y-60913439D01*
X137829475Y-60725786D01*
X137523823Y-60419600D01*
X137124266Y-60253690D01*
X136691632Y-60253312D01*
X136291786Y-60418525D01*
X135985600Y-60724177D01*
X135819690Y-61123734D01*
X135819312Y-61556368D01*
X135984525Y-61956214D01*
X136290177Y-62262400D01*
X136689734Y-62428310D01*
X137122368Y-62428688D01*
X137522214Y-62263475D01*
X137828400Y-61957823D01*
X137906988Y-61768561D01*
X137984525Y-61956214D01*
X138290177Y-62262400D01*
X138689734Y-62428310D01*
X139122368Y-62428688D01*
X139522214Y-62263475D01*
X139828400Y-61957823D01*
X139906988Y-61768561D01*
X139984525Y-61956214D01*
X140290177Y-62262400D01*
X140689734Y-62428310D01*
X141110062Y-62428677D01*
X141109939Y-62569731D01*
X140504670Y-63175000D01*
X140110000Y-63175000D01*
X139966493Y-63203545D01*
X139844835Y-63284835D01*
X139544835Y-63584835D01*
X139463545Y-63706493D01*
X139456060Y-63744123D01*
X139435000Y-63850000D01*
X139435000Y-67744670D01*
X139044835Y-68134835D01*
X138963545Y-68256493D01*
X138945651Y-68346455D01*
X138935000Y-68400000D01*
X138935000Y-71194670D01*
X138794835Y-71334835D01*
X138789386Y-71342990D01*
X137760032Y-70313636D01*
X137760104Y-70231176D01*
X137668952Y-70010571D01*
X137610000Y-69951516D01*
X137610000Y-67200000D01*
X137575746Y-67027792D01*
X137478198Y-66881802D01*
X136928198Y-66331802D01*
X136894453Y-66309254D01*
X136782208Y-66234254D01*
X136610000Y-66200000D01*
X136308574Y-66200000D01*
X136250317Y-66141641D01*
X136029871Y-66050104D01*
X135791176Y-66049896D01*
X135735000Y-66073107D01*
X135735000Y-65977004D01*
X135790129Y-65999896D01*
X136028824Y-66000104D01*
X136249429Y-65908952D01*
X136418359Y-65740317D01*
X136509896Y-65519871D01*
X136510104Y-65281176D01*
X136418952Y-65060571D01*
X136250317Y-64891641D01*
X136029871Y-64800104D01*
X135791176Y-64799896D01*
X135570571Y-64891048D01*
X135545477Y-64916099D01*
X135435000Y-64894123D01*
X133685000Y-64894123D01*
X133567946Y-64917407D01*
X133468712Y-64983712D01*
X133402407Y-65082946D01*
X133379123Y-65200000D01*
X133379123Y-65650000D01*
X133399887Y-65754386D01*
X133385000Y-65790327D01*
X133385000Y-65900000D01*
X133460000Y-65975000D01*
X134460000Y-65975000D01*
X134460000Y-65955877D01*
X134660000Y-65955877D01*
X134660000Y-65975000D01*
X134680000Y-65975000D01*
X134680000Y-66175000D01*
X134660000Y-66175000D01*
X134660000Y-66194123D01*
X134460000Y-66194123D01*
X134460000Y-66175000D01*
X133460000Y-66175000D01*
X133385000Y-66250000D01*
X133385000Y-66275000D01*
X133335000Y-66275000D01*
X133162792Y-66309254D01*
X133084107Y-66361830D01*
X133085000Y-66359674D01*
X133085000Y-66075000D01*
X133010000Y-66000000D01*
X132510000Y-66000000D01*
X132510000Y-66525000D01*
X132585000Y-66600000D01*
X132829642Y-66600000D01*
X132766751Y-66694123D01*
X132035000Y-66694123D01*
X131917946Y-66717407D01*
X131860000Y-66756125D01*
X131860000Y-66549264D01*
X131865064Y-66554328D01*
X131975327Y-66600000D01*
X132235000Y-66600000D01*
X132310000Y-66525000D01*
X132310000Y-66000000D01*
X132290000Y-66000000D01*
X132290000Y-65800000D01*
X132310000Y-65800000D01*
X132310000Y-65275000D01*
X132510000Y-65275000D01*
X132510000Y-65800000D01*
X133010000Y-65800000D01*
X133085000Y-65725000D01*
X133085000Y-65440326D01*
X133039328Y-65330063D01*
X132954936Y-65245672D01*
X132844673Y-65200000D01*
X132585000Y-65200000D01*
X132510000Y-65275000D01*
X132310000Y-65275000D01*
X132235000Y-65200000D01*
X131975327Y-65200000D01*
X131865064Y-65245672D01*
X131860000Y-65250736D01*
X131860000Y-62950000D01*
X131825746Y-62777792D01*
X131790279Y-62724712D01*
X131941108Y-62662390D01*
X131943712Y-62666288D01*
X132042946Y-62732593D01*
X132160000Y-62755877D01*
X132560000Y-62755877D01*
X132677054Y-62732593D01*
X132776288Y-62666288D01*
X132806623Y-62620887D01*
X132890063Y-62704328D01*
X133000326Y-62750000D01*
X133085000Y-62750000D01*
X133160000Y-62675000D01*
X133160000Y-62250000D01*
X133360000Y-62250000D01*
X133360000Y-62675000D01*
X133435000Y-62750000D01*
X133519674Y-62750000D01*
X133629937Y-62704328D01*
X133714328Y-62619936D01*
X133760000Y-62509673D01*
X133760000Y-62325000D01*
X133685000Y-62250000D01*
X133360000Y-62250000D01*
X133160000Y-62250000D01*
X133140000Y-62250000D01*
X133140000Y-62050000D01*
X133160000Y-62050000D01*
X133160000Y-61625000D01*
X133360000Y-61625000D01*
X133360000Y-62050000D01*
X133685000Y-62050000D01*
X133760000Y-61975000D01*
X133760000Y-61790327D01*
X133714328Y-61680064D01*
X133629937Y-61595672D01*
X133519674Y-61550000D01*
X133435000Y-61550000D01*
X133360000Y-61625000D01*
X133160000Y-61625000D01*
X133085000Y-61550000D01*
X133000326Y-61550000D01*
X132890063Y-61595672D01*
X132806623Y-61679113D01*
X132776288Y-61633712D01*
X132677054Y-61567407D01*
X132560000Y-61544123D01*
X132160000Y-61544123D01*
X132042946Y-61567407D01*
X131943712Y-61633712D01*
X131940999Y-61637772D01*
X131812134Y-61584262D01*
X131996396Y-61400000D01*
X133710000Y-61400000D01*
X133882208Y-61365746D01*
X134028198Y-61268198D01*
X134328198Y-60968198D01*
X134343715Y-60944975D01*
X134425746Y-60822208D01*
X134460000Y-60650000D01*
X134460000Y-60150000D01*
X134425746Y-59977792D01*
X134328198Y-59831802D01*
X134128198Y-59631802D01*
X134095095Y-59609683D01*
X133982208Y-59534254D01*
X133810000Y-59500000D01*
X133720580Y-59500000D01*
X133676288Y-59433712D01*
X133577054Y-59367407D01*
X133460000Y-59344123D01*
X133060000Y-59344123D01*
X132942946Y-59367407D01*
X132843712Y-59433712D01*
X132810000Y-59484166D01*
X132776288Y-59433712D01*
X132677054Y-59367407D01*
X132560000Y-59344123D01*
X132160000Y-59344123D01*
X132042946Y-59367407D01*
X131943712Y-59433712D01*
X131899420Y-59500000D01*
X131808574Y-59500000D01*
X131750317Y-59441641D01*
X131529871Y-59350104D01*
X131291176Y-59349896D01*
X131070571Y-59441048D01*
X130901641Y-59609683D01*
X130810104Y-59830129D01*
X130809896Y-60068824D01*
X130901048Y-60289429D01*
X131069683Y-60458359D01*
X131290129Y-60549896D01*
X131528824Y-60550104D01*
X131749429Y-60458952D01*
X131808484Y-60400000D01*
X131899420Y-60400000D01*
X131943712Y-60466288D01*
X131994166Y-60500000D01*
X131810000Y-60500000D01*
X131637792Y-60534254D01*
X131491802Y-60631802D01*
X130591802Y-61531802D01*
X130494254Y-61677792D01*
X130460000Y-61850000D01*
X130460000Y-62450000D01*
X130494254Y-62622208D01*
X130571624Y-62738000D01*
X130591802Y-62768198D01*
X130960000Y-63136396D01*
X130960000Y-67150000D01*
X130994254Y-67322208D01*
X131089775Y-67465165D01*
X131091802Y-67468198D01*
X131341802Y-67718198D01*
X131487792Y-67815746D01*
X131660000Y-67850000D01*
X131739069Y-67850000D01*
X131752407Y-67917054D01*
X131818712Y-68016288D01*
X131917946Y-68082593D01*
X132035000Y-68105877D01*
X132710000Y-68105877D01*
X132710000Y-68254069D01*
X132660000Y-68244123D01*
X132160000Y-68244123D01*
X132042946Y-68267407D01*
X131943712Y-68333712D01*
X131899420Y-68400000D01*
X131420580Y-68400000D01*
X131376288Y-68333712D01*
X131277054Y-68267407D01*
X131160000Y-68244123D01*
X130660000Y-68244123D01*
X130542946Y-68267407D01*
X130443712Y-68333712D01*
X130390135Y-68413897D01*
X130287792Y-68434254D01*
X130285000Y-68436120D01*
X130285000Y-59805330D01*
X131315330Y-58775000D01*
X160504670Y-58775000D01*
X161535000Y-59805330D01*
X161535000Y-59805330D01*
G37*
X161535000Y-59805330D02*
X161535000Y-59843557D01*
X161463755Y-59772188D01*
X161169828Y-59650139D01*
X160851568Y-59649861D01*
X160557428Y-59771397D01*
X160332188Y-59996245D01*
X160231627Y-60238423D01*
X159715025Y-60755025D01*
X159563284Y-60982121D01*
X159563284Y-60982122D01*
X159510000Y-61250000D01*
X159510000Y-61849680D01*
X159410139Y-62090172D01*
X159409861Y-62408432D01*
X159531397Y-62702572D01*
X159756245Y-62927812D01*
X160050172Y-63049861D01*
X160368432Y-63050139D01*
X160662572Y-62928603D01*
X160887812Y-62703755D01*
X161009861Y-62409828D01*
X161010139Y-62091568D01*
X160910000Y-61849213D01*
X160910000Y-61539950D01*
X161221906Y-61228044D01*
X161462572Y-61128603D01*
X161535000Y-61056301D01*
X161535000Y-65916812D01*
X161478198Y-65831802D01*
X161338594Y-65738521D01*
X161317593Y-65632946D01*
X161251288Y-65533712D01*
X161152054Y-65467407D01*
X161035000Y-65444123D01*
X160285000Y-65444123D01*
X160167946Y-65467407D01*
X160068712Y-65533712D01*
X160010896Y-65620241D01*
X159974126Y-65595672D01*
X159882208Y-65534254D01*
X159710000Y-65500000D01*
X159670580Y-65500000D01*
X159626288Y-65433712D01*
X159580887Y-65403377D01*
X159664328Y-65319937D01*
X159710000Y-65209674D01*
X159710000Y-65025000D01*
X159635000Y-64950000D01*
X159260000Y-64950000D01*
X159260000Y-64970000D01*
X159060000Y-64970000D01*
X159060000Y-64950000D01*
X158685000Y-64950000D01*
X158610000Y-65025000D01*
X158610000Y-65209674D01*
X158655672Y-65319937D01*
X158739113Y-65403377D01*
X158693712Y-65433712D01*
X158649420Y-65500000D01*
X158610000Y-65500000D01*
X158437792Y-65534254D01*
X158345874Y-65595672D01*
X158301982Y-65625000D01*
X158185000Y-65625000D01*
X158185000Y-65600000D01*
X158110000Y-65525000D01*
X157110000Y-65525000D01*
X157110000Y-65544123D01*
X156910000Y-65544123D01*
X156910000Y-65525000D01*
X155910000Y-65525000D01*
X155835000Y-65600000D01*
X155835000Y-65709673D01*
X155849887Y-65745614D01*
X155829123Y-65850000D01*
X155829123Y-66070555D01*
X155779871Y-66050104D01*
X155541176Y-66049896D01*
X155320571Y-66141048D01*
X155151641Y-66309683D01*
X155107153Y-66416823D01*
X154925165Y-66234835D01*
X154803507Y-66153545D01*
X154660000Y-66125000D01*
X153460000Y-66125000D01*
X153316493Y-66153545D01*
X153194835Y-66234835D01*
X152585000Y-66844670D01*
X152585000Y-65140327D01*
X155835000Y-65140327D01*
X155835000Y-65250000D01*
X155910000Y-65325000D01*
X156910000Y-65325000D01*
X156910000Y-64975000D01*
X157110000Y-64975000D01*
X157110000Y-65325000D01*
X158110000Y-65325000D01*
X158185000Y-65250000D01*
X158185000Y-65140327D01*
X158139328Y-65030064D01*
X158054937Y-64945672D01*
X157944674Y-64900000D01*
X157185000Y-64900000D01*
X157110000Y-64975000D01*
X156910000Y-64975000D01*
X156835000Y-64900000D01*
X156075326Y-64900000D01*
X155965063Y-64945672D01*
X155880672Y-65030064D01*
X155835000Y-65140327D01*
X152585000Y-65140327D01*
X152585000Y-64950000D01*
X152560137Y-64825000D01*
X159985000Y-64825000D01*
X159985000Y-65109674D01*
X160030672Y-65219937D01*
X160115064Y-65304328D01*
X160225327Y-65350000D01*
X160485000Y-65350000D01*
X160560000Y-65275000D01*
X160560000Y-64750000D01*
X160760000Y-64750000D01*
X160760000Y-65275000D01*
X160835000Y-65350000D01*
X161094673Y-65350000D01*
X161204936Y-65304328D01*
X161289328Y-65219937D01*
X161335000Y-65109674D01*
X161335000Y-64825000D01*
X161260000Y-64750000D01*
X160760000Y-64750000D01*
X160560000Y-64750000D01*
X160060000Y-64750000D01*
X159985000Y-64825000D01*
X152560137Y-64825000D01*
X152556455Y-64806494D01*
X152556455Y-64806493D01*
X152475165Y-64684835D01*
X152280656Y-64490326D01*
X158610000Y-64490326D01*
X158610000Y-64675000D01*
X158685000Y-64750000D01*
X159060000Y-64750000D01*
X159060000Y-64325000D01*
X159260000Y-64325000D01*
X159260000Y-64750000D01*
X159635000Y-64750000D01*
X159710000Y-64675000D01*
X159710000Y-64490326D01*
X159664328Y-64380063D01*
X159579936Y-64295672D01*
X159469673Y-64250000D01*
X159335000Y-64250000D01*
X159260000Y-64325000D01*
X159060000Y-64325000D01*
X158985000Y-64250000D01*
X158850327Y-64250000D01*
X158740064Y-64295672D01*
X158655672Y-64380063D01*
X158610000Y-64490326D01*
X152280656Y-64490326D01*
X152175165Y-64384835D01*
X152053507Y-64303545D01*
X152039559Y-64300771D01*
X152150004Y-64190326D01*
X159985000Y-64190326D01*
X159985000Y-64475000D01*
X160060000Y-64550000D01*
X160560000Y-64550000D01*
X160560000Y-64025000D01*
X160760000Y-64025000D01*
X160760000Y-64550000D01*
X161260000Y-64550000D01*
X161335000Y-64475000D01*
X161335000Y-64190326D01*
X161289328Y-64080063D01*
X161204936Y-63995672D01*
X161094673Y-63950000D01*
X160835000Y-63950000D01*
X160760000Y-64025000D01*
X160560000Y-64025000D01*
X160485000Y-63950000D01*
X160225327Y-63950000D01*
X160115064Y-63995672D01*
X160030672Y-64080063D01*
X159985000Y-64190326D01*
X152150004Y-64190326D01*
X152175165Y-64165165D01*
X152256454Y-64043507D01*
X152256455Y-64043506D01*
X152275260Y-63948967D01*
X152310000Y-63955877D01*
X152910000Y-63955877D01*
X153027054Y-63932593D01*
X153126288Y-63866288D01*
X153156623Y-63820887D01*
X153240063Y-63904328D01*
X153350326Y-63950000D01*
X153535000Y-63950000D01*
X153610000Y-63875000D01*
X153610000Y-63500000D01*
X153810000Y-63500000D01*
X153810000Y-63875000D01*
X153885000Y-63950000D01*
X154069674Y-63950000D01*
X154179937Y-63904328D01*
X154264328Y-63819936D01*
X154310000Y-63709673D01*
X154310000Y-63575000D01*
X154235000Y-63500000D01*
X153810000Y-63500000D01*
X153610000Y-63500000D01*
X153590000Y-63500000D01*
X153590000Y-63300000D01*
X153610000Y-63300000D01*
X153610000Y-62925000D01*
X153810000Y-62925000D01*
X153810000Y-63300000D01*
X154235000Y-63300000D01*
X154310000Y-63225000D01*
X154310000Y-63090327D01*
X154264328Y-62980064D01*
X154179937Y-62895672D01*
X154069674Y-62850000D01*
X153885000Y-62850000D01*
X153810000Y-62925000D01*
X153610000Y-62925000D01*
X153535000Y-62850000D01*
X153350326Y-62850000D01*
X153240063Y-62895672D01*
X153156623Y-62979113D01*
X153126288Y-62933712D01*
X153027054Y-62867407D01*
X152910000Y-62844123D01*
X152310000Y-62844123D01*
X152192946Y-62867407D01*
X152093712Y-62933712D01*
X152032716Y-63025000D01*
X151850958Y-63025000D01*
X151842593Y-62982946D01*
X151776288Y-62883712D01*
X151677054Y-62817407D01*
X151560000Y-62794123D01*
X151160000Y-62794123D01*
X151042946Y-62817407D01*
X150943712Y-62883712D01*
X150913377Y-62929113D01*
X150829937Y-62845672D01*
X150719674Y-62800000D01*
X150635000Y-62800000D01*
X150560000Y-62875000D01*
X150560000Y-63300000D01*
X150580000Y-63300000D01*
X150580000Y-63500000D01*
X150560000Y-63500000D01*
X150560000Y-63925000D01*
X150635000Y-64000000D01*
X150719674Y-64000000D01*
X150822093Y-63957577D01*
X150504670Y-64275000D01*
X149910000Y-64275000D01*
X149766494Y-64303545D01*
X149696969Y-64350000D01*
X149644835Y-64384835D01*
X149544835Y-64484835D01*
X149463545Y-64606493D01*
X149456183Y-64643506D01*
X149435000Y-64750000D01*
X149435000Y-64894123D01*
X149035000Y-64894123D01*
X149035000Y-64650000D01*
X149017035Y-64559683D01*
X149006455Y-64506493D01*
X148925165Y-64384835D01*
X148625165Y-64084835D01*
X148503507Y-64003545D01*
X148454705Y-63993838D01*
X148442593Y-63932946D01*
X148376288Y-63833712D01*
X148277054Y-63767407D01*
X148160000Y-63744123D01*
X147760049Y-63744123D01*
X147760104Y-63681176D01*
X147716234Y-63575000D01*
X149960000Y-63575000D01*
X149960000Y-63759673D01*
X150005672Y-63869936D01*
X150090063Y-63954328D01*
X150200326Y-64000000D01*
X150285000Y-64000000D01*
X150360000Y-63925000D01*
X150360000Y-63500000D01*
X150035000Y-63500000D01*
X149960000Y-63575000D01*
X147716234Y-63575000D01*
X147668952Y-63460571D01*
X147535000Y-63326385D01*
X147535000Y-63243330D01*
X147738003Y-63040327D01*
X149960000Y-63040327D01*
X149960000Y-63225000D01*
X150035000Y-63300000D01*
X150360000Y-63300000D01*
X150360000Y-62875000D01*
X150285000Y-62800000D01*
X150200326Y-62800000D01*
X150090063Y-62845672D01*
X150005672Y-62930064D01*
X149960000Y-63040327D01*
X147738003Y-63040327D01*
X148449693Y-62328637D01*
X148689734Y-62428310D01*
X149122368Y-62428688D01*
X149522214Y-62263475D01*
X149828400Y-61957823D01*
X149906988Y-61768561D01*
X149984525Y-61956214D01*
X150290177Y-62262400D01*
X150689734Y-62428310D01*
X151122368Y-62428688D01*
X151522214Y-62263475D01*
X151786196Y-61999953D01*
X151814874Y-62069358D01*
X152176737Y-62431853D01*
X152649777Y-62628276D01*
X153161976Y-62628723D01*
X153635358Y-62433126D01*
X153687153Y-62381422D01*
X153759020Y-62488980D01*
X153924410Y-62599489D01*
X154119500Y-62638295D01*
X155694500Y-62638295D01*
X155889590Y-62599489D01*
X156054980Y-62488980D01*
X156165489Y-62323590D01*
X156204295Y-62128500D01*
X156204295Y-60553500D01*
X156165489Y-60358410D01*
X156054980Y-60193020D01*
X155889590Y-60082511D01*
X155694500Y-60043705D01*
X154119500Y-60043705D01*
X153924410Y-60082511D01*
X153759020Y-60193020D01*
X153687335Y-60300306D01*
X153637263Y-60250147D01*
X153164223Y-60053724D01*
X152652024Y-60053277D01*
X152178642Y-60248874D01*
X151816147Y-60610737D01*
X151786324Y-60682559D01*
X151523823Y-60419600D01*
X151124266Y-60253690D01*
X150691632Y-60253312D01*
X150291786Y-60418525D01*
X149985600Y-60724177D01*
X149907012Y-60913439D01*
X149829475Y-60725786D01*
X149523823Y-60419600D01*
X149124266Y-60253690D01*
X148691632Y-60253312D01*
X148291786Y-60418525D01*
X147985600Y-60724177D01*
X147907012Y-60913439D01*
X147829475Y-60725786D01*
X147523823Y-60419600D01*
X147124266Y-60253690D01*
X146691632Y-60253312D01*
X146291786Y-60418525D01*
X145985600Y-60724177D01*
X145907012Y-60913439D01*
X145829475Y-60725786D01*
X145523823Y-60419600D01*
X145124266Y-60253690D01*
X144691632Y-60253312D01*
X144291786Y-60418525D01*
X143985600Y-60724177D01*
X143907012Y-60913439D01*
X143829475Y-60725786D01*
X143523823Y-60419600D01*
X143124266Y-60253690D01*
X142691632Y-60253312D01*
X142291786Y-60418525D01*
X141985600Y-60724177D01*
X141907012Y-60913439D01*
X141829475Y-60725786D01*
X141523823Y-60419600D01*
X141124266Y-60253690D01*
X140691632Y-60253312D01*
X140291786Y-60418525D01*
X139985600Y-60724177D01*
X139907012Y-60913439D01*
X139829475Y-60725786D01*
X139523823Y-60419600D01*
X139124266Y-60253690D01*
X138691632Y-60253312D01*
X138291786Y-60418525D01*
X137985600Y-60724177D01*
X137907012Y-60913439D01*
X137829475Y-60725786D01*
X137523823Y-60419600D01*
X137124266Y-60253690D01*
X136691632Y-60253312D01*
X136291786Y-60418525D01*
X135985600Y-60724177D01*
X135819690Y-61123734D01*
X135819312Y-61556368D01*
X135984525Y-61956214D01*
X136290177Y-62262400D01*
X136689734Y-62428310D01*
X137122368Y-62428688D01*
X137522214Y-62263475D01*
X137828400Y-61957823D01*
X137906988Y-61768561D01*
X137984525Y-61956214D01*
X138290177Y-62262400D01*
X138689734Y-62428310D01*
X139122368Y-62428688D01*
X139522214Y-62263475D01*
X139828400Y-61957823D01*
X139906988Y-61768561D01*
X139984525Y-61956214D01*
X140290177Y-62262400D01*
X140689734Y-62428310D01*
X141110062Y-62428677D01*
X141109939Y-62569731D01*
X140504670Y-63175000D01*
X140110000Y-63175000D01*
X139966493Y-63203545D01*
X139844835Y-63284835D01*
X139544835Y-63584835D01*
X139463545Y-63706493D01*
X139456060Y-63744123D01*
X139435000Y-63850000D01*
X139435000Y-67744670D01*
X139044835Y-68134835D01*
X138963545Y-68256493D01*
X138945651Y-68346455D01*
X138935000Y-68400000D01*
X138935000Y-71194670D01*
X138794835Y-71334835D01*
X138789386Y-71342990D01*
X137760032Y-70313636D01*
X137760104Y-70231176D01*
X137668952Y-70010571D01*
X137610000Y-69951516D01*
X137610000Y-67200000D01*
X137575746Y-67027792D01*
X137478198Y-66881802D01*
X136928198Y-66331802D01*
X136894453Y-66309254D01*
X136782208Y-66234254D01*
X136610000Y-66200000D01*
X136308574Y-66200000D01*
X136250317Y-66141641D01*
X136029871Y-66050104D01*
X135791176Y-66049896D01*
X135735000Y-66073107D01*
X135735000Y-65977004D01*
X135790129Y-65999896D01*
X136028824Y-66000104D01*
X136249429Y-65908952D01*
X136418359Y-65740317D01*
X136509896Y-65519871D01*
X136510104Y-65281176D01*
X136418952Y-65060571D01*
X136250317Y-64891641D01*
X136029871Y-64800104D01*
X135791176Y-64799896D01*
X135570571Y-64891048D01*
X135545477Y-64916099D01*
X135435000Y-64894123D01*
X133685000Y-64894123D01*
X133567946Y-64917407D01*
X133468712Y-64983712D01*
X133402407Y-65082946D01*
X133379123Y-65200000D01*
X133379123Y-65650000D01*
X133399887Y-65754386D01*
X133385000Y-65790327D01*
X133385000Y-65900000D01*
X133460000Y-65975000D01*
X134460000Y-65975000D01*
X134460000Y-65955877D01*
X134660000Y-65955877D01*
X134660000Y-65975000D01*
X134680000Y-65975000D01*
X134680000Y-66175000D01*
X134660000Y-66175000D01*
X134660000Y-66194123D01*
X134460000Y-66194123D01*
X134460000Y-66175000D01*
X133460000Y-66175000D01*
X133385000Y-66250000D01*
X133385000Y-66275000D01*
X133335000Y-66275000D01*
X133162792Y-66309254D01*
X133084107Y-66361830D01*
X133085000Y-66359674D01*
X133085000Y-66075000D01*
X133010000Y-66000000D01*
X132510000Y-66000000D01*
X132510000Y-66525000D01*
X132585000Y-66600000D01*
X132829642Y-66600000D01*
X132766751Y-66694123D01*
X132035000Y-66694123D01*
X131917946Y-66717407D01*
X131860000Y-66756125D01*
X131860000Y-66549264D01*
X131865064Y-66554328D01*
X131975327Y-66600000D01*
X132235000Y-66600000D01*
X132310000Y-66525000D01*
X132310000Y-66000000D01*
X132290000Y-66000000D01*
X132290000Y-65800000D01*
X132310000Y-65800000D01*
X132310000Y-65275000D01*
X132510000Y-65275000D01*
X132510000Y-65800000D01*
X133010000Y-65800000D01*
X133085000Y-65725000D01*
X133085000Y-65440326D01*
X133039328Y-65330063D01*
X132954936Y-65245672D01*
X132844673Y-65200000D01*
X132585000Y-65200000D01*
X132510000Y-65275000D01*
X132310000Y-65275000D01*
X132235000Y-65200000D01*
X131975327Y-65200000D01*
X131865064Y-65245672D01*
X131860000Y-65250736D01*
X131860000Y-62950000D01*
X131825746Y-62777792D01*
X131790279Y-62724712D01*
X131941108Y-62662390D01*
X131943712Y-62666288D01*
X132042946Y-62732593D01*
X132160000Y-62755877D01*
X132560000Y-62755877D01*
X132677054Y-62732593D01*
X132776288Y-62666288D01*
X132806623Y-62620887D01*
X132890063Y-62704328D01*
X133000326Y-62750000D01*
X133085000Y-62750000D01*
X133160000Y-62675000D01*
X133160000Y-62250000D01*
X133360000Y-62250000D01*
X133360000Y-62675000D01*
X133435000Y-62750000D01*
X133519674Y-62750000D01*
X133629937Y-62704328D01*
X133714328Y-62619936D01*
X133760000Y-62509673D01*
X133760000Y-62325000D01*
X133685000Y-62250000D01*
X133360000Y-62250000D01*
X133160000Y-62250000D01*
X133140000Y-62250000D01*
X133140000Y-62050000D01*
X133160000Y-62050000D01*
X133160000Y-61625000D01*
X133360000Y-61625000D01*
X133360000Y-62050000D01*
X133685000Y-62050000D01*
X133760000Y-61975000D01*
X133760000Y-61790327D01*
X133714328Y-61680064D01*
X133629937Y-61595672D01*
X133519674Y-61550000D01*
X133435000Y-61550000D01*
X133360000Y-61625000D01*
X133160000Y-61625000D01*
X133085000Y-61550000D01*
X133000326Y-61550000D01*
X132890063Y-61595672D01*
X132806623Y-61679113D01*
X132776288Y-61633712D01*
X132677054Y-61567407D01*
X132560000Y-61544123D01*
X132160000Y-61544123D01*
X132042946Y-61567407D01*
X131943712Y-61633712D01*
X131940999Y-61637772D01*
X131812134Y-61584262D01*
X131996396Y-61400000D01*
X133710000Y-61400000D01*
X133882208Y-61365746D01*
X134028198Y-61268198D01*
X134328198Y-60968198D01*
X134343715Y-60944975D01*
X134425746Y-60822208D01*
X134460000Y-60650000D01*
X134460000Y-60150000D01*
X134425746Y-59977792D01*
X134328198Y-59831802D01*
X134128198Y-59631802D01*
X134095095Y-59609683D01*
X133982208Y-59534254D01*
X133810000Y-59500000D01*
X133720580Y-59500000D01*
X133676288Y-59433712D01*
X133577054Y-59367407D01*
X133460000Y-59344123D01*
X133060000Y-59344123D01*
X132942946Y-59367407D01*
X132843712Y-59433712D01*
X132810000Y-59484166D01*
X132776288Y-59433712D01*
X132677054Y-59367407D01*
X132560000Y-59344123D01*
X132160000Y-59344123D01*
X132042946Y-59367407D01*
X131943712Y-59433712D01*
X131899420Y-59500000D01*
X131808574Y-59500000D01*
X131750317Y-59441641D01*
X131529871Y-59350104D01*
X131291176Y-59349896D01*
X131070571Y-59441048D01*
X130901641Y-59609683D01*
X130810104Y-59830129D01*
X130809896Y-60068824D01*
X130901048Y-60289429D01*
X131069683Y-60458359D01*
X131290129Y-60549896D01*
X131528824Y-60550104D01*
X131749429Y-60458952D01*
X131808484Y-60400000D01*
X131899420Y-60400000D01*
X131943712Y-60466288D01*
X131994166Y-60500000D01*
X131810000Y-60500000D01*
X131637792Y-60534254D01*
X131491802Y-60631802D01*
X130591802Y-61531802D01*
X130494254Y-61677792D01*
X130460000Y-61850000D01*
X130460000Y-62450000D01*
X130494254Y-62622208D01*
X130571624Y-62738000D01*
X130591802Y-62768198D01*
X130960000Y-63136396D01*
X130960000Y-67150000D01*
X130994254Y-67322208D01*
X131089775Y-67465165D01*
X131091802Y-67468198D01*
X131341802Y-67718198D01*
X131487792Y-67815746D01*
X131660000Y-67850000D01*
X131739069Y-67850000D01*
X131752407Y-67917054D01*
X131818712Y-68016288D01*
X131917946Y-68082593D01*
X132035000Y-68105877D01*
X132710000Y-68105877D01*
X132710000Y-68254069D01*
X132660000Y-68244123D01*
X132160000Y-68244123D01*
X132042946Y-68267407D01*
X131943712Y-68333712D01*
X131899420Y-68400000D01*
X131420580Y-68400000D01*
X131376288Y-68333712D01*
X131277054Y-68267407D01*
X131160000Y-68244123D01*
X130660000Y-68244123D01*
X130542946Y-68267407D01*
X130443712Y-68333712D01*
X130390135Y-68413897D01*
X130287792Y-68434254D01*
X130285000Y-68436120D01*
X130285000Y-59805330D01*
X131315330Y-58775000D01*
X160504670Y-58775000D01*
X161535000Y-59805330D01*
G36*
X161535000Y-70324315D02*
X161525746Y-70277792D01*
X161428198Y-70131802D01*
X161282208Y-70034254D01*
X161179865Y-70013897D01*
X161126288Y-69933712D01*
X161080887Y-69903377D01*
X161164328Y-69819937D01*
X161210000Y-69709674D01*
X161210000Y-69525000D01*
X161135000Y-69450000D01*
X160760000Y-69450000D01*
X160760000Y-69470000D01*
X160560000Y-69470000D01*
X160560000Y-69450000D01*
X160185000Y-69450000D01*
X160110000Y-69525000D01*
X160110000Y-69709674D01*
X160155672Y-69819937D01*
X160239113Y-69903377D01*
X160193712Y-69933712D01*
X160149420Y-70000000D01*
X159670580Y-70000000D01*
X159626288Y-69933712D01*
X159580887Y-69903377D01*
X159664328Y-69819937D01*
X159710000Y-69709674D01*
X159710000Y-69525000D01*
X159635000Y-69450000D01*
X159260000Y-69450000D01*
X159260000Y-69470000D01*
X159060000Y-69470000D01*
X159060000Y-69450000D01*
X158685000Y-69450000D01*
X158610000Y-69525000D01*
X158610000Y-69709674D01*
X158655672Y-69819937D01*
X158739113Y-69903377D01*
X158693712Y-69933712D01*
X158649420Y-70000000D01*
X158610000Y-70000000D01*
X158437792Y-70034254D01*
X158313346Y-70117407D01*
X158291802Y-70131802D01*
X158182751Y-70240853D01*
X158190877Y-70200000D01*
X158190877Y-69750000D01*
X158170985Y-69650000D01*
X158190877Y-69550000D01*
X158190877Y-69100000D01*
X158170113Y-68995614D01*
X158172303Y-68990326D01*
X158610000Y-68990326D01*
X158610000Y-69175000D01*
X158685000Y-69250000D01*
X159060000Y-69250000D01*
X159060000Y-68825000D01*
X159260000Y-68825000D01*
X159260000Y-69250000D01*
X159635000Y-69250000D01*
X159710000Y-69175000D01*
X159710000Y-68990326D01*
X160110000Y-68990326D01*
X160110000Y-69175000D01*
X160185000Y-69250000D01*
X160560000Y-69250000D01*
X160560000Y-68825000D01*
X160760000Y-68825000D01*
X160760000Y-69250000D01*
X161135000Y-69250000D01*
X161210000Y-69175000D01*
X161210000Y-68990326D01*
X161164328Y-68880063D01*
X161079936Y-68795672D01*
X160969673Y-68750000D01*
X160835000Y-68750000D01*
X160760000Y-68825000D01*
X160560000Y-68825000D01*
X160485000Y-68750000D01*
X160350327Y-68750000D01*
X160240064Y-68795672D01*
X160155672Y-68880063D01*
X160110000Y-68990326D01*
X159710000Y-68990326D01*
X159664328Y-68880063D01*
X159579936Y-68795672D01*
X159469673Y-68750000D01*
X159335000Y-68750000D01*
X159260000Y-68825000D01*
X159060000Y-68825000D01*
X158985000Y-68750000D01*
X158850327Y-68750000D01*
X158740064Y-68795672D01*
X158655672Y-68880063D01*
X158610000Y-68990326D01*
X158172303Y-68990326D01*
X158185000Y-68959673D01*
X158185000Y-68850000D01*
X158110000Y-68775000D01*
X157110000Y-68775000D01*
X157110000Y-68794123D01*
X156910000Y-68794123D01*
X156910000Y-68775000D01*
X156890000Y-68775000D01*
X156890000Y-68575000D01*
X156910000Y-68575000D01*
X156910000Y-68555877D01*
X157110000Y-68555877D01*
X157110000Y-68575000D01*
X158110000Y-68575000D01*
X158185000Y-68500000D01*
X158185000Y-68390327D01*
X158170113Y-68354386D01*
X158190877Y-68250000D01*
X158190877Y-67800000D01*
X158170985Y-67700000D01*
X158190877Y-67600000D01*
X158190877Y-67150000D01*
X158170985Y-67050000D01*
X158190877Y-66950000D01*
X158190877Y-66525000D01*
X158485000Y-66525000D01*
X158657208Y-66490746D01*
X158693762Y-66466321D01*
X158792946Y-66532593D01*
X158910000Y-66555877D01*
X159410000Y-66555877D01*
X159527054Y-66532593D01*
X159607616Y-66478764D01*
X159737792Y-66565746D01*
X159910000Y-66600000D01*
X159989069Y-66600000D01*
X160002407Y-66667054D01*
X160068712Y-66766288D01*
X160167946Y-66832593D01*
X160285000Y-66855877D01*
X161035000Y-66855877D01*
X161152054Y-66832593D01*
X161251288Y-66766288D01*
X161317593Y-66667054D01*
X161338594Y-66561479D01*
X161478198Y-66468198D01*
X161535000Y-66383188D01*
X161535000Y-70324315D01*
X161535000Y-70324315D01*
G37*
X161535000Y-70324315D02*
X161525746Y-70277792D01*
X161428198Y-70131802D01*
X161282208Y-70034254D01*
X161179865Y-70013897D01*
X161126288Y-69933712D01*
X161080887Y-69903377D01*
X161164328Y-69819937D01*
X161210000Y-69709674D01*
X161210000Y-69525000D01*
X161135000Y-69450000D01*
X160760000Y-69450000D01*
X160760000Y-69470000D01*
X160560000Y-69470000D01*
X160560000Y-69450000D01*
X160185000Y-69450000D01*
X160110000Y-69525000D01*
X160110000Y-69709674D01*
X160155672Y-69819937D01*
X160239113Y-69903377D01*
X160193712Y-69933712D01*
X160149420Y-70000000D01*
X159670580Y-70000000D01*
X159626288Y-69933712D01*
X159580887Y-69903377D01*
X159664328Y-69819937D01*
X159710000Y-69709674D01*
X159710000Y-69525000D01*
X159635000Y-69450000D01*
X159260000Y-69450000D01*
X159260000Y-69470000D01*
X159060000Y-69470000D01*
X159060000Y-69450000D01*
X158685000Y-69450000D01*
X158610000Y-69525000D01*
X158610000Y-69709674D01*
X158655672Y-69819937D01*
X158739113Y-69903377D01*
X158693712Y-69933712D01*
X158649420Y-70000000D01*
X158610000Y-70000000D01*
X158437792Y-70034254D01*
X158313346Y-70117407D01*
X158291802Y-70131802D01*
X158182751Y-70240853D01*
X158190877Y-70200000D01*
X158190877Y-69750000D01*
X158170985Y-69650000D01*
X158190877Y-69550000D01*
X158190877Y-69100000D01*
X158170113Y-68995614D01*
X158172303Y-68990326D01*
X158610000Y-68990326D01*
X158610000Y-69175000D01*
X158685000Y-69250000D01*
X159060000Y-69250000D01*
X159060000Y-68825000D01*
X159260000Y-68825000D01*
X159260000Y-69250000D01*
X159635000Y-69250000D01*
X159710000Y-69175000D01*
X159710000Y-68990326D01*
X160110000Y-68990326D01*
X160110000Y-69175000D01*
X160185000Y-69250000D01*
X160560000Y-69250000D01*
X160560000Y-68825000D01*
X160760000Y-68825000D01*
X160760000Y-69250000D01*
X161135000Y-69250000D01*
X161210000Y-69175000D01*
X161210000Y-68990326D01*
X161164328Y-68880063D01*
X161079936Y-68795672D01*
X160969673Y-68750000D01*
X160835000Y-68750000D01*
X160760000Y-68825000D01*
X160560000Y-68825000D01*
X160485000Y-68750000D01*
X160350327Y-68750000D01*
X160240064Y-68795672D01*
X160155672Y-68880063D01*
X160110000Y-68990326D01*
X159710000Y-68990326D01*
X159664328Y-68880063D01*
X159579936Y-68795672D01*
X159469673Y-68750000D01*
X159335000Y-68750000D01*
X159260000Y-68825000D01*
X159060000Y-68825000D01*
X158985000Y-68750000D01*
X158850327Y-68750000D01*
X158740064Y-68795672D01*
X158655672Y-68880063D01*
X158610000Y-68990326D01*
X158172303Y-68990326D01*
X158185000Y-68959673D01*
X158185000Y-68850000D01*
X158110000Y-68775000D01*
X157110000Y-68775000D01*
X157110000Y-68794123D01*
X156910000Y-68794123D01*
X156910000Y-68775000D01*
X156890000Y-68775000D01*
X156890000Y-68575000D01*
X156910000Y-68575000D01*
X156910000Y-68555877D01*
X157110000Y-68555877D01*
X157110000Y-68575000D01*
X158110000Y-68575000D01*
X158185000Y-68500000D01*
X158185000Y-68390327D01*
X158170113Y-68354386D01*
X158190877Y-68250000D01*
X158190877Y-67800000D01*
X158170985Y-67700000D01*
X158190877Y-67600000D01*
X158190877Y-67150000D01*
X158170985Y-67050000D01*
X158190877Y-66950000D01*
X158190877Y-66525000D01*
X158485000Y-66525000D01*
X158657208Y-66490746D01*
X158693762Y-66466321D01*
X158792946Y-66532593D01*
X158910000Y-66555877D01*
X159410000Y-66555877D01*
X159527054Y-66532593D01*
X159607616Y-66478764D01*
X159737792Y-66565746D01*
X159910000Y-66600000D01*
X159989069Y-66600000D01*
X160002407Y-66667054D01*
X160068712Y-66766288D01*
X160167946Y-66832593D01*
X160285000Y-66855877D01*
X161035000Y-66855877D01*
X161152054Y-66832593D01*
X161251288Y-66766288D01*
X161317593Y-66667054D01*
X161338594Y-66561479D01*
X161478198Y-66468198D01*
X161535000Y-66383188D01*
X161535000Y-70324315D01*
G36*
X136710000Y-67386396D02*
X136710000Y-69686969D01*
X136675165Y-69634835D01*
X136100165Y-69059835D01*
X135978507Y-68978545D01*
X135835000Y-68950000D01*
X135735000Y-68950000D01*
X135735000Y-68850000D01*
X135660000Y-68775000D01*
X134660000Y-68775000D01*
X134660000Y-68794123D01*
X134460000Y-68794123D01*
X134460000Y-68775000D01*
X134440000Y-68775000D01*
X134440000Y-68575000D01*
X134460000Y-68575000D01*
X134460000Y-68555877D01*
X134660000Y-68555877D01*
X134660000Y-68575000D01*
X135660000Y-68575000D01*
X135735000Y-68500000D01*
X135735000Y-68390327D01*
X135720113Y-68354386D01*
X135740877Y-68250000D01*
X135740877Y-67800000D01*
X135720985Y-67700000D01*
X135740877Y-67600000D01*
X135740877Y-67229445D01*
X135790129Y-67249896D01*
X136028824Y-67250104D01*
X136249429Y-67158952D01*
X136308484Y-67100000D01*
X136423604Y-67100000D01*
X136710000Y-67386396D01*
X136710000Y-67386396D01*
G37*
X136710000Y-67386396D02*
X136710000Y-69686969D01*
X136675165Y-69634835D01*
X136100165Y-69059835D01*
X135978507Y-68978545D01*
X135835000Y-68950000D01*
X135735000Y-68950000D01*
X135735000Y-68850000D01*
X135660000Y-68775000D01*
X134660000Y-68775000D01*
X134660000Y-68794123D01*
X134460000Y-68794123D01*
X134460000Y-68775000D01*
X134440000Y-68775000D01*
X134440000Y-68575000D01*
X134460000Y-68575000D01*
X134460000Y-68555877D01*
X134660000Y-68555877D01*
X134660000Y-68575000D01*
X135660000Y-68575000D01*
X135735000Y-68500000D01*
X135735000Y-68390327D01*
X135720113Y-68354386D01*
X135740877Y-68250000D01*
X135740877Y-67800000D01*
X135720985Y-67700000D01*
X135740877Y-67600000D01*
X135740877Y-67229445D01*
X135790129Y-67249896D01*
X136028824Y-67250104D01*
X136249429Y-67158952D01*
X136308484Y-67100000D01*
X136423604Y-67100000D01*
X136710000Y-67386396D01*
G36*
X148010000Y-65350000D02*
X148030000Y-65350000D01*
X148030000Y-65550000D01*
X148010000Y-65550000D01*
X148010000Y-65975000D01*
X148085000Y-66050000D01*
X148219673Y-66050000D01*
X148285000Y-66022941D01*
X148285000Y-66277059D01*
X148219673Y-66250000D01*
X148085000Y-66250000D01*
X148010000Y-66325000D01*
X148010000Y-66750000D01*
X148030000Y-66750000D01*
X148030000Y-66950000D01*
X148010000Y-66950000D01*
X148010000Y-66970000D01*
X147810000Y-66970000D01*
X147810000Y-66950000D01*
X147790000Y-66950000D01*
X147790000Y-66750000D01*
X147810000Y-66750000D01*
X147810000Y-66325000D01*
X147735000Y-66250000D01*
X147600327Y-66250000D01*
X147535000Y-66277059D01*
X147535000Y-66022941D01*
X147600327Y-66050000D01*
X147735000Y-66050000D01*
X147810000Y-65975000D01*
X147810000Y-65550000D01*
X147790000Y-65550000D01*
X147790000Y-65350000D01*
X147810000Y-65350000D01*
X147810000Y-65330000D01*
X148010000Y-65330000D01*
X148010000Y-65350000D01*
X148010000Y-65350000D01*
G37*
X148010000Y-65350000D02*
X148030000Y-65350000D01*
X148030000Y-65550000D01*
X148010000Y-65550000D01*
X148010000Y-65975000D01*
X148085000Y-66050000D01*
X148219673Y-66050000D01*
X148285000Y-66022941D01*
X148285000Y-66277059D01*
X148219673Y-66250000D01*
X148085000Y-66250000D01*
X148010000Y-66325000D01*
X148010000Y-66750000D01*
X148030000Y-66750000D01*
X148030000Y-66950000D01*
X148010000Y-66950000D01*
X148010000Y-66970000D01*
X147810000Y-66970000D01*
X147810000Y-66950000D01*
X147790000Y-66950000D01*
X147790000Y-66750000D01*
X147810000Y-66750000D01*
X147810000Y-66325000D01*
X147735000Y-66250000D01*
X147600327Y-66250000D01*
X147535000Y-66277059D01*
X147535000Y-66022941D01*
X147600327Y-66050000D01*
X147735000Y-66050000D01*
X147810000Y-65975000D01*
X147810000Y-65550000D01*
X147790000Y-65550000D01*
X147790000Y-65350000D01*
X147810000Y-65350000D01*
X147810000Y-65330000D01*
X148010000Y-65330000D01*
X148010000Y-65350000D01*
G36*
X142435000Y-62955330D02*
X142435000Y-64344670D01*
X142304670Y-64475000D01*
X141566233Y-64475000D01*
X141518952Y-64360571D01*
X141350317Y-64191641D01*
X141129871Y-64100104D01*
X140891176Y-64099896D01*
X140670571Y-64191048D01*
X140501641Y-64359683D01*
X140410104Y-64580129D01*
X140409912Y-64799999D01*
X140291176Y-64799896D01*
X140185000Y-64843767D01*
X140185000Y-64005330D01*
X140265330Y-63925000D01*
X140660000Y-63925000D01*
X140803507Y-63896455D01*
X140925165Y-63815165D01*
X141640390Y-63099940D01*
X141828824Y-63100104D01*
X142049429Y-63008952D01*
X142218359Y-62840317D01*
X142248177Y-62768507D01*
X142435000Y-62955330D01*
X142435000Y-62955330D01*
G37*
X142435000Y-62955330D02*
X142435000Y-64344670D01*
X142304670Y-64475000D01*
X141566233Y-64475000D01*
X141518952Y-64360571D01*
X141350317Y-64191641D01*
X141129871Y-64100104D01*
X140891176Y-64099896D01*
X140670571Y-64191048D01*
X140501641Y-64359683D01*
X140410104Y-64580129D01*
X140409912Y-64799999D01*
X140291176Y-64799896D01*
X140185000Y-64843767D01*
X140185000Y-64005330D01*
X140265330Y-63925000D01*
X140660000Y-63925000D01*
X140803507Y-63896455D01*
X140925165Y-63815165D01*
X141640390Y-63099940D01*
X141828824Y-63100104D01*
X142049429Y-63008952D01*
X142218359Y-62840317D01*
X142248177Y-62768507D01*
X142435000Y-62955330D01*
M02*
