M48
INCH,TZ
T10C0.012
T11C0.041
%
T10
X051736Y-23602
X051815Y-23268
X051815Y-24469
X052130Y-25551
X052130Y-27913
X052130Y-29685
X052760Y-24469
X053232Y-30728
X053508Y-25256
X053508Y-25748
X053508Y-26240
X053508Y-27028
X053508Y-28602
X053508Y-29094
X053545Y-31724
X053547Y-23681
X053813Y-31622
X054000Y-27697
X054347Y-31229
X054445Y-31724
X054551Y-26693
X054945Y-31724
X055083Y-27126
X055083Y-27618
X055083Y-28110
X055083Y-28602
X055083Y-29094
X055280Y-25256
X055280Y-25748
X055280Y-26043
X055378Y-31260
X055516Y-25472
X055654Y-29567
X055673Y-31122
X055791Y-24606
X056215Y-31124
X056559Y-28799
X056795Y-27618
X056795Y-30197
X056806Y-31124
X056854Y-29272
X056894Y-28602
X056972Y-27874
X056972Y-28307
X057051Y-26122
X057120Y-31153
X057445Y-23622
X057445Y-31124
X057484Y-24823
X057720Y-26319
X057819Y-27244
X057937Y-25118
X057937Y-25551
X057937Y-26535
X057996Y-30059
X058016Y-27008
X058232Y-26043
X058545Y-31124
X058556Y-31676
X058921Y-24961
X059020Y-31240
X059197Y-29390
X059512Y-29094
X059512Y-29488
X059630Y-28130
X059689Y-31496
X059709Y-25748
X059709Y-26240
X059709Y-26732
X059709Y-27224
X059709Y-27717
X059965Y-23327
X060004Y-31161
X060063Y-31614
X060791Y-27146
X060890Y-24961
X061185Y-30374
X061283Y-25748
X061283Y-26240
X061283Y-27815
X061283Y-28602
X061283Y-29094
X061283Y-29587
X061972Y-30610
X062661Y-25157
X062661Y-26929
X062661Y-29291
X062661Y-30610
X062996Y-23327
X063075Y-24508
X063390Y-23799
T11
X053900Y-24150
X054688Y-24150
X055475Y-24150
X056263Y-24150
X057050Y-24150
X057837Y-24150
X058625Y-24150
X059412Y-24150
X060200Y-24150
X060987Y-24150
M30

