G04 #@! TF.GenerationSoftware,KiCad,Pcbnew,(5.1.5)-3*
G04 #@! TF.CreationDate,2020-03-16T23:26:29+11:00*
G04 #@! TF.ProjectId,din_meter_atm90e26,64696e5f-6d65-4746-9572-5f61746d3930,rev?*
G04 #@! TF.SameCoordinates,Original*
G04 #@! TF.FileFunction,Copper,L2,Bot*
G04 #@! TF.FilePolarity,Positive*
%FSLAX46Y46*%
G04 Gerber Fmt 4.6, Leading zero omitted, Abs format (unit mm)*
G04 Created by KiCad (PCBNEW (5.1.5)-3) date 2020-03-16 23:26:29*
%MOMM*%
%LPD*%
G04 APERTURE LIST*
%ADD10C,1.000000*%
%ADD11R,1.270000X0.970000*%
%ADD12R,1.575000X1.575000*%
%ADD13C,1.575000*%
%ADD14O,0.650000X0.650000*%
%ADD15R,0.650000X4.600000*%
%ADD16R,0.650000X3.600000*%
%ADD17C,0.600000*%
%ADD18C,0.250000*%
%ADD19C,0.150000*%
%ADD20C,0.300000*%
%ADD21C,0.400000*%
%ADD22C,0.200000*%
G04 APERTURE END LIST*
D10*
X138910000Y-70150000D03*
X138910000Y-68900000D03*
X138910000Y-73900000D03*
X138910000Y-72650000D03*
X138910000Y-71400000D03*
X152660000Y-70400000D03*
X152660000Y-69150000D03*
X152660000Y-67900000D03*
X152660000Y-66650000D03*
X152660000Y-65400000D03*
D11*
X137160000Y-64130000D03*
X137160000Y-65400000D03*
X137160000Y-66670000D03*
X137160000Y-71380000D03*
X137160000Y-72650000D03*
X137160000Y-73920000D03*
X139160000Y-64130000D03*
X139160000Y-65400000D03*
X139160000Y-66670000D03*
D12*
X154907000Y-61341000D03*
D13*
X152907000Y-61341000D03*
X150907000Y-61341000D03*
X148907000Y-61341000D03*
X146907000Y-61341000D03*
X144907000Y-61341000D03*
X142907000Y-61341000D03*
X140907000Y-61341000D03*
X138907000Y-61341000D03*
X136907000Y-61341000D03*
D11*
X152410000Y-75170000D03*
X152410000Y-73900000D03*
X152410000Y-72630000D03*
X154410000Y-75170000D03*
X154410000Y-73900000D03*
X154410000Y-72630000D03*
X154410000Y-67920000D03*
X154410000Y-66650000D03*
X154410000Y-65380000D03*
D14*
X136508000Y-87723000D03*
X154508000Y-87723000D03*
X153508000Y-87723000D03*
X148508000Y-87723000D03*
X145508000Y-87723000D03*
X152508000Y-87723000D03*
X149508000Y-87723000D03*
X137508000Y-87723000D03*
X151508000Y-87723000D03*
X150508000Y-87723000D03*
X144508000Y-87723000D03*
X143508000Y-87723000D03*
X142508000Y-87723000D03*
X141508000Y-87723000D03*
X140508000Y-87723000D03*
X139508000Y-87723000D03*
X138508000Y-87723000D03*
D15*
X149508000Y-85423000D03*
X148508000Y-85423000D03*
X154508000Y-85423000D03*
X153508000Y-85423000D03*
X152508000Y-85423000D03*
X151508000Y-85423000D03*
X150508000Y-85423000D03*
X145508000Y-85423000D03*
X144508000Y-85423000D03*
X143508000Y-85423000D03*
X142508000Y-85423000D03*
X141508000Y-85423000D03*
X140508000Y-85423000D03*
X139508000Y-85423000D03*
X138508000Y-85423000D03*
X137508000Y-85423000D03*
X136508000Y-85423000D03*
D16*
X135508000Y-84923000D03*
D17*
X140410000Y-65400000D03*
X144410000Y-74350000D03*
X141360000Y-75100000D03*
X141710000Y-62500000D03*
X146860000Y-69200000D03*
X146610000Y-66850000D03*
X144260000Y-70150000D03*
X144510000Y-72650000D03*
X144910000Y-66350000D03*
X146010000Y-63050000D03*
X144710000Y-70800000D03*
X144710000Y-71900000D03*
X135910000Y-72650000D03*
X144286000Y-79056000D03*
X145910000Y-79056000D03*
X142786461Y-79055354D03*
X148704000Y-79056000D03*
X138042239Y-79321293D03*
X155660000Y-70650000D03*
X151460000Y-71450000D03*
X135910000Y-68650000D03*
X138560000Y-67800000D03*
X131610000Y-59100000D03*
X136010000Y-60150000D03*
X134010000Y-62150000D03*
X160010000Y-59250000D03*
X152310000Y-59250000D03*
X145910000Y-60000000D03*
X159160000Y-74400000D03*
X159160000Y-77750000D03*
X143660000Y-73150000D03*
X140660000Y-79400000D03*
X152410000Y-79150000D03*
X149910000Y-79350000D03*
X155410000Y-77150000D03*
X135210000Y-78050000D03*
X151160000Y-74900000D03*
X154660000Y-63400000D03*
X149660000Y-63400000D03*
X140410000Y-64150000D03*
X135910000Y-64150000D03*
X135910000Y-73900000D03*
X132410000Y-64900000D03*
X132410000Y-70900000D03*
X132410000Y-75400000D03*
X147910000Y-66150000D03*
X159160000Y-63900000D03*
X159160000Y-68400000D03*
X155660000Y-75150000D03*
X155660000Y-65400000D03*
X135910000Y-65400000D03*
X147310000Y-76350000D03*
X150360000Y-74650000D03*
X144260000Y-76700000D03*
X154410000Y-68950000D03*
X137160000Y-70350000D03*
X135910000Y-66650000D03*
X155660000Y-72650000D03*
X151160000Y-73900000D03*
X155660000Y-66650000D03*
X155660000Y-73900000D03*
X147160000Y-63800000D03*
X147160000Y-64900000D03*
X147160000Y-67400000D03*
X147360000Y-68600000D03*
X151660000Y-70400000D03*
X151660000Y-69150000D03*
X151660000Y-67900000D03*
X151660000Y-66650000D03*
X151660000Y-65400000D03*
X139560000Y-80580000D03*
X136685978Y-80319685D03*
X136004000Y-80580000D03*
X141010000Y-64700000D03*
X140410000Y-66150000D03*
X139910000Y-68900000D03*
X139910000Y-70150000D03*
X139910000Y-71400000D03*
X139910000Y-72650000D03*
X139910000Y-73900000D03*
X138290000Y-80580000D03*
X131410000Y-59950000D03*
X141410000Y-79050000D03*
X152560000Y-80300000D03*
X148733208Y-80456023D03*
X157410000Y-77750000D03*
X145084798Y-79129816D03*
X151610000Y-80000000D03*
X160210000Y-62250000D03*
X161010000Y-60450000D03*
X131610000Y-62150000D03*
D18*
X139160000Y-65400000D02*
X139160000Y-66718000D01*
D19*
X140410000Y-65400000D02*
X139160000Y-65400000D01*
X144410000Y-74350000D02*
X143660000Y-75100000D01*
X143660000Y-75100000D02*
X141360000Y-75100000D01*
X141710000Y-62500000D02*
X142869000Y-61341000D01*
X142869000Y-61341000D02*
X142907000Y-61341000D01*
X146860000Y-69200000D02*
X146810000Y-69150000D01*
X146810000Y-69150000D02*
X146810000Y-67850000D01*
X146810000Y-67850000D02*
X146610000Y-67650000D01*
X146610000Y-67650000D02*
X146610000Y-66850000D01*
X144160000Y-70250000D02*
X144260000Y-70150000D01*
X144160000Y-72300000D02*
X144160000Y-70250000D01*
X144510000Y-72650000D02*
X144160000Y-72300000D01*
X146010000Y-65250000D02*
X146010000Y-63050000D01*
X144910000Y-66350000D02*
X146010000Y-65250000D01*
X144710000Y-71900000D02*
X144710000Y-70800000D01*
D18*
X137160000Y-72650000D02*
X137160000Y-73836000D01*
D19*
X137160000Y-72650000D02*
X135910000Y-72650000D01*
D20*
X141970035Y-80710035D02*
X143676247Y-80710035D01*
X143676247Y-80710035D02*
X144100511Y-80710035D01*
X140660000Y-79400000D02*
X141970035Y-80710035D01*
X155660000Y-70650000D02*
X154860000Y-71450000D01*
X154860000Y-71450000D02*
X151460000Y-71450000D01*
X135910000Y-68650000D02*
X136760000Y-67800000D01*
X136760000Y-67800000D02*
X138560000Y-67800000D01*
X136010000Y-60150000D02*
X136160000Y-60000000D01*
X159710000Y-58950000D02*
X160010000Y-59250000D01*
X152610000Y-58950000D02*
X159710000Y-58950000D01*
X152310000Y-59250000D02*
X152610000Y-58950000D01*
X136160000Y-60000000D02*
X145910000Y-60000000D01*
X151180000Y-75170000D02*
X151180000Y-74920000D01*
X151180000Y-74920000D02*
X151160000Y-74900000D01*
X140390000Y-64130000D02*
X140410000Y-64150000D01*
X139160000Y-64130000D02*
X140390000Y-64130000D01*
X135930000Y-64130000D02*
X135910000Y-64150000D01*
X137160000Y-64130000D02*
X135930000Y-64130000D01*
X135910000Y-73900000D02*
X135930000Y-73920000D01*
X135930000Y-73920000D02*
X137160000Y-73920000D01*
X152410000Y-75170000D02*
X151180000Y-75170000D01*
X151180000Y-75170000D02*
X151160000Y-75150000D01*
X154410000Y-75170000D02*
X155640000Y-75170000D01*
X155640000Y-75170000D02*
X155660000Y-75150000D01*
X155640000Y-65380000D02*
X154410000Y-65380000D01*
X155660000Y-65400000D02*
X155640000Y-65380000D01*
D18*
X137160000Y-65400000D02*
X137160000Y-64083000D01*
D19*
X135910000Y-65400000D02*
X137160000Y-65400000D01*
D20*
X151280000Y-72630000D02*
X152410000Y-72630000D01*
X150360000Y-73550000D02*
X151280000Y-72630000D01*
X150360000Y-74650000D02*
X150360000Y-73550000D01*
X146960000Y-76700000D02*
X147310000Y-76350000D01*
X144260000Y-76700000D02*
X146960000Y-76700000D01*
X154410000Y-67920000D02*
X154410000Y-68950000D01*
X137160000Y-71380000D02*
X137160000Y-70350000D01*
X135930000Y-66670000D02*
X135910000Y-66650000D01*
X137160000Y-66670000D02*
X135930000Y-66670000D01*
X137160000Y-66670000D02*
X139160000Y-66670000D01*
X154410000Y-72630000D02*
X152410000Y-72630000D01*
X154410000Y-72630000D02*
X155640000Y-72630000D01*
X155640000Y-72630000D02*
X155660000Y-72650000D01*
D18*
X152410000Y-73900000D02*
X152410000Y-72602000D01*
D19*
X151160000Y-73900000D02*
X152410000Y-73900000D01*
D18*
X154410000Y-66650000D02*
X154410000Y-65349000D01*
D19*
X154410000Y-66650000D02*
X155660000Y-66650000D01*
D18*
X154410000Y-73900000D02*
X154410000Y-75110000D01*
D19*
X155660000Y-73900000D02*
X154410000Y-73900000D01*
X147160000Y-64900000D02*
X147160000Y-63800000D01*
X147160000Y-68400000D02*
X147160000Y-67400000D01*
X147360000Y-68600000D02*
X147160000Y-68400000D01*
X151660000Y-70400000D02*
X152660000Y-70400000D01*
X151660000Y-69150000D02*
X152660000Y-69150000D01*
X152660000Y-67900000D02*
X151660000Y-67900000D01*
X151660000Y-66650000D02*
X152660000Y-66650000D01*
X151660000Y-65400000D02*
X152660000Y-65400000D01*
X138999686Y-80019686D02*
X139260001Y-80280001D01*
X136985977Y-80019686D02*
X138999686Y-80019686D01*
X136685978Y-80319685D02*
X136985977Y-80019686D01*
X139260001Y-80280001D02*
X139560000Y-80580000D01*
X136508000Y-85423000D02*
X136508000Y-81084000D01*
X136303999Y-80879999D02*
X136004000Y-80580000D01*
X136508000Y-81084000D02*
X136303999Y-80879999D01*
X141010000Y-65550000D02*
X141010000Y-64700000D01*
X140410000Y-66150000D02*
X141010000Y-65550000D01*
X139910000Y-68900000D02*
X138910000Y-68900000D01*
X139910000Y-70150000D02*
X138910000Y-70150000D01*
X138910000Y-71400000D02*
X139910000Y-71400000D01*
X139910000Y-72650000D02*
X138910000Y-72650000D01*
X139910000Y-73900000D02*
X138910000Y-73900000D01*
X138508000Y-85423000D02*
X138508000Y-80798000D01*
X138508000Y-80798000D02*
X138290000Y-80580000D01*
D20*
X131410000Y-59950000D02*
X131310000Y-60050000D01*
X131310000Y-60050000D02*
X131310000Y-60450000D01*
X130410000Y-61750000D02*
X130410000Y-61350000D01*
X130810000Y-79650000D02*
X130410000Y-79250000D01*
X130410000Y-79250000D02*
X130410000Y-62250000D01*
X130410000Y-62250000D02*
X130410000Y-61750000D01*
X135508000Y-84923000D02*
X135508000Y-82848000D01*
X134410000Y-79650000D02*
X133710000Y-79650000D01*
X135210000Y-80450000D02*
X134410000Y-79650000D01*
X135210000Y-82550000D02*
X135210000Y-80450000D01*
X135508000Y-82848000D02*
X135210000Y-82550000D01*
X133710000Y-79650000D02*
X130810000Y-79650000D01*
X136001000Y-61341000D02*
X136907000Y-61341000D01*
X135110000Y-60450000D02*
X136001000Y-61341000D01*
X131310000Y-60450000D02*
X135110000Y-60450000D01*
X130410000Y-61350000D02*
X131310000Y-60450000D01*
X136898000Y-61350000D02*
X136907000Y-61341000D01*
D19*
X151885736Y-80550000D02*
X152135736Y-80300000D01*
X149705002Y-80550000D02*
X151885736Y-80550000D01*
X148990021Y-79835019D02*
X149705002Y-80550000D01*
X141410000Y-79050000D02*
X142195019Y-79835019D01*
X142195019Y-79835019D02*
X148990021Y-79835019D01*
X152135736Y-80300000D02*
X152560000Y-80300000D01*
X155055404Y-77750000D02*
X153134998Y-79670406D01*
X153134998Y-79670406D02*
X153134998Y-80825002D01*
X149152183Y-80874998D02*
X149033207Y-80756022D01*
X157410000Y-77750000D02*
X155055404Y-77750000D01*
X153134998Y-80825002D02*
X153085002Y-80874998D01*
X149033207Y-80756022D02*
X148733208Y-80456023D01*
X153085002Y-80874998D02*
X149152183Y-80874998D01*
X145084798Y-78705552D02*
X145084798Y-79129816D01*
X145542349Y-78248001D02*
X145084798Y-78705552D01*
X151610000Y-80000000D02*
X149858001Y-78248001D01*
X149858001Y-78248001D02*
X145542349Y-78248001D01*
D21*
X153810000Y-81050000D02*
X153810000Y-81550000D01*
X153810000Y-79950000D02*
X153810000Y-81050000D01*
X152907000Y-61341000D02*
X152907000Y-60553000D01*
X160110000Y-78750000D02*
X155010000Y-78750000D01*
X160510000Y-78350000D02*
X160110000Y-78750000D01*
X160510000Y-62550000D02*
X160510000Y-78350000D01*
X160210000Y-62250000D02*
X160510000Y-62550000D01*
X156910000Y-60450000D02*
X161010000Y-60450000D01*
X156310000Y-59850000D02*
X156910000Y-60450000D01*
X153610000Y-59850000D02*
X156310000Y-59850000D01*
X152907000Y-60553000D02*
X153610000Y-59850000D01*
X155010000Y-78750000D02*
X153810000Y-79950000D01*
X153810000Y-81550000D02*
X152210000Y-81550000D01*
X148508000Y-82752000D02*
X148508000Y-85423000D01*
X148810000Y-82450000D02*
X148508000Y-82752000D01*
X151310000Y-82450000D02*
X148810000Y-82450000D01*
X152210000Y-81550000D02*
X151310000Y-82450000D01*
X152610000Y-82450000D02*
X152508000Y-82552000D01*
X154710000Y-82450000D02*
X153410000Y-82450000D01*
X153410000Y-82450000D02*
X152610000Y-82450000D01*
X154907000Y-61341000D02*
X160601000Y-61341000D01*
X152508000Y-82552000D02*
X152508000Y-85423000D01*
X154710000Y-80350000D02*
X154710000Y-81750000D01*
X155410000Y-79650000D02*
X154710000Y-80350000D01*
X160910000Y-79650000D02*
X155410000Y-79650000D01*
X161410000Y-79150000D02*
X160910000Y-79650000D01*
X161410000Y-62150000D02*
X161410000Y-79150000D01*
X160601000Y-61341000D02*
X161410000Y-62150000D01*
X154710000Y-81750000D02*
X154710000Y-82450000D01*
D20*
X142508000Y-85423000D02*
X142508000Y-82565996D01*
X131010000Y-71067996D02*
X131010000Y-62150000D01*
X142508000Y-82565996D02*
X131010000Y-71067996D01*
X131610000Y-62150000D02*
X131010000Y-62150000D01*
X131010000Y-62150000D02*
X131010000Y-61650000D01*
X136410000Y-62550000D02*
X137698000Y-62550000D01*
X134910000Y-61050000D02*
X136410000Y-62550000D01*
X131610000Y-61050000D02*
X134910000Y-61050000D01*
X131010000Y-61650000D02*
X131610000Y-61050000D01*
X137698000Y-62550000D02*
X138907000Y-61341000D01*
D22*
G36*
X136076176Y-62852572D02*
G01*
X136090263Y-62869737D01*
X136107428Y-62883824D01*
X136107432Y-62883828D01*
X136158783Y-62925971D01*
X136186491Y-62940781D01*
X136236959Y-62967757D01*
X136321785Y-62993489D01*
X136387895Y-63000000D01*
X136387907Y-63000000D01*
X136409999Y-63002176D01*
X136432091Y-63000000D01*
X137675906Y-63000000D01*
X137698000Y-63002176D01*
X137720094Y-63000000D01*
X137720105Y-63000000D01*
X137786215Y-62993489D01*
X137871041Y-62967757D01*
X137949216Y-62925971D01*
X138017737Y-62869737D01*
X138031829Y-62852566D01*
X138524663Y-62359732D01*
X138589788Y-62386708D01*
X138799891Y-62428500D01*
X139014109Y-62428500D01*
X139224212Y-62386708D01*
X139422124Y-62304730D01*
X139600241Y-62185716D01*
X139751716Y-62034241D01*
X139870730Y-61856124D01*
X139907000Y-61768561D01*
X139943270Y-61856124D01*
X140062284Y-62034241D01*
X140213759Y-62185716D01*
X140391876Y-62304730D01*
X140589788Y-62386708D01*
X140799891Y-62428500D01*
X141014109Y-62428500D01*
X141116520Y-62408129D01*
X141110000Y-62440905D01*
X141110000Y-62559095D01*
X141133058Y-62675014D01*
X141178287Y-62784207D01*
X141243950Y-62882478D01*
X141327522Y-62966050D01*
X141425793Y-63031713D01*
X141534986Y-63076942D01*
X141650905Y-63100000D01*
X141769095Y-63100000D01*
X141885014Y-63076942D01*
X141994207Y-63031713D01*
X142092478Y-62966050D01*
X142176050Y-62882478D01*
X142241713Y-62784207D01*
X142286942Y-62675014D01*
X142310000Y-62559095D01*
X142310000Y-62440905D01*
X142308245Y-62432084D01*
X142422793Y-62317536D01*
X142589788Y-62386708D01*
X142799891Y-62428500D01*
X143014109Y-62428500D01*
X143224212Y-62386708D01*
X143422124Y-62304730D01*
X143600241Y-62185716D01*
X143751716Y-62034241D01*
X143870730Y-61856124D01*
X143907000Y-61768561D01*
X143943270Y-61856124D01*
X144062284Y-62034241D01*
X144213759Y-62185716D01*
X144391876Y-62304730D01*
X144589788Y-62386708D01*
X144799891Y-62428500D01*
X145014109Y-62428500D01*
X145224212Y-62386708D01*
X145422124Y-62304730D01*
X145600241Y-62185716D01*
X145751716Y-62034241D01*
X145870730Y-61856124D01*
X145907000Y-61768561D01*
X145943270Y-61856124D01*
X146062284Y-62034241D01*
X146213759Y-62185716D01*
X146391876Y-62304730D01*
X146589788Y-62386708D01*
X146799891Y-62428500D01*
X147014109Y-62428500D01*
X147224212Y-62386708D01*
X147422124Y-62304730D01*
X147600241Y-62185716D01*
X147751716Y-62034241D01*
X147870730Y-61856124D01*
X147907000Y-61768561D01*
X147943270Y-61856124D01*
X148062284Y-62034241D01*
X148213759Y-62185716D01*
X148391876Y-62304730D01*
X148589788Y-62386708D01*
X148799891Y-62428500D01*
X149014109Y-62428500D01*
X149224212Y-62386708D01*
X149422124Y-62304730D01*
X149600241Y-62185716D01*
X149751716Y-62034241D01*
X149870730Y-61856124D01*
X149907000Y-61768561D01*
X149943270Y-61856124D01*
X150062284Y-62034241D01*
X150213759Y-62185716D01*
X150391876Y-62304730D01*
X150589788Y-62386708D01*
X150799891Y-62428500D01*
X151014109Y-62428500D01*
X151224212Y-62386708D01*
X151422124Y-62304730D01*
X151600241Y-62185716D01*
X151751716Y-62034241D01*
X151786731Y-61981838D01*
X151906933Y-62161734D01*
X152086266Y-62341067D01*
X152297140Y-62481968D01*
X152531450Y-62579022D01*
X152780192Y-62628500D01*
X153033808Y-62628500D01*
X153282550Y-62579022D01*
X153516860Y-62481968D01*
X153682375Y-62371375D01*
X153701754Y-62407629D01*
X153764236Y-62483764D01*
X153840371Y-62546246D01*
X153927233Y-62592675D01*
X154021483Y-62621265D01*
X154119500Y-62630919D01*
X155694500Y-62630919D01*
X155792517Y-62621265D01*
X155886767Y-62592675D01*
X155973629Y-62546246D01*
X156049764Y-62483764D01*
X156112246Y-62407629D01*
X156158675Y-62320767D01*
X156187265Y-62226517D01*
X156196919Y-62128500D01*
X156196919Y-62041000D01*
X159435899Y-62041000D01*
X159410000Y-62171207D01*
X159410000Y-62328793D01*
X159440743Y-62483351D01*
X159501049Y-62628942D01*
X159588599Y-62759970D01*
X159700030Y-62871401D01*
X159810000Y-62944881D01*
X159810001Y-78050000D01*
X157931160Y-78050000D01*
X157941713Y-78034207D01*
X157986942Y-77925014D01*
X158010000Y-77809095D01*
X158010000Y-77690905D01*
X157986942Y-77574986D01*
X157941713Y-77465793D01*
X157876050Y-77367522D01*
X157792478Y-77283950D01*
X157694207Y-77218287D01*
X157585014Y-77173058D01*
X157469095Y-77150000D01*
X157350905Y-77150000D01*
X157234986Y-77173058D01*
X157125793Y-77218287D01*
X157027522Y-77283950D01*
X156943950Y-77367522D01*
X156938953Y-77375000D01*
X155073819Y-77375000D01*
X155055403Y-77373186D01*
X155036987Y-77375000D01*
X155036985Y-77375000D01*
X154981891Y-77380426D01*
X154911204Y-77401869D01*
X154846057Y-77436691D01*
X154788956Y-77483552D01*
X154777213Y-77497861D01*
X152882864Y-79392211D01*
X152868550Y-79403958D01*
X152821689Y-79461060D01*
X152786867Y-79526207D01*
X152765424Y-79596894D01*
X152760453Y-79647370D01*
X152758184Y-79670406D01*
X152759998Y-79688822D01*
X152759998Y-79733407D01*
X152735014Y-79723058D01*
X152619095Y-79700000D01*
X152500905Y-79700000D01*
X152384986Y-79723058D01*
X152275793Y-79768287D01*
X152187411Y-79827343D01*
X152186942Y-79824986D01*
X152141713Y-79715793D01*
X152076050Y-79617522D01*
X151992478Y-79533950D01*
X151894207Y-79468287D01*
X151785014Y-79423058D01*
X151669095Y-79400000D01*
X151550905Y-79400000D01*
X151542084Y-79401755D01*
X150136196Y-77995867D01*
X150124449Y-77981553D01*
X150067348Y-77934692D01*
X150002201Y-77899870D01*
X149931514Y-77878427D01*
X149876420Y-77873001D01*
X149876417Y-77873001D01*
X149858001Y-77871187D01*
X149839585Y-77873001D01*
X145560765Y-77873001D01*
X145542349Y-77871187D01*
X145523933Y-77873001D01*
X145523930Y-77873001D01*
X145468836Y-77878427D01*
X145398149Y-77899870D01*
X145333002Y-77934692D01*
X145275901Y-77981553D01*
X145264158Y-77995862D01*
X144832664Y-78427357D01*
X144818350Y-78439104D01*
X144771489Y-78496206D01*
X144736667Y-78561353D01*
X144715224Y-78632040D01*
X144712788Y-78656771D01*
X144702320Y-78663766D01*
X144618748Y-78747338D01*
X144553085Y-78845609D01*
X144507856Y-78954802D01*
X144484798Y-79070721D01*
X144484798Y-79188911D01*
X144507856Y-79304830D01*
X144553085Y-79414023D01*
X144583819Y-79460019D01*
X142350349Y-79460019D01*
X142008245Y-79117916D01*
X142010000Y-79109095D01*
X142010000Y-78990905D01*
X141986942Y-78874986D01*
X141941713Y-78765793D01*
X141876050Y-78667522D01*
X141792478Y-78583950D01*
X141694207Y-78518287D01*
X141585014Y-78473058D01*
X141469095Y-78450000D01*
X141350905Y-78450000D01*
X141234986Y-78473058D01*
X141125793Y-78518287D01*
X141027522Y-78583950D01*
X140943950Y-78667522D01*
X140878287Y-78765793D01*
X140833058Y-78874986D01*
X140810000Y-78990905D01*
X140810000Y-79109095D01*
X140833058Y-79225014D01*
X140878287Y-79334207D01*
X140943950Y-79432478D01*
X141027522Y-79516050D01*
X141125793Y-79581713D01*
X141234986Y-79626942D01*
X141350905Y-79650000D01*
X141469095Y-79650000D01*
X141477916Y-79648245D01*
X141916828Y-80087158D01*
X141928571Y-80101467D01*
X141942878Y-80113208D01*
X141985672Y-80148329D01*
X142029615Y-80171816D01*
X142050819Y-80183150D01*
X142121506Y-80204593D01*
X142176600Y-80210019D01*
X142176603Y-80210019D01*
X142195019Y-80211833D01*
X142213435Y-80210019D01*
X146335651Y-80210019D01*
X145924861Y-80620809D01*
X145910553Y-80632552D01*
X145890641Y-80656815D01*
X145863691Y-80689654D01*
X145845073Y-80724487D01*
X145828870Y-80754800D01*
X145810170Y-80816447D01*
X145807427Y-80825488D01*
X145800186Y-80899000D01*
X145802001Y-80917426D01*
X145802001Y-80988000D01*
X141566400Y-80988000D01*
X137219305Y-76640905D01*
X143660000Y-76640905D01*
X143660000Y-76759095D01*
X143683058Y-76875014D01*
X143728287Y-76984207D01*
X143793950Y-77082478D01*
X143877522Y-77166050D01*
X143975793Y-77231713D01*
X144084986Y-77276942D01*
X144200905Y-77300000D01*
X144319095Y-77300000D01*
X144435014Y-77276942D01*
X144544207Y-77231713D01*
X144642478Y-77166050D01*
X144658528Y-77150000D01*
X146937906Y-77150000D01*
X146960000Y-77152176D01*
X146982094Y-77150000D01*
X146982105Y-77150000D01*
X147048215Y-77143489D01*
X147133041Y-77117757D01*
X147211216Y-77075971D01*
X147279737Y-77019737D01*
X147293828Y-77002567D01*
X147346395Y-76950000D01*
X147369095Y-76950000D01*
X147485014Y-76926942D01*
X147594207Y-76881713D01*
X147692478Y-76816050D01*
X147776050Y-76732478D01*
X147841713Y-76634207D01*
X147886942Y-76525014D01*
X147910000Y-76409095D01*
X147910000Y-76290905D01*
X147886942Y-76174986D01*
X147841713Y-76065793D01*
X147776050Y-75967522D01*
X147692478Y-75883950D01*
X147594207Y-75818287D01*
X147485014Y-75773058D01*
X147369095Y-75750000D01*
X147250905Y-75750000D01*
X147134986Y-75773058D01*
X147025793Y-75818287D01*
X146927522Y-75883950D01*
X146843950Y-75967522D01*
X146778287Y-76065793D01*
X146733058Y-76174986D01*
X146718137Y-76250000D01*
X144658528Y-76250000D01*
X144642478Y-76233950D01*
X144544207Y-76168287D01*
X144435014Y-76123058D01*
X144319095Y-76100000D01*
X144200905Y-76100000D01*
X144084986Y-76123058D01*
X143975793Y-76168287D01*
X143877522Y-76233950D01*
X143793950Y-76317522D01*
X143728287Y-76415793D01*
X143683058Y-76524986D01*
X143660000Y-76640905D01*
X137219305Y-76640905D01*
X135619305Y-75040905D01*
X140760000Y-75040905D01*
X140760000Y-75159095D01*
X140783058Y-75275014D01*
X140828287Y-75384207D01*
X140893950Y-75482478D01*
X140977522Y-75566050D01*
X141075793Y-75631713D01*
X141184986Y-75676942D01*
X141300905Y-75700000D01*
X141419095Y-75700000D01*
X141535014Y-75676942D01*
X141587986Y-75655000D01*
X151473548Y-75655000D01*
X151479340Y-75713810D01*
X151496495Y-75770361D01*
X151524352Y-75822478D01*
X151561841Y-75868159D01*
X151607522Y-75905648D01*
X151659639Y-75933505D01*
X151716190Y-75950660D01*
X151775000Y-75956452D01*
X152235000Y-75955000D01*
X152310000Y-75880000D01*
X152310000Y-75270000D01*
X152510000Y-75270000D01*
X152510000Y-75880000D01*
X152585000Y-75955000D01*
X153045000Y-75956452D01*
X153103810Y-75950660D01*
X153160361Y-75933505D01*
X153212478Y-75905648D01*
X153258159Y-75868159D01*
X153295648Y-75822478D01*
X153323505Y-75770361D01*
X153340660Y-75713810D01*
X153346452Y-75655000D01*
X153345000Y-75345000D01*
X153270000Y-75270000D01*
X152510000Y-75270000D01*
X152310000Y-75270000D01*
X151550000Y-75270000D01*
X151475000Y-75345000D01*
X151473548Y-75655000D01*
X141587986Y-75655000D01*
X141644207Y-75631713D01*
X141742478Y-75566050D01*
X141826050Y-75482478D01*
X141831047Y-75475000D01*
X143641584Y-75475000D01*
X143660000Y-75476814D01*
X143678416Y-75475000D01*
X143678419Y-75475000D01*
X143733513Y-75469574D01*
X143804200Y-75448131D01*
X143869347Y-75413309D01*
X143926448Y-75366448D01*
X143938195Y-75352134D01*
X144342084Y-74948245D01*
X144350905Y-74950000D01*
X144469095Y-74950000D01*
X144585014Y-74926942D01*
X144694207Y-74881713D01*
X144792478Y-74816050D01*
X144876050Y-74732478D01*
X144941713Y-74634207D01*
X144959649Y-74590905D01*
X149760000Y-74590905D01*
X149760000Y-74709095D01*
X149783058Y-74825014D01*
X149828287Y-74934207D01*
X149893950Y-75032478D01*
X149977522Y-75116050D01*
X150075793Y-75181713D01*
X150184986Y-75226942D01*
X150300905Y-75250000D01*
X150419095Y-75250000D01*
X150535014Y-75226942D01*
X150644207Y-75181713D01*
X150742478Y-75116050D01*
X150826050Y-75032478D01*
X150891713Y-74934207D01*
X150936942Y-74825014D01*
X150960000Y-74709095D01*
X150960000Y-74590905D01*
X150936942Y-74474986D01*
X150927970Y-74453325D01*
X150984986Y-74476942D01*
X151100905Y-74500000D01*
X151219095Y-74500000D01*
X151335014Y-74476942D01*
X151444207Y-74431713D01*
X151476054Y-74410433D01*
X151479341Y-74443810D01*
X151496496Y-74500360D01*
X151515011Y-74534999D01*
X151496495Y-74569639D01*
X151479340Y-74626190D01*
X151473548Y-74685000D01*
X151475000Y-74995000D01*
X151550000Y-75070000D01*
X152310000Y-75070000D01*
X152310000Y-75050000D01*
X152510000Y-75050000D01*
X152510000Y-75070000D01*
X153270000Y-75070000D01*
X153345000Y-74995000D01*
X153346452Y-74685000D01*
X153340660Y-74626190D01*
X153323505Y-74569639D01*
X153304989Y-74534999D01*
X153323504Y-74500360D01*
X153340659Y-74443810D01*
X153346451Y-74385000D01*
X153346451Y-73415000D01*
X153340659Y-73356190D01*
X153323504Y-73299640D01*
X153304989Y-73265000D01*
X153323504Y-73230360D01*
X153340659Y-73173810D01*
X153346451Y-73115000D01*
X153346451Y-73080000D01*
X153473549Y-73080000D01*
X153473549Y-73115000D01*
X153479341Y-73173810D01*
X153496496Y-73230360D01*
X153515011Y-73265000D01*
X153496496Y-73299640D01*
X153479341Y-73356190D01*
X153473549Y-73415000D01*
X153473549Y-74385000D01*
X153479341Y-74443810D01*
X153496496Y-74500360D01*
X153515011Y-74534999D01*
X153496495Y-74569639D01*
X153479340Y-74626190D01*
X153473548Y-74685000D01*
X153475000Y-74995000D01*
X153550000Y-75070000D01*
X153985001Y-75070000D01*
X153985001Y-75130874D01*
X153991151Y-75193314D01*
X154014413Y-75270000D01*
X153550000Y-75270000D01*
X153475000Y-75345000D01*
X153473548Y-75655000D01*
X153479340Y-75713810D01*
X153496495Y-75770361D01*
X153524352Y-75822478D01*
X153561841Y-75868159D01*
X153607522Y-75905648D01*
X153659639Y-75933505D01*
X153716190Y-75950660D01*
X153775000Y-75956452D01*
X154235000Y-75955000D01*
X154310000Y-75880000D01*
X154310000Y-75523788D01*
X154326687Y-75528850D01*
X154410000Y-75537056D01*
X154493314Y-75528850D01*
X154510000Y-75523788D01*
X154510000Y-75880000D01*
X154585000Y-75955000D01*
X155045000Y-75956452D01*
X155103810Y-75950660D01*
X155160361Y-75933505D01*
X155212478Y-75905648D01*
X155258159Y-75868159D01*
X155295648Y-75822478D01*
X155323505Y-75770361D01*
X155340660Y-75713810D01*
X155346452Y-75655000D01*
X155345000Y-75345000D01*
X155270000Y-75270000D01*
X154805588Y-75270000D01*
X154828850Y-75193314D01*
X154835000Y-75130874D01*
X154835000Y-75070000D01*
X155270000Y-75070000D01*
X155345000Y-74995000D01*
X155346452Y-74685000D01*
X155340660Y-74626190D01*
X155323505Y-74569639D01*
X155304989Y-74534999D01*
X155323504Y-74500360D01*
X155340659Y-74443810D01*
X155343946Y-74410433D01*
X155375793Y-74431713D01*
X155484986Y-74476942D01*
X155600905Y-74500000D01*
X155719095Y-74500000D01*
X155835014Y-74476942D01*
X155944207Y-74431713D01*
X156042478Y-74366050D01*
X156126050Y-74282478D01*
X156191713Y-74184207D01*
X156236942Y-74075014D01*
X156260000Y-73959095D01*
X156260000Y-73840905D01*
X156236942Y-73724986D01*
X156191713Y-73615793D01*
X156126050Y-73517522D01*
X156042478Y-73433950D01*
X155944207Y-73368287D01*
X155835014Y-73323058D01*
X155719095Y-73300000D01*
X155600905Y-73300000D01*
X155484986Y-73323058D01*
X155375793Y-73368287D01*
X155343946Y-73389567D01*
X155340659Y-73356190D01*
X155323504Y-73299640D01*
X155304989Y-73265000D01*
X155323504Y-73230360D01*
X155340659Y-73173810D01*
X155342098Y-73159199D01*
X155375793Y-73181713D01*
X155484986Y-73226942D01*
X155600905Y-73250000D01*
X155719095Y-73250000D01*
X155835014Y-73226942D01*
X155944207Y-73181713D01*
X156042478Y-73116050D01*
X156126050Y-73032478D01*
X156191713Y-72934207D01*
X156236942Y-72825014D01*
X156260000Y-72709095D01*
X156260000Y-72590905D01*
X156236942Y-72474986D01*
X156191713Y-72365793D01*
X156126050Y-72267522D01*
X156042478Y-72183950D01*
X155944207Y-72118287D01*
X155835014Y-72073058D01*
X155719095Y-72050000D01*
X155600905Y-72050000D01*
X155484986Y-72073058D01*
X155375793Y-72118287D01*
X155345794Y-72138332D01*
X155340659Y-72086190D01*
X155323504Y-72029640D01*
X155295647Y-71977523D01*
X155258158Y-71931842D01*
X155212477Y-71894353D01*
X155160360Y-71866496D01*
X155103810Y-71849341D01*
X155045000Y-71843549D01*
X153775000Y-71843549D01*
X153716190Y-71849341D01*
X153659640Y-71866496D01*
X153607523Y-71894353D01*
X153561842Y-71931842D01*
X153524353Y-71977523D01*
X153496496Y-72029640D01*
X153479341Y-72086190D01*
X153473549Y-72145000D01*
X153473549Y-72180000D01*
X153346451Y-72180000D01*
X153346451Y-72145000D01*
X153340659Y-72086190D01*
X153323504Y-72029640D01*
X153295647Y-71977523D01*
X153258158Y-71931842D01*
X153212477Y-71894353D01*
X153160360Y-71866496D01*
X153103810Y-71849341D01*
X153045000Y-71843549D01*
X151775000Y-71843549D01*
X151716190Y-71849341D01*
X151659640Y-71866496D01*
X151607523Y-71894353D01*
X151561842Y-71931842D01*
X151524353Y-71977523D01*
X151496496Y-72029640D01*
X151479341Y-72086190D01*
X151473549Y-72145000D01*
X151473549Y-72180000D01*
X151302091Y-72180000D01*
X151279999Y-72177824D01*
X151257907Y-72180000D01*
X151257895Y-72180000D01*
X151191785Y-72186511D01*
X151106959Y-72212243D01*
X151056014Y-72239474D01*
X151028783Y-72254029D01*
X150977432Y-72296172D01*
X150977428Y-72296176D01*
X150960263Y-72310263D01*
X150946176Y-72327428D01*
X150057429Y-73216176D01*
X150040264Y-73230263D01*
X150026177Y-73247428D01*
X150026172Y-73247433D01*
X149984029Y-73298784D01*
X149942243Y-73376960D01*
X149916512Y-73461785D01*
X149907824Y-73550000D01*
X149910001Y-73572104D01*
X149910000Y-74251472D01*
X149893950Y-74267522D01*
X149828287Y-74365793D01*
X149783058Y-74474986D01*
X149760000Y-74590905D01*
X144959649Y-74590905D01*
X144986942Y-74525014D01*
X145010000Y-74409095D01*
X145010000Y-74290905D01*
X144986942Y-74174986D01*
X144941713Y-74065793D01*
X144876050Y-73967522D01*
X144792478Y-73883950D01*
X144694207Y-73818287D01*
X144585014Y-73773058D01*
X144469095Y-73750000D01*
X144350905Y-73750000D01*
X144234986Y-73773058D01*
X144125793Y-73818287D01*
X144027522Y-73883950D01*
X143943950Y-73967522D01*
X143878287Y-74065793D01*
X143833058Y-74174986D01*
X143810000Y-74290905D01*
X143810000Y-74409095D01*
X143811755Y-74417916D01*
X143504671Y-74725000D01*
X141831047Y-74725000D01*
X141826050Y-74717522D01*
X141742478Y-74633950D01*
X141644207Y-74568287D01*
X141535014Y-74523058D01*
X141419095Y-74500000D01*
X141300905Y-74500000D01*
X141184986Y-74523058D01*
X141075793Y-74568287D01*
X140977522Y-74633950D01*
X140893950Y-74717522D01*
X140828287Y-74815793D01*
X140783058Y-74924986D01*
X140760000Y-75040905D01*
X135619305Y-75040905D01*
X133169305Y-72590905D01*
X135310000Y-72590905D01*
X135310000Y-72709095D01*
X135333058Y-72825014D01*
X135378287Y-72934207D01*
X135443950Y-73032478D01*
X135527522Y-73116050D01*
X135625793Y-73181713D01*
X135734986Y-73226942D01*
X135850905Y-73250000D01*
X135969095Y-73250000D01*
X136085014Y-73226942D01*
X136194207Y-73181713D01*
X136226054Y-73160433D01*
X136229341Y-73193810D01*
X136246496Y-73250360D01*
X136265011Y-73284999D01*
X136246495Y-73319639D01*
X136229340Y-73376190D01*
X136223548Y-73435000D01*
X136225000Y-73745000D01*
X136300000Y-73820000D01*
X136735001Y-73820000D01*
X136735001Y-73856874D01*
X136741151Y-73919314D01*
X136765453Y-73999427D01*
X136776449Y-74020000D01*
X136300000Y-74020000D01*
X136225000Y-74095000D01*
X136223548Y-74405000D01*
X136229340Y-74463810D01*
X136246495Y-74520361D01*
X136274352Y-74572478D01*
X136311841Y-74618159D01*
X136357522Y-74655648D01*
X136409639Y-74683505D01*
X136466190Y-74700660D01*
X136525000Y-74706452D01*
X136985000Y-74705000D01*
X137060000Y-74630000D01*
X137060000Y-74249788D01*
X137076687Y-74254850D01*
X137160000Y-74263056D01*
X137243314Y-74254850D01*
X137260000Y-74249788D01*
X137260000Y-74630000D01*
X137335000Y-74705000D01*
X137795000Y-74706452D01*
X137853810Y-74700660D01*
X137910361Y-74683505D01*
X137962478Y-74655648D01*
X138008159Y-74618159D01*
X138045648Y-74572478D01*
X138073505Y-74520361D01*
X138090660Y-74463810D01*
X138096452Y-74405000D01*
X138095000Y-74095000D01*
X138020000Y-74020000D01*
X137543552Y-74020000D01*
X137554548Y-73999427D01*
X137578850Y-73919314D01*
X137585000Y-73856874D01*
X137585000Y-73820000D01*
X138020000Y-73820000D01*
X138095000Y-73745000D01*
X138096452Y-73435000D01*
X138090660Y-73376190D01*
X138073505Y-73319639D01*
X138054989Y-73284999D01*
X138073504Y-73250360D01*
X138090659Y-73193810D01*
X138096451Y-73135000D01*
X138096451Y-72165000D01*
X138090659Y-72106190D01*
X138073504Y-72049640D01*
X138054989Y-72015000D01*
X138073504Y-71980360D01*
X138090659Y-71923810D01*
X138096451Y-71865000D01*
X138096451Y-70895000D01*
X138090659Y-70836190D01*
X138073504Y-70779640D01*
X138045647Y-70727523D01*
X138008158Y-70681842D01*
X137962477Y-70644353D01*
X137910360Y-70616496D01*
X137853810Y-70599341D01*
X137795000Y-70593549D01*
X137708554Y-70593549D01*
X137736942Y-70525014D01*
X137760000Y-70409095D01*
X137760000Y-70290905D01*
X137736942Y-70174986D01*
X137691713Y-70065793D01*
X137626050Y-69967522D01*
X137542478Y-69883950D01*
X137444207Y-69818287D01*
X137335014Y-69773058D01*
X137219095Y-69750000D01*
X137100905Y-69750000D01*
X136984986Y-69773058D01*
X136875793Y-69818287D01*
X136777522Y-69883950D01*
X136693950Y-69967522D01*
X136628287Y-70065793D01*
X136583058Y-70174986D01*
X136560000Y-70290905D01*
X136560000Y-70409095D01*
X136583058Y-70525014D01*
X136611446Y-70593549D01*
X136525000Y-70593549D01*
X136466190Y-70599341D01*
X136409640Y-70616496D01*
X136357523Y-70644353D01*
X136311842Y-70681842D01*
X136274353Y-70727523D01*
X136246496Y-70779640D01*
X136229341Y-70836190D01*
X136223549Y-70895000D01*
X136223549Y-71865000D01*
X136229341Y-71923810D01*
X136246496Y-71980360D01*
X136265011Y-72015000D01*
X136246496Y-72049640D01*
X136229341Y-72106190D01*
X136226054Y-72139567D01*
X136194207Y-72118287D01*
X136085014Y-72073058D01*
X135969095Y-72050000D01*
X135850905Y-72050000D01*
X135734986Y-72073058D01*
X135625793Y-72118287D01*
X135527522Y-72183950D01*
X135443950Y-72267522D01*
X135378287Y-72365793D01*
X135333058Y-72474986D01*
X135310000Y-72590905D01*
X133169305Y-72590905D01*
X131460000Y-70881601D01*
X131460000Y-68821207D01*
X138110000Y-68821207D01*
X138110000Y-68978793D01*
X138140743Y-69133351D01*
X138201049Y-69278942D01*
X138288599Y-69409970D01*
X138400030Y-69521401D01*
X138405416Y-69525000D01*
X138400030Y-69528599D01*
X138288599Y-69640030D01*
X138201049Y-69771058D01*
X138140743Y-69916649D01*
X138110000Y-70071207D01*
X138110000Y-70228793D01*
X138140743Y-70383351D01*
X138201049Y-70528942D01*
X138288599Y-70659970D01*
X138400030Y-70771401D01*
X138405416Y-70775000D01*
X138400030Y-70778599D01*
X138288599Y-70890030D01*
X138201049Y-71021058D01*
X138140743Y-71166649D01*
X138110000Y-71321207D01*
X138110000Y-71478793D01*
X138140743Y-71633351D01*
X138201049Y-71778942D01*
X138288599Y-71909970D01*
X138400030Y-72021401D01*
X138405416Y-72025000D01*
X138400030Y-72028599D01*
X138288599Y-72140030D01*
X138201049Y-72271058D01*
X138140743Y-72416649D01*
X138110000Y-72571207D01*
X138110000Y-72728793D01*
X138140743Y-72883351D01*
X138201049Y-73028942D01*
X138288599Y-73159970D01*
X138400030Y-73271401D01*
X138405416Y-73275000D01*
X138400030Y-73278599D01*
X138288599Y-73390030D01*
X138201049Y-73521058D01*
X138140743Y-73666649D01*
X138110000Y-73821207D01*
X138110000Y-73978793D01*
X138140743Y-74133351D01*
X138201049Y-74278942D01*
X138288599Y-74409970D01*
X138400030Y-74521401D01*
X138531058Y-74608951D01*
X138676649Y-74669257D01*
X138831207Y-74700000D01*
X138988793Y-74700000D01*
X139143351Y-74669257D01*
X139288942Y-74608951D01*
X139419970Y-74521401D01*
X139531401Y-74409970D01*
X139550492Y-74381398D01*
X139625793Y-74431713D01*
X139734986Y-74476942D01*
X139850905Y-74500000D01*
X139969095Y-74500000D01*
X140085014Y-74476942D01*
X140194207Y-74431713D01*
X140292478Y-74366050D01*
X140376050Y-74282478D01*
X140441713Y-74184207D01*
X140486942Y-74075014D01*
X140510000Y-73959095D01*
X140510000Y-73840905D01*
X140486942Y-73724986D01*
X140441713Y-73615793D01*
X140376050Y-73517522D01*
X140292478Y-73433950D01*
X140194207Y-73368287D01*
X140085014Y-73323058D01*
X139969095Y-73300000D01*
X139850905Y-73300000D01*
X139734986Y-73323058D01*
X139625793Y-73368287D01*
X139550492Y-73418602D01*
X139531401Y-73390030D01*
X139419970Y-73278599D01*
X139414584Y-73275000D01*
X139419970Y-73271401D01*
X139531401Y-73159970D01*
X139550492Y-73131398D01*
X139625793Y-73181713D01*
X139734986Y-73226942D01*
X139850905Y-73250000D01*
X139969095Y-73250000D01*
X140085014Y-73226942D01*
X140194207Y-73181713D01*
X140292478Y-73116050D01*
X140376050Y-73032478D01*
X140441713Y-72934207D01*
X140486942Y-72825014D01*
X140510000Y-72709095D01*
X140510000Y-72590905D01*
X140486942Y-72474986D01*
X140441713Y-72365793D01*
X140376050Y-72267522D01*
X140292478Y-72183950D01*
X140194207Y-72118287D01*
X140085014Y-72073058D01*
X139969095Y-72050000D01*
X139850905Y-72050000D01*
X139734986Y-72073058D01*
X139625793Y-72118287D01*
X139550492Y-72168602D01*
X139531401Y-72140030D01*
X139419970Y-72028599D01*
X139414584Y-72025000D01*
X139419970Y-72021401D01*
X139531401Y-71909970D01*
X139550492Y-71881398D01*
X139625793Y-71931713D01*
X139734986Y-71976942D01*
X139850905Y-72000000D01*
X139969095Y-72000000D01*
X140085014Y-71976942D01*
X140194207Y-71931713D01*
X140292478Y-71866050D01*
X140376050Y-71782478D01*
X140441713Y-71684207D01*
X140486942Y-71575014D01*
X140510000Y-71459095D01*
X140510000Y-71340905D01*
X140486942Y-71224986D01*
X140441713Y-71115793D01*
X140376050Y-71017522D01*
X140292478Y-70933950D01*
X140194207Y-70868287D01*
X140085014Y-70823058D01*
X139969095Y-70800000D01*
X139850905Y-70800000D01*
X139734986Y-70823058D01*
X139625793Y-70868287D01*
X139550492Y-70918602D01*
X139531401Y-70890030D01*
X139419970Y-70778599D01*
X139414584Y-70775000D01*
X139419970Y-70771401D01*
X139531401Y-70659970D01*
X139550492Y-70631398D01*
X139625793Y-70681713D01*
X139734986Y-70726942D01*
X139850905Y-70750000D01*
X139969095Y-70750000D01*
X140085014Y-70726942D01*
X140194207Y-70681713D01*
X140292478Y-70616050D01*
X140376050Y-70532478D01*
X140441713Y-70434207D01*
X140486942Y-70325014D01*
X140510000Y-70209095D01*
X140510000Y-70090905D01*
X143660000Y-70090905D01*
X143660000Y-70209095D01*
X143683058Y-70325014D01*
X143728287Y-70434207D01*
X143785001Y-70519085D01*
X143785000Y-72281584D01*
X143783186Y-72300000D01*
X143785000Y-72318416D01*
X143785000Y-72318418D01*
X143790426Y-72373512D01*
X143811869Y-72444199D01*
X143846691Y-72509346D01*
X143893552Y-72566448D01*
X143907866Y-72578195D01*
X143911755Y-72582084D01*
X143910000Y-72590905D01*
X143910000Y-72709095D01*
X143933058Y-72825014D01*
X143978287Y-72934207D01*
X144043950Y-73032478D01*
X144127522Y-73116050D01*
X144225793Y-73181713D01*
X144334986Y-73226942D01*
X144450905Y-73250000D01*
X144569095Y-73250000D01*
X144685014Y-73226942D01*
X144794207Y-73181713D01*
X144892478Y-73116050D01*
X144976050Y-73032478D01*
X145041713Y-72934207D01*
X145086942Y-72825014D01*
X145110000Y-72709095D01*
X145110000Y-72590905D01*
X145086942Y-72474986D01*
X145052801Y-72392562D01*
X145092478Y-72366050D01*
X145176050Y-72282478D01*
X145241713Y-72184207D01*
X145286942Y-72075014D01*
X145310000Y-71959095D01*
X145310000Y-71840905D01*
X145286942Y-71724986D01*
X145241713Y-71615793D01*
X145176050Y-71517522D01*
X145092478Y-71433950D01*
X145085000Y-71428953D01*
X145085000Y-71271047D01*
X145092478Y-71266050D01*
X145176050Y-71182478D01*
X145241713Y-71084207D01*
X145286942Y-70975014D01*
X145310000Y-70859095D01*
X145310000Y-70740905D01*
X145286942Y-70624986D01*
X145241713Y-70515793D01*
X145176050Y-70417522D01*
X145092478Y-70333950D01*
X144994207Y-70268287D01*
X144885014Y-70223058D01*
X144858280Y-70217740D01*
X144860000Y-70209095D01*
X144860000Y-70090905D01*
X144836942Y-69974986D01*
X144791713Y-69865793D01*
X144726050Y-69767522D01*
X144642478Y-69683950D01*
X144544207Y-69618287D01*
X144435014Y-69573058D01*
X144319095Y-69550000D01*
X144200905Y-69550000D01*
X144084986Y-69573058D01*
X143975793Y-69618287D01*
X143877522Y-69683950D01*
X143793950Y-69767522D01*
X143728287Y-69865793D01*
X143683058Y-69974986D01*
X143660000Y-70090905D01*
X140510000Y-70090905D01*
X140486942Y-69974986D01*
X140441713Y-69865793D01*
X140376050Y-69767522D01*
X140292478Y-69683950D01*
X140194207Y-69618287D01*
X140085014Y-69573058D01*
X139969095Y-69550000D01*
X139850905Y-69550000D01*
X139734986Y-69573058D01*
X139625793Y-69618287D01*
X139550492Y-69668602D01*
X139531401Y-69640030D01*
X139419970Y-69528599D01*
X139414584Y-69525000D01*
X139419970Y-69521401D01*
X139531401Y-69409970D01*
X139550492Y-69381398D01*
X139625793Y-69431713D01*
X139734986Y-69476942D01*
X139850905Y-69500000D01*
X139969095Y-69500000D01*
X140085014Y-69476942D01*
X140194207Y-69431713D01*
X140292478Y-69366050D01*
X140376050Y-69282478D01*
X140441713Y-69184207D01*
X140486942Y-69075014D01*
X140510000Y-68959095D01*
X140510000Y-68840905D01*
X140486942Y-68724986D01*
X140441713Y-68615793D01*
X140376050Y-68517522D01*
X140292478Y-68433950D01*
X140194207Y-68368287D01*
X140085014Y-68323058D01*
X139969095Y-68300000D01*
X139850905Y-68300000D01*
X139734986Y-68323058D01*
X139625793Y-68368287D01*
X139550492Y-68418602D01*
X139531401Y-68390030D01*
X139419970Y-68278599D01*
X139288942Y-68191049D01*
X139143351Y-68130743D01*
X138988793Y-68100000D01*
X138831207Y-68100000D01*
X138676649Y-68130743D01*
X138531058Y-68191049D01*
X138400030Y-68278599D01*
X138288599Y-68390030D01*
X138201049Y-68521058D01*
X138140743Y-68666649D01*
X138110000Y-68821207D01*
X131460000Y-68821207D01*
X131460000Y-65340905D01*
X135310000Y-65340905D01*
X135310000Y-65459095D01*
X135333058Y-65575014D01*
X135378287Y-65684207D01*
X135443950Y-65782478D01*
X135527522Y-65866050D01*
X135625793Y-65931713D01*
X135734986Y-65976942D01*
X135850905Y-66000000D01*
X135969095Y-66000000D01*
X136085014Y-65976942D01*
X136194207Y-65931713D01*
X136226054Y-65910433D01*
X136229341Y-65943810D01*
X136246496Y-66000360D01*
X136265011Y-66035000D01*
X136246496Y-66069640D01*
X136229341Y-66126190D01*
X136227902Y-66140801D01*
X136194207Y-66118287D01*
X136085014Y-66073058D01*
X135969095Y-66050000D01*
X135850905Y-66050000D01*
X135734986Y-66073058D01*
X135625793Y-66118287D01*
X135527522Y-66183950D01*
X135443950Y-66267522D01*
X135378287Y-66365793D01*
X135333058Y-66474986D01*
X135310000Y-66590905D01*
X135310000Y-66709095D01*
X135333058Y-66825014D01*
X135378287Y-66934207D01*
X135443950Y-67032478D01*
X135527522Y-67116050D01*
X135625793Y-67181713D01*
X135734986Y-67226942D01*
X135850905Y-67250000D01*
X135969095Y-67250000D01*
X136085014Y-67226942D01*
X136194207Y-67181713D01*
X136224206Y-67161668D01*
X136229341Y-67213810D01*
X136246496Y-67270360D01*
X136274353Y-67322477D01*
X136311842Y-67368158D01*
X136357523Y-67405647D01*
X136409640Y-67433504D01*
X136466190Y-67450659D01*
X136525000Y-67456451D01*
X137795000Y-67456451D01*
X137853810Y-67450659D01*
X137910360Y-67433504D01*
X137962477Y-67405647D01*
X138008158Y-67368158D01*
X138045647Y-67322477D01*
X138073504Y-67270360D01*
X138090659Y-67213810D01*
X138096451Y-67155000D01*
X138096451Y-67120000D01*
X138223549Y-67120000D01*
X138223549Y-67155000D01*
X138229341Y-67213810D01*
X138246496Y-67270360D01*
X138274353Y-67322477D01*
X138311842Y-67368158D01*
X138357523Y-67405647D01*
X138409640Y-67433504D01*
X138466190Y-67450659D01*
X138525000Y-67456451D01*
X139795000Y-67456451D01*
X139853810Y-67450659D01*
X139910360Y-67433504D01*
X139962477Y-67405647D01*
X140008158Y-67368158D01*
X140045647Y-67322477D01*
X140073504Y-67270360D01*
X140090659Y-67213810D01*
X140096451Y-67155000D01*
X140096451Y-66662107D01*
X140125793Y-66681713D01*
X140234986Y-66726942D01*
X140350905Y-66750000D01*
X140469095Y-66750000D01*
X140585014Y-66726942D01*
X140694207Y-66681713D01*
X140792478Y-66616050D01*
X140876050Y-66532478D01*
X140941713Y-66434207D01*
X140986942Y-66325014D01*
X140993726Y-66290905D01*
X144310000Y-66290905D01*
X144310000Y-66409095D01*
X144333058Y-66525014D01*
X144378287Y-66634207D01*
X144443950Y-66732478D01*
X144527522Y-66816050D01*
X144625793Y-66881713D01*
X144734986Y-66926942D01*
X144850905Y-66950000D01*
X144969095Y-66950000D01*
X145085014Y-66926942D01*
X145194207Y-66881713D01*
X145292478Y-66816050D01*
X145317623Y-66790905D01*
X146010000Y-66790905D01*
X146010000Y-66909095D01*
X146033058Y-67025014D01*
X146078287Y-67134207D01*
X146143950Y-67232478D01*
X146227522Y-67316050D01*
X146235000Y-67321047D01*
X146235000Y-67631583D01*
X146233186Y-67650000D01*
X146235000Y-67668416D01*
X146235000Y-67668418D01*
X146240426Y-67723512D01*
X146261869Y-67794199D01*
X146296691Y-67859346D01*
X146343552Y-67916448D01*
X146357866Y-67928195D01*
X146435001Y-68005330D01*
X146435000Y-68776472D01*
X146393950Y-68817522D01*
X146328287Y-68915793D01*
X146283058Y-69024986D01*
X146260000Y-69140905D01*
X146260000Y-69259095D01*
X146283058Y-69375014D01*
X146328287Y-69484207D01*
X146393950Y-69582478D01*
X146477522Y-69666050D01*
X146575793Y-69731713D01*
X146684986Y-69776942D01*
X146800905Y-69800000D01*
X146919095Y-69800000D01*
X147035014Y-69776942D01*
X147144207Y-69731713D01*
X147242478Y-69666050D01*
X147326050Y-69582478D01*
X147391713Y-69484207D01*
X147436942Y-69375014D01*
X147460000Y-69259095D01*
X147460000Y-69191863D01*
X147535014Y-69176942D01*
X147644207Y-69131713D01*
X147742478Y-69066050D01*
X147826050Y-68982478D01*
X147891713Y-68884207D01*
X147936942Y-68775014D01*
X147960000Y-68659095D01*
X147960000Y-68540905D01*
X147936942Y-68424986D01*
X147891713Y-68315793D01*
X147826050Y-68217522D01*
X147742478Y-68133950D01*
X147644207Y-68068287D01*
X147535014Y-68023058D01*
X147535000Y-68023055D01*
X147535000Y-67871047D01*
X147542478Y-67866050D01*
X147626050Y-67782478D01*
X147691713Y-67684207D01*
X147736942Y-67575014D01*
X147760000Y-67459095D01*
X147760000Y-67340905D01*
X147736942Y-67224986D01*
X147691713Y-67115793D01*
X147626050Y-67017522D01*
X147542478Y-66933950D01*
X147444207Y-66868287D01*
X147335014Y-66823058D01*
X147219095Y-66800000D01*
X147210000Y-66800000D01*
X147210000Y-66790905D01*
X147186942Y-66674986D01*
X147141713Y-66565793D01*
X147076050Y-66467522D01*
X146992478Y-66383950D01*
X146894207Y-66318287D01*
X146785014Y-66273058D01*
X146669095Y-66250000D01*
X146550905Y-66250000D01*
X146434986Y-66273058D01*
X146325793Y-66318287D01*
X146227522Y-66383950D01*
X146143950Y-66467522D01*
X146078287Y-66565793D01*
X146033058Y-66674986D01*
X146010000Y-66790905D01*
X145317623Y-66790905D01*
X145376050Y-66732478D01*
X145441713Y-66634207D01*
X145486942Y-66525014D01*
X145510000Y-66409095D01*
X145510000Y-66290905D01*
X145508245Y-66282084D01*
X146262140Y-65528190D01*
X146276448Y-65516448D01*
X146323309Y-65459347D01*
X146358131Y-65394200D01*
X146379574Y-65323513D01*
X146385000Y-65268419D01*
X146385000Y-65268416D01*
X146386814Y-65250000D01*
X146385000Y-65231584D01*
X146385000Y-63740905D01*
X146560000Y-63740905D01*
X146560000Y-63859095D01*
X146583058Y-63975014D01*
X146628287Y-64084207D01*
X146693950Y-64182478D01*
X146777522Y-64266050D01*
X146785001Y-64271047D01*
X146785000Y-64428953D01*
X146777522Y-64433950D01*
X146693950Y-64517522D01*
X146628287Y-64615793D01*
X146583058Y-64724986D01*
X146560000Y-64840905D01*
X146560000Y-64959095D01*
X146583058Y-65075014D01*
X146628287Y-65184207D01*
X146693950Y-65282478D01*
X146777522Y-65366050D01*
X146875793Y-65431713D01*
X146984986Y-65476942D01*
X147100905Y-65500000D01*
X147219095Y-65500000D01*
X147335014Y-65476942D01*
X147444207Y-65431713D01*
X147542478Y-65366050D01*
X147567623Y-65340905D01*
X151060000Y-65340905D01*
X151060000Y-65459095D01*
X151083058Y-65575014D01*
X151128287Y-65684207D01*
X151193950Y-65782478D01*
X151277522Y-65866050D01*
X151375793Y-65931713D01*
X151484986Y-65976942D01*
X151600905Y-66000000D01*
X151719095Y-66000000D01*
X151835014Y-65976942D01*
X151944207Y-65931713D01*
X152019508Y-65881398D01*
X152038599Y-65909970D01*
X152150030Y-66021401D01*
X152155416Y-66025000D01*
X152150030Y-66028599D01*
X152038599Y-66140030D01*
X152019508Y-66168602D01*
X151944207Y-66118287D01*
X151835014Y-66073058D01*
X151719095Y-66050000D01*
X151600905Y-66050000D01*
X151484986Y-66073058D01*
X151375793Y-66118287D01*
X151277522Y-66183950D01*
X151193950Y-66267522D01*
X151128287Y-66365793D01*
X151083058Y-66474986D01*
X151060000Y-66590905D01*
X151060000Y-66709095D01*
X151083058Y-66825014D01*
X151128287Y-66934207D01*
X151193950Y-67032478D01*
X151277522Y-67116050D01*
X151375793Y-67181713D01*
X151484986Y-67226942D01*
X151600905Y-67250000D01*
X151719095Y-67250000D01*
X151835014Y-67226942D01*
X151944207Y-67181713D01*
X152019508Y-67131398D01*
X152038599Y-67159970D01*
X152150030Y-67271401D01*
X152155416Y-67275000D01*
X152150030Y-67278599D01*
X152038599Y-67390030D01*
X152019508Y-67418602D01*
X151944207Y-67368287D01*
X151835014Y-67323058D01*
X151719095Y-67300000D01*
X151600905Y-67300000D01*
X151484986Y-67323058D01*
X151375793Y-67368287D01*
X151277522Y-67433950D01*
X151193950Y-67517522D01*
X151128287Y-67615793D01*
X151083058Y-67724986D01*
X151060000Y-67840905D01*
X151060000Y-67959095D01*
X151083058Y-68075014D01*
X151128287Y-68184207D01*
X151193950Y-68282478D01*
X151277522Y-68366050D01*
X151375793Y-68431713D01*
X151484986Y-68476942D01*
X151600905Y-68500000D01*
X151719095Y-68500000D01*
X151835014Y-68476942D01*
X151944207Y-68431713D01*
X152019508Y-68381398D01*
X152038599Y-68409970D01*
X152150030Y-68521401D01*
X152155416Y-68525000D01*
X152150030Y-68528599D01*
X152038599Y-68640030D01*
X152019508Y-68668602D01*
X151944207Y-68618287D01*
X151835014Y-68573058D01*
X151719095Y-68550000D01*
X151600905Y-68550000D01*
X151484986Y-68573058D01*
X151375793Y-68618287D01*
X151277522Y-68683950D01*
X151193950Y-68767522D01*
X151128287Y-68865793D01*
X151083058Y-68974986D01*
X151060000Y-69090905D01*
X151060000Y-69209095D01*
X151083058Y-69325014D01*
X151128287Y-69434207D01*
X151193950Y-69532478D01*
X151277522Y-69616050D01*
X151375793Y-69681713D01*
X151484986Y-69726942D01*
X151600905Y-69750000D01*
X151719095Y-69750000D01*
X151835014Y-69726942D01*
X151944207Y-69681713D01*
X152019508Y-69631398D01*
X152038599Y-69659970D01*
X152150030Y-69771401D01*
X152155416Y-69775000D01*
X152150030Y-69778599D01*
X152038599Y-69890030D01*
X152019508Y-69918602D01*
X151944207Y-69868287D01*
X151835014Y-69823058D01*
X151719095Y-69800000D01*
X151600905Y-69800000D01*
X151484986Y-69823058D01*
X151375793Y-69868287D01*
X151277522Y-69933950D01*
X151193950Y-70017522D01*
X151128287Y-70115793D01*
X151083058Y-70224986D01*
X151060000Y-70340905D01*
X151060000Y-70459095D01*
X151083058Y-70575014D01*
X151128287Y-70684207D01*
X151193950Y-70782478D01*
X151277522Y-70866050D01*
X151375793Y-70931713D01*
X151484986Y-70976942D01*
X151600905Y-71000000D01*
X151719095Y-71000000D01*
X151835014Y-70976942D01*
X151944207Y-70931713D01*
X152019508Y-70881398D01*
X152038599Y-70909970D01*
X152150030Y-71021401D01*
X152281058Y-71108951D01*
X152426649Y-71169257D01*
X152581207Y-71200000D01*
X152738793Y-71200000D01*
X152893351Y-71169257D01*
X153038942Y-71108951D01*
X153169970Y-71021401D01*
X153281401Y-70909970D01*
X153368951Y-70778942D01*
X153429257Y-70633351D01*
X153460000Y-70478793D01*
X153460000Y-70321207D01*
X153429257Y-70166649D01*
X153368951Y-70021058D01*
X153281401Y-69890030D01*
X153169970Y-69778599D01*
X153164584Y-69775000D01*
X153169970Y-69771401D01*
X153281401Y-69659970D01*
X153368951Y-69528942D01*
X153429257Y-69383351D01*
X153460000Y-69228793D01*
X153460000Y-69071207D01*
X153429257Y-68916649D01*
X153368951Y-68771058D01*
X153281401Y-68640030D01*
X153169970Y-68528599D01*
X153164584Y-68525000D01*
X153169970Y-68521401D01*
X153281401Y-68409970D01*
X153368951Y-68278942D01*
X153429257Y-68133351D01*
X153460000Y-67978793D01*
X153460000Y-67821207D01*
X153429257Y-67666649D01*
X153368951Y-67521058D01*
X153281401Y-67390030D01*
X153169970Y-67278599D01*
X153164584Y-67275000D01*
X153169970Y-67271401D01*
X153281401Y-67159970D01*
X153368951Y-67028942D01*
X153429257Y-66883351D01*
X153460000Y-66728793D01*
X153460000Y-66571207D01*
X153429257Y-66416649D01*
X153368951Y-66271058D01*
X153281401Y-66140030D01*
X153169970Y-66028599D01*
X153164584Y-66025000D01*
X153169970Y-66021401D01*
X153281401Y-65909970D01*
X153368951Y-65778942D01*
X153429257Y-65633351D01*
X153460000Y-65478793D01*
X153460000Y-65321207D01*
X153429257Y-65166649D01*
X153368951Y-65021058D01*
X153284722Y-64895000D01*
X153473548Y-64895000D01*
X153475000Y-65205000D01*
X153550000Y-65280000D01*
X153989741Y-65280000D01*
X153985001Y-65328126D01*
X153985001Y-65480000D01*
X153550000Y-65480000D01*
X153475000Y-65555000D01*
X153473548Y-65865000D01*
X153479340Y-65923810D01*
X153496495Y-65980361D01*
X153515011Y-66015001D01*
X153496496Y-66049640D01*
X153479341Y-66106190D01*
X153473549Y-66165000D01*
X153473549Y-67135000D01*
X153479341Y-67193810D01*
X153496496Y-67250360D01*
X153515011Y-67285000D01*
X153496496Y-67319640D01*
X153479341Y-67376190D01*
X153473549Y-67435000D01*
X153473549Y-68405000D01*
X153479341Y-68463810D01*
X153496496Y-68520360D01*
X153524353Y-68572477D01*
X153561842Y-68618158D01*
X153607523Y-68655647D01*
X153659640Y-68683504D01*
X153716190Y-68700659D01*
X153775000Y-68706451D01*
X153861446Y-68706451D01*
X153833058Y-68774986D01*
X153810000Y-68890905D01*
X153810000Y-69009095D01*
X153833058Y-69125014D01*
X153878287Y-69234207D01*
X153943950Y-69332478D01*
X154027522Y-69416050D01*
X154125793Y-69481713D01*
X154234986Y-69526942D01*
X154350905Y-69550000D01*
X154469095Y-69550000D01*
X154585014Y-69526942D01*
X154694207Y-69481713D01*
X154792478Y-69416050D01*
X154876050Y-69332478D01*
X154941713Y-69234207D01*
X154986942Y-69125014D01*
X155010000Y-69009095D01*
X155010000Y-68890905D01*
X154986942Y-68774986D01*
X154958554Y-68706451D01*
X155045000Y-68706451D01*
X155103810Y-68700659D01*
X155160360Y-68683504D01*
X155212477Y-68655647D01*
X155258158Y-68618158D01*
X155295647Y-68572477D01*
X155323504Y-68520360D01*
X155340659Y-68463810D01*
X155346451Y-68405000D01*
X155346451Y-67435000D01*
X155340659Y-67376190D01*
X155323504Y-67319640D01*
X155304989Y-67285000D01*
X155323504Y-67250360D01*
X155340659Y-67193810D01*
X155343946Y-67160433D01*
X155375793Y-67181713D01*
X155484986Y-67226942D01*
X155600905Y-67250000D01*
X155719095Y-67250000D01*
X155835014Y-67226942D01*
X155944207Y-67181713D01*
X156042478Y-67116050D01*
X156126050Y-67032478D01*
X156191713Y-66934207D01*
X156236942Y-66825014D01*
X156260000Y-66709095D01*
X156260000Y-66590905D01*
X156236942Y-66474986D01*
X156191713Y-66365793D01*
X156126050Y-66267522D01*
X156042478Y-66183950D01*
X155944207Y-66118287D01*
X155835014Y-66073058D01*
X155719095Y-66050000D01*
X155600905Y-66050000D01*
X155484986Y-66073058D01*
X155375793Y-66118287D01*
X155343946Y-66139567D01*
X155340659Y-66106190D01*
X155323504Y-66049640D01*
X155304989Y-66015001D01*
X155323505Y-65980361D01*
X155340660Y-65923810D01*
X155346452Y-65865000D01*
X155345000Y-65555000D01*
X155270000Y-65480000D01*
X154835000Y-65480000D01*
X154835000Y-65328126D01*
X154830260Y-65280000D01*
X155270000Y-65280000D01*
X155345000Y-65205000D01*
X155346452Y-64895000D01*
X155340660Y-64836190D01*
X155323505Y-64779639D01*
X155295648Y-64727522D01*
X155258159Y-64681841D01*
X155212478Y-64644352D01*
X155160361Y-64616495D01*
X155103810Y-64599340D01*
X155045000Y-64593548D01*
X154585000Y-64595000D01*
X154510000Y-64670000D01*
X154510000Y-64935212D01*
X154493314Y-64930150D01*
X154410000Y-64921944D01*
X154326687Y-64930150D01*
X154310000Y-64935212D01*
X154310000Y-64670000D01*
X154235000Y-64595000D01*
X153775000Y-64593548D01*
X153716190Y-64599340D01*
X153659639Y-64616495D01*
X153607522Y-64644352D01*
X153561841Y-64681841D01*
X153524352Y-64727522D01*
X153496495Y-64779639D01*
X153479340Y-64836190D01*
X153473548Y-64895000D01*
X153284722Y-64895000D01*
X153281401Y-64890030D01*
X153169970Y-64778599D01*
X153038942Y-64691049D01*
X152893351Y-64630743D01*
X152738793Y-64600000D01*
X152581207Y-64600000D01*
X152426649Y-64630743D01*
X152281058Y-64691049D01*
X152150030Y-64778599D01*
X152038599Y-64890030D01*
X152019508Y-64918602D01*
X151944207Y-64868287D01*
X151835014Y-64823058D01*
X151719095Y-64800000D01*
X151600905Y-64800000D01*
X151484986Y-64823058D01*
X151375793Y-64868287D01*
X151277522Y-64933950D01*
X151193950Y-65017522D01*
X151128287Y-65115793D01*
X151083058Y-65224986D01*
X151060000Y-65340905D01*
X147567623Y-65340905D01*
X147626050Y-65282478D01*
X147691713Y-65184207D01*
X147736942Y-65075014D01*
X147760000Y-64959095D01*
X147760000Y-64840905D01*
X147736942Y-64724986D01*
X147691713Y-64615793D01*
X147626050Y-64517522D01*
X147542478Y-64433950D01*
X147535000Y-64428953D01*
X147535000Y-64271047D01*
X147542478Y-64266050D01*
X147626050Y-64182478D01*
X147691713Y-64084207D01*
X147736942Y-63975014D01*
X147760000Y-63859095D01*
X147760000Y-63740905D01*
X147736942Y-63624986D01*
X147691713Y-63515793D01*
X147626050Y-63417522D01*
X147542478Y-63333950D01*
X147444207Y-63268287D01*
X147335014Y-63223058D01*
X147219095Y-63200000D01*
X147100905Y-63200000D01*
X146984986Y-63223058D01*
X146875793Y-63268287D01*
X146777522Y-63333950D01*
X146693950Y-63417522D01*
X146628287Y-63515793D01*
X146583058Y-63624986D01*
X146560000Y-63740905D01*
X146385000Y-63740905D01*
X146385000Y-63521047D01*
X146392478Y-63516050D01*
X146476050Y-63432478D01*
X146541713Y-63334207D01*
X146586942Y-63225014D01*
X146610000Y-63109095D01*
X146610000Y-62990905D01*
X146586942Y-62874986D01*
X146541713Y-62765793D01*
X146476050Y-62667522D01*
X146392478Y-62583950D01*
X146294207Y-62518287D01*
X146185014Y-62473058D01*
X146069095Y-62450000D01*
X145950905Y-62450000D01*
X145834986Y-62473058D01*
X145725793Y-62518287D01*
X145627522Y-62583950D01*
X145543950Y-62667522D01*
X145478287Y-62765793D01*
X145433058Y-62874986D01*
X145410000Y-62990905D01*
X145410000Y-63109095D01*
X145433058Y-63225014D01*
X145478287Y-63334207D01*
X145543950Y-63432478D01*
X145627522Y-63516050D01*
X145635001Y-63521047D01*
X145635000Y-65094670D01*
X144977916Y-65751755D01*
X144969095Y-65750000D01*
X144850905Y-65750000D01*
X144734986Y-65773058D01*
X144625793Y-65818287D01*
X144527522Y-65883950D01*
X144443950Y-65967522D01*
X144378287Y-66065793D01*
X144333058Y-66174986D01*
X144310000Y-66290905D01*
X140993726Y-66290905D01*
X141010000Y-66209095D01*
X141010000Y-66090905D01*
X141008245Y-66082084D01*
X141262140Y-65828190D01*
X141276448Y-65816448D01*
X141323309Y-65759347D01*
X141358131Y-65694200D01*
X141379574Y-65623513D01*
X141385000Y-65568419D01*
X141385000Y-65568417D01*
X141386814Y-65550001D01*
X141385000Y-65531585D01*
X141385000Y-65171047D01*
X141392478Y-65166050D01*
X141476050Y-65082478D01*
X141541713Y-64984207D01*
X141586942Y-64875014D01*
X141610000Y-64759095D01*
X141610000Y-64640905D01*
X141586942Y-64524986D01*
X141541713Y-64415793D01*
X141476050Y-64317522D01*
X141392478Y-64233950D01*
X141294207Y-64168287D01*
X141185014Y-64123058D01*
X141069095Y-64100000D01*
X140950905Y-64100000D01*
X140834986Y-64123058D01*
X140725793Y-64168287D01*
X140627522Y-64233950D01*
X140543950Y-64317522D01*
X140478287Y-64415793D01*
X140433058Y-64524986D01*
X140410000Y-64640905D01*
X140410000Y-64759095D01*
X140418137Y-64800000D01*
X140350905Y-64800000D01*
X140234986Y-64823058D01*
X140125793Y-64868287D01*
X140093946Y-64889567D01*
X140090659Y-64856190D01*
X140073504Y-64799640D01*
X140054989Y-64765001D01*
X140073505Y-64730361D01*
X140090660Y-64673810D01*
X140096452Y-64615000D01*
X140095000Y-64305000D01*
X140020000Y-64230000D01*
X139260000Y-64230000D01*
X139260000Y-64250000D01*
X139060000Y-64250000D01*
X139060000Y-64230000D01*
X138300000Y-64230000D01*
X138225000Y-64305000D01*
X138223548Y-64615000D01*
X138229340Y-64673810D01*
X138246495Y-64730361D01*
X138265011Y-64765001D01*
X138246496Y-64799640D01*
X138229341Y-64856190D01*
X138223549Y-64915000D01*
X138223549Y-65885000D01*
X138229341Y-65943810D01*
X138246496Y-66000360D01*
X138265011Y-66035000D01*
X138246496Y-66069640D01*
X138229341Y-66126190D01*
X138223549Y-66185000D01*
X138223549Y-66220000D01*
X138096451Y-66220000D01*
X138096451Y-66185000D01*
X138090659Y-66126190D01*
X138073504Y-66069640D01*
X138054989Y-66035000D01*
X138073504Y-66000360D01*
X138090659Y-65943810D01*
X138096451Y-65885000D01*
X138096451Y-64915000D01*
X138090659Y-64856190D01*
X138073504Y-64799640D01*
X138054989Y-64765001D01*
X138073505Y-64730361D01*
X138090660Y-64673810D01*
X138096452Y-64615000D01*
X138095000Y-64305000D01*
X138020000Y-64230000D01*
X137585000Y-64230000D01*
X137585000Y-64062126D01*
X137581836Y-64030000D01*
X138020000Y-64030000D01*
X138095000Y-63955000D01*
X138096452Y-63645000D01*
X138223548Y-63645000D01*
X138225000Y-63955000D01*
X138300000Y-64030000D01*
X139060000Y-64030000D01*
X139060000Y-63420000D01*
X139260000Y-63420000D01*
X139260000Y-64030000D01*
X140020000Y-64030000D01*
X140095000Y-63955000D01*
X140096452Y-63645000D01*
X140090660Y-63586190D01*
X140073505Y-63529639D01*
X140045648Y-63477522D01*
X140008159Y-63431841D01*
X139962478Y-63394352D01*
X139910361Y-63366495D01*
X139853810Y-63349340D01*
X139795000Y-63343548D01*
X139335000Y-63345000D01*
X139260000Y-63420000D01*
X139060000Y-63420000D01*
X138985000Y-63345000D01*
X138525000Y-63343548D01*
X138466190Y-63349340D01*
X138409639Y-63366495D01*
X138357522Y-63394352D01*
X138311841Y-63431841D01*
X138274352Y-63477522D01*
X138246495Y-63529639D01*
X138229340Y-63586190D01*
X138223548Y-63645000D01*
X138096452Y-63645000D01*
X138090660Y-63586190D01*
X138073505Y-63529639D01*
X138045648Y-63477522D01*
X138008159Y-63431841D01*
X137962478Y-63394352D01*
X137910361Y-63366495D01*
X137853810Y-63349340D01*
X137795000Y-63343548D01*
X137335000Y-63345000D01*
X137260000Y-63420000D01*
X137260000Y-63669212D01*
X137243314Y-63664150D01*
X137160000Y-63655944D01*
X137076687Y-63664150D01*
X137060000Y-63669212D01*
X137060000Y-63420000D01*
X136985000Y-63345000D01*
X136525000Y-63343548D01*
X136466190Y-63349340D01*
X136409639Y-63366495D01*
X136357522Y-63394352D01*
X136311841Y-63431841D01*
X136274352Y-63477522D01*
X136246495Y-63529639D01*
X136229340Y-63586190D01*
X136223548Y-63645000D01*
X136225000Y-63955000D01*
X136300000Y-64030000D01*
X136738165Y-64030000D01*
X136735001Y-64062126D01*
X136735001Y-64230000D01*
X136300000Y-64230000D01*
X136225000Y-64305000D01*
X136223548Y-64615000D01*
X136229340Y-64673810D01*
X136246495Y-64730361D01*
X136265011Y-64765001D01*
X136246496Y-64799640D01*
X136229341Y-64856190D01*
X136226054Y-64889567D01*
X136194207Y-64868287D01*
X136085014Y-64823058D01*
X135969095Y-64800000D01*
X135850905Y-64800000D01*
X135734986Y-64823058D01*
X135625793Y-64868287D01*
X135527522Y-64933950D01*
X135443950Y-65017522D01*
X135378287Y-65115793D01*
X135333058Y-65224986D01*
X135310000Y-65340905D01*
X131460000Y-65340905D01*
X131460000Y-62731918D01*
X131550905Y-62750000D01*
X131669095Y-62750000D01*
X131785014Y-62726942D01*
X131894207Y-62681713D01*
X131992478Y-62616050D01*
X132076050Y-62532478D01*
X132141713Y-62434207D01*
X132186942Y-62325014D01*
X132210000Y-62209095D01*
X132210000Y-62090905D01*
X132186942Y-61974986D01*
X132141713Y-61865793D01*
X132076050Y-61767522D01*
X131992478Y-61683950D01*
X131894207Y-61618287D01*
X131785014Y-61573058D01*
X131733571Y-61562825D01*
X131796396Y-61500000D01*
X134723605Y-61500000D01*
X136076176Y-62852572D01*
G37*
X136076176Y-62852572D02*
X136090263Y-62869737D01*
X136107428Y-62883824D01*
X136107432Y-62883828D01*
X136158783Y-62925971D01*
X136186491Y-62940781D01*
X136236959Y-62967757D01*
X136321785Y-62993489D01*
X136387895Y-63000000D01*
X136387907Y-63000000D01*
X136409999Y-63002176D01*
X136432091Y-63000000D01*
X137675906Y-63000000D01*
X137698000Y-63002176D01*
X137720094Y-63000000D01*
X137720105Y-63000000D01*
X137786215Y-62993489D01*
X137871041Y-62967757D01*
X137949216Y-62925971D01*
X138017737Y-62869737D01*
X138031829Y-62852566D01*
X138524663Y-62359732D01*
X138589788Y-62386708D01*
X138799891Y-62428500D01*
X139014109Y-62428500D01*
X139224212Y-62386708D01*
X139422124Y-62304730D01*
X139600241Y-62185716D01*
X139751716Y-62034241D01*
X139870730Y-61856124D01*
X139907000Y-61768561D01*
X139943270Y-61856124D01*
X140062284Y-62034241D01*
X140213759Y-62185716D01*
X140391876Y-62304730D01*
X140589788Y-62386708D01*
X140799891Y-62428500D01*
X141014109Y-62428500D01*
X141116520Y-62408129D01*
X141110000Y-62440905D01*
X141110000Y-62559095D01*
X141133058Y-62675014D01*
X141178287Y-62784207D01*
X141243950Y-62882478D01*
X141327522Y-62966050D01*
X141425793Y-63031713D01*
X141534986Y-63076942D01*
X141650905Y-63100000D01*
X141769095Y-63100000D01*
X141885014Y-63076942D01*
X141994207Y-63031713D01*
X142092478Y-62966050D01*
X142176050Y-62882478D01*
X142241713Y-62784207D01*
X142286942Y-62675014D01*
X142310000Y-62559095D01*
X142310000Y-62440905D01*
X142308245Y-62432084D01*
X142422793Y-62317536D01*
X142589788Y-62386708D01*
X142799891Y-62428500D01*
X143014109Y-62428500D01*
X143224212Y-62386708D01*
X143422124Y-62304730D01*
X143600241Y-62185716D01*
X143751716Y-62034241D01*
X143870730Y-61856124D01*
X143907000Y-61768561D01*
X143943270Y-61856124D01*
X144062284Y-62034241D01*
X144213759Y-62185716D01*
X144391876Y-62304730D01*
X144589788Y-62386708D01*
X144799891Y-62428500D01*
X145014109Y-62428500D01*
X145224212Y-62386708D01*
X145422124Y-62304730D01*
X145600241Y-62185716D01*
X145751716Y-62034241D01*
X145870730Y-61856124D01*
X145907000Y-61768561D01*
X145943270Y-61856124D01*
X146062284Y-62034241D01*
X146213759Y-62185716D01*
X146391876Y-62304730D01*
X146589788Y-62386708D01*
X146799891Y-62428500D01*
X147014109Y-62428500D01*
X147224212Y-62386708D01*
X147422124Y-62304730D01*
X147600241Y-62185716D01*
X147751716Y-62034241D01*
X147870730Y-61856124D01*
X147907000Y-61768561D01*
X147943270Y-61856124D01*
X148062284Y-62034241D01*
X148213759Y-62185716D01*
X148391876Y-62304730D01*
X148589788Y-62386708D01*
X148799891Y-62428500D01*
X149014109Y-62428500D01*
X149224212Y-62386708D01*
X149422124Y-62304730D01*
X149600241Y-62185716D01*
X149751716Y-62034241D01*
X149870730Y-61856124D01*
X149907000Y-61768561D01*
X149943270Y-61856124D01*
X150062284Y-62034241D01*
X150213759Y-62185716D01*
X150391876Y-62304730D01*
X150589788Y-62386708D01*
X150799891Y-62428500D01*
X151014109Y-62428500D01*
X151224212Y-62386708D01*
X151422124Y-62304730D01*
X151600241Y-62185716D01*
X151751716Y-62034241D01*
X151786731Y-61981838D01*
X151906933Y-62161734D01*
X152086266Y-62341067D01*
X152297140Y-62481968D01*
X152531450Y-62579022D01*
X152780192Y-62628500D01*
X153033808Y-62628500D01*
X153282550Y-62579022D01*
X153516860Y-62481968D01*
X153682375Y-62371375D01*
X153701754Y-62407629D01*
X153764236Y-62483764D01*
X153840371Y-62546246D01*
X153927233Y-62592675D01*
X154021483Y-62621265D01*
X154119500Y-62630919D01*
X155694500Y-62630919D01*
X155792517Y-62621265D01*
X155886767Y-62592675D01*
X155973629Y-62546246D01*
X156049764Y-62483764D01*
X156112246Y-62407629D01*
X156158675Y-62320767D01*
X156187265Y-62226517D01*
X156196919Y-62128500D01*
X156196919Y-62041000D01*
X159435899Y-62041000D01*
X159410000Y-62171207D01*
X159410000Y-62328793D01*
X159440743Y-62483351D01*
X159501049Y-62628942D01*
X159588599Y-62759970D01*
X159700030Y-62871401D01*
X159810000Y-62944881D01*
X159810001Y-78050000D01*
X157931160Y-78050000D01*
X157941713Y-78034207D01*
X157986942Y-77925014D01*
X158010000Y-77809095D01*
X158010000Y-77690905D01*
X157986942Y-77574986D01*
X157941713Y-77465793D01*
X157876050Y-77367522D01*
X157792478Y-77283950D01*
X157694207Y-77218287D01*
X157585014Y-77173058D01*
X157469095Y-77150000D01*
X157350905Y-77150000D01*
X157234986Y-77173058D01*
X157125793Y-77218287D01*
X157027522Y-77283950D01*
X156943950Y-77367522D01*
X156938953Y-77375000D01*
X155073819Y-77375000D01*
X155055403Y-77373186D01*
X155036987Y-77375000D01*
X155036985Y-77375000D01*
X154981891Y-77380426D01*
X154911204Y-77401869D01*
X154846057Y-77436691D01*
X154788956Y-77483552D01*
X154777213Y-77497861D01*
X152882864Y-79392211D01*
X152868550Y-79403958D01*
X152821689Y-79461060D01*
X152786867Y-79526207D01*
X152765424Y-79596894D01*
X152760453Y-79647370D01*
X152758184Y-79670406D01*
X152759998Y-79688822D01*
X152759998Y-79733407D01*
X152735014Y-79723058D01*
X152619095Y-79700000D01*
X152500905Y-79700000D01*
X152384986Y-79723058D01*
X152275793Y-79768287D01*
X152187411Y-79827343D01*
X152186942Y-79824986D01*
X152141713Y-79715793D01*
X152076050Y-79617522D01*
X151992478Y-79533950D01*
X151894207Y-79468287D01*
X151785014Y-79423058D01*
X151669095Y-79400000D01*
X151550905Y-79400000D01*
X151542084Y-79401755D01*
X150136196Y-77995867D01*
X150124449Y-77981553D01*
X150067348Y-77934692D01*
X150002201Y-77899870D01*
X149931514Y-77878427D01*
X149876420Y-77873001D01*
X149876417Y-77873001D01*
X149858001Y-77871187D01*
X149839585Y-77873001D01*
X145560765Y-77873001D01*
X145542349Y-77871187D01*
X145523933Y-77873001D01*
X145523930Y-77873001D01*
X145468836Y-77878427D01*
X145398149Y-77899870D01*
X145333002Y-77934692D01*
X145275901Y-77981553D01*
X145264158Y-77995862D01*
X144832664Y-78427357D01*
X144818350Y-78439104D01*
X144771489Y-78496206D01*
X144736667Y-78561353D01*
X144715224Y-78632040D01*
X144712788Y-78656771D01*
X144702320Y-78663766D01*
X144618748Y-78747338D01*
X144553085Y-78845609D01*
X144507856Y-78954802D01*
X144484798Y-79070721D01*
X144484798Y-79188911D01*
X144507856Y-79304830D01*
X144553085Y-79414023D01*
X144583819Y-79460019D01*
X142350349Y-79460019D01*
X142008245Y-79117916D01*
X142010000Y-79109095D01*
X142010000Y-78990905D01*
X141986942Y-78874986D01*
X141941713Y-78765793D01*
X141876050Y-78667522D01*
X141792478Y-78583950D01*
X141694207Y-78518287D01*
X141585014Y-78473058D01*
X141469095Y-78450000D01*
X141350905Y-78450000D01*
X141234986Y-78473058D01*
X141125793Y-78518287D01*
X141027522Y-78583950D01*
X140943950Y-78667522D01*
X140878287Y-78765793D01*
X140833058Y-78874986D01*
X140810000Y-78990905D01*
X140810000Y-79109095D01*
X140833058Y-79225014D01*
X140878287Y-79334207D01*
X140943950Y-79432478D01*
X141027522Y-79516050D01*
X141125793Y-79581713D01*
X141234986Y-79626942D01*
X141350905Y-79650000D01*
X141469095Y-79650000D01*
X141477916Y-79648245D01*
X141916828Y-80087158D01*
X141928571Y-80101467D01*
X141942878Y-80113208D01*
X141985672Y-80148329D01*
X142029615Y-80171816D01*
X142050819Y-80183150D01*
X142121506Y-80204593D01*
X142176600Y-80210019D01*
X142176603Y-80210019D01*
X142195019Y-80211833D01*
X142213435Y-80210019D01*
X146335651Y-80210019D01*
X145924861Y-80620809D01*
X145910553Y-80632552D01*
X145890641Y-80656815D01*
X145863691Y-80689654D01*
X145845073Y-80724487D01*
X145828870Y-80754800D01*
X145810170Y-80816447D01*
X145807427Y-80825488D01*
X145800186Y-80899000D01*
X145802001Y-80917426D01*
X145802001Y-80988000D01*
X141566400Y-80988000D01*
X137219305Y-76640905D01*
X143660000Y-76640905D01*
X143660000Y-76759095D01*
X143683058Y-76875014D01*
X143728287Y-76984207D01*
X143793950Y-77082478D01*
X143877522Y-77166050D01*
X143975793Y-77231713D01*
X144084986Y-77276942D01*
X144200905Y-77300000D01*
X144319095Y-77300000D01*
X144435014Y-77276942D01*
X144544207Y-77231713D01*
X144642478Y-77166050D01*
X144658528Y-77150000D01*
X146937906Y-77150000D01*
X146960000Y-77152176D01*
X146982094Y-77150000D01*
X146982105Y-77150000D01*
X147048215Y-77143489D01*
X147133041Y-77117757D01*
X147211216Y-77075971D01*
X147279737Y-77019737D01*
X147293828Y-77002567D01*
X147346395Y-76950000D01*
X147369095Y-76950000D01*
X147485014Y-76926942D01*
X147594207Y-76881713D01*
X147692478Y-76816050D01*
X147776050Y-76732478D01*
X147841713Y-76634207D01*
X147886942Y-76525014D01*
X147910000Y-76409095D01*
X147910000Y-76290905D01*
X147886942Y-76174986D01*
X147841713Y-76065793D01*
X147776050Y-75967522D01*
X147692478Y-75883950D01*
X147594207Y-75818287D01*
X147485014Y-75773058D01*
X147369095Y-75750000D01*
X147250905Y-75750000D01*
X147134986Y-75773058D01*
X147025793Y-75818287D01*
X146927522Y-75883950D01*
X146843950Y-75967522D01*
X146778287Y-76065793D01*
X146733058Y-76174986D01*
X146718137Y-76250000D01*
X144658528Y-76250000D01*
X144642478Y-76233950D01*
X144544207Y-76168287D01*
X144435014Y-76123058D01*
X144319095Y-76100000D01*
X144200905Y-76100000D01*
X144084986Y-76123058D01*
X143975793Y-76168287D01*
X143877522Y-76233950D01*
X143793950Y-76317522D01*
X143728287Y-76415793D01*
X143683058Y-76524986D01*
X143660000Y-76640905D01*
X137219305Y-76640905D01*
X135619305Y-75040905D01*
X140760000Y-75040905D01*
X140760000Y-75159095D01*
X140783058Y-75275014D01*
X140828287Y-75384207D01*
X140893950Y-75482478D01*
X140977522Y-75566050D01*
X141075793Y-75631713D01*
X141184986Y-75676942D01*
X141300905Y-75700000D01*
X141419095Y-75700000D01*
X141535014Y-75676942D01*
X141587986Y-75655000D01*
X151473548Y-75655000D01*
X151479340Y-75713810D01*
X151496495Y-75770361D01*
X151524352Y-75822478D01*
X151561841Y-75868159D01*
X151607522Y-75905648D01*
X151659639Y-75933505D01*
X151716190Y-75950660D01*
X151775000Y-75956452D01*
X152235000Y-75955000D01*
X152310000Y-75880000D01*
X152310000Y-75270000D01*
X152510000Y-75270000D01*
X152510000Y-75880000D01*
X152585000Y-75955000D01*
X153045000Y-75956452D01*
X153103810Y-75950660D01*
X153160361Y-75933505D01*
X153212478Y-75905648D01*
X153258159Y-75868159D01*
X153295648Y-75822478D01*
X153323505Y-75770361D01*
X153340660Y-75713810D01*
X153346452Y-75655000D01*
X153345000Y-75345000D01*
X153270000Y-75270000D01*
X152510000Y-75270000D01*
X152310000Y-75270000D01*
X151550000Y-75270000D01*
X151475000Y-75345000D01*
X151473548Y-75655000D01*
X141587986Y-75655000D01*
X141644207Y-75631713D01*
X141742478Y-75566050D01*
X141826050Y-75482478D01*
X141831047Y-75475000D01*
X143641584Y-75475000D01*
X143660000Y-75476814D01*
X143678416Y-75475000D01*
X143678419Y-75475000D01*
X143733513Y-75469574D01*
X143804200Y-75448131D01*
X143869347Y-75413309D01*
X143926448Y-75366448D01*
X143938195Y-75352134D01*
X144342084Y-74948245D01*
X144350905Y-74950000D01*
X144469095Y-74950000D01*
X144585014Y-74926942D01*
X144694207Y-74881713D01*
X144792478Y-74816050D01*
X144876050Y-74732478D01*
X144941713Y-74634207D01*
X144959649Y-74590905D01*
X149760000Y-74590905D01*
X149760000Y-74709095D01*
X149783058Y-74825014D01*
X149828287Y-74934207D01*
X149893950Y-75032478D01*
X149977522Y-75116050D01*
X150075793Y-75181713D01*
X150184986Y-75226942D01*
X150300905Y-75250000D01*
X150419095Y-75250000D01*
X150535014Y-75226942D01*
X150644207Y-75181713D01*
X150742478Y-75116050D01*
X150826050Y-75032478D01*
X150891713Y-74934207D01*
X150936942Y-74825014D01*
X150960000Y-74709095D01*
X150960000Y-74590905D01*
X150936942Y-74474986D01*
X150927970Y-74453325D01*
X150984986Y-74476942D01*
X151100905Y-74500000D01*
X151219095Y-74500000D01*
X151335014Y-74476942D01*
X151444207Y-74431713D01*
X151476054Y-74410433D01*
X151479341Y-74443810D01*
X151496496Y-74500360D01*
X151515011Y-74534999D01*
X151496495Y-74569639D01*
X151479340Y-74626190D01*
X151473548Y-74685000D01*
X151475000Y-74995000D01*
X151550000Y-75070000D01*
X152310000Y-75070000D01*
X152310000Y-75050000D01*
X152510000Y-75050000D01*
X152510000Y-75070000D01*
X153270000Y-75070000D01*
X153345000Y-74995000D01*
X153346452Y-74685000D01*
X153340660Y-74626190D01*
X153323505Y-74569639D01*
X153304989Y-74534999D01*
X153323504Y-74500360D01*
X153340659Y-74443810D01*
X153346451Y-74385000D01*
X153346451Y-73415000D01*
X153340659Y-73356190D01*
X153323504Y-73299640D01*
X153304989Y-73265000D01*
X153323504Y-73230360D01*
X153340659Y-73173810D01*
X153346451Y-73115000D01*
X153346451Y-73080000D01*
X153473549Y-73080000D01*
X153473549Y-73115000D01*
X153479341Y-73173810D01*
X153496496Y-73230360D01*
X153515011Y-73265000D01*
X153496496Y-73299640D01*
X153479341Y-73356190D01*
X153473549Y-73415000D01*
X153473549Y-74385000D01*
X153479341Y-74443810D01*
X153496496Y-74500360D01*
X153515011Y-74534999D01*
X153496495Y-74569639D01*
X153479340Y-74626190D01*
X153473548Y-74685000D01*
X153475000Y-74995000D01*
X153550000Y-75070000D01*
X153985001Y-75070000D01*
X153985001Y-75130874D01*
X153991151Y-75193314D01*
X154014413Y-75270000D01*
X153550000Y-75270000D01*
X153475000Y-75345000D01*
X153473548Y-75655000D01*
X153479340Y-75713810D01*
X153496495Y-75770361D01*
X153524352Y-75822478D01*
X153561841Y-75868159D01*
X153607522Y-75905648D01*
X153659639Y-75933505D01*
X153716190Y-75950660D01*
X153775000Y-75956452D01*
X154235000Y-75955000D01*
X154310000Y-75880000D01*
X154310000Y-75523788D01*
X154326687Y-75528850D01*
X154410000Y-75537056D01*
X154493314Y-75528850D01*
X154510000Y-75523788D01*
X154510000Y-75880000D01*
X154585000Y-75955000D01*
X155045000Y-75956452D01*
X155103810Y-75950660D01*
X155160361Y-75933505D01*
X155212478Y-75905648D01*
X155258159Y-75868159D01*
X155295648Y-75822478D01*
X155323505Y-75770361D01*
X155340660Y-75713810D01*
X155346452Y-75655000D01*
X155345000Y-75345000D01*
X155270000Y-75270000D01*
X154805588Y-75270000D01*
X154828850Y-75193314D01*
X154835000Y-75130874D01*
X154835000Y-75070000D01*
X155270000Y-75070000D01*
X155345000Y-74995000D01*
X155346452Y-74685000D01*
X155340660Y-74626190D01*
X155323505Y-74569639D01*
X155304989Y-74534999D01*
X155323504Y-74500360D01*
X155340659Y-74443810D01*
X155343946Y-74410433D01*
X155375793Y-74431713D01*
X155484986Y-74476942D01*
X155600905Y-74500000D01*
X155719095Y-74500000D01*
X155835014Y-74476942D01*
X155944207Y-74431713D01*
X156042478Y-74366050D01*
X156126050Y-74282478D01*
X156191713Y-74184207D01*
X156236942Y-74075014D01*
X156260000Y-73959095D01*
X156260000Y-73840905D01*
X156236942Y-73724986D01*
X156191713Y-73615793D01*
X156126050Y-73517522D01*
X156042478Y-73433950D01*
X155944207Y-73368287D01*
X155835014Y-73323058D01*
X155719095Y-73300000D01*
X155600905Y-73300000D01*
X155484986Y-73323058D01*
X155375793Y-73368287D01*
X155343946Y-73389567D01*
X155340659Y-73356190D01*
X155323504Y-73299640D01*
X155304989Y-73265000D01*
X155323504Y-73230360D01*
X155340659Y-73173810D01*
X155342098Y-73159199D01*
X155375793Y-73181713D01*
X155484986Y-73226942D01*
X155600905Y-73250000D01*
X155719095Y-73250000D01*
X155835014Y-73226942D01*
X155944207Y-73181713D01*
X156042478Y-73116050D01*
X156126050Y-73032478D01*
X156191713Y-72934207D01*
X156236942Y-72825014D01*
X156260000Y-72709095D01*
X156260000Y-72590905D01*
X156236942Y-72474986D01*
X156191713Y-72365793D01*
X156126050Y-72267522D01*
X156042478Y-72183950D01*
X155944207Y-72118287D01*
X155835014Y-72073058D01*
X155719095Y-72050000D01*
X155600905Y-72050000D01*
X155484986Y-72073058D01*
X155375793Y-72118287D01*
X155345794Y-72138332D01*
X155340659Y-72086190D01*
X155323504Y-72029640D01*
X155295647Y-71977523D01*
X155258158Y-71931842D01*
X155212477Y-71894353D01*
X155160360Y-71866496D01*
X155103810Y-71849341D01*
X155045000Y-71843549D01*
X153775000Y-71843549D01*
X153716190Y-71849341D01*
X153659640Y-71866496D01*
X153607523Y-71894353D01*
X153561842Y-71931842D01*
X153524353Y-71977523D01*
X153496496Y-72029640D01*
X153479341Y-72086190D01*
X153473549Y-72145000D01*
X153473549Y-72180000D01*
X153346451Y-72180000D01*
X153346451Y-72145000D01*
X153340659Y-72086190D01*
X153323504Y-72029640D01*
X153295647Y-71977523D01*
X153258158Y-71931842D01*
X153212477Y-71894353D01*
X153160360Y-71866496D01*
X153103810Y-71849341D01*
X153045000Y-71843549D01*
X151775000Y-71843549D01*
X151716190Y-71849341D01*
X151659640Y-71866496D01*
X151607523Y-71894353D01*
X151561842Y-71931842D01*
X151524353Y-71977523D01*
X151496496Y-72029640D01*
X151479341Y-72086190D01*
X151473549Y-72145000D01*
X151473549Y-72180000D01*
X151302091Y-72180000D01*
X151279999Y-72177824D01*
X151257907Y-72180000D01*
X151257895Y-72180000D01*
X151191785Y-72186511D01*
X151106959Y-72212243D01*
X151056014Y-72239474D01*
X151028783Y-72254029D01*
X150977432Y-72296172D01*
X150977428Y-72296176D01*
X150960263Y-72310263D01*
X150946176Y-72327428D01*
X150057429Y-73216176D01*
X150040264Y-73230263D01*
X150026177Y-73247428D01*
X150026172Y-73247433D01*
X149984029Y-73298784D01*
X149942243Y-73376960D01*
X149916512Y-73461785D01*
X149907824Y-73550000D01*
X149910001Y-73572104D01*
X149910000Y-74251472D01*
X149893950Y-74267522D01*
X149828287Y-74365793D01*
X149783058Y-74474986D01*
X149760000Y-74590905D01*
X144959649Y-74590905D01*
X144986942Y-74525014D01*
X145010000Y-74409095D01*
X145010000Y-74290905D01*
X144986942Y-74174986D01*
X144941713Y-74065793D01*
X144876050Y-73967522D01*
X144792478Y-73883950D01*
X144694207Y-73818287D01*
X144585014Y-73773058D01*
X144469095Y-73750000D01*
X144350905Y-73750000D01*
X144234986Y-73773058D01*
X144125793Y-73818287D01*
X144027522Y-73883950D01*
X143943950Y-73967522D01*
X143878287Y-74065793D01*
X143833058Y-74174986D01*
X143810000Y-74290905D01*
X143810000Y-74409095D01*
X143811755Y-74417916D01*
X143504671Y-74725000D01*
X141831047Y-74725000D01*
X141826050Y-74717522D01*
X141742478Y-74633950D01*
X141644207Y-74568287D01*
X141535014Y-74523058D01*
X141419095Y-74500000D01*
X141300905Y-74500000D01*
X141184986Y-74523058D01*
X141075793Y-74568287D01*
X140977522Y-74633950D01*
X140893950Y-74717522D01*
X140828287Y-74815793D01*
X140783058Y-74924986D01*
X140760000Y-75040905D01*
X135619305Y-75040905D01*
X133169305Y-72590905D01*
X135310000Y-72590905D01*
X135310000Y-72709095D01*
X135333058Y-72825014D01*
X135378287Y-72934207D01*
X135443950Y-73032478D01*
X135527522Y-73116050D01*
X135625793Y-73181713D01*
X135734986Y-73226942D01*
X135850905Y-73250000D01*
X135969095Y-73250000D01*
X136085014Y-73226942D01*
X136194207Y-73181713D01*
X136226054Y-73160433D01*
X136229341Y-73193810D01*
X136246496Y-73250360D01*
X136265011Y-73284999D01*
X136246495Y-73319639D01*
X136229340Y-73376190D01*
X136223548Y-73435000D01*
X136225000Y-73745000D01*
X136300000Y-73820000D01*
X136735001Y-73820000D01*
X136735001Y-73856874D01*
X136741151Y-73919314D01*
X136765453Y-73999427D01*
X136776449Y-74020000D01*
X136300000Y-74020000D01*
X136225000Y-74095000D01*
X136223548Y-74405000D01*
X136229340Y-74463810D01*
X136246495Y-74520361D01*
X136274352Y-74572478D01*
X136311841Y-74618159D01*
X136357522Y-74655648D01*
X136409639Y-74683505D01*
X136466190Y-74700660D01*
X136525000Y-74706452D01*
X136985000Y-74705000D01*
X137060000Y-74630000D01*
X137060000Y-74249788D01*
X137076687Y-74254850D01*
X137160000Y-74263056D01*
X137243314Y-74254850D01*
X137260000Y-74249788D01*
X137260000Y-74630000D01*
X137335000Y-74705000D01*
X137795000Y-74706452D01*
X137853810Y-74700660D01*
X137910361Y-74683505D01*
X137962478Y-74655648D01*
X138008159Y-74618159D01*
X138045648Y-74572478D01*
X138073505Y-74520361D01*
X138090660Y-74463810D01*
X138096452Y-74405000D01*
X138095000Y-74095000D01*
X138020000Y-74020000D01*
X137543552Y-74020000D01*
X137554548Y-73999427D01*
X137578850Y-73919314D01*
X137585000Y-73856874D01*
X137585000Y-73820000D01*
X138020000Y-73820000D01*
X138095000Y-73745000D01*
X138096452Y-73435000D01*
X138090660Y-73376190D01*
X138073505Y-73319639D01*
X138054989Y-73284999D01*
X138073504Y-73250360D01*
X138090659Y-73193810D01*
X138096451Y-73135000D01*
X138096451Y-72165000D01*
X138090659Y-72106190D01*
X138073504Y-72049640D01*
X138054989Y-72015000D01*
X138073504Y-71980360D01*
X138090659Y-71923810D01*
X138096451Y-71865000D01*
X138096451Y-70895000D01*
X138090659Y-70836190D01*
X138073504Y-70779640D01*
X138045647Y-70727523D01*
X138008158Y-70681842D01*
X137962477Y-70644353D01*
X137910360Y-70616496D01*
X137853810Y-70599341D01*
X137795000Y-70593549D01*
X137708554Y-70593549D01*
X137736942Y-70525014D01*
X137760000Y-70409095D01*
X137760000Y-70290905D01*
X137736942Y-70174986D01*
X137691713Y-70065793D01*
X137626050Y-69967522D01*
X137542478Y-69883950D01*
X137444207Y-69818287D01*
X137335014Y-69773058D01*
X137219095Y-69750000D01*
X137100905Y-69750000D01*
X136984986Y-69773058D01*
X136875793Y-69818287D01*
X136777522Y-69883950D01*
X136693950Y-69967522D01*
X136628287Y-70065793D01*
X136583058Y-70174986D01*
X136560000Y-70290905D01*
X136560000Y-70409095D01*
X136583058Y-70525014D01*
X136611446Y-70593549D01*
X136525000Y-70593549D01*
X136466190Y-70599341D01*
X136409640Y-70616496D01*
X136357523Y-70644353D01*
X136311842Y-70681842D01*
X136274353Y-70727523D01*
X136246496Y-70779640D01*
X136229341Y-70836190D01*
X136223549Y-70895000D01*
X136223549Y-71865000D01*
X136229341Y-71923810D01*
X136246496Y-71980360D01*
X136265011Y-72015000D01*
X136246496Y-72049640D01*
X136229341Y-72106190D01*
X136226054Y-72139567D01*
X136194207Y-72118287D01*
X136085014Y-72073058D01*
X135969095Y-72050000D01*
X135850905Y-72050000D01*
X135734986Y-72073058D01*
X135625793Y-72118287D01*
X135527522Y-72183950D01*
X135443950Y-72267522D01*
X135378287Y-72365793D01*
X135333058Y-72474986D01*
X135310000Y-72590905D01*
X133169305Y-72590905D01*
X131460000Y-70881601D01*
X131460000Y-68821207D01*
X138110000Y-68821207D01*
X138110000Y-68978793D01*
X138140743Y-69133351D01*
X138201049Y-69278942D01*
X138288599Y-69409970D01*
X138400030Y-69521401D01*
X138405416Y-69525000D01*
X138400030Y-69528599D01*
X138288599Y-69640030D01*
X138201049Y-69771058D01*
X138140743Y-69916649D01*
X138110000Y-70071207D01*
X138110000Y-70228793D01*
X138140743Y-70383351D01*
X138201049Y-70528942D01*
X138288599Y-70659970D01*
X138400030Y-70771401D01*
X138405416Y-70775000D01*
X138400030Y-70778599D01*
X138288599Y-70890030D01*
X138201049Y-71021058D01*
X138140743Y-71166649D01*
X138110000Y-71321207D01*
X138110000Y-71478793D01*
X138140743Y-71633351D01*
X138201049Y-71778942D01*
X138288599Y-71909970D01*
X138400030Y-72021401D01*
X138405416Y-72025000D01*
X138400030Y-72028599D01*
X138288599Y-72140030D01*
X138201049Y-72271058D01*
X138140743Y-72416649D01*
X138110000Y-72571207D01*
X138110000Y-72728793D01*
X138140743Y-72883351D01*
X138201049Y-73028942D01*
X138288599Y-73159970D01*
X138400030Y-73271401D01*
X138405416Y-73275000D01*
X138400030Y-73278599D01*
X138288599Y-73390030D01*
X138201049Y-73521058D01*
X138140743Y-73666649D01*
X138110000Y-73821207D01*
X138110000Y-73978793D01*
X138140743Y-74133351D01*
X138201049Y-74278942D01*
X138288599Y-74409970D01*
X138400030Y-74521401D01*
X138531058Y-74608951D01*
X138676649Y-74669257D01*
X138831207Y-74700000D01*
X138988793Y-74700000D01*
X139143351Y-74669257D01*
X139288942Y-74608951D01*
X139419970Y-74521401D01*
X139531401Y-74409970D01*
X139550492Y-74381398D01*
X139625793Y-74431713D01*
X139734986Y-74476942D01*
X139850905Y-74500000D01*
X139969095Y-74500000D01*
X140085014Y-74476942D01*
X140194207Y-74431713D01*
X140292478Y-74366050D01*
X140376050Y-74282478D01*
X140441713Y-74184207D01*
X140486942Y-74075014D01*
X140510000Y-73959095D01*
X140510000Y-73840905D01*
X140486942Y-73724986D01*
X140441713Y-73615793D01*
X140376050Y-73517522D01*
X140292478Y-73433950D01*
X140194207Y-73368287D01*
X140085014Y-73323058D01*
X139969095Y-73300000D01*
X139850905Y-73300000D01*
X139734986Y-73323058D01*
X139625793Y-73368287D01*
X139550492Y-73418602D01*
X139531401Y-73390030D01*
X139419970Y-73278599D01*
X139414584Y-73275000D01*
X139419970Y-73271401D01*
X139531401Y-73159970D01*
X139550492Y-73131398D01*
X139625793Y-73181713D01*
X139734986Y-73226942D01*
X139850905Y-73250000D01*
X139969095Y-73250000D01*
X140085014Y-73226942D01*
X140194207Y-73181713D01*
X140292478Y-73116050D01*
X140376050Y-73032478D01*
X140441713Y-72934207D01*
X140486942Y-72825014D01*
X140510000Y-72709095D01*
X140510000Y-72590905D01*
X140486942Y-72474986D01*
X140441713Y-72365793D01*
X140376050Y-72267522D01*
X140292478Y-72183950D01*
X140194207Y-72118287D01*
X140085014Y-72073058D01*
X139969095Y-72050000D01*
X139850905Y-72050000D01*
X139734986Y-72073058D01*
X139625793Y-72118287D01*
X139550492Y-72168602D01*
X139531401Y-72140030D01*
X139419970Y-72028599D01*
X139414584Y-72025000D01*
X139419970Y-72021401D01*
X139531401Y-71909970D01*
X139550492Y-71881398D01*
X139625793Y-71931713D01*
X139734986Y-71976942D01*
X139850905Y-72000000D01*
X139969095Y-72000000D01*
X140085014Y-71976942D01*
X140194207Y-71931713D01*
X140292478Y-71866050D01*
X140376050Y-71782478D01*
X140441713Y-71684207D01*
X140486942Y-71575014D01*
X140510000Y-71459095D01*
X140510000Y-71340905D01*
X140486942Y-71224986D01*
X140441713Y-71115793D01*
X140376050Y-71017522D01*
X140292478Y-70933950D01*
X140194207Y-70868287D01*
X140085014Y-70823058D01*
X139969095Y-70800000D01*
X139850905Y-70800000D01*
X139734986Y-70823058D01*
X139625793Y-70868287D01*
X139550492Y-70918602D01*
X139531401Y-70890030D01*
X139419970Y-70778599D01*
X139414584Y-70775000D01*
X139419970Y-70771401D01*
X139531401Y-70659970D01*
X139550492Y-70631398D01*
X139625793Y-70681713D01*
X139734986Y-70726942D01*
X139850905Y-70750000D01*
X139969095Y-70750000D01*
X140085014Y-70726942D01*
X140194207Y-70681713D01*
X140292478Y-70616050D01*
X140376050Y-70532478D01*
X140441713Y-70434207D01*
X140486942Y-70325014D01*
X140510000Y-70209095D01*
X140510000Y-70090905D01*
X143660000Y-70090905D01*
X143660000Y-70209095D01*
X143683058Y-70325014D01*
X143728287Y-70434207D01*
X143785001Y-70519085D01*
X143785000Y-72281584D01*
X143783186Y-72300000D01*
X143785000Y-72318416D01*
X143785000Y-72318418D01*
X143790426Y-72373512D01*
X143811869Y-72444199D01*
X143846691Y-72509346D01*
X143893552Y-72566448D01*
X143907866Y-72578195D01*
X143911755Y-72582084D01*
X143910000Y-72590905D01*
X143910000Y-72709095D01*
X143933058Y-72825014D01*
X143978287Y-72934207D01*
X144043950Y-73032478D01*
X144127522Y-73116050D01*
X144225793Y-73181713D01*
X144334986Y-73226942D01*
X144450905Y-73250000D01*
X144569095Y-73250000D01*
X144685014Y-73226942D01*
X144794207Y-73181713D01*
X144892478Y-73116050D01*
X144976050Y-73032478D01*
X145041713Y-72934207D01*
X145086942Y-72825014D01*
X145110000Y-72709095D01*
X145110000Y-72590905D01*
X145086942Y-72474986D01*
X145052801Y-72392562D01*
X145092478Y-72366050D01*
X145176050Y-72282478D01*
X145241713Y-72184207D01*
X145286942Y-72075014D01*
X145310000Y-71959095D01*
X145310000Y-71840905D01*
X145286942Y-71724986D01*
X145241713Y-71615793D01*
X145176050Y-71517522D01*
X145092478Y-71433950D01*
X145085000Y-71428953D01*
X145085000Y-71271047D01*
X145092478Y-71266050D01*
X145176050Y-71182478D01*
X145241713Y-71084207D01*
X145286942Y-70975014D01*
X145310000Y-70859095D01*
X145310000Y-70740905D01*
X145286942Y-70624986D01*
X145241713Y-70515793D01*
X145176050Y-70417522D01*
X145092478Y-70333950D01*
X144994207Y-70268287D01*
X144885014Y-70223058D01*
X144858280Y-70217740D01*
X144860000Y-70209095D01*
X144860000Y-70090905D01*
X144836942Y-69974986D01*
X144791713Y-69865793D01*
X144726050Y-69767522D01*
X144642478Y-69683950D01*
X144544207Y-69618287D01*
X144435014Y-69573058D01*
X144319095Y-69550000D01*
X144200905Y-69550000D01*
X144084986Y-69573058D01*
X143975793Y-69618287D01*
X143877522Y-69683950D01*
X143793950Y-69767522D01*
X143728287Y-69865793D01*
X143683058Y-69974986D01*
X143660000Y-70090905D01*
X140510000Y-70090905D01*
X140486942Y-69974986D01*
X140441713Y-69865793D01*
X140376050Y-69767522D01*
X140292478Y-69683950D01*
X140194207Y-69618287D01*
X140085014Y-69573058D01*
X139969095Y-69550000D01*
X139850905Y-69550000D01*
X139734986Y-69573058D01*
X139625793Y-69618287D01*
X139550492Y-69668602D01*
X139531401Y-69640030D01*
X139419970Y-69528599D01*
X139414584Y-69525000D01*
X139419970Y-69521401D01*
X139531401Y-69409970D01*
X139550492Y-69381398D01*
X139625793Y-69431713D01*
X139734986Y-69476942D01*
X139850905Y-69500000D01*
X139969095Y-69500000D01*
X140085014Y-69476942D01*
X140194207Y-69431713D01*
X140292478Y-69366050D01*
X140376050Y-69282478D01*
X140441713Y-69184207D01*
X140486942Y-69075014D01*
X140510000Y-68959095D01*
X140510000Y-68840905D01*
X140486942Y-68724986D01*
X140441713Y-68615793D01*
X140376050Y-68517522D01*
X140292478Y-68433950D01*
X140194207Y-68368287D01*
X140085014Y-68323058D01*
X139969095Y-68300000D01*
X139850905Y-68300000D01*
X139734986Y-68323058D01*
X139625793Y-68368287D01*
X139550492Y-68418602D01*
X139531401Y-68390030D01*
X139419970Y-68278599D01*
X139288942Y-68191049D01*
X139143351Y-68130743D01*
X138988793Y-68100000D01*
X138831207Y-68100000D01*
X138676649Y-68130743D01*
X138531058Y-68191049D01*
X138400030Y-68278599D01*
X138288599Y-68390030D01*
X138201049Y-68521058D01*
X138140743Y-68666649D01*
X138110000Y-68821207D01*
X131460000Y-68821207D01*
X131460000Y-65340905D01*
X135310000Y-65340905D01*
X135310000Y-65459095D01*
X135333058Y-65575014D01*
X135378287Y-65684207D01*
X135443950Y-65782478D01*
X135527522Y-65866050D01*
X135625793Y-65931713D01*
X135734986Y-65976942D01*
X135850905Y-66000000D01*
X135969095Y-66000000D01*
X136085014Y-65976942D01*
X136194207Y-65931713D01*
X136226054Y-65910433D01*
X136229341Y-65943810D01*
X136246496Y-66000360D01*
X136265011Y-66035000D01*
X136246496Y-66069640D01*
X136229341Y-66126190D01*
X136227902Y-66140801D01*
X136194207Y-66118287D01*
X136085014Y-66073058D01*
X135969095Y-66050000D01*
X135850905Y-66050000D01*
X135734986Y-66073058D01*
X135625793Y-66118287D01*
X135527522Y-66183950D01*
X135443950Y-66267522D01*
X135378287Y-66365793D01*
X135333058Y-66474986D01*
X135310000Y-66590905D01*
X135310000Y-66709095D01*
X135333058Y-66825014D01*
X135378287Y-66934207D01*
X135443950Y-67032478D01*
X135527522Y-67116050D01*
X135625793Y-67181713D01*
X135734986Y-67226942D01*
X135850905Y-67250000D01*
X135969095Y-67250000D01*
X136085014Y-67226942D01*
X136194207Y-67181713D01*
X136224206Y-67161668D01*
X136229341Y-67213810D01*
X136246496Y-67270360D01*
X136274353Y-67322477D01*
X136311842Y-67368158D01*
X136357523Y-67405647D01*
X136409640Y-67433504D01*
X136466190Y-67450659D01*
X136525000Y-67456451D01*
X137795000Y-67456451D01*
X137853810Y-67450659D01*
X137910360Y-67433504D01*
X137962477Y-67405647D01*
X138008158Y-67368158D01*
X138045647Y-67322477D01*
X138073504Y-67270360D01*
X138090659Y-67213810D01*
X138096451Y-67155000D01*
X138096451Y-67120000D01*
X138223549Y-67120000D01*
X138223549Y-67155000D01*
X138229341Y-67213810D01*
X138246496Y-67270360D01*
X138274353Y-67322477D01*
X138311842Y-67368158D01*
X138357523Y-67405647D01*
X138409640Y-67433504D01*
X138466190Y-67450659D01*
X138525000Y-67456451D01*
X139795000Y-67456451D01*
X139853810Y-67450659D01*
X139910360Y-67433504D01*
X139962477Y-67405647D01*
X140008158Y-67368158D01*
X140045647Y-67322477D01*
X140073504Y-67270360D01*
X140090659Y-67213810D01*
X140096451Y-67155000D01*
X140096451Y-66662107D01*
X140125793Y-66681713D01*
X140234986Y-66726942D01*
X140350905Y-66750000D01*
X140469095Y-66750000D01*
X140585014Y-66726942D01*
X140694207Y-66681713D01*
X140792478Y-66616050D01*
X140876050Y-66532478D01*
X140941713Y-66434207D01*
X140986942Y-66325014D01*
X140993726Y-66290905D01*
X144310000Y-66290905D01*
X144310000Y-66409095D01*
X144333058Y-66525014D01*
X144378287Y-66634207D01*
X144443950Y-66732478D01*
X144527522Y-66816050D01*
X144625793Y-66881713D01*
X144734986Y-66926942D01*
X144850905Y-66950000D01*
X144969095Y-66950000D01*
X145085014Y-66926942D01*
X145194207Y-66881713D01*
X145292478Y-66816050D01*
X145317623Y-66790905D01*
X146010000Y-66790905D01*
X146010000Y-66909095D01*
X146033058Y-67025014D01*
X146078287Y-67134207D01*
X146143950Y-67232478D01*
X146227522Y-67316050D01*
X146235000Y-67321047D01*
X146235000Y-67631583D01*
X146233186Y-67650000D01*
X146235000Y-67668416D01*
X146235000Y-67668418D01*
X146240426Y-67723512D01*
X146261869Y-67794199D01*
X146296691Y-67859346D01*
X146343552Y-67916448D01*
X146357866Y-67928195D01*
X146435001Y-68005330D01*
X146435000Y-68776472D01*
X146393950Y-68817522D01*
X146328287Y-68915793D01*
X146283058Y-69024986D01*
X146260000Y-69140905D01*
X146260000Y-69259095D01*
X146283058Y-69375014D01*
X146328287Y-69484207D01*
X146393950Y-69582478D01*
X146477522Y-69666050D01*
X146575793Y-69731713D01*
X146684986Y-69776942D01*
X146800905Y-69800000D01*
X146919095Y-69800000D01*
X147035014Y-69776942D01*
X147144207Y-69731713D01*
X147242478Y-69666050D01*
X147326050Y-69582478D01*
X147391713Y-69484207D01*
X147436942Y-69375014D01*
X147460000Y-69259095D01*
X147460000Y-69191863D01*
X147535014Y-69176942D01*
X147644207Y-69131713D01*
X147742478Y-69066050D01*
X147826050Y-68982478D01*
X147891713Y-68884207D01*
X147936942Y-68775014D01*
X147960000Y-68659095D01*
X147960000Y-68540905D01*
X147936942Y-68424986D01*
X147891713Y-68315793D01*
X147826050Y-68217522D01*
X147742478Y-68133950D01*
X147644207Y-68068287D01*
X147535014Y-68023058D01*
X147535000Y-68023055D01*
X147535000Y-67871047D01*
X147542478Y-67866050D01*
X147626050Y-67782478D01*
X147691713Y-67684207D01*
X147736942Y-67575014D01*
X147760000Y-67459095D01*
X147760000Y-67340905D01*
X147736942Y-67224986D01*
X147691713Y-67115793D01*
X147626050Y-67017522D01*
X147542478Y-66933950D01*
X147444207Y-66868287D01*
X147335014Y-66823058D01*
X147219095Y-66800000D01*
X147210000Y-66800000D01*
X147210000Y-66790905D01*
X147186942Y-66674986D01*
X147141713Y-66565793D01*
X147076050Y-66467522D01*
X146992478Y-66383950D01*
X146894207Y-66318287D01*
X146785014Y-66273058D01*
X146669095Y-66250000D01*
X146550905Y-66250000D01*
X146434986Y-66273058D01*
X146325793Y-66318287D01*
X146227522Y-66383950D01*
X146143950Y-66467522D01*
X146078287Y-66565793D01*
X146033058Y-66674986D01*
X146010000Y-66790905D01*
X145317623Y-66790905D01*
X145376050Y-66732478D01*
X145441713Y-66634207D01*
X145486942Y-66525014D01*
X145510000Y-66409095D01*
X145510000Y-66290905D01*
X145508245Y-66282084D01*
X146262140Y-65528190D01*
X146276448Y-65516448D01*
X146323309Y-65459347D01*
X146358131Y-65394200D01*
X146379574Y-65323513D01*
X146385000Y-65268419D01*
X146385000Y-65268416D01*
X146386814Y-65250000D01*
X146385000Y-65231584D01*
X146385000Y-63740905D01*
X146560000Y-63740905D01*
X146560000Y-63859095D01*
X146583058Y-63975014D01*
X146628287Y-64084207D01*
X146693950Y-64182478D01*
X146777522Y-64266050D01*
X146785001Y-64271047D01*
X146785000Y-64428953D01*
X146777522Y-64433950D01*
X146693950Y-64517522D01*
X146628287Y-64615793D01*
X146583058Y-64724986D01*
X146560000Y-64840905D01*
X146560000Y-64959095D01*
X146583058Y-65075014D01*
X146628287Y-65184207D01*
X146693950Y-65282478D01*
X146777522Y-65366050D01*
X146875793Y-65431713D01*
X146984986Y-65476942D01*
X147100905Y-65500000D01*
X147219095Y-65500000D01*
X147335014Y-65476942D01*
X147444207Y-65431713D01*
X147542478Y-65366050D01*
X147567623Y-65340905D01*
X151060000Y-65340905D01*
X151060000Y-65459095D01*
X151083058Y-65575014D01*
X151128287Y-65684207D01*
X151193950Y-65782478D01*
X151277522Y-65866050D01*
X151375793Y-65931713D01*
X151484986Y-65976942D01*
X151600905Y-66000000D01*
X151719095Y-66000000D01*
X151835014Y-65976942D01*
X151944207Y-65931713D01*
X152019508Y-65881398D01*
X152038599Y-65909970D01*
X152150030Y-66021401D01*
X152155416Y-66025000D01*
X152150030Y-66028599D01*
X152038599Y-66140030D01*
X152019508Y-66168602D01*
X151944207Y-66118287D01*
X151835014Y-66073058D01*
X151719095Y-66050000D01*
X151600905Y-66050000D01*
X151484986Y-66073058D01*
X151375793Y-66118287D01*
X151277522Y-66183950D01*
X151193950Y-66267522D01*
X151128287Y-66365793D01*
X151083058Y-66474986D01*
X151060000Y-66590905D01*
X151060000Y-66709095D01*
X151083058Y-66825014D01*
X151128287Y-66934207D01*
X151193950Y-67032478D01*
X151277522Y-67116050D01*
X151375793Y-67181713D01*
X151484986Y-67226942D01*
X151600905Y-67250000D01*
X151719095Y-67250000D01*
X151835014Y-67226942D01*
X151944207Y-67181713D01*
X152019508Y-67131398D01*
X152038599Y-67159970D01*
X152150030Y-67271401D01*
X152155416Y-67275000D01*
X152150030Y-67278599D01*
X152038599Y-67390030D01*
X152019508Y-67418602D01*
X151944207Y-67368287D01*
X151835014Y-67323058D01*
X151719095Y-67300000D01*
X151600905Y-67300000D01*
X151484986Y-67323058D01*
X151375793Y-67368287D01*
X151277522Y-67433950D01*
X151193950Y-67517522D01*
X151128287Y-67615793D01*
X151083058Y-67724986D01*
X151060000Y-67840905D01*
X151060000Y-67959095D01*
X151083058Y-68075014D01*
X151128287Y-68184207D01*
X151193950Y-68282478D01*
X151277522Y-68366050D01*
X151375793Y-68431713D01*
X151484986Y-68476942D01*
X151600905Y-68500000D01*
X151719095Y-68500000D01*
X151835014Y-68476942D01*
X151944207Y-68431713D01*
X152019508Y-68381398D01*
X152038599Y-68409970D01*
X152150030Y-68521401D01*
X152155416Y-68525000D01*
X152150030Y-68528599D01*
X152038599Y-68640030D01*
X152019508Y-68668602D01*
X151944207Y-68618287D01*
X151835014Y-68573058D01*
X151719095Y-68550000D01*
X151600905Y-68550000D01*
X151484986Y-68573058D01*
X151375793Y-68618287D01*
X151277522Y-68683950D01*
X151193950Y-68767522D01*
X151128287Y-68865793D01*
X151083058Y-68974986D01*
X151060000Y-69090905D01*
X151060000Y-69209095D01*
X151083058Y-69325014D01*
X151128287Y-69434207D01*
X151193950Y-69532478D01*
X151277522Y-69616050D01*
X151375793Y-69681713D01*
X151484986Y-69726942D01*
X151600905Y-69750000D01*
X151719095Y-69750000D01*
X151835014Y-69726942D01*
X151944207Y-69681713D01*
X152019508Y-69631398D01*
X152038599Y-69659970D01*
X152150030Y-69771401D01*
X152155416Y-69775000D01*
X152150030Y-69778599D01*
X152038599Y-69890030D01*
X152019508Y-69918602D01*
X151944207Y-69868287D01*
X151835014Y-69823058D01*
X151719095Y-69800000D01*
X151600905Y-69800000D01*
X151484986Y-69823058D01*
X151375793Y-69868287D01*
X151277522Y-69933950D01*
X151193950Y-70017522D01*
X151128287Y-70115793D01*
X151083058Y-70224986D01*
X151060000Y-70340905D01*
X151060000Y-70459095D01*
X151083058Y-70575014D01*
X151128287Y-70684207D01*
X151193950Y-70782478D01*
X151277522Y-70866050D01*
X151375793Y-70931713D01*
X151484986Y-70976942D01*
X151600905Y-71000000D01*
X151719095Y-71000000D01*
X151835014Y-70976942D01*
X151944207Y-70931713D01*
X152019508Y-70881398D01*
X152038599Y-70909970D01*
X152150030Y-71021401D01*
X152281058Y-71108951D01*
X152426649Y-71169257D01*
X152581207Y-71200000D01*
X152738793Y-71200000D01*
X152893351Y-71169257D01*
X153038942Y-71108951D01*
X153169970Y-71021401D01*
X153281401Y-70909970D01*
X153368951Y-70778942D01*
X153429257Y-70633351D01*
X153460000Y-70478793D01*
X153460000Y-70321207D01*
X153429257Y-70166649D01*
X153368951Y-70021058D01*
X153281401Y-69890030D01*
X153169970Y-69778599D01*
X153164584Y-69775000D01*
X153169970Y-69771401D01*
X153281401Y-69659970D01*
X153368951Y-69528942D01*
X153429257Y-69383351D01*
X153460000Y-69228793D01*
X153460000Y-69071207D01*
X153429257Y-68916649D01*
X153368951Y-68771058D01*
X153281401Y-68640030D01*
X153169970Y-68528599D01*
X153164584Y-68525000D01*
X153169970Y-68521401D01*
X153281401Y-68409970D01*
X153368951Y-68278942D01*
X153429257Y-68133351D01*
X153460000Y-67978793D01*
X153460000Y-67821207D01*
X153429257Y-67666649D01*
X153368951Y-67521058D01*
X153281401Y-67390030D01*
X153169970Y-67278599D01*
X153164584Y-67275000D01*
X153169970Y-67271401D01*
X153281401Y-67159970D01*
X153368951Y-67028942D01*
X153429257Y-66883351D01*
X153460000Y-66728793D01*
X153460000Y-66571207D01*
X153429257Y-66416649D01*
X153368951Y-66271058D01*
X153281401Y-66140030D01*
X153169970Y-66028599D01*
X153164584Y-66025000D01*
X153169970Y-66021401D01*
X153281401Y-65909970D01*
X153368951Y-65778942D01*
X153429257Y-65633351D01*
X153460000Y-65478793D01*
X153460000Y-65321207D01*
X153429257Y-65166649D01*
X153368951Y-65021058D01*
X153284722Y-64895000D01*
X153473548Y-64895000D01*
X153475000Y-65205000D01*
X153550000Y-65280000D01*
X153989741Y-65280000D01*
X153985001Y-65328126D01*
X153985001Y-65480000D01*
X153550000Y-65480000D01*
X153475000Y-65555000D01*
X153473548Y-65865000D01*
X153479340Y-65923810D01*
X153496495Y-65980361D01*
X153515011Y-66015001D01*
X153496496Y-66049640D01*
X153479341Y-66106190D01*
X153473549Y-66165000D01*
X153473549Y-67135000D01*
X153479341Y-67193810D01*
X153496496Y-67250360D01*
X153515011Y-67285000D01*
X153496496Y-67319640D01*
X153479341Y-67376190D01*
X153473549Y-67435000D01*
X153473549Y-68405000D01*
X153479341Y-68463810D01*
X153496496Y-68520360D01*
X153524353Y-68572477D01*
X153561842Y-68618158D01*
X153607523Y-68655647D01*
X153659640Y-68683504D01*
X153716190Y-68700659D01*
X153775000Y-68706451D01*
X153861446Y-68706451D01*
X153833058Y-68774986D01*
X153810000Y-68890905D01*
X153810000Y-69009095D01*
X153833058Y-69125014D01*
X153878287Y-69234207D01*
X153943950Y-69332478D01*
X154027522Y-69416050D01*
X154125793Y-69481713D01*
X154234986Y-69526942D01*
X154350905Y-69550000D01*
X154469095Y-69550000D01*
X154585014Y-69526942D01*
X154694207Y-69481713D01*
X154792478Y-69416050D01*
X154876050Y-69332478D01*
X154941713Y-69234207D01*
X154986942Y-69125014D01*
X155010000Y-69009095D01*
X155010000Y-68890905D01*
X154986942Y-68774986D01*
X154958554Y-68706451D01*
X155045000Y-68706451D01*
X155103810Y-68700659D01*
X155160360Y-68683504D01*
X155212477Y-68655647D01*
X155258158Y-68618158D01*
X155295647Y-68572477D01*
X155323504Y-68520360D01*
X155340659Y-68463810D01*
X155346451Y-68405000D01*
X155346451Y-67435000D01*
X155340659Y-67376190D01*
X155323504Y-67319640D01*
X155304989Y-67285000D01*
X155323504Y-67250360D01*
X155340659Y-67193810D01*
X155343946Y-67160433D01*
X155375793Y-67181713D01*
X155484986Y-67226942D01*
X155600905Y-67250000D01*
X155719095Y-67250000D01*
X155835014Y-67226942D01*
X155944207Y-67181713D01*
X156042478Y-67116050D01*
X156126050Y-67032478D01*
X156191713Y-66934207D01*
X156236942Y-66825014D01*
X156260000Y-66709095D01*
X156260000Y-66590905D01*
X156236942Y-66474986D01*
X156191713Y-66365793D01*
X156126050Y-66267522D01*
X156042478Y-66183950D01*
X155944207Y-66118287D01*
X155835014Y-66073058D01*
X155719095Y-66050000D01*
X155600905Y-66050000D01*
X155484986Y-66073058D01*
X155375793Y-66118287D01*
X155343946Y-66139567D01*
X155340659Y-66106190D01*
X155323504Y-66049640D01*
X155304989Y-66015001D01*
X155323505Y-65980361D01*
X155340660Y-65923810D01*
X155346452Y-65865000D01*
X155345000Y-65555000D01*
X155270000Y-65480000D01*
X154835000Y-65480000D01*
X154835000Y-65328126D01*
X154830260Y-65280000D01*
X155270000Y-65280000D01*
X155345000Y-65205000D01*
X155346452Y-64895000D01*
X155340660Y-64836190D01*
X155323505Y-64779639D01*
X155295648Y-64727522D01*
X155258159Y-64681841D01*
X155212478Y-64644352D01*
X155160361Y-64616495D01*
X155103810Y-64599340D01*
X155045000Y-64593548D01*
X154585000Y-64595000D01*
X154510000Y-64670000D01*
X154510000Y-64935212D01*
X154493314Y-64930150D01*
X154410000Y-64921944D01*
X154326687Y-64930150D01*
X154310000Y-64935212D01*
X154310000Y-64670000D01*
X154235000Y-64595000D01*
X153775000Y-64593548D01*
X153716190Y-64599340D01*
X153659639Y-64616495D01*
X153607522Y-64644352D01*
X153561841Y-64681841D01*
X153524352Y-64727522D01*
X153496495Y-64779639D01*
X153479340Y-64836190D01*
X153473548Y-64895000D01*
X153284722Y-64895000D01*
X153281401Y-64890030D01*
X153169970Y-64778599D01*
X153038942Y-64691049D01*
X152893351Y-64630743D01*
X152738793Y-64600000D01*
X152581207Y-64600000D01*
X152426649Y-64630743D01*
X152281058Y-64691049D01*
X152150030Y-64778599D01*
X152038599Y-64890030D01*
X152019508Y-64918602D01*
X151944207Y-64868287D01*
X151835014Y-64823058D01*
X151719095Y-64800000D01*
X151600905Y-64800000D01*
X151484986Y-64823058D01*
X151375793Y-64868287D01*
X151277522Y-64933950D01*
X151193950Y-65017522D01*
X151128287Y-65115793D01*
X151083058Y-65224986D01*
X151060000Y-65340905D01*
X147567623Y-65340905D01*
X147626050Y-65282478D01*
X147691713Y-65184207D01*
X147736942Y-65075014D01*
X147760000Y-64959095D01*
X147760000Y-64840905D01*
X147736942Y-64724986D01*
X147691713Y-64615793D01*
X147626050Y-64517522D01*
X147542478Y-64433950D01*
X147535000Y-64428953D01*
X147535000Y-64271047D01*
X147542478Y-64266050D01*
X147626050Y-64182478D01*
X147691713Y-64084207D01*
X147736942Y-63975014D01*
X147760000Y-63859095D01*
X147760000Y-63740905D01*
X147736942Y-63624986D01*
X147691713Y-63515793D01*
X147626050Y-63417522D01*
X147542478Y-63333950D01*
X147444207Y-63268287D01*
X147335014Y-63223058D01*
X147219095Y-63200000D01*
X147100905Y-63200000D01*
X146984986Y-63223058D01*
X146875793Y-63268287D01*
X146777522Y-63333950D01*
X146693950Y-63417522D01*
X146628287Y-63515793D01*
X146583058Y-63624986D01*
X146560000Y-63740905D01*
X146385000Y-63740905D01*
X146385000Y-63521047D01*
X146392478Y-63516050D01*
X146476050Y-63432478D01*
X146541713Y-63334207D01*
X146586942Y-63225014D01*
X146610000Y-63109095D01*
X146610000Y-62990905D01*
X146586942Y-62874986D01*
X146541713Y-62765793D01*
X146476050Y-62667522D01*
X146392478Y-62583950D01*
X146294207Y-62518287D01*
X146185014Y-62473058D01*
X146069095Y-62450000D01*
X145950905Y-62450000D01*
X145834986Y-62473058D01*
X145725793Y-62518287D01*
X145627522Y-62583950D01*
X145543950Y-62667522D01*
X145478287Y-62765793D01*
X145433058Y-62874986D01*
X145410000Y-62990905D01*
X145410000Y-63109095D01*
X145433058Y-63225014D01*
X145478287Y-63334207D01*
X145543950Y-63432478D01*
X145627522Y-63516050D01*
X145635001Y-63521047D01*
X145635000Y-65094670D01*
X144977916Y-65751755D01*
X144969095Y-65750000D01*
X144850905Y-65750000D01*
X144734986Y-65773058D01*
X144625793Y-65818287D01*
X144527522Y-65883950D01*
X144443950Y-65967522D01*
X144378287Y-66065793D01*
X144333058Y-66174986D01*
X144310000Y-66290905D01*
X140993726Y-66290905D01*
X141010000Y-66209095D01*
X141010000Y-66090905D01*
X141008245Y-66082084D01*
X141262140Y-65828190D01*
X141276448Y-65816448D01*
X141323309Y-65759347D01*
X141358131Y-65694200D01*
X141379574Y-65623513D01*
X141385000Y-65568419D01*
X141385000Y-65568417D01*
X141386814Y-65550001D01*
X141385000Y-65531585D01*
X141385000Y-65171047D01*
X141392478Y-65166050D01*
X141476050Y-65082478D01*
X141541713Y-64984207D01*
X141586942Y-64875014D01*
X141610000Y-64759095D01*
X141610000Y-64640905D01*
X141586942Y-64524986D01*
X141541713Y-64415793D01*
X141476050Y-64317522D01*
X141392478Y-64233950D01*
X141294207Y-64168287D01*
X141185014Y-64123058D01*
X141069095Y-64100000D01*
X140950905Y-64100000D01*
X140834986Y-64123058D01*
X140725793Y-64168287D01*
X140627522Y-64233950D01*
X140543950Y-64317522D01*
X140478287Y-64415793D01*
X140433058Y-64524986D01*
X140410000Y-64640905D01*
X140410000Y-64759095D01*
X140418137Y-64800000D01*
X140350905Y-64800000D01*
X140234986Y-64823058D01*
X140125793Y-64868287D01*
X140093946Y-64889567D01*
X140090659Y-64856190D01*
X140073504Y-64799640D01*
X140054989Y-64765001D01*
X140073505Y-64730361D01*
X140090660Y-64673810D01*
X140096452Y-64615000D01*
X140095000Y-64305000D01*
X140020000Y-64230000D01*
X139260000Y-64230000D01*
X139260000Y-64250000D01*
X139060000Y-64250000D01*
X139060000Y-64230000D01*
X138300000Y-64230000D01*
X138225000Y-64305000D01*
X138223548Y-64615000D01*
X138229340Y-64673810D01*
X138246495Y-64730361D01*
X138265011Y-64765001D01*
X138246496Y-64799640D01*
X138229341Y-64856190D01*
X138223549Y-64915000D01*
X138223549Y-65885000D01*
X138229341Y-65943810D01*
X138246496Y-66000360D01*
X138265011Y-66035000D01*
X138246496Y-66069640D01*
X138229341Y-66126190D01*
X138223549Y-66185000D01*
X138223549Y-66220000D01*
X138096451Y-66220000D01*
X138096451Y-66185000D01*
X138090659Y-66126190D01*
X138073504Y-66069640D01*
X138054989Y-66035000D01*
X138073504Y-66000360D01*
X138090659Y-65943810D01*
X138096451Y-65885000D01*
X138096451Y-64915000D01*
X138090659Y-64856190D01*
X138073504Y-64799640D01*
X138054989Y-64765001D01*
X138073505Y-64730361D01*
X138090660Y-64673810D01*
X138096452Y-64615000D01*
X138095000Y-64305000D01*
X138020000Y-64230000D01*
X137585000Y-64230000D01*
X137585000Y-64062126D01*
X137581836Y-64030000D01*
X138020000Y-64030000D01*
X138095000Y-63955000D01*
X138096452Y-63645000D01*
X138223548Y-63645000D01*
X138225000Y-63955000D01*
X138300000Y-64030000D01*
X139060000Y-64030000D01*
X139060000Y-63420000D01*
X139260000Y-63420000D01*
X139260000Y-64030000D01*
X140020000Y-64030000D01*
X140095000Y-63955000D01*
X140096452Y-63645000D01*
X140090660Y-63586190D01*
X140073505Y-63529639D01*
X140045648Y-63477522D01*
X140008159Y-63431841D01*
X139962478Y-63394352D01*
X139910361Y-63366495D01*
X139853810Y-63349340D01*
X139795000Y-63343548D01*
X139335000Y-63345000D01*
X139260000Y-63420000D01*
X139060000Y-63420000D01*
X138985000Y-63345000D01*
X138525000Y-63343548D01*
X138466190Y-63349340D01*
X138409639Y-63366495D01*
X138357522Y-63394352D01*
X138311841Y-63431841D01*
X138274352Y-63477522D01*
X138246495Y-63529639D01*
X138229340Y-63586190D01*
X138223548Y-63645000D01*
X138096452Y-63645000D01*
X138090660Y-63586190D01*
X138073505Y-63529639D01*
X138045648Y-63477522D01*
X138008159Y-63431841D01*
X137962478Y-63394352D01*
X137910361Y-63366495D01*
X137853810Y-63349340D01*
X137795000Y-63343548D01*
X137335000Y-63345000D01*
X137260000Y-63420000D01*
X137260000Y-63669212D01*
X137243314Y-63664150D01*
X137160000Y-63655944D01*
X137076687Y-63664150D01*
X137060000Y-63669212D01*
X137060000Y-63420000D01*
X136985000Y-63345000D01*
X136525000Y-63343548D01*
X136466190Y-63349340D01*
X136409639Y-63366495D01*
X136357522Y-63394352D01*
X136311841Y-63431841D01*
X136274352Y-63477522D01*
X136246495Y-63529639D01*
X136229340Y-63586190D01*
X136223548Y-63645000D01*
X136225000Y-63955000D01*
X136300000Y-64030000D01*
X136738165Y-64030000D01*
X136735001Y-64062126D01*
X136735001Y-64230000D01*
X136300000Y-64230000D01*
X136225000Y-64305000D01*
X136223548Y-64615000D01*
X136229340Y-64673810D01*
X136246495Y-64730361D01*
X136265011Y-64765001D01*
X136246496Y-64799640D01*
X136229341Y-64856190D01*
X136226054Y-64889567D01*
X136194207Y-64868287D01*
X136085014Y-64823058D01*
X135969095Y-64800000D01*
X135850905Y-64800000D01*
X135734986Y-64823058D01*
X135625793Y-64868287D01*
X135527522Y-64933950D01*
X135443950Y-65017522D01*
X135378287Y-65115793D01*
X135333058Y-65224986D01*
X135310000Y-65340905D01*
X131460000Y-65340905D01*
X131460000Y-62731918D01*
X131550905Y-62750000D01*
X131669095Y-62750000D01*
X131785014Y-62726942D01*
X131894207Y-62681713D01*
X131992478Y-62616050D01*
X132076050Y-62532478D01*
X132141713Y-62434207D01*
X132186942Y-62325014D01*
X132210000Y-62209095D01*
X132210000Y-62090905D01*
X132186942Y-61974986D01*
X132141713Y-61865793D01*
X132076050Y-61767522D01*
X131992478Y-61683950D01*
X131894207Y-61618287D01*
X131785014Y-61573058D01*
X131733571Y-61562825D01*
X131796396Y-61500000D01*
X134723605Y-61500000D01*
X136076176Y-62852572D01*
G36*
X151011755Y-79932084D02*
G01*
X151010000Y-79940905D01*
X151010000Y-80059095D01*
X151033055Y-80175000D01*
X149860332Y-80175000D01*
X149268216Y-79582885D01*
X149256469Y-79568571D01*
X149199368Y-79521710D01*
X149134221Y-79486888D01*
X149063534Y-79465445D01*
X149008440Y-79460019D01*
X149008437Y-79460019D01*
X148990021Y-79458205D01*
X148971605Y-79460019D01*
X145585777Y-79460019D01*
X145616511Y-79414023D01*
X145661740Y-79304830D01*
X145684798Y-79188911D01*
X145684798Y-79070721D01*
X145661740Y-78954802D01*
X145616511Y-78845609D01*
X145559858Y-78760822D01*
X145697679Y-78623001D01*
X149702672Y-78623001D01*
X151011755Y-79932084D01*
G37*
X151011755Y-79932084D02*
X151010000Y-79940905D01*
X151010000Y-80059095D01*
X151033055Y-80175000D01*
X149860332Y-80175000D01*
X149268216Y-79582885D01*
X149256469Y-79568571D01*
X149199368Y-79521710D01*
X149134221Y-79486888D01*
X149063534Y-79465445D01*
X149008440Y-79460019D01*
X149008437Y-79460019D01*
X148990021Y-79458205D01*
X148971605Y-79460019D01*
X145585777Y-79460019D01*
X145616511Y-79414023D01*
X145661740Y-79304830D01*
X145684798Y-79188911D01*
X145684798Y-79070721D01*
X145661740Y-78954802D01*
X145616511Y-78845609D01*
X145559858Y-78760822D01*
X145697679Y-78623001D01*
X149702672Y-78623001D01*
X151011755Y-79932084D01*
G36*
X138950294Y-79644686D02*
G01*
X137004393Y-79644686D01*
X136985977Y-79642872D01*
X136967561Y-79644686D01*
X136967558Y-79644686D01*
X136912464Y-79650112D01*
X136841777Y-79671555D01*
X136824434Y-79680825D01*
X136776630Y-79706376D01*
X136757421Y-79722141D01*
X136745073Y-79719685D01*
X136626883Y-79719685D01*
X136510964Y-79742743D01*
X136401771Y-79787972D01*
X136303500Y-79853635D01*
X136219928Y-79937207D01*
X136176290Y-80002516D01*
X136063095Y-79980000D01*
X135944905Y-79980000D01*
X135828986Y-80003058D01*
X135719793Y-80048287D01*
X135621522Y-80113950D01*
X135563757Y-80171715D01*
X135543828Y-80147432D01*
X135543824Y-80147428D01*
X135529737Y-80130263D01*
X135512572Y-80116176D01*
X134743827Y-79347432D01*
X134729737Y-79330263D01*
X134661216Y-79274029D01*
X134583041Y-79232243D01*
X134498215Y-79206511D01*
X134432105Y-79200000D01*
X134432094Y-79200000D01*
X134410000Y-79197824D01*
X134387906Y-79200000D01*
X130996396Y-79200000D01*
X130860000Y-79063605D01*
X130860000Y-71554391D01*
X138950294Y-79644686D01*
G37*
X138950294Y-79644686D02*
X137004393Y-79644686D01*
X136985977Y-79642872D01*
X136967561Y-79644686D01*
X136967558Y-79644686D01*
X136912464Y-79650112D01*
X136841777Y-79671555D01*
X136824434Y-79680825D01*
X136776630Y-79706376D01*
X136757421Y-79722141D01*
X136745073Y-79719685D01*
X136626883Y-79719685D01*
X136510964Y-79742743D01*
X136401771Y-79787972D01*
X136303500Y-79853635D01*
X136219928Y-79937207D01*
X136176290Y-80002516D01*
X136063095Y-79980000D01*
X135944905Y-79980000D01*
X135828986Y-80003058D01*
X135719793Y-80048287D01*
X135621522Y-80113950D01*
X135563757Y-80171715D01*
X135543828Y-80147432D01*
X135543824Y-80147428D01*
X135529737Y-80130263D01*
X135512572Y-80116176D01*
X134743827Y-79347432D01*
X134729737Y-79330263D01*
X134661216Y-79274029D01*
X134583041Y-79232243D01*
X134498215Y-79206511D01*
X134432105Y-79200000D01*
X134432094Y-79200000D01*
X134410000Y-79197824D01*
X134387906Y-79200000D01*
X130996396Y-79200000D01*
X130860000Y-79063605D01*
X130860000Y-71554391D01*
X138950294Y-79644686D01*
G36*
X161535001Y-59805331D02*
G01*
X161535001Y-59843630D01*
X161519970Y-59828599D01*
X161388942Y-59741049D01*
X161243351Y-59680743D01*
X161088793Y-59650000D01*
X160931207Y-59650000D01*
X160776649Y-59680743D01*
X160631058Y-59741049D01*
X160617662Y-59750000D01*
X157199950Y-59750000D01*
X156829296Y-59379347D01*
X156807370Y-59352630D01*
X156700781Y-59265155D01*
X156579175Y-59200155D01*
X156447224Y-59160128D01*
X156344390Y-59150000D01*
X156344387Y-59150000D01*
X156310000Y-59146613D01*
X156275613Y-59150000D01*
X153644386Y-59150000D01*
X153609999Y-59146613D01*
X153575612Y-59150000D01*
X153575610Y-59150000D01*
X153472776Y-59160128D01*
X153340825Y-59200155D01*
X153219218Y-59265155D01*
X153139342Y-59330708D01*
X153112630Y-59352630D01*
X153090708Y-59379342D01*
X152436342Y-60033709D01*
X152409631Y-60055630D01*
X152387710Y-60082341D01*
X152387708Y-60082343D01*
X152322155Y-60162219D01*
X152303310Y-60197476D01*
X152297140Y-60200032D01*
X152086266Y-60340933D01*
X151906933Y-60520266D01*
X151786731Y-60700162D01*
X151751716Y-60647759D01*
X151600241Y-60496284D01*
X151422124Y-60377270D01*
X151224212Y-60295292D01*
X151014109Y-60253500D01*
X150799891Y-60253500D01*
X150589788Y-60295292D01*
X150391876Y-60377270D01*
X150213759Y-60496284D01*
X150062284Y-60647759D01*
X149943270Y-60825876D01*
X149907000Y-60913439D01*
X149870730Y-60825876D01*
X149751716Y-60647759D01*
X149600241Y-60496284D01*
X149422124Y-60377270D01*
X149224212Y-60295292D01*
X149014109Y-60253500D01*
X148799891Y-60253500D01*
X148589788Y-60295292D01*
X148391876Y-60377270D01*
X148213759Y-60496284D01*
X148062284Y-60647759D01*
X147943270Y-60825876D01*
X147907000Y-60913439D01*
X147870730Y-60825876D01*
X147751716Y-60647759D01*
X147600241Y-60496284D01*
X147422124Y-60377270D01*
X147224212Y-60295292D01*
X147014109Y-60253500D01*
X146799891Y-60253500D01*
X146589788Y-60295292D01*
X146391876Y-60377270D01*
X146213759Y-60496284D01*
X146062284Y-60647759D01*
X145943270Y-60825876D01*
X145907000Y-60913439D01*
X145870730Y-60825876D01*
X145751716Y-60647759D01*
X145600241Y-60496284D01*
X145422124Y-60377270D01*
X145224212Y-60295292D01*
X145014109Y-60253500D01*
X144799891Y-60253500D01*
X144589788Y-60295292D01*
X144391876Y-60377270D01*
X144213759Y-60496284D01*
X144062284Y-60647759D01*
X143943270Y-60825876D01*
X143907000Y-60913439D01*
X143870730Y-60825876D01*
X143751716Y-60647759D01*
X143600241Y-60496284D01*
X143422124Y-60377270D01*
X143224212Y-60295292D01*
X143014109Y-60253500D01*
X142799891Y-60253500D01*
X142589788Y-60295292D01*
X142391876Y-60377270D01*
X142213759Y-60496284D01*
X142062284Y-60647759D01*
X141943270Y-60825876D01*
X141907000Y-60913439D01*
X141870730Y-60825876D01*
X141751716Y-60647759D01*
X141600241Y-60496284D01*
X141422124Y-60377270D01*
X141224212Y-60295292D01*
X141014109Y-60253500D01*
X140799891Y-60253500D01*
X140589788Y-60295292D01*
X140391876Y-60377270D01*
X140213759Y-60496284D01*
X140062284Y-60647759D01*
X139943270Y-60825876D01*
X139907000Y-60913439D01*
X139870730Y-60825876D01*
X139751716Y-60647759D01*
X139600241Y-60496284D01*
X139422124Y-60377270D01*
X139224212Y-60295292D01*
X139014109Y-60253500D01*
X138799891Y-60253500D01*
X138589788Y-60295292D01*
X138391876Y-60377270D01*
X138213759Y-60496284D01*
X138062284Y-60647759D01*
X137943270Y-60825876D01*
X137907000Y-60913439D01*
X137870730Y-60825876D01*
X137751716Y-60647759D01*
X137600241Y-60496284D01*
X137422124Y-60377270D01*
X137224212Y-60295292D01*
X137014109Y-60253500D01*
X136799891Y-60253500D01*
X136589788Y-60295292D01*
X136391876Y-60377270D01*
X136213759Y-60496284D01*
X136062284Y-60647759D01*
X136014968Y-60718572D01*
X135443829Y-60147433D01*
X135429737Y-60130263D01*
X135361216Y-60074029D01*
X135283041Y-60032243D01*
X135198215Y-60006511D01*
X135132105Y-60000000D01*
X135132094Y-60000000D01*
X135110000Y-59997824D01*
X135087906Y-60000000D01*
X132010000Y-60000000D01*
X132010000Y-59890905D01*
X131986942Y-59774986D01*
X131941713Y-59665793D01*
X131876050Y-59567522D01*
X131792478Y-59483950D01*
X131694207Y-59418287D01*
X131585014Y-59373058D01*
X131469095Y-59350000D01*
X131350905Y-59350000D01*
X131234986Y-59373058D01*
X131125793Y-59418287D01*
X131027522Y-59483950D01*
X130943950Y-59567522D01*
X130878287Y-59665793D01*
X130833058Y-59774986D01*
X130810000Y-59890905D01*
X130810000Y-60009095D01*
X130833058Y-60125014D01*
X130860000Y-60190058D01*
X130860000Y-60263604D01*
X130285000Y-60838605D01*
X130285000Y-59805329D01*
X131315330Y-58775000D01*
X160504671Y-58775000D01*
X161535001Y-59805331D01*
G37*
X161535001Y-59805331D02*
X161535001Y-59843630D01*
X161519970Y-59828599D01*
X161388942Y-59741049D01*
X161243351Y-59680743D01*
X161088793Y-59650000D01*
X160931207Y-59650000D01*
X160776649Y-59680743D01*
X160631058Y-59741049D01*
X160617662Y-59750000D01*
X157199950Y-59750000D01*
X156829296Y-59379347D01*
X156807370Y-59352630D01*
X156700781Y-59265155D01*
X156579175Y-59200155D01*
X156447224Y-59160128D01*
X156344390Y-59150000D01*
X156344387Y-59150000D01*
X156310000Y-59146613D01*
X156275613Y-59150000D01*
X153644386Y-59150000D01*
X153609999Y-59146613D01*
X153575612Y-59150000D01*
X153575610Y-59150000D01*
X153472776Y-59160128D01*
X153340825Y-59200155D01*
X153219218Y-59265155D01*
X153139342Y-59330708D01*
X153112630Y-59352630D01*
X153090708Y-59379342D01*
X152436342Y-60033709D01*
X152409631Y-60055630D01*
X152387710Y-60082341D01*
X152387708Y-60082343D01*
X152322155Y-60162219D01*
X152303310Y-60197476D01*
X152297140Y-60200032D01*
X152086266Y-60340933D01*
X151906933Y-60520266D01*
X151786731Y-60700162D01*
X151751716Y-60647759D01*
X151600241Y-60496284D01*
X151422124Y-60377270D01*
X151224212Y-60295292D01*
X151014109Y-60253500D01*
X150799891Y-60253500D01*
X150589788Y-60295292D01*
X150391876Y-60377270D01*
X150213759Y-60496284D01*
X150062284Y-60647759D01*
X149943270Y-60825876D01*
X149907000Y-60913439D01*
X149870730Y-60825876D01*
X149751716Y-60647759D01*
X149600241Y-60496284D01*
X149422124Y-60377270D01*
X149224212Y-60295292D01*
X149014109Y-60253500D01*
X148799891Y-60253500D01*
X148589788Y-60295292D01*
X148391876Y-60377270D01*
X148213759Y-60496284D01*
X148062284Y-60647759D01*
X147943270Y-60825876D01*
X147907000Y-60913439D01*
X147870730Y-60825876D01*
X147751716Y-60647759D01*
X147600241Y-60496284D01*
X147422124Y-60377270D01*
X147224212Y-60295292D01*
X147014109Y-60253500D01*
X146799891Y-60253500D01*
X146589788Y-60295292D01*
X146391876Y-60377270D01*
X146213759Y-60496284D01*
X146062284Y-60647759D01*
X145943270Y-60825876D01*
X145907000Y-60913439D01*
X145870730Y-60825876D01*
X145751716Y-60647759D01*
X145600241Y-60496284D01*
X145422124Y-60377270D01*
X145224212Y-60295292D01*
X145014109Y-60253500D01*
X144799891Y-60253500D01*
X144589788Y-60295292D01*
X144391876Y-60377270D01*
X144213759Y-60496284D01*
X144062284Y-60647759D01*
X143943270Y-60825876D01*
X143907000Y-60913439D01*
X143870730Y-60825876D01*
X143751716Y-60647759D01*
X143600241Y-60496284D01*
X143422124Y-60377270D01*
X143224212Y-60295292D01*
X143014109Y-60253500D01*
X142799891Y-60253500D01*
X142589788Y-60295292D01*
X142391876Y-60377270D01*
X142213759Y-60496284D01*
X142062284Y-60647759D01*
X141943270Y-60825876D01*
X141907000Y-60913439D01*
X141870730Y-60825876D01*
X141751716Y-60647759D01*
X141600241Y-60496284D01*
X141422124Y-60377270D01*
X141224212Y-60295292D01*
X141014109Y-60253500D01*
X140799891Y-60253500D01*
X140589788Y-60295292D01*
X140391876Y-60377270D01*
X140213759Y-60496284D01*
X140062284Y-60647759D01*
X139943270Y-60825876D01*
X139907000Y-60913439D01*
X139870730Y-60825876D01*
X139751716Y-60647759D01*
X139600241Y-60496284D01*
X139422124Y-60377270D01*
X139224212Y-60295292D01*
X139014109Y-60253500D01*
X138799891Y-60253500D01*
X138589788Y-60295292D01*
X138391876Y-60377270D01*
X138213759Y-60496284D01*
X138062284Y-60647759D01*
X137943270Y-60825876D01*
X137907000Y-60913439D01*
X137870730Y-60825876D01*
X137751716Y-60647759D01*
X137600241Y-60496284D01*
X137422124Y-60377270D01*
X137224212Y-60295292D01*
X137014109Y-60253500D01*
X136799891Y-60253500D01*
X136589788Y-60295292D01*
X136391876Y-60377270D01*
X136213759Y-60496284D01*
X136062284Y-60647759D01*
X136014968Y-60718572D01*
X135443829Y-60147433D01*
X135429737Y-60130263D01*
X135361216Y-60074029D01*
X135283041Y-60032243D01*
X135198215Y-60006511D01*
X135132105Y-60000000D01*
X135132094Y-60000000D01*
X135110000Y-59997824D01*
X135087906Y-60000000D01*
X132010000Y-60000000D01*
X132010000Y-59890905D01*
X131986942Y-59774986D01*
X131941713Y-59665793D01*
X131876050Y-59567522D01*
X131792478Y-59483950D01*
X131694207Y-59418287D01*
X131585014Y-59373058D01*
X131469095Y-59350000D01*
X131350905Y-59350000D01*
X131234986Y-59373058D01*
X131125793Y-59418287D01*
X131027522Y-59483950D01*
X130943950Y-59567522D01*
X130878287Y-59665793D01*
X130833058Y-59774986D01*
X130810000Y-59890905D01*
X130810000Y-60009095D01*
X130833058Y-60125014D01*
X130860000Y-60190058D01*
X130860000Y-60263604D01*
X130285000Y-60838605D01*
X130285000Y-59805329D01*
X131315330Y-58775000D01*
X160504671Y-58775000D01*
X161535001Y-59805331D01*
M02*
