G04 #@! TF.GenerationSoftware,KiCad,Pcbnew,(2018-01-07 revision 47989ccfc)-makepkg*
G04 #@! TF.CreationDate,2018-01-22T20:28:46+10:30*
G04 #@! TF.ProjectId,din_meter_atm90e26,64696E5F6D657465725F61746D393065,rev?*
G04 #@! TF.SameCoordinates,Original*
G04 #@! TF.FileFunction,Legend,Bot*
G04 #@! TF.FilePolarity,Positive*
%FSLAX46Y46*%
G04 Gerber Fmt 4.6, Leading zero omitted, Abs format (unit mm)*
G04 Created by KiCad (PCBNEW (2018-01-07 revision 47989ccfc)-makepkg) date 01/22/18 20:28:46*
%MOMM*%
%LPD*%
G01*
G04 APERTURE LIST*
%ADD10C,0.150000*%
%ADD11C,0.381000*%
%ADD12C,0.010000*%
%ADD13C,0.120000*%
%ADD14C,0.200000*%
%ADD15C,0.125000*%
G04 APERTURE END LIST*
D10*
X145655571Y-76921571D02*
X146255571Y-76921571D01*
X146255571Y-76778714D01*
X146227000Y-76693000D01*
X146169857Y-76635857D01*
X146112714Y-76607285D01*
X145998428Y-76578714D01*
X145912714Y-76578714D01*
X145798428Y-76607285D01*
X145741285Y-76635857D01*
X145684142Y-76693000D01*
X145655571Y-76778714D01*
X145655571Y-76921571D01*
X146055571Y-76064428D02*
X145655571Y-76064428D01*
X146055571Y-76321571D02*
X145741285Y-76321571D01*
X145684142Y-76293000D01*
X145655571Y-76235857D01*
X145655571Y-76150142D01*
X145684142Y-76093000D01*
X145712714Y-76064428D01*
X145655571Y-75521571D02*
X145969857Y-75521571D01*
X146027000Y-75550142D01*
X146055571Y-75607285D01*
X146055571Y-75721571D01*
X146027000Y-75778714D01*
X145684142Y-75521571D02*
X145655571Y-75578714D01*
X145655571Y-75721571D01*
X145684142Y-75778714D01*
X145741285Y-75807285D01*
X145798428Y-75807285D01*
X145855571Y-75778714D01*
X145884142Y-75721571D01*
X145884142Y-75578714D01*
X145912714Y-75521571D01*
X145655571Y-75150142D02*
X145684142Y-75207285D01*
X145741285Y-75235857D01*
X146255571Y-75235857D01*
X145827000Y-74493000D02*
X145827000Y-74207285D01*
X145655571Y-74550142D02*
X146255571Y-74350142D01*
X145655571Y-74150142D01*
X146255571Y-74035857D02*
X146255571Y-73693000D01*
X145655571Y-73864428D02*
X146255571Y-73864428D01*
X145655571Y-73493000D02*
X146255571Y-73493000D01*
X145827000Y-73293000D01*
X146255571Y-73093000D01*
X145655571Y-73093000D01*
X145655571Y-72778714D02*
X145655571Y-72664428D01*
X145684142Y-72607285D01*
X145712714Y-72578714D01*
X145798428Y-72521571D01*
X145912714Y-72493000D01*
X146141285Y-72493000D01*
X146198428Y-72521571D01*
X146227000Y-72550142D01*
X146255571Y-72607285D01*
X146255571Y-72721571D01*
X146227000Y-72778714D01*
X146198428Y-72807285D01*
X146141285Y-72835857D01*
X145998428Y-72835857D01*
X145941285Y-72807285D01*
X145912714Y-72778714D01*
X145884142Y-72721571D01*
X145884142Y-72607285D01*
X145912714Y-72550142D01*
X145941285Y-72521571D01*
X145998428Y-72493000D01*
X146255571Y-72121571D02*
X146255571Y-72064428D01*
X146227000Y-72007285D01*
X146198428Y-71978714D01*
X146141285Y-71950142D01*
X146027000Y-71921571D01*
X145884142Y-71921571D01*
X145769857Y-71950142D01*
X145712714Y-71978714D01*
X145684142Y-72007285D01*
X145655571Y-72064428D01*
X145655571Y-72121571D01*
X145684142Y-72178714D01*
X145712714Y-72207285D01*
X145769857Y-72235857D01*
X145884142Y-72264428D01*
X146027000Y-72264428D01*
X146141285Y-72235857D01*
X146198428Y-72207285D01*
X146227000Y-72178714D01*
X146255571Y-72121571D01*
X145969857Y-71664428D02*
X145969857Y-71464428D01*
X145655571Y-71378714D02*
X145655571Y-71664428D01*
X146255571Y-71664428D01*
X146255571Y-71378714D01*
X146198428Y-71150142D02*
X146227000Y-71121571D01*
X146255571Y-71064428D01*
X146255571Y-70921571D01*
X146227000Y-70864428D01*
X146198428Y-70835857D01*
X146141285Y-70807285D01*
X146084142Y-70807285D01*
X145998428Y-70835857D01*
X145655571Y-71178714D01*
X145655571Y-70807285D01*
X146255571Y-70293000D02*
X146255571Y-70407285D01*
X146227000Y-70464428D01*
X146198428Y-70493000D01*
X146112714Y-70550142D01*
X145998428Y-70578714D01*
X145769857Y-70578714D01*
X145712714Y-70550142D01*
X145684142Y-70521571D01*
X145655571Y-70464428D01*
X145655571Y-70350142D01*
X145684142Y-70293000D01*
X145712714Y-70264428D01*
X145769857Y-70235857D01*
X145912714Y-70235857D01*
X145969857Y-70264428D01*
X145998428Y-70293000D01*
X146027000Y-70350142D01*
X146027000Y-70464428D01*
X145998428Y-70521571D01*
X145969857Y-70550142D01*
X145912714Y-70578714D01*
X145655571Y-69521571D02*
X146255571Y-69521571D01*
X145827000Y-69321571D01*
X146255571Y-69121571D01*
X145655571Y-69121571D01*
X145684142Y-68607285D02*
X145655571Y-68664428D01*
X145655571Y-68778714D01*
X145684142Y-68835857D01*
X145741285Y-68864428D01*
X145969857Y-68864428D01*
X146027000Y-68835857D01*
X146055571Y-68778714D01*
X146055571Y-68664428D01*
X146027000Y-68607285D01*
X145969857Y-68578714D01*
X145912714Y-68578714D01*
X145855571Y-68864428D01*
X146055571Y-68407285D02*
X146055571Y-68178714D01*
X146255571Y-68321571D02*
X145741285Y-68321571D01*
X145684142Y-68293000D01*
X145655571Y-68235857D01*
X145655571Y-68178714D01*
X145684142Y-67750142D02*
X145655571Y-67807285D01*
X145655571Y-67921571D01*
X145684142Y-67978714D01*
X145741285Y-68007285D01*
X145969857Y-68007285D01*
X146027000Y-67978714D01*
X146055571Y-67921571D01*
X146055571Y-67807285D01*
X146027000Y-67750142D01*
X145969857Y-67721571D01*
X145912714Y-67721571D01*
X145855571Y-68007285D01*
X145655571Y-67464428D02*
X146055571Y-67464428D01*
X145941285Y-67464428D02*
X145998428Y-67435857D01*
X146027000Y-67407285D01*
X146055571Y-67350142D01*
X146055571Y-67293000D01*
X145655571Y-67093000D02*
X146055571Y-67093000D01*
X146255571Y-67093000D02*
X146227000Y-67121571D01*
X146198428Y-67093000D01*
X146227000Y-67064428D01*
X146255571Y-67093000D01*
X146198428Y-67093000D01*
X146055571Y-66807285D02*
X145655571Y-66807285D01*
X145998428Y-66807285D02*
X146027000Y-66778714D01*
X146055571Y-66721571D01*
X146055571Y-66635857D01*
X146027000Y-66578714D01*
X145969857Y-66550142D01*
X145655571Y-66550142D01*
X146055571Y-66007285D02*
X145569857Y-66007285D01*
X145512714Y-66035857D01*
X145484142Y-66064428D01*
X145455571Y-66121571D01*
X145455571Y-66207285D01*
X145484142Y-66264428D01*
X145684142Y-66007285D02*
X145655571Y-66064428D01*
X145655571Y-66178714D01*
X145684142Y-66235857D01*
X145712714Y-66264428D01*
X145769857Y-66293000D01*
X145941285Y-66293000D01*
X145998428Y-66264428D01*
X146027000Y-66235857D01*
X146055571Y-66178714D01*
X146055571Y-66064428D01*
X146027000Y-66007285D01*
X146055571Y-65321571D02*
X145655571Y-65178714D01*
X146055571Y-65035857D01*
X145655571Y-64493000D02*
X145655571Y-64835857D01*
X145655571Y-64664428D02*
X146255571Y-64664428D01*
X146169857Y-64721571D01*
X146112714Y-64778714D01*
X146084142Y-64835857D01*
X145712714Y-64235857D02*
X145684142Y-64207285D01*
X145655571Y-64235857D01*
X145684142Y-64264428D01*
X145712714Y-64235857D01*
X145655571Y-64235857D01*
X146255571Y-64007285D02*
X146255571Y-63635857D01*
X146027000Y-63835857D01*
X146027000Y-63750142D01*
X145998428Y-63693000D01*
X145969857Y-63664428D01*
X145912714Y-63635857D01*
X145769857Y-63635857D01*
X145712714Y-63664428D01*
X145684142Y-63693000D01*
X145655571Y-63750142D01*
X145655571Y-63921571D01*
X145684142Y-63978714D01*
X145712714Y-64007285D01*
X145148428Y-73093000D02*
X145177000Y-73064428D01*
X145205571Y-73007285D01*
X145205571Y-72864428D01*
X145177000Y-72807285D01*
X145148428Y-72778714D01*
X145091285Y-72750142D01*
X145034142Y-72750142D01*
X144948428Y-72778714D01*
X144605571Y-73121571D01*
X144605571Y-72750142D01*
X145148428Y-72521571D02*
X145177000Y-72493000D01*
X145205571Y-72435857D01*
X145205571Y-72293000D01*
X145177000Y-72235857D01*
X145148428Y-72207285D01*
X145091285Y-72178714D01*
X145034142Y-72178714D01*
X144948428Y-72207285D01*
X144605571Y-72550142D01*
X144605571Y-72178714D01*
X145234142Y-71493000D02*
X144462714Y-72007285D01*
X145205571Y-71178714D02*
X145205571Y-71121571D01*
X145177000Y-71064428D01*
X145148428Y-71035857D01*
X145091285Y-71007285D01*
X144977000Y-70978714D01*
X144834142Y-70978714D01*
X144719857Y-71007285D01*
X144662714Y-71035857D01*
X144634142Y-71064428D01*
X144605571Y-71121571D01*
X144605571Y-71178714D01*
X144634142Y-71235857D01*
X144662714Y-71264428D01*
X144719857Y-71293000D01*
X144834142Y-71321571D01*
X144977000Y-71321571D01*
X145091285Y-71293000D01*
X145148428Y-71264428D01*
X145177000Y-71235857D01*
X145205571Y-71178714D01*
X144605571Y-70407285D02*
X144605571Y-70750142D01*
X144605571Y-70578714D02*
X145205571Y-70578714D01*
X145119857Y-70635857D01*
X145062714Y-70693000D01*
X145034142Y-70750142D01*
X145234142Y-69721571D02*
X144462714Y-70235857D01*
X145148428Y-69550142D02*
X145177000Y-69521571D01*
X145205571Y-69464428D01*
X145205571Y-69321571D01*
X145177000Y-69264428D01*
X145148428Y-69235857D01*
X145091285Y-69207285D01*
X145034142Y-69207285D01*
X144948428Y-69235857D01*
X144605571Y-69578714D01*
X144605571Y-69207285D01*
X145205571Y-68835857D02*
X145205571Y-68778714D01*
X145177000Y-68721571D01*
X145148428Y-68693000D01*
X145091285Y-68664428D01*
X144977000Y-68635857D01*
X144834142Y-68635857D01*
X144719857Y-68664428D01*
X144662714Y-68693000D01*
X144634142Y-68721571D01*
X144605571Y-68778714D01*
X144605571Y-68835857D01*
X144634142Y-68893000D01*
X144662714Y-68921571D01*
X144719857Y-68950142D01*
X144834142Y-68978714D01*
X144977000Y-68978714D01*
X145091285Y-68950142D01*
X145148428Y-68921571D01*
X145177000Y-68893000D01*
X145205571Y-68835857D01*
X144605571Y-68064428D02*
X144605571Y-68407285D01*
X144605571Y-68235857D02*
X145205571Y-68235857D01*
X145119857Y-68293000D01*
X145062714Y-68350142D01*
X145034142Y-68407285D01*
X144948428Y-67721571D02*
X144977000Y-67778714D01*
X145005571Y-67807285D01*
X145062714Y-67835857D01*
X145091285Y-67835857D01*
X145148428Y-67807285D01*
X145177000Y-67778714D01*
X145205571Y-67721571D01*
X145205571Y-67607285D01*
X145177000Y-67550142D01*
X145148428Y-67521571D01*
X145091285Y-67493000D01*
X145062714Y-67493000D01*
X145005571Y-67521571D01*
X144977000Y-67550142D01*
X144948428Y-67607285D01*
X144948428Y-67721571D01*
X144919857Y-67778714D01*
X144891285Y-67807285D01*
X144834142Y-67835857D01*
X144719857Y-67835857D01*
X144662714Y-67807285D01*
X144634142Y-67778714D01*
X144605571Y-67721571D01*
X144605571Y-67607285D01*
X144634142Y-67550142D01*
X144662714Y-67521571D01*
X144719857Y-67493000D01*
X144834142Y-67493000D01*
X144891285Y-67521571D01*
X144919857Y-67550142D01*
X144948428Y-67607285D01*
D11*
X161277000Y-65594000D02*
X154292000Y-70293000D01*
X161277000Y-74992000D02*
X161277000Y-65594000D01*
X154292000Y-70293000D02*
X161277000Y-74992000D01*
X160682640Y-69795160D02*
X159783480Y-69693560D01*
X157883560Y-70592720D02*
X160682640Y-69795160D01*
X158683660Y-69393840D02*
X157883560Y-70592720D01*
X155683920Y-70193940D02*
X158683660Y-69393840D01*
X160682640Y-69795160D02*
X159984140Y-70394600D01*
X158683660Y-69393840D02*
X155882040Y-70694320D01*
X157583840Y-70994040D02*
X157982620Y-70394600D01*
X160682640Y-69795160D02*
X157583840Y-70994040D01*
D12*
G36*
X136094652Y-69554090D02*
X136094222Y-69475546D01*
X136093058Y-69418702D01*
X136090793Y-69379895D01*
X136087060Y-69355462D01*
X136081494Y-69341738D01*
X136073727Y-69335060D01*
X136063395Y-69331764D01*
X136062057Y-69331444D01*
X136037921Y-69326438D01*
X135990299Y-69317171D01*
X135924259Y-69304608D01*
X135844872Y-69289713D01*
X135757204Y-69273449D01*
X135754125Y-69272881D01*
X135668211Y-69256590D01*
X135592304Y-69241348D01*
X135530955Y-69228139D01*
X135488718Y-69217946D01*
X135470145Y-69211752D01*
X135469816Y-69211457D01*
X135460747Y-69193212D01*
X135445633Y-69155595D01*
X135427738Y-69106729D01*
X135427642Y-69106457D01*
X135404507Y-69044907D01*
X135375035Y-68972343D01*
X135345403Y-68903943D01*
X135343938Y-68900706D01*
X135293374Y-68789298D01*
X135461840Y-68542601D01*
X135513197Y-68466923D01*
X135559111Y-68398369D01*
X135596970Y-68340912D01*
X135624163Y-68298524D01*
X135638079Y-68275175D01*
X135639111Y-68272958D01*
X135634516Y-68255990D01*
X135612345Y-68224299D01*
X135571553Y-68176648D01*
X135511095Y-68111802D01*
X135446773Y-68045603D01*
X135383388Y-67981786D01*
X135325549Y-67924671D01*
X135276825Y-67877695D01*
X135240790Y-67844297D01*
X135221016Y-67827915D01*
X135219998Y-67827306D01*
X135206428Y-67825495D01*
X135184267Y-67832317D01*
X135150522Y-67849460D01*
X135102200Y-67878607D01*
X135036308Y-67921445D01*
X134951483Y-67978552D01*
X134876823Y-68029234D01*
X134809860Y-68074539D01*
X134754484Y-68111850D01*
X134714580Y-68138548D01*
X134694038Y-68152015D01*
X134692644Y-68152863D01*
X134672962Y-68151219D01*
X134634707Y-68138755D01*
X134585111Y-68117952D01*
X134569272Y-68110538D01*
X134498710Y-68078186D01*
X134418647Y-68043672D01*
X134349371Y-68015635D01*
X134297955Y-67995432D01*
X134258881Y-67979385D01*
X134238459Y-67970112D01*
X134236886Y-67968959D01*
X134234279Y-67951904D01*
X134227137Y-67911702D01*
X134216477Y-67853698D01*
X134203315Y-67783237D01*
X134188667Y-67705665D01*
X134173551Y-67626328D01*
X134158982Y-67550569D01*
X134145978Y-67483736D01*
X134135555Y-67431172D01*
X134128730Y-67398224D01*
X134126801Y-67390143D01*
X134122038Y-67381795D01*
X134111282Y-67375494D01*
X134090902Y-67370955D01*
X134057266Y-67367896D01*
X134006745Y-67366033D01*
X133935708Y-67365082D01*
X133840524Y-67364760D01*
X133801508Y-67364743D01*
X133484201Y-67364743D01*
X133469161Y-67440943D01*
X133461005Y-67483337D01*
X133449101Y-67546600D01*
X133434884Y-67623038D01*
X133419790Y-67704957D01*
X133415645Y-67727600D01*
X133400947Y-67803194D01*
X133386495Y-67869047D01*
X133373625Y-67919634D01*
X133363678Y-67949426D01*
X133360713Y-67954388D01*
X133339717Y-67966574D01*
X133299033Y-67984047D01*
X133246678Y-68003423D01*
X133235400Y-68007266D01*
X133165477Y-68032661D01*
X133086582Y-68064183D01*
X133015734Y-68095031D01*
X133015405Y-68095183D01*
X132904267Y-68146553D01*
X132655747Y-67977601D01*
X132407228Y-67808648D01*
X132189942Y-68025571D01*
X132125274Y-68091181D01*
X132068267Y-68151021D01*
X132021967Y-68201733D01*
X131989416Y-68239954D01*
X131973657Y-68262325D01*
X131972657Y-68265534D01*
X131980531Y-68284374D01*
X132002422Y-68322820D01*
X132035733Y-68376670D01*
X132077869Y-68441724D01*
X132125057Y-68512060D01*
X132173190Y-68583445D01*
X132215072Y-68647092D01*
X132248129Y-68698959D01*
X132269782Y-68735005D01*
X132277457Y-68751133D01*
X132270963Y-68770811D01*
X132253850Y-68808125D01*
X132229674Y-68855379D01*
X132226987Y-68860388D01*
X132195073Y-68924023D01*
X132179421Y-68967659D01*
X132179255Y-68994798D01*
X132193796Y-69008943D01*
X132194000Y-69009025D01*
X132211221Y-69016095D01*
X132252101Y-69032958D01*
X132313475Y-69058305D01*
X132392181Y-69090829D01*
X132485053Y-69129222D01*
X132588928Y-69172178D01*
X132689498Y-69213778D01*
X132800484Y-69259496D01*
X132903297Y-69301474D01*
X132994785Y-69338452D01*
X133071799Y-69369173D01*
X133131185Y-69392378D01*
X133169791Y-69406810D01*
X133184200Y-69411257D01*
X133200728Y-69400104D01*
X133227070Y-69370931D01*
X133256113Y-69332029D01*
X133347961Y-69221243D01*
X133453241Y-69134649D01*
X133569734Y-69073284D01*
X133695224Y-69038185D01*
X133827493Y-69030392D01*
X133888543Y-69036057D01*
X134015205Y-69066922D01*
X134127059Y-69120080D01*
X134222999Y-69192233D01*
X134301924Y-69280083D01*
X134362730Y-69380335D01*
X134404313Y-69489690D01*
X134425572Y-69604853D01*
X134425401Y-69722525D01*
X134402699Y-69839410D01*
X134356362Y-69952211D01*
X134285287Y-70057631D01*
X134245089Y-70101632D01*
X134141871Y-70186021D01*
X134029075Y-70244778D01*
X133909990Y-70278296D01*
X133787905Y-70286965D01*
X133666107Y-70271177D01*
X133547884Y-70231322D01*
X133436525Y-70167793D01*
X133335316Y-70080979D01*
X133256113Y-69983971D01*
X133225838Y-69943563D01*
X133199781Y-69915018D01*
X133184175Y-69904743D01*
X133167157Y-69910123D01*
X133126500Y-69925425D01*
X133065358Y-69949388D01*
X132986881Y-69980756D01*
X132894220Y-70018268D01*
X132790528Y-70060667D01*
X132689474Y-70102337D01*
X132578393Y-70148310D01*
X132475459Y-70190893D01*
X132383835Y-70228779D01*
X132306684Y-70260660D01*
X132247169Y-70285229D01*
X132208456Y-70301180D01*
X132194000Y-70307090D01*
X132179315Y-70321052D01*
X132179358Y-70348060D01*
X132194901Y-70391587D01*
X132226716Y-70455110D01*
X132226987Y-70455612D01*
X132251677Y-70503440D01*
X132269662Y-70542103D01*
X132277386Y-70563905D01*
X132277457Y-70564867D01*
X132269622Y-70581279D01*
X132247835Y-70617513D01*
X132214672Y-70669526D01*
X132172709Y-70733275D01*
X132125057Y-70803940D01*
X132076809Y-70875884D01*
X132034849Y-70940726D01*
X132001773Y-70994265D01*
X131980179Y-71032303D01*
X131972657Y-71050467D01*
X131982543Y-71067192D01*
X132010174Y-71100820D01*
X132052505Y-71147990D01*
X132106495Y-71205342D01*
X132169101Y-71269516D01*
X132190017Y-71290503D01*
X132407377Y-71507501D01*
X132649780Y-71342332D01*
X132724219Y-71292136D01*
X132791028Y-71248081D01*
X132846335Y-71212638D01*
X132886271Y-71188281D01*
X132906964Y-71177478D01*
X132908437Y-71177162D01*
X132927942Y-71182857D01*
X132967178Y-71198174D01*
X133019570Y-71220463D01*
X133054645Y-71236107D01*
X133121799Y-71265359D01*
X133189642Y-71292906D01*
X133246966Y-71314263D01*
X133264428Y-71320065D01*
X133311062Y-71336548D01*
X133347095Y-71352660D01*
X133360713Y-71361510D01*
X133369048Y-71381040D01*
X133380863Y-71423666D01*
X133394819Y-71483855D01*
X133409578Y-71556078D01*
X133415645Y-71588400D01*
X133430727Y-71670478D01*
X133445331Y-71749205D01*
X133458020Y-71816891D01*
X133467358Y-71865840D01*
X133469161Y-71875057D01*
X133484201Y-71951257D01*
X133801508Y-71951257D01*
X133905846Y-71951086D01*
X133984787Y-71950384D01*
X134041962Y-71948866D01*
X134081001Y-71946251D01*
X134105535Y-71942254D01*
X134119195Y-71936591D01*
X134125611Y-71928980D01*
X134126801Y-71925857D01*
X134131020Y-71907022D01*
X134139438Y-71865412D01*
X134151039Y-71806370D01*
X134164805Y-71735243D01*
X134179720Y-71657375D01*
X134194768Y-71578113D01*
X134208931Y-71502802D01*
X134221194Y-71436787D01*
X134230539Y-71385413D01*
X134235950Y-71354025D01*
X134236886Y-71347041D01*
X134249404Y-71340715D01*
X134282754Y-71326710D01*
X134330623Y-71307645D01*
X134349371Y-71300366D01*
X134421805Y-71271004D01*
X134501830Y-71236429D01*
X134569272Y-71205463D01*
X134620841Y-71182677D01*
X134663215Y-71167518D01*
X134689166Y-71162458D01*
X134692644Y-71163264D01*
X134709064Y-71173959D01*
X134745583Y-71198380D01*
X134798313Y-71233905D01*
X134863365Y-71277913D01*
X134936849Y-71327783D01*
X134951355Y-71337644D01*
X135037296Y-71395508D01*
X135102739Y-71438044D01*
X135150696Y-71466946D01*
X135184180Y-71483910D01*
X135206205Y-71490633D01*
X135219783Y-71488810D01*
X135219869Y-71488764D01*
X135237703Y-71474414D01*
X135272183Y-71442677D01*
X135319732Y-71396990D01*
X135376778Y-71340796D01*
X135439745Y-71277532D01*
X135446773Y-71270398D01*
X135523980Y-71190670D01*
X135580670Y-71129143D01*
X135617890Y-71084579D01*
X135636685Y-71055743D01*
X135639111Y-71043042D01*
X135628529Y-71024506D01*
X135604084Y-70986039D01*
X135568388Y-70931614D01*
X135524053Y-70865202D01*
X135473689Y-70790775D01*
X135461840Y-70773399D01*
X135293374Y-70526703D01*
X135343938Y-70415294D01*
X135373405Y-70347543D01*
X135403041Y-70274817D01*
X135426670Y-70212297D01*
X135427642Y-70209543D01*
X135445543Y-70160640D01*
X135460680Y-70122943D01*
X135469790Y-70104575D01*
X135469816Y-70104544D01*
X135486283Y-70098715D01*
X135526781Y-70088808D01*
X135586758Y-70075805D01*
X135661660Y-70060691D01*
X135746936Y-70044448D01*
X135754125Y-70043119D01*
X135841986Y-70026825D01*
X135921740Y-70011867D01*
X135988319Y-69999209D01*
X136036653Y-69989814D01*
X136061675Y-69984646D01*
X136062057Y-69984556D01*
X136072701Y-69981411D01*
X136080738Y-69975296D01*
X136086533Y-69962547D01*
X136090453Y-69939500D01*
X136092865Y-69902491D01*
X136094135Y-69847856D01*
X136094629Y-69771933D01*
X136094714Y-69671056D01*
X136094714Y-69658000D01*
X136094652Y-69554090D01*
X136094652Y-69554090D01*
G37*
X136094652Y-69554090D02*
X136094222Y-69475546D01*
X136093058Y-69418702D01*
X136090793Y-69379895D01*
X136087060Y-69355462D01*
X136081494Y-69341738D01*
X136073727Y-69335060D01*
X136063395Y-69331764D01*
X136062057Y-69331444D01*
X136037921Y-69326438D01*
X135990299Y-69317171D01*
X135924259Y-69304608D01*
X135844872Y-69289713D01*
X135757204Y-69273449D01*
X135754125Y-69272881D01*
X135668211Y-69256590D01*
X135592304Y-69241348D01*
X135530955Y-69228139D01*
X135488718Y-69217946D01*
X135470145Y-69211752D01*
X135469816Y-69211457D01*
X135460747Y-69193212D01*
X135445633Y-69155595D01*
X135427738Y-69106729D01*
X135427642Y-69106457D01*
X135404507Y-69044907D01*
X135375035Y-68972343D01*
X135345403Y-68903943D01*
X135343938Y-68900706D01*
X135293374Y-68789298D01*
X135461840Y-68542601D01*
X135513197Y-68466923D01*
X135559111Y-68398369D01*
X135596970Y-68340912D01*
X135624163Y-68298524D01*
X135638079Y-68275175D01*
X135639111Y-68272958D01*
X135634516Y-68255990D01*
X135612345Y-68224299D01*
X135571553Y-68176648D01*
X135511095Y-68111802D01*
X135446773Y-68045603D01*
X135383388Y-67981786D01*
X135325549Y-67924671D01*
X135276825Y-67877695D01*
X135240790Y-67844297D01*
X135221016Y-67827915D01*
X135219998Y-67827306D01*
X135206428Y-67825495D01*
X135184267Y-67832317D01*
X135150522Y-67849460D01*
X135102200Y-67878607D01*
X135036308Y-67921445D01*
X134951483Y-67978552D01*
X134876823Y-68029234D01*
X134809860Y-68074539D01*
X134754484Y-68111850D01*
X134714580Y-68138548D01*
X134694038Y-68152015D01*
X134692644Y-68152863D01*
X134672962Y-68151219D01*
X134634707Y-68138755D01*
X134585111Y-68117952D01*
X134569272Y-68110538D01*
X134498710Y-68078186D01*
X134418647Y-68043672D01*
X134349371Y-68015635D01*
X134297955Y-67995432D01*
X134258881Y-67979385D01*
X134238459Y-67970112D01*
X134236886Y-67968959D01*
X134234279Y-67951904D01*
X134227137Y-67911702D01*
X134216477Y-67853698D01*
X134203315Y-67783237D01*
X134188667Y-67705665D01*
X134173551Y-67626328D01*
X134158982Y-67550569D01*
X134145978Y-67483736D01*
X134135555Y-67431172D01*
X134128730Y-67398224D01*
X134126801Y-67390143D01*
X134122038Y-67381795D01*
X134111282Y-67375494D01*
X134090902Y-67370955D01*
X134057266Y-67367896D01*
X134006745Y-67366033D01*
X133935708Y-67365082D01*
X133840524Y-67364760D01*
X133801508Y-67364743D01*
X133484201Y-67364743D01*
X133469161Y-67440943D01*
X133461005Y-67483337D01*
X133449101Y-67546600D01*
X133434884Y-67623038D01*
X133419790Y-67704957D01*
X133415645Y-67727600D01*
X133400947Y-67803194D01*
X133386495Y-67869047D01*
X133373625Y-67919634D01*
X133363678Y-67949426D01*
X133360713Y-67954388D01*
X133339717Y-67966574D01*
X133299033Y-67984047D01*
X133246678Y-68003423D01*
X133235400Y-68007266D01*
X133165477Y-68032661D01*
X133086582Y-68064183D01*
X133015734Y-68095031D01*
X133015405Y-68095183D01*
X132904267Y-68146553D01*
X132655747Y-67977601D01*
X132407228Y-67808648D01*
X132189942Y-68025571D01*
X132125274Y-68091181D01*
X132068267Y-68151021D01*
X132021967Y-68201733D01*
X131989416Y-68239954D01*
X131973657Y-68262325D01*
X131972657Y-68265534D01*
X131980531Y-68284374D01*
X132002422Y-68322820D01*
X132035733Y-68376670D01*
X132077869Y-68441724D01*
X132125057Y-68512060D01*
X132173190Y-68583445D01*
X132215072Y-68647092D01*
X132248129Y-68698959D01*
X132269782Y-68735005D01*
X132277457Y-68751133D01*
X132270963Y-68770811D01*
X132253850Y-68808125D01*
X132229674Y-68855379D01*
X132226987Y-68860388D01*
X132195073Y-68924023D01*
X132179421Y-68967659D01*
X132179255Y-68994798D01*
X132193796Y-69008943D01*
X132194000Y-69009025D01*
X132211221Y-69016095D01*
X132252101Y-69032958D01*
X132313475Y-69058305D01*
X132392181Y-69090829D01*
X132485053Y-69129222D01*
X132588928Y-69172178D01*
X132689498Y-69213778D01*
X132800484Y-69259496D01*
X132903297Y-69301474D01*
X132994785Y-69338452D01*
X133071799Y-69369173D01*
X133131185Y-69392378D01*
X133169791Y-69406810D01*
X133184200Y-69411257D01*
X133200728Y-69400104D01*
X133227070Y-69370931D01*
X133256113Y-69332029D01*
X133347961Y-69221243D01*
X133453241Y-69134649D01*
X133569734Y-69073284D01*
X133695224Y-69038185D01*
X133827493Y-69030392D01*
X133888543Y-69036057D01*
X134015205Y-69066922D01*
X134127059Y-69120080D01*
X134222999Y-69192233D01*
X134301924Y-69280083D01*
X134362730Y-69380335D01*
X134404313Y-69489690D01*
X134425572Y-69604853D01*
X134425401Y-69722525D01*
X134402699Y-69839410D01*
X134356362Y-69952211D01*
X134285287Y-70057631D01*
X134245089Y-70101632D01*
X134141871Y-70186021D01*
X134029075Y-70244778D01*
X133909990Y-70278296D01*
X133787905Y-70286965D01*
X133666107Y-70271177D01*
X133547884Y-70231322D01*
X133436525Y-70167793D01*
X133335316Y-70080979D01*
X133256113Y-69983971D01*
X133225838Y-69943563D01*
X133199781Y-69915018D01*
X133184175Y-69904743D01*
X133167157Y-69910123D01*
X133126500Y-69925425D01*
X133065358Y-69949388D01*
X132986881Y-69980756D01*
X132894220Y-70018268D01*
X132790528Y-70060667D01*
X132689474Y-70102337D01*
X132578393Y-70148310D01*
X132475459Y-70190893D01*
X132383835Y-70228779D01*
X132306684Y-70260660D01*
X132247169Y-70285229D01*
X132208456Y-70301180D01*
X132194000Y-70307090D01*
X132179315Y-70321052D01*
X132179358Y-70348060D01*
X132194901Y-70391587D01*
X132226716Y-70455110D01*
X132226987Y-70455612D01*
X132251677Y-70503440D01*
X132269662Y-70542103D01*
X132277386Y-70563905D01*
X132277457Y-70564867D01*
X132269622Y-70581279D01*
X132247835Y-70617513D01*
X132214672Y-70669526D01*
X132172709Y-70733275D01*
X132125057Y-70803940D01*
X132076809Y-70875884D01*
X132034849Y-70940726D01*
X132001773Y-70994265D01*
X131980179Y-71032303D01*
X131972657Y-71050467D01*
X131982543Y-71067192D01*
X132010174Y-71100820D01*
X132052505Y-71147990D01*
X132106495Y-71205342D01*
X132169101Y-71269516D01*
X132190017Y-71290503D01*
X132407377Y-71507501D01*
X132649780Y-71342332D01*
X132724219Y-71292136D01*
X132791028Y-71248081D01*
X132846335Y-71212638D01*
X132886271Y-71188281D01*
X132906964Y-71177478D01*
X132908437Y-71177162D01*
X132927942Y-71182857D01*
X132967178Y-71198174D01*
X133019570Y-71220463D01*
X133054645Y-71236107D01*
X133121799Y-71265359D01*
X133189642Y-71292906D01*
X133246966Y-71314263D01*
X133264428Y-71320065D01*
X133311062Y-71336548D01*
X133347095Y-71352660D01*
X133360713Y-71361510D01*
X133369048Y-71381040D01*
X133380863Y-71423666D01*
X133394819Y-71483855D01*
X133409578Y-71556078D01*
X133415645Y-71588400D01*
X133430727Y-71670478D01*
X133445331Y-71749205D01*
X133458020Y-71816891D01*
X133467358Y-71865840D01*
X133469161Y-71875057D01*
X133484201Y-71951257D01*
X133801508Y-71951257D01*
X133905846Y-71951086D01*
X133984787Y-71950384D01*
X134041962Y-71948866D01*
X134081001Y-71946251D01*
X134105535Y-71942254D01*
X134119195Y-71936591D01*
X134125611Y-71928980D01*
X134126801Y-71925857D01*
X134131020Y-71907022D01*
X134139438Y-71865412D01*
X134151039Y-71806370D01*
X134164805Y-71735243D01*
X134179720Y-71657375D01*
X134194768Y-71578113D01*
X134208931Y-71502802D01*
X134221194Y-71436787D01*
X134230539Y-71385413D01*
X134235950Y-71354025D01*
X134236886Y-71347041D01*
X134249404Y-71340715D01*
X134282754Y-71326710D01*
X134330623Y-71307645D01*
X134349371Y-71300366D01*
X134421805Y-71271004D01*
X134501830Y-71236429D01*
X134569272Y-71205463D01*
X134620841Y-71182677D01*
X134663215Y-71167518D01*
X134689166Y-71162458D01*
X134692644Y-71163264D01*
X134709064Y-71173959D01*
X134745583Y-71198380D01*
X134798313Y-71233905D01*
X134863365Y-71277913D01*
X134936849Y-71327783D01*
X134951355Y-71337644D01*
X135037296Y-71395508D01*
X135102739Y-71438044D01*
X135150696Y-71466946D01*
X135184180Y-71483910D01*
X135206205Y-71490633D01*
X135219783Y-71488810D01*
X135219869Y-71488764D01*
X135237703Y-71474414D01*
X135272183Y-71442677D01*
X135319732Y-71396990D01*
X135376778Y-71340796D01*
X135439745Y-71277532D01*
X135446773Y-71270398D01*
X135523980Y-71190670D01*
X135580670Y-71129143D01*
X135617890Y-71084579D01*
X135636685Y-71055743D01*
X135639111Y-71043042D01*
X135628529Y-71024506D01*
X135604084Y-70986039D01*
X135568388Y-70931614D01*
X135524053Y-70865202D01*
X135473689Y-70790775D01*
X135461840Y-70773399D01*
X135293374Y-70526703D01*
X135343938Y-70415294D01*
X135373405Y-70347543D01*
X135403041Y-70274817D01*
X135426670Y-70212297D01*
X135427642Y-70209543D01*
X135445543Y-70160640D01*
X135460680Y-70122943D01*
X135469790Y-70104575D01*
X135469816Y-70104544D01*
X135486283Y-70098715D01*
X135526781Y-70088808D01*
X135586758Y-70075805D01*
X135661660Y-70060691D01*
X135746936Y-70044448D01*
X135754125Y-70043119D01*
X135841986Y-70026825D01*
X135921740Y-70011867D01*
X135988319Y-69999209D01*
X136036653Y-69989814D01*
X136061675Y-69984646D01*
X136062057Y-69984556D01*
X136072701Y-69981411D01*
X136080738Y-69975296D01*
X136086533Y-69962547D01*
X136090453Y-69939500D01*
X136092865Y-69902491D01*
X136094135Y-69847856D01*
X136094629Y-69771933D01*
X136094714Y-69671056D01*
X136094714Y-69658000D01*
X136094652Y-69554090D01*
G36*
X131370034Y-66504405D02*
X131332503Y-66446979D01*
X131298904Y-66419281D01*
X131237936Y-66397338D01*
X131189692Y-66395595D01*
X131125184Y-66399543D01*
X131060066Y-66548314D01*
X131026798Y-66620651D01*
X131000036Y-66667916D01*
X130976856Y-66692493D01*
X130954333Y-66696763D01*
X130929545Y-66683111D01*
X130913114Y-66668057D01*
X130886765Y-66624254D01*
X130884919Y-66576611D01*
X130905454Y-66532855D01*
X130946248Y-66500711D01*
X130960653Y-66494962D01*
X131005644Y-66467424D01*
X131024818Y-66435742D01*
X131041221Y-66392286D01*
X130979034Y-66392286D01*
X130936717Y-66396128D01*
X130901031Y-66411177D01*
X130860057Y-66442720D01*
X130854733Y-66447408D01*
X130818280Y-66482494D01*
X130798717Y-66512653D01*
X130789717Y-66550385D01*
X130786770Y-66581665D01*
X130786035Y-66637615D01*
X130795340Y-66677445D01*
X130809154Y-66702292D01*
X130839533Y-66741344D01*
X130872387Y-66768375D01*
X130913706Y-66785483D01*
X130969479Y-66794762D01*
X131045695Y-66798307D01*
X131084378Y-66798590D01*
X131130753Y-66797628D01*
X131130753Y-66709993D01*
X131105874Y-66708977D01*
X131101800Y-66706444D01*
X131107335Y-66689726D01*
X131121983Y-66653751D01*
X131142810Y-66605669D01*
X131147286Y-66595614D01*
X131178186Y-66534848D01*
X131205343Y-66501368D01*
X131230780Y-66494010D01*
X131256519Y-66511609D01*
X131267891Y-66526144D01*
X131290636Y-66578590D01*
X131286878Y-66627678D01*
X131259116Y-66668773D01*
X131209848Y-66697242D01*
X131170743Y-66706369D01*
X131130753Y-66709993D01*
X131130753Y-66797628D01*
X131174751Y-66796715D01*
X131241616Y-66789804D01*
X131290305Y-66776116D01*
X131326151Y-66753904D01*
X131354487Y-66721426D01*
X131363645Y-66707267D01*
X131387493Y-66642947D01*
X131388994Y-66572527D01*
X131370034Y-66504405D01*
X131370034Y-66504405D01*
G37*
X131370034Y-66504405D02*
X131332503Y-66446979D01*
X131298904Y-66419281D01*
X131237936Y-66397338D01*
X131189692Y-66395595D01*
X131125184Y-66399543D01*
X131060066Y-66548314D01*
X131026798Y-66620651D01*
X131000036Y-66667916D01*
X130976856Y-66692493D01*
X130954333Y-66696763D01*
X130929545Y-66683111D01*
X130913114Y-66668057D01*
X130886765Y-66624254D01*
X130884919Y-66576611D01*
X130905454Y-66532855D01*
X130946248Y-66500711D01*
X130960653Y-66494962D01*
X131005644Y-66467424D01*
X131024818Y-66435742D01*
X131041221Y-66392286D01*
X130979034Y-66392286D01*
X130936717Y-66396128D01*
X130901031Y-66411177D01*
X130860057Y-66442720D01*
X130854733Y-66447408D01*
X130818280Y-66482494D01*
X130798717Y-66512653D01*
X130789717Y-66550385D01*
X130786770Y-66581665D01*
X130786035Y-66637615D01*
X130795340Y-66677445D01*
X130809154Y-66702292D01*
X130839533Y-66741344D01*
X130872387Y-66768375D01*
X130913706Y-66785483D01*
X130969479Y-66794762D01*
X131045695Y-66798307D01*
X131084378Y-66798590D01*
X131130753Y-66797628D01*
X131130753Y-66709993D01*
X131105874Y-66708977D01*
X131101800Y-66706444D01*
X131107335Y-66689726D01*
X131121983Y-66653751D01*
X131142810Y-66605669D01*
X131147286Y-66595614D01*
X131178186Y-66534848D01*
X131205343Y-66501368D01*
X131230780Y-66494010D01*
X131256519Y-66511609D01*
X131267891Y-66526144D01*
X131290636Y-66578590D01*
X131286878Y-66627678D01*
X131259116Y-66668773D01*
X131209848Y-66697242D01*
X131170743Y-66706369D01*
X131130753Y-66709993D01*
X131130753Y-66797628D01*
X131174751Y-66796715D01*
X131241616Y-66789804D01*
X131290305Y-66776116D01*
X131326151Y-66753904D01*
X131354487Y-66721426D01*
X131363645Y-66707267D01*
X131387493Y-66642947D01*
X131388994Y-66572527D01*
X131370034Y-66504405D01*
G36*
X131378248Y-67005400D02*
X131370666Y-66988052D01*
X131337872Y-66946644D01*
X131290453Y-66911235D01*
X131239849Y-66889336D01*
X131214902Y-66885771D01*
X131180073Y-66897721D01*
X131161643Y-66923933D01*
X131150484Y-66952036D01*
X131148428Y-66964905D01*
X131163351Y-66971171D01*
X131195825Y-66983544D01*
X131210498Y-66988972D01*
X131261256Y-67019410D01*
X131286573Y-67063480D01*
X131285794Y-67119990D01*
X131284797Y-67124175D01*
X131270493Y-67154345D01*
X131242607Y-67176524D01*
X131197713Y-67191673D01*
X131132385Y-67200750D01*
X131043196Y-67204714D01*
X130995739Y-67205086D01*
X130920929Y-67205270D01*
X130869931Y-67206478D01*
X130837529Y-67209691D01*
X130818505Y-67215891D01*
X130807644Y-67226060D01*
X130799728Y-67241181D01*
X130799330Y-67242054D01*
X130787019Y-67271172D01*
X130782486Y-67285597D01*
X130796191Y-67287814D01*
X130834075Y-67289711D01*
X130891285Y-67291153D01*
X130962973Y-67292002D01*
X131015435Y-67292171D01*
X131116953Y-67291308D01*
X131193968Y-67287930D01*
X131250977Y-67280858D01*
X131292474Y-67268912D01*
X131322957Y-67250910D01*
X131346920Y-67225673D01*
X131363645Y-67200753D01*
X131385903Y-67140829D01*
X131390924Y-67071089D01*
X131378248Y-67005400D01*
X131378248Y-67005400D01*
G37*
X131378248Y-67005400D02*
X131370666Y-66988052D01*
X131337872Y-66946644D01*
X131290453Y-66911235D01*
X131239849Y-66889336D01*
X131214902Y-66885771D01*
X131180073Y-66897721D01*
X131161643Y-66923933D01*
X131150484Y-66952036D01*
X131148428Y-66964905D01*
X131163351Y-66971171D01*
X131195825Y-66983544D01*
X131210498Y-66988972D01*
X131261256Y-67019410D01*
X131286573Y-67063480D01*
X131285794Y-67119990D01*
X131284797Y-67124175D01*
X131270493Y-67154345D01*
X131242607Y-67176524D01*
X131197713Y-67191673D01*
X131132385Y-67200750D01*
X131043196Y-67204714D01*
X130995739Y-67205086D01*
X130920929Y-67205270D01*
X130869931Y-67206478D01*
X130837529Y-67209691D01*
X130818505Y-67215891D01*
X130807644Y-67226060D01*
X130799728Y-67241181D01*
X130799330Y-67242054D01*
X130787019Y-67271172D01*
X130782486Y-67285597D01*
X130796191Y-67287814D01*
X130834075Y-67289711D01*
X130891285Y-67291153D01*
X130962973Y-67292002D01*
X131015435Y-67292171D01*
X131116953Y-67291308D01*
X131193968Y-67287930D01*
X131250977Y-67280858D01*
X131292474Y-67268912D01*
X131322957Y-67250910D01*
X131346920Y-67225673D01*
X131363645Y-67200753D01*
X131385903Y-67140829D01*
X131390924Y-67071089D01*
X131378248Y-67005400D01*
G36*
X131380665Y-67513124D02*
X131361656Y-67471333D01*
X131338622Y-67438531D01*
X131312867Y-67414497D01*
X131279642Y-67397903D01*
X131234200Y-67387423D01*
X131171793Y-67381729D01*
X131087673Y-67379493D01*
X131032279Y-67379257D01*
X130816174Y-67379257D01*
X130799330Y-67416226D01*
X130787019Y-67445344D01*
X130782486Y-67459769D01*
X130795975Y-67462528D01*
X130832347Y-67464718D01*
X130885458Y-67466058D01*
X130927628Y-67466343D01*
X130988553Y-67467566D01*
X131036885Y-67470864D01*
X131066482Y-67475679D01*
X131072771Y-67479504D01*
X131066348Y-67505217D01*
X131049875Y-67545582D01*
X131027542Y-67592321D01*
X131003543Y-67637155D01*
X130982070Y-67671807D01*
X130967315Y-67687998D01*
X130967155Y-67688062D01*
X130939848Y-67686670D01*
X130913781Y-67674182D01*
X130892608Y-67652257D01*
X130885526Y-67620257D01*
X130886351Y-67592908D01*
X130886958Y-67554174D01*
X130877884Y-67533842D01*
X130853908Y-67521631D01*
X130849387Y-67520091D01*
X130815194Y-67514797D01*
X130794432Y-67528953D01*
X130784538Y-67565852D01*
X130782708Y-67605711D01*
X130796273Y-67677438D01*
X130815645Y-67714568D01*
X130861155Y-67760424D01*
X130917017Y-67784744D01*
X130976043Y-67786927D01*
X131031047Y-67766371D01*
X131065514Y-67735451D01*
X131084811Y-67704580D01*
X131109241Y-67656058D01*
X131134015Y-67599515D01*
X131137801Y-67590090D01*
X131165209Y-67527981D01*
X131189366Y-67492178D01*
X131213381Y-67480663D01*
X131240365Y-67491420D01*
X131261457Y-67509886D01*
X131287428Y-67553531D01*
X131289376Y-67601554D01*
X131269363Y-67645594D01*
X131229449Y-67677291D01*
X131219152Y-67681451D01*
X131181276Y-67705673D01*
X131153158Y-67741035D01*
X131130083Y-67785657D01*
X131195515Y-67785657D01*
X131235494Y-67783031D01*
X131267003Y-67771770D01*
X131300622Y-67746801D01*
X131326516Y-67722831D01*
X131363183Y-67685559D01*
X131382879Y-67656599D01*
X131390780Y-67625495D01*
X131392086Y-67590287D01*
X131380665Y-67513124D01*
X131380665Y-67513124D01*
G37*
X131380665Y-67513124D02*
X131361656Y-67471333D01*
X131338622Y-67438531D01*
X131312867Y-67414497D01*
X131279642Y-67397903D01*
X131234200Y-67387423D01*
X131171793Y-67381729D01*
X131087673Y-67379493D01*
X131032279Y-67379257D01*
X130816174Y-67379257D01*
X130799330Y-67416226D01*
X130787019Y-67445344D01*
X130782486Y-67459769D01*
X130795975Y-67462528D01*
X130832347Y-67464718D01*
X130885458Y-67466058D01*
X130927628Y-67466343D01*
X130988553Y-67467566D01*
X131036885Y-67470864D01*
X131066482Y-67475679D01*
X131072771Y-67479504D01*
X131066348Y-67505217D01*
X131049875Y-67545582D01*
X131027542Y-67592321D01*
X131003543Y-67637155D01*
X130982070Y-67671807D01*
X130967315Y-67687998D01*
X130967155Y-67688062D01*
X130939848Y-67686670D01*
X130913781Y-67674182D01*
X130892608Y-67652257D01*
X130885526Y-67620257D01*
X130886351Y-67592908D01*
X130886958Y-67554174D01*
X130877884Y-67533842D01*
X130853908Y-67521631D01*
X130849387Y-67520091D01*
X130815194Y-67514797D01*
X130794432Y-67528953D01*
X130784538Y-67565852D01*
X130782708Y-67605711D01*
X130796273Y-67677438D01*
X130815645Y-67714568D01*
X130861155Y-67760424D01*
X130917017Y-67784744D01*
X130976043Y-67786927D01*
X131031047Y-67766371D01*
X131065514Y-67735451D01*
X131084811Y-67704580D01*
X131109241Y-67656058D01*
X131134015Y-67599515D01*
X131137801Y-67590090D01*
X131165209Y-67527981D01*
X131189366Y-67492178D01*
X131213381Y-67480663D01*
X131240365Y-67491420D01*
X131261457Y-67509886D01*
X131287428Y-67553531D01*
X131289376Y-67601554D01*
X131269363Y-67645594D01*
X131229449Y-67677291D01*
X131219152Y-67681451D01*
X131181276Y-67705673D01*
X131153158Y-67741035D01*
X131130083Y-67785657D01*
X131195515Y-67785657D01*
X131235494Y-67783031D01*
X131267003Y-67771770D01*
X131300622Y-67746801D01*
X131326516Y-67722831D01*
X131363183Y-67685559D01*
X131382879Y-67656599D01*
X131390780Y-67625495D01*
X131392086Y-67590287D01*
X131380665Y-67513124D01*
G36*
X131378337Y-67878167D02*
X131340150Y-67875952D01*
X131282114Y-67874216D01*
X131208820Y-67873101D01*
X131131945Y-67872743D01*
X130871804Y-67872743D01*
X130825873Y-67918674D01*
X130797571Y-67950325D01*
X130786107Y-67978110D01*
X130786832Y-68016085D01*
X130788679Y-68031160D01*
X130794052Y-68078274D01*
X130797131Y-68117244D01*
X130797415Y-68126743D01*
X130795555Y-68158767D01*
X130790886Y-68204568D01*
X130788679Y-68222326D01*
X130785265Y-68265943D01*
X130792680Y-68295255D01*
X130815573Y-68324320D01*
X130825873Y-68334812D01*
X130871804Y-68380743D01*
X131358398Y-68380743D01*
X131375242Y-68343774D01*
X131387718Y-68311941D01*
X131392086Y-68293317D01*
X131378282Y-68288542D01*
X131339714Y-68284079D01*
X131280644Y-68280225D01*
X131205337Y-68277278D01*
X131141714Y-68275857D01*
X130891343Y-68271886D01*
X130886444Y-68237241D01*
X130889869Y-68205732D01*
X130900959Y-68190292D01*
X130921692Y-68185977D01*
X130965855Y-68182292D01*
X131027854Y-68179531D01*
X131102091Y-68177988D01*
X131140294Y-68177765D01*
X131360217Y-68177543D01*
X131376151Y-68131834D01*
X131386985Y-68099482D01*
X131392038Y-68081885D01*
X131392086Y-68081377D01*
X131378352Y-68079612D01*
X131340270Y-68077671D01*
X131282518Y-68075718D01*
X131209773Y-68073916D01*
X131141714Y-68072657D01*
X130891343Y-68068686D01*
X130891343Y-67981600D01*
X131119760Y-67977604D01*
X131348178Y-67973608D01*
X131370132Y-67931153D01*
X131385207Y-67899808D01*
X131392049Y-67881256D01*
X131392086Y-67880721D01*
X131378337Y-67878167D01*
X131378337Y-67878167D01*
G37*
X131378337Y-67878167D02*
X131340150Y-67875952D01*
X131282114Y-67874216D01*
X131208820Y-67873101D01*
X131131945Y-67872743D01*
X130871804Y-67872743D01*
X130825873Y-67918674D01*
X130797571Y-67950325D01*
X130786107Y-67978110D01*
X130786832Y-68016085D01*
X130788679Y-68031160D01*
X130794052Y-68078274D01*
X130797131Y-68117244D01*
X130797415Y-68126743D01*
X130795555Y-68158767D01*
X130790886Y-68204568D01*
X130788679Y-68222326D01*
X130785265Y-68265943D01*
X130792680Y-68295255D01*
X130815573Y-68324320D01*
X130825873Y-68334812D01*
X130871804Y-68380743D01*
X131358398Y-68380743D01*
X131375242Y-68343774D01*
X131387718Y-68311941D01*
X131392086Y-68293317D01*
X131378282Y-68288542D01*
X131339714Y-68284079D01*
X131280644Y-68280225D01*
X131205337Y-68277278D01*
X131141714Y-68275857D01*
X130891343Y-68271886D01*
X130886444Y-68237241D01*
X130889869Y-68205732D01*
X130900959Y-68190292D01*
X130921692Y-68185977D01*
X130965855Y-68182292D01*
X131027854Y-68179531D01*
X131102091Y-68177988D01*
X131140294Y-68177765D01*
X131360217Y-68177543D01*
X131376151Y-68131834D01*
X131386985Y-68099482D01*
X131392038Y-68081885D01*
X131392086Y-68081377D01*
X131378352Y-68079612D01*
X131340270Y-68077671D01*
X131282518Y-68075718D01*
X131209773Y-68073916D01*
X131141714Y-68072657D01*
X130891343Y-68068686D01*
X130891343Y-67981600D01*
X131119760Y-67977604D01*
X131348178Y-67973608D01*
X131370132Y-67931153D01*
X131385207Y-67899808D01*
X131392049Y-67881256D01*
X131392086Y-67880721D01*
X131378337Y-67878167D01*
G36*
X131271642Y-68467883D02*
X131163163Y-68468067D01*
X131079713Y-68468781D01*
X131017296Y-68470325D01*
X130971915Y-68472999D01*
X130939571Y-68477106D01*
X130916267Y-68482945D01*
X130898005Y-68490818D01*
X130887582Y-68496779D01*
X130831055Y-68546145D01*
X130795623Y-68608736D01*
X130782910Y-68677987D01*
X130794537Y-68747332D01*
X130815432Y-68788625D01*
X130851578Y-68831975D01*
X130895724Y-68861519D01*
X130953538Y-68879345D01*
X131030687Y-68887537D01*
X131087286Y-68888698D01*
X131091353Y-68888542D01*
X131091353Y-68787143D01*
X131026450Y-68786524D01*
X130983486Y-68783686D01*
X130955378Y-68777160D01*
X130935047Y-68765477D01*
X130919712Y-68751517D01*
X130890110Y-68704635D01*
X130887581Y-68654299D01*
X130912295Y-68606724D01*
X130915644Y-68603021D01*
X130933065Y-68587217D01*
X130953791Y-68577307D01*
X130984638Y-68571942D01*
X131032423Y-68569772D01*
X131085252Y-68569429D01*
X131151619Y-68570173D01*
X131195894Y-68573252D01*
X131224991Y-68579939D01*
X131245827Y-68591504D01*
X131256893Y-68600987D01*
X131284802Y-68645040D01*
X131288157Y-68695776D01*
X131266841Y-68744204D01*
X131258927Y-68753550D01*
X131241353Y-68769460D01*
X131220413Y-68779390D01*
X131189218Y-68784722D01*
X131140878Y-68786837D01*
X131091353Y-68787143D01*
X131091353Y-68888542D01*
X131178432Y-68885190D01*
X131246914Y-68873274D01*
X131298400Y-68850865D01*
X131338557Y-68815876D01*
X131359139Y-68788625D01*
X131381375Y-68739093D01*
X131391696Y-68681684D01*
X131388933Y-68628318D01*
X131377788Y-68598457D01*
X131374617Y-68586739D01*
X131386443Y-68578963D01*
X131418134Y-68573535D01*
X131466407Y-68569429D01*
X131520171Y-68564933D01*
X131552518Y-68558687D01*
X131571015Y-68547324D01*
X131583230Y-68527472D01*
X131588638Y-68515000D01*
X131608399Y-68467829D01*
X131271642Y-68467883D01*
X131271642Y-68467883D01*
G37*
X131271642Y-68467883D02*
X131163163Y-68468067D01*
X131079713Y-68468781D01*
X131017296Y-68470325D01*
X130971915Y-68472999D01*
X130939571Y-68477106D01*
X130916267Y-68482945D01*
X130898005Y-68490818D01*
X130887582Y-68496779D01*
X130831055Y-68546145D01*
X130795623Y-68608736D01*
X130782910Y-68677987D01*
X130794537Y-68747332D01*
X130815432Y-68788625D01*
X130851578Y-68831975D01*
X130895724Y-68861519D01*
X130953538Y-68879345D01*
X131030687Y-68887537D01*
X131087286Y-68888698D01*
X131091353Y-68888542D01*
X131091353Y-68787143D01*
X131026450Y-68786524D01*
X130983486Y-68783686D01*
X130955378Y-68777160D01*
X130935047Y-68765477D01*
X130919712Y-68751517D01*
X130890110Y-68704635D01*
X130887581Y-68654299D01*
X130912295Y-68606724D01*
X130915644Y-68603021D01*
X130933065Y-68587217D01*
X130953791Y-68577307D01*
X130984638Y-68571942D01*
X131032423Y-68569772D01*
X131085252Y-68569429D01*
X131151619Y-68570173D01*
X131195894Y-68573252D01*
X131224991Y-68579939D01*
X131245827Y-68591504D01*
X131256893Y-68600987D01*
X131284802Y-68645040D01*
X131288157Y-68695776D01*
X131266841Y-68744204D01*
X131258927Y-68753550D01*
X131241353Y-68769460D01*
X131220413Y-68779390D01*
X131189218Y-68784722D01*
X131140878Y-68786837D01*
X131091353Y-68787143D01*
X131091353Y-68888542D01*
X131178432Y-68885190D01*
X131246914Y-68873274D01*
X131298400Y-68850865D01*
X131338557Y-68815876D01*
X131359139Y-68788625D01*
X131381375Y-68739093D01*
X131391696Y-68681684D01*
X131388933Y-68628318D01*
X131377788Y-68598457D01*
X131374617Y-68586739D01*
X131386443Y-68578963D01*
X131418134Y-68573535D01*
X131466407Y-68569429D01*
X131520171Y-68564933D01*
X131552518Y-68558687D01*
X131571015Y-68547324D01*
X131583230Y-68527472D01*
X131588638Y-68515000D01*
X131608399Y-68467829D01*
X131271642Y-68467883D01*
G36*
X131387245Y-69128074D02*
X131362916Y-69062142D01*
X131319883Y-69008727D01*
X131289591Y-68987836D01*
X131234006Y-68965061D01*
X131193814Y-68965534D01*
X131166783Y-68989438D01*
X131162187Y-68998283D01*
X131147856Y-69036470D01*
X131151528Y-69055972D01*
X131175593Y-69062578D01*
X131188886Y-69062914D01*
X131237790Y-69075008D01*
X131272001Y-69106529D01*
X131288524Y-69150341D01*
X131284366Y-69199305D01*
X131262773Y-69239106D01*
X131250456Y-69252550D01*
X131235513Y-69262079D01*
X131212925Y-69268515D01*
X131177672Y-69272683D01*
X131124734Y-69275403D01*
X131049093Y-69277498D01*
X131025143Y-69278040D01*
X130943210Y-69280019D01*
X130885545Y-69282269D01*
X130847392Y-69285643D01*
X130823996Y-69290994D01*
X130810602Y-69299176D01*
X130802455Y-69311041D01*
X130798856Y-69318638D01*
X130786548Y-69350898D01*
X130782486Y-69369889D01*
X130796052Y-69376164D01*
X130837066Y-69379994D01*
X130906001Y-69381400D01*
X131003331Y-69380402D01*
X131018343Y-69380092D01*
X131107141Y-69377899D01*
X131171981Y-69375307D01*
X131217933Y-69371618D01*
X131250065Y-69366136D01*
X131273447Y-69358165D01*
X131293148Y-69347007D01*
X131301590Y-69341170D01*
X131338943Y-69307704D01*
X131367997Y-69270273D01*
X131370533Y-69265691D01*
X131390557Y-69198574D01*
X131387245Y-69128074D01*
X131387245Y-69128074D01*
G37*
X131387245Y-69128074D02*
X131362916Y-69062142D01*
X131319883Y-69008727D01*
X131289591Y-68987836D01*
X131234006Y-68965061D01*
X131193814Y-68965534D01*
X131166783Y-68989438D01*
X131162187Y-68998283D01*
X131147856Y-69036470D01*
X131151528Y-69055972D01*
X131175593Y-69062578D01*
X131188886Y-69062914D01*
X131237790Y-69075008D01*
X131272001Y-69106529D01*
X131288524Y-69150341D01*
X131284366Y-69199305D01*
X131262773Y-69239106D01*
X131250456Y-69252550D01*
X131235513Y-69262079D01*
X131212925Y-69268515D01*
X131177672Y-69272683D01*
X131124734Y-69275403D01*
X131049093Y-69277498D01*
X131025143Y-69278040D01*
X130943210Y-69280019D01*
X130885545Y-69282269D01*
X130847392Y-69285643D01*
X130823996Y-69290994D01*
X130810602Y-69299176D01*
X130802455Y-69311041D01*
X130798856Y-69318638D01*
X130786548Y-69350898D01*
X130782486Y-69369889D01*
X130796052Y-69376164D01*
X130837066Y-69379994D01*
X130906001Y-69381400D01*
X131003331Y-69380402D01*
X131018343Y-69380092D01*
X131107141Y-69377899D01*
X131171981Y-69375307D01*
X131217933Y-69371618D01*
X131250065Y-69366136D01*
X131273447Y-69358165D01*
X131293148Y-69347007D01*
X131301590Y-69341170D01*
X131338943Y-69307704D01*
X131367997Y-69270273D01*
X131370533Y-69265691D01*
X131390557Y-69198574D01*
X131387245Y-69128074D01*
G36*
X131386032Y-69618256D02*
X131364913Y-69561384D01*
X131364507Y-69560733D01*
X131338620Y-69525560D01*
X131308367Y-69499593D01*
X131268942Y-69481330D01*
X131215538Y-69469268D01*
X131143349Y-69461904D01*
X131047568Y-69457736D01*
X131033922Y-69457371D01*
X130828158Y-69452124D01*
X130805322Y-69496284D01*
X130789890Y-69528237D01*
X130782577Y-69547530D01*
X130782486Y-69548422D01*
X130795978Y-69551761D01*
X130832374Y-69554413D01*
X130885548Y-69556044D01*
X130928607Y-69556400D01*
X130998359Y-69556408D01*
X131042163Y-69559597D01*
X131063056Y-69570712D01*
X131064075Y-69594499D01*
X131048259Y-69635704D01*
X131019185Y-69697914D01*
X130995037Y-69743659D01*
X130974087Y-69767187D01*
X130951253Y-69774104D01*
X130950123Y-69774114D01*
X130910788Y-69762701D01*
X130889538Y-69728908D01*
X130886461Y-69677191D01*
X130886994Y-69639939D01*
X130876265Y-69620297D01*
X130850495Y-69608048D01*
X130817663Y-69600998D01*
X130799034Y-69611158D01*
X130796368Y-69614983D01*
X130785660Y-69650999D01*
X130784144Y-69701434D01*
X130791241Y-69753374D01*
X130804212Y-69790178D01*
X130847415Y-69841062D01*
X130907554Y-69869986D01*
X130954538Y-69875714D01*
X130996918Y-69871343D01*
X131031512Y-69855525D01*
X131062237Y-69824203D01*
X131093010Y-69773322D01*
X131127748Y-69698824D01*
X131129712Y-69694286D01*
X131160713Y-69627179D01*
X131186138Y-69585768D01*
X131208986Y-69568019D01*
X131232255Y-69571893D01*
X131258944Y-69595357D01*
X131265086Y-69602373D01*
X131288900Y-69649370D01*
X131287897Y-69698067D01*
X131264549Y-69740478D01*
X131221325Y-69768616D01*
X131212840Y-69771231D01*
X131171692Y-69796692D01*
X131151872Y-69828999D01*
X131132230Y-69875714D01*
X131183050Y-69875714D01*
X131256918Y-69861504D01*
X131324673Y-69819325D01*
X131347339Y-69797376D01*
X131376431Y-69747483D01*
X131389600Y-69684033D01*
X131386032Y-69618256D01*
X131386032Y-69618256D01*
G37*
X131386032Y-69618256D02*
X131364913Y-69561384D01*
X131364507Y-69560733D01*
X131338620Y-69525560D01*
X131308367Y-69499593D01*
X131268942Y-69481330D01*
X131215538Y-69469268D01*
X131143349Y-69461904D01*
X131047568Y-69457736D01*
X131033922Y-69457371D01*
X130828158Y-69452124D01*
X130805322Y-69496284D01*
X130789890Y-69528237D01*
X130782577Y-69547530D01*
X130782486Y-69548422D01*
X130795978Y-69551761D01*
X130832374Y-69554413D01*
X130885548Y-69556044D01*
X130928607Y-69556400D01*
X130998359Y-69556408D01*
X131042163Y-69559597D01*
X131063056Y-69570712D01*
X131064075Y-69594499D01*
X131048259Y-69635704D01*
X131019185Y-69697914D01*
X130995037Y-69743659D01*
X130974087Y-69767187D01*
X130951253Y-69774104D01*
X130950123Y-69774114D01*
X130910788Y-69762701D01*
X130889538Y-69728908D01*
X130886461Y-69677191D01*
X130886994Y-69639939D01*
X130876265Y-69620297D01*
X130850495Y-69608048D01*
X130817663Y-69600998D01*
X130799034Y-69611158D01*
X130796368Y-69614983D01*
X130785660Y-69650999D01*
X130784144Y-69701434D01*
X130791241Y-69753374D01*
X130804212Y-69790178D01*
X130847415Y-69841062D01*
X130907554Y-69869986D01*
X130954538Y-69875714D01*
X130996918Y-69871343D01*
X131031512Y-69855525D01*
X131062237Y-69824203D01*
X131093010Y-69773322D01*
X131127748Y-69698824D01*
X131129712Y-69694286D01*
X131160713Y-69627179D01*
X131186138Y-69585768D01*
X131208986Y-69568019D01*
X131232255Y-69571893D01*
X131258944Y-69595357D01*
X131265086Y-69602373D01*
X131288900Y-69649370D01*
X131287897Y-69698067D01*
X131264549Y-69740478D01*
X131221325Y-69768616D01*
X131212840Y-69771231D01*
X131171692Y-69796692D01*
X131151872Y-69828999D01*
X131132230Y-69875714D01*
X131183050Y-69875714D01*
X131256918Y-69861504D01*
X131324673Y-69819325D01*
X131347339Y-69797376D01*
X131376431Y-69747483D01*
X131389600Y-69684033D01*
X131386032Y-69618256D01*
G36*
X131485711Y-70282114D02*
X131426387Y-70277861D01*
X131391428Y-70272975D01*
X131376180Y-70266205D01*
X131375985Y-70256298D01*
X131377805Y-70253086D01*
X131390985Y-70210356D01*
X131390215Y-70154773D01*
X131376667Y-70098263D01*
X131359139Y-70062918D01*
X131331139Y-70026679D01*
X131299451Y-70000187D01*
X131259187Y-69982001D01*
X131205457Y-69970678D01*
X131133374Y-69964778D01*
X131038049Y-69962857D01*
X131019763Y-69962823D01*
X130814354Y-69962800D01*
X130798420Y-70008509D01*
X130787580Y-70040973D01*
X130782532Y-70058785D01*
X130782486Y-70059309D01*
X130796172Y-70061063D01*
X130833924Y-70062556D01*
X130890776Y-70063674D01*
X130961766Y-70064303D01*
X131004927Y-70064400D01*
X131090027Y-70064602D01*
X131151019Y-70065642D01*
X131192823Y-70068169D01*
X131220358Y-70072836D01*
X131238544Y-70080293D01*
X131252302Y-70091189D01*
X131258927Y-70097993D01*
X131285625Y-70144728D01*
X131287625Y-70195728D01*
X131265045Y-70241999D01*
X131256893Y-70250556D01*
X131241564Y-70263107D01*
X131223382Y-70271812D01*
X131197091Y-70277369D01*
X131157438Y-70280474D01*
X131099168Y-70281824D01*
X131018827Y-70282114D01*
X130814354Y-70282114D01*
X130798420Y-70327823D01*
X130787580Y-70360287D01*
X130782532Y-70378099D01*
X130782486Y-70378623D01*
X130796377Y-70379963D01*
X130835561Y-70381172D01*
X130896300Y-70382199D01*
X130974859Y-70382998D01*
X131067502Y-70383519D01*
X131170491Y-70383714D01*
X131567658Y-70383714D01*
X131587556Y-70336543D01*
X131607453Y-70289371D01*
X131485711Y-70282114D01*
X131485711Y-70282114D01*
G37*
X131485711Y-70282114D02*
X131426387Y-70277861D01*
X131391428Y-70272975D01*
X131376180Y-70266205D01*
X131375985Y-70256298D01*
X131377805Y-70253086D01*
X131390985Y-70210356D01*
X131390215Y-70154773D01*
X131376667Y-70098263D01*
X131359139Y-70062918D01*
X131331139Y-70026679D01*
X131299451Y-70000187D01*
X131259187Y-69982001D01*
X131205457Y-69970678D01*
X131133374Y-69964778D01*
X131038049Y-69962857D01*
X131019763Y-69962823D01*
X130814354Y-69962800D01*
X130798420Y-70008509D01*
X130787580Y-70040973D01*
X130782532Y-70058785D01*
X130782486Y-70059309D01*
X130796172Y-70061063D01*
X130833924Y-70062556D01*
X130890776Y-70063674D01*
X130961766Y-70064303D01*
X131004927Y-70064400D01*
X131090027Y-70064602D01*
X131151019Y-70065642D01*
X131192823Y-70068169D01*
X131220358Y-70072836D01*
X131238544Y-70080293D01*
X131252302Y-70091189D01*
X131258927Y-70097993D01*
X131285625Y-70144728D01*
X131287625Y-70195728D01*
X131265045Y-70241999D01*
X131256893Y-70250556D01*
X131241564Y-70263107D01*
X131223382Y-70271812D01*
X131197091Y-70277369D01*
X131157438Y-70280474D01*
X131099168Y-70281824D01*
X131018827Y-70282114D01*
X130814354Y-70282114D01*
X130798420Y-70327823D01*
X130787580Y-70360287D01*
X130782532Y-70378099D01*
X130782486Y-70378623D01*
X130796377Y-70379963D01*
X130835561Y-70381172D01*
X130896300Y-70382199D01*
X130974859Y-70382998D01*
X131067502Y-70383519D01*
X131170491Y-70383714D01*
X131567658Y-70383714D01*
X131587556Y-70336543D01*
X131607453Y-70289371D01*
X131485711Y-70282114D01*
G36*
X131405761Y-71489697D02*
X131367265Y-71432473D01*
X131311665Y-71388251D01*
X131240914Y-71361833D01*
X131188838Y-71356490D01*
X131167107Y-71357097D01*
X131150469Y-71362178D01*
X131135563Y-71376145D01*
X131119027Y-71403411D01*
X131097502Y-71448388D01*
X131067626Y-71515489D01*
X131067476Y-71515829D01*
X131039187Y-71577593D01*
X131014067Y-71628241D01*
X130994821Y-71662596D01*
X130984152Y-71675482D01*
X130984066Y-71675486D01*
X130960834Y-71664128D01*
X130935226Y-71637569D01*
X130916779Y-71607077D01*
X130913114Y-71591630D01*
X130925788Y-71549485D01*
X130957529Y-71513192D01*
X130992428Y-71495483D01*
X131018155Y-71478448D01*
X131047454Y-71445078D01*
X131072765Y-71405851D01*
X131086529Y-71371244D01*
X131087286Y-71364007D01*
X131074840Y-71355861D01*
X131043028Y-71355370D01*
X131000134Y-71361357D01*
X130954442Y-71372643D01*
X130914239Y-71388050D01*
X130912678Y-71388829D01*
X130847938Y-71435196D01*
X130803903Y-71495289D01*
X130782289Y-71563535D01*
X130784815Y-71634362D01*
X130813196Y-71702196D01*
X130815192Y-71705212D01*
X130863552Y-71758573D01*
X130926648Y-71793660D01*
X131009613Y-71813078D01*
X131032922Y-71815684D01*
X131142945Y-71820299D01*
X131194252Y-71814767D01*
X131194252Y-71675486D01*
X131162247Y-71673676D01*
X131152907Y-71663778D01*
X131159895Y-71639102D01*
X131176413Y-71600205D01*
X131197119Y-71556725D01*
X131197667Y-71555644D01*
X131217051Y-71518791D01*
X131229987Y-71504000D01*
X131243549Y-71507647D01*
X131261368Y-71523005D01*
X131287155Y-71562077D01*
X131289050Y-71604154D01*
X131270283Y-71641897D01*
X131234085Y-71667966D01*
X131194252Y-71675486D01*
X131194252Y-71814767D01*
X131230973Y-71810806D01*
X131300788Y-71786450D01*
X131349698Y-71752544D01*
X131399122Y-71691347D01*
X131423641Y-71623937D01*
X131425203Y-71555120D01*
X131405761Y-71489697D01*
X131405761Y-71489697D01*
G37*
X131405761Y-71489697D02*
X131367265Y-71432473D01*
X131311665Y-71388251D01*
X131240914Y-71361833D01*
X131188838Y-71356490D01*
X131167107Y-71357097D01*
X131150469Y-71362178D01*
X131135563Y-71376145D01*
X131119027Y-71403411D01*
X131097502Y-71448388D01*
X131067626Y-71515489D01*
X131067476Y-71515829D01*
X131039187Y-71577593D01*
X131014067Y-71628241D01*
X130994821Y-71662596D01*
X130984152Y-71675482D01*
X130984066Y-71675486D01*
X130960834Y-71664128D01*
X130935226Y-71637569D01*
X130916779Y-71607077D01*
X130913114Y-71591630D01*
X130925788Y-71549485D01*
X130957529Y-71513192D01*
X130992428Y-71495483D01*
X131018155Y-71478448D01*
X131047454Y-71445078D01*
X131072765Y-71405851D01*
X131086529Y-71371244D01*
X131087286Y-71364007D01*
X131074840Y-71355861D01*
X131043028Y-71355370D01*
X131000134Y-71361357D01*
X130954442Y-71372643D01*
X130914239Y-71388050D01*
X130912678Y-71388829D01*
X130847938Y-71435196D01*
X130803903Y-71495289D01*
X130782289Y-71563535D01*
X130784815Y-71634362D01*
X130813196Y-71702196D01*
X130815192Y-71705212D01*
X130863552Y-71758573D01*
X130926648Y-71793660D01*
X131009613Y-71813078D01*
X131032922Y-71815684D01*
X131142945Y-71820299D01*
X131194252Y-71814767D01*
X131194252Y-71675486D01*
X131162247Y-71673676D01*
X131152907Y-71663778D01*
X131159895Y-71639102D01*
X131176413Y-71600205D01*
X131197119Y-71556725D01*
X131197667Y-71555644D01*
X131217051Y-71518791D01*
X131229987Y-71504000D01*
X131243549Y-71507647D01*
X131261368Y-71523005D01*
X131287155Y-71562077D01*
X131289050Y-71604154D01*
X131270283Y-71641897D01*
X131234085Y-71667966D01*
X131194252Y-71675486D01*
X131194252Y-71814767D01*
X131230973Y-71810806D01*
X131300788Y-71786450D01*
X131349698Y-71752544D01*
X131399122Y-71691347D01*
X131423641Y-71623937D01*
X131425203Y-71555120D01*
X131405761Y-71489697D01*
G36*
X131415038Y-72616885D02*
X131379267Y-72548855D01*
X131321699Y-72498649D01*
X131284688Y-72480815D01*
X131229118Y-72466937D01*
X131158904Y-72459833D01*
X131082273Y-72459160D01*
X131007448Y-72464573D01*
X130942658Y-72475730D01*
X130896127Y-72492286D01*
X130888113Y-72497374D01*
X130828293Y-72557645D01*
X130792465Y-72629231D01*
X130781980Y-72706908D01*
X130798190Y-72785452D01*
X130807908Y-72807311D01*
X130837857Y-72849878D01*
X130877567Y-72887237D01*
X130882603Y-72890768D01*
X130906876Y-72905119D01*
X130932822Y-72914606D01*
X130966978Y-72920210D01*
X131015881Y-72922914D01*
X131086065Y-72923701D01*
X131101800Y-72923714D01*
X131106808Y-72923678D01*
X131106808Y-72778571D01*
X131040570Y-72777727D01*
X130996614Y-72774404D01*
X130968221Y-72767417D01*
X130948675Y-72755584D01*
X130942143Y-72749543D01*
X130917320Y-72714814D01*
X130918452Y-72681097D01*
X130939984Y-72647005D01*
X130962971Y-72626671D01*
X130996522Y-72614629D01*
X131049431Y-72607866D01*
X131055601Y-72607402D01*
X131151487Y-72606248D01*
X131222701Y-72618312D01*
X131268806Y-72643430D01*
X131289365Y-72681440D01*
X131290486Y-72695008D01*
X131284848Y-72730636D01*
X131265314Y-72755006D01*
X131227958Y-72769907D01*
X131168850Y-72777125D01*
X131106808Y-72778571D01*
X131106808Y-72923678D01*
X131176587Y-72923174D01*
X131228841Y-72920904D01*
X131265051Y-72915932D01*
X131291701Y-72907287D01*
X131315278Y-72893995D01*
X131319662Y-72891057D01*
X131378751Y-72841687D01*
X131413053Y-72787891D01*
X131426669Y-72722398D01*
X131427335Y-72700158D01*
X131415038Y-72616885D01*
X131415038Y-72616885D01*
G37*
X131415038Y-72616885D02*
X131379267Y-72548855D01*
X131321699Y-72498649D01*
X131284688Y-72480815D01*
X131229118Y-72466937D01*
X131158904Y-72459833D01*
X131082273Y-72459160D01*
X131007448Y-72464573D01*
X130942658Y-72475730D01*
X130896127Y-72492286D01*
X130888113Y-72497374D01*
X130828293Y-72557645D01*
X130792465Y-72629231D01*
X130781980Y-72706908D01*
X130798190Y-72785452D01*
X130807908Y-72807311D01*
X130837857Y-72849878D01*
X130877567Y-72887237D01*
X130882603Y-72890768D01*
X130906876Y-72905119D01*
X130932822Y-72914606D01*
X130966978Y-72920210D01*
X131015881Y-72922914D01*
X131086065Y-72923701D01*
X131101800Y-72923714D01*
X131106808Y-72923678D01*
X131106808Y-72778571D01*
X131040570Y-72777727D01*
X130996614Y-72774404D01*
X130968221Y-72767417D01*
X130948675Y-72755584D01*
X130942143Y-72749543D01*
X130917320Y-72714814D01*
X130918452Y-72681097D01*
X130939984Y-72647005D01*
X130962971Y-72626671D01*
X130996522Y-72614629D01*
X131049431Y-72607866D01*
X131055601Y-72607402D01*
X131151487Y-72606248D01*
X131222701Y-72618312D01*
X131268806Y-72643430D01*
X131289365Y-72681440D01*
X131290486Y-72695008D01*
X131284848Y-72730636D01*
X131265314Y-72755006D01*
X131227958Y-72769907D01*
X131168850Y-72777125D01*
X131106808Y-72778571D01*
X131106808Y-72923678D01*
X131176587Y-72923174D01*
X131228841Y-72920904D01*
X131265051Y-72915932D01*
X131291701Y-72907287D01*
X131315278Y-72893995D01*
X131319662Y-72891057D01*
X131378751Y-72841687D01*
X131413053Y-72787891D01*
X131426669Y-72722398D01*
X131427335Y-72700158D01*
X131415038Y-72616885D01*
G36*
X131409220Y-70941907D02*
X131382277Y-70895328D01*
X131355534Y-70862943D01*
X131327516Y-70839258D01*
X131293252Y-70822941D01*
X131247773Y-70812661D01*
X131186108Y-70807086D01*
X131103289Y-70804884D01*
X131043754Y-70804629D01*
X130824609Y-70804629D01*
X130796956Y-70866314D01*
X130769303Y-70928000D01*
X131009330Y-70935257D01*
X131098972Y-70938256D01*
X131164038Y-70941402D01*
X131208974Y-70945299D01*
X131238230Y-70950553D01*
X131256252Y-70957769D01*
X131267489Y-70967550D01*
X131269921Y-70970688D01*
X131288917Y-71018239D01*
X131281400Y-71066303D01*
X131261457Y-71094914D01*
X131247325Y-71106553D01*
X131228780Y-71114609D01*
X131200666Y-71119729D01*
X131157827Y-71122559D01*
X131095105Y-71123744D01*
X131029739Y-71123943D01*
X130947732Y-71123982D01*
X130889684Y-71125386D01*
X130850535Y-71130086D01*
X130825220Y-71140013D01*
X130808677Y-71157097D01*
X130795844Y-71183268D01*
X130782509Y-71218225D01*
X130767993Y-71256404D01*
X131025611Y-71251859D01*
X131118481Y-71250029D01*
X131187111Y-71247888D01*
X131236289Y-71244819D01*
X131270802Y-71240206D01*
X131295438Y-71233432D01*
X131314984Y-71223881D01*
X131332230Y-71212366D01*
X131387320Y-71156810D01*
X131419178Y-71089020D01*
X131426809Y-71015287D01*
X131409220Y-70941907D01*
X131409220Y-70941907D01*
G37*
X131409220Y-70941907D02*
X131382277Y-70895328D01*
X131355534Y-70862943D01*
X131327516Y-70839258D01*
X131293252Y-70822941D01*
X131247773Y-70812661D01*
X131186108Y-70807086D01*
X131103289Y-70804884D01*
X131043754Y-70804629D01*
X130824609Y-70804629D01*
X130796956Y-70866314D01*
X130769303Y-70928000D01*
X131009330Y-70935257D01*
X131098972Y-70938256D01*
X131164038Y-70941402D01*
X131208974Y-70945299D01*
X131238230Y-70950553D01*
X131256252Y-70957769D01*
X131267489Y-70967550D01*
X131269921Y-70970688D01*
X131288917Y-71018239D01*
X131281400Y-71066303D01*
X131261457Y-71094914D01*
X131247325Y-71106553D01*
X131228780Y-71114609D01*
X131200666Y-71119729D01*
X131157827Y-71122559D01*
X131095105Y-71123744D01*
X131029739Y-71123943D01*
X130947732Y-71123982D01*
X130889684Y-71125386D01*
X130850535Y-71130086D01*
X130825220Y-71140013D01*
X130808677Y-71157097D01*
X130795844Y-71183268D01*
X130782509Y-71218225D01*
X130767993Y-71256404D01*
X131025611Y-71251859D01*
X131118481Y-71250029D01*
X131187111Y-71247888D01*
X131236289Y-71244819D01*
X131270802Y-71240206D01*
X131295438Y-71233432D01*
X131314984Y-71223881D01*
X131332230Y-71212366D01*
X131387320Y-71156810D01*
X131419178Y-71089020D01*
X131426809Y-71015287D01*
X131409220Y-70941907D01*
G36*
X131417082Y-72058256D02*
X131389432Y-72002799D01*
X131338520Y-71953852D01*
X131319662Y-71940371D01*
X131294985Y-71925686D01*
X131268184Y-71916158D01*
X131232413Y-71910707D01*
X131180831Y-71908253D01*
X131112733Y-71907714D01*
X131019412Y-71910148D01*
X130949343Y-71918606D01*
X130897069Y-71934826D01*
X130857131Y-71960546D01*
X130824071Y-71997503D01*
X130822114Y-72000218D01*
X130802092Y-72036640D01*
X130792185Y-72080498D01*
X130789743Y-72136276D01*
X130789743Y-72226952D01*
X130701717Y-72226990D01*
X130652692Y-72227834D01*
X130623935Y-72232976D01*
X130606689Y-72246413D01*
X130592192Y-72272142D01*
X130589231Y-72278321D01*
X130575352Y-72307236D01*
X130566586Y-72329624D01*
X130565829Y-72346271D01*
X130575977Y-72357964D01*
X130599927Y-72365490D01*
X130640574Y-72369634D01*
X130700814Y-72371185D01*
X130783545Y-72370929D01*
X130891661Y-72369651D01*
X130924000Y-72369252D01*
X131035476Y-72367815D01*
X131108397Y-72366528D01*
X131108397Y-72227029D01*
X131046501Y-72226245D01*
X131006003Y-72222760D01*
X130979292Y-72214876D01*
X130958756Y-72200895D01*
X130948740Y-72191403D01*
X130919433Y-72152596D01*
X130917048Y-72118237D01*
X130941250Y-72082784D01*
X130942143Y-72081886D01*
X130960847Y-72067461D01*
X130986268Y-72058687D01*
X131025416Y-72054261D01*
X131085303Y-72052882D01*
X131098570Y-72052857D01*
X131181099Y-72056188D01*
X131238309Y-72067031D01*
X131273234Y-72086660D01*
X131288906Y-72116350D01*
X131290486Y-72133509D01*
X131283074Y-72174234D01*
X131258670Y-72202168D01*
X131214020Y-72218983D01*
X131145870Y-72226350D01*
X131108397Y-72227029D01*
X131108397Y-72366528D01*
X131121755Y-72366292D01*
X131186667Y-72364323D01*
X131234042Y-72361550D01*
X131267710Y-72357612D01*
X131291502Y-72352151D01*
X131309247Y-72344808D01*
X131324776Y-72335223D01*
X131330619Y-72331113D01*
X131385815Y-72276595D01*
X131417110Y-72207664D01*
X131425835Y-72127928D01*
X131417082Y-72058256D01*
X131417082Y-72058256D01*
G37*
X131417082Y-72058256D02*
X131389432Y-72002799D01*
X131338520Y-71953852D01*
X131319662Y-71940371D01*
X131294985Y-71925686D01*
X131268184Y-71916158D01*
X131232413Y-71910707D01*
X131180831Y-71908253D01*
X131112733Y-71907714D01*
X131019412Y-71910148D01*
X130949343Y-71918606D01*
X130897069Y-71934826D01*
X130857131Y-71960546D01*
X130824071Y-71997503D01*
X130822114Y-72000218D01*
X130802092Y-72036640D01*
X130792185Y-72080498D01*
X130789743Y-72136276D01*
X130789743Y-72226952D01*
X130701717Y-72226990D01*
X130652692Y-72227834D01*
X130623935Y-72232976D01*
X130606689Y-72246413D01*
X130592192Y-72272142D01*
X130589231Y-72278321D01*
X130575352Y-72307236D01*
X130566586Y-72329624D01*
X130565829Y-72346271D01*
X130575977Y-72357964D01*
X130599927Y-72365490D01*
X130640574Y-72369634D01*
X130700814Y-72371185D01*
X130783545Y-72370929D01*
X130891661Y-72369651D01*
X130924000Y-72369252D01*
X131035476Y-72367815D01*
X131108397Y-72366528D01*
X131108397Y-72227029D01*
X131046501Y-72226245D01*
X131006003Y-72222760D01*
X130979292Y-72214876D01*
X130958756Y-72200895D01*
X130948740Y-72191403D01*
X130919433Y-72152596D01*
X130917048Y-72118237D01*
X130941250Y-72082784D01*
X130942143Y-72081886D01*
X130960847Y-72067461D01*
X130986268Y-72058687D01*
X131025416Y-72054261D01*
X131085303Y-72052882D01*
X131098570Y-72052857D01*
X131181099Y-72056188D01*
X131238309Y-72067031D01*
X131273234Y-72086660D01*
X131288906Y-72116350D01*
X131290486Y-72133509D01*
X131283074Y-72174234D01*
X131258670Y-72202168D01*
X131214020Y-72218983D01*
X131145870Y-72226350D01*
X131108397Y-72227029D01*
X131108397Y-72366528D01*
X131121755Y-72366292D01*
X131186667Y-72364323D01*
X131234042Y-72361550D01*
X131267710Y-72357612D01*
X131291502Y-72352151D01*
X131309247Y-72344808D01*
X131324776Y-72335223D01*
X131330619Y-72331113D01*
X131385815Y-72276595D01*
X131417110Y-72207664D01*
X131425835Y-72127928D01*
X131417082Y-72058256D01*
G36*
X143588967Y-80090986D02*
X143576412Y-80172220D01*
X143587411Y-80214875D01*
X143622829Y-80341354D01*
X143680098Y-80551273D01*
X143748515Y-80805312D01*
X143768914Y-80881625D01*
X143861672Y-81183069D01*
X143947898Y-81359439D01*
X144031272Y-81412245D01*
X144115477Y-81343001D01*
X144204194Y-81153220D01*
X144232532Y-81072125D01*
X144343270Y-80738750D01*
X144449455Y-81056250D01*
X144545008Y-81285617D01*
X144636310Y-81388071D01*
X144724109Y-81363590D01*
X144809155Y-81212154D01*
X144863639Y-81044460D01*
X144938523Y-80783171D01*
X145017487Y-80520099D01*
X145057100Y-80394063D01*
X145110910Y-80223617D01*
X145143518Y-80112631D01*
X145148000Y-80092438D01*
X145093426Y-80077124D01*
X144987258Y-80072000D01*
X144888541Y-80080694D01*
X144825950Y-80124640D01*
X144784896Y-80230629D01*
X144750792Y-80425454D01*
X144735916Y-80533604D01*
X144702461Y-80701535D01*
X144661961Y-80795060D01*
X144640090Y-80802305D01*
X144593699Y-80726966D01*
X144530852Y-80567402D01*
X144481180Y-80411611D01*
X144419187Y-80231931D01*
X144362690Y-80124832D01*
X144329487Y-80111159D01*
X144285589Y-80197822D01*
X144219979Y-80366456D01*
X144159097Y-80543701D01*
X144036750Y-80920152D01*
X143943280Y-80496076D01*
X143888798Y-80269966D01*
X143840181Y-80141957D01*
X143781760Y-80084989D01*
X143697868Y-80072000D01*
X143697749Y-80072000D01*
X143588967Y-80090986D01*
X143588967Y-80090986D01*
G37*
X143588967Y-80090986D02*
X143576412Y-80172220D01*
X143587411Y-80214875D01*
X143622829Y-80341354D01*
X143680098Y-80551273D01*
X143748515Y-80805312D01*
X143768914Y-80881625D01*
X143861672Y-81183069D01*
X143947898Y-81359439D01*
X144031272Y-81412245D01*
X144115477Y-81343001D01*
X144204194Y-81153220D01*
X144232532Y-81072125D01*
X144343270Y-80738750D01*
X144449455Y-81056250D01*
X144545008Y-81285617D01*
X144636310Y-81388071D01*
X144724109Y-81363590D01*
X144809155Y-81212154D01*
X144863639Y-81044460D01*
X144938523Y-80783171D01*
X145017487Y-80520099D01*
X145057100Y-80394063D01*
X145110910Y-80223617D01*
X145143518Y-80112631D01*
X145148000Y-80092438D01*
X145093426Y-80077124D01*
X144987258Y-80072000D01*
X144888541Y-80080694D01*
X144825950Y-80124640D01*
X144784896Y-80230629D01*
X144750792Y-80425454D01*
X144735916Y-80533604D01*
X144702461Y-80701535D01*
X144661961Y-80795060D01*
X144640090Y-80802305D01*
X144593699Y-80726966D01*
X144530852Y-80567402D01*
X144481180Y-80411611D01*
X144419187Y-80231931D01*
X144362690Y-80124832D01*
X144329487Y-80111159D01*
X144285589Y-80197822D01*
X144219979Y-80366456D01*
X144159097Y-80543701D01*
X144036750Y-80920152D01*
X143943280Y-80496076D01*
X143888798Y-80269966D01*
X143840181Y-80141957D01*
X143781760Y-80084989D01*
X143697868Y-80072000D01*
X143697749Y-80072000D01*
X143588967Y-80090986D01*
G36*
X142501282Y-80076458D02*
X142457744Y-80104917D01*
X142432715Y-80180000D01*
X142421071Y-80324331D01*
X142417692Y-80560534D01*
X142417500Y-80738750D01*
X142418510Y-81035433D01*
X142424953Y-81227741D01*
X142441951Y-81338298D01*
X142474627Y-81389727D01*
X142528103Y-81404653D01*
X142568450Y-81405500D01*
X142659942Y-81395299D01*
X142698081Y-81342216D01*
X142696881Y-81212524D01*
X142687192Y-81119750D01*
X142654984Y-80834000D01*
X143196017Y-80834000D01*
X143163809Y-81119750D01*
X143149430Y-81295121D01*
X143168058Y-81378645D01*
X143233705Y-81404046D01*
X143282551Y-81405500D01*
X143349719Y-81401041D01*
X143393257Y-81372582D01*
X143418286Y-81297499D01*
X143429930Y-81153168D01*
X143433309Y-80916965D01*
X143433500Y-80738750D01*
X143432491Y-80442066D01*
X143426048Y-80249758D01*
X143409050Y-80139201D01*
X143376374Y-80087772D01*
X143322898Y-80072846D01*
X143282551Y-80072000D01*
X143191059Y-80082200D01*
X143152920Y-80135283D01*
X143154120Y-80264975D01*
X143163809Y-80357750D01*
X143196017Y-80643500D01*
X142654984Y-80643500D01*
X142687192Y-80357750D01*
X142701571Y-80182378D01*
X142682943Y-80098854D01*
X142617296Y-80073453D01*
X142568450Y-80072000D01*
X142501282Y-80076458D01*
X142501282Y-80076458D01*
G37*
X142501282Y-80076458D02*
X142457744Y-80104917D01*
X142432715Y-80180000D01*
X142421071Y-80324331D01*
X142417692Y-80560534D01*
X142417500Y-80738750D01*
X142418510Y-81035433D01*
X142424953Y-81227741D01*
X142441951Y-81338298D01*
X142474627Y-81389727D01*
X142528103Y-81404653D01*
X142568450Y-81405500D01*
X142659942Y-81395299D01*
X142698081Y-81342216D01*
X142696881Y-81212524D01*
X142687192Y-81119750D01*
X142654984Y-80834000D01*
X143196017Y-80834000D01*
X143163809Y-81119750D01*
X143149430Y-81295121D01*
X143168058Y-81378645D01*
X143233705Y-81404046D01*
X143282551Y-81405500D01*
X143349719Y-81401041D01*
X143393257Y-81372582D01*
X143418286Y-81297499D01*
X143429930Y-81153168D01*
X143433309Y-80916965D01*
X143433500Y-80738750D01*
X143432491Y-80442066D01*
X143426048Y-80249758D01*
X143409050Y-80139201D01*
X143376374Y-80087772D01*
X143322898Y-80072846D01*
X143282551Y-80072000D01*
X143191059Y-80082200D01*
X143152920Y-80135283D01*
X143154120Y-80264975D01*
X143163809Y-80357750D01*
X143196017Y-80643500D01*
X142654984Y-80643500D01*
X142687192Y-80357750D01*
X142701571Y-80182378D01*
X142682943Y-80098854D01*
X142617296Y-80073453D01*
X142568450Y-80072000D01*
X142501282Y-80076458D01*
G36*
X141570452Y-80164131D02*
X141488022Y-80323140D01*
X141376622Y-80547192D01*
X141269307Y-80768692D01*
X140964165Y-81405500D01*
X141143145Y-81405500D01*
X141275971Y-81383007D01*
X141341367Y-81289950D01*
X141361002Y-81211118D01*
X141398458Y-81084022D01*
X141470008Y-81034643D01*
X141619564Y-81035127D01*
X141636306Y-81036493D01*
X141802572Y-81067228D01*
X141884150Y-81140291D01*
X141909504Y-81215000D01*
X141982056Y-81345275D01*
X142125307Y-81394510D01*
X142244182Y-81393725D01*
X142278212Y-81362760D01*
X142241393Y-81287108D01*
X142161901Y-81122866D01*
X142052214Y-80895841D01*
X141964815Y-80714749D01*
X141714854Y-80714749D01*
X141663931Y-80767735D01*
X141629695Y-80770500D01*
X141567527Y-80723959D01*
X141575005Y-80638132D01*
X141612634Y-80553053D01*
X141660111Y-80585513D01*
X141663338Y-80590507D01*
X141714854Y-80714749D01*
X141964815Y-80714749D01*
X141950091Y-80684242D01*
X141825648Y-80435871D01*
X141719130Y-80241069D01*
X141642958Y-80121437D01*
X141611273Y-80095060D01*
X141570452Y-80164131D01*
X141570452Y-80164131D01*
G37*
X141570452Y-80164131D02*
X141488022Y-80323140D01*
X141376622Y-80547192D01*
X141269307Y-80768692D01*
X140964165Y-81405500D01*
X141143145Y-81405500D01*
X141275971Y-81383007D01*
X141341367Y-81289950D01*
X141361002Y-81211118D01*
X141398458Y-81084022D01*
X141470008Y-81034643D01*
X141619564Y-81035127D01*
X141636306Y-81036493D01*
X141802572Y-81067228D01*
X141884150Y-81140291D01*
X141909504Y-81215000D01*
X141982056Y-81345275D01*
X142125307Y-81394510D01*
X142244182Y-81393725D01*
X142278212Y-81362760D01*
X142241393Y-81287108D01*
X142161901Y-81122866D01*
X142052214Y-80895841D01*
X141964815Y-80714749D01*
X141714854Y-80714749D01*
X141663931Y-80767735D01*
X141629695Y-80770500D01*
X141567527Y-80723959D01*
X141575005Y-80638132D01*
X141612634Y-80553053D01*
X141660111Y-80585513D01*
X141663338Y-80590507D01*
X141714854Y-80714749D01*
X141964815Y-80714749D01*
X141950091Y-80684242D01*
X141825648Y-80435871D01*
X141719130Y-80241069D01*
X141642958Y-80121437D01*
X141611273Y-80095060D01*
X141570452Y-80164131D01*
G36*
X139246929Y-80516500D02*
X139094785Y-80715835D01*
X138970482Y-80868921D01*
X138893356Y-80952356D01*
X138879738Y-80961000D01*
X138866560Y-80903142D01*
X138866246Y-80750826D01*
X138878752Y-80535933D01*
X138880346Y-80516500D01*
X138897485Y-80284562D01*
X138895989Y-80151584D01*
X138869567Y-80090128D01*
X138811926Y-80072753D01*
X138778431Y-80072000D01*
X138716459Y-80078103D01*
X138676283Y-80111469D01*
X138653189Y-80194678D01*
X138642464Y-80350314D01*
X138639392Y-80600957D01*
X138639250Y-80738750D01*
X138640709Y-81035908D01*
X138648053Y-81228594D01*
X138665738Y-81339328D01*
X138698216Y-81390628D01*
X138749942Y-81405014D01*
X138771118Y-81405500D01*
X138894545Y-81348495D01*
X139061807Y-81176297D01*
X139183868Y-81017115D01*
X139464750Y-80628731D01*
X139483656Y-81017115D01*
X139499403Y-81233639D01*
X139526787Y-81351483D01*
X139576224Y-81398959D01*
X139626531Y-81405500D01*
X139685643Y-81395179D01*
X139722310Y-81348102D01*
X139741810Y-81240094D01*
X139749420Y-81046983D01*
X139750500Y-80837747D01*
X139761417Y-80518493D01*
X139792849Y-80305206D01*
X139842822Y-80203820D01*
X139909361Y-80220272D01*
X139941600Y-80263470D01*
X140036412Y-80314591D01*
X140125001Y-80309300D01*
X140188453Y-80299458D01*
X140227767Y-80325699D01*
X140248706Y-80410926D01*
X140257029Y-80578039D01*
X140258500Y-80839944D01*
X140259986Y-81108854D01*
X140268806Y-81275315D01*
X140291506Y-81363877D01*
X140334629Y-81399087D01*
X140404721Y-81405495D01*
X140409278Y-81405500D01*
X140480129Y-81401138D01*
X140522732Y-81371867D01*
X140542056Y-81293406D01*
X140543074Y-81141472D01*
X140530754Y-80891786D01*
X140527209Y-80829421D01*
X140494363Y-80253342D01*
X140721373Y-80295930D01*
X140869014Y-80316924D01*
X140923543Y-80293714D01*
X140915278Y-80211994D01*
X140913536Y-80205258D01*
X140889113Y-80145101D01*
X140837676Y-80106379D01*
X140735151Y-80084413D01*
X140557462Y-80074522D01*
X140280535Y-80072026D01*
X140228075Y-80072000D01*
X139577463Y-80072000D01*
X139246929Y-80516500D01*
X139246929Y-80516500D01*
G37*
X139246929Y-80516500D02*
X139094785Y-80715835D01*
X138970482Y-80868921D01*
X138893356Y-80952356D01*
X138879738Y-80961000D01*
X138866560Y-80903142D01*
X138866246Y-80750826D01*
X138878752Y-80535933D01*
X138880346Y-80516500D01*
X138897485Y-80284562D01*
X138895989Y-80151584D01*
X138869567Y-80090128D01*
X138811926Y-80072753D01*
X138778431Y-80072000D01*
X138716459Y-80078103D01*
X138676283Y-80111469D01*
X138653189Y-80194678D01*
X138642464Y-80350314D01*
X138639392Y-80600957D01*
X138639250Y-80738750D01*
X138640709Y-81035908D01*
X138648053Y-81228594D01*
X138665738Y-81339328D01*
X138698216Y-81390628D01*
X138749942Y-81405014D01*
X138771118Y-81405500D01*
X138894545Y-81348495D01*
X139061807Y-81176297D01*
X139183868Y-81017115D01*
X139464750Y-80628731D01*
X139483656Y-81017115D01*
X139499403Y-81233639D01*
X139526787Y-81351483D01*
X139576224Y-81398959D01*
X139626531Y-81405500D01*
X139685643Y-81395179D01*
X139722310Y-81348102D01*
X139741810Y-81240094D01*
X139749420Y-81046983D01*
X139750500Y-80837747D01*
X139761417Y-80518493D01*
X139792849Y-80305206D01*
X139842822Y-80203820D01*
X139909361Y-80220272D01*
X139941600Y-80263470D01*
X140036412Y-80314591D01*
X140125001Y-80309300D01*
X140188453Y-80299458D01*
X140227767Y-80325699D01*
X140248706Y-80410926D01*
X140257029Y-80578039D01*
X140258500Y-80839944D01*
X140259986Y-81108854D01*
X140268806Y-81275315D01*
X140291506Y-81363877D01*
X140334629Y-81399087D01*
X140404721Y-81405495D01*
X140409278Y-81405500D01*
X140480129Y-81401138D01*
X140522732Y-81371867D01*
X140542056Y-81293406D01*
X140543074Y-81141472D01*
X140530754Y-80891786D01*
X140527209Y-80829421D01*
X140494363Y-80253342D01*
X140721373Y-80295930D01*
X140869014Y-80316924D01*
X140923543Y-80293714D01*
X140915278Y-80211994D01*
X140913536Y-80205258D01*
X140889113Y-80145101D01*
X140837676Y-80106379D01*
X140735151Y-80084413D01*
X140557462Y-80074522D01*
X140280535Y-80072026D01*
X140228075Y-80072000D01*
X139577463Y-80072000D01*
X139246929Y-80516500D01*
G36*
X138210528Y-80077540D02*
X138169301Y-80109230D01*
X138145601Y-80189670D01*
X138134586Y-80341462D01*
X138131411Y-80587207D01*
X138131250Y-80738750D01*
X138132438Y-81035539D01*
X138139228Y-81227932D01*
X138156466Y-81338531D01*
X138188992Y-81389936D01*
X138241652Y-81404749D01*
X138274125Y-81405500D01*
X138337723Y-81399959D01*
X138378950Y-81368269D01*
X138402650Y-81287829D01*
X138413665Y-81136037D01*
X138416840Y-80890292D01*
X138417000Y-80738750D01*
X138415813Y-80441960D01*
X138409023Y-80249567D01*
X138391785Y-80138968D01*
X138359259Y-80087563D01*
X138306599Y-80072750D01*
X138274125Y-80072000D01*
X138210528Y-80077540D01*
X138210528Y-80077540D01*
G37*
X138210528Y-80077540D02*
X138169301Y-80109230D01*
X138145601Y-80189670D01*
X138134586Y-80341462D01*
X138131411Y-80587207D01*
X138131250Y-80738750D01*
X138132438Y-81035539D01*
X138139228Y-81227932D01*
X138156466Y-81338531D01*
X138188992Y-81389936D01*
X138241652Y-81404749D01*
X138274125Y-81405500D01*
X138337723Y-81399959D01*
X138378950Y-81368269D01*
X138402650Y-81287829D01*
X138413665Y-81136037D01*
X138416840Y-80890292D01*
X138417000Y-80738750D01*
X138415813Y-80441960D01*
X138409023Y-80249567D01*
X138391785Y-80138968D01*
X138359259Y-80087563D01*
X138306599Y-80072750D01*
X138274125Y-80072000D01*
X138210528Y-80077540D01*
G36*
X137058311Y-80095656D02*
X136932655Y-80166785D01*
X136893000Y-80270503D01*
X136916267Y-80364778D01*
X137002526Y-80357046D01*
X137004125Y-80356377D01*
X137266580Y-80292206D01*
X137476894Y-80332299D01*
X137619671Y-80468211D01*
X137679514Y-80691495D01*
X137680400Y-80727410D01*
X137630820Y-80971644D01*
X137498018Y-81138107D01*
X137305906Y-81211833D01*
X137078394Y-81177857D01*
X137010761Y-81146555D01*
X136917578Y-81111041D01*
X136897316Y-81167873D01*
X136903811Y-81225930D01*
X136931353Y-81314046D01*
X137004121Y-81362134D01*
X137155516Y-81385955D01*
X137257708Y-81392928D01*
X137470998Y-81395098D01*
X137609824Y-81361319D01*
X137724850Y-81277372D01*
X137747250Y-81255522D01*
X137917088Y-81010243D01*
X137963489Y-80744765D01*
X137886058Y-80470361D01*
X137780629Y-80306928D01*
X137632180Y-80182413D01*
X137440616Y-80104805D01*
X137238479Y-80075441D01*
X137058311Y-80095656D01*
X137058311Y-80095656D01*
G37*
X137058311Y-80095656D02*
X136932655Y-80166785D01*
X136893000Y-80270503D01*
X136916267Y-80364778D01*
X137002526Y-80357046D01*
X137004125Y-80356377D01*
X137266580Y-80292206D01*
X137476894Y-80332299D01*
X137619671Y-80468211D01*
X137679514Y-80691495D01*
X137680400Y-80727410D01*
X137630820Y-80971644D01*
X137498018Y-81138107D01*
X137305906Y-81211833D01*
X137078394Y-81177857D01*
X137010761Y-81146555D01*
X136917578Y-81111041D01*
X136897316Y-81167873D01*
X136903811Y-81225930D01*
X136931353Y-81314046D01*
X137004121Y-81362134D01*
X137155516Y-81385955D01*
X137257708Y-81392928D01*
X137470998Y-81395098D01*
X137609824Y-81361319D01*
X137724850Y-81277372D01*
X137747250Y-81255522D01*
X137917088Y-81010243D01*
X137963489Y-80744765D01*
X137886058Y-80470361D01*
X137780629Y-80306928D01*
X137632180Y-80182413D01*
X137440616Y-80104805D01*
X137238479Y-80075441D01*
X137058311Y-80095656D01*
G36*
X136500406Y-80080658D02*
X136460274Y-80129720D01*
X136465411Y-80253813D01*
X136478040Y-80341875D01*
X136518743Y-80611750D01*
X136326580Y-80389500D01*
X136211560Y-80247390D01*
X136141974Y-80143938D01*
X136132709Y-80119625D01*
X136076063Y-80086504D01*
X135941463Y-80072024D01*
X135935104Y-80072000D01*
X135739207Y-80072000D01*
X135998787Y-80366898D01*
X136143342Y-80551371D01*
X136209837Y-80683231D01*
X136206044Y-80732023D01*
X136140092Y-80817057D01*
X136022944Y-80965263D01*
X135912461Y-81103875D01*
X135671202Y-81405500D01*
X135864172Y-81405500D01*
X136017489Y-81376585D01*
X136136912Y-81269291D01*
X136190089Y-81190388D01*
X136303857Y-81027088D01*
X136412378Y-80902645D01*
X136428017Y-80888763D01*
X136489091Y-80848698D01*
X136512684Y-80878415D01*
X136505375Y-81000039D01*
X136491965Y-81103875D01*
X136471573Y-81285072D01*
X136483755Y-81373769D01*
X136541230Y-81402902D01*
X136608465Y-81405500D01*
X136766000Y-81405500D01*
X136766000Y-80072000D01*
X136601669Y-80072000D01*
X136500406Y-80080658D01*
X136500406Y-80080658D01*
G37*
X136500406Y-80080658D02*
X136460274Y-80129720D01*
X136465411Y-80253813D01*
X136478040Y-80341875D01*
X136518743Y-80611750D01*
X136326580Y-80389500D01*
X136211560Y-80247390D01*
X136141974Y-80143938D01*
X136132709Y-80119625D01*
X136076063Y-80086504D01*
X135941463Y-80072024D01*
X135935104Y-80072000D01*
X135739207Y-80072000D01*
X135998787Y-80366898D01*
X136143342Y-80551371D01*
X136209837Y-80683231D01*
X136206044Y-80732023D01*
X136140092Y-80817057D01*
X136022944Y-80965263D01*
X135912461Y-81103875D01*
X135671202Y-81405500D01*
X135864172Y-81405500D01*
X136017489Y-81376585D01*
X136136912Y-81269291D01*
X136190089Y-81190388D01*
X136303857Y-81027088D01*
X136412378Y-80902645D01*
X136428017Y-80888763D01*
X136489091Y-80848698D01*
X136512684Y-80878415D01*
X136505375Y-81000039D01*
X136491965Y-81103875D01*
X136471573Y-81285072D01*
X136483755Y-81373769D01*
X136541230Y-81402902D01*
X136608465Y-81405500D01*
X136766000Y-81405500D01*
X136766000Y-80072000D01*
X136601669Y-80072000D01*
X136500406Y-80080658D01*
G36*
X140831034Y-75646447D02*
X140783221Y-75760933D01*
X140767210Y-75983977D01*
X140766500Y-76075779D01*
X140768576Y-76308501D01*
X140780622Y-76439031D01*
X140811369Y-76492172D01*
X140869545Y-76492724D01*
X140909375Y-76481714D01*
X141064577Y-76410279D01*
X141142099Y-76353568D01*
X141221474Y-76307097D01*
X141318612Y-76335319D01*
X141411690Y-76396255D01*
X141591433Y-76524243D01*
X141208327Y-77027511D01*
X140954609Y-77333070D01*
X140735868Y-77522834D01*
X140535733Y-77596754D01*
X140337838Y-77554776D01*
X140125812Y-77396850D01*
X139883288Y-77122926D01*
X139805928Y-77023118D01*
X139638956Y-76800562D01*
X139539799Y-76654640D01*
X139498629Y-76561480D01*
X139505621Y-76497214D01*
X139550949Y-76437971D01*
X139560808Y-76427667D01*
X139641546Y-76356522D01*
X139723163Y-76340898D01*
X139853003Y-76378831D01*
X139937745Y-76412038D01*
X140102704Y-76472011D01*
X140188143Y-76479334D01*
X140229624Y-76435077D01*
X140235443Y-76420995D01*
X140322124Y-76340474D01*
X140392294Y-76325500D01*
X140491459Y-76283921D01*
X140512500Y-76230250D01*
X140459561Y-76152678D01*
X140385500Y-76135000D01*
X140282315Y-76108407D01*
X140258500Y-76071500D01*
X140311685Y-76019907D01*
X140385500Y-76008000D01*
X140488929Y-75968295D01*
X140512500Y-75912750D01*
X140459561Y-75835178D01*
X140385500Y-75817500D01*
X140279846Y-75774894D01*
X140258500Y-75715366D01*
X140213989Y-75647752D01*
X140098972Y-75651888D01*
X139941223Y-75719088D01*
X139768516Y-75840666D01*
X139721086Y-75883435D01*
X139557143Y-76034822D01*
X139356138Y-76214094D01*
X139253777Y-76303121D01*
X138948772Y-76640580D01*
X138749857Y-77022713D01*
X138652847Y-77431202D01*
X138653555Y-77847728D01*
X138747795Y-78253975D01*
X138931379Y-78631624D01*
X139200122Y-78962357D01*
X139549837Y-79227858D01*
X139962917Y-79405875D01*
X140441818Y-79489995D01*
X140906288Y-79450635D01*
X141069917Y-79407172D01*
X141480295Y-79214308D01*
X141843305Y-78913384D01*
X142140924Y-78519904D01*
X142179424Y-78452750D01*
X142254062Y-78289573D01*
X142297605Y-78108742D01*
X142317338Y-77869374D01*
X142320858Y-77659000D01*
X142303427Y-77419923D01*
X142027965Y-77419923D01*
X142023046Y-77812634D01*
X141930271Y-78198645D01*
X141758082Y-78544094D01*
X141514920Y-78815116D01*
X141493424Y-78831981D01*
X141112842Y-79048873D01*
X140697775Y-79157196D01*
X140274185Y-79155019D01*
X139868036Y-79040410D01*
X139718601Y-78964019D01*
X139393056Y-78706477D01*
X139151953Y-78378254D01*
X139003047Y-78003923D01*
X138954091Y-77608056D01*
X139012841Y-77215226D01*
X139098706Y-76999680D01*
X139190995Y-76816611D01*
X139349924Y-77094930D01*
X139561455Y-77480147D01*
X139714764Y-77799877D01*
X139825522Y-78091923D01*
X139909395Y-78394093D01*
X139934443Y-78505258D01*
X139991516Y-78758257D01*
X140039425Y-78914462D01*
X140093698Y-79001654D01*
X140169863Y-79047617D01*
X140251122Y-79071855D01*
X140451864Y-79094139D01*
X140680725Y-79080215D01*
X140719586Y-79073463D01*
X140981761Y-79021615D01*
X141062561Y-78583820D01*
X141158249Y-78220485D01*
X141314359Y-77802791D01*
X141512271Y-77375781D01*
X141704586Y-77030747D01*
X141836669Y-76815244D01*
X141936585Y-77054377D01*
X142027965Y-77419923D01*
X142303427Y-77419923D01*
X142287663Y-77203722D01*
X142178544Y-76832198D01*
X141983109Y-76519394D01*
X141752840Y-76290568D01*
X141559661Y-76127405D01*
X141370627Y-75966581D01*
X141306250Y-75911413D01*
X141078452Y-75725979D01*
X140924745Y-75636226D01*
X140831034Y-75646447D01*
X140831034Y-75646447D01*
G37*
X140831034Y-75646447D02*
X140783221Y-75760933D01*
X140767210Y-75983977D01*
X140766500Y-76075779D01*
X140768576Y-76308501D01*
X140780622Y-76439031D01*
X140811369Y-76492172D01*
X140869545Y-76492724D01*
X140909375Y-76481714D01*
X141064577Y-76410279D01*
X141142099Y-76353568D01*
X141221474Y-76307097D01*
X141318612Y-76335319D01*
X141411690Y-76396255D01*
X141591433Y-76524243D01*
X141208327Y-77027511D01*
X140954609Y-77333070D01*
X140735868Y-77522834D01*
X140535733Y-77596754D01*
X140337838Y-77554776D01*
X140125812Y-77396850D01*
X139883288Y-77122926D01*
X139805928Y-77023118D01*
X139638956Y-76800562D01*
X139539799Y-76654640D01*
X139498629Y-76561480D01*
X139505621Y-76497214D01*
X139550949Y-76437971D01*
X139560808Y-76427667D01*
X139641546Y-76356522D01*
X139723163Y-76340898D01*
X139853003Y-76378831D01*
X139937745Y-76412038D01*
X140102704Y-76472011D01*
X140188143Y-76479334D01*
X140229624Y-76435077D01*
X140235443Y-76420995D01*
X140322124Y-76340474D01*
X140392294Y-76325500D01*
X140491459Y-76283921D01*
X140512500Y-76230250D01*
X140459561Y-76152678D01*
X140385500Y-76135000D01*
X140282315Y-76108407D01*
X140258500Y-76071500D01*
X140311685Y-76019907D01*
X140385500Y-76008000D01*
X140488929Y-75968295D01*
X140512500Y-75912750D01*
X140459561Y-75835178D01*
X140385500Y-75817500D01*
X140279846Y-75774894D01*
X140258500Y-75715366D01*
X140213989Y-75647752D01*
X140098972Y-75651888D01*
X139941223Y-75719088D01*
X139768516Y-75840666D01*
X139721086Y-75883435D01*
X139557143Y-76034822D01*
X139356138Y-76214094D01*
X139253777Y-76303121D01*
X138948772Y-76640580D01*
X138749857Y-77022713D01*
X138652847Y-77431202D01*
X138653555Y-77847728D01*
X138747795Y-78253975D01*
X138931379Y-78631624D01*
X139200122Y-78962357D01*
X139549837Y-79227858D01*
X139962917Y-79405875D01*
X140441818Y-79489995D01*
X140906288Y-79450635D01*
X141069917Y-79407172D01*
X141480295Y-79214308D01*
X141843305Y-78913384D01*
X142140924Y-78519904D01*
X142179424Y-78452750D01*
X142254062Y-78289573D01*
X142297605Y-78108742D01*
X142317338Y-77869374D01*
X142320858Y-77659000D01*
X142303427Y-77419923D01*
X142027965Y-77419923D01*
X142023046Y-77812634D01*
X141930271Y-78198645D01*
X141758082Y-78544094D01*
X141514920Y-78815116D01*
X141493424Y-78831981D01*
X141112842Y-79048873D01*
X140697775Y-79157196D01*
X140274185Y-79155019D01*
X139868036Y-79040410D01*
X139718601Y-78964019D01*
X139393056Y-78706477D01*
X139151953Y-78378254D01*
X139003047Y-78003923D01*
X138954091Y-77608056D01*
X139012841Y-77215226D01*
X139098706Y-76999680D01*
X139190995Y-76816611D01*
X139349924Y-77094930D01*
X139561455Y-77480147D01*
X139714764Y-77799877D01*
X139825522Y-78091923D01*
X139909395Y-78394093D01*
X139934443Y-78505258D01*
X139991516Y-78758257D01*
X140039425Y-78914462D01*
X140093698Y-79001654D01*
X140169863Y-79047617D01*
X140251122Y-79071855D01*
X140451864Y-79094139D01*
X140680725Y-79080215D01*
X140719586Y-79073463D01*
X140981761Y-79021615D01*
X141062561Y-78583820D01*
X141158249Y-78220485D01*
X141314359Y-77802791D01*
X141512271Y-77375781D01*
X141704586Y-77030747D01*
X141836669Y-76815244D01*
X141936585Y-77054377D01*
X142027965Y-77419923D01*
X142303427Y-77419923D01*
X142287663Y-77203722D01*
X142178544Y-76832198D01*
X141983109Y-76519394D01*
X141752840Y-76290568D01*
X141559661Y-76127405D01*
X141370627Y-75966581D01*
X141306250Y-75911413D01*
X141078452Y-75725979D01*
X140924745Y-75636226D01*
X140831034Y-75646447D01*
G36*
X140320753Y-76739818D02*
X140192372Y-76854325D01*
X140140998Y-76940467D01*
X140099996Y-77124860D01*
X140157163Y-77287096D01*
X140283723Y-77408867D01*
X140450903Y-77471867D01*
X140629929Y-77457789D01*
X140788409Y-77352374D01*
X140882383Y-77170547D01*
X140874282Y-76980893D01*
X140779703Y-76819214D01*
X140614238Y-76721311D01*
X140507500Y-76707472D01*
X140320753Y-76739818D01*
X140320753Y-76739818D01*
G37*
X140320753Y-76739818D02*
X140192372Y-76854325D01*
X140140998Y-76940467D01*
X140099996Y-77124860D01*
X140157163Y-77287096D01*
X140283723Y-77408867D01*
X140450903Y-77471867D01*
X140629929Y-77457789D01*
X140788409Y-77352374D01*
X140882383Y-77170547D01*
X140874282Y-76980893D01*
X140779703Y-76819214D01*
X140614238Y-76721311D01*
X140507500Y-76707472D01*
X140320753Y-76739818D01*
G36*
X141346461Y-74838002D02*
X141159143Y-74950484D01*
X141021906Y-75055778D01*
X140972028Y-75117252D01*
X140908054Y-75226957D01*
X140795364Y-75368681D01*
X140777062Y-75388875D01*
X140680627Y-75507216D01*
X140678645Y-75553115D01*
X140773906Y-75526393D01*
X140969202Y-75426867D01*
X141070309Y-75369872D01*
X141241145Y-75258534D01*
X141346398Y-75163253D01*
X141364997Y-75111308D01*
X141378863Y-75028434D01*
X141462620Y-74899987D01*
X141505689Y-74850465D01*
X141687250Y-74655752D01*
X141346461Y-74838002D01*
X141346461Y-74838002D01*
G37*
X141346461Y-74838002D02*
X141159143Y-74950484D01*
X141021906Y-75055778D01*
X140972028Y-75117252D01*
X140908054Y-75226957D01*
X140795364Y-75368681D01*
X140777062Y-75388875D01*
X140680627Y-75507216D01*
X140678645Y-75553115D01*
X140773906Y-75526393D01*
X140969202Y-75426867D01*
X141070309Y-75369872D01*
X141241145Y-75258534D01*
X141346398Y-75163253D01*
X141364997Y-75111308D01*
X141378863Y-75028434D01*
X141462620Y-74899987D01*
X141505689Y-74850465D01*
X141687250Y-74655752D01*
X141346461Y-74838002D01*
G36*
X139344979Y-74714812D02*
X139421410Y-74815546D01*
X139489582Y-74889612D01*
X139613692Y-75038105D01*
X139634109Y-75119676D01*
X139616653Y-75131865D01*
X139630757Y-75170684D01*
X139725472Y-75249359D01*
X139869400Y-75347882D01*
X140031147Y-75446245D01*
X140179317Y-75524442D01*
X140282512Y-75562466D01*
X140293985Y-75563500D01*
X140287556Y-75523820D01*
X140210255Y-75424002D01*
X140163885Y-75373662D01*
X140061135Y-75246809D01*
X140021255Y-75156026D01*
X140026627Y-75139206D01*
X139999012Y-75089427D01*
X139893280Y-74999342D01*
X139741980Y-74890950D01*
X139577662Y-74786250D01*
X139432876Y-74707240D01*
X139341169Y-74675934D01*
X139344979Y-74714812D01*
X139344979Y-74714812D01*
G37*
X139344979Y-74714812D02*
X139421410Y-74815546D01*
X139489582Y-74889612D01*
X139613692Y-75038105D01*
X139634109Y-75119676D01*
X139616653Y-75131865D01*
X139630757Y-75170684D01*
X139725472Y-75249359D01*
X139869400Y-75347882D01*
X140031147Y-75446245D01*
X140179317Y-75524442D01*
X140282512Y-75562466D01*
X140293985Y-75563500D01*
X140287556Y-75523820D01*
X140210255Y-75424002D01*
X140163885Y-75373662D01*
X140061135Y-75246809D01*
X140021255Y-75156026D01*
X140026627Y-75139206D01*
X139999012Y-75089427D01*
X139893280Y-74999342D01*
X139741980Y-74890950D01*
X139577662Y-74786250D01*
X139432876Y-74707240D01*
X139341169Y-74675934D01*
X139344979Y-74714812D01*
D13*
X138050000Y-63490000D02*
X138050000Y-67310000D01*
X138050000Y-67310000D02*
X136270000Y-67310000D01*
X136270000Y-67310000D02*
X136270000Y-63490000D01*
X138050000Y-63490000D02*
X136270000Y-63490000D01*
X136270000Y-74560000D02*
X138050000Y-74560000D01*
X138050000Y-70740000D02*
X138050000Y-74560000D01*
X136270000Y-70740000D02*
X138050000Y-70740000D01*
X136270000Y-74560000D02*
X136270000Y-70740000D01*
X138270000Y-67310000D02*
X140050000Y-67310000D01*
X140050000Y-63490000D02*
X140050000Y-67310000D01*
X138270000Y-63490000D02*
X140050000Y-63490000D01*
X138270000Y-67310000D02*
X138270000Y-63490000D01*
D14*
X154907000Y-62541000D02*
X135157000Y-62541000D01*
X135157000Y-62541000D02*
X135157000Y-58341000D01*
X135157000Y-58341000D02*
X156857000Y-58341000D01*
X156857000Y-58341000D02*
X156857000Y-61341000D01*
D13*
X153300000Y-71990000D02*
X151520000Y-71990000D01*
X151520000Y-75810000D02*
X151520000Y-71990000D01*
X153300000Y-75810000D02*
X151520000Y-75810000D01*
X153300000Y-71990000D02*
X153300000Y-75810000D01*
X153520000Y-75810000D02*
X153520000Y-71990000D01*
X153520000Y-71990000D02*
X155300000Y-71990000D01*
X155300000Y-71990000D02*
X155300000Y-75810000D01*
X153520000Y-75810000D02*
X155300000Y-75810000D01*
X155300000Y-64740000D02*
X153520000Y-64740000D01*
X153520000Y-68560000D02*
X153520000Y-64740000D01*
X155300000Y-68560000D02*
X153520000Y-68560000D01*
X155300000Y-64740000D02*
X155300000Y-68560000D01*
D15*
X142350476Y-70376190D02*
X142350476Y-69876190D01*
X141826666Y-70376190D02*
X141993333Y-70138095D01*
X142112380Y-70376190D02*
X142112380Y-69876190D01*
X141921904Y-69876190D01*
X141874285Y-69900000D01*
X141850476Y-69923809D01*
X141826666Y-69971428D01*
X141826666Y-70042857D01*
X141850476Y-70090476D01*
X141874285Y-70114285D01*
X141921904Y-70138095D01*
X142112380Y-70138095D01*
X141279047Y-70423809D02*
X141326666Y-70400000D01*
X141374285Y-70352380D01*
X141445714Y-70280952D01*
X141493333Y-70257142D01*
X141540952Y-70257142D01*
X141517142Y-70376190D02*
X141564761Y-70352380D01*
X141612380Y-70304761D01*
X141636190Y-70209523D01*
X141636190Y-70042857D01*
X141612380Y-69947619D01*
X141564761Y-69900000D01*
X141517142Y-69876190D01*
X141421904Y-69876190D01*
X141374285Y-69900000D01*
X141326666Y-69947619D01*
X141302857Y-70042857D01*
X141302857Y-70209523D01*
X141326666Y-70304761D01*
X141374285Y-70352380D01*
X141421904Y-70376190D01*
X141517142Y-70376190D01*
X141207619Y-70423809D02*
X140826666Y-70423809D01*
X140445714Y-70376190D02*
X140731428Y-70376190D01*
X140588571Y-70376190D02*
X140588571Y-69876190D01*
X140636190Y-69947619D01*
X140683809Y-69995238D01*
X140731428Y-70019047D01*
X141993333Y-68626190D02*
X141660000Y-68626190D01*
X141993333Y-69126190D01*
X141660000Y-69126190D01*
X141517142Y-68626190D02*
X141183809Y-69126190D01*
X141183809Y-68626190D02*
X141517142Y-69126190D01*
X141112380Y-69173809D02*
X140731428Y-69173809D01*
X140350476Y-69126190D02*
X140636190Y-69126190D01*
X140493333Y-69126190D02*
X140493333Y-68626190D01*
X140540952Y-68697619D01*
X140588571Y-68745238D01*
X140636190Y-68769047D01*
X143029047Y-73626190D02*
X142910000Y-74126190D01*
X142814761Y-73769047D01*
X142719523Y-74126190D01*
X142600476Y-73626190D01*
X142433809Y-73983333D02*
X142195714Y-73983333D01*
X142481428Y-74126190D02*
X142314761Y-73626190D01*
X142148095Y-74126190D01*
X141695714Y-74126190D02*
X141862380Y-73888095D01*
X141981428Y-74126190D02*
X141981428Y-73626190D01*
X141790952Y-73626190D01*
X141743333Y-73650000D01*
X141719523Y-73673809D01*
X141695714Y-73721428D01*
X141695714Y-73792857D01*
X141719523Y-73840476D01*
X141743333Y-73864285D01*
X141790952Y-73888095D01*
X141981428Y-73888095D01*
X141481428Y-74126190D02*
X141481428Y-73626190D01*
X141195714Y-74126190D01*
X141195714Y-73626190D01*
X141076666Y-74173809D02*
X140695714Y-74173809D01*
X140314761Y-74126190D02*
X140600476Y-74126190D01*
X140457619Y-74126190D02*
X140457619Y-73626190D01*
X140505238Y-73697619D01*
X140552857Y-73745238D01*
X140600476Y-73769047D01*
X142136190Y-72828571D02*
X142160000Y-72852380D01*
X142231428Y-72876190D01*
X142279047Y-72876190D01*
X142350476Y-72852380D01*
X142398095Y-72804761D01*
X142421904Y-72757142D01*
X142445714Y-72661904D01*
X142445714Y-72590476D01*
X142421904Y-72495238D01*
X142398095Y-72447619D01*
X142350476Y-72400000D01*
X142279047Y-72376190D01*
X142231428Y-72376190D01*
X142160000Y-72400000D01*
X142136190Y-72423809D01*
X141755238Y-72614285D02*
X141921904Y-72614285D01*
X141921904Y-72876190D02*
X141921904Y-72376190D01*
X141683809Y-72376190D01*
X141231428Y-72876190D02*
X141517142Y-72876190D01*
X141374285Y-72876190D02*
X141374285Y-72376190D01*
X141421904Y-72447619D01*
X141469523Y-72495238D01*
X141517142Y-72519047D01*
X141136190Y-72923809D02*
X140755238Y-72923809D01*
X140374285Y-72876190D02*
X140660000Y-72876190D01*
X140517142Y-72876190D02*
X140517142Y-72376190D01*
X140564761Y-72447619D01*
X140612380Y-72495238D01*
X140660000Y-72519047D01*
X142136190Y-71578571D02*
X142160000Y-71602380D01*
X142231428Y-71626190D01*
X142279047Y-71626190D01*
X142350476Y-71602380D01*
X142398095Y-71554761D01*
X142421904Y-71507142D01*
X142445714Y-71411904D01*
X142445714Y-71340476D01*
X142421904Y-71245238D01*
X142398095Y-71197619D01*
X142350476Y-71150000D01*
X142279047Y-71126190D01*
X142231428Y-71126190D01*
X142160000Y-71150000D01*
X142136190Y-71173809D01*
X141755238Y-71364285D02*
X141921904Y-71364285D01*
X141921904Y-71626190D02*
X141921904Y-71126190D01*
X141683809Y-71126190D01*
X141517142Y-71173809D02*
X141493333Y-71150000D01*
X141445714Y-71126190D01*
X141326666Y-71126190D01*
X141279047Y-71150000D01*
X141255238Y-71173809D01*
X141231428Y-71221428D01*
X141231428Y-71269047D01*
X141255238Y-71340476D01*
X141540952Y-71626190D01*
X141231428Y-71626190D01*
X141136190Y-71673809D02*
X140755238Y-71673809D01*
X140374285Y-71626190D02*
X140660000Y-71626190D01*
X140517142Y-71626190D02*
X140517142Y-71126190D01*
X140564761Y-71197619D01*
X140612380Y-71245238D01*
X140660000Y-71269047D01*
X151243333Y-70126190D02*
X150910000Y-70126190D01*
X151243333Y-70626190D01*
X150910000Y-70626190D01*
X150767142Y-70126190D02*
X150433809Y-70626190D01*
X150433809Y-70126190D02*
X150767142Y-70626190D01*
X150362380Y-70673809D02*
X149981428Y-70673809D01*
X149767142Y-70126190D02*
X149719523Y-70126190D01*
X149671904Y-70150000D01*
X149648095Y-70173809D01*
X149624285Y-70221428D01*
X149600476Y-70316666D01*
X149600476Y-70435714D01*
X149624285Y-70530952D01*
X149648095Y-70578571D01*
X149671904Y-70602380D01*
X149719523Y-70626190D01*
X149767142Y-70626190D01*
X149814761Y-70602380D01*
X149838571Y-70578571D01*
X149862380Y-70530952D01*
X149886190Y-70435714D01*
X149886190Y-70316666D01*
X149862380Y-70221428D01*
X149838571Y-70173809D01*
X149814761Y-70150000D01*
X149767142Y-70126190D01*
X151100476Y-69376190D02*
X151100476Y-68876190D01*
X150576666Y-69376190D02*
X150743333Y-69138095D01*
X150862380Y-69376190D02*
X150862380Y-68876190D01*
X150671904Y-68876190D01*
X150624285Y-68900000D01*
X150600476Y-68923809D01*
X150576666Y-68971428D01*
X150576666Y-69042857D01*
X150600476Y-69090476D01*
X150624285Y-69114285D01*
X150671904Y-69138095D01*
X150862380Y-69138095D01*
X150029047Y-69423809D02*
X150076666Y-69400000D01*
X150124285Y-69352380D01*
X150195714Y-69280952D01*
X150243333Y-69257142D01*
X150290952Y-69257142D01*
X150267142Y-69376190D02*
X150314761Y-69352380D01*
X150362380Y-69304761D01*
X150386190Y-69209523D01*
X150386190Y-69042857D01*
X150362380Y-68947619D01*
X150314761Y-68900000D01*
X150267142Y-68876190D01*
X150171904Y-68876190D01*
X150124285Y-68900000D01*
X150076666Y-68947619D01*
X150052857Y-69042857D01*
X150052857Y-69209523D01*
X150076666Y-69304761D01*
X150124285Y-69352380D01*
X150171904Y-69376190D01*
X150267142Y-69376190D01*
X149957619Y-69423809D02*
X149576666Y-69423809D01*
X149362380Y-68876190D02*
X149314761Y-68876190D01*
X149267142Y-68900000D01*
X149243333Y-68923809D01*
X149219523Y-68971428D01*
X149195714Y-69066666D01*
X149195714Y-69185714D01*
X149219523Y-69280952D01*
X149243333Y-69328571D01*
X149267142Y-69352380D01*
X149314761Y-69376190D01*
X149362380Y-69376190D01*
X149410000Y-69352380D01*
X149433809Y-69328571D01*
X149457619Y-69280952D01*
X149481428Y-69185714D01*
X149481428Y-69066666D01*
X149457619Y-68971428D01*
X149433809Y-68923809D01*
X149410000Y-68900000D01*
X149362380Y-68876190D01*
X150886190Y-68078571D02*
X150910000Y-68102380D01*
X150981428Y-68126190D01*
X151029047Y-68126190D01*
X151100476Y-68102380D01*
X151148095Y-68054761D01*
X151171904Y-68007142D01*
X151195714Y-67911904D01*
X151195714Y-67840476D01*
X151171904Y-67745238D01*
X151148095Y-67697619D01*
X151100476Y-67650000D01*
X151029047Y-67626190D01*
X150981428Y-67626190D01*
X150910000Y-67650000D01*
X150886190Y-67673809D01*
X150505238Y-67864285D02*
X150671904Y-67864285D01*
X150671904Y-68126190D02*
X150671904Y-67626190D01*
X150433809Y-67626190D01*
X150267142Y-67673809D02*
X150243333Y-67650000D01*
X150195714Y-67626190D01*
X150076666Y-67626190D01*
X150029047Y-67650000D01*
X150005238Y-67673809D01*
X149981428Y-67721428D01*
X149981428Y-67769047D01*
X150005238Y-67840476D01*
X150290952Y-68126190D01*
X149981428Y-68126190D01*
X149886190Y-68173809D02*
X149505238Y-68173809D01*
X149290952Y-67626190D02*
X149243333Y-67626190D01*
X149195714Y-67650000D01*
X149171904Y-67673809D01*
X149148095Y-67721428D01*
X149124285Y-67816666D01*
X149124285Y-67935714D01*
X149148095Y-68030952D01*
X149171904Y-68078571D01*
X149195714Y-68102380D01*
X149243333Y-68126190D01*
X149290952Y-68126190D01*
X149338571Y-68102380D01*
X149362380Y-68078571D01*
X149386190Y-68030952D01*
X149410000Y-67935714D01*
X149410000Y-67816666D01*
X149386190Y-67721428D01*
X149362380Y-67673809D01*
X149338571Y-67650000D01*
X149290952Y-67626190D01*
X150886190Y-66828571D02*
X150910000Y-66852380D01*
X150981428Y-66876190D01*
X151029047Y-66876190D01*
X151100476Y-66852380D01*
X151148095Y-66804761D01*
X151171904Y-66757142D01*
X151195714Y-66661904D01*
X151195714Y-66590476D01*
X151171904Y-66495238D01*
X151148095Y-66447619D01*
X151100476Y-66400000D01*
X151029047Y-66376190D01*
X150981428Y-66376190D01*
X150910000Y-66400000D01*
X150886190Y-66423809D01*
X150505238Y-66614285D02*
X150671904Y-66614285D01*
X150671904Y-66876190D02*
X150671904Y-66376190D01*
X150433809Y-66376190D01*
X149981428Y-66876190D02*
X150267142Y-66876190D01*
X150124285Y-66876190D02*
X150124285Y-66376190D01*
X150171904Y-66447619D01*
X150219523Y-66495238D01*
X150267142Y-66519047D01*
X149886190Y-66923809D02*
X149505238Y-66923809D01*
X149290952Y-66376190D02*
X149243333Y-66376190D01*
X149195714Y-66400000D01*
X149171904Y-66423809D01*
X149148095Y-66471428D01*
X149124285Y-66566666D01*
X149124285Y-66685714D01*
X149148095Y-66780952D01*
X149171904Y-66828571D01*
X149195714Y-66852380D01*
X149243333Y-66876190D01*
X149290952Y-66876190D01*
X149338571Y-66852380D01*
X149362380Y-66828571D01*
X149386190Y-66780952D01*
X149410000Y-66685714D01*
X149410000Y-66566666D01*
X149386190Y-66471428D01*
X149362380Y-66423809D01*
X149338571Y-66400000D01*
X149290952Y-66376190D01*
X151279047Y-65126190D02*
X151160000Y-65626190D01*
X151064761Y-65269047D01*
X150969523Y-65626190D01*
X150850476Y-65126190D01*
X150683809Y-65483333D02*
X150445714Y-65483333D01*
X150731428Y-65626190D02*
X150564761Y-65126190D01*
X150398095Y-65626190D01*
X149945714Y-65626190D02*
X150112380Y-65388095D01*
X150231428Y-65626190D02*
X150231428Y-65126190D01*
X150040952Y-65126190D01*
X149993333Y-65150000D01*
X149969523Y-65173809D01*
X149945714Y-65221428D01*
X149945714Y-65292857D01*
X149969523Y-65340476D01*
X149993333Y-65364285D01*
X150040952Y-65388095D01*
X150231428Y-65388095D01*
X149731428Y-65626190D02*
X149731428Y-65126190D01*
X149445714Y-65626190D01*
X149445714Y-65126190D01*
X149326666Y-65673809D02*
X148945714Y-65673809D01*
X148731428Y-65126190D02*
X148683809Y-65126190D01*
X148636190Y-65150000D01*
X148612380Y-65173809D01*
X148588571Y-65221428D01*
X148564761Y-65316666D01*
X148564761Y-65435714D01*
X148588571Y-65530952D01*
X148612380Y-65578571D01*
X148636190Y-65602380D01*
X148683809Y-65626190D01*
X148731428Y-65626190D01*
X148779047Y-65602380D01*
X148802857Y-65578571D01*
X148826666Y-65530952D01*
X148850476Y-65435714D01*
X148850476Y-65316666D01*
X148826666Y-65221428D01*
X148802857Y-65173809D01*
X148779047Y-65150000D01*
X148731428Y-65126190D01*
X137326666Y-67539190D02*
X137326666Y-67896333D01*
X137350476Y-67967761D01*
X137398095Y-68015380D01*
X137469523Y-68039190D01*
X137517142Y-68039190D01*
X137112380Y-67586809D02*
X137088571Y-67563000D01*
X137040952Y-67539190D01*
X136921904Y-67539190D01*
X136874285Y-67563000D01*
X136850476Y-67586809D01*
X136826666Y-67634428D01*
X136826666Y-67682047D01*
X136850476Y-67753476D01*
X137136190Y-68039190D01*
X136826666Y-68039190D01*
X137326666Y-69836190D02*
X137326666Y-70193333D01*
X137350476Y-70264761D01*
X137398095Y-70312380D01*
X137469523Y-70336190D01*
X137517142Y-70336190D01*
X136826666Y-70336190D02*
X137112380Y-70336190D01*
X136969523Y-70336190D02*
X136969523Y-69836190D01*
X137017142Y-69907619D01*
X137064761Y-69955238D01*
X137112380Y-69979047D01*
X139199666Y-67539190D02*
X139199666Y-67896333D01*
X139223476Y-67967761D01*
X139271095Y-68015380D01*
X139342523Y-68039190D01*
X139390142Y-68039190D01*
X139009190Y-67539190D02*
X138699666Y-67539190D01*
X138866333Y-67729666D01*
X138794904Y-67729666D01*
X138747285Y-67753476D01*
X138723476Y-67777285D01*
X138699666Y-67824904D01*
X138699666Y-67943952D01*
X138723476Y-67991571D01*
X138747285Y-68015380D01*
X138794904Y-68039190D01*
X138937761Y-68039190D01*
X138985380Y-68015380D01*
X139009190Y-67991571D01*
X155073666Y-61067190D02*
X155073666Y-61424333D01*
X155097476Y-61495761D01*
X155145095Y-61543380D01*
X155216523Y-61567190D01*
X155264142Y-61567190D01*
X154597476Y-61067190D02*
X154835571Y-61067190D01*
X154859380Y-61305285D01*
X154835571Y-61281476D01*
X154787952Y-61257666D01*
X154668904Y-61257666D01*
X154621285Y-61281476D01*
X154597476Y-61305285D01*
X154573666Y-61352904D01*
X154573666Y-61471952D01*
X154597476Y-61519571D01*
X154621285Y-61543380D01*
X154668904Y-61567190D01*
X154787952Y-61567190D01*
X154835571Y-61543380D01*
X154859380Y-61519571D01*
X152576666Y-71086190D02*
X152576666Y-71443333D01*
X152600476Y-71514761D01*
X152648095Y-71562380D01*
X152719523Y-71586190D01*
X152767142Y-71586190D01*
X152267142Y-71300476D02*
X152314761Y-71276666D01*
X152338571Y-71252857D01*
X152362380Y-71205238D01*
X152362380Y-71181428D01*
X152338571Y-71133809D01*
X152314761Y-71110000D01*
X152267142Y-71086190D01*
X152171904Y-71086190D01*
X152124285Y-71110000D01*
X152100476Y-71133809D01*
X152076666Y-71181428D01*
X152076666Y-71205238D01*
X152100476Y-71252857D01*
X152124285Y-71276666D01*
X152171904Y-71300476D01*
X152267142Y-71300476D01*
X152314761Y-71324285D01*
X152338571Y-71348095D01*
X152362380Y-71395714D01*
X152362380Y-71490952D01*
X152338571Y-71538571D01*
X152314761Y-71562380D01*
X152267142Y-71586190D01*
X152171904Y-71586190D01*
X152124285Y-71562380D01*
X152100476Y-71538571D01*
X152076666Y-71490952D01*
X152076666Y-71395714D01*
X152100476Y-71348095D01*
X152124285Y-71324285D01*
X152171904Y-71300476D01*
X154576666Y-71086190D02*
X154576666Y-71443333D01*
X154600476Y-71514761D01*
X154648095Y-71562380D01*
X154719523Y-71586190D01*
X154767142Y-71586190D01*
X154386190Y-71086190D02*
X154052857Y-71086190D01*
X154267142Y-71586190D01*
X154576666Y-64126190D02*
X154576666Y-64483333D01*
X154600476Y-64554761D01*
X154648095Y-64602380D01*
X154719523Y-64626190D01*
X154767142Y-64626190D01*
X154124285Y-64126190D02*
X154219523Y-64126190D01*
X154267142Y-64150000D01*
X154290952Y-64173809D01*
X154338571Y-64245238D01*
X154362380Y-64340476D01*
X154362380Y-64530952D01*
X154338571Y-64578571D01*
X154314761Y-64602380D01*
X154267142Y-64626190D01*
X154171904Y-64626190D01*
X154124285Y-64602380D01*
X154100476Y-64578571D01*
X154076666Y-64530952D01*
X154076666Y-64411904D01*
X154100476Y-64364285D01*
X154124285Y-64340476D01*
X154171904Y-64316666D01*
X154267142Y-64316666D01*
X154314761Y-64340476D01*
X154338571Y-64364285D01*
X154362380Y-64411904D01*
M02*
