G04 #@! TF.GenerationSoftware,KiCad,Pcbnew,(2018-01-07 revision 47989ccfc)-makepkg*
G04 #@! TF.CreationDate,2018-01-22T20:28:46+10:30*
G04 #@! TF.ProjectId,din_meter_atm90e26,64696E5F6D657465725F61746D393065,rev?*
G04 #@! TF.SameCoordinates,Original*
G04 #@! TF.FileFunction,Legend,Top*
G04 #@! TF.FilePolarity,Positive*
%FSLAX46Y46*%
G04 Gerber Fmt 4.6, Leading zero omitted, Abs format (unit mm)*
G04 Created by KiCad (PCBNEW (2018-01-07 revision 47989ccfc)-makepkg) date 01/22/18 20:28:46*
%MOMM*%
%LPD*%
G01*
G04 APERTURE LIST*
%ADD10C,0.100000*%
%ADD11C,0.150000*%
%ADD12C,0.120000*%
%ADD13C,0.125000*%
G04 APERTURE END LIST*
D10*
X135596428Y-59289190D02*
X135905952Y-59289190D01*
X135739285Y-59479666D01*
X135810714Y-59479666D01*
X135858333Y-59503476D01*
X135882142Y-59527285D01*
X135905952Y-59574904D01*
X135905952Y-59693952D01*
X135882142Y-59741571D01*
X135858333Y-59765380D01*
X135810714Y-59789190D01*
X135667857Y-59789190D01*
X135620238Y-59765380D01*
X135596428Y-59741571D01*
X136048809Y-59289190D02*
X136215476Y-59789190D01*
X136382142Y-59289190D01*
X136501190Y-59289190D02*
X136810714Y-59289190D01*
X136644047Y-59479666D01*
X136715476Y-59479666D01*
X136763095Y-59503476D01*
X136786904Y-59527285D01*
X136810714Y-59574904D01*
X136810714Y-59693952D01*
X136786904Y-59741571D01*
X136763095Y-59765380D01*
X136715476Y-59789190D01*
X136572619Y-59789190D01*
X136525000Y-59765380D01*
X136501190Y-59741571D01*
X136905952Y-59836809D02*
X137286904Y-59836809D01*
X137405952Y-59789190D02*
X137405952Y-59289190D01*
X138120523Y-59313000D02*
X138072904Y-59289190D01*
X138001476Y-59289190D01*
X137930047Y-59313000D01*
X137882428Y-59360619D01*
X137858619Y-59408238D01*
X137834809Y-59503476D01*
X137834809Y-59574904D01*
X137858619Y-59670142D01*
X137882428Y-59717761D01*
X137930047Y-59765380D01*
X138001476Y-59789190D01*
X138049095Y-59789190D01*
X138120523Y-59765380D01*
X138144333Y-59741571D01*
X138144333Y-59574904D01*
X138049095Y-59574904D01*
X138358619Y-59789190D02*
X138358619Y-59289190D01*
X138644333Y-59789190D01*
X138644333Y-59289190D01*
X138882428Y-59789190D02*
X138882428Y-59289190D01*
X139001476Y-59289190D01*
X139072904Y-59313000D01*
X139120523Y-59360619D01*
X139144333Y-59408238D01*
X139168142Y-59503476D01*
X139168142Y-59574904D01*
X139144333Y-59670142D01*
X139120523Y-59717761D01*
X139072904Y-59765380D01*
X139001476Y-59789190D01*
X138882428Y-59789190D01*
X139263380Y-59836809D02*
X139644333Y-59836809D01*
X139763380Y-59789190D02*
X139763380Y-59289190D01*
X140585095Y-59741571D02*
X140561285Y-59765380D01*
X140489857Y-59789190D01*
X140442238Y-59789190D01*
X140370809Y-59765380D01*
X140323190Y-59717761D01*
X140299380Y-59670142D01*
X140275571Y-59574904D01*
X140275571Y-59503476D01*
X140299380Y-59408238D01*
X140323190Y-59360619D01*
X140370809Y-59313000D01*
X140442238Y-59289190D01*
X140489857Y-59289190D01*
X140561285Y-59313000D01*
X140585095Y-59336809D01*
X140775571Y-59765380D02*
X140847000Y-59789190D01*
X140966047Y-59789190D01*
X141013666Y-59765380D01*
X141037476Y-59741571D01*
X141061285Y-59693952D01*
X141061285Y-59646333D01*
X141037476Y-59598714D01*
X141013666Y-59574904D01*
X140966047Y-59551095D01*
X140870809Y-59527285D01*
X140823190Y-59503476D01*
X140799380Y-59479666D01*
X140775571Y-59432047D01*
X140775571Y-59384428D01*
X140799380Y-59336809D01*
X140823190Y-59313000D01*
X140870809Y-59289190D01*
X140989857Y-59289190D01*
X141061285Y-59313000D01*
X141156523Y-59836809D02*
X141537476Y-59836809D01*
X141918428Y-59789190D02*
X141632714Y-59789190D01*
X141775571Y-59789190D02*
X141775571Y-59289190D01*
X141727952Y-59360619D01*
X141680333Y-59408238D01*
X141632714Y-59432047D01*
X142613095Y-59765380D02*
X142684523Y-59789190D01*
X142803571Y-59789190D01*
X142851190Y-59765380D01*
X142875000Y-59741571D01*
X142898809Y-59693952D01*
X142898809Y-59646333D01*
X142875000Y-59598714D01*
X142851190Y-59574904D01*
X142803571Y-59551095D01*
X142708333Y-59527285D01*
X142660714Y-59503476D01*
X142636904Y-59479666D01*
X142613095Y-59432047D01*
X142613095Y-59384428D01*
X142636904Y-59336809D01*
X142660714Y-59313000D01*
X142708333Y-59289190D01*
X142827380Y-59289190D01*
X142898809Y-59313000D01*
X143113095Y-59789190D02*
X143113095Y-59289190D01*
X144502238Y-59765380D02*
X144573666Y-59789190D01*
X144692714Y-59789190D01*
X144740333Y-59765380D01*
X144764142Y-59741571D01*
X144787952Y-59693952D01*
X144787952Y-59646333D01*
X144764142Y-59598714D01*
X144740333Y-59574904D01*
X144692714Y-59551095D01*
X144597476Y-59527285D01*
X144549857Y-59503476D01*
X144526047Y-59479666D01*
X144502238Y-59432047D01*
X144502238Y-59384428D01*
X144526047Y-59336809D01*
X144549857Y-59313000D01*
X144597476Y-59289190D01*
X144716523Y-59289190D01*
X144787952Y-59313000D01*
X145097476Y-59289190D02*
X145192714Y-59289190D01*
X145240333Y-59313000D01*
X145287952Y-59360619D01*
X145311761Y-59455857D01*
X145311761Y-59622523D01*
X145287952Y-59717761D01*
X145240333Y-59765380D01*
X145192714Y-59789190D01*
X145097476Y-59789190D01*
X145049857Y-59765380D01*
X145002238Y-59717761D01*
X144978428Y-59622523D01*
X144978428Y-59455857D01*
X145002238Y-59360619D01*
X145049857Y-59313000D01*
X145097476Y-59289190D01*
X146387380Y-59741571D02*
X146363571Y-59765380D01*
X146292142Y-59789190D01*
X146244523Y-59789190D01*
X146173095Y-59765380D01*
X146125476Y-59717761D01*
X146101666Y-59670142D01*
X146077857Y-59574904D01*
X146077857Y-59503476D01*
X146101666Y-59408238D01*
X146125476Y-59360619D01*
X146173095Y-59313000D01*
X146244523Y-59289190D01*
X146292142Y-59289190D01*
X146363571Y-59313000D01*
X146387380Y-59336809D01*
X146839761Y-59789190D02*
X146601666Y-59789190D01*
X146601666Y-59289190D01*
X147006428Y-59789190D02*
X147006428Y-59289190D01*
X147292142Y-59789190D02*
X147077857Y-59503476D01*
X147292142Y-59289190D02*
X147006428Y-59574904D01*
X148078095Y-59741571D02*
X148054285Y-59765380D01*
X147982857Y-59789190D01*
X147935238Y-59789190D01*
X147863809Y-59765380D01*
X147816190Y-59717761D01*
X147792380Y-59670142D01*
X147768571Y-59574904D01*
X147768571Y-59503476D01*
X147792380Y-59408238D01*
X147816190Y-59360619D01*
X147863809Y-59313000D01*
X147935238Y-59289190D01*
X147982857Y-59289190D01*
X148054285Y-59313000D01*
X148078095Y-59336809D01*
X148268571Y-59765380D02*
X148340000Y-59789190D01*
X148459047Y-59789190D01*
X148506666Y-59765380D01*
X148530476Y-59741571D01*
X148554285Y-59693952D01*
X148554285Y-59646333D01*
X148530476Y-59598714D01*
X148506666Y-59574904D01*
X148459047Y-59551095D01*
X148363809Y-59527285D01*
X148316190Y-59503476D01*
X148292380Y-59479666D01*
X148268571Y-59432047D01*
X148268571Y-59384428D01*
X148292380Y-59336809D01*
X148316190Y-59313000D01*
X148363809Y-59289190D01*
X148482857Y-59289190D01*
X148554285Y-59313000D01*
X148649523Y-59836809D02*
X149030476Y-59836809D01*
X149244761Y-59289190D02*
X149292380Y-59289190D01*
X149340000Y-59313000D01*
X149363809Y-59336809D01*
X149387619Y-59384428D01*
X149411428Y-59479666D01*
X149411428Y-59598714D01*
X149387619Y-59693952D01*
X149363809Y-59741571D01*
X149340000Y-59765380D01*
X149292380Y-59789190D01*
X149244761Y-59789190D01*
X149197142Y-59765380D01*
X149173333Y-59741571D01*
X149149523Y-59693952D01*
X149125714Y-59598714D01*
X149125714Y-59479666D01*
X149149523Y-59384428D01*
X149173333Y-59336809D01*
X149197142Y-59313000D01*
X149244761Y-59289190D01*
X151959571Y-59313000D02*
X151911952Y-59289190D01*
X151840523Y-59289190D01*
X151769095Y-59313000D01*
X151721476Y-59360619D01*
X151697666Y-59408238D01*
X151673857Y-59503476D01*
X151673857Y-59574904D01*
X151697666Y-59670142D01*
X151721476Y-59717761D01*
X151769095Y-59765380D01*
X151840523Y-59789190D01*
X151888142Y-59789190D01*
X151959571Y-59765380D01*
X151983380Y-59741571D01*
X151983380Y-59574904D01*
X151888142Y-59574904D01*
X152197666Y-59789190D02*
X152197666Y-59289190D01*
X152483380Y-59789190D01*
X152483380Y-59289190D01*
X152721476Y-59789190D02*
X152721476Y-59289190D01*
X152840523Y-59289190D01*
X152911952Y-59313000D01*
X152959571Y-59360619D01*
X152983380Y-59408238D01*
X153007190Y-59503476D01*
X153007190Y-59574904D01*
X152983380Y-59670142D01*
X152959571Y-59717761D01*
X152911952Y-59765380D01*
X152840523Y-59789190D01*
X152721476Y-59789190D01*
X153102428Y-59836809D02*
X153483380Y-59836809D01*
X153888142Y-59741571D02*
X153864333Y-59765380D01*
X153792904Y-59789190D01*
X153745285Y-59789190D01*
X153673857Y-59765380D01*
X153626238Y-59717761D01*
X153602428Y-59670142D01*
X153578619Y-59574904D01*
X153578619Y-59503476D01*
X153602428Y-59408238D01*
X153626238Y-59360619D01*
X153673857Y-59313000D01*
X153745285Y-59289190D01*
X153792904Y-59289190D01*
X153864333Y-59313000D01*
X153888142Y-59336809D01*
X154388476Y-59289190D02*
X154698000Y-59289190D01*
X154531333Y-59479666D01*
X154602761Y-59479666D01*
X154650380Y-59503476D01*
X154674190Y-59527285D01*
X154698000Y-59574904D01*
X154698000Y-59693952D01*
X154674190Y-59741571D01*
X154650380Y-59765380D01*
X154602761Y-59789190D01*
X154459904Y-59789190D01*
X154412285Y-59765380D01*
X154388476Y-59741571D01*
X154840857Y-59289190D02*
X155007523Y-59789190D01*
X155174190Y-59289190D01*
X155293238Y-59289190D02*
X155602761Y-59289190D01*
X155436095Y-59479666D01*
X155507523Y-59479666D01*
X155555142Y-59503476D01*
X155578952Y-59527285D01*
X155602761Y-59574904D01*
X155602761Y-59693952D01*
X155578952Y-59741571D01*
X155555142Y-59765380D01*
X155507523Y-59789190D01*
X155364666Y-59789190D01*
X155317047Y-59765380D01*
X155293238Y-59741571D01*
X155698000Y-59836809D02*
X156078952Y-59836809D01*
X156483714Y-59741571D02*
X156459904Y-59765380D01*
X156388476Y-59789190D01*
X156340857Y-59789190D01*
X156269428Y-59765380D01*
X156221809Y-59717761D01*
X156198000Y-59670142D01*
X156174190Y-59574904D01*
X156174190Y-59503476D01*
X156198000Y-59408238D01*
X156221809Y-59360619D01*
X156269428Y-59313000D01*
X156340857Y-59289190D01*
X156388476Y-59289190D01*
X156459904Y-59313000D01*
X156483714Y-59336809D01*
D11*
X156285000Y-74400000D02*
X157885000Y-74400000D01*
X156285000Y-64325000D02*
X150535000Y-64325000D01*
X156285000Y-74975000D02*
X150535000Y-74975000D01*
X156285000Y-64325000D02*
X156285000Y-64975000D01*
X150535000Y-64325000D02*
X150535000Y-64975000D01*
X150535000Y-74975000D02*
X150535000Y-74325000D01*
X156285000Y-74975000D02*
X156285000Y-74400000D01*
D12*
X143190000Y-71650000D02*
X143190000Y-72150000D01*
X144130000Y-72150000D02*
X144130000Y-71650000D01*
X132560000Y-60480000D02*
X133060000Y-60480000D01*
X133060000Y-59420000D02*
X132560000Y-59420000D01*
X132560000Y-62680000D02*
X133060000Y-62680000D01*
X133060000Y-61620000D02*
X132560000Y-61620000D01*
X153630000Y-78150000D02*
X153630000Y-77650000D01*
X152690000Y-77650000D02*
X152690000Y-78150000D01*
X155690000Y-76350000D02*
X155690000Y-76850000D01*
X156630000Y-76850000D02*
X156630000Y-76350000D01*
X140190000Y-77650000D02*
X140190000Y-78150000D01*
X141130000Y-78150000D02*
X141130000Y-77650000D01*
X143630000Y-78150000D02*
X143630000Y-77650000D01*
X142690000Y-77650000D02*
X142690000Y-78150000D01*
X154940000Y-78150000D02*
X154940000Y-77650000D01*
X153880000Y-77650000D02*
X153880000Y-78150000D01*
X143880000Y-77650000D02*
X143880000Y-78150000D01*
X144940000Y-78150000D02*
X144940000Y-77650000D01*
X157940000Y-76850000D02*
X157940000Y-76350000D01*
X156880000Y-76350000D02*
X156880000Y-76850000D01*
X141380000Y-77650000D02*
X141380000Y-78150000D01*
X142440000Y-78150000D02*
X142440000Y-77650000D01*
X143360000Y-63700000D02*
X143360000Y-69450000D01*
X143360000Y-69450000D02*
X146960000Y-69450000D01*
X146960000Y-69450000D02*
X146960000Y-63700000D01*
X144610000Y-69850000D02*
X144610000Y-75600000D01*
X148210000Y-69850000D02*
X144610000Y-69850000D01*
X148210000Y-75600000D02*
X148210000Y-69850000D01*
X150190000Y-77650000D02*
X150190000Y-78150000D01*
X151130000Y-78150000D02*
X151130000Y-77650000D01*
X148630000Y-78150000D02*
X148630000Y-77650000D01*
X147690000Y-77650000D02*
X147690000Y-78150000D01*
X137690000Y-77650000D02*
X137690000Y-78150000D01*
X138630000Y-78150000D02*
X138630000Y-77650000D01*
X135680000Y-76900000D02*
X135680000Y-76400000D01*
X134740000Y-76400000D02*
X134740000Y-76900000D01*
X151380000Y-77650000D02*
X151380000Y-78150000D01*
X152440000Y-78150000D02*
X152440000Y-77650000D01*
X148880000Y-77650000D02*
X148880000Y-78150000D01*
X149940000Y-78150000D02*
X149940000Y-77650000D01*
X139940000Y-78150000D02*
X139940000Y-77650000D01*
X138880000Y-77650000D02*
X138880000Y-78150000D01*
X135880000Y-76400000D02*
X135880000Y-76900000D01*
X136940000Y-76900000D02*
X136940000Y-76400000D01*
X152910000Y-63870000D02*
X153410000Y-63870000D01*
X153410000Y-62930000D02*
X152910000Y-62930000D01*
X146130000Y-78150000D02*
X146130000Y-77650000D01*
X145190000Y-77650000D02*
X145190000Y-78150000D01*
X150660000Y-63930000D02*
X151160000Y-63930000D01*
X151160000Y-62870000D02*
X150660000Y-62870000D01*
X146380000Y-77650000D02*
X146380000Y-78150000D01*
X147440000Y-78150000D02*
X147440000Y-77650000D01*
X158690000Y-69650000D02*
X158690000Y-70150000D01*
X159630000Y-70150000D02*
X159630000Y-69650000D01*
X160190000Y-69650000D02*
X160190000Y-70150000D01*
X161130000Y-70150000D02*
X161130000Y-69650000D01*
X159630000Y-65650000D02*
X159630000Y-65150000D01*
X158690000Y-65150000D02*
X158690000Y-65650000D01*
X143190000Y-74150000D02*
X143190000Y-74650000D01*
X144130000Y-74650000D02*
X144130000Y-74150000D01*
X159760000Y-72300000D02*
X159760000Y-73000000D01*
X158560000Y-73000000D02*
X158560000Y-72300000D01*
X160060000Y-65750000D02*
X160060000Y-65050000D01*
X161260000Y-65050000D02*
X161260000Y-65750000D01*
X147440000Y-64650000D02*
X147440000Y-65150000D01*
X148380000Y-65150000D02*
X148380000Y-64650000D01*
X147440000Y-67150000D02*
X147440000Y-67650000D01*
X148380000Y-67650000D02*
X148380000Y-67150000D01*
X131940000Y-73650000D02*
X131940000Y-74150000D01*
X132880000Y-74150000D02*
X132880000Y-73650000D01*
X131380000Y-69650000D02*
X131380000Y-69150000D01*
X130440000Y-69150000D02*
X130440000Y-69650000D01*
X132880000Y-69650000D02*
X132880000Y-69150000D01*
X131940000Y-69150000D02*
X131940000Y-69650000D01*
X130310000Y-74250000D02*
X130310000Y-73550000D01*
X131510000Y-73550000D02*
X131510000Y-74250000D01*
X131810000Y-67000000D02*
X131810000Y-66300000D01*
X133010000Y-66300000D02*
X133010000Y-67000000D01*
X155208000Y-82923000D02*
X155208000Y-88723000D01*
X147908000Y-82923000D02*
X147908000Y-88723000D01*
X147908000Y-88723000D02*
X155208000Y-88723000D01*
X155208000Y-82923000D02*
X147908000Y-82923000D01*
X134808000Y-88723000D02*
X134808000Y-82923000D01*
X146108000Y-88723000D02*
X134808000Y-88723000D01*
X146108000Y-82923000D02*
X146108000Y-88723000D01*
X134808000Y-82923000D02*
X146108000Y-82923000D01*
X147908000Y-79723000D02*
X147908000Y-82923000D01*
X146108000Y-79723000D02*
X147908000Y-79723000D01*
X146108000Y-82923000D02*
X146108000Y-79723000D01*
D11*
X135285000Y-64900000D02*
X133685000Y-64900000D01*
X135285000Y-74975000D02*
X141035000Y-74975000D01*
X135285000Y-64325000D02*
X141035000Y-64325000D01*
X135285000Y-74975000D02*
X135285000Y-74325000D01*
X141035000Y-74975000D02*
X141035000Y-74325000D01*
X141035000Y-64325000D02*
X141035000Y-64975000D01*
X135285000Y-64325000D02*
X135285000Y-64900000D01*
D13*
X156688238Y-75337190D02*
X156688238Y-74837190D01*
X156854904Y-75194333D01*
X157021571Y-74837190D01*
X157021571Y-75337190D01*
X157235857Y-74884809D02*
X157259666Y-74861000D01*
X157307285Y-74837190D01*
X157426333Y-74837190D01*
X157473952Y-74861000D01*
X157497761Y-74884809D01*
X157521571Y-74932428D01*
X157521571Y-74980047D01*
X157497761Y-75051476D01*
X157212047Y-75337190D01*
X157521571Y-75337190D01*
X143302571Y-70471571D02*
X143278761Y-70495380D01*
X143207333Y-70519190D01*
X143159714Y-70519190D01*
X143088285Y-70495380D01*
X143040666Y-70447761D01*
X143016857Y-70400142D01*
X142993047Y-70304904D01*
X142993047Y-70233476D01*
X143016857Y-70138238D01*
X143040666Y-70090619D01*
X143088285Y-70043000D01*
X143159714Y-70019190D01*
X143207333Y-70019190D01*
X143278761Y-70043000D01*
X143302571Y-70066809D01*
X143778761Y-70519190D02*
X143493047Y-70519190D01*
X143635904Y-70519190D02*
X143635904Y-70019190D01*
X143588285Y-70090619D01*
X143540666Y-70138238D01*
X143493047Y-70162047D01*
X143945428Y-70019190D02*
X144254952Y-70019190D01*
X144088285Y-70209666D01*
X144159714Y-70209666D01*
X144207333Y-70233476D01*
X144231142Y-70257285D01*
X144254952Y-70304904D01*
X144254952Y-70423952D01*
X144231142Y-70471571D01*
X144207333Y-70495380D01*
X144159714Y-70519190D01*
X144016857Y-70519190D01*
X143969238Y-70495380D01*
X143945428Y-70471571D01*
X132726666Y-61276190D02*
X132488571Y-61276190D01*
X132488571Y-60776190D01*
X132869523Y-60823809D02*
X132893333Y-60800000D01*
X132940952Y-60776190D01*
X133060000Y-60776190D01*
X133107619Y-60800000D01*
X133131428Y-60823809D01*
X133155238Y-60871428D01*
X133155238Y-60919047D01*
X133131428Y-60990476D01*
X132845714Y-61276190D01*
X133155238Y-61276190D01*
X132726666Y-63476190D02*
X132488571Y-63476190D01*
X132488571Y-62976190D01*
X133155238Y-63476190D02*
X132869523Y-63476190D01*
X133012380Y-63476190D02*
X133012380Y-62976190D01*
X132964761Y-63047619D01*
X132917142Y-63095238D01*
X132869523Y-63119047D01*
X152700571Y-76567571D02*
X152676761Y-76591380D01*
X152605333Y-76615190D01*
X152557714Y-76615190D01*
X152486285Y-76591380D01*
X152438666Y-76543761D01*
X152414857Y-76496142D01*
X152391047Y-76400904D01*
X152391047Y-76329476D01*
X152414857Y-76234238D01*
X152438666Y-76186619D01*
X152486285Y-76139000D01*
X152557714Y-76115190D01*
X152605333Y-76115190D01*
X152676761Y-76139000D01*
X152700571Y-76162809D01*
X152891047Y-76162809D02*
X152914857Y-76139000D01*
X152962476Y-76115190D01*
X153081523Y-76115190D01*
X153129142Y-76139000D01*
X153152952Y-76162809D01*
X153176761Y-76210428D01*
X153176761Y-76258047D01*
X153152952Y-76329476D01*
X152867238Y-76615190D01*
X153176761Y-76615190D01*
X153367238Y-76162809D02*
X153391047Y-76139000D01*
X153438666Y-76115190D01*
X153557714Y-76115190D01*
X153605333Y-76139000D01*
X153629142Y-76162809D01*
X153652952Y-76210428D01*
X153652952Y-76258047D01*
X153629142Y-76329476D01*
X153343428Y-76615190D01*
X153652952Y-76615190D01*
X156338571Y-78778571D02*
X156314761Y-78802380D01*
X156243333Y-78826190D01*
X156195714Y-78826190D01*
X156124285Y-78802380D01*
X156076666Y-78754761D01*
X156052857Y-78707142D01*
X156029047Y-78611904D01*
X156029047Y-78540476D01*
X156052857Y-78445238D01*
X156076666Y-78397619D01*
X156124285Y-78350000D01*
X156195714Y-78326190D01*
X156243333Y-78326190D01*
X156314761Y-78350000D01*
X156338571Y-78373809D01*
X156529047Y-78373809D02*
X156552857Y-78350000D01*
X156600476Y-78326190D01*
X156719523Y-78326190D01*
X156767142Y-78350000D01*
X156790952Y-78373809D01*
X156814761Y-78421428D01*
X156814761Y-78469047D01*
X156790952Y-78540476D01*
X156505238Y-78826190D01*
X156814761Y-78826190D01*
X157290952Y-78826190D02*
X157005238Y-78826190D01*
X157148095Y-78826190D02*
X157148095Y-78326190D01*
X157100476Y-78397619D01*
X157052857Y-78445238D01*
X157005238Y-78469047D01*
X140254571Y-76567571D02*
X140230761Y-76591380D01*
X140159333Y-76615190D01*
X140111714Y-76615190D01*
X140040285Y-76591380D01*
X139992666Y-76543761D01*
X139968857Y-76496142D01*
X139945047Y-76400904D01*
X139945047Y-76329476D01*
X139968857Y-76234238D01*
X139992666Y-76186619D01*
X140040285Y-76139000D01*
X140111714Y-76115190D01*
X140159333Y-76115190D01*
X140230761Y-76139000D01*
X140254571Y-76162809D01*
X140445047Y-76162809D02*
X140468857Y-76139000D01*
X140516476Y-76115190D01*
X140635523Y-76115190D01*
X140683142Y-76139000D01*
X140706952Y-76162809D01*
X140730761Y-76210428D01*
X140730761Y-76258047D01*
X140706952Y-76329476D01*
X140421238Y-76615190D01*
X140730761Y-76615190D01*
X141159333Y-76281857D02*
X141159333Y-76615190D01*
X141040285Y-76091380D02*
X140921238Y-76448523D01*
X141230761Y-76448523D01*
X142794571Y-79488571D02*
X142770761Y-79512380D01*
X142699333Y-79536190D01*
X142651714Y-79536190D01*
X142580285Y-79512380D01*
X142532666Y-79464761D01*
X142508857Y-79417142D01*
X142485047Y-79321904D01*
X142485047Y-79250476D01*
X142508857Y-79155238D01*
X142532666Y-79107619D01*
X142580285Y-79060000D01*
X142651714Y-79036190D01*
X142699333Y-79036190D01*
X142770761Y-79060000D01*
X142794571Y-79083809D01*
X142985047Y-79083809D02*
X143008857Y-79060000D01*
X143056476Y-79036190D01*
X143175523Y-79036190D01*
X143223142Y-79060000D01*
X143246952Y-79083809D01*
X143270761Y-79131428D01*
X143270761Y-79179047D01*
X143246952Y-79250476D01*
X142961238Y-79536190D01*
X143270761Y-79536190D01*
X143437428Y-79036190D02*
X143746952Y-79036190D01*
X143580285Y-79226666D01*
X143651714Y-79226666D01*
X143699333Y-79250476D01*
X143723142Y-79274285D01*
X143746952Y-79321904D01*
X143746952Y-79440952D01*
X143723142Y-79488571D01*
X143699333Y-79512380D01*
X143651714Y-79536190D01*
X143508857Y-79536190D01*
X143461238Y-79512380D01*
X143437428Y-79488571D01*
X154326666Y-79536190D02*
X154160000Y-79298095D01*
X154040952Y-79536190D02*
X154040952Y-79036190D01*
X154231428Y-79036190D01*
X154279047Y-79060000D01*
X154302857Y-79083809D01*
X154326666Y-79131428D01*
X154326666Y-79202857D01*
X154302857Y-79250476D01*
X154279047Y-79274285D01*
X154231428Y-79298095D01*
X154040952Y-79298095D01*
X154612380Y-79250476D02*
X154564761Y-79226666D01*
X154540952Y-79202857D01*
X154517142Y-79155238D01*
X154517142Y-79131428D01*
X154540952Y-79083809D01*
X154564761Y-79060000D01*
X154612380Y-79036190D01*
X154707619Y-79036190D01*
X154755238Y-79060000D01*
X154779047Y-79083809D01*
X154802857Y-79131428D01*
X154802857Y-79155238D01*
X154779047Y-79202857D01*
X154755238Y-79226666D01*
X154707619Y-79250476D01*
X154612380Y-79250476D01*
X154564761Y-79274285D01*
X154540952Y-79298095D01*
X154517142Y-79345714D01*
X154517142Y-79440952D01*
X154540952Y-79488571D01*
X154564761Y-79512380D01*
X154612380Y-79536190D01*
X154707619Y-79536190D01*
X154755238Y-79512380D01*
X154779047Y-79488571D01*
X154802857Y-79440952D01*
X154802857Y-79345714D01*
X154779047Y-79298095D01*
X154755238Y-79274285D01*
X154707619Y-79250476D01*
X144429666Y-79536190D02*
X144263000Y-79298095D01*
X144143952Y-79536190D02*
X144143952Y-79036190D01*
X144334428Y-79036190D01*
X144382047Y-79060000D01*
X144405857Y-79083809D01*
X144429666Y-79131428D01*
X144429666Y-79202857D01*
X144405857Y-79250476D01*
X144382047Y-79274285D01*
X144334428Y-79298095D01*
X144143952Y-79298095D01*
X144667761Y-79536190D02*
X144763000Y-79536190D01*
X144810619Y-79512380D01*
X144834428Y-79488571D01*
X144882047Y-79417142D01*
X144905857Y-79321904D01*
X144905857Y-79131428D01*
X144882047Y-79083809D01*
X144858238Y-79060000D01*
X144810619Y-79036190D01*
X144715380Y-79036190D01*
X144667761Y-79060000D01*
X144643952Y-79083809D01*
X144620142Y-79131428D01*
X144620142Y-79250476D01*
X144643952Y-79298095D01*
X144667761Y-79321904D01*
X144715380Y-79345714D01*
X144810619Y-79345714D01*
X144858238Y-79321904D01*
X144882047Y-79298095D01*
X144905857Y-79250476D01*
X158653666Y-76869190D02*
X158487000Y-76631095D01*
X158367952Y-76869190D02*
X158367952Y-76369190D01*
X158558428Y-76369190D01*
X158606047Y-76393000D01*
X158629857Y-76416809D01*
X158653666Y-76464428D01*
X158653666Y-76535857D01*
X158629857Y-76583476D01*
X158606047Y-76607285D01*
X158558428Y-76631095D01*
X158367952Y-76631095D01*
X158820333Y-76369190D02*
X159153666Y-76369190D01*
X158939380Y-76869190D01*
X141270571Y-79536190D02*
X141103904Y-79298095D01*
X140984857Y-79536190D02*
X140984857Y-79036190D01*
X141175333Y-79036190D01*
X141222952Y-79060000D01*
X141246761Y-79083809D01*
X141270571Y-79131428D01*
X141270571Y-79202857D01*
X141246761Y-79250476D01*
X141222952Y-79274285D01*
X141175333Y-79298095D01*
X140984857Y-79298095D01*
X141746761Y-79536190D02*
X141461047Y-79536190D01*
X141603904Y-79536190D02*
X141603904Y-79036190D01*
X141556285Y-79107619D01*
X141508666Y-79155238D01*
X141461047Y-79179047D01*
X142056285Y-79036190D02*
X142103904Y-79036190D01*
X142151523Y-79060000D01*
X142175333Y-79083809D01*
X142199142Y-79131428D01*
X142222952Y-79226666D01*
X142222952Y-79345714D01*
X142199142Y-79440952D01*
X142175333Y-79488571D01*
X142151523Y-79512380D01*
X142103904Y-79536190D01*
X142056285Y-79536190D01*
X142008666Y-79512380D01*
X141984857Y-79488571D01*
X141961047Y-79440952D01*
X141937238Y-79345714D01*
X141937238Y-79226666D01*
X141961047Y-79131428D01*
X141984857Y-79083809D01*
X142008666Y-79060000D01*
X142056285Y-79036190D01*
X142421904Y-63638095D02*
X142421904Y-63876190D01*
X142255238Y-63376190D02*
X142421904Y-63638095D01*
X142588571Y-63376190D01*
X143017142Y-63876190D02*
X142731428Y-63876190D01*
X142874285Y-63876190D02*
X142874285Y-63376190D01*
X142826666Y-63447619D01*
X142779047Y-63495238D01*
X142731428Y-63519047D01*
X148671904Y-75638095D02*
X148671904Y-75876190D01*
X148505238Y-75376190D02*
X148671904Y-75638095D01*
X148838571Y-75376190D01*
X148981428Y-75423809D02*
X149005238Y-75400000D01*
X149052857Y-75376190D01*
X149171904Y-75376190D01*
X149219523Y-75400000D01*
X149243333Y-75423809D01*
X149267142Y-75471428D01*
X149267142Y-75519047D01*
X149243333Y-75590476D01*
X148957619Y-75876190D01*
X149267142Y-75876190D01*
X150287571Y-76567571D02*
X150263761Y-76591380D01*
X150192333Y-76615190D01*
X150144714Y-76615190D01*
X150073285Y-76591380D01*
X150025666Y-76543761D01*
X150001857Y-76496142D01*
X149978047Y-76400904D01*
X149978047Y-76329476D01*
X150001857Y-76234238D01*
X150025666Y-76186619D01*
X150073285Y-76139000D01*
X150144714Y-76115190D01*
X150192333Y-76115190D01*
X150263761Y-76139000D01*
X150287571Y-76162809D01*
X150763761Y-76615190D02*
X150478047Y-76615190D01*
X150620904Y-76615190D02*
X150620904Y-76115190D01*
X150573285Y-76186619D01*
X150525666Y-76234238D01*
X150478047Y-76258047D01*
X150930428Y-76115190D02*
X151263761Y-76115190D01*
X151049476Y-76615190D01*
X147620571Y-76567571D02*
X147596761Y-76591380D01*
X147525333Y-76615190D01*
X147477714Y-76615190D01*
X147406285Y-76591380D01*
X147358666Y-76543761D01*
X147334857Y-76496142D01*
X147311047Y-76400904D01*
X147311047Y-76329476D01*
X147334857Y-76234238D01*
X147358666Y-76186619D01*
X147406285Y-76139000D01*
X147477714Y-76115190D01*
X147525333Y-76115190D01*
X147596761Y-76139000D01*
X147620571Y-76162809D01*
X148096761Y-76615190D02*
X147811047Y-76615190D01*
X147953904Y-76615190D02*
X147953904Y-76115190D01*
X147906285Y-76186619D01*
X147858666Y-76234238D01*
X147811047Y-76258047D01*
X148382476Y-76329476D02*
X148334857Y-76305666D01*
X148311047Y-76281857D01*
X148287238Y-76234238D01*
X148287238Y-76210428D01*
X148311047Y-76162809D01*
X148334857Y-76139000D01*
X148382476Y-76115190D01*
X148477714Y-76115190D01*
X148525333Y-76139000D01*
X148549142Y-76162809D01*
X148572952Y-76210428D01*
X148572952Y-76234238D01*
X148549142Y-76281857D01*
X148525333Y-76305666D01*
X148477714Y-76329476D01*
X148382476Y-76329476D01*
X148334857Y-76353285D01*
X148311047Y-76377095D01*
X148287238Y-76424714D01*
X148287238Y-76519952D01*
X148311047Y-76567571D01*
X148334857Y-76591380D01*
X148382476Y-76615190D01*
X148477714Y-76615190D01*
X148525333Y-76591380D01*
X148549142Y-76567571D01*
X148572952Y-76519952D01*
X148572952Y-76424714D01*
X148549142Y-76377095D01*
X148525333Y-76353285D01*
X148477714Y-76329476D01*
X137714571Y-76567571D02*
X137690761Y-76591380D01*
X137619333Y-76615190D01*
X137571714Y-76615190D01*
X137500285Y-76591380D01*
X137452666Y-76543761D01*
X137428857Y-76496142D01*
X137405047Y-76400904D01*
X137405047Y-76329476D01*
X137428857Y-76234238D01*
X137452666Y-76186619D01*
X137500285Y-76139000D01*
X137571714Y-76115190D01*
X137619333Y-76115190D01*
X137690761Y-76139000D01*
X137714571Y-76162809D01*
X138190761Y-76615190D02*
X137905047Y-76615190D01*
X138047904Y-76615190D02*
X138047904Y-76115190D01*
X138000285Y-76186619D01*
X137952666Y-76234238D01*
X137905047Y-76258047D01*
X138428857Y-76615190D02*
X138524095Y-76615190D01*
X138571714Y-76591380D01*
X138595523Y-76567571D01*
X138643142Y-76496142D01*
X138666952Y-76400904D01*
X138666952Y-76210428D01*
X138643142Y-76162809D01*
X138619333Y-76139000D01*
X138571714Y-76115190D01*
X138476476Y-76115190D01*
X138428857Y-76139000D01*
X138405047Y-76162809D01*
X138381238Y-76210428D01*
X138381238Y-76329476D01*
X138405047Y-76377095D01*
X138428857Y-76400904D01*
X138476476Y-76424714D01*
X138571714Y-76424714D01*
X138619333Y-76400904D01*
X138643142Y-76377095D01*
X138666952Y-76329476D01*
X134666571Y-78726571D02*
X134642761Y-78750380D01*
X134571333Y-78774190D01*
X134523714Y-78774190D01*
X134452285Y-78750380D01*
X134404666Y-78702761D01*
X134380857Y-78655142D01*
X134357047Y-78559904D01*
X134357047Y-78488476D01*
X134380857Y-78393238D01*
X134404666Y-78345619D01*
X134452285Y-78298000D01*
X134523714Y-78274190D01*
X134571333Y-78274190D01*
X134642761Y-78298000D01*
X134666571Y-78321809D01*
X134857047Y-78321809D02*
X134880857Y-78298000D01*
X134928476Y-78274190D01*
X135047523Y-78274190D01*
X135095142Y-78298000D01*
X135118952Y-78321809D01*
X135142761Y-78369428D01*
X135142761Y-78417047D01*
X135118952Y-78488476D01*
X134833238Y-78774190D01*
X135142761Y-78774190D01*
X135452285Y-78274190D02*
X135499904Y-78274190D01*
X135547523Y-78298000D01*
X135571333Y-78321809D01*
X135595142Y-78369428D01*
X135618952Y-78464666D01*
X135618952Y-78583714D01*
X135595142Y-78678952D01*
X135571333Y-78726571D01*
X135547523Y-78750380D01*
X135499904Y-78774190D01*
X135452285Y-78774190D01*
X135404666Y-78750380D01*
X135380857Y-78726571D01*
X135357047Y-78678952D01*
X135333238Y-78583714D01*
X135333238Y-78464666D01*
X135357047Y-78369428D01*
X135380857Y-78321809D01*
X135404666Y-78298000D01*
X135452285Y-78274190D01*
X151826666Y-79536190D02*
X151660000Y-79298095D01*
X151540952Y-79536190D02*
X151540952Y-79036190D01*
X151731428Y-79036190D01*
X151779047Y-79060000D01*
X151802857Y-79083809D01*
X151826666Y-79131428D01*
X151826666Y-79202857D01*
X151802857Y-79250476D01*
X151779047Y-79274285D01*
X151731428Y-79298095D01*
X151540952Y-79298095D01*
X151993333Y-79036190D02*
X152302857Y-79036190D01*
X152136190Y-79226666D01*
X152207619Y-79226666D01*
X152255238Y-79250476D01*
X152279047Y-79274285D01*
X152302857Y-79321904D01*
X152302857Y-79440952D01*
X152279047Y-79488571D01*
X152255238Y-79512380D01*
X152207619Y-79536190D01*
X152064761Y-79536190D01*
X152017142Y-79512380D01*
X151993333Y-79488571D01*
X149326666Y-79536190D02*
X149160000Y-79298095D01*
X149040952Y-79536190D02*
X149040952Y-79036190D01*
X149231428Y-79036190D01*
X149279047Y-79060000D01*
X149302857Y-79083809D01*
X149326666Y-79131428D01*
X149326666Y-79202857D01*
X149302857Y-79250476D01*
X149279047Y-79274285D01*
X149231428Y-79298095D01*
X149040952Y-79298095D01*
X149755238Y-79202857D02*
X149755238Y-79536190D01*
X149636190Y-79012380D02*
X149517142Y-79369523D01*
X149826666Y-79369523D01*
X139326666Y-79536190D02*
X139160000Y-79298095D01*
X139040952Y-79536190D02*
X139040952Y-79036190D01*
X139231428Y-79036190D01*
X139279047Y-79060000D01*
X139302857Y-79083809D01*
X139326666Y-79131428D01*
X139326666Y-79202857D01*
X139302857Y-79250476D01*
X139279047Y-79274285D01*
X139231428Y-79298095D01*
X139040952Y-79298095D01*
X139779047Y-79036190D02*
X139540952Y-79036190D01*
X139517142Y-79274285D01*
X139540952Y-79250476D01*
X139588571Y-79226666D01*
X139707619Y-79226666D01*
X139755238Y-79250476D01*
X139779047Y-79274285D01*
X139802857Y-79321904D01*
X139802857Y-79440952D01*
X139779047Y-79488571D01*
X139755238Y-79512380D01*
X139707619Y-79536190D01*
X139588571Y-79536190D01*
X139540952Y-79512380D01*
X139517142Y-79488571D01*
X136301666Y-78774190D02*
X136135000Y-78536095D01*
X136015952Y-78774190D02*
X136015952Y-78274190D01*
X136206428Y-78274190D01*
X136254047Y-78298000D01*
X136277857Y-78321809D01*
X136301666Y-78369428D01*
X136301666Y-78440857D01*
X136277857Y-78488476D01*
X136254047Y-78512285D01*
X136206428Y-78536095D01*
X136015952Y-78536095D01*
X136730238Y-78274190D02*
X136635000Y-78274190D01*
X136587380Y-78298000D01*
X136563571Y-78321809D01*
X136515952Y-78393238D01*
X136492142Y-78488476D01*
X136492142Y-78678952D01*
X136515952Y-78726571D01*
X136539761Y-78750380D01*
X136587380Y-78774190D01*
X136682619Y-78774190D01*
X136730238Y-78750380D01*
X136754047Y-78726571D01*
X136777857Y-78678952D01*
X136777857Y-78559904D01*
X136754047Y-78512285D01*
X136730238Y-78488476D01*
X136682619Y-78464666D01*
X136587380Y-78464666D01*
X136539761Y-78488476D01*
X136515952Y-78512285D01*
X136492142Y-78559904D01*
X154732571Y-63613571D02*
X154708761Y-63637380D01*
X154637333Y-63661190D01*
X154589714Y-63661190D01*
X154518285Y-63637380D01*
X154470666Y-63589761D01*
X154446857Y-63542142D01*
X154423047Y-63446904D01*
X154423047Y-63375476D01*
X154446857Y-63280238D01*
X154470666Y-63232619D01*
X154518285Y-63185000D01*
X154589714Y-63161190D01*
X154637333Y-63161190D01*
X154708761Y-63185000D01*
X154732571Y-63208809D01*
X155208761Y-63661190D02*
X154923047Y-63661190D01*
X155065904Y-63661190D02*
X155065904Y-63161190D01*
X155018285Y-63232619D01*
X154970666Y-63280238D01*
X154923047Y-63304047D01*
X155661142Y-63161190D02*
X155423047Y-63161190D01*
X155399238Y-63399285D01*
X155423047Y-63375476D01*
X155470666Y-63351666D01*
X155589714Y-63351666D01*
X155637333Y-63375476D01*
X155661142Y-63399285D01*
X155684952Y-63446904D01*
X155684952Y-63565952D01*
X155661142Y-63613571D01*
X155637333Y-63637380D01*
X155589714Y-63661190D01*
X155470666Y-63661190D01*
X155423047Y-63637380D01*
X155399238Y-63613571D01*
X145207571Y-76567571D02*
X145183761Y-76591380D01*
X145112333Y-76615190D01*
X145064714Y-76615190D01*
X144993285Y-76591380D01*
X144945666Y-76543761D01*
X144921857Y-76496142D01*
X144898047Y-76400904D01*
X144898047Y-76329476D01*
X144921857Y-76234238D01*
X144945666Y-76186619D01*
X144993285Y-76139000D01*
X145064714Y-76115190D01*
X145112333Y-76115190D01*
X145183761Y-76139000D01*
X145207571Y-76162809D01*
X145683761Y-76615190D02*
X145398047Y-76615190D01*
X145540904Y-76615190D02*
X145540904Y-76115190D01*
X145493285Y-76186619D01*
X145445666Y-76234238D01*
X145398047Y-76258047D01*
X146112333Y-76115190D02*
X146017095Y-76115190D01*
X145969476Y-76139000D01*
X145945666Y-76162809D01*
X145898047Y-76234238D01*
X145874238Y-76329476D01*
X145874238Y-76519952D01*
X145898047Y-76567571D01*
X145921857Y-76591380D01*
X145969476Y-76615190D01*
X146064714Y-76615190D01*
X146112333Y-76591380D01*
X146136142Y-76567571D01*
X146159952Y-76519952D01*
X146159952Y-76400904D01*
X146136142Y-76353285D01*
X146112333Y-76329476D01*
X146064714Y-76305666D01*
X145969476Y-76305666D01*
X145921857Y-76329476D01*
X145898047Y-76353285D01*
X145874238Y-76400904D01*
X149255666Y-63626190D02*
X149089000Y-63388095D01*
X148969952Y-63626190D02*
X148969952Y-63126190D01*
X149160428Y-63126190D01*
X149208047Y-63150000D01*
X149231857Y-63173809D01*
X149255666Y-63221428D01*
X149255666Y-63292857D01*
X149231857Y-63340476D01*
X149208047Y-63364285D01*
X149160428Y-63388095D01*
X148969952Y-63388095D01*
X149731857Y-63626190D02*
X149446142Y-63626190D01*
X149589000Y-63626190D02*
X149589000Y-63126190D01*
X149541380Y-63197619D01*
X149493761Y-63245238D01*
X149446142Y-63269047D01*
X146826666Y-79536190D02*
X146660000Y-79298095D01*
X146540952Y-79536190D02*
X146540952Y-79036190D01*
X146731428Y-79036190D01*
X146779047Y-79060000D01*
X146802857Y-79083809D01*
X146826666Y-79131428D01*
X146826666Y-79202857D01*
X146802857Y-79250476D01*
X146779047Y-79274285D01*
X146731428Y-79298095D01*
X146540952Y-79298095D01*
X147017142Y-79083809D02*
X147040952Y-79060000D01*
X147088571Y-79036190D01*
X147207619Y-79036190D01*
X147255238Y-79060000D01*
X147279047Y-79083809D01*
X147302857Y-79131428D01*
X147302857Y-79179047D01*
X147279047Y-79250476D01*
X146993333Y-79536190D01*
X147302857Y-79536190D01*
X158907666Y-68566571D02*
X158883857Y-68590380D01*
X158812428Y-68614190D01*
X158764809Y-68614190D01*
X158693380Y-68590380D01*
X158645761Y-68542761D01*
X158621952Y-68495142D01*
X158598142Y-68399904D01*
X158598142Y-68328476D01*
X158621952Y-68233238D01*
X158645761Y-68185619D01*
X158693380Y-68138000D01*
X158764809Y-68114190D01*
X158812428Y-68114190D01*
X158883857Y-68138000D01*
X158907666Y-68161809D01*
X159145761Y-68614190D02*
X159241000Y-68614190D01*
X159288619Y-68590380D01*
X159312428Y-68566571D01*
X159360047Y-68495142D01*
X159383857Y-68399904D01*
X159383857Y-68209428D01*
X159360047Y-68161809D01*
X159336238Y-68138000D01*
X159288619Y-68114190D01*
X159193380Y-68114190D01*
X159145761Y-68138000D01*
X159121952Y-68161809D01*
X159098142Y-68209428D01*
X159098142Y-68328476D01*
X159121952Y-68376095D01*
X159145761Y-68399904D01*
X159193380Y-68423714D01*
X159288619Y-68423714D01*
X159336238Y-68399904D01*
X159360047Y-68376095D01*
X159383857Y-68328476D01*
X160320571Y-71741571D02*
X160296761Y-71765380D01*
X160225333Y-71789190D01*
X160177714Y-71789190D01*
X160106285Y-71765380D01*
X160058666Y-71717761D01*
X160034857Y-71670142D01*
X160011047Y-71574904D01*
X160011047Y-71503476D01*
X160034857Y-71408238D01*
X160058666Y-71360619D01*
X160106285Y-71313000D01*
X160177714Y-71289190D01*
X160225333Y-71289190D01*
X160296761Y-71313000D01*
X160320571Y-71336809D01*
X160796761Y-71789190D02*
X160511047Y-71789190D01*
X160653904Y-71789190D02*
X160653904Y-71289190D01*
X160606285Y-71360619D01*
X160558666Y-71408238D01*
X160511047Y-71432047D01*
X161106285Y-71289190D02*
X161153904Y-71289190D01*
X161201523Y-71313000D01*
X161225333Y-71336809D01*
X161249142Y-71384428D01*
X161272952Y-71479666D01*
X161272952Y-71598714D01*
X161249142Y-71693952D01*
X161225333Y-71741571D01*
X161201523Y-71765380D01*
X161153904Y-71789190D01*
X161106285Y-71789190D01*
X161058666Y-71765380D01*
X161034857Y-71741571D01*
X161011047Y-71693952D01*
X160987238Y-71598714D01*
X160987238Y-71479666D01*
X161011047Y-71384428D01*
X161034857Y-71336809D01*
X161058666Y-71313000D01*
X161106285Y-71289190D01*
X158796571Y-67550571D02*
X158772761Y-67574380D01*
X158701333Y-67598190D01*
X158653714Y-67598190D01*
X158582285Y-67574380D01*
X158534666Y-67526761D01*
X158510857Y-67479142D01*
X158487047Y-67383904D01*
X158487047Y-67312476D01*
X158510857Y-67217238D01*
X158534666Y-67169619D01*
X158582285Y-67122000D01*
X158653714Y-67098190D01*
X158701333Y-67098190D01*
X158772761Y-67122000D01*
X158796571Y-67145809D01*
X159272761Y-67598190D02*
X158987047Y-67598190D01*
X159129904Y-67598190D02*
X159129904Y-67098190D01*
X159082285Y-67169619D01*
X159034666Y-67217238D01*
X158987047Y-67241047D01*
X159463238Y-67145809D02*
X159487047Y-67122000D01*
X159534666Y-67098190D01*
X159653714Y-67098190D01*
X159701333Y-67122000D01*
X159725142Y-67145809D01*
X159748952Y-67193428D01*
X159748952Y-67241047D01*
X159725142Y-67312476D01*
X159439428Y-67598190D01*
X159748952Y-67598190D01*
X143302571Y-76059571D02*
X143278761Y-76083380D01*
X143207333Y-76107190D01*
X143159714Y-76107190D01*
X143088285Y-76083380D01*
X143040666Y-76035761D01*
X143016857Y-75988142D01*
X142993047Y-75892904D01*
X142993047Y-75821476D01*
X143016857Y-75726238D01*
X143040666Y-75678619D01*
X143088285Y-75631000D01*
X143159714Y-75607190D01*
X143207333Y-75607190D01*
X143278761Y-75631000D01*
X143302571Y-75654809D01*
X143778761Y-76107190D02*
X143493047Y-76107190D01*
X143635904Y-76107190D02*
X143635904Y-75607190D01*
X143588285Y-75678619D01*
X143540666Y-75726238D01*
X143493047Y-75750047D01*
X144207333Y-75773857D02*
X144207333Y-76107190D01*
X144088285Y-75583380D02*
X143969238Y-75940523D01*
X144278761Y-75940523D01*
X159034666Y-74916571D02*
X159010857Y-74940380D01*
X158939428Y-74964190D01*
X158891809Y-74964190D01*
X158820380Y-74940380D01*
X158772761Y-74892761D01*
X158748952Y-74845142D01*
X158725142Y-74749904D01*
X158725142Y-74678476D01*
X158748952Y-74583238D01*
X158772761Y-74535619D01*
X158820380Y-74488000D01*
X158891809Y-74464190D01*
X158939428Y-74464190D01*
X159010857Y-74488000D01*
X159034666Y-74511809D01*
X159320380Y-74678476D02*
X159272761Y-74654666D01*
X159248952Y-74630857D01*
X159225142Y-74583238D01*
X159225142Y-74559428D01*
X159248952Y-74511809D01*
X159272761Y-74488000D01*
X159320380Y-74464190D01*
X159415619Y-74464190D01*
X159463238Y-74488000D01*
X159487047Y-74511809D01*
X159510857Y-74559428D01*
X159510857Y-74583238D01*
X159487047Y-74630857D01*
X159463238Y-74654666D01*
X159415619Y-74678476D01*
X159320380Y-74678476D01*
X159272761Y-74702285D01*
X159248952Y-74726095D01*
X159225142Y-74773714D01*
X159225142Y-74868952D01*
X159248952Y-74916571D01*
X159272761Y-74940380D01*
X159320380Y-74964190D01*
X159415619Y-74964190D01*
X159463238Y-74940380D01*
X159487047Y-74916571D01*
X159510857Y-74868952D01*
X159510857Y-74773714D01*
X159487047Y-74726095D01*
X159463238Y-74702285D01*
X159415619Y-74678476D01*
X160447571Y-67550571D02*
X160423761Y-67574380D01*
X160352333Y-67598190D01*
X160304714Y-67598190D01*
X160233285Y-67574380D01*
X160185666Y-67526761D01*
X160161857Y-67479142D01*
X160138047Y-67383904D01*
X160138047Y-67312476D01*
X160161857Y-67217238D01*
X160185666Y-67169619D01*
X160233285Y-67122000D01*
X160304714Y-67098190D01*
X160352333Y-67098190D01*
X160423761Y-67122000D01*
X160447571Y-67145809D01*
X160923761Y-67598190D02*
X160638047Y-67598190D01*
X160780904Y-67598190D02*
X160780904Y-67098190D01*
X160733285Y-67169619D01*
X160685666Y-67217238D01*
X160638047Y-67241047D01*
X161399952Y-67598190D02*
X161114238Y-67598190D01*
X161257095Y-67598190D02*
X161257095Y-67098190D01*
X161209476Y-67169619D01*
X161161857Y-67217238D01*
X161114238Y-67241047D01*
X147826666Y-63578571D02*
X147802857Y-63602380D01*
X147731428Y-63626190D01*
X147683809Y-63626190D01*
X147612380Y-63602380D01*
X147564761Y-63554761D01*
X147540952Y-63507142D01*
X147517142Y-63411904D01*
X147517142Y-63340476D01*
X147540952Y-63245238D01*
X147564761Y-63197619D01*
X147612380Y-63150000D01*
X147683809Y-63126190D01*
X147731428Y-63126190D01*
X147802857Y-63150000D01*
X147826666Y-63173809D01*
X147993333Y-63126190D02*
X148326666Y-63126190D01*
X148112380Y-63626190D01*
X147826666Y-69078571D02*
X147802857Y-69102380D01*
X147731428Y-69126190D01*
X147683809Y-69126190D01*
X147612380Y-69102380D01*
X147564761Y-69054761D01*
X147540952Y-69007142D01*
X147517142Y-68911904D01*
X147517142Y-68840476D01*
X147540952Y-68745238D01*
X147564761Y-68697619D01*
X147612380Y-68650000D01*
X147683809Y-68626190D01*
X147731428Y-68626190D01*
X147802857Y-68650000D01*
X147826666Y-68673809D01*
X148255238Y-68626190D02*
X148160000Y-68626190D01*
X148112380Y-68650000D01*
X148088571Y-68673809D01*
X148040952Y-68745238D01*
X148017142Y-68840476D01*
X148017142Y-69030952D01*
X148040952Y-69078571D01*
X148064761Y-69102380D01*
X148112380Y-69126190D01*
X148207619Y-69126190D01*
X148255238Y-69102380D01*
X148279047Y-69078571D01*
X148302857Y-69030952D01*
X148302857Y-68911904D01*
X148279047Y-68864285D01*
X148255238Y-68840476D01*
X148207619Y-68816666D01*
X148112380Y-68816666D01*
X148064761Y-68840476D01*
X148040952Y-68864285D01*
X148017142Y-68911904D01*
X132326666Y-72578571D02*
X132302857Y-72602380D01*
X132231428Y-72626190D01*
X132183809Y-72626190D01*
X132112380Y-72602380D01*
X132064761Y-72554761D01*
X132040952Y-72507142D01*
X132017142Y-72411904D01*
X132017142Y-72340476D01*
X132040952Y-72245238D01*
X132064761Y-72197619D01*
X132112380Y-72150000D01*
X132183809Y-72126190D01*
X132231428Y-72126190D01*
X132302857Y-72150000D01*
X132326666Y-72173809D01*
X132779047Y-72126190D02*
X132540952Y-72126190D01*
X132517142Y-72364285D01*
X132540952Y-72340476D01*
X132588571Y-72316666D01*
X132707619Y-72316666D01*
X132755238Y-72340476D01*
X132779047Y-72364285D01*
X132802857Y-72411904D01*
X132802857Y-72530952D01*
X132779047Y-72578571D01*
X132755238Y-72602380D01*
X132707619Y-72626190D01*
X132588571Y-72626190D01*
X132540952Y-72602380D01*
X132517142Y-72578571D01*
X130826666Y-68078571D02*
X130802857Y-68102380D01*
X130731428Y-68126190D01*
X130683809Y-68126190D01*
X130612380Y-68102380D01*
X130564761Y-68054761D01*
X130540952Y-68007142D01*
X130517142Y-67911904D01*
X130517142Y-67840476D01*
X130540952Y-67745238D01*
X130564761Y-67697619D01*
X130612380Y-67650000D01*
X130683809Y-67626190D01*
X130731428Y-67626190D01*
X130802857Y-67650000D01*
X130826666Y-67673809D01*
X130993333Y-67626190D02*
X131302857Y-67626190D01*
X131136190Y-67816666D01*
X131207619Y-67816666D01*
X131255238Y-67840476D01*
X131279047Y-67864285D01*
X131302857Y-67911904D01*
X131302857Y-68030952D01*
X131279047Y-68078571D01*
X131255238Y-68102380D01*
X131207619Y-68126190D01*
X131064761Y-68126190D01*
X131017142Y-68102380D01*
X130993333Y-68078571D01*
X132326666Y-71106571D02*
X132302857Y-71130380D01*
X132231428Y-71154190D01*
X132183809Y-71154190D01*
X132112380Y-71130380D01*
X132064761Y-71082761D01*
X132040952Y-71035142D01*
X132017142Y-70939904D01*
X132017142Y-70868476D01*
X132040952Y-70773238D01*
X132064761Y-70725619D01*
X132112380Y-70678000D01*
X132183809Y-70654190D01*
X132231428Y-70654190D01*
X132302857Y-70678000D01*
X132326666Y-70701809D01*
X132517142Y-70701809D02*
X132540952Y-70678000D01*
X132588571Y-70654190D01*
X132707619Y-70654190D01*
X132755238Y-70678000D01*
X132779047Y-70701809D01*
X132802857Y-70749428D01*
X132802857Y-70797047D01*
X132779047Y-70868476D01*
X132493333Y-71154190D01*
X132802857Y-71154190D01*
X130826666Y-72078571D02*
X130802857Y-72102380D01*
X130731428Y-72126190D01*
X130683809Y-72126190D01*
X130612380Y-72102380D01*
X130564761Y-72054761D01*
X130540952Y-72007142D01*
X130517142Y-71911904D01*
X130517142Y-71840476D01*
X130540952Y-71745238D01*
X130564761Y-71697619D01*
X130612380Y-71650000D01*
X130683809Y-71626190D01*
X130731428Y-71626190D01*
X130802857Y-71650000D01*
X130826666Y-71673809D01*
X131255238Y-71792857D02*
X131255238Y-72126190D01*
X131136190Y-71602380D02*
X131017142Y-71959523D01*
X131326666Y-71959523D01*
X132326666Y-64883571D02*
X132302857Y-64907380D01*
X132231428Y-64931190D01*
X132183809Y-64931190D01*
X132112380Y-64907380D01*
X132064761Y-64859761D01*
X132040952Y-64812142D01*
X132017142Y-64716904D01*
X132017142Y-64645476D01*
X132040952Y-64550238D01*
X132064761Y-64502619D01*
X132112380Y-64455000D01*
X132183809Y-64431190D01*
X132231428Y-64431190D01*
X132302857Y-64455000D01*
X132326666Y-64478809D01*
X132802857Y-64931190D02*
X132517142Y-64931190D01*
X132660000Y-64931190D02*
X132660000Y-64431190D01*
X132612380Y-64502619D01*
X132564761Y-64550238D01*
X132517142Y-64574047D01*
X149553333Y-80814190D02*
X149553333Y-81171333D01*
X149529523Y-81242761D01*
X149481904Y-81290380D01*
X149410476Y-81314190D01*
X149362857Y-81314190D01*
X150005714Y-80980857D02*
X150005714Y-81314190D01*
X149886666Y-80790380D02*
X149767619Y-81147523D01*
X150077142Y-81147523D01*
X134199238Y-64542190D02*
X134199238Y-64042190D01*
X134365904Y-64399333D01*
X134532571Y-64042190D01*
X134532571Y-64542190D01*
X135032571Y-64542190D02*
X134746857Y-64542190D01*
X134889714Y-64542190D02*
X134889714Y-64042190D01*
X134842095Y-64113619D01*
X134794476Y-64161238D01*
X134746857Y-64185047D01*
M02*
